<?xml version="1.0" encoding="UTF-8" standalone="no"?>
<!-- Created with Inkscape (http://www.inkscape.org/) -->

<svg
   xmlns:dc="http://purl.org/dc/elements/1.1/"
   xmlns:cc="http://creativecommons.org/ns#"
   xmlns:rdf="http://www.w3.org/1999/02/22-rdf-syntax-ns#"
   xmlns:svg="http://www.w3.org/2000/svg"
   xmlns="http://www.w3.org/2000/svg"
   xmlns:sodipodi="http://sodipodi.sourceforge.net/DTD/sodipodi-0.dtd"
   xmlns:inkscape="http://www.inkscape.org/namespaces/inkscape"
   width="40.359051mm"
   height="46.566689mm"
   viewBox="0 0 40.359051 46.566689"
   version="1.1"
   id="svg11713"
   sodipodi:docname="blade-plate-no-teeth-outline.svg"
   inkscape:version="0.92.5 (2060ec1f9f, 2020-04-08)">
  <defs
     id="defs11707" />
  <sodipodi:namedview
     id="base"
     pagecolor="#ffffff"
     bordercolor="#666666"
     borderopacity="1.0"
     inkscape:pageopacity="0.0"
     inkscape:pageshadow="2"
     inkscape:zoom="3.959798"
     inkscape:cx="69.649424"
     inkscape:cy="66.968518"
     inkscape:document-units="mm"
     inkscape:current-layer="g12303"
     showgrid="true"
     inkscape:window-width="1920"
     inkscape:window-height="1177"
     inkscape:window-x="1912"
     inkscape:window-y="-8"
     inkscape:window-maximized="1"
     borderlayer="true"
     fit-margin-top="0"
     fit-margin-left="0"
     fit-margin-right="0"
     fit-margin-bottom="0">
    <inkscape:grid
       originy="-51.921904"
       originx="-106.23044"
       spacingx="2.54"
       spacingy="2.54"
       empspacing="1"
       type="xygrid"
       units="mm"
       id="grid12267" />
  </sodipodi:namedview>
  <metadata
     id="metadata11710">
    <rdf:RDF>
      <cc:Work
         rdf:about="">
        <dc:format>image/svg+xml</dc:format>
        <dc:type
           rdf:resource="http://purl.org/dc/dcmitype/StillImage" />
        <dc:title />
      </cc:Work>
    </rdf:RDF>
  </metadata>
  <g
     id="g12273"
     sodipodi:insensitive="true"
     inkscape:groupmode="layer"
     inkscape:label="[fixed] BG"
     transform="translate(-106.23044,60.488589)">
    <rect
       id="rect12271"
       style="fill:#ffffff;fill-opacity:1;stroke:none"
       height="38"
       width="29"
       y="0"
       x="0" />
  </g>
  <g
     id="g12275"
     inkscape:groupmode="layer"
     inkscape:label="F.Cu"
     transform="translate(-106.23044,60.488589)" />
  <g
     id="g12277"
     inkscape:groupmode="layer"
     inkscape:label="B.Cu-disabled"
     transform="translate(-106.23044,60.488589)" />
  <g
     id="g12279"
     inkscape:groupmode="layer"
     inkscape:label="B.Adhes-disabled"
     transform="translate(-106.23044,60.488589)" />
  <g
     id="g12281"
     inkscape:groupmode="layer"
     inkscape:label="F.Adhes-disabled"
     transform="translate(-106.23044,60.488589)" />
  <g
     id="g12283"
     inkscape:groupmode="layer"
     inkscape:label="B.Paste-disabled"
     transform="translate(-106.23044,60.488589)" />
  <g
     id="g12285"
     inkscape:groupmode="layer"
     inkscape:label="F.Paste-disabled"
     transform="translate(-106.23044,60.488589)" />
  <g
     id="g12287"
     inkscape:groupmode="layer"
     inkscape:label="B.SilkS-disabled"
     transform="translate(-106.23044,60.488589)" />
  <g
     id="g12289"
     inkscape:groupmode="layer"
     inkscape:label="F.SilkS-disabled"
     transform="translate(-106.23044,60.488589)" />
  <g
     id="g12291"
     inkscape:groupmode="layer"
     inkscape:label="B.Mask-disabled"
     transform="translate(-106.23044,60.488589)" />
  <g
     id="g12293"
     inkscape:groupmode="layer"
     inkscape:label="F.Mask-disabled"
     transform="translate(-106.23044,60.488589)" />
  <g
     id="g12295"
     inkscape:groupmode="layer"
     inkscape:label="Dwgs.User-disabled"
     transform="translate(-106.23044,60.488589)" />
  <g
     id="g12297"
     inkscape:groupmode="layer"
     inkscape:label="Cmts.User-disabled"
     transform="translate(-106.23044,60.488589)" />
  <g
     id="g12299"
     inkscape:groupmode="layer"
     inkscape:label="Eco1.User-disabled"
     transform="translate(-106.23044,60.488589)" />
  <g
     id="g12301"
     inkscape:groupmode="layer"
     inkscape:label="Eco2.User-disabled"
     transform="translate(-106.23044,60.488589)" />
  <g
     id="g12303"
     inkscape:groupmode="layer"
     inkscape:label="Edge.Cuts"
     transform="translate(-106.23044,60.488589)"
     style="display:inline">
    <path
       id="path4523"
       d="M125.32267 -60.437677L124.05866 -60.404087L123.09852 -60.341037L122.13578 -60.237684L121.17305 -60.095574L120.2129 -59.91419L119.2569 -59.695082L118.30812 -59.437733L117.36916 -59.143694L116.44157 -58.812965L115.52793 -58.446062L114.63082 -58.04402L113.75233 -57.606837L112.89553 -57.135548L112.06147 -56.630669L111.25377 -56.092718L110.47397 -55.521693L109.72518 -54.919146L109.4022 -54.630791L109.08233 -54.314015L108.7671 -53.972434L108.46014 -53.610182L108.16249 -53.230877L107.87775 -52.839686L107.60851 -52.439194L107.35633 -52.034051L107.12482 -51.627874L106.91605 -51.225314L106.73208 -50.829473L106.57602 -50.445L106.45045 -50.075514L106.35745 -49.725664L106.30005 -49.398552L106.28045 -49.098312L106.28045 -20.728984L113.03663 -13.972806L139.77969 -13.972806L146.53948 -20.732601L146.53948 -49.098312L146.52298 -49.459014L146.47598 -49.832634L146.39848 -50.217107L146.29357 -50.608814L146.1618 -51.005173L146.00522 -51.404115L145.82538 -51.80254L145.62385 -52.197865L145.40215 -52.586988L145.16186 -52.967844L144.90451 -53.33733L144.63217 -53.692347L144.34641 -54.030828L144.04823 -54.350188L143.7392 -54.646811L143.42191 -54.919146L142.98835 -55.258143L142.54496 -55.585255L141.63133 -56.205372L140.6841 -56.780014L139.70534 -57.309697L138.6992 -57.794939L137.66723 -58.236773L136.61354 -58.635715L135.54022 -58.993316L134.44985 -59.309059L133.34656 -59.584494L132.2319 -59.820138L131.11 -60.016509L129.98294 -60.174639L128.85329 -60.295562L127.72468 -60.379272L126.6002 -60.426812L125.32267 -60.437677M126.41046 -53.208661L126.94893 -53.182301L127.47861 -53.103231L127.99537 -52.973007L128.49612 -52.79369L128.97671 -52.56683L129.43405 -52.292945L129.86451 -51.974618L130.26397 -51.612367L130.62622 -51.212908L130.94455 -50.782443L131.21843 -50.325106L131.44581 -49.844516L131.62461 -49.343771L131.75483 -48.827007L131.83393 -48.297323L131.86033 -47.758855L131.83393 -47.21987L131.75483 -46.690703L131.62461 -46.173939L131.44581 -45.673194L131.21843 -45.192603L130.94455 -44.735267L130.62622 -44.304802L130.26397 -43.904827L129.86451 -43.543092L129.43405 -43.224248L128.97671 -42.95088L128.49612 -42.723503L127.99537 -42.544186L127.47861 -42.414478L126.94893 -42.335418L126.41046 -42.308548L125.87147 -42.335418L125.3423 -42.414478L124.82554 -42.544186L124.3248 -42.723503L123.84421 -42.95088L123.38687 -43.224248L122.95641 -43.543092L122.55643 -43.904827L122.19469 -44.304802L121.87585 -44.735267L121.60248 -45.192603L121.37511 -45.673194L121.19579 -46.173939L121.06608 -46.690703L120.98648 -47.21987L120.95958 -47.758855L120.98648 -48.297323L121.06608 -48.827007L121.19579 -49.343771L121.37511 -49.844516L121.60248 -50.325106L121.87585 -50.782443L122.19469 -51.212908L122.55643 -51.612367L122.95641 -51.974618L123.38687 -52.292945L123.84421 -52.56683L124.3248 -52.79369L124.82554 -52.973007L125.3423 -53.103231L125.87147 -53.182301L126.41046 -53.208661"
       style="display:inline;fill:none;fill-opacity:1;stroke:#0000ff;stroke-width:0.1000125;stroke-linecap:butt;stroke-linejoin:miter;stroke-miterlimit:4;stroke-dasharray:none;stroke-opacity:1"
       inkscape:connector-curvature="0"
       transform="translate(-1.1666666e-6)" />
  </g>
  <g
     id="g12305"
     inkscape:groupmode="layer"
     inkscape:label="Margin-disabled"
     transform="translate(-106.23044,60.488589)" />
  <g
     id="g12307"
     inkscape:groupmode="layer"
     inkscape:label="B.CrtYd-disabled"
     transform="translate(-106.23044,60.488589)" />
  <g
     id="g12309"
     inkscape:groupmode="layer"
     inkscape:label="F.CrtYd-disabled"
     transform="translate(-106.23044,60.488589)" />
  <g
     id="g12311"
     inkscape:groupmode="layer"
     inkscape:label="B.Fab-disabled"
     transform="translate(-106.23044,60.488589)" />
  <g
     id="g12313"
     inkscape:groupmode="layer"
     inkscape:label="F.Fab"
     transform="translate(-106.23044,60.488589)"
     style="display:inline">
    <g
       transform="translate(-1.1666666e-6)"
       style="display:inline"
       id="g12630">
      <path
         inkscape:connector-curvature="0"
         id="path40-5"
         d="m 125.27513,-58.498702 v 0.999942 h 0.99994 v -0.999942 z m 0.49971,0.175184 a 0.3250019,0.3250019 0 0 1 0.32505,0.325047 0.3250019,0.3250019 0 0 1 -0.32505,0.325046 0.3250019,0.3250019 0 0 1 -0.32452,-0.325046 0.3250019,0.3250019 0 0 1 0.32452,-0.325047 z"
         style="fill:#000000;fill-opacity:1;fill-rule:evenodd;stroke:#000000;stroke-width:0;stroke-linecap:round;stroke-linejoin:round;stroke-opacity:1"
         transform="translate(-1.1666666e-6)" />
      <path
         inkscape:connector-curvature="0"
         id="circle42-1"
         d="m 127.04505,-58.498183 a 0.50000099,0.50000099 0 0 0 -0.50022,0.499712 0.50000099,0.50000099 0 0 0 0.50022,0.500227 0.50000099,0.50000099 0 0 0 0.50023,-0.500227 0.50000099,0.50000099 0 0 0 -0.50023,-0.499712 z m 0,0.174665 a 0.3250019,0.3250019 0 0 1 0.32505,0.325047 0.3250019,0.3250019 0 0 1 -0.32505,0.325046 0.3250019,0.3250019 0 0 1 -0.32504,-0.325046 0.3250019,0.3250019 0 0 1 0.32504,-0.325047 z"
         style="fill:#000000;fill-opacity:1;stroke:#000000;stroke-width:0;stroke-linecap:round;stroke-linejoin:round;stroke-opacity:1"
         transform="translate(-1.1666666e-6)" />
      <path
         inkscape:connector-curvature="0"
         id="path40-5-1"
         d="m 113.55051,-22.703222 v 0.999942 h 0.99994 v -0.999942 z m 0.49971,0.175184 a 0.3250019,0.3250019 0 0 1 0.32505,0.325047 0.3250019,0.3250019 0 0 1 -0.32505,0.325046 0.3250019,0.3250019 0 0 1 -0.32452,-0.325046 0.3250019,0.3250019 0 0 1 0.32452,-0.325047 z"
         style="fill:#000000;fill-opacity:1;fill-rule:evenodd;stroke:#000000;stroke-width:0;stroke-linecap:round;stroke-linejoin:round;stroke-opacity:1"
         transform="translate(-1.1666666e-6)" />
      <path
         inkscape:connector-curvature="0"
         id="circle42-1-8"
         d="m 115.32043,-22.702703 a 0.50000099,0.50000099 0 0 0 -0.50023,0.499712 0.50000099,0.50000099 0 0 0 0.50023,0.500227 0.50000099,0.50000099 0 0 0 0.50023,-0.500227 0.50000099,0.50000099 0 0 0 -0.50023,-0.499712 z m 0,0.174665 a 0.3250019,0.3250019 0 0 1 0.32505,0.325047 0.3250019,0.3250019 0 0 1 -0.32505,0.325046 0.3250019,0.3250019 0 0 1 -0.32504,-0.325046 0.3250019,0.3250019 0 0 1 0.32504,-0.325047 z"
         style="fill:#000000;fill-opacity:1;stroke:#000000;stroke-width:0;stroke-linecap:round;stroke-linejoin:round;stroke-opacity:1"
         transform="translate(-1.1666666e-6)" />
      <path
         inkscape:connector-curvature="0"
         id="path40-5-1-8"
         d="m 137.00007,-22.703222 v 0.999942 h 0.99994 v -0.999942 z m 0.49971,0.175184 a 0.3250019,0.3250019 0 0 1 0.32504,0.325047 0.3250019,0.3250019 0 0 1 -0.32504,0.325046 0.3250019,0.3250019 0 0 1 -0.32453,-0.325046 0.3250019,0.3250019 0 0 1 0.32453,-0.325047 z"
         style="fill:#000000;fill-opacity:1;fill-rule:evenodd;stroke:#000000;stroke-width:0;stroke-linecap:round;stroke-linejoin:round;stroke-opacity:1"
         transform="translate(-1.1666666e-6)" />
      <path
         inkscape:connector-curvature="0"
         id="circle42-1-8-3"
         d="m 138.76999,-22.702703 a 0.50000099,0.50000099 0 0 0 -0.50023,0.499712 0.50000099,0.50000099 0 0 0 0.50023,0.500227 0.50000099,0.50000099 0 0 0 0.50023,-0.500227 0.50000099,0.50000099 0 0 0 -0.50023,-0.499712 z m 0,0.174665 a 0.3250019,0.3250019 0 0 1 0.32504,0.325047 0.3250019,0.3250019 0 0 1 -0.32504,0.325046 0.3250019,0.3250019 0 0 1 -0.32505,-0.325046 0.3250019,0.3250019 0 0 1 0.32505,-0.325047 z"
         style="fill:#000000;fill-opacity:1;stroke:#000000;stroke-width:0;stroke-linecap:round;stroke-linejoin:round;stroke-opacity:1"
         transform="translate(-1.1666666e-6)" />
    </g>
  </g>
  <g
     id="g12315"
     inkscape:groupmode="layer"
     inkscape:label="Drill"
     transform="translate(-106.23044,60.488589)" />
</svg>
