<?xml version="1.0" encoding="UTF-8" standalone="no"?>
<!-- Created with Inkscape (http://www.inkscape.org/) -->

<svg
   xmlns:dc="http://purl.org/dc/elements/1.1/"
   xmlns:cc="http://creativecommons.org/ns#"
   xmlns:rdf="http://www.w3.org/1999/02/22-rdf-syntax-ns#"
   xmlns:svg="http://www.w3.org/2000/svg"
   xmlns="http://www.w3.org/2000/svg"
   xmlns:sodipodi="http://sodipodi.sourceforge.net/DTD/sodipodi-0.dtd"
   xmlns:inkscape="http://www.inkscape.org/namespaces/inkscape"
   width="46.863289mm"
   height="47.763592mm"
   viewBox="0 0 46.863289 47.763592"
   version="1.1"
   id="svg4834"
   inkscape:version="0.92.5 (2060ec1f9f, 2020-04-08)"
   sodipodi:docname="blade-plate.svg">
  <defs
     id="defs4828" />
  <sodipodi:namedview
     id="base"
     pagecolor="#ffffff"
     bordercolor="#666666"
     borderopacity="1.0"
     inkscape:pageopacity="0.0"
     inkscape:pageshadow="2"
     inkscape:zoom="3.959798"
     inkscape:cx="202.00619"
     inkscape:cy="116.72298"
     inkscape:document-units="mm"
     inkscape:current-layer="layer1"
     showgrid="false"
     fit-margin-top="0"
     fit-margin-left="0"
     fit-margin-right="0"
     fit-margin-bottom="0"
     inkscape:window-width="1858"
     inkscape:window-height="1177"
     inkscape:window-x="54"
     inkscape:window-y="-8"
     inkscape:window-maximized="1" />
  <metadata
     id="metadata4831">
    <rdf:RDF>
      <cc:Work
         rdf:about="">
        <dc:format>image/svg+xml</dc:format>
        <dc:type
           rdf:resource="http://purl.org/dc/dcmitype/StillImage" />
        <dc:title></dc:title>
      </cc:Work>
    </rdf:RDF>
  </metadata>
  <g
     inkscape:label="Layer 1"
     inkscape:groupmode="layer"
     id="layer1"
     transform="translate(73.324509,-28.945584)">
    <path
       inkscape:connector-curvature="0"
       style="fill:#000000;fill-opacity:1;stroke:none;stroke-width:0.10001239;stroke-linecap:butt;stroke-linejoin:miter;stroke-miterlimit:4;stroke-dasharray:none;stroke-opacity:1"
       d="m -52.119084,28.94775 c -0.123693,0.0051 -0.243128,0.02212 -0.3576,0.04444 -0.697614,0.135758 -1.169644,0.570468 -1.130165,1.034048 0.04608,0.541575 -0.588556,1.037388 -1.385446,1.1529 -0.741876,0.107527 -1.443993,-0.14015 -1.616438,-0.607716 -0.01214,-0.03302 -0.01413,-0.07299 -0.02119,-0.109037 -0.104632,-0.533964 -0.875662,-0.834769 -1.736844,-0.609264 -0.861147,0.225512 -1.393319,0.867291 -1.23145,1.385961 0.161928,0.518864 -0.351084,1.144535 -1.102775,1.435571 -0.698498,0.27042 -1.436664,0.188892 -1.706872,-0.225824 -0.01942,-0.02983 -0.03005,-0.06884 -0.04496,-0.102839 -0.218295,-0.496157 -1.035389,-0.614232 -1.826244,-0.195852 -0.791097,0.418521 -1.16703,1.167492 -0.893488,1.633492 0.273593,0.466117 -0.08482,1.192253 -0.747241,1.652096 -0.615797,0.427487 -1.352185,0.526984 -1.711524,0.189135 -0.02551,-0.02397 -0.04548,-0.05874 -0.0677,-0.08785 -0.219937,-0.287443 -0.661445,-0.352653 -1.13533,-0.167431 -0.257069,0.100497 -0.5139,0.279167 -0.746725,0.508495 -0.724022,0.713137 -0.8255,1.591283 -0.409276,1.925465 0.416277,0.334264 0.329364,1.162627 -0.09405,1.847433 -0.04845,0.07839 -0.09945,0.152733 -0.15348,0.222207 -0.394615,0.50764 -0.984199,0.826979 -1.399397,0.67903 -0.02233,-0.0082 -0.04424,-0.02249 -0.06615,-0.03359 -0.461629,-0.233122 -1.271357,0.23672 -1.502751,1.53117 -0.06264,0.350351 -0.09978,0.708993 -0.02273,1.023194 0.124778,0.508794 0.488545,0.845397 0.872815,0.845426 0.534919,2.6e-5 0.968418,0.668242 0.968418,1.492932 0,0.768289 -0.368856,1.483114 -0.859896,1.483114 h -0.108522 c -0.535027,0 -0.968483,0.669248 -0.968414,1.493967 5e-5,0.824581 0.433461,1.492368 0.968414,1.492415 0.534919,5.1e-5 0.968418,0.668253 0.968418,1.492933 0,0.768289 -0.368856,1.48363 -0.859896,1.48363 h -0.108522 c -0.535027,0 -0.968483,0.66875 -0.968414,1.493448 5e-5,0.824559 0.433461,1.492894 0.968414,1.492934 0.534919,2.6e-5 0.968418,0.668737 0.968418,1.493448 0,0.767086 -0.367573,1.483114 -0.85783,1.483114 h -0.110588 c -0.535027,0 -0.968483,0.668687 -0.968414,1.493449 5e-5,0.824566 0.433461,1.493396 0.968414,1.493449 0.534919,5.2e-5 0.968418,0.668271 0.968418,1.492932 0,0.767157 -0.367573,1.483114 -0.85783,1.483114 h -0.110588 c -0.535027,0 -0.968483,0.668221 -0.968414,1.492933 5e-5,0.824576 0.433461,1.493409 0.968414,1.493448 0.534919,0 0.968418,0.668272 0.968418,1.492933 0,0.768286 -0.368856,1.48363 -0.859896,1.48363 h -0.108522 c -0.535027,0 -0.968483,0.668758 -0.968414,1.493448 5e-5,0.82458 0.433461,1.492893 0.968414,1.492933 0.534919,5e-5 0.968418,0.66875 0.968418,1.493449 0,0.767984 -0.368613,1.482605 -0.85938,1.483113 l 43.849004,-0.02585 c 0,0 0.368054,-1.483114 0.858345,-1.483114 h 0.110069 c 0.535022,0 0.968494,-0.668232 0.968418,-1.49293 -5.1e-5,-0.824572 -0.433483,-1.493422 -0.968418,-1.493451 -0.534921,-5.1e-5 -0.968414,-0.668232 -0.968414,-1.49293 0,-0.768279 0.369371,-1.483633 0.860411,-1.483633 h 0.108003 c 0.535022,0 0.968494,-0.668181 0.968418,-1.49293 -5.1e-5,-0.824571 -0.433483,-1.493398 -0.968418,-1.493449 -0.534921,-5.2e-5 -0.968414,-0.668263 -0.968414,-1.492932 0,-0.768313 0.369361,-1.48363 0.860411,-1.48363 h 0.108003 c 0.535022,0 0.968494,-0.66875 0.968418,-1.493451 -5.1e-5,-0.824577 -0.433483,-1.492914 -0.968418,-1.49293 -0.534921,-2.7e-5 -0.968414,-0.668753 -0.968414,-1.493451 0,-0.767128 0.368054,-1.482596 0.858345,-1.482596 h 0.110069 c 0.535022,0 0.968494,-0.669239 0.968418,-1.493967 -5.1e-5,-0.824564 -0.433483,-1.492867 -0.968418,-1.492931 -0.534921,-5.3e-5 -0.968414,-0.668771 -0.968414,-1.493451 0,-0.768302 0.369371,-1.483111 0.860411,-1.483111 h 0.108003 c 0.535022,0 0.968494,-0.66819 0.968418,-1.492933 -5.1e-5,-0.824523 -0.433483,-1.493409 -0.968418,-1.493448 -0.534921,-2.7e-5 -0.968414,-0.668261 -0.968414,-1.492933 0,-0.76831 0.369371,-1.48363 0.860411,-1.48363 h 0.108003 c 0.535022,0 0.968502,-0.668234 0.968418,-1.492932 -2.7e-5,-0.302475 -0.07079,-0.579671 -0.159163,-0.81959 -0.200377,-0.543962 -0.528775,-0.832511 -0.86093,-0.794782 -0.516131,0.05863 -1.034566,-0.622614 -1.288294,-1.367358 -0.23985,-0.70408 -0.252349,-1.494544 0.126609,-1.817979 0.02705,-0.02304 0.06557,-0.03792 0.09767,-0.05684 0.461892,-0.272023 0.476089,-1.215982 -0.194307,-2.04122 -0.666948,-0.820986 -1.565799,-0.972651 -1.918745,-0.569992 -0.210711,0.240384 -0.58719,0.284879 -0.980302,0.199472 -0.273357,-0.05936 -0.563997,-0.191217 -0.834575,-0.391708 -0.602144,-0.446164 -0.939435,-1.114681 -0.747242,-1.569413 0.01336,-0.03179 0.03875,-0.06195 0.05788,-0.0925 0.285634,-0.455766 -0.06908,-1.208646 -0.843878,-1.645896 -0.773835,-0.436727 -1.587082,-0.344167 -1.81746,0.141594 -0.230182,0.485365 -1.018071,0.582687 -1.755449,0.270786 -0.686702,-0.290479 -1.162272,-0.864405 -1.075386,-1.353408 0.0062,-0.03467 0.02445,-0.07063 0.03669,-0.105418 0.178355,-0.51014 -0.326382,-1.167325 -1.166852,-1.427305 -0.839515,-0.259675 -1.616567,2.51e-4 -1.746147,0.530201 -0.129088,0.527963 -0.886682,0.790117 -1.679485,0.62787 -0.737169,-0.150858 -1.393103,-0.634225 -1.316715,-1.129647 0.0062,-0.03796 0.01169,-0.07575 0.01757,-0.113689 0.08343,-0.540776 -0.526838,-1.196311 -1.401463,-1.196311 h -5.29e-4 c -0.873845,0 -1.5898,0.294222 -1.629876,0.840777 -0.04012,0.546733 -0.744654,0.937197 -1.555978,0.907439 -0.755089,-0.02767 -1.393766,-0.410199 -1.473295,-0.903822 -0.0062,-0.03518 0,-0.07536 0,-0.112654 -2.27e-4,-0.54742 -0.688237,-0.99038 -1.548225,-0.953431 z m 2.26291,10.289813 a 5.2499998,5.2499998 0 0 1 5.249809,5.250326 5.2499998,5.2499998 0 0 1 -5.249809,5.249809 5.2499998,5.2499998 0 0 1 -5.249807,-5.249809 5.2499998,5.2499998 0 0 1 5.249807,-5.250326 z"
       id="path5658-9" />
    <g
       id="g5427"
       transform="translate(74.50138,16.342267)">
      <path
         id="path5405"
         d="m -70.318236,60.353983 21.495328,-0.01291 c 0,0 0.368054,-1.483114 0.858346,-1.483114 h 0.110072 c 0.535022,0 0.968491,-0.668235 0.968414,-1.492933 -5e-5,-0.824571 -0.43348,-1.493419 -0.968414,-1.493449 -0.534922,-5e-5 -0.968418,-0.668234 -0.968418,-1.492932 0,-0.768279 0.369375,-1.48363 0.860412,-1.48363 h 0.108006 c 0.535022,0 0.968491,-0.668181 0.968414,-1.492933 -5e-5,-0.824568 -0.43348,-1.493395 -0.968414,-1.493448 -0.534922,-5.1e-5 -0.968418,-0.668264 -0.968418,-1.49293 0,-0.768313 0.369364,-1.483633 0.860412,-1.483633 h 0.108006 c 0.535022,0 0.968491,-0.668747 0.968414,-1.493448 -5e-5,-0.824577 -0.43348,-1.492917 -0.968414,-1.492933 -0.534922,-2.6e-5 -0.968418,-0.66875 -0.968418,-1.493449 0,-0.767127 0.368054,-1.482595 0.858346,-1.482595 h 0.110072 c 0.535022,0 0.968491,-0.669237 0.968414,-1.493967 -5e-5,-0.824562 -0.43348,-1.492866 -0.968414,-1.49293 -0.534922,-5.3e-5 -0.968418,-0.668769 -0.968418,-1.493449 0,-0.768302 0.369375,-1.483114 0.860412,-1.483114 h 0.108006 c 0.535022,0 0.968491,-0.668189 0.968414,-1.492932 -5e-5,-0.824523 -0.43348,-1.49341 -0.968414,-1.493449 -0.534922,-2.7e-5 -0.968418,-0.66826 -0.968418,-1.492932 0,-0.76831 0.369375,-1.48363 0.860412,-1.48363 h 0.108006 c 0.535022,0 0.968499,-0.668235 0.968414,-1.492932 -2.6e-5,-0.302475 -0.07079,-0.57967 -0.159162,-0.819589 -0.200377,-0.543962 -0.528775,-0.832512 -0.860931,-0.794783 -0.51613,0.05863 -1.034563,-0.622614 -1.288293,-1.367359 -0.23985,-0.70408 -0.252349,-1.494541 0.126608,-1.817977 0.02705,-0.02304 0.06557,-0.03792 0.09767,-0.05684 0.461891,-0.272024 0.476094,-1.215982 -0.194302,-2.04122 -0.666949,-0.820986 -1.565802,-0.97265 -1.918748,-0.569991 -0.210712,0.240384 -0.58719,0.284878 -0.980303,0.199471 -0.273356,-0.05936 -0.563996,-0.191216 -0.834572,-0.391707 -0.602144,-0.446164 -0.939435,-1.114681 -0.747242,-1.569413 0.01336,-0.03179 0.03875,-0.06195 0.05788,-0.0925 0.285634,-0.455766 -0.06908,-1.208644 -0.843875,-1.645895 -0.773838,-0.436726 -1.587085,-0.344167 -1.81746,0.141594 -0.230183,0.485365 -1.018072,0.582686 -1.75545,0.270784 -0.686702,-0.290478 -1.162272,-0.864402 -1.075386,-1.353405 0.0062,-0.03467 0.02445,-0.07063 0.03669,-0.10542 0.178356,-0.51014 -0.326385,-1.167323 -1.166855,-1.427303 -0.839515,-0.259675 -1.616567,2.5e-4 -1.746146,0.5302 -0.129088,0.527963 -0.88668,0.790116 -1.679483,0.627869 -0.737169,-0.150858 -1.393105,-0.634225 -1.316717,-1.129647 0.0062,-0.03796 0.01169,-0.07575 0.01757,-0.113688 0.08343,-0.540776 -0.526841,-1.19631 -1.401464,-1.19631 h -5.29e-4 c -0.873844,0 -1.589798,0.294221 -1.629874,0.840776 -0.04011,0.546725 -0.74464,0.937188 -1.555964,0.90743 -0.296516,-0.01087 -0.562014,-0.08824 -0.795817,-0.193787 v 8.515243 a 5.2499998,5.2499998 0 0 1 0.03721,-0.0016 5.2499998,5.2499998 0 0 1 5.24981,5.250325 5.2499998,5.2499998 0 0 1 -5.24981,5.249809 5.2499998,5.2499998 0 0 1 -0.03721,-0.0021 z"
         style="fill:#000000;fill-opacity:1;stroke:none;stroke-width:0.10001239;stroke-linecap:butt;stroke-linejoin:miter;stroke-miterlimit:4;stroke-dasharray:none;stroke-opacity:1"
         inkscape:connector-curvature="0" />
      <path
         id="path5658-9-5"
         d="m -93.749364,32.046151 c 5e-5,0.824581 0.433463,1.492369 0.968416,1.492416 0.534919,5.1e-5 0.968417,0.668252 0.968417,1.492932 0,0.768289 -0.368856,1.48363 -0.859896,1.48363 h -0.108521 c -0.535027,0 -0.968485,0.668751 -0.968416,1.493449 5e-5,0.824559 0.433463,1.492892 0.968416,1.492931 0.534919,2.7e-5 0.968417,0.668737 0.968417,1.493449 0,0.767085 -0.367572,1.483114 -0.857829,1.483114 h -0.110588 c -0.535027,0 -0.968485,0.668686 -0.968416,1.493448 5e-5,0.824566 0.433463,1.493396 0.968416,1.493449 0.534919,5.3e-5 0.968417,0.668271 0.968417,1.492932 0,0.767157 -0.367572,1.483114 -0.857829,1.483114 h -0.110588 c -0.535027,0 -0.968485,0.668222 -0.968416,1.492933 5e-5,0.824574 0.433463,1.493409 0.968416,1.493449 0.534919,0 0.968417,0.668271 0.968417,1.492932 0,0.768284 -0.368856,1.48363 -0.859896,1.48363 h -0.108521 c -0.535027,0 -0.968485,0.668758 -0.968416,1.493449 5e-5,0.824579 0.433463,1.492893 0.968416,1.492932 0.534919,5.1e-5 0.968417,0.668751 0.968417,1.493449 0,0.767985 -0.368612,1.482606 -0.859379,1.483114 l 22.353674,-0.01291 V 33.393356 a 5.2499998,5.2499998 0 0 1 -5.212602,-5.247742 5.2499998,5.2499998 0 0 1 5.212602,-5.248775 v -8.515243 c -0.361586,-0.163232 -0.629179,-0.410251 -0.677478,-0.710034 -0.0062,-0.03518 0,-0.07536 0,-0.112654 -2.27e-4,-0.54742 -0.688238,-0.99038 -1.548226,-0.953431 -0.123693,0.0051 -0.243129,0.02212 -0.357601,0.04444 -0.697614,0.135758 -1.169642,0.570466 -1.130163,1.034046 0.04608,0.541575 -0.588556,1.037389 -1.385446,1.152901 -0.741876,0.107527 -1.443993,-0.140149 -1.616439,-0.607715 -0.01214,-0.03302 -0.01413,-0.07299 -0.02119,-0.109037 -0.104632,-0.533964 -0.875663,-0.83477 -1.736845,-0.609265 -0.861147,0.225512 -1.393319,0.867292 -1.23145,1.385962 0.161929,0.518864 -0.351084,1.144535 -1.102775,1.435571 -0.698498,0.27042 -1.436664,0.18889 -1.706872,-0.225826 -0.01942,-0.02983 -0.03005,-0.06884 -0.04496,-0.102837 -0.218295,-0.496157 -1.03539,-0.614233 -1.826245,-0.195853 -0.791097,0.418521 -1.167027,1.167492 -0.893485,1.633492 0.273593,0.466117 -0.08482,1.192253 -0.747242,1.652096 -0.615797,0.427487 -1.352184,0.526984 -1.711523,0.189135 -0.02551,-0.02397 -0.04548,-0.05874 -0.0677,-0.08785 -0.219937,-0.287443 -0.661446,-0.352653 -1.135331,-0.167431 -0.257069,0.100497 -0.5139,0.279168 -0.746725,0.508496 -0.724022,0.713137 -0.825501,1.591282 -0.409277,1.925464 0.416277,0.334264 0.329363,1.162626 -0.09405,1.847432 -0.04845,0.07839 -0.09945,0.152735 -0.153479,0.222209 -0.394615,0.50764 -0.9842,0.826977 -1.399398,0.679028 -0.02233,-0.0082 -0.04424,-0.02249 -0.06615,-0.03359 -0.461629,-0.233122 -1.271357,0.236723 -1.50275,1.531173 -0.06264,0.350351 -0.09979,0.708992 -0.02274,1.023193 0.124778,0.508794 0.488545,0.845398 0.872815,0.845427 0.534919,2.6e-5 0.968416,0.668242 0.968416,1.492932 0,0.768289 -0.368856,1.483114 -0.859896,1.483114 h -0.10852 c -0.535027,0 -0.968485,0.669246 -0.968416,1.493965 z"
         style="fill:#000000;fill-opacity:1;stroke:none;stroke-width:0.10001239;stroke-linecap:butt;stroke-linejoin:miter;stroke-miterlimit:4;stroke-dasharray:none;stroke-opacity:1"
         inkscape:connector-curvature="0" />
    </g>
    <text
       xml:space="preserve"
       style="font-style:normal;font-weight:normal;font-size:4.23333311px;line-height:1.25;font-family:sans-serif;letter-spacing:0px;word-spacing:0px;fill:#000000;fill-opacity:1;stroke:none;stroke-width:0.26458332"
       x="-56.469208"
       y="23.722994"
       id="text5431"><tspan
         sodipodi:role="line"
         id="tspan5429"
         x="-56.469208"
         y="23.722994"
         style="stroke-width:0.26458332">Whole</tspan></text>
    <text
       xml:space="preserve"
       style="font-style:normal;font-weight:normal;font-size:4.23333311px;line-height:1.25;font-family:sans-serif;letter-spacing:0px;word-spacing:0px;fill:#000000;fill-opacity:1;stroke:none;stroke-width:0.26458332"
       x="-13.835917"
       y="23.455725"
       id="text5435"><tspan
         sodipodi:role="line"
         id="tspan5433"
         x="-13.835917"
         y="23.455725"
         style="stroke-width:0.26458332">Split for FreeCAD</tspan></text>
  </g>
</svg>
