<?xml version="1.0" encoding="UTF-8" standalone="no"?>
<!-- Created with Inkscape (http://www.inkscape.org/) -->

<svg
   xmlns:dc="http://purl.org/dc/elements/1.1/"
   xmlns:cc="http://creativecommons.org/ns#"
   xmlns:rdf="http://www.w3.org/1999/02/22-rdf-syntax-ns#"
   xmlns:svg="http://www.w3.org/2000/svg"
   xmlns="http://www.w3.org/2000/svg"
   xmlns:sodipodi="http://sodipodi.sourceforge.net/DTD/sodipodi-0.dtd"
   xmlns:inkscape="http://www.inkscape.org/namespaces/inkscape"
   width="46.964588mm"
   height="47.861267mm"
   viewBox="0 0 46.964588 47.861268"
   version="1.1"
   id="svg844"
   inkscape:version="0.92.5 (2060ec1f9f, 2020-04-08)"
   sodipodi:docname="blade-plate-outline.svg">
  <defs
     id="defs838">
    <inkscape:path-effect
       effect="skeletal"
       id="path-effect868-5-9"
       is_visible="true"
       pattern="#rect5199-7-7"
       copytype="repeated"
       prop_scale="1"
       scale_y_rel="false"
       spacing="-0.01"
       normal_offset="0"
       tang_offset="0"
       prop_units="false"
       vertical_pattern="false"
       fuse_tolerance="0" />
  </defs>
  <sodipodi:namedview
     id="base"
     pagecolor="#ffffff"
     bordercolor="#666666"
     borderopacity="1.0"
     inkscape:pageopacity="0.0"
     inkscape:pageshadow="2"
     inkscape:zoom="5.6"
     inkscape:cx="80.201292"
     inkscape:cy="77.291054"
     inkscape:document-units="mm"
     inkscape:current-layer="g1426"
     showgrid="true"
     inkscape:window-width="1858"
     inkscape:window-height="1177"
     inkscape:window-x="54"
     inkscape:window-y="-8"
     inkscape:window-maximized="1"
     borderlayer="true"
     fit-margin-top="0"
     fit-margin-left="0"
     fit-margin-right="0"
     fit-margin-bottom="0"
     objecttolerance="1"
     gridtolerance="1"
     guidetolerance="10">
    <inkscape:grid
       originy="-11.414911"
       originx="-116.40507"
       spacingx="2.54"
       spacingy="2.54"
       empspacing="1"
       type="xygrid"
       units="mm"
       id="grid1390" />
  </sodipodi:namedview>
  <metadata
     id="metadata841">
    <rdf:RDF>
      <cc:Work
         rdf:about="">
        <dc:format>image/svg+xml</dc:format>
        <dc:type
           rdf:resource="http://purl.org/dc/dcmitype/StillImage" />
        <dc:title></dc:title>
      </cc:Work>
    </rdf:RDF>
  </metadata>
  <g
     id="g1396"
     sodipodi:insensitive="true"
     inkscape:groupmode="layer"
     inkscape:label="[fixed] BG"
     transform="translate(-116.40507,21.276174)">
    <rect
       id="rect1394"
       style="fill:#ffffff;fill-opacity:1;stroke:none"
       height="38"
       width="29"
       y="0"
       x="0" />
  </g>
  <g
     id="g1398"
     inkscape:groupmode="layer"
     inkscape:label="F.Cu-disabled"
     transform="translate(-116.40507,21.276174)" />
  <g
     id="g1400"
     inkscape:groupmode="layer"
     inkscape:label="B.Cu-disabled"
     transform="translate(-116.40507,21.276174)" />
  <g
     id="g1402"
     inkscape:groupmode="layer"
     inkscape:label="B.Adhes-disabled"
     transform="translate(-116.40507,21.276174)" />
  <g
     id="g1404"
     inkscape:groupmode="layer"
     inkscape:label="F.Adhes-disabled"
     transform="translate(-116.40507,21.276174)" />
  <g
     id="g1406"
     inkscape:groupmode="layer"
     inkscape:label="B.Paste-disabled"
     transform="translate(-116.40507,21.276174)" />
  <g
     id="g1408"
     inkscape:groupmode="layer"
     inkscape:label="F.Paste-disabled"
     transform="translate(-116.40507,21.276174)" />
  <g
     id="g1410"
     inkscape:groupmode="layer"
     inkscape:label="B.SilkS-disabled"
     transform="translate(-116.40507,21.276174)" />
  <g
     id="g1412"
     inkscape:groupmode="layer"
     inkscape:label="F.SilkS-disabled"
     transform="translate(-116.40507,21.276174)" />
  <g
     id="g1414"
     inkscape:groupmode="layer"
     inkscape:label="B.Mask-disabled"
     transform="translate(-116.40507,21.276174)" />
  <g
     id="g1416"
     inkscape:groupmode="layer"
     inkscape:label="F.Mask-disabled"
     transform="translate(-116.40507,21.276174)" />
  <g
     id="g1418"
     inkscape:groupmode="layer"
     inkscape:label="Dwgs.User-disabled"
     transform="translate(-116.40507,21.276174)" />
  <g
     id="g1420"
     inkscape:groupmode="layer"
     inkscape:label="Cmts.User-disabled"
     transform="translate(-116.40507,21.276174)" />
  <g
     id="g1422"
     inkscape:groupmode="layer"
     inkscape:label="Eco1.User-disabled"
     transform="translate(-116.40507,21.276174)" />
  <g
     id="g1424"
     inkscape:groupmode="layer"
     inkscape:label="Eco2.User-disabled"
     transform="translate(-116.40507,21.276174)" />
  <g
     id="g1426"
     inkscape:groupmode="layer"
     inkscape:label="Edge.Cuts"
     transform="translate(-116.40507,21.276174)"
     style="display:inline">
    <path
       style="display:inline;fill:none;fill-opacity:1;stroke:#000000;stroke-width:0.3779529;stroke-linecap:butt;stroke-linejoin:miter;stroke-miterlimit:4;stroke-dasharray:none;stroke-opacity:1"
       d="M 80.339844 0.18945312 L 79.650391 0.25 L 78.988281 0.35742188 L 78.041016 0.6015625 L 77.1875 0.9375 L 76.439453 1.3574219 L 75.808594 1.8476562 L 75.306641 2.3945312 L 74.949219 2.9882812 L 74.75 3.6152344 L 74.714844 4.265625 L 74.71875 4.6464844 L 74.664062 5.0234375 L 74.394531 5.7480469 L 73.929688 6.4296875 L 73.291016 7.0488281 L 72.505859 7.5917969 L 71.591797 8.046875 L 70.576172 8.3945312 L 69.478516 8.6230469 L 68.4375 8.7128906 L 67.433594 8.6835938 L 66.484375 8.5410156 L 65.617188 8.2890625 L 64.849609 7.9375 L 64.205078 7.4882812 L 63.703125 6.9492188 L 63.369141 6.3261719 L 63.289062 5.9140625 L 63.185547 5.546875 L 63.027344 5.2011719 L 62.554688 4.5820312 L 61.896484 4.0742188 L 61.080078 3.6855469 L 60.126953 3.4335938 L 59.068359 3.328125 L 57.925781 3.3828125 L 56.724609 3.6113281 L 55.564453 4 L 54.539062 4.5136719 L 53.660156 5.1269531 L 52.947266 5.8144531 L 52.416016 6.5546875 L 52.082031 7.3242188 L 51.960938 8.0957031 L 51.988281 8.4765625 L 52.072266 8.8496094 L 52.158203 9.2207031 L 52.183594 9.6015625 L 52.078125 10.369141 L 51.769531 11.138672 L 51.28125 11.884766 L 50.630859 12.591797 L 49.837891 13.240234 L 48.921875 13.806641 L 47.902344 14.275391 L 46.910156 14.595703 L 45.923828 14.792969 L 44.970703 14.867188 L 44.070312 14.820312 L 43.246094 14.650391 L 42.519531 14.359375 L 41.914062 13.951172 L 41.451172 13.421875 L 41.28125 13.033203 L 41.101562 12.699219 L 40.871094 12.398438 L 40.275391 11.904297 L 39.523438 11.558594 L 38.642578 11.367188 L 37.658203 11.337891 L 36.603516 11.478516 L 35.5 11.792969 L 34.378906 12.292969 L 33.333984 12.939453 L 32.445312 13.677734 L 31.724609 14.476562 L 31.181641 15.3125 L 30.828125 16.15625 L 30.673828 16.982422 L 30.726562 17.759766 L 30.835938 18.125 L 31.001953 18.466797 L 31.167969 18.808594 L 31.279297 19.169922 L 31.349609 19.941406 L 31.222656 20.757812 L 30.916016 21.597656 L 30.443359 22.435547 L 29.820312 23.25 L 29.060547 24.015625 L 28.177734 24.710938 L 27.287109 25.257812 L 26.375 25.683594 L 25.466797 25.984375 L 24.580078 26.152344 L 23.738281 26.1875 L 22.964844 26.080078 L 22.28125 25.828125 L 21.708984 25.425781 L 21.453125 25.09375 L 21.103516 24.726562 L 20.683594 24.4375 L 20.201172 24.230469 L 19.667969 24.107422 L 19.087891 24.066406 L 18.470703 24.111328 L 17.826172 24.242188 L 17.162109 24.460938 L 16.433594 24.798828 L 15.716797 25.238281 L 15.015625 25.769531 L 14.339844 26.382812 L 13.421875 27.417969 L 12.722656 28.478516 L 12.232422 29.537109 L 11.949219 30.558594 L 11.869141 31.513672 L 11.986328 32.369141 L 12.117188 32.75 L 12.294922 33.095703 L 12.521484 33.400391 L 12.792969 33.660156 L 13.066406 33.917969 L 13.294922 34.216797 L 13.625 34.919922 L 13.792969 35.742188 L 13.804688 36.654297 L 13.667969 37.628906 L 13.388672 38.636719 L 12.976562 39.650391 L 12.4375 40.642578 L 11.857422 41.482422 L 11.265625 42.166016 L 10.621094 42.771484 L 9.9414062 43.285156 L 9.2421875 43.695312 L 8.5371094 43.988281 L 7.8457031 44.154297 L 7.1835938 44.177734 L 6.5683594 44.048828 L 6.3183594 43.921875 L 5.9765625 43.787109 L 5.609375 43.716797 L 5.2207031 43.708984 L 4.8183594 43.765625 L 4.4042969 43.888672 L 3.984375 44.076172 L 3.5664062 44.330078 L 3.1523438 44.650391 L 2.7480469 45.039062 L 2.359375 45.496094 L 1.9921875 46.021484 L 1.6503906 46.617188 L 1.3378906 47.283203 L 1.0625 48.019531 L 0.82617188 48.828125 L 0.63867188 49.708984 L 0.484375 50.705078 L 0.3984375 51.693359 L 0.40820312 52.65625 L 0.55273438 53.576172 L 0.76953125 54.265625 L 1.0625 54.886719 L 1.4199219 55.431641 L 1.8339844 55.894531 L 2.2929688 56.267578 L 2.7890625 56.542969 L 3.3105469 56.712891 L 3.8515625 56.771484 L 4.2246094 56.800781 L 4.5878906 56.886719 L 5.2753906 57.214844 L 5.8964844 57.734375 L 6.4394531 58.423828 L 6.8867188 59.257812 L 7.2226562 60.216797 L 7.4375 61.277344 L 7.5117188 62.414062 L 7.4472656 63.488281 L 7.2636719 64.513672 L 6.9726562 65.462891 L 6.5820312 66.304688 L 6.1054688 67.011719 L 5.5527344 67.550781 L 4.9335938 67.896484 L 4.6035156 67.988281 L 4.2617188 68.019531 L 3.8515625 68.019531 L 3.4765625 68.048828 L 3.1132812 68.134766 L 2.4257812 68.462891 L 1.8046875 68.984375 L 1.2636719 69.673828 L 0.81640625 70.509766 L 0.47851562 71.46875 L 0.265625 72.527344 L 0.19140625 73.666016 L 0.265625 74.802734 L 0.47851562 75.861328 L 0.81640625 76.820312 L 1.2636719 77.654297 L 1.8046875 78.34375 L 2.4257812 78.863281 L 3.1132812 79.191406 L 3.4765625 79.277344 L 3.8515625 79.306641 L 4.2246094 79.335938 L 4.5898438 79.421875 L 5.2753906 79.75 L 5.8984375 80.269531 L 6.4394531 80.958984 L 6.8867188 81.792969 L 7.2246094 82.751953 L 7.4375 83.8125 L 7.5117188 84.949219 L 7.4472656 86.023438 L 7.265625 87.050781 L 6.9726562 88 L 6.5820312 88.841797 L 6.1054688 89.546875 L 5.5527344 90.087891 L 4.9335938 90.433594 L 4.6035156 90.525391 L 4.2617188 90.556641 L 3.8515625 90.556641 L 3.4765625 90.585938 L 3.1132812 90.671875 L 2.4257812 91 L 1.8046875 91.519531 L 1.2617188 92.208984 L 0.81640625 93.044922 L 0.47851562 94.003906 L 0.265625 95.0625 L 0.18945312 96.201172 L 0.265625 97.337891 L 0.47851562 98.396484 L 0.81640625 99.355469 L 1.2617188 100.19141 L 1.8046875 100.87891 L 2.4257812 101.40039 L 3.1132812 101.72852 L 3.4765625 101.81445 L 3.8515625 101.84375 L 4.2246094 101.87305 L 4.5878906 101.95898 L 5.2753906 102.28711 L 5.8964844 102.80664 L 6.4394531 103.49609 L 6.8867188 104.33203 L 7.2226562 105.29102 L 7.4355469 106.34961 L 7.5117188 107.48828 L 7.4472656 108.56055 L 7.265625 109.58789 L 6.9726562 110.53516 L 6.5839844 111.37891 L 6.109375 112.08398 L 5.5566406 112.625 L 4.9394531 112.9707 L 4.609375 113.0625 L 4.2695312 113.09375 L 3.8515625 113.09375 L 3.4765625 113.12305 L 3.1132812 113.20898 L 2.4257812 113.53711 L 1.8027344 114.05664 L 1.2617188 114.74609 L 0.81445312 115.58203 L 0.47851562 116.54102 L 0.26367188 117.59961 L 0.18945312 118.73828 L 0.26367188 119.875 L 0.47851562 120.93359 L 0.81445312 121.89258 L 1.2617188 122.72852 L 1.8027344 123.41797 L 2.4257812 123.93945 L 3.1132812 124.26758 L 3.4765625 124.35352 L 3.8496094 124.38281 L 4.2246094 124.41211 L 4.5878906 124.49609 L 5.2753906 124.82617 L 5.8964844 125.3457 L 6.4375 126.03516 L 6.8847656 126.86914 L 7.2226562 127.82812 L 7.4355469 128.88672 L 7.5097656 130.02539 L 7.4472656 131.09766 L 7.2636719 132.12305 L 6.9726562 133.07227 L 6.5839844 133.91406 L 6.1074219 134.62109 L 5.5566406 135.16211 L 4.9394531 135.50781 L 4.609375 135.59961 L 4.2675781 135.63086 L 3.8496094 135.63086 L 3.4765625 135.66016 L 3.1113281 135.74414 L 2.4257812 136.07422 L 1.8027344 136.59375 L 1.2617188 137.2832 L 0.81445312 138.11719 L 0.4765625 139.07617 L 0.26367188 140.13477 L 0.18945312 141.27344 L 0.26367188 142.41016 L 0.4765625 143.46875 L 0.81445312 144.42773 L 1.2617188 145.26367 L 1.8027344 145.95312 L 2.4238281 146.47266 L 3.1113281 146.80273 L 3.4746094 146.88867 L 3.8496094 146.91797 L 4.2246094 146.94531 L 4.5878906 147.03125 L 5.2753906 147.36133 L 5.8964844 147.88086 L 6.4375 148.57031 L 6.8847656 149.4043 L 7.2226562 150.36328 L 7.4355469 151.42188 L 7.5097656 152.56055 L 7.4472656 153.63477 L 7.2636719 154.66016 L 6.9707031 155.60938 L 6.5800781 156.45312 L 6.1035156 157.1582 L 5.5507812 157.69922 L 4.9316406 158.04492 L 4.6015625 158.13672 L 4.2597656 158.16797 L 3.8496094 158.16797 L 3.4765625 158.19531 L 3.1113281 158.28125 L 2.4257812 158.61133 L 1.8027344 159.13086 L 1.2617188 159.82031 L 0.81445312 160.65625 L 0.4765625 161.61523 L 0.26367188 162.67383 L 0.18945312 163.81055 L 0.26367188 164.94922 L 0.4765625 166.00781 L 0.81445312 166.9668 L 1.2617188 167.80078 L 1.8027344 168.49023 L 2.4257812 169.00977 L 3.1132812 169.33984 L 3.4765625 169.42578 L 3.8496094 169.45312 L 4.2246094 169.48242 L 4.5878906 169.56836 L 5.2753906 169.89844 L 5.8964844 170.41797 L 6.4375 171.10742 L 6.8847656 171.94336 L 7.2226562 172.90234 L 7.4355469 173.96094 L 7.5097656 175.09766 L 7.4472656 176.17188 L 7.2636719 177.19922 L 6.9726562 178.14648 L 6.5820312 178.98828 L 6.1054688 179.69531 L 5.5527344 180.23633 L 4.9335938 180.58203 L 4.6054688 180.67188 L 4.2617188 180.70312 L 169.99023 180.60547 L 170.23828 179.73047 L 170.5293 178.83203 L 170.91797 177.80273 L 171.39453 176.77539 L 171.94727 175.87695 L 172.24805 175.51758 L 172.56445 175.24219 L 172.89258 175.06445 L 173.23438 175 L 173.65039 175 L 174.02539 174.9707 L 174.38867 174.88672 L 175.07617 174.55664 L 175.69727 174.03711 L 176.24023 173.34766 L 176.6875 172.51367 L 177.02344 171.55469 L 177.23828 170.49609 L 177.3125 169.35742 L 177.23828 168.2207 L 177.02344 167.16211 L 176.6875 166.20312 L 176.24023 165.36719 L 175.69727 164.67773 L 175.07617 164.1582 L 174.38867 163.82812 L 174.02539 163.74219 L 173.65234 163.71289 L 173.27734 163.68555 L 172.91406 163.59961 L 172.22656 163.26953 L 171.60547 162.75 L 171.0625 162.06055 L 170.61719 161.22656 L 170.2793 160.26758 L 170.06641 159.20898 L 169.99219 158.07031 L 170.05469 156.99609 L 170.23828 155.9707 L 170.53125 155.02148 L 170.92188 154.17773 L 171.39844 153.47266 L 171.95312 152.93164 L 172.57031 152.58594 L 172.90039 152.49414 L 173.24414 152.46289 L 173.65234 152.46289 L 174.02539 152.43555 L 174.39062 152.34961 L 175.07617 152.02148 L 175.69922 151.5 L 176.24023 150.81055 L 176.6875 149.97656 L 177.02539 149.01758 L 177.23828 147.95898 L 177.3125 146.82031 L 177.23828 145.68359 L 177.02539 144.625 L 176.6875 143.66602 L 176.24023 142.83008 L 175.69922 142.14062 L 175.07812 141.62109 L 174.39062 141.29102 L 174.02734 141.20508 L 173.65234 141.17773 L 173.27734 141.14844 L 172.91406 141.0625 L 172.22656 140.73438 L 171.60547 140.21289 L 171.06445 139.52344 L 170.61719 138.68945 L 170.2793 137.73047 L 170.06641 136.67188 L 169.99219 135.53516 L 170.05469 134.45898 L 170.23828 133.43359 L 170.53125 132.48438 L 170.92188 131.64258 L 171.40039 130.93555 L 171.95312 130.39453 L 172.57227 130.04883 L 172.90234 129.95703 L 173.24414 129.92773 L 173.65234 129.92773 L 174.02734 129.89844 L 174.39062 129.8125 L 175.07812 129.48438 L 175.69922 128.96289 L 176.24219 128.27344 L 176.6875 127.4375 L 177.02539 126.47852 L 177.23828 125.41992 L 177.3125 124.2832 L 177.23828 123.14453 L 177.02539 122.08594 L 176.6875 121.12695 L 176.24219 120.29297 L 175.69922 119.60352 L 175.07812 119.08398 L 174.39062 118.75391 L 174.02734 118.66992 L 173.65234 118.64062 L 173.2793 118.61133 L 172.91602 118.52539 L 172.22852 118.19727 L 171.60742 117.67578 L 171.06445 116.98633 L 170.61719 116.15039 L 170.28125 115.19141 L 170.06641 114.13281 L 169.99219 112.99609 L 170.05664 111.92188 L 170.23828 110.89648 L 170.53125 109.94922 L 170.91992 109.10547 L 171.39648 108.40039 L 171.94727 107.85938 L 172.56641 107.51367 L 172.89453 107.42383 L 173.23633 107.39258 L 173.65234 107.39258 L 174.02734 107.36328 L 174.39062 107.27734 L 175.07812 106.94727 L 175.69922 106.42773 L 176.24219 105.73828 L 176.6875 104.90234 L 177.02539 103.94336 L 177.23828 102.88281 L 177.31445 101.74609 L 177.23828 100.60742 L 177.02539 99.548828 L 176.6875 98.589844 L 176.24219 97.755859 L 175.69922 97.066406 L 175.07812 96.546875 L 174.39062 96.216797 L 174.02734 96.132812 L 173.65234 96.103516 L 173.2793 96.074219 L 172.91602 95.988281 L 172.22852 95.658203 L 171.60742 95.138672 L 171.06445 94.449219 L 170.61719 93.613281 L 170.28125 92.654297 L 170.06836 91.595703 L 169.99219 90.458984 L 170.05664 89.382812 L 170.24023 88.357422 L 170.5332 87.408203 L 170.92383 86.566406 L 171.40039 85.861328 L 171.95312 85.320312 L 172.57227 84.974609 L 172.90234 84.884766 L 173.24609 84.853516 L 173.6543 84.853516 L 174.02734 84.824219 L 174.39062 84.738281 L 175.07812 84.410156 L 175.70117 83.888672 L 176.24219 83.201172 L 176.68945 82.365234 L 177.02734 81.40625 L 177.24023 80.347656 L 177.31445 79.210938 L 177.24023 78.072266 L 177.02734 77.013672 L 176.68945 76.054688 L 176.24219 75.21875 L 175.70117 74.529297 L 175.07812 74.009766 L 174.39258 73.679688 L 174.02734 73.595703 L 173.6543 73.566406 L 173.2793 73.537109 L 172.91602 73.451172 L 172.22852 73.123047 L 171.60742 72.601562 L 171.06641 71.914062 L 170.61914 71.078125 L 170.28125 70.119141 L 170.06836 69.060547 L 169.99414 67.923828 L 170.05664 66.847656 L 170.24023 65.822266 L 170.5332 64.873047 L 170.92383 64.03125 L 171.40039 63.324219 L 171.95508 62.783203 L 172.57227 62.4375 L 172.9043 62.347656 L 173.24609 62.316406 L 173.6543 62.316406 L 174.0293 62.287109 L 174.39258 62.201172 L 175.08008 61.873047 L 175.70117 61.351562 L 176.24219 60.664062 L 176.68945 59.828125 L 177.02734 58.869141 L 177.24023 57.810547 L 177.31445 56.673828 L 177.26758 55.833984 L 177.13867 55.035156 L 176.94727 54.28125 L 176.71289 53.576172 L 176.40625 52.849609 L 176.06055 52.21875 L 175.68164 51.683594 L 175.27344 51.248047 L 174.83984 50.917969 L 174.39062 50.691406 L 173.92773 50.576172 L 173.45898 50.572266 L 173.09375 50.580078 L 172.72852 50.529297 L 172.00977 50.253906 L 171.31445 49.775391 L 170.65234 49.126953 L 170.03711 48.333984 L 169.48047 47.429688 L 168.99414 46.443359 L 168.58984 45.404297 L 168.29102 44.394531 L 168.08008 43.378906 L 167.96484 42.382812 L 167.95312 41.427734 L 168.05078 40.542969 L 168.26367 39.748047 L 168.60156 39.070312 L 169.07031 38.533203 L 169.43945 38.318359 L 169.74609 38.095703 L 170.01367 37.818359 L 170.23633 37.490234 L 170.41797 37.117188 L 170.64258 36.248047 L 170.67578 35.244141 L 170.50977 34.142578 L 170.13281 32.978516 L 169.53516 31.787109 L 168.70508 30.603516 L 167.72266 29.556641 L 166.69531 28.742188 L 165.6543 28.15625 L 164.63281 27.791016 L 163.66797 27.642578 L 162.79297 27.707031 L 162.40039 27.816406 L 162.04297 27.976562 L 161.72656 28.1875 L 161.45117 28.449219 L 161.125 28.755859 L 160.74609 28.994141 L 160.32227 29.171875 L 159.85742 29.287109 L 159.36328 29.345703 L 158.83984 29.347656 L 157.74609 29.203125 L 156.96289 28.982422 L 156.16602 28.662109 L 155.37109 28.242188 L 154.5918 27.722656 L 153.78906 27.052734 L 153.08984 26.326172 L 152.50781 25.556641 L 152.05469 24.767578 L 151.74219 23.978516 L 151.58398 23.205078 L 151.58789 22.46875 L 151.76758 21.791016 L 151.98633 21.441406 L 152.16016 21.105469 L 152.2793 20.746094 L 152.35547 19.974609 L 152.22461 19.150391 L 151.89453 18.304688 L 151.37891 17.460938 L 150.68359 16.646484 L 149.82031 15.890625 L 148.79688 15.220703 L 147.69727 14.693359 L 146.61328 14.349609 L 145.56836 14.179688 L 144.5918 14.179688 L 143.71289 14.34375 L 142.95703 14.664062 L 142.35352 15.136719 L 142.11719 15.427734 L 141.92773 15.755859 L 141.74023 16.082031 L 141.50781 16.375 L 140.91602 16.855469 L 140.18164 17.195312 L 139.33008 17.396484 L 138.38867 17.457031 L 137.38281 17.373047 L 136.34375 17.148438 L 135.29297 16.779297 L 134.35938 16.320312 L 133.51758 15.775391 L 132.7793 15.164062 L 132.16406 14.501953 L 131.68555 13.804688 L 131.36133 13.087891 L 131.20312 12.369141 L 131.22852 11.664062 L 131.36719 11.265625 L 131.46484 10.896484 L 131.50195 10.519531 L 131.41016 9.7460938 L 131.10547 8.9707031 L 130.60742 8.2128906 L 129.92773 7.5 L 129.08203 6.8574219 L 128.08789 6.3046875 L 126.95703 5.8710938 L 125.7832 5.5917969 L 124.65625 5.4882812 L 123.60352 5.5449219 L 122.65234 5.7539062 L 121.82422 6.1015625 L 121.15039 6.578125 L 120.65234 7.1738281 L 120.47852 7.5117188 L 120.35742 7.875 L 120.24023 8.2363281 L 120.06836 8.5742188 L 119.58203 9.1738281 L 118.92578 9.6640625 L 118.125 10.039062 L 117.20703 10.292969 L 116.19727 10.416016 L 115.12305 10.404297 L 114.00977 10.248047 L 112.98438 9.9765625 L 112.01758 9.6035156 L 111.13477 9.140625 L 110.36914 8.6015625 L 109.74805 8.0019531 L 109.29883 7.3554688 L 109.05078 6.6757812 L 109.01172 6.328125 L 109.03516 5.9785156 L 109.10156 5.5488281 L 109.13086 5.1601562 L 109.10156 4.7675781 L 108.87305 3.9804688 L 108.4375 3.21875 L 107.8125 2.5214844 L 107.01758 1.9179688 L 106.07227 1.4453125 L 104.99609 1.1367188 L 104.41406 1.0546875 L 103.80664 1.0273438 L 103.80469 1.0273438 L 102.59766 1.078125 L 101.46875 1.2324219 L 100.44336 1.4882812 L 99.541016 1.8417969 L 98.789062 2.2910156 L 98.205078 2.8359375 L 97.816406 3.4746094 L 97.701172 3.828125 L 97.644531 4.2050781 L 97.585938 4.5839844 L 97.472656 4.9492188 L 97.091797 5.6289062 L 96.523438 6.2285156 L 95.794922 6.7363281 L 94.929688 7.1425781 L 93.953125 7.4355469 L 92.888672 7.6035156 L 91.761719 7.6347656 L 90.716797 7.5332031 L 89.730469 7.3183594 L 88.826172 7 L 88.021484 6.5859375 L 87.335938 6.0917969 L 86.789062 5.5234375 L 86.402344 4.8964844 L 86.193359 4.21875 L 86.193359 3.7929688 L 86.164062 3.4101562 L 86.076172 3.0371094 L 85.736328 2.3378906 L 85.199219 1.7070312 L 84.486328 1.1621094 L 83.623047 0.72265625 L 82.628906 0.40234375 L 81.527344 0.21875 L 80.341797 0.18945312 L 80.339844 0.18945312 z M 85.990234 37.617188 C 102.14556 37.469419 119.5279 41.622969 131.97852 51.640625 C 136.33596 55.14659 139.90039 61.642868 139.90039 66.431641 L 139.90039 150.76953 L 37.603516 150.76953 L 37.603516 66.431641 C 37.603516 62.565744 41.977382 55.335311 46.355469 51.640625 C 56.289672 43.257111 69.791419 38.284244 82.777344 37.703125 C 83.841634 37.655498 84.913213 37.627039 85.990234 37.617188 z "
       id="path5658-9-8"
       transform="matrix(0.26458333,0,0,0.26458333,116.40507,-21.276174)" />
    <rect
       style="opacity:0.5;fill:none;fill-opacity:1;stroke:none;stroke-width:0.1;stroke-linejoin:round;stroke-miterlimit:4;stroke-dasharray:none;stroke-opacity:1"
       id="rect2604"
       width="52.792191"
       height="30.049107"
       x="104.68781"
       y="23.844763" />
  </g>
  <g
     id="g1428"
     inkscape:groupmode="layer"
     inkscape:label="Margin-disabled"
     transform="translate(-116.40507,21.276174)" />
  <g
     id="g1430"
     inkscape:groupmode="layer"
     inkscape:label="B.CrtYd-disabled"
     transform="translate(-116.40507,21.276174)" />
  <g
     id="g1432"
     inkscape:groupmode="layer"
     inkscape:label="F.CrtYd-disabled"
     transform="translate(-116.40507,21.276174)" />
  <g
     id="g1434"
     inkscape:groupmode="layer"
     inkscape:label="B.Fab-disabled"
     transform="translate(-116.40507,21.276174)" />
  <g
     id="g1436"
     inkscape:groupmode="layer"
     inkscape:label="F.Fab"
     transform="translate(-116.40507,21.276174)"
     style="display:inline">
    <g
       style="fill:#000000;fill-opacity:1;stroke:#000000;stroke-linecap:round;stroke-linejoin:round;stroke-opacity:1"
       transform="matrix(0.00254,0,0,0.00254,78.30507,-44.128505)"
       id="g6" />
    <g
       transform="matrix(0.00254,0,0,0.00254,78.30507,-44.128505)"
       style="fill:#ffffff;fill-opacity:1;stroke:#ffffff;stroke-width:39.37009811;stroke-linecap:round;stroke-linejoin:round;stroke-opacity:1"
       id="g42" />
    <g
       transform="matrix(0.00254,0,0,0.00254,78.30507,-44.128505)"
       style="fill:#ffffff;fill-opacity:1;stroke:#ffffff;stroke-width:39.37009811;stroke-linecap:round;stroke-linejoin:round;stroke-opacity:1"
       id="g48" />
    <g
       transform="matrix(0.00254,0,0,0.00254,78.30507,-44.128505)"
       style="fill:#ffffff;fill-opacity:1;stroke:#ffffff;stroke-width:39.37009811;stroke-linecap:round;stroke-linejoin:round;stroke-opacity:1"
       id="g54" />
    <g
       transform="matrix(0.00254,0,0,0.00254,78.30507,-44.128505)"
       style="fill:#ffffff;fill-opacity:1;stroke:#ffffff;stroke-width:39.37009811;stroke-linecap:round;stroke-linejoin:round;stroke-opacity:1"
       id="g60" />
    <g
       transform="matrix(0.00254,0,0,0.00254,78.30507,-44.128505)"
       style="fill:#ffffff;fill-opacity:1;stroke:#ffffff;stroke-width:39.37009811;stroke-linecap:round;stroke-linejoin:round;stroke-opacity:1"
       id="g66" />
    <g
       transform="matrix(0.00254,0,0,0.00254,78.30507,-44.128505)"
       style="fill:#ffffff;fill-opacity:1;stroke:#ffffff;stroke-width:39.37009811;stroke-linecap:round;stroke-linejoin:round;stroke-opacity:1"
       id="g72" />
    <g
       transform="matrix(0.00254,0,0,0.00254,78.30507,-44.128505)"
       style="fill:#ffffff;fill-opacity:1;stroke:#ffffff;stroke-width:39.37009811;stroke-linecap:round;stroke-linejoin:round;stroke-opacity:1"
       id="g78" />
    <g
       transform="matrix(0.00254,0,0,0.00254,78.30507,-44.128505)"
       style="fill:#000000;fill-opacity:1;stroke:#000000;stroke-width:39.37009811;stroke-linecap:round;stroke-linejoin:round;stroke-opacity:1"
       id="g80" />
    <g
       transform="matrix(0.00254,0,0,0.00254,116.41511,-19.726167)"
       style="display:inline;fill:#000000;fill-opacity:0;stroke:#000000;stroke-width:-0.0003937;stroke-linecap:round;stroke-linejoin:round;stroke-opacity:1"
       id="g40">
      <g
         id="g8" />
      <g
         style="fill:#000000;fill-opacity:1;stroke:#000000;stroke-width:0;stroke-linecap:round;stroke-linejoin:round;stroke-opacity:1"
         id="g12">
        <circle
           cx="3599.29"
           cy="15708.9"
           r="196.85001"
           id="circle10" />
      </g>
      <g
         style="fill:#000000;fill-opacity:1;stroke:#000000;stroke-width:39.37009811;stroke-linecap:round;stroke-linejoin:round;stroke-opacity:1"
         id="g14" />
      <g
         style="fill:#000000;fill-opacity:1;stroke:#000000;stroke-width:0;stroke-linecap:round;stroke-linejoin:round;stroke-opacity:1"
         id="g22">
        <path
           inkscape:connector-curvature="0"
           style="fill:#000000;fill-opacity:1;fill-rule:evenodd;stroke:#000000;stroke-width:0;stroke-linecap:round;stroke-linejoin:round;stroke-opacity:1"
           d="m 3402.44,15405.8 v -393.7 h 393.7 v 393.7 z"
           id="path16" />
        <path
           inkscape:connector-curvature="0"
           style="fill:#000000;fill-opacity:1;fill-rule:evenodd;stroke:#000000;stroke-width:0;stroke-linecap:round;stroke-linejoin:round;stroke-opacity:1"
           d="m 14685.9,15405.8 v -393.7 h 393.7 v 393.7 z"
           id="path18" />
        <circle
           cx="14882.8"
           cy="15708.9"
           r="196.85001"
           id="circle20" />
      </g>
      <g
         style="fill:#000000;fill-opacity:1;stroke:#000000;stroke-width:39.37009811;stroke-linecap:round;stroke-linejoin:round;stroke-opacity:1"
         id="g24" />
      <g
         style="fill:#000000;fill-opacity:1;stroke:#000000;stroke-width:0;stroke-linecap:round;stroke-linejoin:round;stroke-opacity:1"
         id="g30">
        <path
           inkscape:connector-curvature="0"
           style="fill:#000000;fill-opacity:1;fill-rule:evenodd;stroke:#000000;stroke-width:0;stroke-linecap:round;stroke-linejoin:round;stroke-opacity:1"
           d="m 9187.87,2110.49 h -393.7 v -393.7 h 393.7 z"
           id="path26" />
        <circle
           cx="9491.0195"
           cy="1913.64"
           r="196.85001"
           id="circle28" />
      </g>
      <g
         style="fill:#000000;fill-opacity:1;stroke:#000000;stroke-width:39.37009811;stroke-linecap:round;stroke-linejoin:round;stroke-opacity:1"
         id="g32" />
      <g
         id="g34" />
      <g
         id="g36" />
      <g
         id="g38" />
    </g>
  </g>
  <g
     id="g1438"
     inkscape:groupmode="layer"
     inkscape:label="Drill"
     transform="translate(-116.40507,21.276174)" />
</svg>
