<?xml version="1.0" encoding="UTF-8" standalone="no"?>
<!-- Created with Inkscape (http://www.inkscape.org/) -->

<svg
   xmlns:dc="http://purl.org/dc/elements/1.1/"
   xmlns:cc="http://creativecommons.org/ns#"
   xmlns:rdf="http://www.w3.org/1999/02/22-rdf-syntax-ns#"
   xmlns:svg="http://www.w3.org/2000/svg"
   xmlns="http://www.w3.org/2000/svg"
   xmlns:sodipodi="http://sodipodi.sourceforge.net/DTD/sodipodi-0.dtd"
   xmlns:inkscape="http://www.inkscape.org/namespaces/inkscape"
   width="46.964588mm"
   height="47.861267mm"
   viewBox="0 0 46.964588 47.861268"
   version="1.1"
   id="svg844"
   inkscape:version="0.92.5 (2060ec1f9f, 2020-04-08)"
   sodipodi:docname="blade-plate-outline.svg">
  <defs
     id="defs838" />
  <sodipodi:namedview
     id="base"
     pagecolor="#ffffff"
     bordercolor="#666666"
     borderopacity="1.0"
     inkscape:pageopacity="0.0"
     inkscape:pageshadow="2"
     inkscape:zoom="2.8"
     inkscape:cx="122.78781"
     inkscape:cy="50.704053"
     inkscape:document-units="mm"
     inkscape:current-layer="g1436"
     showgrid="true"
     inkscape:window-width="1920"
     inkscape:window-height="1177"
     inkscape:window-x="1912"
     inkscape:window-y="-8"
     inkscape:window-maximized="1"
     borderlayer="true"
     fit-margin-top="0"
     fit-margin-left="0"
     fit-margin-right="0"
     fit-margin-bottom="0">
    <inkscape:grid
       originy="-11.414911"
       originx="-116.40507"
       spacingx="2.54"
       spacingy="2.54"
       empspacing="1"
       type="xygrid"
       units="mm"
       id="grid1390" />
  </sodipodi:namedview>
  <metadata
     id="metadata841">
    <rdf:RDF>
      <cc:Work
         rdf:about="">
        <dc:format>image/svg+xml</dc:format>
        <dc:type
           rdf:resource="http://purl.org/dc/dcmitype/StillImage" />
        <dc:title></dc:title>
      </cc:Work>
    </rdf:RDF>
  </metadata>
  <g
     id="g1396"
     sodipodi:insensitive="true"
     inkscape:groupmode="layer"
     inkscape:label="[fixed] BG"
     transform="translate(-116.40507,21.276174)">
    <rect
       id="rect1394"
       style="fill:#ffffff;fill-opacity:1;stroke:none"
       height="38"
       width="29"
       y="0"
       x="0" />
  </g>
  <g
     id="g1398"
     inkscape:groupmode="layer"
     inkscape:label="F.Cu-disabled"
     transform="translate(-116.40507,21.276174)" />
  <g
     id="g1400"
     inkscape:groupmode="layer"
     inkscape:label="B.Cu-disabled"
     transform="translate(-116.40507,21.276174)" />
  <g
     id="g1402"
     inkscape:groupmode="layer"
     inkscape:label="B.Adhes-disabled"
     transform="translate(-116.40507,21.276174)" />
  <g
     id="g1404"
     inkscape:groupmode="layer"
     inkscape:label="F.Adhes-disabled"
     transform="translate(-116.40507,21.276174)" />
  <g
     id="g1406"
     inkscape:groupmode="layer"
     inkscape:label="B.Paste-disabled"
     transform="translate(-116.40507,21.276174)" />
  <g
     id="g1408"
     inkscape:groupmode="layer"
     inkscape:label="F.Paste-disabled"
     transform="translate(-116.40507,21.276174)" />
  <g
     id="g1410"
     inkscape:groupmode="layer"
     inkscape:label="B.SilkS-disabled"
     transform="translate(-116.40507,21.276174)" />
  <g
     id="g1412"
     inkscape:groupmode="layer"
     inkscape:label="F.SilkS-disabled"
     transform="translate(-116.40507,21.276174)" />
  <g
     id="g1414"
     inkscape:groupmode="layer"
     inkscape:label="B.Mask-disabled"
     transform="translate(-116.40507,21.276174)" />
  <g
     id="g1416"
     inkscape:groupmode="layer"
     inkscape:label="F.Mask-disabled"
     transform="translate(-116.40507,21.276174)" />
  <g
     id="g1418"
     inkscape:groupmode="layer"
     inkscape:label="Dwgs.User-disabled"
     transform="translate(-116.40507,21.276174)" />
  <g
     id="g1420"
     inkscape:groupmode="layer"
     inkscape:label="Cmts.User-disabled"
     transform="translate(-116.40507,21.276174)" />
  <g
     id="g1422"
     inkscape:groupmode="layer"
     inkscape:label="Eco1.User-disabled"
     transform="translate(-116.40507,21.276174)" />
  <g
     id="g1424"
     inkscape:groupmode="layer"
     inkscape:label="Eco2.User-disabled"
     transform="translate(-116.40507,21.276174)" />
  <g
     id="g1426"
     inkscape:groupmode="layer"
     inkscape:label="Edge.Cuts"
     transform="translate(-116.40507,21.276174)"
     style="display:inline">
    <path
       id="path5658-9-8"
       d="m 137.6616,-21.226037 -0.18226,0.01576 -0.17534,0.02868 -0.25047,0.0644 -0.22597,0.08926 -0.19813,0.110955 -0.16692,0.129484 -0.13237,0.144852 -0.0945,0.157054 -0.0532,0.166088 -0.009,0.171964 7.9e-4,0.100927 -0.0144,0.09936 -0.0714,0.19208 -0.12302,0.179952 -0.16861,0.1639 -0.20813,0.143927 -0.24157,0.120035 -0.26892,0.09222 -0.29022,0.06049 -0.27538,0.02394 -0.26592,-0.0078 -0.2507,-0.03791 -0.22976,-0.06645 -0.20306,-0.09341 -0.17063,-0.118779 -0.13245,-0.142565 -0.0885,-0.164765 -0.0212,-0.109038 -0.0273,-0.09731 -0.0421,-0.09142 -0.12507,-0.16344 -0.17404,-0.134711 -0.21626,-0.102548 -0.25172,-0.06695 -0.28043,-0.02791 -0.30239,0.01456 -0.31759,0.06047 -0.30679,0.103028 -0.27168,0.13573 -0.23228,0.162114 -0.1886,0.182174 -0.14065,0.195919 -0.0884,0.20334 -0.0319,0.204437 0.007,0.100658 0.0223,0.09856 0.0226,0.09843 0.007,0.100287 -0.0282,0.203559 -0.0813,0.203226 -0.12922,0.197719 -0.17204,0.187039 -0.20976,0.171186 -0.24235,0.150163 -0.26984,0.123962 -0.26281,0.08495 -0.26057,0.05217 -0.2524,0.01962 -0.23827,-0.01272 -0.21819,-0.04483 -0.19217,-0.07673 -0.1602,-0.108408 -0.12227,-0.139863 -0.045,-0.102839 -0.0478,-0.08856 -0.0609,-0.07947 -0.15752,-0.130726 -0.19901,-0.09157 -0.23317,-0.05056 -0.26002,-0.0077 -0.27952,0.03704 -0.29172,0.08362 -0.29658,0.132055 -0.27674,0.171237 -0.23507,0.195029 -0.19067,0.211631 -0.1435,0.221044 -0.0936,0.223272 -0.041,0.218309 0.0144,0.206154 0.0289,0.09627 0.0437,0.09054 0.044,0.09032 0.0296,0.09564 0.0182,0.204163 -0.0334,0.216203 -0.0811,0.222081 -0.12495,0.221783 -0.16499,0.215322 -0.20117,0.202692 -0.23352,0.183897 -0.2356,0.144722 -0.24108,0.112687 -0.24072,0.07938 -0.23453,0.04478 -0.22251,0.0089 -0.20466,-0.02825 -0.18097,-0.06669 -0.15145,-0.106406 -0.0677,-0.08785 -0.0925,-0.09732 -0.11105,-0.07615 -0.12739,-0.05466 -0.1415,-0.03283 -0.15341,-0.01068 -0.1631,0.01181 -0.17057,0.03463 -0.17582,0.05777 -0.19238,0.0896 -0.19007,0.116335 -0.18552,0.14049 -0.17875,0.162068 -0.24253,0.273777 -0.1854,0.280938 -0.12949,0.279792 -0.0748,0.270335 -0.0214,0.252573 0.0309,0.226501 0.0346,0.100876 0.0472,0.09124 0.0597,0.08057 0.072,0.06886 0.0722,0.06831 0.0606,0.07896 0.0876,0.18611 0.0443,0.217491 0.003,0.241397 -0.0363,0.257826 -0.0737,0.266785 -0.10918,0.268273 -0.14269,0.262286 -0.15348,0.222208 -0.1564,0.180993 -0.17034,0.1600694 -0.17997,0.135875 -0.18527,0.108418 -0.18622,0.07769 -0.18287,0.04369 -0.17517,0.0064 -0.16315,-0.03412 -0.0661,-0.03359 -0.0904,-0.03544 -0.0972,-0.01879 -0.10266,-0.002 -0.10674,0.01505 -0.10947,0.03224 -0.11085,0.04961 -0.11086,0.06715 -0.10952,0.08488 -0.10682,0.102776 -0.10277,0.120859 -0.0973,0.139113 -0.0906,0.157552 -0.0825,0.176165 -0.073,0.1949558 -0.0621,0.213927 -0.0499,0.2330763 -0.0408,0.2634927 -0.0229,0.2616615 0.003,0.2548795 0.0378,0.24316 0.0576,0.1824056 0.0774,0.1643362 0.0947,0.144341 0.10942,0.1224182 0.12159,0.09857 0.13119,0.072794 0.13823,0.045095 0.14271,0.015465 0.099,0.00771 0.0962,0.022622 0.18179,0.086978 0.1645,0.1376278 0.14332,0.1822812 0.11825,0.220935 0.0893,0.2535968 0.0564,0.280257 0.0197,0.3009249 -0.0168,0.2843107 -0.0485,0.2715495 -0.0773,0.2510343 -0.10321,0.2227712 -0.12622,0.1867593 -0.14635,0.1429949 -0.16358,0.091481 -0.0873,0.024 -0.0906,0.00822 h -0.10852 l -0.099,0.00772 -0.0962,0.022648 -0.18182,0.087089 -0.16451,0.1377905 -0.14332,0.1824691 -0.11823,0.2211255 -0.0893,0.2537669 -0.0564,0.2803813 -0.0196,0.3009784 0.0197,0.3008715 0.0564,0.2801807 0.0893,0.25351057 0.11824,0.2208461 0.14331,0.1821947 0.16449,0.1375593 0.18179,0.086932 0.0962,0.022611 0.099,0.00771 0.099,0.00771 0.0962,0.022625 0.18179,0.086983 0.1645,0.1376304 0.14332,0.1822786 0.11825,0.220935 0.0893,0.2535918 0.0564,0.280257 0.0197,0.30091993 -0.0168,0.2843334 -0.0485,0.2716056 -0.0773,0.2511179 -0.10321,0.2228678 -0.12622,0.1868533 -0.14635,0.143076 -0.16358,0.091539 -0.0874,0.024016 -0.0906,0.00822 h -0.10853 l -0.0991,0.00771 -0.0962,0.022635 -0.18181,0.087033 -0.16451,0.137709 -0.14332,0.1823752 -0.11824,0.221034 -0.0893,0.2536809 -0.0564,0.2803202 -0.0197,0.3009503 0.0197,0.3008868 0.0564,0.2802417 0.0893,0.2535917 0.11824,0.2209435 0.14331,0.1822953 0.1645,0.1376415 0.18179,0.086995 0.0962,0.022622 0.099,0.0077 0.099,0.00773 0.0962,0.022648 0.18179,0.087035 0.1645,0.1377077 0.14332,0.182372 0.11824,0.2210303 0.0893,0.2536772 0.0564,0.2803234 0.0197,0.3009529 -0.0168,0.2839615 -0.0483,0.2713884 -0.0771,0.2510152 -0.10291,0.222848 -0.12589,0.186894 -0.14601,0.143142 -0.16324,0.0916 -0.0872,0.02405 -0.0904,0.0082 h -0.11059 l -0.0991,0.0077 -0.0962,0.02262 -0.18182,0.08702 -0.16451,0.137705 -0.14331,0.182367 -0.11824,0.22103 -0.0893,0.253683 -0.0564,0.280331 -0.0197,0.3009642 0.0197,0.300913 0.0564,0.280299 0.0893,0.253672 0.11823,0.221037 0.14331,0.182388 0.1645,0.137726 0.18179,0.08705 0.0962,0.02265 0.099,0.0077 0.099,0.0077 0.0962,0.02262 0.18179,0.08698 0.1645,0.137628 0.14332,0.182282 0.11825,0.220935 0.0893,0.253596 0.0564,0.280252 0.0197,0.300913 -0.0168,0.283985 -0.0483,0.271399 -0.0771,0.25101 -0.10292,0.222848 -0.12589,0.186886 -0.14601,0.143129 -0.16324,0.09159 -0.0872,0.02402 -0.0904,0.0082 h -0.11059 l -0.0991,0.0077 -0.0962,0.02262 -0.18181,0.08697 -0.16451,0.137623 -0.14332,0.182282 -0.11824,0.220937 -0.0893,0.253598 -0.0564,0.280263 -0.0197,0.300934 0.0197,0.300913 0.0564,0.2803 0.0893,0.253677 0.11824,0.221036 0.14331,0.182388 0.16449,0.137723 0.18179,0.08705 0.0962,0.02265 0.099,0.0077 0.099,0.0077 0.0962,0.02262 0.18179,0.08698 0.1645,0.137626 0.14332,0.182287 0.11825,0.22094 0.0893,0.253598 0.0564,0.280258 0.0197,0.300921 -0.0168,0.284329 -0.0485,0.271608 -0.0773,0.251116 -0.10321,0.222869 -0.12622,0.186849 -0.14635,0.143079 -0.16359,0.09154 -0.0873,0.02402 -0.0906,0.0082 h -0.10852 l -0.099,0.0077 -0.0962,0.02262 -0.18181,0.08703 -0.16451,0.137711 -0.14332,0.182372 -0.11824,0.221038 -0.0893,0.25368 -0.0564,0.28032 -0.0196,0.300948 0.0197,0.300892 0.0564,0.280242 0.0893,0.253595 0.11824,0.22094 0.14331,0.182293 0.1645,0.137644 0.18179,0.08699 0.0962,0.02262 0.099,0.0077 0.099,0.0077 0.0962,0.02265 0.18179,0.08704 0.1645,0.13771 0.14332,0.182372 0.11824,0.221028 0.0893,0.253674 0.0564,0.280319 0.0197,0.300947 -0.0168,0.284202 -0.0485,0.27146 -0.0772,0.250965 -0.10313,0.222735 -0.12615,0.186758 -0.14626,0.143042 -0.16349,0.09158 -0.0873,0.02408 -0.0905,0.0083 43.84903,-0.02585 0.0652,-0.231738 0.0771,-0.237533 0.10301,-0.27229 0.12599,-0.272288 0.14607,-0.237533 0.0797,-0.09487 0.0836,-0.07314 0.0872,-0.04707 0.0904,-0.01667 h 0.11007 l 0.0991,-0.0077 0.0962,-0.02262 0.18181,-0.08697 0.16452,-0.137623 0.14332,-0.182282 0.11824,-0.22094 0.0893,-0.253598 0.0564,-0.28026 0.0197,-0.300932 -0.0197,-0.300913 -0.0564,-0.280299 -0.0893,-0.253678 -0.11824,-0.221038 -0.14331,-0.182388 -0.16449,-0.137723 -0.1818,-0.08705 -0.0962,-0.02265 -0.099,-0.0077 -0.099,-0.0077 -0.0962,-0.02262 -0.18179,-0.08698 -0.1645,-0.137628 -0.14332,-0.182277 -0.11824,-0.22093 -0.0893,-0.253595 -0.0564,-0.280257 -0.0197,-0.300924 0.0168,-0.284332 0.0486,-0.271603 0.0774,-0.251121 0.10329,-0.222866 0.12632,-0.186857 0.14643,-0.143079 0.16365,-0.09154 0.0874,-0.02402 0.0906,-0.0082 h 0.108 l 0.0991,-0.0077 0.0962,-0.02262 0.18182,-0.08697 0.16451,-0.137618 0.14332,-0.182274 0.11824,-0.220935 0.0893,-0.2536 0.0564,-0.280268 0.0197,-0.300945 -0.0197,-0.300911 -0.0564,-0.280299 -0.0893,-0.253672 -0.11824,-0.221036 -0.14331,-0.18239 -0.16449,-0.137721 -0.18179,-0.08705 -0.0962,-0.02265 -0.099,-0.0077 -0.099,-0.0077 -0.0962,-0.02262 -0.18179,-0.08698 -0.1645,-0.137631 -0.14332,-0.182282 -0.11824,-0.220935 -0.0893,-0.25359 -0.0564,-0.280255 -0.0197,-0.300918 0.0168,-0.284337 0.0486,-0.271611 0.0774,-0.251121 0.1033,-0.222864 0.12632,-0.186849 0.14644,-0.143073 0.16364,-0.09154 0.0874,-0.02402 0.0906,-0.0082 h 0.10799 l 0.0991,-0.0077 0.0962,-0.02262 0.18182,-0.08703 0.1645,-0.137713 0.14332,-0.182374 0.11825,-0.221033 0.0893,-0.253683 0.0564,-0.28032 0.0197,-0.300953 -0.0197,-0.300893 -0.0564,-0.280244 -0.0893,-0.253595 -0.11825,-0.220943 -0.14331,-0.182296 -0.16449,-0.137639 -0.18178,-0.08699 -0.0962,-0.02262 -0.099,-0.0077 -0.099,-0.0077 -0.0962,-0.02265 -0.1818,-0.08703 -0.1645,-0.137713 -0.14332,-0.182372 -0.11824,-0.22103 -0.0893,-0.253682 -0.0564,-0.280318 -0.0197,-0.300948 0.0168,-0.283954 0.0484,-0.271335 0.0771,-0.2509284 0.10301,-0.2227553 0.12599,-0.1867879 0.14607,-0.1430576 0.16332,-0.091538 0.0872,-0.024024 0.0904,-0.00823 h 0.11007 l 0.0991,-0.00773 0.0962,-0.022648 0.18182,-0.087088 0.16451,-0.1377897 0.14332,-0.1824672 0.11824,-0.2211255 0.0893,-0.2537646 0.0564,-0.2803842 0.0197,-0.3009821 -0.0197,-0.3008868 -0.0564,-0.2802379 -0.0893,-0.2535867 -0.11824,-0.2209401 -0.14331,-0.1822913 -0.16449,-0.1376455 -0.1818,-0.086993 -0.0962,-0.022632 -0.099,-0.00772 -0.099,-0.00772 -0.0962,-0.02264 -0.1818,-0.087041 -0.16449,-0.1377117 -0.14332,-0.1823749 -0.11824,-0.221029 -0.0893,-0.2536758 -0.0564,-0.2803126 -0.0197,-0.3009426 0.0168,-0.284316 0.0486,-0.2715495 0.0774,-0.2510343 0.10328,-0.2227712 0.12633,-0.1867541 0.14642,-0.1429924 0.16365,-0.091481 0.0874,-0.024 0.0906,-0.00822 h 0.10801 l 0.0991,-0.0077 0.0962,-0.022617 0.18182,-0.08697 0.16452,-0.13762013 0.14332,-0.1822762 0.11824,-0.2209374 0.0893,-0.2535995 0.0564,-0.2802696 0.0197,-0.30094 -0.0197,-0.3008971 -0.0564,-0.2802949 -0.0893,-0.25367317 -0.11824,-0.2210417 -0.14332,-0.1823902 -0.16448,-0.137732 -0.18179,-0.087054 -0.0962,-0.022643 -0.099,-0.00772 -0.099,-0.00771 -0.0962,-0.022622 -0.1818,-0.08698 -0.16449,-0.1376304 -0.14332,-0.1822813 -0.11825,-0.2209374 -0.0893,-0.253597 -0.0564,-0.2802568 -0.0197,-0.3009172 0.0168,-0.2843413 0.0486,-0.2716081 0.0774,-0.2511179 0.10328,-0.2228654 0.12632,-0.1868506 0.14643,-0.1430761 0.16365,-0.091537 0.0874,-0.024016 0.0906,-0.00822 h 0.10801 l 0.0991,-0.00771 0.0962,-0.022619 0.18182,-0.086972 0.16452,-0.1376278 0.14332,-0.1822813 0.11824,-0.2209374 0.0893,-0.2535996 0.0564,-0.2802618 0.0196,-0.3009275 -0.0125,-0.2219307 -0.034,-0.2113235 -0.0506,-0.1995964 -0.0621,-0.1867413 -0.0809,-0.1918748 -0.0915,-0.1670994 -0.10053,-0.1414939 -0.10817,-0.1150572 -0.11435,-0.08779 -0.11907,-0.059693 -0.12233,-0.030767 -0.12414,-0.00101 -0.0967,0.00249 -0.0964,-0.013864 -0.19022,-0.072809 -0.18418,-0.1263224 -0.175,-0.1719077 -0.1627,-0.2095633 -0.14728,-0.2392968 -0.12872,-0.2611027 -0.10705,-0.274981 -0.079,-0.266998 -0.0557,-0.268611 -0.0306,-0.2637422 -0.003,-0.252382 0.0255,-0.23454 0.0564,-0.210211 0.0893,-0.179395 0.12408,-0.142101 0.0977,-0.05684 0.0813,-0.05869 0.0705,-0.07328 0.0593,-0.08671 0.0477,-0.09898 0.0595,-0.230155 0.009,-0.26535 -0.0439,-0.291283 -0.0997,-0.307948 -0.15837,-0.315349 -0.21977,-0.313486 -0.25945,-0.276721 -0.27209,-0.215319 -0.27559,-0.155263 -0.26999,-0.09656 -0.25527,-0.0392 -0.23144,0.01681 -0.10393,0.02899 -0.0946,0.04249 -0.084,0.05581 -0.0724,0.06898 -0.0865,0.08109 -0.10028,0.0635 -0.11233,0.04668 -0.12264,0.03064 -0.13117,0.01537 -0.138,8.73e-4 -0.28938,-0.03867 -0.20767,-0.05805 -0.21066,-0.08488 -0.21014,-0.111339 -0.20611,-0.13744 -0.21286,-0.176881 -0.18494,-0.192619 -0.15392,-0.203241 -0.11976,-0.208753 -0.0825,-0.209155 -0.0422,-0.204445 0.001,-0.194625 0.0478,-0.179693 0.0579,-0.0925 0.0461,-0.08879 0.0314,-0.09486 0.0201,-0.204316 -0.0348,-0.217811 -0.0871,-0.22412 -0.13679,-0.223256 -0.18392,-0.215205 -0.22846,-0.199978 -0.27042,-0.177566 -0.29082,-0.139228 -0.28722,-0.0912 -0.27633,-0.04477 -0.25815,7.6e-5 -0.23268,0.04331 -0.19991,0.08495 -0.15985,0.125007 -0.0626,0.07702 -0.0499,0.08644 -0.0496,0.08645 -0.0617,0.07733 -0.15643,0.127155 -0.19446,0.09028 -0.22536,0.05316 -0.24914,0.01578 -0.26579,-0.02184 -0.2753,-0.0597 -0.2777,-0.09782 -0.24693,-0.121497 -0.22302,-0.143754 -0.19499,-0.161692 -0.16285,-0.175313 -0.12658,-0.184623 -0.0862,-0.18961 -0.0417,-0.190282 0.007,-0.186637 0.0367,-0.105418 0.0255,-0.09724 0.01,-0.09989 -0.0244,-0.204542 -0.0803,-0.205568 -0.13216,-0.200221 -0.17991,-0.188496 -0.2236,-0.170389 -0.26322,-0.145911 -0.29876,-0.115047 -0.31074,-0.07351 -0.29804,-0.02772 -0.27847,0.01514 -0.25205,0.05508 -0.21876,0.09209 -0.17864,0.126182 -0.13164,0.157348 -0.0461,0.08945 -0.0317,0.09614 -0.0314,0.09584 -0.0453,0.08938 -0.12868,0.158438 -0.1737,0.129802 -0.21176,0.09931 -0.24288,0.06695 -0.26703,0.03274 -0.28424,-0.0033 -0.29449,-0.04126 -0.27136,-0.07153 -0.25611,-0.09895 -0.23324,-0.122611 -0.20273,-0.14252 -0.1646,-0.158669 -0.11883,-0.171067 -0.0654,-0.179706 -0.0103,-0.09192 0.006,-0.09267 0.0176,-0.113691 0.008,-0.10255 -0.008,-0.104115 -0.0604,-0.208397 -0.11536,-0.201103 -0.16531,-0.18478 -0.21021,-0.159432 -0.25009,-0.125057 -0.28494,-0.08165 -0.15397,-0.02173 -0.16079,-0.0075 h -5.3e-4 l -0.31928,0.01371 -0.29841,0.0408 -0.27146,0.0674 -0.23845,0.09351 -0.19937,0.119134 -0.15421,0.144262 -0.103,0.168903 -0.0304,0.09354 -0.0153,0.09951 -0.0152,0.100618 -0.03,0.09661 -0.10085,0.179442 -0.15007,0.158603 -0.19276,0.134676 -0.22891,0.107651 -0.25853,0.07754 -0.2816,0.04433 -0.29816,0.008 -0.27683,-0.02653 -0.26074,-0.05695 -0.23944,-0.0845 -0.21297,-0.109198 -0.1813,-0.131041 -0.14444,-0.150026 -0.10241,-0.166152 -0.0552,-0.179426 v -0.112654 l -0.008,-0.101324 -0.0233,-0.09833 -0.0897,-0.185459 -0.14214,-0.166866 -0.18849,-0.143876 -0.22879,-0.116482 -0.26305,-0.08469 -0.29125,-0.0485 -0.31343,-0.0079 h -3e-5 m 2.26292,10.289819 0.5189,0.02571 0.51011,0.07614 0.49789,0.125144 0.4822,0.172722 0.46309,0.218875 0.44052,0.263603 0.41452,0.3069012 0.38507,0.348776 0.34873,0.385106 0.30687,0.4145495 0.26356,0.4405493 0.21883,0.4631044 0.17267,0.482223 0.1251,0.4978924 0.0761,0.5101225 0.0257,0.5189082 -0.0271,0.5367547 -0.0796,0.5212476 -0.12937,0.5031071 -0.17654,0.4823219 -0.22108,0.4589008 -0.26296,0.4328403 -0.30222,0.4041431 -0.33883,0.3728072 -0.37281,0.3388294 -0.40414,0.3022176 -0.43284,0.262962 -0.4589,0.22107237 -0.48232,0.1765432 -0.50311,0.1293751 -0.52125,0.079566 -0.53675,0.027122 -0.53676,-0.027122 -0.52124,-0.079566 -0.50311,-0.1293751 -0.48232,-0.1765432 -0.4589,-0.22107237 -0.43284,-0.2629643 -0.40415,-0.3022153 -0.3728,-0.3388321 -0.33883,-0.3728045 -0.30222,-0.4041431 -0.26296,-0.4328427 -0.22108,-0.4589008 -0.17654,-0.4823221 -0.12937,-0.5031045 -0.0796,-0.5212476 -0.0271,-0.5367547 0.0257,-0.5189082 0.0761,-0.5101225 0.12509,-0.4978924 0.17268,-0.4822206 0.21883,-0.4631068 0.26356,-0.4405493 0.30686,-0.4145495 0.34874,-0.385106 0.38507,-0.348773 0.41452,-0.3069042 0.44052,-0.2636 0.46308,-0.218878 0.48221,-0.172722 0.49788,-0.125147 0.51011,-0.07614 0.51891,-0.02571 v 0"
       style="display:inline;fill:none;fill-opacity:1;stroke:#000000;stroke-width:0.10000004;stroke-linecap:butt;stroke-linejoin:miter;stroke-miterlimit:4;stroke-dasharray:none;stroke-opacity:1"
       inkscape:connector-curvature="0" />
  </g>
  <g
     id="g1428"
     inkscape:groupmode="layer"
     inkscape:label="Margin-disabled"
     transform="translate(-116.40507,21.276174)" />
  <g
     id="g1430"
     inkscape:groupmode="layer"
     inkscape:label="B.CrtYd-disabled"
     transform="translate(-116.40507,21.276174)" />
  <g
     id="g1432"
     inkscape:groupmode="layer"
     inkscape:label="F.CrtYd-disabled"
     transform="translate(-116.40507,21.276174)" />
  <g
     id="g1434"
     inkscape:groupmode="layer"
     inkscape:label="B.Fab-disabled"
     transform="translate(-116.40507,21.276174)" />
  <g
     id="g1436"
     inkscape:groupmode="layer"
     inkscape:label="F.Fab"
     transform="translate(-116.40507,21.276174)"
     style="display:inline">
    <rect
       style="opacity:0.5;fill:none;fill-opacity:1;stroke:#000000;stroke-width:0.10000004;stroke-linejoin:round;stroke-miterlimit:4;stroke-dasharray:none;stroke-opacity:1"
       id="rect4817"
       width="1.6853347"
       height="4.6346703"
       x="124.6715"
       y="21.546579" />
    <rect
       style="opacity:0.5;fill:none;fill-opacity:1;stroke:#000000;stroke-width:0.10000008;stroke-linejoin:round;stroke-miterlimit:4;stroke-dasharray:none;stroke-opacity:1"
       id="rect4817-3"
       width="1.6853356"
       height="4.6346726"
       x="153.41789"
       y="21.546579" />
    <rect
       style="opacity:0.5;fill:none;fill-opacity:1;stroke:#000000;stroke-width:0.10000013;stroke-linejoin:round;stroke-miterlimit:4;stroke-dasharray:none;stroke-opacity:1"
       id="rect4817-3-3"
       width="1.6853364"
       height="4.6346745"
       x="15.550196"
       y="137.57002"
       transform="rotate(-90)" />
  </g>
  <g
     id="g1438"
     inkscape:groupmode="layer"
     inkscape:label="Drill"
     transform="translate(-116.40507,21.276174)" />
</svg>
