<?xml version="1.0" encoding="UTF-8" standalone="no"?>
<!-- Created with Inkscape (http://www.inkscape.org/) -->

<svg
   xmlns:dc="http://purl.org/dc/elements/1.1/"
   xmlns:cc="http://creativecommons.org/ns#"
   xmlns:rdf="http://www.w3.org/1999/02/22-rdf-syntax-ns#"
   xmlns:svg="http://www.w3.org/2000/svg"
   xmlns="http://www.w3.org/2000/svg"
   xmlns:sodipodi="http://sodipodi.sourceforge.net/DTD/sodipodi-0.dtd"
   xmlns:inkscape="http://www.inkscape.org/namespaces/inkscape"
   width="40.358807mm"
   height="46.565033mm"
   viewBox="0 0 40.358807 46.565033"
   version="1.1"
   id="svg7953"
   inkscape:version="0.92.5 (2060ec1f9f, 2020-04-08)"
   sodipodi:docname="blade-plate-small-outline.svg">
  <defs
     id="defs7947" />
  <sodipodi:namedview
     id="base"
     pagecolor="#ffffff"
     bordercolor="#666666"
     borderopacity="1.0"
     inkscape:pageopacity="0.0"
     inkscape:pageshadow="2"
     inkscape:zoom="1.979899"
     inkscape:cx="66.180806"
     inkscape:cy="124.89957"
     inkscape:document-units="mm"
     inkscape:current-layer="g8545"
     showgrid="true"
     inkscape:window-width="1858"
     inkscape:window-height="1177"
     inkscape:window-x="54"
     inkscape:window-y="-8"
     inkscape:window-maximized="1"
     borderlayer="true"
     fit-margin-top="0"
     fit-margin-left="0"
     fit-margin-right="0"
     fit-margin-bottom="0">
    <inkscape:grid
       originy="17.813892"
       originx="26.844545"
       spacingx="2.54"
       spacingy="2.54"
       empspacing="1"
       type="xygrid"
       units="mm"
       id="grid8499" />
  </sodipodi:namedview>
  <metadata
     id="metadata7950">
    <rdf:RDF>
      <cc:Work
         rdf:about="">
        <dc:format>image/svg+xml</dc:format>
        <dc:type
           rdf:resource="http://purl.org/dc/dcmitype/StillImage" />
        <dc:title></dc:title>
      </cc:Work>
    </rdf:RDF>
  </metadata>
  <g
     id="g8505"
     sodipodi:insensitive="true"
     inkscape:groupmode="layer"
     inkscape:label="[fixed] BG"
     transform="translate(26.844544,-9.2488588)">
    <rect
       id="rect8503"
       style="fill:#ffffff;fill-opacity:1;stroke:none"
       height="38"
       width="29"
       y="0"
       x="0" />
  </g>
  <g
     id="g8507"
     inkscape:groupmode="layer"
     inkscape:label="F.Cu"
     transform="translate(26.844544,-9.2488588)" />
  <g
     id="g8509"
     inkscape:groupmode="layer"
     inkscape:label="B.Cu-disabled"
     transform="translate(26.844544,-9.2488588)" />
  <g
     id="g8511"
     inkscape:groupmode="layer"
     inkscape:label="B.Adhes-disabled"
     transform="translate(26.844544,-9.2488588)" />
  <g
     id="g8513"
     inkscape:groupmode="layer"
     inkscape:label="F.Adhes-disabled"
     transform="translate(26.844544,-9.2488588)" />
  <g
     id="g8515"
     inkscape:groupmode="layer"
     inkscape:label="B.Paste-disabled"
     transform="translate(26.844544,-9.2488588)" />
  <g
     id="g8517"
     inkscape:groupmode="layer"
     inkscape:label="F.Paste-disabled"
     transform="translate(26.844544,-9.2488588)" />
  <g
     id="g8519"
     inkscape:groupmode="layer"
     inkscape:label="B.SilkS-disabled"
     transform="translate(26.844544,-9.2488588)" />
  <g
     id="g8521"
     inkscape:groupmode="layer"
     inkscape:label="F.SilkS-disabled"
     transform="translate(26.844544,-9.2488588)" />
  <g
     id="g8523"
     inkscape:groupmode="layer"
     inkscape:label="B.Mask-disabled"
     transform="translate(26.844544,-9.2488588)" />
  <g
     id="g8525"
     inkscape:groupmode="layer"
     inkscape:label="F.Mask-disabled"
     transform="translate(26.844544,-9.2488588)" />
  <g
     id="g8527"
     inkscape:groupmode="layer"
     inkscape:label="Dwgs.User-disabled"
     transform="translate(26.844544,-9.2488588)" />
  <g
     id="g8529"
     inkscape:groupmode="layer"
     inkscape:label="Cmts.User-disabled"
     transform="translate(26.844544,-9.2488588)" />
  <g
     id="g8531"
     inkscape:groupmode="layer"
     inkscape:label="Eco1.User-disabled"
     transform="translate(26.844544,-9.2488588)" />
  <g
     id="g8533"
     inkscape:groupmode="layer"
     inkscape:label="Eco2.User-disabled"
     transform="translate(26.844544,-9.2488588)" />
  <g
     id="g8535"
     inkscape:groupmode="layer"
     inkscape:label="Edge.Cuts"
     transform="translate(26.844544,-9.2488588)" />
  <g
     id="g8537"
     inkscape:groupmode="layer"
     inkscape:label="Margin-disabled"
     transform="translate(26.844544,-9.2488588)" />
  <g
     id="g8539"
     inkscape:groupmode="layer"
     inkscape:label="B.CrtYd-disabled"
     transform="translate(26.844544,-9.2488588)" />
  <g
     id="g8541"
     inkscape:groupmode="layer"
     inkscape:label="F.CrtYd-disabled"
     transform="translate(26.844544,-9.2488588)" />
  <g
     id="g8543"
     inkscape:groupmode="layer"
     inkscape:label="B.Fab-disabled"
     transform="translate(26.844544,-9.2488588)" />
  <g
     id="g8545"
     inkscape:groupmode="layer"
     inkscape:label="F.Fab"
     transform="translate(26.844544,-9.2488588)"
     style="display:inline">
    <path
       id="path5658-9-7-6-2-8-0-4"
       d="m -8.582112,9.250848 -0.307992,0.04082 -0.2157214,0.059098 -0.1946409,0.081886 -0.1706688,0.1017794 -0.1438049,0.1187793 -0.1140494,0.1328852 -0.081402,0.1440972 -0.045863,0.1524149 -0.00743,0.15784 -0.011705,0.183868 -0.061402,0.176328 -0.1058756,0.16519 -0.145128,0.150453 -0.179157,0.13212 -0.207964,0.110187 -0.231549,0.08466 -0.249911,0.05553 -0.237165,0.02199 -0.229016,-0.0071 -0.215921,-0.03475 -0.19788,-0.06095 -0.174892,-0.08569 -0.146958,-0.108993 -0.114078,-0.130842 -0.07625,-0.151244 -0.0186,-0.09973 -0.05971,-0.173275 -0.10768,-0.150079 -0.149841,-0.123722 -0.186193,-0.0942 -0.216734,-0.06152 -0.241467,-0.02568 -0.260389,0.01333 -0.273503,0.05549 -0.264232,0.09458 -0.234016,0.124595 -0.200105,0.148814 -0.1625,0.16723 -0.1212,0.179846 -0.07621,0.186659 -0.02752,0.187672 0.02486,0.182882 0.02579,0.182436 -0.02426,0.186912 -0.06993,0.186626 -0.111201,0.181583 -0.148082,0.17178 -0.180571,0.157218 -0.208668,0.137896 -0.232373,0.113815 -0.226342,0.07796 -0.224436,0.04784 -0.217401,0.01794 -0.205239,-0.01176 -0.18795,-0.04124 -0.165531,-0.07051 -0.137986,-0.09957 -0.105312,-0.128411 -0.03876,-0.09457 -0.09363,-0.15423 -0.135688,-0.119953 -0.171428,-0.08398 -0.200855,-0.04632 -0.223969,-0.007 -0.24077,0.03408 -0.251257,0.07681 -0.25543,0.121245 -0.238304,0.157204 -0.202386,0.179049 -0.164114,0.194293 -0.123491,0.202937 -0.08051,0.20498 -0.03518,0.200422 0.0125,0.189262 0.06254,0.171503 0.06338,0.170689 0.01564,0.187372 -0.02878,0.198406 -0.06989,0.203787 -0.107674,0.203517 -0.142141,0.197596 -0.173291,0.186022 -0.201124,0.168798 -0.2029,0.132877 -0.2076,0.103509 -0.207284,0.07295 -0.201948,0.04121 -0.191595,0.0083 -0.176224,-0.02585 -0.155834,-0.06116 -0.130427,-0.09766 -0.05839,-0.08062 -0.07965,-0.08935 -0.09563,-0.06994 -0.109699,-0.05022 -0.121859,-0.03019 -0.132112,-0.0099 -0.140455,0.01079 -0.14689,0.03175 -0.151418,0.05302 -0.165731,0.08215 -0.163788,0.106563 -0.159872,0.128738 -0.153981,0.148671 -0.208874,0.251339 -0.159664,0.257932 -0.111513,0.256891 -0.06442,0.248218 -0.01839,0.231911 0.02658,0.207971 0.0705,0.176398 0.05138,0.07397 0.06197,0.06322 0.114423,0.135212 0.07551,0.170919 0.03826,0.199751 0.0027,0.221709 -0.03121,0.236794 -0.06343,0.245005 -0.09399,0.246342 -0.122866,0.240805 -0.132292,0.203605 -0.134688,0.166126 -0.146696,0.146873 -0.154979,0.124633 -0.159536,0.09941 -0.160367,0.0712 -0.157472,0.04 -0.150852,0.0058 -0.140505,-0.03135 -0.05684,-0.03049 -0.07786,-0.03254 -0.08373,-0.01725 -0.08842,-0.0018 -0.09195,0.01382 -0.189789,0.07514 -0.189852,0.13956 -0.180558,0.205294 -0.161907,0.272336 -0.133898,0.340689 -0.09653,0.410349 -0.03516,0.241914 -0.01977,0.240268 0.0028,0.234046 0.03252,0.223249 0.04959,0.16743 0.06669,0.150812 0.08159,0.132435 0.09427,0.112301 0.104749,0.09041 0.113014,0.06675 0.119071,0.04135 0.122918,0.01418 0.168098,0.02787 0.156565,0.0799 0.141677,0.126416 0.123436,0.167415 0.101844,0.202902 0.0769,0.232872 0.0486,0.257328 0.01694,0.27627 -0.01447,0.261005 -0.04176,0.249301 -0.06656,0.230478 -0.08888,0.204536 -0.108699,0.171476 -0.126033,0.131296 -0.140878,0.084 -0.07523,0.02204 -0.07801,0.0075 h -0.09353 l -0.168142,0.02786 -0.15659,0.07989 -0.141689,0.126411 -0.123436,0.167417 -0.101832,0.202905 -0.07688,0.232878 -0.04857,0.257337 -0.01692,0.27628 0.01696,0.276218 0.0486,0.257256 0.07689,0.23279 0.101833,0.202815 0.123427,0.167334 0.141672,0.126346 0.156569,0.07985 0.168115,0.02785 0.168098,0.02785 0.156564,0.07984 0.141677,0.126334 0.123437,0.167323 0.101843,0.202807 0.0769,0.232789 0.0486,0.257268 0.01694,0.276244 -0.01447,0.261029 -0.04176,0.249361 -0.06656,0.230561 -0.08888,0.204631 -0.108699,0.171571 -0.126033,0.131379 -0.140878,0.08406 -0.07523,0.02205 -0.07801,0.0075 h -0.09353 l -0.168142,0.02783 -0.15659,0.07983 -0.141689,0.126332 -0.123435,0.167323 -0.101833,0.202811 -0.07688,0.232796 -0.04857,0.257275 -0.01692,0.27625 0.01696,0.276231 0.0486,0.257311 0.07689,0.23287 0.101833,0.202911 0.123427,0.167431 0.141673,0.126433 0.156568,0.07991 0.168115,0.02788 0.168098,0.02783 0.156565,0.07983 0.141677,0.126327 0.123436,0.16732 0.101844,0.202809 0.0769,0.232796 0.0486,0.257279 0.01694,0.27626 -0.01444,0.260685 -0.04166,0.249151 -0.0664,0.230459 -0.08867,0.204609 -0.108458,0.171601 -0.125773,0.131434 -0.140612,0.08411 -0.0751,0.02207 -0.07788,0.0076 h -0.09508 l -0.168142,0.02786 -0.15659,0.07989 -0.141689,0.126408 -0.123436,0.167413 -0.101833,0.202903 -0.07688,0.232879 -0.04857,0.257341 -0.01692,0.276288 0.01696,0.276238 0.0486,0.257314 0.07689,0.232871 0.101834,0.202908 0.123427,0.167429 0.141672,0.126429 0.156569,0.07991 0.168115,0.02787 0.168098,0.02785 0.156564,0.07985 0.141677,0.126337 0.123437,0.167325 0.101843,0.202809 0.0769,0.232789 0.0486,0.257265 0.01694,0.276238 -0.01443,0.260707 -0.04166,0.249162 -0.0664,0.230459 -0.08867,0.204604 -0.108458,0.171591 -0.125773,0.131424 -0.140612,0.0841 -0.0751,0.02207 -0.07788,0.0076 h -0.09508 l -0.168142,0.02783 -0.15659,0.07983 -0.141689,0.126328 -0.123436,0.167321 -0.101832,0.20281 -0.07688,0.232796 -0.04857,0.257279 -0.01692,0.276259 0.01696,0.276234 0.0486,0.257313 0.07689,0.23287 0.101833,0.20291 0.123427,0.16743 0.141672,0.126431 0.156569,0.07991 0.168115,0.02787 0.168098,0.02785 0.156565,0.07984 0.141677,0.126337 0.123436,0.167324 0.101844,0.202808 0.0769,0.232789 0.0486,0.257266 0.01694,0.276239 -0.01447,0.261028 -0.04176,0.24936 -0.06656,0.230561 -0.08888,0.204631 -0.108699,0.17157 -0.126033,0.131379 -0.140878,0.08406 -0.07523,0.02205 -0.07801,0.0075 h -0.09353 l -0.168142,0.02783 -0.15659,0.07984 -0.141689,0.126333 -0.123436,0.167324 -0.101832,0.202813 -0.07688,0.232795 -0.04857,0.257275 -0.01692,0.276249 0.01696,0.276241 0.0486,0.257318 0.07689,0.232874 0.101833,0.202912 0.123427,0.16743 0.141672,0.126427 0.156569,0.07991 0.168115,0.02787 0.168098,0.02788 0.156565,0.0799 0.141677,0.126417 0.123436,0.167414 0.101844,0.202899 0.0769,0.232869 0.0486,0.257325 0.01694,0.276267 -0.01447,0.261002 -0.04176,0.2493 -0.06656,0.230479 -0.08888,0.204537 -0.108699,0.171478 -0.126033,0.131298 -0.140878,0.084 -0.07523,0.02204 -0.07801,0.0075 h -0.09353 l -0.168142,0.02786 -0.15659,0.07989 -0.141689,0.126412 -0.123436,0.167417 -0.101832,0.202905 -0.07688,0.232879 -0.04857,0.257336 -0.01692,0.276277 0.02548,0.211766 0.06715,0.177761 0.09493,0.153938 0.108819,0.140292 0.108816,0.136826 0.09492,0.14354 0.06714,0.160434 0.02547,0.187507 39.766046,0.03514 -0.01696,-0.276237 -0.04861,-0.257313 -0.07689,-0.23287 -0.101835,-0.202908 -0.123427,-0.167428 -0.141668,-0.12643 -0.15656,-0.07991 -0.168102,-0.02788 -0.168108,-0.02783 -0.156569,-0.07984 -0.141678,-0.12633 -0.123434,-0.167322 -0.101839,-0.202811 -0.07689,-0.232795 -0.04859,-0.257276 -0.01694,-0.276254 0.01446,-0.260699 0.04171,-0.249158 0.06648,-0.230459 0.08876,-0.204606 0.108551,-0.171595 0.125856,-0.131428 0.140674,-0.08411 0.07512,-0.02207 0.07789,-0.0076 h 0.09457 l 0.168131,-0.02783 0.156583,-0.07984 0.141685,-0.126333 0.123435,-0.167324 0.101835,-0.202813 0.07688,-0.232795 0.04858,-0.257275 0.01692,-0.276249 -0.01696,-0.276239 -0.04861,-0.257317 -0.0769,-0.232875 -0.101835,-0.202913 -0.123427,-0.167431 -0.141668,-0.126428 -0.15656,-0.07991 -0.168102,-0.02787 -0.168108,-0.02783 -0.156569,-0.07984 -0.141678,-0.126332 -0.123434,-0.167323 -0.101839,-0.202811 -0.07689,-0.232796 -0.04859,-0.257275 -0.01694,-0.27625 0.0145,-0.261026 0.04182,-0.249359 0.06665,-0.230562 0.08897,-0.204632 0.108793,-0.171571 0.126116,-0.13138 0.140937,-0.08406 0.07525,-0.02205 0.07801,-0.0076 h 0.09302 l 0.168131,-0.02783 0.156583,-0.07983 0.141685,-0.126325 0.123435,-0.167317 0.101835,-0.202809 0.07688,-0.232796 0.04858,-0.257283 0.01693,-0.276266 -0.01696,-0.276238 -0.0486,-0.257314 -0.0769,-0.23287 -0.101835,-0.202908 -0.123427,-0.167429 -0.141668,-0.126429 -0.15656,-0.07991 -0.168102,-0.02788 -0.168108,-0.02785 -0.156569,-0.07984 -0.141678,-0.126336 -0.123434,-0.167324 -0.101839,-0.202808 -0.07689,-0.232789 -0.04859,-0.257267 -0.01694,-0.276241 0.0145,-0.261033 0.04182,-0.249363 0.06665,-0.230561 0.08897,-0.20463 0.108793,-0.171568 0.126116,-0.131377 0.140937,-0.08405 0.07524,-0.02205 0.07801,-0.0075 h 0.09302 l 0.168131,-0.02786 0.156583,-0.07989 0.141685,-0.126414 0.123435,-0.167418 0.101835,-0.202907 0.07688,-0.232878 0.04858,-0.257334 0.01693,-0.276274 -0.01696,-0.276218 -0.04861,-0.257259 -0.0769,-0.232791 -0.101835,-0.202817 -0.123427,-0.167335 -0.141668,-0.126345 -0.15656,-0.07985 -0.168102,-0.02784 -0.168108,-0.02786 -0.156569,-0.07989 -0.141678,-0.126414 -0.123434,-0.167418 -0.101839,-0.202907 -0.07689,-0.232878 -0.04859,-0.257334 -0.01694,-0.276273 0.01446,-0.260676 0.04171,-0.249098 0.06648,-0.230378 0.08876,-0.204511 0.108551,-0.171501 0.125856,-0.131346 0.140674,-0.08405 0.07512,-0.02205 0.07789,-0.0076 h 0.09457 l 0.168131,-0.02788 0.156583,-0.07995 0.141685,-0.126492 0.123435,-0.16751 0.101835,-0.202999 0.07688,-0.232961 0.04858,-0.257397 0.01693,-0.276306 -0.01696,-0.27621 -0.04861,-0.257252 -0.0769,-0.232785 -0.101835,-0.202814 -0.123427,-0.167335 -0.141668,-0.126349 -0.15656,-0.07986 -0.168102,-0.02786 -0.168108,-0.02788 -0.156569,-0.07991 -0.141678,-0.126419 -0.123434,-0.167417 -0.101839,-0.202899 -0.07689,-0.232869 -0.04859,-0.257323 -0.01694,-0.276262 0.0145,-0.260986 0.04182,-0.249244 0.06665,-0.230396 0.08897,-0.204441 0.108793,-0.17138 0.126116,-0.131212 0.140937,-0.08394 0.07524,-0.02202 0.07801,-0.0075 h 0.09302 l 0.168131,-0.02785 0.156583,-0.07989 0.141685,-0.126409 0.123435,-0.167414 0.101835,-0.202903 0.07688,-0.232879 0.04858,-0.25734 0.01693,-0.276287 -0.01696,-0.276204 -0.04861,-0.257249 -0.0769,-0.232787 -0.101835,-0.202817 -0.123427,-0.167338 -0.141668,-0.126352 -0.15656,-0.07986 -0.168102,-0.02785 -0.168108,-0.02787 -0.156569,-0.0799 -0.141678,-0.126419 -0.123434,-0.167419 -0.101839,-0.202903 -0.07689,-0.232872 -0.04859,-0.257325 -0.01694,-0.276262 0.0145,-0.261014 0.04182,-0.249306 0.06665,-0.230478 0.08897,-0.204535 0.108793,-0.171472 0.126116,-0.131293 0.140937,-0.084 0.07525,-0.02204 0.07801,-0.0075 h 0.09302 l 0.168132,-0.02786 0.156587,-0.07989 0.141689,-0.126414 0.123439,-0.167418 0.101837,-0.202906 0.07688,-0.232879 0.04858,-0.257334 0.01691,-0.276274 -0.01071,-0.203654 -0.02923,-0.193826 -0.09699,-0.354412 -0.06967,-0.17617 -0.07877,-0.153465 -0.0866,-0.129984 -0.09318,-0.105728 -0.0985,-0.0807 -0.102562,-0.05489 -0.105366,-0.02831 -0.106912,-9.49e-4 -0.08331,0.0023 -0.08302,-0.01271 -0.163821,-0.06678 -0.158619,-0.115877 -0.150721,-0.157712 -0.140127,-0.192282 -0.12684,-0.219589 -0.110858,-0.239632 -0.09218,-0.252412 -0.06798,-0.245116 -0.04793,-0.246613 -0.02624,-0.242152 -0.0029,-0.231731 0.02207,-0.215351 0.0487,-0.193012 0.07697,-0.164715 0.106879,-0.130458 0.08372,-0.05219 0.07001,-0.05387 0.06067,-0.06727 0.09214,-0.170458 0.05121,-0.211272 0.0079,-0.243582 -0.03781,-0.267387 -0.08591,-0.282688 -0.136396,-0.289485 -0.189272,-0.287777 -0.22346,-0.254018 -0.234343,-0.197631 -0.237371,-0.142488 -0.232548,-0.08859 -0.21987,-0.03593 -0.199341,0.01548 -0.170958,0.06565 L 9.961986,16.05152 9.899645,16.11484 9.825173,16.18927 9.738847,16.24754 9.642164,16.29037 9.53662,16.31846 9.3049366,16.3333 9.0557688,16.29777 8.8769188,16.24447 8.6953133,16.166714 8.5143124,16.064475 8.3367849,15.938291 8.1534441,15.775912 7.994133,15.599086 7.8615301,15.412507 7.7583144,15.220868 l -0.07115,-0.192009 -0.036405,-0.187683 0.00102,-0.178667 0.04112,-0.164957 0.05013,-0.08475 0.066776,-0.168592 0.017309,-0.187574 L 7.7971756,13.856674 7.72221,13.650915 7.6044358,13.445954 7.4460722,13.248383 7.2493385,13.064795 7.0164539,12.901784 6.7659931,12.773981 l -0.247368,-0.0837 -0.237993,-0.04106 -0.2223356,1.05e-4 -0.200396,0.0398 -0.1721741,0.07803 -0.13767,0.114784 -0.096883,0.150071 -0.095844,0.150329 -0.1347488,0.116667 -0.1675103,0.08279 -0.1941282,0.0487 -0.2146025,0.01439 L 4.4154061,13.424754 4.1782857,13.369882 3.9391219,13.280055 3.7264663,13.168526 3.5344094,13.036576 3.3664949,12.888163 3.2262661,12.727248 3.1172668,12.55779 l -0.074226,-0.174042 -0.03591,-0.174665 0.00595,-0.171329 0.03152,-0.09664 0.030622,-0.180957 -0.021001,-0.187738 -0.069126,-0.18867 L 2.8713413,11.199996 2.7164585,11.027008 2.5239444,10.870633 2.2972969,10.73672 l -0.257283,-0.105603 -0.2676432,-0.0675 -0.2567298,-0.0255 -0.239901,0.01383 -0.2171565,0.05048 -0.18849661,0.08446 -0.15392114,0.115764 -0.11343014,0.144397 -0.0670236,0.170354 -0.0660412,0.17002 -0.11076434,0.145424 -0.14951117,0.119128 -0.18228174,0.09113 -0.20907605,0.06143 -0.22989411,0.03003 -0.2447359,-0.0031 -0.25360144,-0.03788 -0.23370946,-0.06565 -0.2206049,-0.09079 -0.2009207,-0.112494 -0.1746573,-0.130759 -0.1418143,-0.145586 -0.102392,-0.156977 -0.05639,-0.164929 -0.00381,-0.169443 0.01499,-0.104386 -3.466e-4,-0.189716 -0.052036,-0.191299 L -2.1812723,9.9869569 -2.3236732,9.8173447 -2.5047505,9.6710029 -2.7201664,9.556216 -2.9655834,9.481268 -3.236664,9.454445 -3.5116216,9.467017 -3.7685968,9.504439 -4.0023642,9.566266 -4.2076984,9.652056 -4.379374,9.7613652 -4.5121658,9.89375 l -0.088682,0.155017 -0.039348,0.177206 -0.038838,0.181016 -0.086851,0.164726 -0.1292368,0.145598 -0.1659963,0.123631 -0.1971292,0.09882 -0.2226354,0.07118 -0.2425152,0.04069 -0.2567682,0.0074 -0.2384094,-0.02435 -0.2245302,-0.05224 -0.2061866,-0.07752 -0.1833788,-0.100189 -0.1561067,-0.120239 -0.1243705,-0.137675 -0.08817,-0.152495 -0.047505,-0.1647 v -0.10387 L -7.2757837,9.9424551 -7.3530664,9.7722446 -7.4754661,9.6191198 -7.6377786,9.4871109 -7.8347998,9.3802481 l -0.2265257,-0.077686 -0.2508262,-0.04448 -0.2699224,-0.00724 -3.79e-5,9e-6 m 1.917195,5.3846839 0.538469,0.02636 0.529683,0.07906 0.516765,0.130225 0.500744,0.179317 0.480591,0.22686 0.457336,0.273885 0.430465,0.318327 0.399459,0.362251 0.362252,0.399459 0.318327,0.430465 0.273885,0.457336 0.227376,0.480591 0.1788,0.500745 0.130225,0.516764 0.07906,0.529683 0.02635,0.538469 -0.02635,0.538985 -0.07906,0.529167 -0.130225,0.516764 -0.1788,0.500745 -0.227376,0.48059 -0.273885,0.457337 -0.318327,0.430464 -0.362252,0.399976 -0.399459,0.361736 -0.430465,0.318844 -0.457336,0.273367 -0.480591,0.227375 -0.500744,0.179319 -0.516765,0.129707 -0.529683,0.07906 -0.538469,0.02687 -0.538985,-0.02687 -0.529166,-0.07906 -0.516765,-0.129707 -0.500744,-0.179319 -0.480591,-0.227375 -0.457337,-0.273367 -0.430464,-0.318844 -0.399976,-0.361736 -0.361735,-0.399976 -0.318844,-0.430464 -0.273368,-0.457337 -0.227376,-0.48059 -0.179317,-0.500745 -0.129708,-0.516764 -0.07906,-0.529167 -0.02687,-0.538985 0.02687,-0.538469 0.07906,-0.529683 0.129708,-0.516764 0.179317,-0.500745 0.227376,-0.480591 0.273368,-0.457336 0.318844,-0.430465 0.361735,-0.399459 0.399976,-0.362251 0.430464,-0.318327 0.457337,-0.273885 0.480591,-0.22686 0.500744,-0.179317 0.516765,-0.130225 0.529166,-0.07906 0.538985,-0.02636"
       style="fill:none;fill-opacity:1;stroke:#000000;stroke-width:0.05;stroke-linecap:butt;stroke-linejoin:miter;stroke-miterlimit:4;stroke-dasharray:none;stroke-opacity:1"
       inkscape:connector-curvature="0"
       transform="translate(-1.0208333e-6)" />
  </g>
  <g
     id="g8547"
     inkscape:groupmode="layer"
     inkscape:label="Drill"
     transform="translate(26.844544,-9.2488588)" />
</svg>
