<?xml version="1.0" encoding="UTF-8" standalone="no"?>
<!-- Created with Inkscape (http://www.inkscape.org/) -->

<svg
   xmlns:dc="http://purl.org/dc/elements/1.1/"
   xmlns:cc="http://creativecommons.org/ns#"
   xmlns:rdf="http://www.w3.org/1999/02/22-rdf-syntax-ns#"
   xmlns:svg="http://www.w3.org/2000/svg"
   xmlns="http://www.w3.org/2000/svg"
   xmlns:sodipodi="http://sodipodi.sourceforge.net/DTD/sodipodi-0.dtd"
   xmlns:inkscape="http://www.inkscape.org/namespaces/inkscape"
   width="46.863289mm"
   height="47.763596mm"
   viewBox="0 0 46.863289 47.763596"
   version="1.1"
   id="svg844"
   inkscape:version="0.92.5 (2060ec1f9f, 2020-04-08)"
   sodipodi:docname="blade-plate-outline.svg">
  <defs
     id="defs838" />
  <sodipodi:namedview
     id="base"
     pagecolor="#ffffff"
     bordercolor="#666666"
     borderopacity="1.0"
     inkscape:pageopacity="0.0"
     inkscape:pageshadow="2"
     inkscape:zoom="3.959798"
     inkscape:cx="86.348801"
     inkscape:cy="77.60466"
     inkscape:document-units="mm"
     inkscape:current-layer="g1398"
     showgrid="true"
     inkscape:window-width="1858"
     inkscape:window-height="1177"
     inkscape:window-x="54"
     inkscape:window-y="-8"
     inkscape:window-maximized="1"
     borderlayer="true"
     fit-margin-top="0"
     fit-margin-left="0"
     fit-margin-right="0"
     fit-margin-bottom="0">
    <inkscape:grid
       id="grid1390"
       units="mm"
       type="xygrid"
       empspacing="1"
       spacingy="2.54"
       spacingx="2.54"
       originx="-63.499999"
       originy="-12.699998" />
  </sodipodi:namedview>
  <metadata
     id="metadata841">
    <rdf:RDF>
      <cc:Work
         rdf:about="">
        <dc:format>image/svg+xml</dc:format>
        <dc:type
           rdf:resource="http://purl.org/dc/dcmitype/StillImage" />
        <dc:title></dc:title>
      </cc:Work>
    </rdf:RDF>
  </metadata>
  <g
     id="g1396"
     sodipodi:insensitive="true"
     inkscape:groupmode="layer"
     inkscape:label="[fixed] BG"
     transform="translate(-63.5,22.463591)">
    <rect
       id="rect1394"
       style="fill:#ffffff;fill-opacity:1;stroke:none"
       height="38"
       width="29"
       y="0"
       x="0" />
  </g>
  <g
     id="g1398"
     inkscape:groupmode="layer"
     inkscape:label="F.Cu-disabled"
     transform="translate(-63.5,22.463591)" />
  <g
     id="g1400"
     inkscape:groupmode="layer"
     inkscape:label="B.Cu-disabled"
     transform="translate(-63.5,22.463591)" />
  <g
     id="g1402"
     inkscape:groupmode="layer"
     inkscape:label="B.Adhes-disabled"
     transform="translate(-63.5,22.463591)" />
  <g
     id="g1404"
     inkscape:groupmode="layer"
     inkscape:label="F.Adhes-disabled"
     transform="translate(-63.5,22.463591)" />
  <g
     id="g1406"
     inkscape:groupmode="layer"
     inkscape:label="B.Paste-disabled"
     transform="translate(-63.5,22.463591)" />
  <g
     id="g1408"
     inkscape:groupmode="layer"
     inkscape:label="F.Paste-disabled"
     transform="translate(-63.5,22.463591)" />
  <g
     id="g1410"
     inkscape:groupmode="layer"
     inkscape:label="B.SilkS-disabled"
     transform="translate(-63.5,22.463591)" />
  <g
     id="g1412"
     inkscape:groupmode="layer"
     inkscape:label="F.SilkS-disabled"
     transform="translate(-63.5,22.463591)" />
  <g
     id="g1414"
     inkscape:groupmode="layer"
     inkscape:label="B.Mask-disabled"
     transform="translate(-63.5,22.463591)" />
  <g
     id="g1416"
     inkscape:groupmode="layer"
     inkscape:label="F.Mask-disabled"
     transform="translate(-63.5,22.463591)" />
  <g
     id="g1418"
     inkscape:groupmode="layer"
     inkscape:label="Dwgs.User-disabled"
     transform="translate(-63.5,22.463591)" />
  <g
     id="g1420"
     inkscape:groupmode="layer"
     inkscape:label="Cmts.User-disabled"
     transform="translate(-63.5,22.463591)" />
  <g
     id="g1422"
     inkscape:groupmode="layer"
     inkscape:label="Eco1.User-disabled"
     transform="translate(-63.5,22.463591)" />
  <g
     id="g1424"
     inkscape:groupmode="layer"
     inkscape:label="Eco2.User-disabled"
     transform="translate(-63.5,22.463591)" />
  <g
     id="g1426"
     inkscape:groupmode="layer"
     inkscape:label="Edge.Cuts"
     transform="translate(-63.5,22.463591)" />
  <g
     id="g1428"
     inkscape:groupmode="layer"
     inkscape:label="Margin-disabled"
     transform="translate(-63.5,22.463591)" />
  <g
     id="g1430"
     inkscape:groupmode="layer"
     inkscape:label="B.CrtYd-disabled"
     transform="translate(-63.5,22.463591)" />
  <g
     id="g1432"
     inkscape:groupmode="layer"
     inkscape:label="F.CrtYd-disabled"
     transform="translate(-63.5,22.463591)" />
  <g
     id="g1434"
     inkscape:groupmode="layer"
     inkscape:label="B.Fab-disabled"
     transform="translate(-63.5,22.463591)" />
  <g
     id="g1436"
     inkscape:groupmode="layer"
     inkscape:label="F.Fab"
     transform="translate(-63.5,22.463591)"
     style="display:inline">
    <path
       inkscape:connector-curvature="0"
       style="fill:none;fill-opacity:1;stroke:#000000;stroke-width:0.1;stroke-linecap:butt;stroke-linejoin:miter;stroke-miterlimit:4;stroke-dasharray:none;stroke-opacity:1"
       d="m 84.705425,-22.461425 c -0.123693,0.0051 -0.243128,0.02212 -0.3576,0.04444 -0.697614,0.135758 -1.169644,0.570468 -1.130165,1.034048 0.04608,0.541575 -0.588556,1.037388 -1.385446,1.1529 -0.741876,0.107527 -1.443993,-0.14015 -1.616438,-0.607716 -0.01214,-0.03302 -0.01413,-0.07299 -0.02119,-0.109037 -0.104632,-0.533964 -0.875662,-0.834769 -1.736844,-0.609264 -0.861147,0.225512 -1.393319,0.867291 -1.231451,1.385961 0.161929,0.518864 -0.351083,1.144535 -1.102774,1.435571 -0.698499,0.27042 -1.436664,0.188892 -1.706872,-0.225824 -0.01942,-0.02983 -0.03005,-0.06884 -0.04496,-0.102839 -0.218295,-0.496157 -1.03539,-0.614232 -1.826244,-0.195852 -0.791097,0.418521 -1.16703,1.167492 -0.893489,1.633492 0.273594,0.466117 -0.08482,1.192253 -0.747241,1.652096 -0.615796,0.427487 -1.352184,0.526984 -1.711524,0.189135 -0.02551,-0.02397 -0.04548,-0.05874 -0.0677,-0.08785 -0.219937,-0.287443 -0.661444,-0.352653 -1.13533,-0.167431 -0.257068,0.100497 -0.513899,0.279167 -0.746725,0.508495 -0.724022,0.713137 -0.8255,1.591283 -0.409276,1.925465 0.416278,0.334264 0.329365,1.162628 -0.09405,1.847434 -0.04845,0.07839 -0.09945,0.152733 -0.15348,0.222207 -0.394615,0.50764 -0.984199,0.826978 -1.399397,0.67903 -0.02233,-0.0082 -0.04424,-0.02249 -0.06615,-0.03359 -0.461629,-0.233122 -1.271357,0.23672 -1.502751,1.5311696 -0.06264,0.350351 -0.09978,0.708993 -0.02273,1.023194 0.124778,0.508794 0.488545,0.845397 0.872815,0.845426 0.534919,2.6e-5 0.968418,0.668242 0.968418,1.492932 0,0.768289 -0.368856,1.483114 -0.859896,1.483114 h -0.108521 c -0.535027,0 -0.968483,0.669248 -0.968414,1.493967 5e-5,0.824581 0.433461,1.492368 0.968414,1.492415 0.534919,5.1e-5 0.968418,0.66825301 0.968418,1.49293301 0,0.768289 -0.368856,1.48362999 -0.859896,1.48362999 h -0.108522 c -0.535027,0 -0.968483,0.66875 -0.968414,1.493448 5e-5,0.824559 0.433461,1.492895 0.968414,1.492934 0.534919,2.7e-5 0.968418,0.668737 0.968418,1.493449 0,0.767085 -0.367573,1.483114 -0.85783,1.483114 h -0.110588 c -0.535027,0 -0.968483,0.668687 -0.968414,1.493449 5e-5,0.824566 0.433461,1.4933954 0.968414,1.4934484 0.534919,5.3e-5 0.968418,0.668271 0.968418,1.492933 0,0.767156 -0.367573,1.483114 -0.85783,1.483114 h -0.110588 c -0.535027,0 -0.968483,0.668221 -0.968414,1.492932 5e-5,0.824577 0.433461,1.493409 0.968414,1.493449 0.534919,0 0.968418,0.668271 0.968418,1.492932 0,0.768287 -0.368856,1.48363 -0.859896,1.48363 h -0.108522 c -0.535027,0 -0.968483,0.668759 -0.968414,1.493449 5e-5,0.824579 0.433461,1.492893 0.968414,1.492933 0.534919,5e-5 0.968418,0.66875 0.968418,1.493448 0,0.767985 -0.368613,1.482606 -0.85938,1.483114 l 43.849008,-0.02585 c 0,0 0.36805,-1.483114 0.85834,-1.483114 h 0.11007 c 0.53502,0 0.96849,-0.668234 0.96842,-1.492932 -5e-5,-0.824572 -0.43348,-1.49342 -0.96842,-1.493449 -0.53492,-5.3e-5 -0.96841,-0.668234 -0.96841,-1.49293 0,-0.768281 0.36937,-1.483635 0.86041,-1.483635 h 0.108 c 0.53502,0 0.96849,-0.668179 0.96842,-1.49293 -5e-5,-0.824571 -0.43348,-1.493398 -0.96842,-1.493449 -0.53492,-5e-5 -0.96841,-0.668263 -0.96841,-1.492932 0,-0.768313 0.36936,-1.48363 0.86041,-1.48363 h 0.108 c 0.53502,0 0.96849,-0.66875 0.96842,-1.493451 -5e-5,-0.8245774 -0.43348,-1.4929144 -0.96842,-1.4929304 -0.53492,-2.7e-5 -0.96841,-0.668753 -0.96841,-1.493451 0,-0.767128 0.36805,-1.482596 0.85834,-1.482596 h 0.11007 c 0.53502,0 0.96849,-0.669237 0.96842,-1.493967 -5e-5,-0.824563 -0.43348,-1.492866 -0.96842,-1.49293 -0.53492,-5.3e-5 -0.96841,-0.668771 -0.96841,-1.493451 0,-0.76830199 0.36937,-1.48311099 0.86041,-1.48311099 h 0.108 c 0.53502,0 0.96849,-0.66819 0.96842,-1.49293301 -5e-5,-0.824523 -0.43348,-1.493409 -0.96842,-1.493448 -0.53492,-2.7e-5 -0.96841,-0.668261 -0.96841,-1.492933 0,-0.76831 0.36937,-1.48363 0.86041,-1.48363 h 0.108 c 0.53502,0 0.9685,-0.668234 0.96842,-1.492932 -3e-5,-0.302475 -0.0708,-0.579671 -0.15916,-0.81959 -0.20038,-0.543962 -0.52878,-0.832511 -0.86094,-0.794782 -0.51613,0.05863 -1.03456,-0.622614 -1.28829,-1.3673576 -0.23985,-0.70408 -0.25235,-1.494545 0.12661,-1.817979 0.0271,-0.02304 0.0656,-0.03792 0.0977,-0.05684 0.46189,-0.272024 0.47609,-1.215983 -0.19431,-2.041221 -0.66694,-0.820986 -1.5658,-0.972651 -1.91874,-0.569992 -0.21071,0.240384 -0.58719,0.284879 -0.9803,0.199472 -0.27336,-0.05936 -0.564,-0.191217 -0.83458,-0.391708 -0.60214,-0.446164 -0.93943,-1.114681 -0.74724,-1.569413 0.0134,-0.03179 0.0387,-0.06195 0.0579,-0.0925 0.28563,-0.455766 -0.0691,-1.208646 -0.84388,-1.645896 -0.77383,-0.436727 -1.58708,-0.344167 -1.81746,0.141594 -0.23018,0.485365 -1.01807,0.582687 -1.755448,0.270786 -0.686702,-0.290479 -1.162272,-0.864405 -1.075385,-1.353408 0.0062,-0.03467 0.02445,-0.07063 0.03669,-0.105418 0.178355,-0.51014 -0.326383,-1.167325 -1.166853,-1.427305 -0.839515,-0.259675 -1.616567,2.51e-4 -1.746146,0.530201 -0.129088,0.527963 -0.886683,0.790117 -1.679486,0.62787 -0.737168,-0.150858 -1.393102,-0.634225 -1.316714,-1.129647 0.0062,-0.03796 0.01169,-0.07575 0.01757,-0.113689 0.08343,-0.540776 -0.526836,-1.196311 -1.401461,-1.196311 h -5.29e-4 c -0.873845,0 -1.589801,0.294222 -1.629877,0.840777 -0.04012,0.546733 -0.744654,0.937197 -1.555978,0.907439 -0.755089,-0.02767 -1.393766,-0.410199 -1.473295,-0.903822 -0.0062,-0.03518 0,-0.07536 0,-0.112654 -2.27e-4,-0.54742 -0.688237,-0.99038 -1.548225,-0.953431 z m 2.26291,10.289814 a 5.2499998,5.2499998 0 0 1 5.24981,5.2503256 5.2499998,5.2499998 0 0 1 -5.24981,5.249809 5.2499998,5.2499998 0 0 1 -5.249807,-5.249809 5.2499998,5.2499998 0 0 1 5.249807,-5.2503256 z"
       id="path5658-9" />
  </g>
  <g
     id="g1438"
     inkscape:groupmode="layer"
     inkscape:label="Drill"
     transform="translate(-63.5,22.463591)" />
</svg>
