<?xml version="1.0" encoding="UTF-8" standalone="no"?>
<!-- Created with Inkscape (http://www.inkscape.org/) -->

<svg
   xmlns:dc="http://purl.org/dc/elements/1.1/"
   xmlns:cc="http://creativecommons.org/ns#"
   xmlns:rdf="http://www.w3.org/1999/02/22-rdf-syntax-ns#"
   xmlns:svg="http://www.w3.org/2000/svg"
   xmlns="http://www.w3.org/2000/svg"
   xmlns:sodipodi="http://sodipodi.sourceforge.net/DTD/sodipodi-0.dtd"
   xmlns:inkscape="http://www.inkscape.org/namespaces/inkscape"
   sodipodi:docname="body-art.svg"
   inkscape:version="0.92.5 (2060ec1f9f, 2020-04-08)"
   id="svg1662"
   version="1.1"
   viewBox="0 0 60.230498 56.765961"
   height="56.765961mm"
   width="60.230499mm">
  <defs
     id="defs1656" />
  <sodipodi:namedview
     id="base"
     pagecolor="#ffffff"
     bordercolor="#666666"
     borderopacity="1.0"
     inkscape:pageopacity="0.0"
     inkscape:pageshadow="2"
     inkscape:zoom="8"
     inkscape:cx="38.982732"
     inkscape:cy="32.038183"
     inkscape:document-units="mm"
     inkscape:current-layer="g2234"
     showgrid="true"
     inkscape:window-width="1858"
     inkscape:window-height="1177"
     inkscape:window-x="54"
     inkscape:window-y="-8"
     inkscape:window-maximized="1"
     borderlayer="true"
     fit-margin-top="0"
     fit-margin-left="0"
     fit-margin-right="0"
     fit-margin-bottom="0"
     objecttolerance="1"
     gridtolerance="1"
     guidetolerance="1"
     showguides="true"
     inkscape:lockguides="true"
     inkscape:object-paths="true">
    <inkscape:grid
       id="grid2208"
       units="mm"
       type="xygrid"
       empspacing="1"
       spacingy="2.54"
       spacingx="2.54"
       originx="-13.831736"
       originy="-13.983681" />
  </sodipodi:namedview>
  <metadata
     id="metadata1659">
    <rdf:RDF>
      <cc:Work
         rdf:about="">
        <dc:format>image/svg+xml</dc:format>
        <dc:type
           rdf:resource="http://purl.org/dc/dcmitype/StillImage" />
        <dc:title />
      </cc:Work>
    </rdf:RDF>
  </metadata>
  <g
     id="g2214"
     sodipodi:insensitive="true"
     inkscape:groupmode="layer"
     inkscape:label="[fixed] BG"
     transform="translate(-13.831737,32.749637)">
    <rect
       id="rect2212"
       style="fill:#ffffff;fill-opacity:1;stroke:none"
       height="38"
       width="29"
       y="0"
       x="0" />
  </g>
  <g
     id="g2216"
     inkscape:groupmode="layer"
     inkscape:label="F.Cu"
     transform="translate(-13.831737,32.749637)"
     style="display:inline" />
  <g
     id="g2218"
     inkscape:groupmode="layer"
     inkscape:label="B.Cu-disabled"
     transform="translate(-13.831737,32.749637)" />
  <g
     id="g2220"
     inkscape:groupmode="layer"
     inkscape:label="B.Adhes-disabled"
     transform="translate(-13.831737,32.749637)" />
  <g
     id="g2222"
     inkscape:groupmode="layer"
     inkscape:label="F.Adhes-disabled"
     transform="translate(-13.831737,32.749637)" />
  <g
     id="g2224"
     inkscape:groupmode="layer"
     inkscape:label="B.Paste-disabled"
     transform="translate(-13.831737,32.749637)" />
  <g
     id="g2226"
     inkscape:groupmode="layer"
     inkscape:label="F.Paste-disabled"
     transform="translate(-13.831737,32.749637)" />
  <g
     id="g2228"
     inkscape:groupmode="layer"
     inkscape:label="B.SilkS-disabled"
     transform="translate(-13.831737,32.749637)" />
  <g
     id="g2230"
     inkscape:groupmode="layer"
     inkscape:label="F.SilkS"
     transform="translate(-13.831737,32.749637)"
     style="display:inline">
    <path
       inkscape:connector-curvature="0"
       style="display:inline;fill:#000080;fill-opacity:1;stroke-width:0.02558918"
       d="m 62.51515,-15.047424 v 1.344104 l 0.50798,0.575675 -0.50798,0.102836 v 0.977202 c 2.45175,-0.07062 4.3214,2.355318 7.96592,5.829616 v -3.672643 l -0.5271,-0.524515 c -0.43654,-0.009 -1.20555,-0.009 -1.32291,0.07803 -0.0289,0.0215 0.18581,0.234434 0.35346,0.460954 0.16765,0.22653 0.29762,0.475376 0.23668,0.529166 -0.16784,0.14814 -0.50122,-0.387353 -0.87953,-0.759643 -0.37831,-0.37229 -0.81269,-0.636871 -0.73949,-0.764811 0.0873,-0.15257 2.19186,-0.279306 2.50217,-0.189136 0.10317,0.03 0.44397,0.520788 0.61081,0.693498 l -0.006,-1.62574 c -0.0294,-0.0513 -0.42759,-0.473357 -0.48834,-0.473357 -0.0871,0 -0.47207,0.421511 -0.57723,0.445451 -0.4622,0.10522 -0.75676,0.0049 -0.7555,-0.0863 0.002,-0.12702 0.50245,-0.477238 0.80201,-0.902788 l -0.62218,-0.608231 -1.91048,1.872237 -0.77411,-0.787032 c -1.21644,1.0389 -3.4798,-1.577744 -1.83865,-2.224154 l -0.46819,-0.404626 c -0.67792,-0.04237 -1.15227,0.0099 -1.56114,0.114205 z"
       id="path1482" />
    <path
       inkscape:connector-curvature="0"
       style="display:inline;fill:#000080;fill-opacity:1;stroke-width:0.02558918"
       d="m 53.31261,-16.744995 c -3.59611,0.0668 -5.09141,2.955992 -3.93878,4.472078 -0.0172,-3.62844 5.99632,-3.946518 4.9351,0.325562 h -2.83807 l 1.28106,-1.242818 h -1.0914 l -2.26705,2.139921 H 54.049 v 0.583943 h -4.8643 c -0.91257,-0.69266 -2.66082,-2.03265 -2.66082,-2.4722 0,-0.20585 -0.0729,-0.710277 1.54202,-0.653707 1.09229,-2.23475 1.3614,-2.145562 1.29398,-2.230872 -0.11834,-0.14974 -0.8974,0.226921 -1.37821,0.443901 h -1.73374 c 0,1.23479 -0.77218,1.293978 -1.53376,1.293978 -0.76158,0 -1.53427,-0.05308 -1.53427,-1.293978 h -2.22674 l 2.42931,2.458248 c 3.58079,1.24046 4.96335,2.78029 6.94428,5.34696 h 2.11615 v 1.201994 h -0.88005 v 2.809646 l 2.82463,-2.809646 h -0.74259 l 0.0134,-1.201994 h 1.88826 l 1.32343,-1.30638 h -5.58881 l -0.99838,-0.65164 h 7.39541 c 2.02981,-1.727398 3.51653,-2.477575 4.83692,-2.515608 v -0.977202 l -0.83406,0.168465 0.83147,-0.850077 0.003,0.0031 v -1.344104 c -0.3544,0.09041 -0.66123,0.217467 -0.98805,0.383956 l 0.33228,0.529683 -0.28061,0.264067 -0.34364,-0.484209 -0.43047,0.376205 0.34158,0.473873 -0.22272,0.197404 -0.3545,-0.332796 c -0.5147,0.795139 -1.38516,1.496274 -1.89705,1.487764 -0.87797,-0.0146 -0.85536,-0.540639 -0.90175,-0.578259 -0.0903,-0.0733 -1.0609,0.838938 -1.6552,1.297078 -0.01,-0.97802 0.0276,-2.465383 0.19069,-2.505273 0.16305,-0.0399 0.35915,0.837884 0.34675,1.419035 l 0.63975,-0.668177 c -0.009,-0.21218 0.0203,-0.510116 -0.007,-0.703316 -0.037,-0.25941 -0.14646,-0.292099 -0.0724,-0.345199 0.13459,-0.0964 0.37894,0.02637 0.55242,0.539502 l 1.67019,-1.683101 c -0.86701,-0.0346 -1.74557,-0.273923 -2.52336,-0.280603 -0.35074,-0.003 -0.23046,0.358248 -1.36426,0.326078 -0.37868,-0.0115 -0.77877,-0.0516 -0.77877,-0.437182 0,-0.30782 0.35882,-0.789058 0.21188,-0.818038 -0.59789,-0.117905 -1.15439,-0.165607 -1.66812,-0.156063 z"
       id="path874-0-2" />
    <path
       style="display:inline;fill:#000080;fill-opacity:1;stroke-width:0.02558918"
       d="m 56.30291,10.950944 c -0.56912,-0.444709 2.28762,-2.95161 1.81345,-3.2923695 -0.72983,-0.5244809 -2.58927,1.3971191 -2.60107,2.8478405 -7.9e-4,0.107849 0.0816,0.292629 -0.007,0.356399 -0.0842,0.0603 -0.54371,-0.097 -0.95705,-0.9140802 L 45.94746,9.9257418 52.40189,3.3256126 53.0566,3.9802024 48.78249,8.437524 h 1.00878 l 3.78828,-3.944231 0.75129,0.7894584 -2.98992,3.1547726 h 0.99126 l 2.52567,-2.6407612 0.75749,0.8444494 -1.75312,1.7963118 h 1.02211 l 2.8834,-2.9423413 c 3.08369,2.6288207 3.36677,1.4128195 4.34443,1.479259 0.10731,0.00701 0.73579,0.6736318 0.78125,0.7798911 0.14003,0.3273399 -0.0136,0.5523812 -0.20823,1.4509009 h 3.37243 c 1.29337,-0.4578006 2.21878,-1.0647415 2.94241,-1.6242109 0.12683,-0.0981 0.50134,-0.059201 0.94711,-0.051599 -0.32933,0.3493293 -0.9596,0.9897692 -0.93083,1.1016191 0.0344,0.1339506 0.52467,0.1774111 0.77486,0.1573186 0.13192,-0.01061 0.27397,-0.1347681 0.40572,-0.2678985 l 1.87529,-2.2960912 0.006,1.5879709 -1.91279,2.2118613 h -9.51433 l 0.75768,-0.9797602 c -1.37352,0.00799 -3.10101,1.9584092 -3.40432,1.6043382 -0.30331,-0.35406 1.96706,-1.8542689 1.13821,-2.4156804 -0.99844,1.1371422 -2.27056,3.1624804 -2.83968,2.7177814 z"
       id="path884-4-6"
       inkscape:connector-curvature="0"
       sodipodi:nodetypes="zssscccccccccccccccssccscsscccccczcz" />
    <path
       inkscape:connector-curvature="0"
       style="display:inline;fill:#000080;fill-opacity:1;stroke-width:0.02558918"
       d="m 68.04608,-25.755298 c 0.0831,-0.142661 0.18794,-0.365444 0.24236,-0.435115 -0.1004,0.03827 -0.15523,0.106422 -0.24236,0.154512 z"
       id="path1489" />
    <path
       inkscape:connector-curvature="0"
       style="display:inline;fill:#000080;fill-opacity:1;stroke-width:0.02558918"
       d="m 68.04608,-18.986719 c 0.29319,-0.04561 0.58887,-0.04574 0.97048,-0.05633 0.56506,0.23 1.76212,1.578538 1.89963,1.522388 0.1375,-0.0562 -0.16324,-3.304233 1.5937,-3.297474 l -0.0346,2.084111 c 0.41764,0.71602 1.17478,2.335963 1.40767,2.237073 0.23288,-0.0989 0.16387,-0.942633 0.17931,-1.409733 -0.30902,-0.4137 -0.94256,-1.009922 -0.78651,-1.243852 0.15604,-0.23394 0.57737,0.32667 0.78651,0.59893 v -1.025261 c -0.21264,-0.25229 -0.6002,-0.592282 -0.50436,-0.719852 0.0958,-0.12757 0.35186,0.0396 0.50436,0.150895 v -1.995744 h -3.9119 c -0.0557,-0.49973 0.13631,-1.274726 -0.31833,-1.021126 -0.73791,0.41162 -0.51647,0.98718 -0.61237,1.71204 -0.52094,-0.04397 -0.88102,-0.191045 -1.17357,-0.377755 v 1.302246 c 0.29056,0.09497 0.58567,0.171776 0.88108,0.207223 -0.0603,0.20305 -0.0551,0.253979 -0.0594,0.455269 -0.30991,0.02063 -0.57604,-0.01873 -0.82165,-0.0925 z"
       id="path1487" />
    <path
       inkscape:connector-curvature="0"
       style="display:inline;fill:#000080;fill-opacity:1;stroke-width:0.02558918"
       d="m 68.04608,-18.986719 v -0.96945 c -0.45671,-0.137176 -0.81367,-0.442413 -1.04645,-1.047998 0.32939,0.206668 0.68395,0.359523 1.04645,0.478007 v -1.302246 c -1.39805,-0.892278 -0.53716,-3.004193 0,-3.926892 v -0.280603 c -0.98329,0.542705 -1.19087,1.613301 -1.23404,1.611271 -0.0961,-2.04132 0.82504,-2.100377 0.82476,-2.332157 -1.4e-4,-0.12154 -1.41339,-1.65726 -1.7048,-2.57297 v 10.51047 c 0,0.16654 0.68758,0.130538 1.2733,0.132808 0.32483,-0.186593 0.5814,-0.259886 0.84078,-0.30024 z"
       id="path860-1-0" />
    <path
       inkscape:connector-curvature="0"
       style="display:inline;fill:#000080;fill-opacity:1;stroke-width:0.02558918"
       d="M 38.9507,23.996188 C 40.622,23.889664 40.56994,22.22153 40.64,21.996827 l 4.8519,-5.161444 -2.94297,-0.344164 -1.76372,1.61799 c -0.21647,0.198578 -0.14185,0.412591 0.20722,0.473872 l 0.60048,0.10542 -1.07435,1.136364 c -0.21975,0.0021 -1.30684,0.148638 -1.30741,-0.743624 -6.9e-4,-1.06783 0.57775,-1.568469 0.38654,-1.792137 l -0.35761,-0.128675 c -0.0284,-7.94e-4 -0.18427,0.0093 -0.28938,0.02532 v 4.30258 c 0.44701,0.03973 0.80135,0.403622 0.8015,0.86093 1.2e-4,0.457504 -0.3543,0.821698 -0.8015,0.861447 z"
       id="path1477" />
    <path
       inkscape:connector-curvature="0"
       style="display:inline;fill:#000080;fill-opacity:1;stroke-width:0.02558918"
       d="m 38.9507,23.996188 v -0.785481 c -0.0258,0.0024 -0.048,0.01497 -0.0744,0.01497 -0.4841,1.3e-4 -0.87656,-0.392343 -0.87644,-0.876432 1.6e-4,-0.483892 0.39255,-0.876036 0.87644,-0.875917 0.0264,8e-6 0.0486,0.0127 0.0744,0.01498 v -4.30258 c -0.29848,0.04538 -0.74432,0.06725 -1.0201,-0.528648 0.17873,-0.405511 0.42735,-0.758238 0.78135,-1.016477 0.0345,-0.02521 0.085,-0.193722 0.0413,-0.287321 -0.065,-0.13929 -0.1888,-0.298736 -0.30747,-0.495578 -0.11868,-0.196829 -0.23223,-0.431043 -0.27647,-0.440283 -0.41565,-0.0868 -1.24695,-0.260448 -1.24695,-0.260448 l -1.35238,-2.008663 -2.02985,-1.273308 3.0546,4.622975 -1.03973,-0.03101 -3.80184,-5.630664 -1.37717,-0.656291 4.57336,7.185607 1.50998,0.0011 0.39636,0.781346 -1.67586,0.09664 0.11937,0.466637 1.78284,-0.04289 0.43925,0.838192 -2.2009,0.100769 c -0.007,0.577569 -0.0501,1.006737 -0.12609,1.498616 0.22764,0.144761 0.3982,0.449051 0.60358,0.405659 0.1298,-0.0274 0.14328,-0.299881 0.19068,-0.686263 0.3345,0.272002 0.68601,0.355446 0.92759,0.594796 0.21062,0.208661 -0.20073,3.586835 1.86914,3.596164 0.0629,2.65e-4 0.10678,-0.01643 0.16537,-0.02016 z"
       id="path900-7-5" />
    <path
       inkscape:connector-curvature="0"
       style="display:inline;fill:#000080;fill-opacity:1;stroke-width:0.02558918"
       d="m 22.335089,-4.025026 2.062077,-0.309089 0.819874,-1.19974 -3.275125,0.320149 3.341952,-2.16196 0.35953,0.56 0.76681,-0.57079 -0.346067,-0.48167 0.620234,-0.42326 0.344535,0.42806 0.628053,-0.4253 v -4.821749 l 4.997228,0.007 -2.85223,2.367731 v 3.938069 c -0.973587,1.015941 -3.03781,3.13561 -3.248145,2.970471 -0.210335,-0.165143 1.129383,-1.872581 1.786443,-2.637971 l -0.0048,-0.79565 -3.058291,3.999649 -2.356068,0.167539 z"
       id="path876-4-1"
       sodipodi:nodetypes="ccccccccccccccczccccc" />
    <path
       style="fill:#000080;fill-opacity:1;stroke-width:0.02558918"
       d="M 43.10684,9.9215558 52.37596,0.2205549 57.19574,5.0139847 56.16072,6.0867934 52.37596,2.3009737 44.85477,9.9215558 Z"
       id="path878-7"
       inkscape:connector-curvature="0"
       sodipodi:nodetypes="ccccccc" />
    <path
       style="fill:#000080;fill-opacity:1;stroke-width:0.02558918"
       d="m 29.359901,-14.662915 5.165029,-0.0191 -0.99366,0.83165 h -5.070376 z"
       id="path862-3"
       inkscape:connector-curvature="0"
       sodipodi:nodetypes="ccccc" />
    <path
       inkscape:connector-curvature="0"
       style="display:inline;fill:#000080;fill-opacity:1;stroke-width:0.02558918"
       d="m 33.29885,-31.788005 v 1.085205 l 1.02216,-0.412894 0.16898,2.069641 h -0.40411 l -0.13281,-1.484664 -0.65422,0.276986 v 2.260844 l 1.02216,-0.412895 0.16898,2.070158 h -0.40411 l -0.13281,-1.485181 -0.65422,0.276986 v 2.193148 l 0.2191,-0.334347 0.40876,0.01499 -0.31471,0.764295 0.64803,1.269689 H 33.8461 l -0.54725,-0.811836 v 1.807125 l 0.2191,-0.33383 0.40876,0.01499 -0.31471,0.763778 0.64803,1.270206 H 33.8461 l -0.54725,-0.811836 v 1.48673 h 0.19171 l 5.3e-4,2.021582 h -0.19223 v 0.426331 h 0.4532 v 0.957564 l 1.85002,-2.360579 v -12.582178 z"
       id="path1472" />
    <path
       inkscape:connector-curvature="0"
       style="display:inline;fill:#000080;fill-opacity:1;stroke-width:0.02558918"
       d="m 30.99563,-30.412378 v 12.609566 h 2.30322 v -0.42633 h -0.19224 v -2.021582 h 0.19224 v -1.486731 l -0.54726,0.811836 h -0.41393 l 0.64803,-1.270206 -0.31471,-0.763778 0.40876,-0.01447 0.21911,0.333313 v -1.807125 l -0.54726,0.811837 h -0.41393 l 0.64803,-1.26969 -0.31471,-0.764295 0.40876,-0.01447 0.21911,0.33383 v -2.193148 l -0.65423,-0.276986 -0.13281,1.485181 H 32.1077 l 0.16899,-2.070158 1.02216,0.412895 v -2.260842 l -0.65423,-0.276986 -0.13281,1.484664 H 32.1077 l 0.16899,-2.069641 1.02216,0.412894 v -1.085205 h -0.45992 v -0.961698 z"
       id="path850-8-9" />
  </g>
  <g
     id="g2232"
     inkscape:groupmode="layer"
     inkscape:label="B.Mask-disabled"
     transform="translate(-13.831737,32.749637)" />
  <g
     id="g2234"
     inkscape:groupmode="layer"
     inkscape:label="F.Mask"
     transform="translate(-13.831737,32.749637)"
     style="display:inline">
    <path
       style="display:inline;fill:#000000;fill-opacity:1;stroke-width:0.02558918"
       d="m 26.987265,-31.628371 c -0.07495,-0.0071 -0.106275,0.01668 -0.135392,0.104903 -0.02912,0.08822 -0.01826,0.200073 0.06873,0.266134 0.08699,0.06606 0.262517,0.03721 0.262517,-0.09819 0,-0.135394 -0.1209,-0.265747 -0.195854,-0.272851 z"
       transform="translate(4.3750003e-8,1.1666667e-6)"
       id="path2316" />
    <path
       style="display:inline;fill:#000000;fill-opacity:1;stroke-width:0.02558918"
       d="m 26.390919,-31.168968 c -0.03588,0.0019 0.0086,-0.0114 -0.149345,0.02687 -0.157995,0.03827 -0.586141,0.08856 -0.661458,0.03152 -0.07532,-0.05704 -0.129204,-0.04264 -0.146245,0.08165 -0.01704,0.124286 0.05253,0.212474 0.09612,0.213941 0.04359,0.0015 0.04726,0.02807 0.09715,0.100252 0.04989,0.07219 0.05305,0.09732 0.212907,0.117306 0.159857,0.01998 0.377984,-0.01403 0.465605,-0.06821 0.08762,-0.05418 0.09875,-0.04424 0.118339,-0.02532 0.01959,0.01891 0.0597,0.142422 0.132292,0.418579 0.07259,0.276158 0.09799,0.386903 0.166398,0.42168 0.0684,0.03478 0.229967,-0.0074 0.435115,-0.09509 0.205149,-0.08768 0.273171,-0.112151 0.326079,-0.129191 0.05291,-0.01704 0.07671,-0.0155 0.128157,-0.05633 0.05144,-0.04083 -0.05217,-0.35266 -0.157613,-0.380855 -0.10544,-0.0282 -0.194705,0.01804 -0.235645,0.07648 -0.04094,0.05845 -0.309948,0.140024 -0.346232,0.12609 -0.03628,-0.01393 -0.03585,-0.01339 -0.110587,-0.253731 -0.07473,-0.240343 -0.234025,-0.567559 -0.284737,-0.590662 -0.05071,-0.0231 -0.05042,-0.01686 -0.0863,-0.01499 z"
       transform="translate(4.3750003e-8,1.1666667e-6)"
       id="path2314" />
    <path
       style="display:inline;fill:#000000;fill-opacity:1;stroke-width:0.02558918"
       d="m 24.445301,-30.73902 c -0.197938,0 -0.245776,0.01528 -0.281636,0.05116 -0.03586,0.03588 -0.05116,0.07215 -0.05116,0.09819 0,0.02603 0.04841,0.196294 0.153996,0.521415 0.105586,0.325121 0.136993,0.4488 0.283187,0.666109 0.146193,0.21731 0.334254,0.344234 0.414445,0.353984 0.08019,0.0098 -0.153926,-0.01877 5.17e-4,0 0.154442,0.01877 0.480495,-0.0083 0.532267,-0.05788 0.05177,-0.04962 0.06205,-0.05138 0.10852,-0.08113 0.04647,-0.02975 0.06814,-0.06535 0.05943,-0.0987 -0.0087,-0.03335 -0.01403,-0.05239 0.02377,-0.11007 0.0378,-0.05768 0.06886,-0.255166 0.04237,-0.602031 -0.02648,-0.346864 -0.03814,-0.413611 -0.305925,-0.538985 -0.267784,-0.125374 -0.366566,0.06644 -0.360701,0.223242 0.0059,0.156806 -0.03451,0.157544 0.0078,0.201538 0.04226,0.04399 0.05832,0.0047 0.163814,0.01292 0.105491,0.0082 0.265122,0.196553 0.275952,0.325562 0.01083,0.129009 0.03984,0.141499 0.01499,0.182418 -0.02486,0.04092 -0.02394,0.01015 -0.09612,0.04031 -0.07218,0.03016 -0.3442,0.05331 -0.450618,-0.01757 -0.106419,-0.07088 -0.17358,-0.221323 -0.218075,-0.432015 -0.04449,-0.210691 -0.01996,-0.351678 0.0072,-0.537951 0.0272,-0.186274 0.0038,-0.102636 -0.04031,-0.146761 -0.04411,-0.04412 -0.08577,-0.05374 -0.283704,-0.05374 z"
       transform="translate(4.3750003e-8,1.1666667e-6)"
       id="path2312" />
    <path
       style="display:inline;fill:#000000;fill-opacity:1;stroke-width:0.02558918"
       d="m 23.716664,-30.007282 c -0.03709,-0.0053 -0.0999,0.02227 -0.177251,0.114205 -0.07735,0.09194 -0.08166,0.136949 -0.0155,0.203089 0.06616,0.06614 0.233746,0.07925 0.31161,0.0088 0.07786,-0.07046 0.0097,-0.269406 -0.05891,-0.304891 -0.06862,-0.03549 -0.02286,-0.01586 -0.05994,-0.02119 z"
       transform="translate(4.3750003e-8,1.1666667e-6)"
       id="path2310" />
    <path
       style="display:inline;fill:#000000;fill-opacity:1;stroke-width:0.02558918"
       d="m 23.191631,-29.579401 c -0.0422,-0.0048 -0.05334,-0.01702 -0.124023,0.03927 -0.07068,0.0563 -0.225582,0.132106 -0.401009,0.161231 -0.175427,0.02913 -0.351518,0.0761 -0.378789,0.09922 -0.02727,0.02312 0.187594,0.408923 0.238745,0.4408 0.05115,0.03188 0.510821,-0.191529 0.574126,-0.261483 0.0633,-0.06995 0.07899,0.03963 0.182417,0.357601 0.103427,0.317972 0.139847,0.420202 0.174667,0.473356 0.03482,0.05315 0.06965,0.05778 0.40876,-0.100253 0.33911,-0.158036 0.601916,-0.335666 0.594796,-0.360701 -0.0071,-0.02503 -0.03516,-0.02933 -0.06925,-0.03411 -0.03409,-0.0048 -0.08501,-0.0292 -0.113172,-0.05426 -0.02816,-0.02507 -0.06892,-0.05688 -0.120923,-0.08992 -0.052,-0.03304 -0.08891,-0.03682 -0.183968,-5.17e-4 -0.09505,0.0363 -0.121015,0.06255 -0.139009,0.114205 -0.01799,0.05165 -0.03693,0.07242 -0.10697,0.08268 -0.07004,0.01026 -0.09769,-0.02177 -0.143144,-0.12454 -0.04545,-0.102775 -0.09783,-0.246634 -0.143661,-0.381372 -0.04584,-0.134738 -0.09816,-0.260727 -0.129191,-0.294039 -0.03103,-0.03331 -0.07821,-0.06242 -0.120406,-0.06718 z"
       transform="translate(4.3750003e-8,1.1666667e-6)"
       id="path2308" />
    <path
       style="display:inline;fill:#000000;fill-opacity:1;stroke-width:0.02558918"
       d="m 21.691464,-29.094159 c -0.05967,-0.004 -0.123249,0.02004 -0.129707,0.10387 -0.0065,0.08383 0.05126,0.14122 0.173116,0.160713 0.12186,0.01949 0.138905,0.04415 0.128674,0.162781 -0.01023,0.118627 -0.06074,0.179317 -0.101286,0.179317 -0.04054,0 -0.06777,0.01708 -0.09508,0.03772 -0.02732,0.02064 -0.0608,0.03753 -0.114721,0.03824 -0.05392,7.15e-4 -0.126608,0.06075 -0.126608,0.09767 0,0.03692 0.01662,0.05831 0.101803,0.17725 0.08518,0.118945 0.247641,0.504709 0.269751,0.653707 0.02211,0.148999 0.0033,0.12144 -0.04031,0.12144 -0.04358,0 -0.141781,-0.0519 -0.243396,-0.115239 -0.101615,-0.06334 -0.19281,-0.114722 -0.203088,-0.114722 -0.01028,0 -0.01257,0.0046 -0.14056,-0.0894 -0.127987,-0.09395 -0.467559,-0.272574 -0.648023,-0.286287 -0.180465,-0.01371 -0.210577,-0.05444 -0.322978,0.183451 -0.112401,0.237896 -0.06715,0.358394 0.199988,0.338998 0.267135,-0.0194 0.627783,0.07173 0.80667,0.150378 0.178887,0.07865 0.287505,0.118359 0.386023,0.151929 0.09852,0.03357 0.19449,0.0617 0.212907,0.06201 0.01842,3.14e-4 0.11964,-0.08114 0.152445,-0.112137 0.0328,-0.031 0.09048,-0.04496 0.119373,-0.112655 0.0289,-0.0677 -0.0013,-0.173737 -0.0021,-0.277503 -7.75e-4,-0.103765 -0.02061,-0.335641 -0.05529,-0.44235 -0.03469,-0.106708 -0.04749,-0.173928 -0.04031,-0.185518 0.0072,-0.01159 0.03891,-0.02067 0.07338,-0.02067 0.03447,0 0.07645,-0.02019 0.116272,-0.0708 0.03982,-0.05061 0.05591,-0.06232 0.04496,-0.236678 -0.01096,-0.174357 -0.131748,-0.438411 -0.19637,-0.470256 -0.06462,-0.03185 -0.15379,-0.05269 -0.216524,-0.06718 -0.06273,-0.01449 -0.04936,-0.01407 -0.109038,-0.01809 z"
       transform="translate(4.3750003e-8,1.1666667e-6)"
       id="path2306" />
    <path
       style="display:inline;fill:#000000;fill-opacity:1;stroke-width:0.02558918"
       d="m 19.597017,-27.360415 c -0.06067,0.0023 -0.15067,0.03615 -0.256831,0.08992 -0.106162,0.05376 -0.186074,0.09243 -0.30024,0.117306 -0.114167,0.02488 -0.250114,0.168798 -0.250114,0.290421 0,0.121624 -0.05591,0.04001 0.100769,0.238229 0.15668,0.198215 0.436665,0.258549 0.436665,0.06305 0,-0.195505 0.07712,-0.259039 0.127125,-0.274919 0.05,-0.01588 0.06575,-0.07208 0.07131,-0.09353 0.0056,-0.02145 -0.0305,-0.06801 0.02015,-0.077 0.05065,-0.009 0.09472,0.136501 0.130741,0.188102 0.03603,0.0516 0.210368,0.270462 0.306958,0.37207 0.09659,0.101609 0.181084,0.184942 0.188103,0.185002 0.007,6e-5 0.06268,-0.03949 0.123506,-0.08785 0.06083,-0.04836 0.152525,-0.107819 0.219108,-0.140043 0.06658,-0.03222 0.125832,-0.08884 0.152962,-0.145728 0.02713,-0.05689 0.03767,-0.09875 0.02997,-0.106453 -0.0077,-0.0077 -0.04802,-0.0064 -0.145211,0.01602 -0.09719,0.02244 -0.110424,0.04277 -0.237195,-0.03152 -0.126771,-0.07429 -0.554813,-0.457287 -0.591178,-0.527616 -0.03636,-0.07033 -0.06593,-0.07778 -0.126608,-0.07545 z"
       transform="translate(4.3750003e-8,1.1666667e-6)"
       id="path2304" />
    <path
       style="display:inline;fill:#000000;fill-opacity:1;stroke-width:0.02558918"
       d="m 17.841052,-26.529458 c -0.06168,0.0042 -0.0528,0.0084 -0.06821,0.02946 -0.01542,0.02109 -0.03237,0.06766 -0.03256,0.09663 -1.83e-4,0.02897 -0.0058,0.07271 -0.0155,0.109037 -0.0098,0.03632 0.01788,0.08949 0.07752,0.150895 0.05964,0.06141 0.0923,0.10756 0.0925,0.12299 2.03e-4,0.01543 0.0055,0.04753 0.01395,0.07906 0.0085,0.03154 -0.04299,0.113171 -0.07235,0.145211 -0.02935,0.03204 -0.0459,0.09528 -0.08578,0.09405 -0.03988,-0.0012 -0.04694,-0.05814 -0.07028,-0.08733 -0.02334,-0.0292 -0.01314,-0.06051 -0.06976,-0.08785 -0.05663,-0.02734 -0.128897,0 -0.2651,0 -0.136203,0 -0.533594,0.08523 -0.609782,0.149861 -0.07619,0.06464 0.0042,0.05089 0.139527,0.08527 0.135375,0.03438 0.231862,0.06959 0.289905,0.09767 0.05804,0.02808 0.119229,0.05116 0.135909,0.05116 0.01668,0 0.03049,0.01109 0.03049,0.0248 0,0.01371 -6.22e-4,0.02468 0.07958,0.06615 0.0802,0.04147 0.297496,0.233856 0.368453,0.355534 0.07096,0.121678 0.165882,0.488778 0.165882,0.577742 0,0.08896 -0.01338,0.07758 0.03101,0.121957 0.04439,0.04438 0.168662,-0.01067 0.222726,-0.117305 0.05406,-0.106639 0.04442,-0.10468 0.125057,-0.13901 0.08064,-0.03433 0.158647,-0.09697 0.158647,-0.198954 0,-0.101982 -0.08357,-0.168162 -0.173116,-0.203605 -0.08955,-0.03544 -0.159393,-0.128292 -0.188103,-0.164332 -0.02871,-0.03604 -0.143198,-0.04894 -0.104386,-0.131258 0.03881,-0.08232 0.266278,-0.0046 0.378271,-0.0067 0.111995,-0.0021 0.391798,-0.0185 0.411862,-0.03514 0.02006,-0.01664 0.06561,-0.02313 0.144177,-0.01137 0.07857,0.01176 0.114272,0.01397 0.179317,-0.03721 0.06505,-0.05118 0.07067,-0.102194 0.03669,-0.112654 -0.03398,-0.01046 -0.120053,-0.04164 -0.153479,-0.05374 -0.03342,-0.0121 -0.09325,-0.0034 -0.121956,-0.04444 -0.0287,-0.04101 0,-0.07941 0,-0.170533 0,-0.09113 -0.03005,-0.23151 -0.118339,-0.23151 -0.08829,0 -0.134334,0.07641 -0.151929,0.193787 -0.0176,0.117376 -0.03298,0.113389 -0.07183,0.103869 -0.03885,-0.0095 -0.09666,-0.01878 -0.190169,-0.03101 -0.09351,-0.01223 -0.129664,-0.03099 -0.116789,-0.05943 0.01288,-0.02844 0.02646,-0.204667 0.02945,-0.26665 0.003,-0.06198 0.03344,-0.169052 0.01085,-0.225309 -0.02259,-0.05626 -0.05206,-0.04922 -0.100253,-0.09509 -0.04819,-0.04586 -0.280413,-0.148903 -0.342098,-0.144694 z"
       transform="translate(4.3750003e-8,1.1666667e-6)"
       id="path2302" />
    <path
       style="display:inline;fill:#000000;fill-opacity:1;stroke-width:0.02558918"
       d="m 16.820443,-24.772976 c -0.03484,0.0082 -0.07769,0.0822 -0.07752,0.179834 1.72e-4,0.09764 0.09348,0.638973 0.112655,0.686263 0.01918,0.04729 0.06875,0.03753 -0.256832,0.04444 -0.325579,0.0069 -0.564477,0.207945 -0.667143,0.518831 -0.102666,0.310886 -0.07183,0.242275 -0.07183,0.549838 0,0.307562 -0.03716,0.253677 0.0801,0.501778 0.117254,0.248101 0.441748,0.509012 0.674378,0.509012 0.232629,0 0.174423,0.03608 0.101802,0.245464 -0.07262,0.209387 -0.06101,0.337663 -0.02687,0.378788 0.03414,0.04113 0.05243,0.04082 0.148828,0.04082 0.0964,0 0.400026,-0.07881 0.427881,-0.104903 0.02785,-0.02609 0.02222,-0.02274 0.06873,-0.02274 0.04651,0 0.201538,-0.141822 0.201538,-0.190169 0,-0.04835 -0.02177,-0.08329 -0.04858,-0.114205 -0.0268,-0.03091 -0.06234,-0.132183 -0.07855,-0.225309 -0.01621,-0.09313 -0.04499,-0.199737 -0.06408,-0.236678 -0.01909,-0.03694 -0.04698,-0.133095 -0.05168,-0.15813 -0.0047,-0.02503 0.03644,-0.04656 -0.01705,-0.09095 -0.05349,-0.04439 -0.12253,-1.11e-4 -0.324528,0 -0.201997,1.11e-4 -0.489763,-0.05922 -0.594279,-0.231511 -0.104517,-0.172291 -0.08808,-0.173171 -0.08733,-0.376721 7.43e-4,-0.20355 -0.0089,-0.212645 0.05736,-0.338481 0.06629,-0.125835 0.20593,-0.187585 0.404627,-0.187585 0.198697,0 0.372155,-0.01157 0.42478,-0.01602 0.05262,-0.0045 0.132642,0.03829 0.191203,-0.01602 0.05856,-0.05431 0.03305,-0.205726 0.04548,-0.283703 0.01243,-0.07798 0.07873,-0.391125 0.09147,-0.432015 0.01273,-0.04089 0.05949,-0.09731 0.04599,-0.148828 -0.0135,-0.05152 -0.03853,-0.03664 -0.118856,-0.112655 -0.08032,-0.07601 -0.311826,-0.238164 -0.387057,-0.253214 -0.07523,-0.01505 -0.09791,-0.03462 -0.121439,-0.06821 -0.02353,-0.03359 -0.04836,-0.05524 -0.0832,-0.04703 z"
       transform="translate(4.3750003e-8,1.1666667e-6)"
       id="path2300" />
    <path
       style="display:inline;fill:#000000;fill-opacity:1;stroke-width:0.02558918"
       d="m 17.259176,-20.723611 c -0.05044,0.007 -0.04173,0.008 -0.06976,0.02635 -0.02804,0.01837 -0.06253,0.05627 -0.06253,0.07906 0,0.02279 0.02165,0.03824 -0.07545,0.03824 -0.0971,0 -0.06867,0.09358 0.04961,0.153479 0.118277,0.0599 0.157989,0.08608 0.174149,0.09663 0.01616,0.01056 0.05516,0.01002 0.0584,0.03876 0.0032,0.02874 -0.03681,0.03887 -0.07131,0.07493 -0.0345,0.03606 -0.0721,0.05983 -0.06511,0.305924 0.007,0.246096 0.149606,0.490053 0.363285,0.782898 0.21368,0.292846 0.195665,0.261483 0.202055,0.261483 0.0064,0 0.0489,-0.0281 0.09405,-0.06253 0.04515,-0.03443 0.09374,-0.06549 0.149862,-0.07958 0.05612,-0.01409 0.14366,-0.121966 0.14366,-0.169499 0,-0.04753 -4e-6,-0.04448 -0.188619,-0.183968 -0.188614,-0.139488 -0.384973,-0.486336 -0.389123,-0.60048 -0.0041,-0.114144 -0.04193,-0.119919 -0.0052,-0.136426 0.03676,-0.01651 0.05508,0.05295 0.07597,0.07286 0.02088,0.01991 0.08952,0.09233 0.191202,0.244946 0.101682,0.152622 0.166504,0.23408 0.300241,0.188102 0.133736,-0.04598 0.178703,-0.09788 0.159163,-0.202054 -0.01954,-0.104171 -0.213144,-0.325045 -0.268718,-0.325045 -0.05557,0 -0.104903,-0.046 -0.104903,-0.08217 0,-0.03617 0.173694,-0.014 0.314193,0.03204 0.140499,0.04603 0.17986,0.07142 0.306958,0.191719 0.127098,0.120302 0.13342,0.147996 0.217558,0.104387 0.08414,-0.04361 0.210323,-0.1457 0.210323,-0.20774 0,-0.06204 -0.09072,-0.190683 -0.146245,-0.211873 -0.05552,-0.02119 -0.117332,-0.04145 -0.173632,-0.05839 -0.0563,-0.01694 -0.08736,-0.01887 -0.133325,-0.05529 -0.04597,-0.03642 -0.386466,-0.114942 -0.575159,-0.102836 -0.188693,0.01211 -0.198593,0.0078 -0.355534,-0.09043 -0.156941,-0.0982 -0.275639,-0.130472 -0.326078,-0.123507 z"
       transform="translate(4.3750003e-8,1.1666667e-6)"
       id="path2298" />
    <path
       style="display:inline;fill:#000000;fill-opacity:1;stroke-width:0.02558918"
       d="m 19.690552,-19.301992 c -0.04843,-0.01018 -0.07267,0.02699 -0.122473,0.04547 -0.0498,0.01849 -0.119057,0.03212 -0.143144,0.125057 -0.02409,0.09294 -0.453641,0.487555 -0.558105,0.518315 -0.104465,0.03076 -0.139833,0.05239 -0.198438,0.09663 -0.05861,0.04425 -0.0832,0.07366 -0.0832,0.174149 0,0.100491 0.05664,0.171504 0.223759,0.347783 0.167119,0.176279 0.268823,0.266066 0.323494,0.302824 0.05467,0.03676 0.129599,0.08709 0.166398,0.111621 0.0368,0.02454 0.07054,0.04487 0.122474,0.04496 0.05194,8.9e-5 0.208214,-0.136453 0.269234,-0.274402 0.06102,-0.137949 -0.01478,-0.216064 -0.140043,-0.279052 -0.125264,-0.06299 -0.220736,-0.130468 -0.253732,-0.154513 -0.03299,-0.02405 -0.115032,-0.03066 -0.119889,-0.08733 -0.0049,-0.05667 0.06864,-0.07064 0.134359,-0.138493 0.06571,-0.06785 0.459484,-0.294555 0.52865,-0.294555 0.06916,0 0.05339,-0.01 0.06098,-0.02222 0.0076,-0.01225 0.0308,-0.0257 0.09612,-0.03876 0.06532,-0.01305 0.174667,-0.07655 0.174667,-0.126607 0,-0.05006 -0.09622,-0.119358 -0.163815,-0.119373 -0.06759,-1.4e-5 -0.15339,-0.07246 -0.197921,-0.115755 -0.04453,-0.0433 -0.07094,-0.105573 -0.119372,-0.115755 z"
       transform="translate(4.3750003e-8,1.1666667e-6)"
       id="path2296" />
    <path
       style="display:inline;fill:#000000;fill-opacity:1;stroke-width:0.02558918"
       d="m 21.009335,-18.297402 c -0.11983,-0.0059 -0.380993,2.07e-4 -0.466639,0.05633 -0.08565,0.05612 -0.166398,0.218626 -0.166398,0.419613 0,0.200986 0.05276,0.255815 0.192753,0.278536 0.139997,0.02272 0.165603,-0.05618 0.166915,-0.195337 0.0013,-0.139153 -0.01093,-0.11091 0.124024,-0.17415 0.134956,-0.06324 0.157504,-0.08028 0.276469,-0.0078 0.118966,0.07253 0.166508,0.222406 0.156063,0.4408 -0.01045,0.218393 -0.0087,0.223532 -0.06253,0.295589 -0.0538,0.07206 -0.163786,0.103728 -0.429432,0.106453 -0.265646,0.0027 -0.232393,-0.01797 -0.313676,0.05839 -0.08128,0.07637 -0.03305,0.296063 0.153479,0.461987 0.186526,0.165924 0.359335,0.06262 0.516765,-0.0677 0.15743,-0.130318 0.08573,-0.07786 0.217558,-0.165365 0.131827,-0.08751 0.294118,-0.423726 0.292488,-0.732255 -0.0016,-0.308528 0.0011,-0.274702 -0.05529,-0.400492 -0.05644,-0.12579 -0.333596,-0.328429 -0.444418,-0.355017 -0.110821,-0.02659 -0.0383,-0.01374 -0.15813,-0.01964 z"
       transform="translate(4.3750003e-8,1.1666667e-6)"
       id="path2294" />
    <path
       style="display:inline;fill:#000000;fill-opacity:1;stroke-width:0.02558918"
       d="m 22.962705,-16.87475 c -0.03272,2.2e-4 -0.04795,0.03788 -0.06615,0.05219 -0.0182,0.01431 -0.114941,0.06783 -0.199471,0.0956 -0.08453,0.02777 -0.198165,0.105381 -0.312126,0.212907 -0.11396,0.107525 -0.197647,0.181324 -0.325045,0.265616 -0.127398,0.08429 -0.224792,0.202109 -0.224792,0.291972 0,0.08986 0.0098,0.09266 0.15968,0.235128 0.14987,0.142472 0.51641,0.449759 0.620634,0.50953 0.104224,0.05977 0.2327,0.0011 0.342615,-0.164848 0.109914,-0.165956 0.0833,-0.238129 0.01705,-0.304374 -0.06625,-0.06624 -0.08796,-0.06282 -0.185518,-0.06305 -0.09756,-2.27e-4 -0.139307,-0.01044 -0.285771,-0.103352 -0.146464,-0.09291 -0.151977,-0.115428 -0.115239,-0.156063 0.03674,-0.04063 0.09151,-0.07015 0.144694,-0.09147 0.05319,-0.02132 0.107472,-0.05963 0.120923,-0.08475 0.01345,-0.02512 0.03247,-0.04961 0.269234,-0.17725 0.236769,-0.12764 0.245876,-0.359797 0.128158,-0.449585 -0.117719,-0.08979 -0.05617,-0.06843 -0.08888,-0.06821 z"
       transform="translate(4.3750003e-8,1.1666667e-6)"
       id="path2292" />
    <path
       style="display:inline;fill:#000000;fill-opacity:1;stroke-width:0.02558918"
       d="m 24.183302,-16.047927 c -0.07005,-0.0047 -0.121957,0.0049 -0.121957,0.0217 0,0.01685 -0.01418,0.03763 -0.05478,0.07545 -0.0406,0.03782 -0.04751,0.09741 -0.02739,0.23306 0.02013,0.135647 0.03026,0.185436 0.05788,0.218592 0.02762,0.03316 0.112657,0.04618 0.148829,0.0026 0.03617,-0.0436 0.310995,-0.09637 0.338997,-0.07906 0.028,0.0173 0.0527,0.07092 0.102319,0.18035 0.04961,0.109429 0.0739,0.101379 0.0739,0.342615 0,0.241237 -0.184813,0.460264 -0.414962,0.460437 -0.230149,1.74e-4 -0.170383,0.0015 -0.260966,-0.07803 -0.09058,-0.07954 -0.139607,-0.2422 -0.135392,-0.349333 0.0042,-0.107134 -0.0049,-0.115964 -0.01602,-0.127124 -0.01115,-0.01116 -0.07993,0.01079 -0.152962,0.04858 -0.07303,0.03779 -0.158048,0.07528 -0.192753,0.08475 -0.03471,0.0095 -0.06957,0.03895 -0.09818,0.107487 -0.02862,0.06854 -0.059,0.03539 0.0046,0.202055 0.06365,0.166662 0.635285,0.429449 0.854212,0.452169 0.218926,0.02272 0.206126,-0.01571 0.265617,0.02739 0.05949,0.04309 0.05125,0.115091 0.0708,0.158647 0.01954,0.04356 0.06929,0.157649 0.10542,0.172599 0.03614,0.01495 0.153569,6.27e-4 0.194304,-0.05271 0.04073,-0.05334 0.0056,-0.233937 -0.02894,-0.335896 -0.03449,-0.10196 -0.06851,-0.132082 -0.06098,-0.180351 0.0075,-0.04827 0.0183,-0.02484 0.06098,-0.08268 0.04267,-0.05784 0.111087,-0.123554 0.296106,-0.124023 0.185019,-4.69e-4 0.22859,-0.01698 0.26355,-0.127124 0.03496,-0.110143 -0.181587,-0.205672 -0.282671,-0.205672 -0.101083,0 -0.07681,0.03669 -0.113688,0 -0.03688,-0.03669 -4.12e-4,-0.08868 -0.001,-0.198438 -6.2e-4,-0.109754 -0.03992,-0.350774 -0.129708,-0.461987 -0.08979,-0.111213 -0.398939,-0.300565 -0.514697,-0.340548 -0.115758,-0.03998 -0.160426,-0.04074 -0.230477,-0.04547 z"
       transform="translate(4.3750003e-8,1.1666667e-6)"
       id="path2290" />
    <path
       style="display:inline;fill:#000000;fill-opacity:1;stroke-width:0.02558918"
       d="m 18.316992,-2.9153951 c -0.0461,-0.00955 -0.167233,0.030549 -0.168465,0.077515 -0.0012,0.046966 -0.022,0.070276 -0.153996,0.166399 -0.132,0.096123 -0.300435,0.181314 -0.541052,0.246497 -0.240617,0.065182 -0.232247,0.259439 -0.05736,0.420645 0.174887,0.161205 0.214161,0.167992 0.306958,0.144695 0.0928,-0.023296 0.414724,-0.371078 0.504879,-0.495062 0.09015,-0.123984 0.08768,-0.21822 0.153479,-0.211873 0.0658,0.00635 -2.02e-4,1.83e-4 0.05684,0.122473 0.05704,0.122291 0.596344,0.665991 0.737423,0.743625 0.141079,0.077634 -0.04182,-0.022466 0,5.16e-4 0.04182,0.022979 0.117464,0.058274 0.234094,0.048059 0.11663,-0.010216 0.204991,-0.069038 0.235128,-0.189135 0.03014,-0.120097 -0.08204,-0.20428 -0.409278,-0.388091 -0.327237,-0.183811 -0.402364,-0.246983 -0.456302,-0.314709 -0.05394,-0.067725 -0.116315,-0.139686 -0.15503,-0.180866 -0.03871,-0.04118 -0.07028,-0.074144 -0.07028,-0.110072 0,-0.035928 -0.05461,-0.066762 -0.09147,-0.036174 -0.03686,0.030589 -0.05112,0.013282 -0.07028,-0.012919 -0.01916,-0.026202 -0.0092,-0.021971 -0.05529,-0.031523 z"
       transform="translate(4.3750003e-8,1.1666667e-6)"
       id="path2288" />
    <path
       style="display:inline;fill:#000000;fill-opacity:1;stroke-width:0.02558918"
       d="m 16.126428,-1.4834411 c -0.04641,9.84e-4 -0.204978,0.113263 -0.394291,0.27337 -0.189313,0.160108 -0.270617,0.219451 -0.319877,0.249595 -0.04926,0.030144 -0.111814,0.077507 -0.176734,0.144695 -0.06492,0.067189 -0.0884,0.085326 -0.05374,0.168982 0.03466,0.083656 0.161429,0.179834 0.209806,0.179834 0.04838,0 0.08532,0.024265 0.143144,0.063561 0.05783,0.039296 0.09814,0.06408 0.202572,0.06408 0.104431,0 0.183943,-0.124177 0.238228,-0.33228 0.05428,-0.208103 0.06309,-0.24017 0.08165,-0.309541 0.01856,-0.069371 0.141131,-0.244549 0.152445,-0.227894 0.01131,0.016656 0.05481,0.104201 0.111105,0.216009 0.0563,0.111807 0.156908,0.266271 0.223759,0.34313 0.06685,0.076859 0.121439,0.135845 0.121439,0.157096 0,0.021249 0.132059,0.076999 0.227893,0.076999 0.09583,0 0.232585,-0.101208 0.360702,-0.204639 0.128117,-0.103431 0.05527,-0.048977 0.255798,-0.104386 0.200528,-0.055409 0.355255,-0.120436 0.211357,-0.316259 -0.143899,-0.195824 -0.213232,-0.247542 -0.260449,-0.232545 -0.04722,0.014996 -0.12799,0.085619 -0.212391,0.167949 -0.0844,0.082331 -0.253896,0.219237 -0.291971,0.245462 -0.03808,0.026226 -0.08907,0.099052 -0.137977,0.095086 -0.0489,-0.003966 -0.06645,-0.063722 -0.09147,-0.087849 -0.02502,-0.024128 -0.141441,-0.162624 -0.259932,-0.33745 -0.118492,-0.174826 -0.210307,-0.262493 -0.265617,-0.279051 -0.05531,-0.016557 -0.02904,-0.014938 -0.07545,-0.013954 z"
       transform="translate(4.3750003e-8,1.1666667e-6)"
       id="path2286" />
    <path
       style="display:inline;fill:#000000;fill-opacity:1;stroke-width:0.02558918"
       d="m 15.054659,0.3526249 c -0.06993,0.009805 -0.151493,0.065325 -0.298173,0.183451 -0.146681,0.118126 -0.214457,0.24008 -0.214457,0.294037 0,0.053956 -0.01745,0.099896 -0.05064,0.211357 -0.0332,0.111461 -0.05107,0.170601 -0.165881,0.290423 -0.114808,0.119821 -0.235511,0.148807 -0.341582,0.040306 -0.10607,-0.1085 -0.173128,-0.086577 -0.146244,0.022738 0.02688,0.109316 0.108524,0.195258 0.175183,0.224275 0.06666,0.029016 0.08146,0.035702 0.145728,0.036692 0.06427,9.89e-4 0.272286,-0.106736 0.404109,-0.234611 0.131823,-0.127876 0.135518,-0.109175 0.173116,-0.073383 0.0376,0.035793 0.148817,0.114054 0.186552,0.139528 0.03773,0.025477 0.0636,0.069964 0.13746,0.092501 0.07386,0.022538 0.168203,1.06e-4 0.297656,0 0.129453,-1.05e-4 0.290717,0.00265 0.427364,-0.060978 0.136646,-0.06363 0.368983,-0.375089 0.386023,-0.481624 0.01704,-0.106534 0.01914,-0.104587 0.06718,-0.149346 0.04803,-0.04476 0.05769,-0.173043 -0.01034,-0.245978 -0.06802,-0.072935 -0.272938,-0.188103 -0.332796,-0.188103 -0.05986,0 -0.124455,0.065257 -0.125057,0.176734 -6.02e-4,0.111476 -0.115798,0.324884 -0.22686,0.447516 -0.111061,0.122632 -0.130741,0.148426 -0.130741,0.1695 0,0.021071 -0.215117,0.022495 -0.258382,0.00413 -0.04326,-0.018362 -0.13754,-0.104373 -0.17415,-0.137459 -0.03661,-0.033084 -0.139817,-0.071676 -0.133325,-0.120407 0.0065,-0.048731 0.07458,-0.037775 0.102836,-0.052192 0.02825,-0.014417 0.10998,-0.05271 0.157613,-0.05271 0.04763,0 0.254248,-0.216448 0.254248,-0.262517 0,-0.046069 -0.03834,-0.086863 -0.105936,-0.160197 -0.0676,-0.073335 -0.130575,-0.123492 -0.200505,-0.113686 z"
       transform="translate(4.3750003e-8,1.1666667e-6)"
       id="path2284" />
    <path
       style="display:inline;fill:#000000;fill-opacity:1;stroke-width:0.02558918"
       d="m 15.737305,2.3731709 c -0.05336,0 -0.08201,0.023008 -0.107487,0.05116 -0.02547,0.028151 -0.04364,0.05116 -0.107487,0.05116 -0.06384,0 -0.21239,0.086148 -0.21239,0.128158 0,0.042011 0.06904,0.155102 0.153479,0.283703 0.08444,0.1286 0.153479,0.237651 0.153479,0.252182 0,0.014531 -0.646629,0.05271 -0.85938,0.05271 -0.212751,0 -0.176425,0.015693 -0.205155,0.044442 -0.02873,0.02875 -0.03574,0.040127 -0.09767,0.070795 -0.06193,0.030668 -0.04434,0.2282 0.06304,0.447519 0.10738,0.219318 0.164861,0.360172 0.205672,0.471805 0.04081,0.111633 0.09115,0.220427 0.130225,0.262001 0.03907,0.041574 0.08511,0.059428 0.226342,0.059428 0.141229,0 0.161895,0.00967 0.216008,-0.050128 0.05411,-0.059796 0.06476,-0.165145 -0.119373,-0.375169 -0.184131,-0.210023 -0.455269,-0.621271 -0.455269,-0.656291 0,-0.03502 0.07509,-0.00924 0.624251,-0.00775 0.549164,0.00148 0.720862,-0.03769 0.740007,-0.309026 0.01915,-0.271335 -0.0052,-0.259561 -0.07286,-0.387056 -0.06766,-0.127495 -0.08888,-0.168095 -0.08888,-0.21549 0,-0.047395 -0.133194,-0.174151 -0.186552,-0.174151 z"
       transform="translate(4.3750003e-8,1.1666667e-6)"
       id="path2282" />
    <path
       style="display:inline;fill:#000000;fill-opacity:1;stroke-width:0.02558918"
       d="m 16.687118,4.6810412 c -0.08632,0.00516 -0.34495,0.052448 -0.369487,0.076999 -0.02454,0.024551 -0.03884,0.063783 -0.05064,0.14986 -0.0118,0.086077 0.04611,0.1911694 0.101286,0.2589001 0.05517,0.067733 0.132941,0.095181 0.116789,0.1436608 -0.01615,0.04848 -0.02779,0.00678 -0.117823,0.029453 -0.09003,0.02267 -0.286512,0.1020286 -0.411861,0.24443 -0.125348,0.1424014 -0.185001,0.2558098 -0.185001,0.4206479 0,0.164838 0.02699,0.2544233 0.218074,0.4909264 0.191085,0.2365031 0.266577,0.3122559 0.501778,0.3255592 0.235201,0.013303 0.393504,-0.052094 0.597897,-0.1906852 0.204393,-0.1385914 0.25092,-0.1659308 0.269234,-0.1467617 0.01831,0.019169 0.127641,0.5212318 0.127641,0.5829114 0,0.06168 -0.0069,0.059505 0.04444,0.0894 0.05132,0.029895 0.142898,0.01256 0.279053,-0.097152 0.136155,-0.1097121 0.155307,-0.1244414 0.19482,-0.1023196 0.03951,0.022122 0.12144,-0.010631 0.12144,-0.042373 0,-0.031742 -0.0024,-0.034724 -0.06098,-0.0801 C 18.005155,6.7890216 17.714063,6.3955623 17.58112,6.1734579 17.448177,5.9513534 17.442279,5.9426618 17.384233,5.9341951 c -0.05805,-0.00847 -0.115369,0.045987 -0.14211,0.1369431 -0.02674,0.090956 -0.05636,0.1088046 -0.229444,0.227375 -0.173084,0.1185703 -0.217369,0.1293944 -0.255281,0.1028356 -0.03791,-0.026559 -0.04649,-0.0361 -0.129192,-0.036174 -0.0827,-7.4e-5 -0.203773,-0.049123 -0.334863,-0.2713011 -0.131089,-0.2221785 -0.158277,-0.2531057 -0.06356,-0.3415797 0.09472,-0.088474 0.284809,-0.15503 0.589628,-0.15503 0.30482,0 0.322172,-0.2271077 0.194304,-0.4800732 -0.127868,-0.2529655 -0.130711,-0.2669037 -0.152446,-0.3198786 -0.02174,-0.052975 -0.06186,-0.1047432 -0.08113,-0.1121357 -0.01927,-0.00739 -0.0067,-0.0093 -0.09302,-0.00414 z"
       transform="translate(4.3750003e-8,1.1666667e-6)"
       id="path2280" />
    <path
       style="display:inline;fill:#000000;fill-opacity:1;stroke-width:0.02558918"
       d="m 18.4467,7.2917352 c -0.06492,-0.012338 -0.143144,0.098832 -0.143144,0.2227262 0,0.1238938 -0.0093,0.130646 -0.103869,0.289904 -0.09461,0.159258 -0.291469,0.3143964 -0.471289,0.4149619 -0.179821,0.1005655 -0.168097,0.099695 -0.192237,0.1286748 -0.02414,0.02898 -0.02548,0.047001 -0.07855,-0.00103 -0.05307,-0.048035 -0.16037,-0.053856 -0.173116,0.036174 -0.01275,0.09003 0.06725,0.2402205 0.240812,0.4878256 0.173559,0.247605 0.237944,0.3658711 0.258899,0.4273629 0.02096,0.061492 0.05931,0.134276 0.110071,0.1886188 0.05076,0.054343 0.07603,0.076999 0.204122,0.076999 0.128091,0 0.230994,-0.050239 0.230994,-0.085783 0,-0.035547 0.0067,-0.039116 0.06408,-0.093017 0.05737,-0.053901 0.06395,-0.268515 0.01499,-0.3488161 C 18.359496,8.9560305 18.244627,8.8720967 18.103569,8.7681314 17.96251,8.664166 17.847453,8.5807587 17.845187,8.5660744 17.84292,8.55139 18.225197,8.361435 18.291154,8.3604031 c 0.06596,-0.00103 0.212399,-0.1245684 0.277503,-0.1984375 0.0651,-0.073872 0.09418,-0.06954 0.118855,-0.134874 0.02468,-0.065334 0,-0.1255368 0,-0.2392627 0,-0.1137258 -0.01703,-0.2647923 -0.0832,-0.363802 -0.06617,-0.09901 -0.0927,-0.1199542 -0.157613,-0.1322917 z"
       transform="translate(4.3750003e-8,1.1666667e-6)"
       id="path2278" />
    <path
       style="display:inline;fill:#000000;fill-opacity:1;stroke-width:0.02558918"
       d="m 20.022314,10.131871 c -0.08644,0.0073 -0.154985,0.133366 -0.170015,0.206705 -0.01503,0.07334 0.01297,0.06088 -0.01447,0.07131 -0.02744,0.01044 -0.0063,-0.0048 -0.08268,-0.06201 -0.07639,-0.05716 -0.265213,-0.144177 -0.416512,-0.144177 -0.151298,0 -0.230988,0.03348 -0.266133,0.05323 -0.03514,0.01974 -0.04758,0.0526 -0.09509,0.05374 -0.0475,0.0011 -0.03064,-0.01523 -0.157096,-0.07906 -0.126455,-0.06384 -0.388607,-0.04013 -0.388607,0.09457 0,0.134697 0.04283,0.132607 0.145211,0.227894 0.102385,0.09529 0.141801,0.134006 0.191719,0.14986 0.04992,0.01585 0.0879,0.04079 -0.06201,0.100769 -0.14991,0.05998 -0.152364,0.211087 -0.05116,0.285771 0.101204,0.07468 0.09334,0.0688 0.218591,0.171048 0.12525,0.102246 0.325045,0.04835 0.325045,-0.06356 0,-0.111911 0.01262,-0.07785 0.02791,-0.08733 0.01528,-0.0095 0.02762,-0.01908 0.01395,-0.07131 -0.01366,-0.05223 0.19011,-0.375171 0.243913,-0.375171 0.0538,0 0.20111,0.0728 0.221175,0.08992 0.02007,0.01712 -0.01447,0.04655 -0.0832,0.171564 -0.06872,0.125013 -0.09804,0.327154 -0.0708,0.370003 0.02725,0.04285 0.04548,0.04634 0.171049,0.121958 0.125567,0.07562 0.226003,0.105304 0.280603,0.05064 0.0546,-0.05466 0.04322,-0.07198 0.0021,-0.130741 -0.04115,-0.05876 -0.02022,-0.09457 0.02791,-0.203605 0.04812,-0.109038 0.06317,-0.146926 0.07286,-0.157097 0.0097,-0.01017 0.228605,0.07878 0.326595,0.161232 0.09799,0.08245 0.250631,0.05446 0.250631,-0.0677 0,-0.122153 -0.210815,-0.267946 -0.305408,-0.313161 -0.09459,-0.04522 -0.134815,-0.02422 -0.168465,-0.0801 -0.03365,-0.05588 0.005,-0.114649 0.0088,-0.20464 0.0038,-0.08999 3.76e-4,-0.215548 -0.04754,-0.276468 -0.04792,-0.06092 -0.06239,-0.07138 -0.148829,-0.06408 z"
       transform="translate(4.3750003e-8,1.1666667e-6)"
       id="path2276" />
    <path
       style="display:inline;fill:#000000;fill-opacity:1;stroke-width:0.02558918"
       d="m 20.698242,11.922975 c -0.05618,0.0022 -0.131772,0.09444 -0.09767,0.142111 0.0341,0.04767 0.04588,0.07386 0.06253,0.109037 0.01665,0.03518 0.02183,0.05418 0.08113,0.121441 0.0593,0.06726 0.195485,0.03456 0.195338,-0.08217 -1.47e-4,-0.116729 -0.101197,-0.241771 -0.15348,-0.269751 -0.05228,-0.02798 -0.03167,-0.02289 -0.08785,-0.02067 z"
       transform="translate(4.3750003e-8,1.1666667e-6)"
       id="path2274" />
    <path
       style="display:inline;fill:#000000;fill-opacity:1;stroke-width:0.02558918"
       d="m 20.154089,12.045967 c -0.117017,0 -0.106369,-0.0035 -0.209806,0.08992 -0.103437,0.09345 -0.162405,0.247258 -0.135909,0.305408 0.0265,0.05815 -0.0019,0.02299 0.150379,0.217557 0.152234,0.194572 0.338188,0.477798 0.352433,0.55449 0.01424,0.07669 0.01605,0.09698 0.05839,0.144176 0.04234,0.0472 0.200079,0.04954 0.566891,-0.07028 0.366812,-0.119822 0.383737,-0.115236 0.719336,-0.115236 0.3356,0 0.361299,0.0053 0.413929,-0.04238 0.05263,-0.04763 0.03465,-0.157835 -0.03204,-0.254765 -0.06669,-0.09693 -0.09997,-0.163536 -0.126607,-0.223758 -0.02664,-0.06022 -0.05109,-0.111516 -0.09973,-0.155546 -0.04865,-0.04403 -0.175278,-0.01406 -0.204639,0.05684 -0.02936,0.07091 -0.09066,0.103804 -0.188619,0.154514 -0.09796,0.05071 -0.192615,0.106966 -0.260966,0.156578 -0.06835,0.04961 -0.198402,0.08038 -0.260449,0.08423 -0.06205,0.0038 -0.120897,0.03634 -0.158131,0.0098 -0.03723,-0.02652 -0.02243,-0.08098 -0.03101,-0.11162 -0.0086,-0.03064 -0.07084,-0.17707 -0.119373,-0.25735 -0.04854,-0.08028 -0.09805,-0.166671 -0.163814,-0.312126 -0.06577,-0.145455 -0.15325,-0.230476 -0.270268,-0.230476 z"
       transform="translate(4.3750003e-8,1.1666667e-6)"
       id="path2272" />
    <path
       style="display:inline;fill:#000000;fill-opacity:1;stroke-width:0.02558918"
       d="m 22.303313,13.563186 c -0.03642,4.81e-4 -0.02768,0.0014 -0.05788,0.01757 -0.0302,0.01616 -0.05219,0.04952 -0.05219,0.132807 0,0.08329 0.02174,0.08449 -0.0925,0.192236 -0.114245,0.107749 -0.738546,0.37524 -0.810804,0.357084 -0.07226,-0.01816 -0.077,-0.0029 -0.115755,0.02429 -0.03876,0.02714 -0.05581,0.06037 -0.05581,0.170532 0,0.110164 0.04548,0.209452 0.157096,0.401526 0.111621,0.192075 0.213008,0.35106 0.28112,0.450101 0.06811,0.09904 0.136807,0.218266 0.152962,0.264584 0.01615,0.04632 0.03513,0.08634 0.08372,0.106455 0.04858,0.02011 0.171447,-5.82e-4 0.295589,-0.05995 0.124142,-0.05936 0.114162,-0.0435 0.141077,-0.152445 0.02691,-0.108939 0.02235,-0.177228 -0.334864,-0.557072 -0.357217,-0.379844 -0.324841,-0.382437 -0.200504,-0.408244 0.124337,-0.02581 0.222028,-0.06199 0.317293,-0.101285 0.09527,-0.03929 0.157734,-0.06781 0.372071,-0.118338 0.214336,-0.05053 0.268811,-0.280347 0.111104,-0.529166 -0.157707,-0.24882 -0.155296,-0.19117 -0.19172,-0.190688 z"
       id="path2270"
       transform="translate(4.3750003e-8,1.1666667e-6)" />
    <path
       style="display:inline;fill:#000000;fill-opacity:1;stroke-width:0.02558918"
       d="m 23.098614,15.40545 c -0.04443,0.0033 -0.100852,0.106561 -0.114205,0.228928 -0.01335,0.122368 -0.03464,0.205791 -0.07183,0.30334 -0.03719,0.09755 -0.0983,0.174395 -0.193269,0.242879 -0.09497,0.06849 -0.151458,0.126704 -0.166398,0.159163 -0.01494,0.03246 -0.03846,0.05243 -0.05219,0.04393 -0.01373,-0.0085 -0.03716,-0.0088 -0.07493,0.01137 -0.03777,0.02021 -0.06949,-0.009 0.06201,0.238229 0.131498,0.247192 0.248114,0.571545 0.296623,0.824756 0.04851,0.253212 0.052,0.258683 0.114205,0.313674 0.0622,0.05499 0.239396,0.06942 0.367936,0.03256 0.12854,-0.03686 0.128775,-0.07142 0.129191,-0.174148 4.16e-4,-0.10273 -0.09371,-0.228386 -0.287838,-0.50023 -0.194127,-0.271843 -0.19792,-0.290988 -0.19792,-0.307475 0,-0.01648 0.02301,-0.04443 0.05116,-0.06201 0.02815,-0.01758 0.05116,-0.05461 0.05116,-0.08217 0,-0.02756 0.04871,-0.106416 0.10852,-0.175184 0.05981,-0.06877 0.128848,-0.158173 0.153479,-0.198953 0.02463,-0.04078 0.07401,-0.113887 0.109554,-0.162264 0.03554,-0.04838 0.08273,-0.152188 0.104904,-0.230478 0.02217,-0.07829 0.04549,-0.15063 0.077,-0.200504 0.03151,-0.04987 0.006,-0.108003 -0.04289,-0.108003 -0.04887,0 -0.05625,-0.01426 -0.08682,-0.07338 -0.03057,-0.05912 -0.117711,-0.108149 -0.144694,-0.09147 -0.02698,0.01668 -0.0729,-0.0035 -0.113172,-0.01809 -0.04027,-0.01455 -0.03515,-0.01781 -0.07958,-0.01447 z"
       transform="translate(4.3750003e-8,1.1666667e-6)"
       id="path2268" />
    <path
       style="display:inline;fill:#000000;fill-opacity:1;stroke-width:0.09671501"
       d="M 42.285156 191.78906 L 41.351562 192.51367 C 41.411741 192.68904 41.580126 193.10559 41.716797 193.30273 C 41.864992 193.51654 41.958765 193.71664 41.933594 193.93555 C 41.908271 194.15446 41.922634 194.21057 41.359375 194.24023 C 40.952394 194.26154 40.548126 193.87619 40.091797 193.49219 L 39.365234 194.05469 C 39.482935 194.14879 39.440865 194.10636 39.595703 194.23047 C 40.402224 194.8769 40.759699 195.11084 41.353516 195.2168 C 41.947332 195.32274 42.105404 195.29745 42.257812 195.21484 C 42.410241 195.13222 42.588254 195.07577 42.820312 195.03711 C 43.052375 194.99848 43.229528 194.84473 43.386719 194.54688 C 43.543909 194.24901 43.616054 194.06836 43.617188 193.90234 C 43.618294 193.73631 43.275482 193.18951 42.617188 192.45703 C 42.363489 192.17475 42.4177 192.00789 42.285156 191.78906 z "
       id="path2325"
       transform="matrix(0.26458333,0,0,0.26458333,13.831737,-32.749637)" />
    <path
       style="display:inline;fill:#000000;fill-opacity:1;stroke-width:0.09671501"
       d="M 40.515625 189.15234 C 40.424085 189.16973 40.318576 189.32926 40.265625 189.54297 C 40.212674 189.75666 39.939337 190.17175 39.613281 190.53906 C 39.287221 190.90639 39.048828 191.24444 39.048828 191.33789 C 39.048828 191.43132 38.862799 191.60125 38.619141 191.73047 C 38.375512 191.85969 37.729301 192.38938 37.554688 192.55273 C 37.380073 192.71609 37.014641 192.92819 36.919922 193.14648 C 36.825207 193.36479 36.919771 193.55179 36.919922 193.70508 C 36.920073 193.85838 36.887046 194.31576 36.816406 194.42969 C 36.745805 194.5436 36.849718 194.80273 37.158203 195.27148 C 37.466688 195.74024 37.636083 196.06189 37.837891 196.7207 C 38.039717 197.37952 38.282794 197.90267 38.601562 198.03125 C 38.920328 198.15983 39.797867 198.14074 40.158203 197.99023 C 40.518543 197.8397 40.695313 197.61584 40.695312 197.22266 C 40.695312 196.82948 40.620213 196.69084 39.982422 196.36914 C 39.344645 196.04743 38.168729 194.83732 38.025391 194.49414 C 37.882033 194.15096 37.888672 194.1191 37.888672 193.89062 C 37.888672 193.66216 38.258953 193.26592 38.392578 193.31836 C 38.500565 193.36072 38.869854 193.65864 39.365234 194.05469 L 40.091797 193.49219 C 39.916701 193.34485 39.858504 193.44908 39.605469 193.20508 C 38.692977 192.32517 39.24589 192.35324 39.966797 192.27148 C 40.687689 192.18973 40.773504 192.1132 40.859375 192.07812 C 40.923778 192.05177 40.996124 191.95686 41.082031 191.9375 C 41.110667 191.93105 41.139617 191.93384 41.171875 191.94922 L 41.173828 191.94922 C 41.302861 192.01075 41.279684 192.31036 41.320312 192.44727 C 41.323475 192.45792 41.346483 192.49887 41.351562 192.51367 L 42.285156 191.78906 C 42.073767 191.44007 41.757812 191.06946 41.757812 190.72266 C 41.757812 190.15841 41.633464 190.06105 41.214844 189.65234 C 40.796227 189.24363 40.607165 189.13483 40.515625 189.15234 z "
       id="path2266"
       transform="matrix(0.26458333,0,0,0.26458333,13.831737,-32.749637)" />
    <path
       style="display:inline;fill:#000000;fill-opacity:1;stroke-width:0.02558918"
       d="m 25.640577,19.415541 c -0.249611,0 -0.349296,0.167019 -0.157613,0.472324 0.191683,0.305305 0.0926,0.264803 -0.02687,0.300757 -0.119475,0.03595 -0.107053,0.03754 -0.134358,0.07493 -0.0273,0.03739 -0.32562,0.118134 -0.566891,0.14056 -0.241271,0.02243 -0.242538,0.106238 -0.194303,0.179835 0.04824,0.0736 0.0432,0.06325 0.02842,0.07803 -0.01478,0.01478 0.116462,0.264287 0.211873,0.38499 0.09541,0.120703 0.09345,0.129444 0.187586,0.142626 0.09414,0.01318 0.337231,-0.01069 0.367936,-0.03617 0.03071,-0.02548 0.03566,-0.05786 0.03566,-0.143661 0,-0.0858 -0.04176,-0.157893 -0.157614,-0.278535 -0.115848,-0.120642 -0.153051,-0.164113 -0.147277,-0.16433 0.0058,-2.17e-4 0.116542,-0.02267 0.253731,-0.05116 0.137189,-0.02849 0.266922,-0.05031 0.484208,-0.05064 0.217286,-3.34e-4 0.334347,-0.04994 0.334347,-0.208257 0,-0.158318 -0.101264,-0.399063 -0.141594,-0.43253 -0.04033,-0.03347 -0.03754,-0.01888 -0.03772,-0.07286 -1.83e-4,-0.05398 -0.05995,-0.242356 -0.103869,-0.28629 -0.04392,-0.04393 0.01397,-0.04961 -0.235645,-0.04961 z"
       transform="translate(4.3750003e-8,1.1666667e-6)"
       id="path2262" />
    <path
       style="display:inline;fill:#000000;fill-opacity:1;stroke-width:0.02558918"
       d="m 32.205034,20.72089 c -0.249151,-2.99e-4 -0.247514,-0.015 -0.313676,0.05116 -0.06616,0.06616 -0.03492,0.504925 0.04496,0.594794 0.07988,0.08987 0.160446,0.06242 0.234611,-0.01654 0.07416,-0.07895 0.265617,-0.117822 0.559139,-0.117822 0.293523,0 0.29349,0.01578 0.33693,0.06201 0.04344,0.04624 0.0515,0.07272 0.04341,0.08578 -0.0081,0.01306 0.109688,0.01081 -0.16278,0.03927 -0.272469,0.02847 -0.647907,0.333647 -0.50798,0.496094 0.139928,0.162446 0.270589,0.09828 0.514181,-0.02377 0.243591,-0.122049 0.294039,-0.121166 0.294039,-0.08113 0,0.04003 -0.01698,0.06336 -0.03772,0.0863 -0.02074,0.02293 -0.04586,0.07975 -0.05891,0.142626 -0.01306,0.06288 -0.03962,0.104685 -0.0708,0.110588 -0.03118,0.0059 -0.09688,0.05242 -0.153995,0.104905 -0.05712,0.05249 -0.134165,0.113125 -0.287322,0.20257 -0.153156,0.08945 -0.235644,0.177903 -0.235644,0.306959 0,0.129056 0.100407,0.181893 0.165364,0.182933 0.06496,10e-4 0.0529,0.0018 0.101803,0.03876 0.04891,0.03699 0.153536,0.03296 0.302824,-0.03514 0.149288,-0.0681 0.161178,-0.075 0.340548,-0.264584 0.179369,-0.189582 0.240812,-0.557376 0.240812,-0.822171 0,-0.264795 -0.03192,-0.309417 0,-0.39429 0.03192,-0.08487 0.04554,-0.05203 0.0987,-0.112655 0.05316,-0.06063 0.179075,-0.369212 0.137459,-0.410829 -0.04162,-0.04162 -0.179699,0.05876 -0.268201,0.143145 -0.0885,0.08438 -0.105099,0.09147 -0.116271,0.09147 -0.01117,0 -0.06276,-0.04328 -0.120407,-0.10232 -0.05765,-0.05904 -0.160197,-0.125201 -0.241845,-0.155546 -0.08165,-0.03034 -0.133231,-0.04683 -0.198955,-0.0894 -0.06572,-0.04257 -0.39112,-0.112871 -0.640271,-0.11317 z"
       transform="translate(4.3750003e-8,1.1666667e-6)"
       id="path2260" />
    <path
       style="display:inline;fill:#000000;fill-opacity:1;stroke-width:0.02558918"
       d="m 26.861175,20.843879 c -0.07592,-0.0037 -0.255675,0.125833 -0.290939,0.256831 -0.03526,0.130998 -0.01484,0.105939 -0.149861,0.105939 -0.135026,0 -0.235128,0.03657 -0.235128,0.149344 0,0.112771 0.188662,0.260448 0.293005,0.260448 0.104344,0 0.06537,0.03399 0.06563,0.134361 2.59e-4,0.100367 0.0058,0.155889 0.01705,0.197919 0.01121,0.04203 0.02319,0.06907 -0.218592,-0.15348 -0.241783,-0.222554 -0.370478,-0.312378 -0.526583,-0.298688 -0.156104,0.01369 -0.244946,0.108117 -0.244946,0.226343 0,0.118226 0.144811,0.212595 0.382406,0.312642 0.237594,0.100047 0.254377,0.12945 0.296622,0.196371 0.04224,0.06692 0.07233,0.103717 0.08682,0.112655 0.01449,0.0089 0.01353,0.03145 -0.06305,0.131773 -0.07658,0.100322 -0.130501,0.263908 -0.04651,0.426331 0.08399,0.162422 0.458439,0.454292 0.54622,0.481108 0.08778,0.02681 -0.04891,-0.015 5.16e-4,0 0.04942,0.015 0.134637,0.02902 0.198955,-0.01602 0.06432,-0.04504 0.0576,-0.224779 0.0186,-0.293005 -0.039,-0.06823 -0.03726,-0.107484 -0.03772,-0.160713 -4.63e-4,-0.05323 -0.0182,-0.137803 -0.03927,-0.188103 -0.02108,-0.0503 -0.0587,-0.05522 -0.02119,-0.120922 0.03751,-0.06571 0.304026,-0.456446 0.331246,-0.479042 0.02722,-0.02259 0.07405,-0.08303 0.115755,-0.143658 0.04171,-0.06062 0.04683,-0.110072 0.120406,-0.110072 0.07358,0 0.149125,-0.189505 0.03617,-0.233061 -0.112952,-0.04356 -0.339965,-0.04986 -0.382923,-0.02687 -0.04296,0.02299 -0.06332,0.04502 -0.163814,0.194302 -0.100495,0.149283 -0.148991,0.128913 -0.127124,-0.217556 0.02187,-0.346469 0.07111,-0.425117 0.141077,-0.483174 0.06997,-0.05806 0.04033,-0.176713 0,-0.217043 -0.04033,-0.04033 -0.02692,-0.04126 -0.102836,-0.04496 z"
       transform="translate(4.3750003e-8,1.1666667e-6)"
       id="path2258" />
    <path
       style="display:inline;fill:#000000;fill-opacity:1;stroke-width:0.09671501"
       d="M 64.347656 210.58008 C 65.08934 210.61791 65.964637 210.68426 66.171875 210.60547 C 66.482741 210.48725 66.419922 210.5858 66.419922 210.79492 C 66.419922 211.00389 66.381669 211.09861 66.335938 211.12695 C 66.290167 211.1553 66.187268 211.41548 66.091797 211.75586 C 65.996326 212.09624 65.863364 212.35488 65.765625 212.38477 C 65.667886 212.41462 65.120284 212.44528 64.535156 212.45703 C 63.950029 212.46875 63.519703 212.44076 63.349609 212.56836 C 63.179531 212.69584 63.520182 214.03106 63.734375 214.11719 C 63.948561 214.20332 63.896567 214.16841 64.353516 214.17578 C 64.810472 214.18334 66.214624 213.61169 66.746094 213.02344 C 67.277563 212.43519 67.387683 211.95186 67.386719 210.71289 C 67.385751 209.47392 67.393136 209.50458 67.146484 208.97461 C 66.899757 208.44464 66.615234 207.33664 66.615234 207.05664 C 66.615234 206.77665 66.62317 206.76052 66.808594 206.39648 C 66.994206 206.03244 66.961315 205.59298 66.689453 205.3125 C 66.417592 205.03202 66.325447 205.01926 66.175781 205.00195 C 66.026112 204.98457 65.938289 204.97854 65.847656 205.2168 C 65.757023 205.45517 64.904305 206.18528 64.464844 206.4082 C 64.437989 206.42183 64.375664 206.43767 64.347656 206.45117 L 64.347656 207.89844 C 64.368553 207.89462 64.400728 207.86981 64.417969 207.86719 C 64.546926 207.84753 64.587121 207.80958 64.621094 207.78906 C 64.655067 207.76855 64.6828 207.76549 64.783203 207.81055 C 64.983972 207.90065 65.157111 208.38972 65.298828 208.60938 C 65.440523 208.82903 65.998381 209.55237 66.068359 209.60742 C 66.138318 209.66249 66.34071 209.71902 66.322266 209.80859 C 66.303746 209.89813 66.165034 209.85128 66.105469 209.86719 C 66.045903 209.88306 65.658682 209.92469 64.939453 209.92578 C 64.591799 209.92632 64.527507 209.82416 64.347656 209.79297 L 64.347656 210.58008 z "
       id="path2328"
       transform="matrix(0.26458333,0,0,0.26458333,13.831737,-32.749637)" />
    <path
       style="display:inline;fill:#000000;fill-opacity:1;stroke-width:0.09671501"
       d="M 64.347656 210.58008 L 64.347656 209.79297 C 64.155431 209.75963 63.855373 209.79288 63.714844 209.65234 C 63.442831 209.38033 63.268634 208.57484 63.363281 208.32812 C 63.451595 208.0979 64.055953 207.95176 64.347656 207.89844 L 64.347656 206.45117 C 63.917338 206.65855 63.38193 206.85167 62.550781 207.12109 C 61.665533 207.40804 61.169737 207.46972 61.117188 207.73828 C 61.064652 208.00685 62.586965 210.19711 62.917969 210.32812 C 63.24898 210.45916 63.21319 210.45011 63.435547 210.56641 C 63.509664 210.60517 63.976809 210.56116 64.347656 210.58008 z "
       id="path2256"
       transform="matrix(0.26458333,0,0,0.26458333,13.831737,-32.749637)" />
    <path
       style="display:inline;fill:#000000;fill-opacity:1;stroke-width:0.02558918"
       d="m 28.266257,21.876373 c -0.06809,-0.0056 -0.110381,0.0037 -0.156063,0.03566 -0.04568,0.03199 -0.05684,0.06951 -0.05684,0.226859 0,0.157353 0.0054,0.194069 0.05271,0.254248 0.0473,0.06018 0.04327,0.0677 0.3545,0.0677 0.311227,0 0.472997,0.05773 0.521932,0.119888 0.04894,0.06216 0.03808,0.05943 0.09302,0.05943 0.05494,0 0.107919,0.188928 0.08165,0.342098 -0.02627,0.15317 -0.04036,0.190733 -0.05168,0.202055 -0.01132,0.01132 -0.04235,0.02851 -0.197404,0.0832 -0.155053,0.05469 -0.443575,0.118293 -0.627352,0.02326 -0.183777,-0.09504 -0.276716,0.265408 -0.174666,0.374652 0.10205,0.109244 0.02867,0.06358 0.077,0.08217 0.04833,0.01859 0.0061,-4.05e-4 0.197404,-0.01654 0.19134,-0.01613 0.560913,-0.106452 0.628385,-0.153479 0.06747,-0.04703 0.08251,-0.09123 0.128158,-0.0894 0.04565,0.0018 0.03679,0.0303 0.09095,0.07493 0.05416,0.04463 0.283177,0.09681 0.338998,0.02997 0.05582,-0.06683 0.09818,-0.169566 0.09818,-0.236162 0,-0.06659 -0.118212,-0.205155 -0.192237,-0.205155 -0.07402,0 -0.09142,-0.04003 -0.07441,-0.146246 0.01701,-0.106214 -0.0046,-0.09818 0.115239,-0.09818 0.119851,0 0.177838,-0.08004 0.183968,-0.259416 0.0061,-0.179379 0.01013,-0.176609 -0.04031,-0.232545 -0.05043,-0.05594 -0.221911,-0.06183 -0.279569,-0.03876 -0.05766,0.02307 -0.05344,0.04703 -0.09767,0.03876 -0.04423,-0.0083 -0.03099,-0.02879 -0.120922,-0.112136 -0.08993,-0.08335 -0.418676,-0.290427 -0.608232,-0.354501 -0.189557,-0.06407 -0.216647,-0.06671 -0.284737,-0.07235 z"
       transform="translate(4.3750003e-8,1.1666667e-6)"
       id="path2254" />
  </g>
  <g
     id="g2236"
     inkscape:groupmode="layer"
     inkscape:label="Dwgs.User-disabled"
     transform="translate(-13.831737,32.749637)" />
  <g
     id="g2238"
     inkscape:groupmode="layer"
     inkscape:label="Cmts.User-disabled"
     transform="translate(-13.831737,32.749637)" />
  <g
     id="g2240"
     inkscape:groupmode="layer"
     inkscape:label="Eco1.User-disabled"
     transform="translate(-13.831737,32.749637)" />
  <g
     id="g2242"
     inkscape:groupmode="layer"
     inkscape:label="Eco2.User-disabled"
     transform="translate(-13.831737,32.749637)" />
  <g
     id="g2244"
     inkscape:groupmode="layer"
     inkscape:label="Edge.Cuts"
     transform="translate(-13.831737,32.749637)" />
  <g
     id="g2246"
     inkscape:groupmode="layer"
     inkscape:label="Margin-disabled"
     transform="translate(-13.831737,32.749637)" />
  <g
     id="g2248"
     inkscape:groupmode="layer"
     inkscape:label="B.CrtYd-disabled"
     transform="translate(-13.831737,32.749637)" />
  <g
     id="g2250"
     inkscape:groupmode="layer"
     inkscape:label="F.CrtYd-disabled"
     transform="translate(-13.831737,32.749637)" />
  <g
     id="g2252"
     inkscape:groupmode="layer"
     inkscape:label="B.Fab-disabled"
     transform="translate(-13.831737,32.749637)" />
  <g
     id="g2254"
     inkscape:groupmode="layer"
     inkscape:label="F.Fab-disabled"
     transform="translate(-13.831737,32.749637)" />
  <g
     id="g2256"
     inkscape:groupmode="layer"
     inkscape:label="Drill"
     transform="translate(-13.831737,32.749637)" />
</svg>
