<?xml version="1.0" encoding="UTF-8" standalone="no"?>
<!-- Created with Inkscape (http://www.inkscape.org/) -->

<svg
   xmlns:dc="http://purl.org/dc/elements/1.1/"
   xmlns:cc="http://creativecommons.org/ns#"
   xmlns:rdf="http://www.w3.org/1999/02/22-rdf-syntax-ns#"
   xmlns:svg="http://www.w3.org/2000/svg"
   xmlns="http://www.w3.org/2000/svg"
   xmlns:sodipodi="http://sodipodi.sourceforge.net/DTD/sodipodi-0.dtd"
   xmlns:inkscape="http://www.inkscape.org/namespaces/inkscape"
   width="60.298794mm"
   height="56.765961mm"
   viewBox="0 0 60.298793 56.765961"
   version="1.1"
   id="svg1662"
   inkscape:version="0.92.4 (5da689c313, 2019-01-14)"
   sodipodi:docname="body-art.svg">
  <defs
     id="defs1656" />
  <sodipodi:namedview
     id="base"
     pagecolor="#ffffff"
     bordercolor="#666666"
     borderopacity="1.0"
     inkscape:pageopacity="0.0"
     inkscape:pageshadow="2"
     inkscape:zoom="5.6568543"
     inkscape:cx="72.563845"
     inkscape:cy="110.22954"
     inkscape:document-units="mm"
     inkscape:current-layer="g2230"
     showgrid="true"
     inkscape:window-width="1857"
     inkscape:window-height="1177"
     inkscape:window-x="55"
     inkscape:window-y="-8"
     inkscape:window-maximized="1"
     borderlayer="true"
     fit-margin-top="0"
     fit-margin-left="0"
     fit-margin-right="0"
     fit-margin-bottom="0"
     objecttolerance="1"
     gridtolerance="1"
     guidetolerance="1"
     showguides="true">
    <inkscape:grid
       id="grid2208"
       units="mm"
       type="xygrid"
       empspacing="1"
       spacingy="2.54"
       spacingx="2.54"
       originx="-13.832236"
       originy="-13.983679" />
  </sodipodi:namedview>
  <metadata
     id="metadata1659">
    <rdf:RDF>
      <cc:Work
         rdf:about="">
        <dc:format>image/svg+xml</dc:format>
        <dc:type
           rdf:resource="http://purl.org/dc/dcmitype/StillImage" />
        <dc:title></dc:title>
      </cc:Work>
    </rdf:RDF>
  </metadata>
  <g
     id="g2214"
     sodipodi:insensitive="true"
     inkscape:groupmode="layer"
     inkscape:label="[fixed] BG"
     transform="translate(-13.832236,32.749637)">
    <rect
       id="rect2212"
       style="fill:#ffffff;fill-opacity:1;stroke:none"
       height="38"
       width="29"
       y="0"
       x="0" />
  </g>
  <g
     id="g2216"
     inkscape:groupmode="layer"
     inkscape:label="F.Cu"
     transform="translate(-13.832236,32.749637)"
     style="display:inline">
    <path
       style="fill:#ffcc00;stroke-width:0.09671501"
       d="M 49.720703,3.2929688 C 49.508234,3.2728295 49.307914,3.3896964 49.208984,3.6894531 49.087813,4.0565624 49.199837,4.4911046 49.46875,4.6953125 49.857425,4.9904596 50.460938,4.7645677 50.460938,4.3242188 50.460938,3.7411156 50.074818,3.3265341 49.720703,3.2929688 Z M 47.466797,5.0292969 C 47.3312,5.0363788 47.15605,5.0694043 46.902344,5.1308594 45.961759,5.3587271 44.630589,5.4228378 44.402344,5.25 44.061264,4.9916844 43.916167,5.073276 43.849609,5.5585938 43.787353,6.0127607 43.94171,6.3581166 44.212891,6.3671875 44.271171,6.369202 44.437363,6.5396182 44.580078,6.7460938 44.814492,7.0852686 44.891564,7.1277334 45.384766,7.1894531 46.099932,7.2788012 46.732128,7.1864942 47.144531,6.9316406 47.394456,6.7769446 47.506342,6.7534304 47.591797,6.8359375 47.654401,6.8963948 47.879009,7.6084998 48.091797,8.4179688 48.427718,9.6959895 48.51075,9.9049471 48.720703,10.011719 49.027816,10.167828 49.292053,10.11102 50.365234,9.6523438 50.842781,9.4482304 51.397681,9.2284656 51.597656,9.1640625 51.797612,9.0996594 52.015474,9.0039719 52.082031,8.9511719 52.404334,8.6953697 51.967632,7.6404117 51.486328,7.5117188 51.170609,7.4272841 50.765253,7.5587403 50.595703,7.8007812 50.455785,8.0005368 49.486253,8.3538414 49.287109,8.2773438 49.21198,8.2485135 49.024101,7.8166901 48.869141,7.3183594 48.45919,5.9999203 48.081422,5.2173895 47.792969,5.0859375 47.698082,5.0427564 47.602394,5.022215 47.466797,5.0292969 Z M 40.113281,6.6542969 C 39.371806,6.6542969 39.213578,6.6828688 39.048828,6.8476562 38.94251,6.95405 38.855469,7.1203311 38.855469,7.21875 38.855469,7.3171084 39.117714,8.2048333 39.4375,9.1894531 39.915848,10.662441 40.105096,11.108403 40.507812,11.707031 41.210177,12.751054 41.468051,12.971221 42.074219,13.044922 H 42.076172 C 43.243607,13.186805 43.77128,13.129592 44.087891,12.826172 44.162627,12.754512 44.34679,12.616438 44.498047,12.519531 44.698059,12.391556 44.760074,12.289955 44.722656,12.146484 44.694196,12.037861 44.734188,11.849864 44.8125,11.730469 45.01992,11.413835 45.069223,10.719636 44.972656,9.4550781 44.869059,8.0976684 44.725269,7.8434982 43.816406,7.4179688 42.701075,6.8957892 42.408791,7.0764173 42.453125,8.2617188 L 42.482422,9.0234375 43.101562,9.0722656 C 43.898979,9.134556 44.062667,9.3275482 44.144531,10.302734 L 44.201172,10.992188 43.837891,11.144531 C 43.292297,11.372512 42.532636,11.343108 42.134766,11.078125 41.728213,10.807333 41.50489,10.365934 41.310547,9.4453125 41.16855,8.7733049 41.172423,8.5452495 41.337891,7.4121094 41.378029,7.1371979 41.343229,7.0151038 41.185547,6.8574219 41.009788,6.6815605 40.868034,6.6542969 40.113281,6.6542969 Z M 37.359375,9.4199219 C 37.14912,9.3897178 36.971359,9.5165017 36.689453,9.8515625 36.386637,10.211453 36.375137,10.363418 36.630859,10.619141 36.87521,10.863374 37.554232,10.882555 37.808594,10.652344 38.14281,10.349906 38.022148,9.7255622 37.585938,9.5 37.503418,9.4573244 37.42946,9.4299899 37.359375,9.4199219 Z M 35.375,11.037109 C 35.21552,11.019128 35.053803,11.068022 34.90625,11.185547 34.519529,11.493567 34.036255,11.687697 33.390625,11.794922 32.710193,11.907854 32.070178,12.075623 31.958984,12.169922 31.864035,12.250399 32.651942,13.70543 32.861328,13.835938 33.038599,13.946383 34.737052,13.172771 35.03125,12.847656 35.215574,12.643985 35.216919,12.65038 35.720703,14.199219 35.998725,15.053948 36.296009,15.858681 36.380859,15.988281 36.559212,16.260471 36.496058,16.275687 37.925781,15.609375 39.059405,15.08108 40.21253,14.381968 40.173828,14.246094 40.15871,14.192727 40.040953,14.135329 39.912109,14.117188 39.783288,14.099235 39.590844,14.0069 39.484375,13.912109 39.378008,13.817432 39.172024,13.66407 39.027344,13.572266 38.778931,13.414323 38.740719,13.414256 38.332031,13.570312 38.022201,13.688638 37.873198,13.81086 37.806641,14.001953 37.737177,14.201285 37.634974,14.280437 37.402344,14.314453 37.105537,14.358012 37.07918,14.336328 36.861328,13.84375 36.735598,13.55945 36.491613,12.911582 36.318359,12.402344 36.145136,11.89309 35.924982,11.392912 35.830078,11.291016 35.690406,11.141101 35.53448,11.05509 35.375,11.037109 Z M 29.705078,12.871094 C 29.366771,12.848311 29.237804,12.96642 29.214844,13.263672 29.188984,13.600084 29.400736,13.796108 29.869141,13.871094 30.321886,13.94346 30.394473,14.034387 30.355469,14.486328 30.317137,14.931092 30.184801,15.164062 29.972656,15.164062 29.878319,15.164062 29.716538,15.228556 29.613281,15.306641 29.51004,15.384612 29.315373,15.449169 29.179688,15.451172 28.907811,15.454573 28.701172,15.614479 28.701172,15.820312 28.701172,15.893545 28.874284,16.194713 29.085938,16.490234 29.518153,17.093821 30.002666,18.268366 30.105469,18.960938 30.169796,19.394653 30.161264,19.419922 29.953125,19.419922 29.831874,19.419922 29.41726,19.223732 29.033203,18.984375 28.649146,18.744976 28.304479,18.550781 28.265625,18.550781 28.226787,18.550781 27.98681,18.398201 27.734375,18.212891 27.019353,17.688013 25.856568,17.174248 25.285156,17.130859 24.492431,17.070587 24.394973,17.124708 24.064453,17.824219 23.545327,18.922973 23.700352,19.186766 24.820312,19.105469 25.71964,19.040147 26.946981,19.268368 27.869141,19.673828 28.299198,19.862903 28.955766,20.121168 29.328125,20.248047 29.700469,20.374926 30.063194,20.481424 30.132812,20.482422 30.202401,20.483794 30.46101,20.292887 30.708984,20.058594 L 31.160156,19.632812 31.152344,18.583984 C 31.146485,17.799615 31.094465,17.376889 30.943359,16.912109 30.832279,16.570274 30.763803,16.254742 30.791016,16.210938 30.818077,16.167133 30.942388,16.132812 31.068359,16.132812 31.202929,16.132812 31.3846,16.02148 31.507812,15.865234 31.685601,15.638909 31.711372,15.505642 31.677734,14.970703 31.628555,14.187672 31.285418,13.365781 30.935547,13.193359 30.796933,13.125063 30.42828,13.01134 30.117188,12.939453 29.95407,12.901798 29.817847,12.878688 29.705078,12.871094 Z M 21.789062,19.423828 C 21.559747,19.432646 21.248483,19.545837 20.818359,19.763672 20.446,19.952236 19.935008,20.152228 19.683594,20.207031 19.072017,20.340267 18.738281,20.727006 18.738281,21.304688 18.738281,21.646364 18.809257,21.813054 19.119141,22.205078 19.99361,23.311372 20.769531,23.423742 20.769531,22.443359 20.769531,21.945913 20.979839,21.490092 21.25,21.404297 21.357792,21.370054 21.477503,21.212923 21.519531,21.050781 L 21.595703,20.759766 22.089844,21.470703 C 22.36217,21.860758 22.884935,22.49293 23.25,22.876953 23.615068,23.260991 23.934481,23.576172 23.960938,23.576172 23.98753,23.576625 24.197826,23.426919 24.427734,23.244141 24.657643,23.06137 25.030184,22.824034 25.255859,22.714844 25.533488,22.580455 25.720825,22.401266 25.833984,22.164062 25.925902,21.971269 25.976368,21.790821 25.947266,21.761719 25.918159,21.732616 25.671508,21.759261 25.398438,21.822266 24.936859,21.928848 24.874463,21.921431 24.501953,21.703125 23.916194,21.359842 22.440416,20.043208 22.267578,19.708984 22.165533,19.511589 22.018378,19.41501 21.789062,19.423828 Z M 15.152344,22.564453 C 15.035774,22.572407 14.943901,22.60826 14.894531,22.675781 14.827369,22.767662 14.772263,22.931523 14.771484,23.041016 14.77088,23.150531 14.744261,23.336451 14.712891,23.453125 14.67056,23.611037 14.746659,23.756565 15.005859,24.023438 15.197444,24.220733 15.35469,24.429963 15.355469,24.488281 15.356225,24.546599 15.379479,24.68064 15.408203,24.787109 15.443617,24.91903 15.356662,25.093745 15.134766,25.335938 L 14.810547,25.691406 14.544922,25.361328 14.28125,25.029297 H 13.279297 C 12.249731,25.029297 11.393547,25.240276 10.974609,25.595703 10.817642,25.728856 10.8622,25.755525 11.501953,25.917969 11.885507,26.015405 12.378292,26.180942 12.597656,26.287109 12.817035,26.393201 13.048286,26.480469 13.111328,26.480469 13.174371,26.480469 13.226562,26.522401 13.226562,26.574219 13.226562,26.626036 13.361687,26.738612 13.527344,26.824219 13.96795,27.052071 14.657131,27.717336 14.919922,28.167969 15.193503,28.637106 15.546875,29.868992 15.546875,30.351562 15.546875,30.54148 15.600226,30.748702 15.664062,30.8125 15.935742,31.084169 16.218766,30.935431 16.505859,30.369141 16.627439,30.129345 16.827108,29.908267 16.978516,29.84375 17.436636,29.648768 17.578125,29.469761 17.578125,29.091797 17.578125,28.698877 17.426913,28.521409 16.923828,28.322266 16.75003,28.25349 16.429911,27.9736 16.212891,27.701172 L 15.818359,27.205078 17.248047,27.179688 C 18.094616,27.1637 18.729588,27.109162 18.804688,27.046875 18.881253,26.983417 19.096494,26.965998 19.349609,27.003906 19.690424,27.05493 19.816522,27.029127 20.027344,26.863281 20.3082,26.642285 20.356353,26.496083 20.166016,26.4375 20.099534,26.417015 19.838599,26.325877 19.585938,26.234375 L 19.125,26.066406 V 25.421875 C 19.125,24.733052 19.029495,24.546875 18.677734,24.546875 18.362091,24.546875 18.178312,24.78015 18.103516,25.279297 18.045311,25.667401 18.012693,25.716171 17.832031,25.671875 17.719004,25.644209 17.395461,25.591727 17.113281,25.554688 16.688636,25.499317 16.613406,25.459225 16.671875,25.330078 16.710729,25.244237 16.760526,24.790795 16.783203,24.322266 L 16.824219,23.470703 16.445312,23.111328 C 16.081007,22.764674 15.502052,22.540591 15.152344,22.564453 Z M 11.294922,29.203125 C 11.130337,29.241933 11.001266,29.494095 11.001953,29.882812 11.002562,30.232139 11.332528,32.241816 11.427734,32.476562 11.477477,32.599284 11.328518,32.626012 10.457031,32.644531 8.8674489,32.678252 8.4700552,32.986399 7.9355469,34.605469 7.6939973,35.336403 7.6640625,35.565674 7.6640625,36.683594 7.6640625,37.890556 7.6769827,37.966838 7.9667969,38.580078 8.5633084,39.842248 9.4407311,40.503906 10.515625,40.503906 11.19919,40.503906 11.211408,40.534789 10.900391,41.431641 10.662469,42.117561 10.623798,42.652384 10.798828,42.863281 10.881834,42.96325 11.082286,43.017578 11.361328,43.017578 11.810997,43.017578 12.81849,42.770952 12.978516,42.621094 13.029048,42.573698 13.14659,42.535156 13.238281,42.535156 13.498162,42.535156 14,42.061773 14,41.816406 14,41.696312 13.917698,41.501591 13.816406,41.384766 13.715077,41.267944 13.58076,40.885191 13.519531,40.533203 13.458227,40.181246 13.349533,39.778325 13.277344,39.638672 13.20523,39.499083 13.117559,39.230257 13.082031,39.041016 L 13.017578,38.697266 H 11.791016 C 10.264105,38.698105 10.018092,38.602976 9.5449219,37.822266 9.2280463,37.300615 9.2117937,37.226834 9.2148438,36.398438 9.2174138,35.688189 9.2584627,35.447884 9.4316406,35.119141 9.7595298,34.496686 9.9444411,34.410156 10.960938,34.410156 11.446403,34.410156 12.168611,34.383247 12.566406,34.349609 L 13.289062,34.289062 13.460938,33.216797 C 13.554897,32.627361 13.710376,31.893074 13.806641,31.583984 L 13.980469,31.021484 13.53125,30.595703 C 12.924076,30.021102 12.458357,29.716681 12.068359,29.638672 11.889682,29.602918 11.683681,29.486875 11.609375,29.380859 11.505789,29.23297 11.393673,29.17984 11.294922,29.203125 Z M 12.953125,44.507812 C 12.857807,44.520976 12.770609,44.554244 12.689453,44.607422 12.558681,44.693142 12.453125,44.827636 12.453125,44.90625 12.453125,44.999907 12.354337,45.050781 12.167969,45.050781 11.620357,45.050781 11.700775,45.299319 12.355469,45.630859 12.594834,45.752069 12.891518,45.916308 13.013672,45.996094 L 13.234375,46.142578 12.964844,46.425781 C 12.704056,46.698334 12.694939,46.741079 12.71875,47.582031 12.747765,48.601328 12.872975,48.870616 14.091797,50.541016 14.48819,51.084247 14.83128,51.529297 14.855469,51.529297 14.879582,51.529297 15.040292,51.423022 15.210938,51.292969 15.381568,51.162802 15.635838,51.027715 15.777344,50.992188 16.060026,50.921227 16.320312,50.614088 16.320312,50.351562 16.320312,50.254784 16.017557,49.959557 15.607422,49.65625 14.59181,48.90516 14.168089,48.24954 14.136719,47.386719 L 14.117188,46.871094 14.404297,47.146484 C 14.562149,47.296997 14.887407,47.712719 15.126953,48.072266 15.656023,48.86639 15.785105,48.947046 16.261719,48.783203 16.796023,48.599503 16.938229,48.419114 16.863281,48.019531 16.790522,47.631684 16.095215,46.791016 15.847656,46.791016 15.675128,46.791016 15.451172,46.614642 15.451172,46.480469 15.451172,46.341269 16.026048,46.400832 16.638672,46.601562 17.088084,46.748813 17.380257,46.929922 17.798828,47.326172 18.340994,47.839292 18.366391,47.85276 18.621094,47.720703 19.002395,47.523113 19.416016,47.114356 19.416016,46.935547 19.416016,46.645396 19.134198,46.238173 18.863281,46.134766 18.714496,46.077997 18.419819,45.97805 18.207031,45.914062 17.994244,45.85 17.767566,45.756064 17.703125,45.705078 17.420091,45.480759 16.243786,45.270598 15.529297,45.316406 14.817446,45.362105 14.795385,45.35616 14.185547,44.974609 13.609062,44.613872 13.23908,44.468322 12.953125,44.507812 Z M 22.142578,49.880859 21.679688,50.052734 C 21.303231,50.192498 21.201714,50.282216 21.138672,50.525391 21.019643,50.984758 19.579581,52.322347 19.029297,52.484375 18.789932,52.554863 18.452172,52.719102 18.279297,52.849609 18.009174,53.05359 17.964844,53.145507 17.964844,53.507812 17.964844,53.905124 18.012734,53.980727 18.810547,54.822266 19.275996,55.313226 19.826576,55.827899 20.033203,55.966797 20.239837,56.105751 20.523061,56.29596 20.662109,56.388672 20.801226,56.481421 21.009384,56.558594 21.125,56.558594 21.401971,56.559263 21.915088,56.03578 22.142578,55.521484 22.376338,54.993016 22.282809,54.803477 21.613281,54.466797 21.335932,54.327347 20.903708,54.06457 20.654297,53.882812 L 20.201172,53.552734 20.708984,53.029297 C 21.205716,52.516415 22.282473,51.916016 22.707031,51.916016 22.805299,51.916016 22.908776,51.87833 22.9375,51.832031 22.966111,51.785694 23.130287,51.719563 23.300781,51.685547 23.624033,51.620887 23.960938,51.376127 23.960938,51.207031 23.960938,50.997747 23.628625,50.75592 23.341797,50.755859 23.117678,50.75581 22.930355,50.645629 22.59375,50.318359 Z M 27.126953,53.677734 C 26.447599,53.644319 25.608195,53.730156 25.363281,53.890625 24.960792,54.154368 24.734375,54.725555 24.734375,55.476562 24.734375,56.244823 24.865053,56.432276 25.462891,56.529297 25.923298,56.604026 26.087703,56.412071 26.09375,55.791016 26.09762,55.360206 26.108503,55.345449 26.5625,55.132812 27.128639,54.867414 27.214805,54.86412 27.607422,55.103516 28.114071,55.412394 28.244472,55.782844 28.197266,56.769531 28.165518,57.433693 28.113706,57.682095 27.960938,57.886719 27.707055,58.226778 27.500039,58.276968 26.337891,58.289062 25.49201,58.297566 25.349371,58.324644 25.152344,58.509766 24.734948,58.901899 24.9543,59.563669 25.732422,60.255859 26.364253,60.817898 26.761486,60.76492 27.685547,60 27.951508,59.779839 28.320575,59.499271 28.507812,59.375 29.317062,58.837812 29.62084,58.078354 29.613281,56.607422 29.608519,55.74617 29.567497,55.457492 29.404297,55.09375 29.140898,54.506638 28.398934,53.913755 27.724609,53.751953 27.561229,53.712778 27.353405,53.688873 27.126953,53.677734 Z M 34.509766,59.054688 34.259766,59.251953 C 34.122187,59.360161 33.782105,59.522497 33.505859,59.613281 33.143138,59.732382 32.815163,59.956575 32.326172,60.417969 31.95373,60.769367 31.401492,61.220842 31.097656,61.421875 30.438484,61.858014 30.248047,62.105311 30.248047,62.525391 30.248047,62.784591 30.352328,62.939463 30.851562,63.414062 31.485204,64.016421 32.866368,65.150074 33.197266,65.339844 33.654199,65.601882 34.023568,65.424298 34.492188,64.716797 34.854417,64.169827 34.87174,63.881505 34.556641,63.566406 34.370994,63.380756 34.218152,63.329108 33.855469,63.328125 33.480702,63.327388 33.27269,63.252939 32.775391,62.9375 32.16556,62.550628 32.161261,62.545174 32.339844,62.347656 32.438966,62.238012 32.685686,62.08257 32.886719,62.001953 33.087718,61.921449 33.292878,61.776545 33.34375,61.681641 33.394558,61.586688 33.852623,61.285961 34.361328,61.011719 35.642369,60.321127 35.735544,59.991212 34.845703,59.3125 Z M 39.123047,62.179688 C 38.858287,62.161806 38.662109,62.185486 38.662109,62.261719 38.662109,62.312856 38.568388,62.441313 38.455078,62.546875 38.261491,62.727215 38.2556,62.780834 38.351562,63.427734 38.407726,63.806194 38.506627,64.177295 38.570312,64.253906 38.715401,64.427916 38.991912,64.433486 39.132812,64.263672 39.265334,64.103911 40.262995,63.871527 40.414062,63.964844 40.474663,64.002295 40.647824,64.309124 40.800781,64.646484 41.022866,65.136304 41.080078,65.396587 41.080078,65.941406 41.080078,67.220107 40.665094,67.680669 39.511719,67.681641 38.925382,67.681981 38.828698,67.653024 38.525391,67.386719 38.14398,67.051781 37.990617,66.653616 38.013672,66.066406 38.022478,65.843788 37.995305,65.628155 37.953125,65.585938 37.910995,65.543796 37.651019,65.626665 37.375,65.769531 37.098958,65.912322 36.771058,66.055828 36.646484,66.089844 36.508721,66.127435 36.362811,66.286821 36.275391,66.496094 36.146509,66.804923 36.148742,66.882229 36.292969,67.259766 36.629902,68.142036 37.866607,68.797008 39.521484,68.96875 L 40.525391,69.072266 40.792969,69.671875 C 40.940692,70.001117 41.119973,70.294738 41.191406,70.324219 41.393123,70.407746 41.792062,70.300143 41.925781,70.125 42.09998,69.89697 42.077156,69.62619 41.816406,68.855469 L 41.585938,68.173828 41.816406,67.861328 C 42.138993,67.424093 42.20837,67.394577 42.935547,67.392578 43.606938,67.391036 43.810545,67.293558 43.931641,66.912109 44.074809,66.460981 43.627377,66.134766 42.863281,66.134766 H 42.433594 L 42.429688,65.384766 C 42.424997,64.555125 42.288492,64.070974 41.939453,63.638672 41.609738,63.230313 40.594919,62.559096 39.994141,62.351562 39.719898,62.256866 39.387807,62.197569 39.123047,62.179688 Z M 16.951172,111.81445 C 16.689816,111.76031 16.320122,111.8904 16.314453,112.10742 16.310813,112.24541 16.117609,112.45582 15.732422,112.73633 15.119813,113.18242 14.587545,113.42416 13.6875,113.66797 12.768708,113.91688 12.684981,114.53354 13.470703,115.25781 14.006958,115.75209 14.296674,115.88859 14.630859,115.80469 14.998135,115.71249 15.85758,114.8708 16.539062,113.93359 L 17.119141,113.13281 17.333984,113.5957 C 17.765194,114.5201 19.05467,115.81941 20.121094,116.40625 V 116.4082 C 20.43721,116.58191 20.63437,116.62235 21.005859,116.58984 21.515982,116.54514 21.77986,116.33206 21.894531,115.875 22.007668,115.42424 21.795336,115.22138 20.347656,114.4082 19.321734,113.83194 18.85545,113.51056 18.623047,113.21875 18.447726,112.99862 18.18349,112.6908 18.037109,112.53516 17.890842,112.37953 17.771484,112.19164 17.771484,112.11914 17.771484,111.92006 17.587923,111.84779 17.425781,111.98242 17.309296,112.079 17.259293,112.06912 17.160156,111.93359 17.114433,111.87106 17.038291,111.8325 16.951172,111.81445 Z M 8.671875,117.22656 C 8.4087779,117.23214 8.1339228,117.45439 7.1816406,118.25977 6.7028954,118.66465 6.1588358,119.08921 5.9726562,119.20312 5.7864767,119.31706 5.4851977,119.56317 5.3046875,119.75 4.9944639,120.07104 4.9845861,120.10634 5.1015625,120.38867 5.2465452,120.73869 5.6308714,121.06836 5.8945312,121.06836 5.9965596,121.06836 6.2398429,121.17563 6.4355469,121.30859 6.676968,121.47267 6.9226207,121.55078 7.2011719,121.55078 7.7120242,121.55078 7.8091782,121.41583 8.1015625,120.29492 8.2195216,119.84277 8.3591326,119.3156 8.4101562,119.125 8.49944,118.79122 8.9188636,118.16437 8.9863281,118.26367 9.0043905,118.29027 9.1934626,118.6575 9.40625,119.08008 9.6190223,119.50266 9.9992917,120.08646 10.251953,120.37695 10.504618,120.66744 10.710938,120.93442 10.710938,120.9707 10.710938,121.09505 11.204064,121.26172 11.572266,121.26172 11.928479,121.26172 12.100082,121.16277 12.935547,120.48828 13.068526,120.38093 13.503388,120.20403 13.902344,120.09375 15.019187,119.78519 15.178167,119.54759 14.701172,118.89844 14.09043,118.06735 13.951279,117.94503 13.716797,118.01953 13.594359,118.05839 13.233055,118.34313 12.914062,118.6543 12.59507,118.96547 12.098358,119.38379 11.810547,119.58203 L 11.289062,119.94141 10.943359,119.60938 C 10.754239,119.42699 10.313114,118.85356 9.9609375,118.33398 9.4174301,117.53205 9.2657809,117.37169 8.9570312,117.2793 8.8476905,117.24654 8.759574,117.2247 8.671875,117.22656 Z M 4.6210938,124.16602 C 4.3567895,124.20307 4.0308865,124.4271 3.4941406,124.85938 2.9221205,125.32002 2.6835938,125.6477 2.6835938,125.9707 2.6835938,126.05555 2.5977497,126.41516 2.4921875,126.76953 2.3468118,127.25769 2.194847,127.52313 1.8652344,127.86719 1.3270145,128.42886 1.0115668,128.46686 0.57421875,128.01953 0.20977403,127.6467 -0.08026051,127.69183 0.02148438,128.10547 0.12295335,128.51815 0.34857643,128.80736 0.68359375,128.95312 0.85245548,129.0267 1.1005041,129.0898 1.234375,129.0918 1.5863246,129.09728 2.2225049,128.72817 2.7617188,128.20508 3.2189622,127.76156 3.2342959,127.75475 3.4160156,127.92773 3.5185051,128.02531 3.8358528,128.26251 4.1210938,128.45508 L 4.640625,128.80469 H 5.765625 C 6.7441674,128.80389 6.9548121,128.77261 7.3808594,128.57422 7.9877306,128.29164 8.7449398,127.34708 8.8398438,126.75391 8.8737461,126.54178 8.988339,126.28765 9.09375,126.18945 9.3514382,125.94931 9.3345237,125.55983 9.0546875,125.25977 8.8203455,125.00851 8.0074703,124.54883 7.796875,124.54883 7.5550004,124.54883 7.3257381,124.87181 7.3242188,125.2168 7.3211876,125.71446 7.0346898,126.28112 6.4667969,126.9082 6.1951698,127.2081 5.9726562,127.49613 5.9726562,127.54883 5.9726562,127.65542 5.2379079,127.66711 4.9960938,127.56445 4.9108654,127.52831 4.6146276,127.29501 4.3378906,127.04492 L 3.8339844,126.58984 4.2226562,126.39258 C 4.4362222,126.28359 4.7036507,126.19336 4.8183594,126.19336 5.0637112,126.19336 5.7792969,125.45512 5.7792969,125.20117 5.7792969,125.10688 5.598459,124.83389 5.3789062,124.5957 5.0874896,124.27955 4.885398,124.12896 4.6210938,124.16602 Z M 7.2011719,131.80273 C 7.0740059,131.80273 6.8911864,131.88962 6.7949219,131.99609 6.6986346,132.10242 6.5160042,132.18945 6.3886719,132.18945 6.0334152,132.18945 5.5859375,132.4598 5.5859375,132.67383 5.5859375,132.77737 5.8468723,133.26005 6.1660156,133.74609 6.4851778,134.23215 6.7460938,134.66002 6.7460938,134.69922 6.7460938,134.76986 4.6584752,134.89844 3.4980469,134.89844 3.0502787,134.89844 2.8470783,134.94184 2.7226562,135.06641 2.6299066,135.15916 2.4641046,135.27928 2.3535156,135.33398 1.9959648,135.51109 2.0535581,135.92609 2.5917969,137.02539 2.8652495,137.58393 3.2148981,138.38667 3.3691406,138.80859 3.5233945,139.23051 3.74541,139.67547 3.8613281,139.79883 4.0407612,139.98973 4.1671666,140.02344 4.7167969,140.02344 5.2347244,140.02344 5.3955149,139.98614 5.5332031,139.83398 5.8045543,139.53415 5.6574946,139.0724 5.0820312,138.41602 4.2656344,137.48483 3.3613281,136.18126 3.3613281,135.93555 3.3613281,135.91654 4.4232442,135.90325 5.7207031,135.90625 8.5744052,135.91446 8.4303088,135.97504 8.5175781,134.73828 8.5750269,133.924 8.5695324,133.89226 8.2421875,133.27539 8.0581245,132.92852 7.90625,132.56178 7.90625,132.46094 7.90625,132.20352 7.477342,131.80273 7.2011719,131.80273 Z M 10.791016,140.52539 C 10.301626,140.55466 9.5079738,140.70296 9.3945312,140.81641 9.3224935,140.88853 9.2360069,141.14319 9.203125,141.38281 9.1467874,141.79384 9.168878,141.84934 9.5859375,142.36133 L 10.027344,142.9043 9.5820312,143.01562 C 8.9014933,143.18698 8.4520917,143.45469 8.0253906,143.93945 7.5045755,144.5311 7.3261719,144.93501 7.3261719,145.5293 7.3261719,146.18103 7.5071377,146.58863 8.1503906,147.38477 8.951556,148.37636 9.250555,148.57013 10.046875,148.61523 11.028452,148.67069 11.277366,148.59246 12.306641,147.89453 12.822384,147.54485 13.280981,147.29464 13.324219,147.33984 13.419414,147.43954 13.806641,149.20799 13.806641,149.54297 13.806641,149.67423 13.881557,149.82666 13.974609,149.88086 14.269492,150.05264 14.429762,149.99681 15.029297,149.51367 15.458965,149.16749 15.654431,149.06465 15.765625,149.12695 15.953112,149.23187 16.224609,149.13707 16.224609,148.9668 16.224609,148.89714 16.120112,148.76156 15.994141,148.66406 15.676978,148.41857 14.793302,147.20752 14.169922,146.16602 13.788379,145.52862 13.588528,145.28553 13.425781,145.26172 13.149751,145.22153 13.014039,145.35296 12.888672,145.7793 12.811895,146.0405 12.626798,146.224 12.021484,146.63867 11.318451,147.12027 11.235601,147.15271 11.056641,147.02734 10.949022,146.95196 10.729405,146.89062 10.568359,146.89062 10.104267,146.89006 9.726529,146.58349 9.3027344,145.86523 8.7356163,144.90403 8.7320937,144.88285 9.0625,144.57422 9.4480496,144.21407 10.305254,143.98828 11.291016,143.98828 12.609402,143.98828 12.75736,143.62193 12.025391,142.17383 11.790799,141.70975 11.53131,141.16507 11.449219,140.96484 11.367014,140.76463 11.229394,140.57431 11.142578,140.54102 11.083734,140.51843 10.954145,140.51563 10.791016,140.52539 Z M 17.441406,150.39258 C 17.134713,150.33429 16.900391,150.63041 16.900391,151.23438 16.900391,151.56693 16.810779,151.82008 16.507812,152.33008 16.09561,153.02392 15.755475,153.32304 14.726562,153.89844 14.396205,154.08321 14.068976,154.30177 14,154.38477 13.886501,154.52082 13.858464,154.52146 13.703125,154.38086 13.457301,154.15836 13.08874,154.23574 13.048828,154.51758 12.992396,154.91628 13.106187,155.14468 13.958984,156.36133 14.418129,157.01634 14.858281,157.74415 14.9375,157.97656 15.016685,158.20896 15.204111,158.52943 15.353516,158.68945 15.587793,158.94021 15.694425,158.98047 16.125,158.98047 16.662672,158.98047 16.998047,158.8563 16.998047,158.65625 16.998047,158.58761 17.107271,158.42956 17.240234,158.30469 17.540934,158.02213 17.566015,157.42773 17.296875,156.98633 17.195897,156.82073 16.677668,156.3656 16.144531,155.97266 15.611399,155.57972 15.172504,155.23578 15.167969,155.20898 15.155375,155.12479 16.651349,154.43464 16.853516,154.43164 17.149921,154.42684 17.410223,154.24003 17.902344,153.68164 L 18.351562,153.17188 V 152.26758 C 18.351562,151.40792 18.335805,151.33952 18.037109,150.89258 17.83563,150.5911 17.625422,150.42755 17.441406,150.39258 Z M 23.396484,161.12695 C 23.02857,161.15793 22.867519,161.35383 22.753906,161.9082 L 22.699219,162.17773 22.386719,161.94336 C 21.80932,161.51127 21.481204,161.39844 20.8125,161.39844 20.337531,161.39844 20.072304,161.45036 19.806641,161.59961 L 19.447266,161.80273 18.853516,161.50391 C 17.897635,161.02137 17.384766,161.14666 17.384766,161.86133 17.384766,162.16485 17.461104,162.28293 17.933594,162.72266 18.235038,163.00321 18.560729,163.25807 18.658203,163.28906 18.938066,163.3779 18.867273,163.49251 18.423828,163.66992 17.734102,163.94588 17.664938,164.33266 18.230469,164.75 18.429948,164.89719 18.801976,165.18857 19.056641,165.39648 19.748744,165.96144 20.285156,165.85592 20.285156,165.15625 20.285156,165.00998 20.33276,164.86208 20.390625,164.82617 20.448301,164.79042 20.47284,164.66935 20.443359,164.55664 20.369568,164.27451 21.10766,163.13867 21.365234,163.13867 21.514359,163.13867 22.065298,163.3626 22.201172,163.47852 22.21697,163.49197 22.075393,163.7837 21.886719,164.12695 21.555897,164.72867 21.453182,165.26441 21.619141,165.52539 21.659154,165.58831 21.950526,165.7966 22.265625,165.98633 22.899694,166.36817 23.100723,166.40318 23.326172,166.17773 23.513447,165.98998 23.514495,165.94128 23.333984,165.68359 23.203439,165.49715 23.212984,165.42721 23.439453,164.91406 23.576763,164.603 23.701237,164.33543 23.714844,164.32031 23.774549,164.25856 24.687071,164.70911 24.949219,164.92969 25.427783,165.33236 25.896484,165.20567 25.896484,164.67383 25.896484,164.28231 25.457221,163.83202 24.742188,163.49023 L 24.105469,163.1875 24.138672,162.41406 C 24.167623,161.73381 24.146487,161.60752 23.958984,161.36914 23.784272,161.14702 23.68199,161.10276 23.396484,161.12695 Z M 25.951172,167.89648 C 25.63269,167.90907 25.390834,168.16634 25.582031,168.43359 25.648627,168.52669 25.755468,168.71274 25.818359,168.8457 25.881289,168.97866 26.019438,169.18499 26.125,169.30469 26.467675,169.69342 26.863969,169.52629 26.863281,168.99414 26.862858,168.64394 26.56852,168.1273 26.283203,167.97461 26.173319,167.9158 26.057333,167.89229 25.951172,167.89648 Z M 23.894531,168.36133 C 23.554185,168.36133 23.408725,168.42368 23.101562,168.70117 22.626842,169.13004 22.444722,169.54128 22.587891,169.85547 22.645007,169.98083 22.900074,170.35031 23.15625,170.67773 24.050826,171.82108 24.418965,172.4004 24.488281,172.77344 24.526643,172.98012 24.625532,173.22527 24.708984,173.31836 24.945609,173.58205 25.405757,173.52525 26.851562,173.05273 28.178505,172.61951 28.188324,172.61719 29.570312,172.61719 30.725136,172.61719 30.987477,172.5903 31.134766,172.45703 31.385311,172.23024 31.354434,171.98941 31.013672,171.49414 30.85034,171.25671 30.635843,170.87604 30.535156,170.64844 30.43447,170.42082 30.26437,170.15666 30.158203,170.06055 29.89666,169.82385 29.529597,169.9256 29.384766,170.27539 29.307656,170.46157 29.082075,170.64704 28.671875,170.85938 28.341582,171.03036 27.898334,171.29674 27.685547,171.45117 27.381662,171.67175 27.170189,171.74043 26.701172,171.76953 L 26.103516,171.80664 25.986328,171.38477 C 25.921475,171.15316 25.718615,170.71553 25.535156,170.41211 25.351721,170.1087 25.072337,169.57817 24.916016,169.23242 24.575201,168.47867 24.438727,168.36133 23.894531,168.36133 Z M 32.017578,174.0957 C 31.948746,174.09661 31.878009,174.11973 31.798828,174.16211 31.649764,174.24189 31.601562,174.36438 31.601562,174.66406 31.601562,174.99399 31.543128,175.116 31.251953,175.39062 30.679551,175.93047 28.603463,176.8447 28.1875,176.74023 28.057261,176.70747 27.872457,176.74624 27.75,176.83203 27.579468,176.95141 27.539062,177.07608 27.539062,177.47656 27.539063,177.90881 27.615592,178.10413 28.132812,178.99414 28.459341,179.55602 28.937889,180.32099 29.195312,180.69531 29.452747,181.06965 29.71236,181.52024 29.773438,181.69531 29.834477,181.87036 29.976836,182.05087 30.089844,182.09766 30.344093,182.20288 30.63568,182.14432 31.207031,181.87109 31.574076,181.69558 31.665589,181.59698 31.740234,181.29492 31.869037,180.77351 31.700087,180.49265 30.474609,179.18945 28.999864,177.62139 29.076057,177.77945 29.716797,177.64648 30.015928,177.58437 30.555978,177.41217 30.916016,177.26367 31.276091,177.11518 31.90863,176.91392 32.322266,176.81641 33.528812,176.53196 33.604154,176.17636 32.742188,174.81641 32.412039,174.29552 32.224073,174.09297 32.017578,174.0957 Z M 35.023438,181.05859 C 34.77157,181.0775 34.656342,181.33227 34.591797,181.92383 34.5554,182.25724 34.433472,182.77343 34.320312,183.07031 34.152331,183.51081 34.018665,183.67904 33.589844,183.98828 33.300812,184.19671 33.017441,184.46724 32.960938,184.58984 32.904509,184.7126 32.815603,184.78799 32.763672,184.75586 32.711817,184.72373 32.584633,184.74312 32.480469,184.79883 32.299146,184.89586 32.308231,184.93489 32.714844,185.69922 33.302231,186.80343 33.61869,187.6823 33.835938,188.81641 33.985369,189.59633 34.069077,189.82647 34.267578,190.00195 34.539266,190.24214 35.081784,190.29032 35.658203,190.125 36.053421,190.01166 36.144984,189.88876 36.146484,189.4668 36.148128,189.11223 36.113762,189.05375 35.058594,187.57617 34.646342,186.99888 34.310547,186.47635 34.310547,186.41406 34.310547,186.35174 34.397437,186.24609 34.503906,186.17969 34.610224,186.11324 34.697266,185.9733 34.697266,185.86914 34.697266,185.76498 34.881368,185.46695 35.107422,185.20703 35.333487,184.94714 35.594448,184.60921 35.6875,184.45508 35.780639,184.30095 35.967238,184.02465 36.101562,183.8418 36.23591,183.65897 36.414293,183.2666 36.498047,182.9707 36.581877,182.6748 36.712451,182.33414 36.789062,182.21289 36.9506,181.95715 36.890084,181.80469 36.626953,181.80469 36.520711,181.80469 36.381373,181.68707 36.298828,181.52734 36.150327,181.24018 35.907216,181.08564 35.751953,181.18164 35.703246,181.21173 35.510625,181.18059 35.324219,181.11328 35.206224,181.07061 35.107393,181.05229 35.023438,181.05859 Z M 40.513672,188.20703 C 40.421073,188.22469 40.317405,188.38876 40.265625,188.59766 40.211498,188.81615 39.955404,189.20834 39.613281,189.59375 39.303266,189.94297 39.048828,190.30198 39.048828,190.39258 39.048828,190.48887 38.870177,190.65204 38.619141,190.78516 38.382882,190.9105 37.903915,191.28072 37.554688,191.60742 L 36.919922,192.20117 V 192.75977 C 36.920224,193.06635 36.873666,193.39197 36.816406,193.48438 36.732482,193.61982 36.799122,193.78347 37.15625,194.32617 37.41607,194.72098 37.696133,195.31898 37.835938,195.77539 38.099748,196.63661 38.289197,196.96076 38.599609,197.08594 38.926735,197.21792 39.797081,197.19493 40.15625,197.04492 40.517754,196.89387 40.693359,196.64343 40.693359,196.27734 40.693359,195.85708 40.586558,195.72955 39.980469,195.42383 39.311001,195.08615 38.235468,194.05634 38.023438,193.54883 37.948792,193.36998 37.888672,193.09835 37.888672,192.94531 37.888672,192.64137 38.193775,192.29504 38.392578,192.37305 38.461059,192.39991 39.002468,192.80968 39.595703,193.28516 40.61551,194.10253 40.711631,194.15681 41.353516,194.27148 41.899264,194.36872 42.076812,194.36761 42.257812,194.26953 42.381637,194.20237 42.634512,194.12279 42.820312,194.0918 43.098603,194.04553 43.198196,193.95877 43.386719,193.60156 43.512577,193.36305 43.616416,193.07401 43.617188,192.95703 43.618634,192.74197 43.273706,192.24221 42.617188,191.51172 41.957082,190.77725 41.757813,190.37485 41.757812,189.77734 41.757812,189.24635 41.745232,189.22486 41.214844,188.70703 40.908003,188.40745 40.604154,188.18965 40.513672,188.20703 Z M 41.171875,191.00391 41.320312,191.50195 C 41.40161,191.77577 41.580167,192.16036 41.716797,192.35742 41.876558,192.58796 41.954003,192.81362 41.933594,192.99023 41.903694,193.25144 41.876426,193.26771 41.359375,193.29492 40.750145,193.32702 40.649321,193.26636 39.605469,192.25977 38.824342,191.50654 38.844171,191.4535 39.966797,191.32617 40.285955,191.29 40.687633,191.203 40.859375,191.13281 Z M 44.630859,196.21484 C 43.311041,196.21484 43.173617,196.62782 44.035156,198 44.622559,198.93563 44.623955,198.92896 43.933594,199.13672 43.720837,199.20074 43.492339,199.32884 43.425781,199.41992 43.285939,199.61148 42.292511,199.85736 41.283203,199.95117 40.46873,200.02688 40.272167,200.20857 40.548828,200.63086 40.636778,200.76488 40.684596,200.89743 40.65625,200.92578 40.572877,201.00916 41.032507,201.84378 41.457031,202.38086 41.753724,202.75617 41.925902,202.88628 42.166016,202.91992 42.637497,202.98591 43.402965,202.91069 43.556641,202.7832 43.635066,202.71809 43.691406,202.49146 43.691406,202.24023 43.691406,201.84292 43.643806,201.75829 43.095703,201.1875 42.768105,200.84636 42.517141,200.56737 42.539062,200.56641 42.56078,200.56573 42.992709,200.478 43.498047,200.37305 44.029724,200.26268 44.800854,200.18262 45.328125,200.18164 46.443331,200.18011 46.591797,200.08629 46.591797,199.39453 46.591797,198.88956 46.283639,197.94818 46.056641,197.75977 45.978782,197.69521 45.91435,197.57089 45.914062,197.48438 45.912966,197.16285 45.702713,196.58357 45.521484,196.40234 45.370719,196.25147 45.197868,196.21484 44.630859,196.21484 Z M 69.441406,201.14844 C 68.577909,201.14719 68.424351,201.17331 68.255859,201.3418 67.924229,201.67343 68.036051,203.1514 68.425781,203.58984 68.639857,203.83071 69.054698,203.80178 69.3125,203.52734 69.615316,203.20497 70.196097,203.08203 71.425781,203.08203 72.41485,203.08203 72.492101,203.09595 72.699219,203.31641 72.820466,203.44544 72.893895,203.59123 72.863281,203.64062 72.832762,203.68999 72.556078,203.75694 72.248047,203.78906 70.496474,203.97213 69.61376,204.8347 70.328125,205.66406 70.67148,206.06264 71.359277,206.03127 72.271484,205.57422 73.200598,205.10869 73.382812,205.05744 73.382812,205.26758 73.382812,205.36006 73.31866,205.50705 73.240234,205.59375 73.161885,205.6804 73.061156,205.92297 73.017578,206.13281 72.962473,206.39825 72.881603,206.52584 72.75,206.55078 72.645942,206.57045 72.383855,206.74892 72.167969,206.94727 71.952093,207.14565 71.46368,207.49001 71.082031,207.71289 70.305962,208.16612 70.191406,208.31502 70.191406,208.87305 70.191406,209.29056 70.433234,209.55841 70.816406,209.56445 70.924248,209.56627 71.097915,209.63285 71.201172,209.71094 71.467602,209.91242 71.662312,209.88986 72.345703,209.57812 72.790788,209.37509 73.126167,209.11363 73.632812,208.57812 74.482031,207.68057 74.542969,207.4723 74.542969,205.4707 V 203.98047 L 74.916016,203.55469 C 75.31784,203.09639 75.621348,202.18775 75.435547,202.00195 75.306771,201.87317 74.891239,202.09543 74.421875,202.54297 74.222252,202.73327 74.024601,202.88867 73.982422,202.88867 73.940148,202.88867 73.735445,202.71508 73.527344,202.50195 73.299654,202.26877 72.935713,202.03391 72.613281,201.91406 72.318531,201.80453 71.979514,201.65278 71.861328,201.57617 71.482703,201.33099 70.461255,201.14944 69.441406,201.14844 Z M 49.244141,201.61328 C 48.813732,201.59231 48.303413,201.99391 48.144531,202.58398 48.036849,202.98412 48.033906,202.98438 47.578125,202.98438 47.013241,202.98438 46.689453,203.19 46.689453,203.54883 46.689453,204.04244 47.240918,204.5332 47.796875,204.5332 48.029656,204.5332 48.043724,204.56159 48.044922,205.04102 48.045678,205.32027 48.074225,205.65685 48.109375,205.78906 48.15897,205.97454 47.971194,205.84221 47.283203,205.20898 46.14354,204.15991 45.90732,204.02618 45.292969,204.08008 44.727321,204.12966 44.367188,204.46174 44.367188,204.93555 44.367188,205.35542 44.757759,205.67307 45.8125,206.11719 46.553749,206.42933 46.741367,206.55486 46.933594,206.85938 47.060699,207.06072 47.208276,207.25227 47.261719,207.28516 47.317807,207.31983 47.216798,207.5299 47.023438,207.7832 46.637963,208.28823 46.575228,208.8677 46.847656,209.39453 47.210123,210.09545 48.248571,211.01019 48.912109,211.21289 H 48.914062 C 49.287664,211.32627 49.434085,211.31477 49.666016,211.15234 49.920264,210.97429 49.955125,210.42766 49.736328,210.04492 49.660322,209.91194 49.59525,209.63868 49.59375,209.4375 49.591747,209.23632 49.524796,208.91667 49.445312,208.72656 49.365478,208.53646 49.330463,208.33034 49.365234,208.26953 49.613988,207.83367 50.494428,206.56088 50.617188,206.45898 50.700182,206.39009 50.897043,206.14513 51.054688,205.91602 51.212324,205.68688 51.416562,205.5 51.509766,205.5 51.97272,205.5 52.083519,204.78763 51.646484,204.61914 51.229712,204.4584 50.416164,204.40151 50.199219,204.51758 50.091442,204.57528 49.81301,204.90598 49.580078,205.25195 49.053363,206.03442 49.003798,205.94757 49.099609,204.42969 49.169092,203.32859 49.299194,202.88037 49.632812,202.60352 49.828074,202.44151 49.828252,201.97864 49.632812,201.7832 49.523405,201.67379 49.38761,201.62027 49.244141,201.61328 Z M 66.175781,204.05664 C 66.026123,204.03933 65.90896,204.11025 65.847656,204.27148 65.727713,204.58697 65.062591,205.1597 64.464844,205.46289 64.18367,205.60553 63.322081,205.92577 62.550781,206.17578 61.551588,206.49968 61.139864,206.67735 61.117188,206.79297 61.03476,207.21451 62.399822,209.1777 62.917969,209.38281 63.061825,209.43973 63.294344,209.5472 63.435547,209.62109 63.739066,209.7798 65.781238,209.80865 66.171875,209.66016 66.402955,209.57224 66.419922,209.58682 66.419922,209.84961 66.419922,210.00476 66.381631,210.15329 66.335938,210.18164 66.29013,210.20996 66.178927,210.49292 66.089844,210.81055 65.987948,211.17372 65.867987,211.40771 65.763672,211.43945 65.672502,211.46746 65.118323,211.49962 64.533203,211.51172 63.948068,211.52313 63.414214,211.57323 63.347656,211.62305 63.074022,211.82821 63.371968,213.02704 63.732422,213.17188 63.800336,213.1993 64.080407,213.22556 64.353516,213.23047 64.994316,213.24032 66.235235,212.64141 66.744141,212.07812 67.29817,211.46491 67.385865,211.14866 67.384766,209.76758 67.383934,208.67073 67.360531,208.49323 67.144531,208.0293 66.867061,207.43329 66.613281,206.51738 66.613281,206.11133 66.613281,205.95738 66.700171,205.65984 66.806641,205.45117 67.071381,204.93174 67.049415,204.73856 66.689453,204.36719 66.505702,204.17761 66.32544,204.07395 66.175781,204.05664 Z M 54.554688,205.51562 C 54.297341,205.49433 54.121297,205.5408 53.964844,205.65039 53.775981,205.78262 53.75,205.88702 53.75,206.50781 53.75,207.07645 53.787946,207.26375 53.949219,207.46875 54.145501,207.71865 54.173633,207.72461 55.289062,207.72461 56.526215,207.72461 56.988799,207.83096 57.261719,208.17773 57.358701,208.30083 57.517168,208.40234 57.613281,208.40234 57.932462,208.40234 58.055746,208.91502 57.921875,209.69531 57.857169,210.07284 57.769347,210.4162 57.726562,210.45898 57.683805,210.50177 57.34799,210.64384 56.980469,210.77344 56.175936,211.05724 55.0668,211.09789 54.609375,210.86133 53.677623,210.3795 53.177817,211.45156 53.949219,212.27734 L 54.240234,212.58789 54.986328,212.52539 C 56.432682,212.40345 56.8513,212.30078 57.361328,211.94531 L 57.845703,211.60742 58.189453,211.89062 C 58.598855,212.22799 59.236599,212.2842 59.470703,212.00391 59.658546,211.779 59.841797,211.33647 59.841797,211.11133 59.841797,210.83307 59.376173,210.33594 59.115234,210.33594 58.816614,210.33594 58.7624,210.23047 58.833984,209.7832 58.890949,209.42759 58.90749,209.41211 59.269531,209.41211 59.813451,209.41211 59.937253,209.23866 59.964844,208.43164 59.98359,207.88273 59.952456,207.70796 59.8125,207.55273 59.57123,207.28514 59.191703,207.23186 58.755859,207.40625 L 58.386719,207.55273 57.929688,207.12891 C 57.249913,206.49887 56.583709,206.11115 55.630859,205.78906 55.150842,205.62681 54.812034,205.53692 54.554688,205.51562 Z M 64.78125,206.86523 65.296875,207.66406 C 65.580294,208.10339 65.92645,208.55201 66.066406,208.66211 L 66.320312,208.86328 66.103516,208.92188 C 65.984362,208.95369 65.46022,208.97951 64.9375,208.98047 64.021762,208.98175 63.977306,208.97145 63.712891,208.70703 63.433281,208.42743 63.23993,207.69927 63.361328,207.38281 63.429239,207.20584 63.900197,207.00048 64.416016,206.92188 Z"
       transform="matrix(0.26458333,0,0,0.26458333,13.831995,-32.499635)"
       id="path1143"
       inkscape:connector-curvature="0" />
  </g>
  <g
     id="g2218"
     inkscape:groupmode="layer"
     inkscape:label="B.Cu-disabled"
     transform="translate(-13.832236,32.749637)" />
  <g
     id="g2220"
     inkscape:groupmode="layer"
     inkscape:label="B.Adhes-disabled"
     transform="translate(-13.832236,32.749637)" />
  <g
     id="g2222"
     inkscape:groupmode="layer"
     inkscape:label="F.Adhes-disabled"
     transform="translate(-13.832236,32.749637)" />
  <g
     id="g2224"
     inkscape:groupmode="layer"
     inkscape:label="B.Paste-disabled"
     transform="translate(-13.832236,32.749637)" />
  <g
     id="g2226"
     inkscape:groupmode="layer"
     inkscape:label="F.Paste-disabled"
     transform="translate(-13.832236,32.749637)" />
  <g
     id="g2228"
     inkscape:groupmode="layer"
     inkscape:label="B.SilkS-disabled"
     transform="translate(-13.832236,32.749637)" />
  <g
     id="g2230"
     inkscape:groupmode="layer"
     inkscape:label="F.SilkS"
     transform="translate(-13.832236,32.749637)"
     style="display:inline">
    <path
       style="display:inline;fill:#000080;fill-opacity:1;stroke-width:0.09671501"
       d="M 62.529297,157.5293 79.814453,184.6875 85.521484,184.69141 87.019531,187.64453 80.685547,188.00977 81.136719,189.77344 87.875,189.61133 89.535156,192.7793 81.216797,193.16016 C 81.192082,195.34311 81.027468,196.96515 80.740234,198.82422 81.600626,199.37137 82.245509,200.52242 83.021752,200.35843 83.512362,200.25478 83.563035,199.22398 83.742188,197.76367 85.006438,198.7917 86.334964,199.10708 87.248047,200.01171 88.044064,200.80036 86.489377,213.56825 94.3125,213.60351 101.33696,213.63517 101.04821,206.84974 101.32227,205.9707 L 119.66016,186.46289 108.53711,185.16211 101.87109,191.27734 C 101.05295,192.02788 101.33498,192.83674 102.6543,193.06836 L 104.92383,193.4668 100.86328,197.76172 C 100.03272,197.77002 95.924061,198.32352 95.921875,194.95118 95.919259,190.91529 98.104416,189.02465 97.381706,188.17929 L 96.030109,187.69137 C 95.61857,187.67936 92.49141,188.83446 91.082031,185.78906 91.757525,184.25643 92.697184,182.92329 94.035156,181.94727 94.165446,181.85222 94.356514,181.21509 94.191406,180.86133 93.945713,180.33489 93.477561,179.73325 93.02903,178.98931 92.580498,178.24538 92.151587,177.35915 91.984375,177.32422 90.41342,176.99605 87.271484,176.33984 87.271484,176.33984 L 82.160156,168.74805 74.488281,163.93555 86.033203,181.4082 82.103516,181.29102 67.734375,160.00977 Z M 94.65625,203.99219 C 96.484362,203.99279 97.966191,205.47462 97.966797,207.30273 97.967273,209.13161 96.485128,210.61463 94.65625,210.61523 92.82661,210.61571 91.343274,209.13237 91.34375,207.30273 91.344357,205.47386 92.827375,203.99171 94.65625,203.99219 Z"
       id="path900-7"
       inkscape:connector-curvature="0"
       sodipodi:nodetypes="ccccccccccscsscccssccscccsssscccccccccccc"
       transform="matrix(0.26458333,0,0,0.26458333,13.831995,-32.499635)" />
    <path
       inkscape:connector-curvature="0"
       style="display:inline;fill:#000080;fill-opacity:1;stroke-width:0.02558918"
       d="M 22.335122,-4.0249738 24.397199,-4.3340598 25.217073,-5.5337968 21.941948,-5.2136478 25.2839,-7.3756102 25.64343,-6.8156138 26.41024,-7.3864022 26.064173,-7.8680682 26.684407,-8.2913252 27.028942,-7.8632662 27.656995,-8.2885652 V -13.11032 L 32.654223,-13.103698 29.801995,-10.735971 V -6.7978972 C 28.828406,-5.7819575 26.764183,-3.6622859 26.553848,-3.8274245 26.343513,-3.9925631 27.683231,-5.7000108 28.340291,-6.4654014 L 28.335474,-7.2610438 25.277183,-3.2614018 22.921115,-3.0938568 Z"
       id="path876-4"
       sodipodi:nodetypes="ccccccccccccccczccccc" />
    <path
       style="fill:#000080;stroke-width:0.02558918"
       d="M 56.273707,10.933458 C 56.213447,10.801201 56.410195,10.267269 56.620917,9.9912079 56.724949,9.8549219 56.950567,9.5309519 57.165234,9.2096129 57.341372,8.9459479 57.439339,8.8213739 57.681235,8.5534469 57.770375,8.4547069 57.911441,8.2724139 57.994702,8.1483429 58.155056,7.9093979 58.181736,7.8020409 58.116392,7.6586309 58.087942,7.5961909 58.077502,7.5934509 57.868218,7.5934509 57.429002,7.5934509 57.085406,7.7558309 56.705703,8.1428449 56.301351,8.5549809 56.09714,8.8541189 55.820698,9.4392509 55.566298,9.9777279 55.528561,10.088908 55.51571,10.337836 55.50821,10.482661 55.515181,10.588632 55.53579,10.638011 55.57706,10.737661 55.55018,10.837917 55.47275,10.873202 55.42002,10.897222 55.39907,10.891402 55.330756,10.833952 55.286676,10.796882 55.240646,10.766512 55.228476,10.766512 55.216306,10.766512 55.140536,10.708942 55.060127,10.638564 54.979707,10.568194 54.906753,10.51062 54.897998,10.51062 54.889298,10.51062 54.807558,10.38421 54.716462,10.229707 L 54.550833,9.9487929 45.947091,9.9258329 52.401517,3.3257009 53.056231,3.9802889 48.78212,8.4376086 H 49.790897 L 53.579185,4.4933799 54.330472,5.2828409 51.340556,8.4376086 H 52.331815 L 54.857477,5.7968489 55.614974,6.6413039 53.86185,8.4376086 H 54.883964 L 56.325661,6.9665829 57.767357,5.4952719 57.835187,5.5453819 C 57.872507,5.5729419 58.018168,5.7005949 58.158908,5.8290599 58.593631,6.2258639 59.156987,6.6203069 59.755813,6.9471659 60.04249,7.1036379 60.408281,7.1829199 60.845772,7.1833959 61.112375,7.1836609 61.189942,7.1732859 61.434322,7.1042859 61.58914,7.0605959 61.804903,7.0135259 61.913797,6.9996929 L 62.111788,6.9745329 62.243394,7.0856729 C 62.506115,7.3075479 62.774953,7.5787849 62.78947,7.6366289 62.79767,7.6691889 62.81479,7.6958089 62.82759,7.6958089 62.89779,7.6958089 62.92462,7.7770689 62.92635,7.9949469 62.92795,8.1825549 62.90884,8.2955349 62.812905,8.6681979 62.749525,8.9144959 62.691884,9.1361609 62.684809,9.1607909 62.672639,9.2031109 62.764709,9.2055709 64.364442,9.2055709 H 66.05694 L 66.242233,9.1433709 C 66.872409,8.9318309 68.283834,8.1639389 68.68793,7.8127839 68.79298,7.7214939 68.933252,7.6172409 68.999649,7.5811069 69.117015,7.5172269 69.131821,7.5155969 69.533562,7.5224369 L 69.946764,7.5295369 69.48414,8.0221939 C 69.011669,8.5253419 68.97513,8.5809779 69.044869,8.6911079 69.069659,8.7302779 69.457769,8.7938119 69.681258,8.7953009 69.877518,8.7966009 69.978821,8.7425909 70.196513,8.5205759 70.37562,8.3378999 70.901765,7.7053449 71.081443,7.4566599 71.123663,7.3982199 71.262656,7.2237479 71.390318,7.0689319 71.517977,6.9141189 71.717875,6.6665429 71.834535,6.5187629 71.951192,6.3709879 72.057962,6.2385639 72.0718,6.2244879 72.08828,6.2077379 72.09373,6.4769429 72.08757,7.0056779 L 72.07817,7.8124559 71.99306,7.9183639 C 71.94625,7.9766139 71.883203,8.0309229 71.85295,8.0390559 71.82269,8.0471559 71.74037,8.1313759 71.669999,8.2261449 71.599629,8.3209149 71.450431,8.5080989 71.338449,8.6421099 71.22647,8.7761219 70.974314,9.1043869 70.778107,9.3715899 70.373448,9.9226859 70.231507,10.095212 70.165382,10.116361 70.140062,10.124461 70.089892,10.111761 70.053889,10.088191 70.006539,10.057161 69.980699,10.053051 69.960459,10.073271 69.919609,10.114121 69.800592,10.107441 69.763026,10.062181 69.734176,10.027401 69.253741,10.023251 65.403336,10.024541 63.02334,10.025335 60.980439,10.025841 60.863557,10.025335 L 60.651041,10.024541 60.767598,9.8814569 C 60.837718,9.7953769 60.884152,9.7125069 60.884152,9.6734499 60.884152,9.6269599 60.944242,9.5458969 61.095822,9.3879169 61.212238,9.2665839 61.330266,9.1396869 61.358108,9.1059319 L 61.408728,9.0445619 61.21681,9.0610719 C 60.671067,9.1080919 60.078784,9.3824349 59.486208,9.8626669 59.341634,9.9798299 59.209678,10.075686 59.19297,10.075686 59.1763,10.075686 59.08071,10.138126 58.980618,10.214436 58.665266,10.454873 58.229021,10.689826 58.097952,10.689826 58.037462,10.689826 57.966983,10.610486 57.966983,10.54239 57.966983,10.51277 58.030983,10.410045 58.109202,10.314099 58.187422,10.218159 58.321678,10.048696 58.407544,9.9375119 58.493414,9.8263349 58.634498,9.6593639 58.721075,9.5664689 58.88699,9.3884459 59.176235,8.9853929 59.268514,8.8036459 59.347094,8.6488649 59.342894,8.4532399 59.258324,8.3287659 59.192644,8.2321159 59.134211,8.2068119 59.111615,8.2652559 59.077165,8.3543159 58.436719,9.1470509 57.291272,10.518402 57.060113,10.795143 56.943101,10.894542 56.848452,10.894542 56.820652,10.894542 56.730969,10.917562 56.649152,10.945722 56.437289,11.018612 56.310625,11.014502 56.273734,10.933552 Z"
       transform="translate(7.916667e-8,1.0208333e-6)"
       id="path884"
       inkscape:connector-curvature="0"
       sodipodi:nodetypes="ccccccscscccsscsscccccccccccccccccccccccccscccscsccccccccccccsccccccccccccccscccccscssccsccccsccc" />
    <path
       style="fill:#000080;stroke-width:0.02558918"
       d="M 43.106876,9.9216086 52.375995,0.22060861 57.195774,5.0140369 56.16075,6.0868529 52.375995,2.3010309 44.854805,9.9216086 Z"
       id="path878"
       transform="translate(7.916667e-8,1.0208333e-6)"
       inkscape:connector-curvature="0"
       sodipodi:nodetypes="ccccccc" />
    <path
       style="fill:#000080;stroke-width:0.09671501"
       d="M 150.65039,59.566406 C 149.45363,59.553924 148.1951,59.57846 147.51367,59.648438 146.03221,59.800586 143.01206,60.426073 142.08984,60.771484 140.77413,61.264274 139.26332,61.989357 138.53125,62.480469 137.68322,63.049367 136.34923,64.271999 135.82812,64.957031 135.3661,65.564401 134.50586,66.960057 134.50586,67.101562 134.50586,67.15121 134.30487,67.504076 134.05859,67.884766 133.57069,68.638974 133.28834,69.430248 133.1875,70.337891 133.15186,70.658561 133.06419,71.090702 132.99219,71.296875 132.78189,71.898504 132.82048,73.527991 133.06445,74.320312 133.23471,74.873261 133.85582,75.915187 134.31836,76.423828 134.36163,76.471367 134.38949,75.988383 134.37891,75.351562 134.36167,74.287694 134.38094,74.147351 134.61523,73.621094 134.75547,73.306074 135.09747,72.506407 135.375,71.84375 135.96377,70.437917 136.38355,69.78894 137.22852,68.980469 138.64052,67.629492 139.64851,66.97398 140.99414,66.53125 142.40077,66.068167 146.39502,65.769373 147.20703,66.066406 147.42929,66.147704 147.87226,66.287013 148.19141,66.375 149.26117,66.670219 150.83386,67.667733 151.71289,68.607422 152.33241,69.269705 152.9175,70.231963 153.0293,70.775391 153.06758,70.96157 153.20304,71.296022 153.33203,71.517578 153.75916,72.251498 153.76925,72.415322 153.50586,74.351562 153.16851,76.831681 153.01554,77.833172 152.96875,77.867188 152.87989,77.931855 142.57652,77.722102 142.50781,77.654297 142.46696,77.613977 142.61867,77.433408 142.8457,77.251953 143.91062,76.400822 147.44621,73.029334 147.34961,72.957031 147.33374,72.945315 146.39779,72.955902 145.27148,72.980469 L 143.22461,73.025391 141.30859,74.632812 C 140.25505,75.517282 138.65112,76.958248 137.74414,77.835938 136.83716,78.713616 135.75924,79.710397 135.34766,80.050781 134.93608,80.391188 134.6245,80.69639 134.65625,80.728516 134.71756,80.789971 139.20889,80.879921 147.24805,80.982422 L 152.10742,81.044922 V 81.785156 C 152.10682,82.192763 152.0778,82.691142 152.04492,82.890625 L 151.98633,83.251953 H 142.79492 133.60352 L 132.67578,82.556641 C 128.62256,79.516003 124.16077,75.583155 123.75586,74.693359 123.652,74.465065 123.57912,74.077433 123.57812,73.748047 123.57473,72.858051 124.05852,72.28088 125.26953,71.724609 125.70897,71.522669 125.91816,71.499428 127.56445,71.470703 L 129.375,71.4375 129.95508,70.261719 C 131.43205,67.258691 133.06073,64.519185 133.93359,63.572266 134.45211,63.009743 134.39897,62.869325 133.68555,62.912109 133.08811,62.947988 132.17852,63.273775 130.25781,64.140625 L 129.05664,64.683594 H 125.75977 122.46484 L 122.46289,65.820312 C 122.46195,66.839103 122.43559,67.011265 122.21094,67.492188 121.90045,68.156855 121.44788,68.682302 120.92773,68.980469 119.70063,69.683918 116.99179,69.760917 114.38867,69.166016 112.95728,68.838905 111.89471,68.032946 111.25586,66.791016 110.94843,66.193325 110.90625,66.030065 110.90625,65.398438 V 64.683594 H 106.69922 C 104.23566,64.683594 102.49219,64.719969 102.49219,64.771484 102.49219,64.877946 103.23208,65.842056 103.44336,66.011719 103.52617,66.078276 103.67635,66.132812 103.77734,66.132812 103.88875,66.132813 104.75239,66.942681 105.97461,68.189453 107.08272,69.319812 108.81883,71.083354 109.83203,72.109375 L 111.67383,73.974609 112.76562,74.298828 C 116.48749,75.405187 119.44268,76.80013 123.06055,79.15625 124.88297,80.343101 125.42698,80.752861 126.19141,81.511719 126.70046,82.01706 127.54639,82.777588 128.07031,83.203125 128.59422,83.628677 129.98775,84.957457 131.16797,86.154297 134.78361,89.820877 136.3834,91.665457 137.43164,93.380859 L 137.91992,94.181641 H 141.91992 145.91797 V 96.453125 98.726562 H 144.57812 C 143.11527,98.726563 142.6791,98.818963 142.5918,99.144531 142.51602,99.43131 142.52044,108.21791 142.59766,108.86133 H 142.5957 C 142.63739,109.20872 142.69801,109.36498 142.7832,109.3457 143.1161,109.26988 153.26758,99.072973 153.26758,98.814453 153.26758,98.764148 152.65912,98.726562 151.86523,98.726562 H 150.46094 L 150.48633,96.476562 150.51172,94.228516 154.08008,94.203125 157.64844,94.177734 158.9668,92.898438 C 159.69204,92.194296 160.81853,91.16009 161.46875,90.601562 L 162.65039,89.585938 160.5957,89.521484 C 159.46515,89.485277 154.71168,89.407625 150.0332,89.349609 L 141.52734,89.244141 140.50586,88.746094 C 139.79667,88.399564 139.22192,88.022914 138.61914,87.513672 L 137.75195,86.78125 143.21289,86.755859 C 146.21628,86.742177 148.68366,86.764284 148.69727,86.804688 148.72693,86.89396 152.75316,86.867036 159.16797,86.734375 161.80105,86.679874 164.34866,86.636719 164.83008,86.636719 H 165.70508 L 166.57227,85.857422 C 167.04831,85.428139 167.79151,84.732002 168.22461,84.310547 169.01597,83.540464 171.54375,81.667718 172.9082,80.841797 174.61663,79.807658 176.6996,78.896092 178.60742,78.347656 179.05957,78.217671 179.86455,77.986677 180.39648,77.833984 180.92843,77.68128 181.85647,77.465163 182.45898,77.353516 183.45024,77.169604 183.66713,77.160905 184.73242,77.257812 186.30032,77.400509 187.3668,77.639189 189.49414,78.328125 191.19282,78.878258 191.32463,78.939895 192.55469,79.751953 193.26184,80.218804 194.11972,80.770427 194.46094,80.976562 194.80216,81.182687 195.38873,81.60951 195.76562,81.925781 196.14252,82.242056 196.73433,82.700222 197.08008,82.943359 197.42584,83.1865 197.93488,83.595613 198.21094,83.851562 198.48701,84.107486 198.76888,84.316406 198.83789,84.316406 198.94718,84.316406 201.46206,86.826562 211.55078,97.009766 212.80244,98.273084 213.86208,99.306641 213.9043,99.306641 213.94655,99.306641 214.0356,98.66635 214.10352,97.882812 214.19679,96.810878 214.21027,95.092717 214.16016,90.943359 L 214.09375,85.427734 213.09766,84.4375 212.10156,83.445312 H 210.15625 C 208.35278,83.445312 207.308,83.547176 207.10156,83.740234 207.05462,83.78413 207.26082,84.09142 207.5625,84.429688 208.99258,86.033299 209.64868,87.165773 209.33203,87.482422 209.04781,87.766642 208.63358,87.544549 207.88672,86.705078 206.42807,85.065572 204.45478,83.089319 203.82617,82.640625 203.12657,82.141255 203.01081,81.882805 203.34961,81.576172 203.66605,81.289797 208.02101,80.932635 211.2168,80.931641 212.61391,80.931149 212.64119,80.935167 212.94336,81.189453 213.11218,81.331499 213.48485,81.778456 213.77148,82.181641 214.46806,83.16146 214.84661,83.602569 214.92383,83.525391 214.95894,83.490351 214.99484,82.16318 215.00391,80.576172 215.01596,78.429759 214.98978,77.638441 214.90039,77.482422 214.78939,77.28854 213.5584,76.010331 213.21484,75.732422 213.08784,75.629664 212.94916,75.715545 212.30469,76.291016 211.00674,77.449974 210.92159,77.491943 209.86133,77.53125 208.82304,77.569722 208.25894,77.445671 208.0957,77.140625 207.99555,76.953508 208.09357,76.827314 209.18164,75.748047 210.37624,74.563097 211.10352,73.764795 211.10352,73.638672 211.10352,73.601958 210.6264,73.093103 210.04297,72.507812 209.05198,71.513725 208.96789,71.450449 208.76172,71.560547 208.64033,71.625362 208.03947,72.164196 207.42773,72.757812 206.81603,73.351391 206.04928,74.039853 205.72266,74.287109 205.39601,74.534359 204.50848,75.402291 203.75,76.214844 202.34717,77.717716 201.64184,78.416016 201.53125,78.416016 201.44555,78.416016 199.41917,76.335399 198.99219,75.808594 198.66294,75.402332 198.63058,75.384113 198.46484,75.53125 198.36777,75.617453 197.98369,75.828523 197.61133,76 196.47277,76.524334 195.11819,76.507744 193.95508,75.953125 192.80121,75.402924 190.35109,73.121163 189.79883,72.082031 189.48464,71.490762 189.44209,69.768303 189.71875,68.857422 189.96449,68.048312 190.44907,67.500102 191.14453,67.242188 191.40407,67.145885 191.63395,67.052542 191.65625,67.035156 191.73263,66.975863 191.2302,66.503908 190.55664,66.003906 L 189.88281,65.505859 188.14258,65.474609 C 187.15039,65.457224 186.12773,65.491317 185.76758,65.552734 184.63945,65.745003 181.96221,66.517868 181.26758,66.851562 180.13668,67.394854 180.16057,67.299423 180.88086,68.357422 181.22492,68.86276 181.50683,69.328225 181.50781,69.390625 181.50912,69.496346 180.55755,70.391669 180.44727,70.388672 180.41974,70.387852 180.14159,69.997546 179.83008,69.521484 179.51857,69.045404 179.21242,68.611696 179.14844,68.558594 179.06465,68.489066 178.82087,68.674006 178.27734,69.220703 L 177.52148,69.980469 177.93555,70.595703 C 178.16331,70.934194 178.45485,71.338096 178.58203,71.492188 L 178.8125,71.771484 178.44922,72.144531 C 178.2491,72.349495 178.03359,72.517578 177.9707,72.517578 177.90779,72.517578 177.59103,72.234423 177.26758,71.888672 176.94413,71.542921 176.65732,71.259766 176.63086,71.259766 176.60428,71.259766 176.33183,71.640137 176.02539,72.105469 174.40834,74.560899 171.2133,76.869141 169.42969,76.869141 168.41713,76.869141 167.22415,76.512699 166.72656,76.060547 166.46216,75.820297 166.13286,75.212793 166.13086,74.962891 166.12656,74.46143 165.96635,74.54259 164.28516,75.912109 163.3587,76.666821 162.29619,77.553464 161.92383,77.882812 161.55149,78.212172 160.92045,78.733891 160.52148,79.041016 L 159.79688,79.599609 159.76758,77.677734 C 159.74027,75.861395 159.90728,73.19162 160.14062,71.695312 160.19044,71.37615 160.23047,70.91297 160.23047,70.666016 160.231,70.338977 160.27471,70.200735 160.39062,70.15625 160.64935,70.056969 160.87909,70.359087 161.18164,71.197266 161.57227,72.279295 161.698,72.948514 161.76758,74.320312 L 161.82812,75.494141 163.03711,74.232422 164.24609,72.96875 V 71.550781 C 164.24609,70.248711 164.22566,70.092878 164.00781,69.626953 163.7363,69.04635 163.79523,68.94245 164.39648,68.939453 164.96103,68.937034 165.53533,69.619374 165.8457,70.658203 165.91362,70.885757 165.99881,71.06004 166.0332,71.044922 166.06765,71.030151 167.50181,69.591692 169.2207,67.849609 L 172.3457,64.683594 H 171.55664 C 171.0375,64.683594 170.69364,64.635706 170.55273,64.544922 170.34428,64.410643 169.66656,64.331887 166.75977,64.101562 166.01507,64.042488 165.16562,63.948175 164.87305,63.892578 164.5805,63.837057 164.14565,63.755234 163.90625,63.710938 163.03452,63.549589 162.37359,63.59846 162.03906,63.849609 161.48186,64.267927 160.5587,64.670435 159.88867,64.787109 159.47033,64.860168 158.65337,64.885705 157.65234,64.855469 156.22112,64.812042 156.03293,64.785254 155.61523,64.570312 154.97048,64.238534 154.71875,63.832945 154.71875,63.121094 154.71875,62.631104 154.77958,62.441549 155.16406,61.730469 155.61757,60.891758 155.72747,60.373665 155.50977,60.111328 155.44259,60.030446 155.13888,59.946944 154.79102,59.914062 154.45907,59.882844 153.83961,59.791555 153.41406,59.710938 152.98291,59.629394 151.84715,59.578888 150.65039,59.566406 Z M 183.97656,71.005859 185.01758,72.087891 C 186.12314,73.237056 186.13983,73.290056 185.39453,73.291016 184.99586,73.291326 182.10908,73.874766 181.36523,74.105469 180.8212,74.274338 180.83398,74.271852 180.83398,74.21875 180.83398,74.19732 181.53992,73.464667 182.4043,72.591797 Z"
       transform="matrix(0.26458333,0,0,0.26458333,13.831995,-32.499635)"
       id="path874"
       inkscape:connector-curvature="0" />
    <path
       style="fill:#000080;stroke-width:0.02558918"
       d="M 29.359934,-14.662862 34.52496,-14.681942 33.531306,-13.850294 H 28.460927 Z"
       id="path862"
       transform="translate(7.916667e-8,1.0208333e-6)"
       inkscape:connector-curvature="0"
       sodipodi:nodetypes="ccccc" />
    <path
       style="fill:#000080;stroke-width:0.09671501"
       d="M 197.25391,11.982422 C 197.22401,11.976091 197.18836,12.022945 197.11914,12.117188 197.00492,12.272995 196.98034,12.718164 196.98828,14.476562 196.99524,15.963395 196.96391,16.663781 196.89062,16.708984 196.72754,16.809826 196.7506,51.370779 196.91406,51.705078 197.11578,52.117735 197.53121,52.191282 199.71875,52.199219 L 201.72656,52.207031 202.69727,51.720703 C 204.00427,51.064891 204.43865,50.975114 206.67188,50.912109 L 208.57227,50.859375 209.13672,51.144531 C 209.76849,51.463452 210.38987,51.981978 212.65625,54.091797 213.51336,54.889689 214.54258,55.801963 214.94336,56.119141 215.63642,56.667682 215.67855,56.6869 215.80664,56.511719 215.90317,56.379488 215.94136,56.013569 215.94141,55.210938 215.94141,54.596069 216.00272,53.766139 216.07812,53.367188 216.15356,52.968239 216.24371,52.185473 216.27734,51.626953 216.34914,50.444131 216.4264,50.038087 216.87305,48.53125 217.15273,47.587649 217.3008,47.274787 217.84766,46.46875 218.95288,44.839747 219.69363,44.337499 221.19727,44.201172 L 221.77539,44.150391 221.71094,48.087891 221.64453,52.027344 222.53125,53.736328 C 224.15964,56.875241 225.94791,59.892688 226.24805,60.007812 226.32364,60.036915 226.38672,60.117881 226.38672,60.1875 226.38672,60.257232 226.43934,60.336447 226.50586,60.363281 226.57234,60.390191 226.77331,60.415008 226.95117,60.419922 227.19688,60.425705 227.28582,60.381361 227.32422,60.234375 227.35211,60.127944 227.41533,60.041016 227.46484,60.041016 227.5181,60.041016 227.54278,59.062835 227.52539,57.597656 L 227.49805,55.154297 226.88672,54.429688 C 226.55081,54.031416 226.07642,53.401656 225.83203,53.029297 225.58765,52.656957 225.19765,52.110315 224.9668,51.814453 224.53071,51.255624 224.45131,50.92434 224.6582,50.53125 224.78272,50.294727 224.92693,50.179734 225.09766,50.177734 225.31368,50.174953 226.39879,51.210014 226.92969,51.925781 227.2215,52.319223 227.49329,52.674441 227.5332,52.714844 227.57311,52.755281 227.61725,51.904148 227.63086,50.822266 227.6524,49.057695 227.63634,48.840161 227.48633,48.716797 227.39438,48.641187 227.00671,48.187733 226.625,47.708984 226.24329,47.230254 225.85947,46.778061 225.77148,46.705078 225.58349,46.549067 225.56494,46.29639 225.72852,46.132812 225.79235,46.068938 226.04952,46.017578 226.30078,46.017578 226.67375,46.017578 226.83782,46.077686 227.19922,46.353516 L 227.64258,46.691406 V 43.521484 C 227.64258,40.780303 227.66376,40.322772 227.79688,40.132812 227.93734,39.932354 227.93638,39.885882 227.79688,39.591797 227.71278,39.414567 227.54597,39.243063 227.42578,39.210938 227.30558,39.178623 223.97761,39.15137 220.03125,39.150391 L 212.85742,39.148438 212.82617,37.322266 C 212.7993,35.685613 212.77826,35.473075 212.61328,35.291016 212.37303,35.025844 212.17005,35.034974 211.57617,35.335938 210.03616,36.116319 209.46393,37.332483 209.46094,39.837891 209.46026,40.562641 209.43365,41.292761 209.40039,41.458984 L 209.33984,41.759766 H 208.58984 C 207.73604,41.759766 206.27652,41.427233 205.41602,41.035156 204.83902,40.772222 203.8479,39.881594 203.37109,39.197266 203.22285,38.984497 202.85171,38.183381 202.54492,37.416016 L 201.98633,36.019531 202.04102,34.320312 C 202.09973,32.463363 202.2668,31.454639 202.78906,29.824219 203.17639,28.61505 203.97797,26.824796 204.52539,25.947266 204.7577,25.574918 205.03097,25.111632 205.13086,24.917969 205.23071,24.724321 205.39629,24.490292 205.5,24.396484 205.60375,24.302639 205.68945,24.144992 205.68945,24.046875 205.68945,23.85548 205.54508,23.806595 205.44727,23.964844 205.41447,24.017871 205.15825,24.173766 204.87891,24.310547 203.66167,24.906556 202.32517,26.196818 201.53125,27.542969 201.32732,27.888716 201.00229,28.60673 200.80859,29.138672 200.13114,30.999367 200.1649,31.008149 200.2168,28.994141 200.27097,26.894507 200.45253,25.933909 201.0293,24.703125 201.49911,23.700545 202.25015,22.678351 202.66602,22.476562 202.83928,22.392494 203.06636,22.183864 203.16992,22.013672 L 203.35742,21.705078 203.09766,21.226562 C 202.94103,20.940191 202.60361,20.564073 202.25586,20.287109 201.88919,19.995058 201.51527,19.570776 201.24023,19.134766 200.67916,18.245197 200.14812,17.434063 199.50195,16.478516 198.67984,15.262865 198.11777,14.135297 197.35352,12.166016 197.30744,12.047395 197.2838,11.988753 197.25391,11.982422 Z M 200.94922,43.447266 C 200.94922,43.419184 201.13527,43.522585 201.36133,43.677734 201.97648,44.099824 203.10325,44.645535 204.13867,45.021484 205.27739,45.434946 207.51418,46.017578 207.96484,46.017578 208.3479,46.017578 208.34573,46.005677 208.1543,46.636719 208.07512,46.897839 208.00977,47.257833 208.00977,47.435547 V 47.757812 L 206.82617,47.75 C 205.48969,47.740237 205.04104,47.642474 204.02539,47.140625 203.07755,46.672292 202.41799,46.075475 201.78906,45.117188 201.35275,44.452357 200.94922,43.650604 200.94922,43.447266 Z"
       transform="matrix(0.26458333,0,0,0.26458333,13.831995,-32.499635)"
       id="path860"
       inkscape:connector-curvature="0" />
    <path
       style="display:inline;fill:#000080;fill-opacity:1;stroke-width:0.02558918"
       d="M 30.995805,-30.412322 V -17.802858 H 33.752261 V -16.84539 L 35.602242,-19.205872 V -31.78805 H 32.838995 V -32.749637 Z M 32.276864,-31.11574 33.299024,-30.702845 34.321183,-31.11574 34.490165,-29.046099 H 34.086056 L 33.953247,-30.530763 33.299024,-30.253777 32.6448,-30.530763 32.511991,-29.046099 H 32.107882 Z M 32.276864,-28.405828 33.299024,-27.992933 34.321183,-28.405828 34.490165,-26.33567 H 34.086056 L 33.953247,-27.82085 33.299024,-27.543865 32.6448,-27.82085 32.511991,-26.33567 H 32.107882 Z M 33.518132,-25.685064 33.926892,-25.670077 33.612183,-24.905783 34.260205,-23.636093 H 33.846277 L 33.299024,-24.44793 32.75177,-23.636093 H 32.337842 L 32.985864,-24.905783 32.671155,-25.670077 33.079915,-25.684547 33.299024,-25.350717 Z M 33.518132,-22.974635 33.926892,-22.959648 33.612183,-22.195871 34.260205,-20.925664 H 33.846277 L 33.299024,-21.737501 32.75177,-20.925664 H 32.337842 L 32.985864,-22.195871 32.671155,-22.959648 33.079915,-22.974118 33.299024,-22.640805 Z M 33.106787,-20.25077 H 33.490743 L 33.49126,-18.229188 H 33.106787 Z"
       id="path850-8"
       inkscape:connector-curvature="0"
       sodipodi:nodetypes="cccccccccccccccccccccccccccccccccccccccccccccccccccccccccccccc" />
  </g>
  <g
     id="g2232"
     inkscape:groupmode="layer"
     inkscape:label="B.Mask-disabled"
     transform="translate(-13.832236,32.749637)" />
  <g
     id="g2234"
     inkscape:groupmode="layer"
     inkscape:label="F.Mask"
     transform="translate(-13.832236,32.749637)"
     style="display:inline" />
  <g
     id="g2236"
     inkscape:groupmode="layer"
     inkscape:label="Dwgs.User-disabled"
     transform="translate(-13.832236,32.749637)" />
  <g
     id="g2238"
     inkscape:groupmode="layer"
     inkscape:label="Cmts.User-disabled"
     transform="translate(-13.832236,32.749637)" />
  <g
     id="g2240"
     inkscape:groupmode="layer"
     inkscape:label="Eco1.User-disabled"
     transform="translate(-13.832236,32.749637)" />
  <g
     id="g2242"
     inkscape:groupmode="layer"
     inkscape:label="Eco2.User-disabled"
     transform="translate(-13.832236,32.749637)" />
  <g
     id="g2244"
     inkscape:groupmode="layer"
     inkscape:label="Edge.Cuts"
     transform="translate(-13.832236,32.749637)" />
  <g
     id="g2246"
     inkscape:groupmode="layer"
     inkscape:label="Margin-disabled"
     transform="translate(-13.832236,32.749637)" />
  <g
     id="g2248"
     inkscape:groupmode="layer"
     inkscape:label="B.CrtYd-disabled"
     transform="translate(-13.832236,32.749637)" />
  <g
     id="g2250"
     inkscape:groupmode="layer"
     inkscape:label="F.CrtYd-disabled"
     transform="translate(-13.832236,32.749637)" />
  <g
     id="g2252"
     inkscape:groupmode="layer"
     inkscape:label="B.Fab-disabled"
     transform="translate(-13.832236,32.749637)" />
  <g
     id="g2254"
     inkscape:groupmode="layer"
     inkscape:label="F.Fab-disabled"
     transform="translate(-13.832236,32.749637)" />
  <g
     id="g2256"
     inkscape:groupmode="layer"
     inkscape:label="Drill"
     transform="translate(-13.832236,32.749637)" />
</svg>
