<?xml version="1.0" encoding="UTF-8" standalone="no"?>
<!-- Created with Inkscape (http://www.inkscape.org/) -->

<svg
   xmlns:dc="http://purl.org/dc/elements/1.1/"
   xmlns:cc="http://creativecommons.org/ns#"
   xmlns:rdf="http://www.w3.org/1999/02/22-rdf-syntax-ns#"
   xmlns:svg="http://www.w3.org/2000/svg"
   xmlns="http://www.w3.org/2000/svg"
   xmlns:sodipodi="http://sodipodi.sourceforge.net/DTD/sodipodi-0.dtd"
   xmlns:inkscape="http://www.inkscape.org/namespaces/inkscape"
   width="62.621441mm"
   height="108.50903mm"
   viewBox="0 0 62.621441 108.50903"
   version="1.1"
   id="svg9297"
   inkscape:version="0.92.5 (2060ec1f9f, 2020-04-08)"
   sodipodi:docname="chainsaw-outline-shorter-wider.svg">
  <defs
     id="defs9291" />
  <sodipodi:namedview
     id="base"
     pagecolor="#ffffff"
     bordercolor="#666666"
     borderopacity="1.0"
     inkscape:pageopacity="0.0"
     inkscape:pageshadow="2"
     inkscape:zoom="2"
     inkscape:cx="8.9760787"
     inkscape:cy="196.3455"
     inkscape:document-units="mm"
     inkscape:current-layer="g9879"
     showgrid="true"
     inkscape:window-width="1858"
     inkscape:window-height="1177"
     inkscape:window-x="54"
     inkscape:window-y="-8"
     inkscape:window-maximized="1"
     borderlayer="true"
     fit-margin-top="0"
     fit-margin-left="0"
     fit-margin-right="0"
     fit-margin-bottom="0"
     gridtolerance="1"
     guidetolerance="1"
     objecttolerance="1">
    <inkscape:grid
       id="grid9843"
       units="mm"
       type="xygrid"
       empspacing="1"
       spacingy="2.54"
       spacingx="2.54"
       originx="-54.157249"
       originy="22.052873" />
  </sodipodi:namedview>
  <metadata
     id="metadata9294">
    <rdf:RDF>
      <cc:Work
         rdf:about="">
        <dc:format>image/svg+xml</dc:format>
        <dc:type
           rdf:resource="http://purl.org/dc/dcmitype/StillImage" />
        <dc:title />
      </cc:Work>
    </rdf:RDF>
    <rdf:RDF>
      <cc:Work
         rdf:about="">
        <dc:title />
      </cc:Work>
    </rdf:RDF>
  </metadata>
  <g
     id="g9849"
     sodipodi:insensitive="true"
     inkscape:groupmode="layer"
     inkscape:label="[fixed] BG"
     transform="translate(-54.157247,48.456151)">
    <rect
       id="rect9847"
       style="fill:#ffffff;fill-opacity:1;stroke:none"
       height="38"
       width="29"
       y="0"
       x="0" />
  </g>
  <g
     id="g9851"
     inkscape:groupmode="layer"
     inkscape:label="F.Cu"
     transform="translate(-54.157247,48.456151)" />
  <g
     id="g9853"
     inkscape:groupmode="layer"
     inkscape:label="B.Cu-disabled"
     transform="translate(-54.157247,48.456151)" />
  <g
     id="g9855"
     inkscape:groupmode="layer"
     inkscape:label="B.Adhes-disabled"
     transform="translate(-54.157247,48.456151)" />
  <g
     id="g9857"
     inkscape:groupmode="layer"
     inkscape:label="F.Adhes-disabled"
     transform="translate(-54.157247,48.456151)" />
  <g
     id="g9859"
     inkscape:groupmode="layer"
     inkscape:label="B.Paste-disabled"
     transform="translate(-54.157247,48.456151)" />
  <g
     id="g9861"
     inkscape:groupmode="layer"
     inkscape:label="F.Paste-disabled"
     transform="translate(-54.157247,48.456151)" />
  <g
     id="g9863"
     inkscape:groupmode="layer"
     inkscape:label="B.SilkS-disabled"
     transform="translate(-54.157247,48.456151)" />
  <g
     id="g9865"
     inkscape:groupmode="layer"
     inkscape:label="F.SilkS-disabled"
     transform="translate(-54.157247,48.456151)" />
  <g
     id="g9867"
     inkscape:groupmode="layer"
     inkscape:label="B.Mask-disabled"
     transform="translate(-54.157247,48.456151)" />
  <g
     id="g9869"
     inkscape:groupmode="layer"
     inkscape:label="F.Mask-disabled"
     transform="translate(-54.157247,48.456151)" />
  <g
     id="g9871"
     inkscape:groupmode="layer"
     inkscape:label="Dwgs.User-disabled"
     transform="translate(-54.157247,48.456151)" />
  <g
     id="g9873"
     inkscape:groupmode="layer"
     inkscape:label="Cmts.User-disabled"
     transform="translate(-54.157247,48.456151)" />
  <g
     id="g9875"
     inkscape:groupmode="layer"
     inkscape:label="Eco1.User-disabled"
     transform="translate(-54.157247,48.456151)" />
  <g
     id="g9877"
     inkscape:groupmode="layer"
     inkscape:label="Eco2.User-disabled"
     transform="translate(-54.157247,48.456151)" />
  <g
     id="g9879"
     inkscape:groupmode="layer"
     inkscape:label="Edge.Cuts"
     transform="translate(-54.157247,48.456151)">
    <path
       transform="matrix(0.26458333,0,0,0.26458333,54.157247,-48.456151)"
       id="path5658-9-7-6-2-8-4"
       d="M135.5957 0.0078125L134.9257775 0.065197896875L134.28125 0.16992188L133.810621694 0.27608706842L133.360962305 0.406528244551L132.933810122 0.55979374157L132.530703438 0.734431892656L132.153180542 0.928991030989L131.802779727 1.14201948975L131.481039282 1.37206560211L131.1894975 1.61767770125L130.929692671 1.87740412035L130.703163086 2.1497931926L130.511447036 2.43339325116L130.356082813 2.72675262922L130.238608706 3.02841965995L130.160563008 3.33694267654L130.123484009 3.65087001217L130.12891 3.96875L130.131818435 4.33959182852L130.078908105 4.704696075L129.972968059 5.06226161211L129.816787344 5.4104873125L129.613155007 5.74757204883L129.364860098 6.07171469375L129.074691663 6.38111411992L128.74543875 6.6739692L128.379890408 6.94847880664L127.980835684 7.2028418125L127.551063625 7.43525709023L127.093363281 7.6439235125L126.610523699 7.82703995195L126.105333926 7.98280528125L125.58058301 8.10941837305L125.03906 8.2050781L124.53012178 8.26398747942L124.027236895 8.2930473541L123.533043132 8.29298445369L123.050178281 8.26452550781L122.581280129 8.20839724612L122.128986465 8.12532639824L121.695935076 8.01603969382L121.28476375 7.8812638625L120.898110276 7.72172563391L120.538612441 7.5381517377L120.208908035 7.33126890349L119.911634844 7.10180386094L119.649430657 6.85048333967L119.424933262 6.57803406934L119.240780447 6.28518277957L119.09961 5.9726562L119.05333375 5.7766278625L119.02148 5.5722656L118.921236052 5.21470528025L118.766720449 4.87880792637L118.561032551 4.56615055266L118.307271719 4.27831017344L118.008537312 4.016863803L117.667928691 3.78338845566L117.288545217 3.57946114573L116.87348625 3.4066588875L116.42585115 3.26655869529L115.948739277 3.1607375834L115.445249993 3.09077256614L114.918482656 3.05824065781L114.371536628 3.06471887273L113.80751127 3.1117842252L113.22950594 3.20101372952L112.64062 3.3339844L112.061848542 3.50677719341L111.51335334 3.71250173477L110.997101897 3.94825677827L110.515061719 4.21114107813L110.06920031 4.49825338853L109.661485176 4.80669246367L109.293883821 5.13355705776L108.96836375 5.475945925L108.686892468 5.83095781958L108.45143748 6.1956914957L108.263966292 6.56724570757L108.126446406 6.94271920937L108.04084533 7.31921075532L108.009130566 7.69381909961L108.033269622 8.06364299644L108.11523 8.4257812L108.198112427 8.78743608936L108.225246445 9.15593132734L108.198976538 9.52888846885L108.121647188 9.90392906875L107.995602876 10.2786746819L107.823188086 10.6507468633L107.6067473 11.0177671677L107.348625 11.37735715L107.051165669 11.7271383651L106.716713789 12.064732368L106.347613843 12.3877607134L105.946210312 12.6938449563L105.514847681 12.9806066515L105.05587043 13.2456673539L104.571623042 13.4866486185L104.06445 13.701172L103.581981102 13.872336793L103.09882952 14.0132850938L102.617727294 14.1241191602L102.141406469 14.20494125L101.672599084 14.2558536211L101.214037184 14.2769585313L100.768452808 14.2683582383L100.338578 14.230155L99.9271448013 14.1624510742L99.5368852539 14.0653487187L99.1705313999 13.9389501914L98.8308152812 13.78335775L98.5204689399 13.5986736523L98.242224418 13.3850001562L97.9988137573 13.1424395195L97.792969 12.871094L97.7038665 12.68738075L97.626953 12.492188L97.545379045 12.3253702533L97.4513297781 12.1668036982L97.2274885215 11.8748490234L96.9587956565 11.6171736963L96.6486176094 11.3946274375L96.3003208064 11.2080599678L95.9172716738 11.0583210078L95.5028366379 10.9462602783L95.060382125 10.8727275L94.5932745613 10.8385723936L94.104880373 10.8446446797L93.5985659866 10.8917940791L93.0776978281 10.9808703125L92.545642324 11.1127231006L92.0057659004 11.2882021641L91.4614349836 11.5081572236L90.916016 11.773438L90.3891357998 12.0754554641L89.8992968984 12.4026266816L89.4477562197 12.7516502654L89.0357706875 13.1192248281L88.6645972256 13.5020489827L88.3354927578 13.8968213418L88.049714208 14.3002405183L87.8085185 14.709005125L87.6131625576 15.1198137747L87.4649033047 15.5293650801L87.364997665 15.9343576541L87.3147025625 16.3314901094L87.3152749209 16.7174610588L87.3679716641 17.0889691152L87.4740497158 17.4427128914L87.5474995211 17.6118914908L87.634766 17.775391L87.7963118108 18.1072373787L87.9051900801 18.4586424668L87.9631673757 18.8267736301L87.9720102656 19.2087982344L87.9334853176 19.6018836453L87.8493590996 20.0031972285L87.7213981794 20.4099063499L87.551369125 20.819178375L87.3410385042 21.2281806697L87.0921728848 21.6340805996L86.8065388347 22.0340455305L86.4859029219 22.4252428281L86.1320317141 22.8048398582L85.7466917793 23.1700039863L85.3316496853 23.5179025784L84.888672 23.845703L84.4596812766 24.1259993582L84.0229757441 24.3774699277L83.5812349841 24.5995248264L83.1371385781 24.7915741719L82.6933661077 24.9530280818L82.2525971543 25.0832966738L81.8175112996 25.1817900657L81.390788125 25.247918375L80.9751072122 25.2810917195L80.5731481426 25.2807202168L80.1875904978 25.2462139846L79.8211138594 25.1769831406L79.4763978088 25.0724378025L79.1561219277 24.9319880879L78.8629657976 24.7550441145L78.599609 24.541016L78.4709085 24.38696975L78.351562 24.21875L78.1906684077 24.0303214993L78.0117046992 23.8611798066L77.8156902271 23.711477074L77.6036443438 23.5813654531L77.3765864019 23.4709970959L77.1355357539 23.3805241543L76.8815117524 23.31009878L76.61553375 23.259873125L76.3386210991 23.2299993411L76.0517931523 23.2206295801L75.7560692622 23.2319159939L75.4524687813 23.2640107344L75.142011062 23.3170659534L74.825715457 23.3912338027L74.5046013188 23.4866664343L74.179688 23.603516L73.8256744141 23.7551204004L73.47273075 23.9322482031L73.1218928984 24.1337876855L72.77419675 24.358627125L72.4306781953 24.6056547988L72.092373125 24.8737589844L71.7603174297 25.161827959L71.435547 25.46875L70.9634522402 25.9665360369L70.5444029531 26.4747457949L70.177835127 26.9895591829L69.86318475 27.5071561094L69.5998878105 28.0237164832L69.3873802969 28.5354202129L69.2250981973 29.0384472073L69.1124775 29.528977375L69.0489541934 30.0031906248L69.0339642656 30.4572668652L69.0669437051 30.8873860051L69.1473285 31.2897279531L69.2745546387 31.6604726179L69.4480581094 31.9957999082L69.5519875906 32.1489882594L69.6672749004 32.2918897327L69.7938495374 32.4240268167L69.931641 32.544922L70.1969048347 32.7959230466L70.4197323496 33.0860630293L70.6010207483 33.4119068997L70.7416672344 33.7700196094L70.8425690115 34.1569661101L70.9046232832 34.5693113535L70.9287272532 35.0036202913L70.915778125 35.456457875L70.8666731023 35.9243890564L70.7823093887 36.4039787871L70.6635841877 36.8917920188L70.5113947031 37.3843937031L70.3266381384 37.8783487917L70.1102116973 38.3702222363L69.8630125833 38.8565789885L69.585938 39.333984L69.3123695 39.754447375L69.023438 40.150391L68.7435014976 40.4917327974L68.4487467617 40.815299832L68.1411641372 41.1195986929L67.8227439688 41.4031359688L67.4954766011 41.6644182485L67.1613523789 41.9019521211L66.822361647 42.1142441753L66.48049475 42.299801L66.1377420327 42.4571291841L65.7960938398 42.5847353164L65.4575405161 42.6811259858L65.1240724063 42.7448077812L64.797679855 42.7742872915L64.480353207 42.7680711055L64.1740828071 42.724665812L63.880859 42.642578L63.759198875 42.585023125L63.638672 42.519531L63.4760223513 42.4468159066L63.3065007795 42.3893217136L63.130730627 42.347129927L62.9493352363 42.3203220527L62.7629379499 42.3089795966L62.5721621101 42.3131840647L62.3776310595 42.3330169628L62.1799681406 42.3685597969L61.7777400676 42.4871012966L61.3704646309 42.6694606113L60.9631285701 42.9162897883L60.560718625 43.228240875L60.1682215354 43.6059659187L59.790624041 44.0501169668L59.4329128816 44.5613460667L59.1000747969 45.1403052656L58.7970965266 45.7876466111L58.6583631781 46.1371643535L58.5289648105 46.5040221504L58.4095247665 46.8883015075L58.3006663884 47.2900839309L58.2030130188 47.7094509264L58.117188 48.146484L57.9671517187 49.1146529219L57.9148221211 49.5973777441L57.882723 50.076157625L57.8746829414 50.5487136777L57.8945305312 51.0127670156L57.9460943555 51.466038752L58.033203 51.90625L58.12925947 52.2492034531L58.2447232754 52.5764252344L58.378418072 52.8870332266L58.5291675156 53.1801453125L58.695795262 53.454879375L58.8771249668 53.7103532969L59.0719802859 53.9456849609L59.279184875 54.15999225L59.4975623899 54.3523930469L59.7259364863 54.5220052344L59.9631308201 54.6679466953L60.2079690469 54.7893353125L60.4592748225 54.8852889687L60.7158718027 54.9549255469L60.9765836433 54.9973629297L61.240234 55.011719L61.6040792024 55.0400738384L61.9574141816 55.1232299727L62.2984501833 55.258431144L62.6253984531 55.4429210938L62.9364702366 55.673943563L63.2298767793 55.948742293L63.5038293269 56.2645610249L63.756539125 56.6186435L63.9862174192 57.0082334595L64.1910754551 57.4305746445L64.3693244783 57.8829107964L64.5191757344 58.3624856563L64.638840469 58.8665429653L64.7265299277 59.3923264648L64.7804553562 59.937079896L64.798828 60.498047L64.7831594451 61.0244486477L64.7370402324 61.5426825098L64.6618000403 62.0491895271L64.5587685469 62.5404106406L64.4292754304 63.0127867913L64.2746503691 63.4627589199L64.0962230413 63.8867679675L63.895323125 64.281254875L63.6732802986 64.6426605833L63.4314242402 64.9674260332L63.1710846282 65.2519921658L62.8935911406 65.4927999219L62.6002734558 65.6862902424L62.292461252 65.8289040684L61.9714842073 65.9170823406L61.8064743941 65.9396459381L61.638672 65.947266L61.240234 65.947266L60.8762926235 65.9756108013L60.5228804883 66.0588035508L60.1817850229 66.1940817671L59.8547936563 66.3786829687L59.5436938169 66.6098446743L59.2502729336 66.8848044023L58.9763184351 67.2007996714L58.72361775 67.555068L58.4939583071 67.9448469067L58.2891275352 68.3673739102L58.1109128628 68.8198865288L57.9611017188 69.2996222812L57.8414815317 69.803818686L57.7538397305 70.3297132617L57.6999637437 70.8745435269L57.681641 71.435547L57.7000483933 71.9964302959L57.7539946465 72.5410766484L57.8416929944 73.0667336924L57.9613566719 73.5706490625L58.1111989138 74.0500703936L58.2894329551 74.5022453203L58.4942720305 74.9244214775L58.723929375 75.3138465L58.9766182234 75.6677680225L59.2505518105 75.9834336797L59.5439433713 76.2580911064L59.8550061406 76.4889879375L60.1819533533 76.6733718076L60.5229982441 76.8084903516L60.8763540481 76.8915912041L61.240234 76.919922L61.6040792024 76.9482772559L61.9574141816 77.0314345312L62.2984501833 77.1666374004L62.6253984531 77.3511294375L62.9364702366 77.5821542168L63.2298767793 77.8569553125L63.5038293269 78.1727762988L63.756539125 78.52686075L63.9862174192 78.9164522402L64.1910754551 79.3387943438L64.3693244783 79.7911306348L64.5191757344 80.2707046875L64.638840469 80.7747600762L64.7265299277 81.300540375L64.7804553562 81.8452891582L64.798828 82.40625L64.7831594451 82.9326735808L64.7370402324 83.4509694277L64.6618000403 83.95757276L64.5587685469 84.4489187969L64.4292754304 84.9214427576L64.2746503691 85.3715798613L64.0962230413 85.7957653274L63.895323125 86.190434375L63.6732802986 86.5520222234L63.4314242402 86.8769640918L63.1710846282 87.1616951995L62.8935911406 87.4026507656L62.6002734558 87.5962660095L62.292461252 87.7389761504L61.9714842073 87.8272164075L61.8064743941 87.8497963356L61.638672 87.857422L61.240234 87.857422L60.8762926235 87.8857452856L60.5228804883 87.9688771914L60.1817850229 88.1040607905L59.8547936563 88.2885391562L59.5436938169 88.5195553618L59.2502729336 88.7943524805L58.9763184351 89.1101735854L58.72361775 89.46426175L58.4939583071 89.8538600474L58.2891275352 90.2762115508L58.1109128628 90.7285593335L57.9611017188 91.2081464688L57.8414815317 91.7122160298L57.7538397305 92.2380110898L57.6999637437 92.7827747222L57.681641 93.34375L57.7000483933 93.9046297627L57.7539946465 94.4493183672L57.8416929944 94.9750572256L57.9613566719 95.47908775L58.1111989138 95.9586513525L58.2894329551 96.4109894453L58.4942720305 96.8333434404L58.723929375 97.22295475L58.9766182234 97.5770647861L59.2505518105 97.8929149609L59.5439433713 98.1677466865L59.8550061406 98.398801375L60.1819533533 98.5833204385L60.5229982441 98.7185452891L60.8763540481 98.8017173389L61.240234 98.830078L61.6040792024 98.8584004297L61.9574141816 98.94153L62.2984501833 99.0767101328L62.6253984531 99.26118425L62.9364702366 99.4921957734L63.2298767793 99.766988125L63.5038293269 100.082804727L63.756539125 100.436889L63.9862174192 100.826484367L64.1910754551 101.24883425L64.3693244783 101.70118207L64.5191757344 102.18077125L64.638840469 102.684845211L64.7265299277 103.210647375L64.7804553562 103.755421164L64.798828 104.31641L64.7832156248 104.842076726L64.7372581074 105.359764902L64.6622748606 105.865895901L64.5595852969 106.356891094L64.4305088289 106.829171853L64.2763648691 107.279159551L64.0984728303 107.703275559L63.898152125 108.09794125L63.6767221658 108.459577996L63.4355023652 108.784607168L63.175812136 109.069450139L62.8989708906 109.310528281L62.6062980417 109.504262966L62.299113002 109.647075566L61.9787351838 109.735387454L61.8140112993 109.757987309L61.646484 109.76562L61.240234 109.76562L60.8762926235 109.79396321L60.5228804883 109.877151621L60.1817850229 110.012423401L59.8547936563 110.197016719L59.5436938169 110.428169744L59.2502729336 110.703120645L58.9763184351 111.01910759L58.72361775 111.37336875L58.4939583071 111.763142292L58.2891275352 112.185666387L58.1109128628 112.638179202L57.9611017188 113.117918906L57.8414815317 113.622123669L57.7538397305 114.14803166L57.6999637437 114.692881047L57.681641 115.25391L57.7000483933 115.814807734L57.7539946465 116.359509688L57.8416929944 116.885257734L57.9613566719 117.38929375L58.1111989138 117.868859609L58.2894329551 118.321197187L58.4942720305 118.743548359L58.723929375 119.133155L58.9766182234 119.487258984L59.2505518105 119.803102187L59.5439433713 120.077926484L59.8550061406 120.30897375L60.1819533533 120.493485859L60.5229982441 120.628704688L60.8763540481 120.711872109L61.240234 120.74023L61.6040792024 120.768586355L61.9574141816 120.851746309L62.2984501833 120.986953069L62.6253984531 121.171449844L62.9364702366 121.402479841L63.2298767793 121.67728627L63.5038293269 121.993112336L63.756539125 122.34720125L63.9862174192 122.736796218L64.1910754551 123.159140449L64.3693244783 123.611477151L64.5191757344 124.091049531L64.638840469 124.595100798L64.7265299277 125.12087416L64.7804553562 125.665612825L64.798828 126.22656L64.7832156248 126.752276277L64.7372581074 127.270001465L64.6622748606 127.776158225L64.5595852969 128.267169219L64.4305088289 128.739457107L64.2763648691 129.189444551L64.0984728303 129.613554211L63.898152125 130.00820875L63.6767221658 130.369830828L63.4355023652 130.694843105L63.175812136 130.979668245L62.8989708906 131.220728906L62.6062980417 131.414447751L62.299113002 131.557247441L61.9787351838 131.645550637L61.8140112993 131.668148131L61.646484 131.67578L61.240234 131.67578L60.8762926235 131.704102517L60.5228804883 131.787232324L60.1817850229 131.922412805L59.8547936563 132.106887344L59.5436938169 132.337899324L59.2502729336 132.612692129L58.9763184351 132.928509143L58.72361775 133.28259375L58.4939583071 133.672189333L58.2891275352 134.094539277L58.1109128628 134.546886965L57.9611017188 135.026475781L57.8414815317 135.530549109L57.7538397305 136.056350332L57.6999637437 136.601122834L57.681641 137.16211L57.7000483933 137.723002793L57.7539946465 138.267701094L57.8416929944 138.79344666L57.9613566719 139.29748125L58.1111989138 139.777046621L58.2894329551 140.229384531L58.4942720305 140.651736738L58.723929375 141.041345L58.9766182234 141.395451074L59.2505518105 141.711296719L59.5439433713 141.986123691L59.8550061406 142.21717375L60.1819533533 142.401688652L60.5229982441 142.536910156L60.8763540481 142.62008002L61.240234 142.64844L61.6040792024 142.676796245L61.9574141816 142.759955898L62.2984501833 142.895162212L62.6253984531 143.079658437L62.9364702366 143.310687827L63.2298767793 143.585493633L63.5038293269 143.901319106L63.756539125 144.2554075L63.9862174192 144.645002065L64.1910754551 145.067346055L64.3693244783 145.51968272L64.5191757344 145.999255312L64.638840469 146.503307085L64.7265299277 147.029081289L64.7804553562 147.573821177L64.798828 148.13477L64.7831594451 148.661192075L64.7370402324 149.179486758L64.6618000403 149.686089233L64.5587685469 150.177434688L64.4292754304 150.649958306L64.2746503691 151.100095273L64.0962230413 151.524280776L63.895323125 151.91895L63.6732802986 152.28053813L63.4314242402 152.605480352L63.1710846282 152.890211851L62.8935911406 153.131167812L62.6002734558 153.324783423L62.292461252 153.467493867L61.9714842073 153.555734331L61.8064743941 153.578314316L61.638672 153.58594L61.240234 153.58594L60.8762926235 153.614263616L60.5228804883 153.697396426L60.1817850229 153.832581375L59.8547936563 154.017061406L59.5436938169 154.248079465L59.2502729336 154.522878496L58.9763184351 154.838701443L58.72361775 155.19279125L58.4939583071 155.582390862L58.2891275352 156.004743223L58.1109128628 156.457091277L57.9611017188 156.936677969L57.8414815317 157.440746243L57.7538397305 157.966539043L57.6999637437 158.511299314L57.681641 159.07227L57.7000483933 159.633168943L57.7539946465 160.177874199L57.8416929944 160.703627161L57.9613566719 161.207669219L58.1111989138 161.687241765L58.2894329551 162.139586191L58.4942720305 162.561943889L58.723929375 162.95155625L58.9766182234 163.305664666L59.2505518105 163.621510527L59.5439433713 163.896335227L59.8550061406 164.127380156L60.1819533533 164.311886707L60.5229982441 164.44709627L60.8763540481 164.530250237L61.240234 164.55859L61.6040792024 164.586945037L61.9574141816 164.670101387L62.2984501833 164.805302786L62.6253984531 164.989792969L62.9364702366 165.220815671L63.2298767793 165.495614629L63.5038293269 165.811433577L63.756539125 166.16551625L63.9862174192 166.555106384L64.1910754551 166.977447715L64.3693244783 167.429783977L64.5191757344 167.909358906L64.638840469 168.413416238L64.7265299277 168.939199707L64.7804553562 169.483953049L64.798828 170.04492L64.7831594451 170.571338779L64.7370402324 171.089631016L64.6618000403 171.596231807L64.5587685469 172.08757625L64.4292754304 172.560099443L64.2746503691 173.010236484L64.0962230413 173.434422471L63.895323125 173.8290925L63.6732802986 174.19068167L63.4314242402 174.515625078L63.1710846282 174.800357822L62.8935911406 175.041315L62.6002734558 175.234931709L62.292461252 175.377643047L61.9714842073 175.465884111L61.8064743941 175.488464259L61.638672 175.49609L61.240234 175.49609L60.8762926235 175.524412957L60.5228804883 175.607543965L60.1817850229 175.742726233L59.8547936563 175.927202969L59.5436938169 176.15821738L59.2502729336 176.433012676L58.9763184351 176.748832063L58.72361775 177.10291875L58.4939583071 177.492515945L58.2891275352 177.914866855L58.1109128628 178.36721469L57.9611017188 178.846802656L57.8414815317 179.350873962L57.7538397305 179.876671816L57.6999637437 180.421439426L57.681641 180.98242L57.7100834236 181.425781624L57.7903865762 181.830033457L57.9151414055 182.200267195L58.0769388594 182.541574531L58.2683698855 182.859047161L58.4820254316 183.157776777L58.946373875 183.71937375L59.4107117715 184.267099004L59.624354134 184.548488972L59.8157667031 184.841686094L59.9775404265 185.151782063L60.102266252 185.483868574L60.1825351272 185.843037322L60.210938 186.23438L60.1929464219 186.430058695L60.1401709224 186.608661553L60.0544103532 186.771212169L59.9374635664 186.918734141L59.7911294139 187.052251063L59.6172067476 187.172786533L59.4174944194 187.281364147L59.1937912813 187.3790075L58.9478961851 187.466740189L58.6816079829 187.545585811L58.095047668 187.680710234L57.4485011519 187.792569541L56.75635925 187.8893525L55.2928525508 188.070444453L54.5502693843 188.171130986L53.8196540938 188.28949625L53.1153974946 188.433729014L52.4518904023 188.612018047L52.1399150511 188.716492655L51.8435236323 188.832552119L51.564514998 188.961220035L51.304688 189.10352L50.3947525012 189.68391575L48.7354809193 190.778125059L43.6009942422 194.213044219L29.0926999875 204.00430375L7.3144531 218.75586L6.61033904727 219.256241563L6.31350374878 219.494733633L6.05087498437 219.7302325L5.82049679067 219.966342617L5.6204132043 220.206668438L5.44866826187 220.454814414L5.303306 220.714385L5.18237045532 220.988984648L5.08390566445 221.282217813L5.00595566401 221.597688945L4.94656449063 221.9390025L4.90377618091 222.30976293L4.87563477148 222.713574687L4.8554688 223.63477L4.8554688 231.71094L4.8554688 231.71289L4.87505980215 232.991816426L4.90257490569 233.525558621L4.94459316719 233.998720781L5.00313215388 234.418728391L5.08020943301 234.793006934L5.1778425718 235.128981892L5.2980491375 235.43407875L5.44284669734 235.715722991L5.61425281855 235.981340098L5.81428506838 236.238355554L6.04496101406 236.494194844L6.30829822283 236.75628345L6.60631426191 237.032046855L7.3144531 237.6543L9.42131018262 239.437791504L13.6850037172 243.016985156L25.7854261125 253.14585375L43.996094 268.36914L44.0921921294 268.43621874L44.2149754727 268.500285466L44.5327975312 268.621542168L44.9339596367 268.737228684L45.40286125 268.851663594L46.4814808438 269.09405291L47.0599977461 269.230644475L47.643852 269.38325875L48.2174430664 269.556214314L48.7651704062 269.753829746L49.2714334805 269.980423625L49.5041407495 270.105937039L49.72063175 270.240314531L49.9189564146 270.384095925L50.0971646758 270.537821042L50.2533064663 270.702029706L50.3854317187 270.877261738L50.4915903657 271.064056961L50.5698323398 271.262955198L50.6182075737 271.47449627L50.634766 271.69922L50.634766 274.68164L50.6178723517 274.90261374L50.5677782812 275.135131763L50.4853641002 275.378841463L50.3715101204 275.633390234L50.2270966535 275.898425471L50.0530040112 276.173594565L49.8501125052 276.458544913L49.6193024473 276.752923906L49.0774479221 277.368557407L48.4344829294 278.017674219L47.6974499627 278.697453491L46.8733915156 279.405074375L45.9693500817 280.137716021L44.9923681545 280.892557578L43.9494882278 281.666778198L42.8477527949 282.457557031L41.6942043496 283.262073228L40.4958853855 284.077505938L37.993105875 285.7298375L35.3957542122 287.391984922L32.7601703457 289.041381406L27.5996657969 292.211654375L22.9623118184 295.060122031L20.9806661648 296.307261875L19.298828 297.40625L17.3965224853 298.706224719L15.3718133102 300.114324785L14.3300675425 300.860441585L13.2775330909 301.635413435L12.2208140323 302.439848241L11.1665144437 303.274353906L10.1212384023 304.139538336L9.09158998486 305.036009436L8.08417326859 305.96437511L7.10559233047 306.925243262L6.16245124752 307.919221797L5.26135409678 308.946918621L4.82863577005 309.473601361L4.40890495526 310.008941637L4.00298716203 310.553015437L3.6117079 311.10589875L3.23589267879 311.667667563L2.87636700802 312.238397865L2.53395639733 312.818165644L2.20948635635 313.407046887L1.9037823947 314.005117583L1.61767002201 314.61245372L1.35197474791 315.229131286L1.10752208203 315.85522627L0.885137533998 316.490814658L0.68564661344 317.135972439L0.509874829985 317.790775602L0.358647693262 318.455300134L0.232790712898 319.129622024L0.133129398523 319.813817259L0.0604892597641 320.507961828L0.01569580625 321.212131719L-0.000425452391052 321.926402919L0.0129509934692 322.650851418L0.0566506534592 323.385553202L0.131499037207 324.13058426L0.238321654341 324.886020581L0.37794401449 325.651938152L0.551191627281 326.428412961L0.758890002344 327.215520996L1.00186464931 328.013338246L1.2809410778 328.821940699L1.59694479744 329.641404342L1.95070131787 330.471805164L2.34303614871 331.313219152L2.7747747996 332.165722296L3.24674278015 333.029390582L3.7597656 333.9043L44.261719 400.71289L44.6751468192 401.374589551L45.0964606148 402.009112616L45.5255617535 402.61679113L45.9623516018 403.197957024L46.4067315264 403.752942232L46.8586028939 404.282078686L47.3178670708 404.78569832L47.7844254238 405.264133066L48.2581793195 405.717714858L48.7390301244 406.146775628L49.2268792052 406.551647309L49.7216279285 406.932661833L50.2231776608 407.290151135L50.7314297688 407.624447147L51.246285619 407.935881801L51.7676465781 408.224787031L52.2954140127 408.49149477L52.8294892893 408.73633695L53.3697737746 408.959645504L53.9161688352 409.161752366L54.4685758376 409.342989468L55.0268961485 409.503688742L55.5910311345 409.644182123L56.1608821621 409.764801543L56.736350598 409.865878935L57.3173378087 409.947746231L57.903745161 410.010735365L58.4954740212 410.055178269L59.0924257562 410.081406877L59.6945017324 410.089753121L60.3016033165 410.080548934L60.913631875 410.05412625L61.5304887746 410.010817001L62.1520753819 409.950953119L62.7782930634 409.874866539L63.4090431858 409.782889192L64.6837462196 409.552589931L65.975395416 409.262710801L67.2832017079 408.915907263L68.6063760281 408.514834783L69.9441293093 408.062148822L71.2956724844 407.560504844L72.6602164861 407.012558312L74.0369722473 406.42096469L75.4251507008 405.788379441L76.8239627793 405.117458027L78.2326194157 404.410855913L79.6503315427 403.671228562L81.0763100932 402.901231436L82.509766 402.10352L82.8613026393 401.936295585L83.198079634 401.837216401L83.3612248632 401.811943526L83.5210300993 401.802161663L83.8310871504 401.827010586L84.1291839024 401.907642385L84.4162534705 402.039936274L84.6932289698 402.21977147L84.9610435156 402.443027187L85.2206302231 402.705582641L85.4729222073 403.003317046L85.7188525835 403.332109617L85.9593544668 403.68783957L86.4278052156 404.463628481L86.885739375 405.2977175L87.7999176113 407.008930742L88.271091531 407.820122407L88.5134655943 408.200191754L88.7616085469 408.557749063L89.0164535038 408.888673549L89.2789335803 409.188844429L89.5499818916 409.454140916L89.8305315527 409.680442227L90.121515679 409.863627575L90.4238673855 409.999576177L90.7385197874 410.084167247L91.066406 410.11328L94.46875 410.11328L94.7886528452 410.092994387L95.0949273792 410.033863884L95.3882113802 409.938477997L95.669142627 409.80942623L95.9383588979 409.649298089L96.1964979714 409.460683079L96.4441976262 409.246170703L96.6820956406 409.008350469L96.9108297932 408.74981188L97.1310378625 408.473144441L97.5484268652 407.875781035L97.9393648767 407.236976292L98.308954125 406.57744625L99.0044952441 405.279074434L99.340651571 404.681664739L99.6758680469 404.146393906L99.8447182869 403.908534326L100.0152469 403.693977976L100.188091664 403.505314362L100.363890357 403.345132988L100.543280759 403.21602336L100.726900648 403.120574983L100.915387802 403.061377361L101.10938 403.04102L105.26758 403.04102L105.450307615 403.061244508L105.633403186 403.120326143L105.816989864 403.215674569L106.001190801 403.344699453L106.186129147 403.50481046L106.371928054 403.693417256L106.746600156 404.145756875L107.126192317 404.680995635L107.511689746 405.278410859L108.30434125 406.57688L108.713465745 407.236488564L109.132436348 407.875382891L109.562238269 408.472840303L110.003856719 409.008138125L110.22940502 409.246001354L110.458276907 409.460553682L110.690595531 409.649204774L110.926484043 409.809364297L111.166065595 409.938441915L111.409463337 410.033847295L111.656800422 410.092990101L111.9082 410.11328L145.1543 410.11328L145.1543 378.36328L154.60352 378.36523L154.60352 408.76953L155.94531 410.11133L180.47461 410.11133L181.81641 408.76953L181.81641 381.95508L181.89648 381.11328L182.12305 380.38477L182.47656 379.76758L182.9375 379.26172L183.48047 378.86914L184.08594 378.58984L184.73438 378.42188L185.4043 378.36523L186.07422 378.42188L186.72266 378.58984L187.33008 378.86914L187.87305 379.26172L188.33398 379.76758L188.68555 380.38477L188.91602 381.11328L188.99609 381.95508L188.99609 408.77148L190.33789 410.11133L229.98633 410.11133L231.32812 408.77148L231.32812 361.06445L231.343471794 360.206814824L231.38822064 359.420033438L231.460406734 358.699567988L231.558070273 358.040880625L231.679251454 357.439433496L231.821990474 356.89068875L231.984327527 356.390108535L232.164302813 355.933155L232.359956525 355.515290293L232.569328862 355.131976562L232.79046002 354.778675957L233.021390195 354.450850625L233.260159584 354.143962715L233.504808384 353.853474375L234.003905 353.303545L234.503001616 352.764759687L234.986419805 352.200815625L235.21734998 351.898064434L235.438481138 351.57541L235.647853475 351.228314473L235.843507187 350.85224L236.023482473 350.44264873L236.185819526 349.995002813L236.328558546 349.504764395L236.449739727 348.967395625L236.547403266 348.378358652L236.61958936 347.733115625L236.664338206 347.027128691L236.67969 346.25586L236.67969 224.87109L236.664338206 224.532106369L236.61958936 224.214527629L236.547403266 223.916136076L236.449739727 223.634714004L236.328558546 223.368043706L236.185819526 223.113907478L236.023482473 222.870087613L235.843507187 222.634366406L235.438481138 222.178349143L234.986419805 221.728114043L234.503001616 221.26591946L234.003905 220.77402375L233.504808384 220.234685266L233.260159584 219.94168072L233.021390195 219.630162363L232.79046002 219.297912491L232.569328862 218.942713396L232.359956525 218.562347374L232.164302813 218.154596719L231.984327527 217.717243725L231.821990474 217.248070686L231.679251454 216.744859897L231.558070273 216.205393652L231.460406734 215.627454246L231.38822064 215.008823972L231.343471794 214.347285125L231.32812 213.64062L231.29467375 198.79515375L231.290492969 191.460892031L231.302512715 188.534272207L231.32812 186.375L231.319276107 186.092701682L231.293298777 185.814107207L231.250946409 185.539561355L231.192977402 185.269408906L231.120150156 185.003994641L231.033223069 184.74366334L230.820102969 184.23962875L230.559684294 183.760063379L230.258034238 183.307725469L229.921219993 182.885373262L229.55530875 182.495765L229.166367703 182.141658926L228.760464043 181.825813281L228.343664963 181.550986309L227.922037656 181.31993625L227.501649314 181.135421348L227.088567129 181.000199844L226.688858293 180.91702998L226.30859 180.88867L225.944727539 180.860347593L225.591379844 180.777218086L225.250335195 180.642038052L224.923381875 180.457564063L224.612308164 180.22655269L224.318902344 179.951760508L224.044952695 179.635944087L223.7922475 179.28186L223.562575039 178.892264819L223.357723594 178.469915117L223.179481445 178.017567466L223.029636875 177.537978437L222.909978164 177.033904604L222.822293594 176.508102539L222.768371445 175.963328813L222.75 175.40234L222.765633057 174.87664196L222.811649141 174.358930527L222.886723623 173.852783479L222.989531875 173.361778594L223.118749268 172.88949365L223.273051172 172.439506426L223.451112959 172.0153947L223.65161 171.62073625L223.873217666 171.259108855L224.114611328 170.934090293L224.374466357 170.649258342L224.651458125 170.408190781L224.944262002 170.214465388L225.251553359 170.071659941L225.572007568 169.983352219L225.736756796 169.960753061L225.9043 169.95312L226.30859 169.95312L226.672512339 169.924796826L227.025908867 169.841665234L227.366991978 169.706482119L227.693974062 169.522004375L228.005067515 169.290988896L228.298484727 169.016192578L228.572438091 168.700372314L228.82514 168.346285L229.054802847 167.956687529L229.259639023 167.534336797L229.437860923 167.081989697L229.587680937 166.602403125L229.70731146 166.098333975L229.794964883 165.572539141L229.848853599 165.027775518L229.86719 164.4668L229.848769114 163.905905559L229.794810254 163.361202754L229.707100369 162.835450486L229.587426406 162.331407656L229.437575315 161.851833167L229.259334043 161.399485918L229.054489539 160.977124812L228.82482875 160.58750875L228.572138625 160.233396633L228.298206113 159.917547363L228.004818162 159.642719841L227.693761719 159.411672969L227.366823733 159.227165647L227.025791152 159.091956777L226.672450925 159.008805261L226.30859 158.98047L225.944727539 158.952146714L225.591379844 158.869014805L225.250335195 158.733831196L224.923381875 158.549352812L224.612308164 158.318336577L224.318902344 158.043539414L224.044952695 157.727718247L223.7922475 157.37363L223.562575039 156.984031597L223.357723594 156.561679961L223.179481445 156.109332017L223.029636875 155.629744687L222.909978164 155.125674897L222.822293594 154.59987957L222.768371445 154.05511563L222.75 153.49414L222.765690444 152.967722869L222.811871523 152.449431855L222.887207856 151.942831907L222.990364062 151.451487969L223.120004761 150.978964988L223.27479457 150.52882791L223.45339811 150.104641682L223.65448 149.70997125L223.876704858 149.34838156L224.118737305 149.023437559L224.379241958 148.738704192L224.656883438 148.497746406L224.950326362 148.304129148L225.258235352 148.161417363L225.579275024 148.073175999L225.744301561 148.050595769L225.91211 148.04297L226.30859 148.04297L226.672512339 148.014648801L227.025908867 147.931522598L227.366991978 147.796347478L227.693974062 147.611879531L228.005067515 147.380874846L228.298484727 147.106089512L228.572438091 146.790279617L228.82514 146.43620125L229.054802847 146.0466105L229.259639023 145.624263457L229.437860923 145.171916208L229.587680937 144.692324844L229.70731146 144.188245452L229.794964883 143.662434121L229.848853599 143.117646941L229.86719 142.55664L229.848769114 141.995742263L229.794810254 141.451040293L229.707100369 140.9252922L229.587426406 140.421256094L229.437575315 139.941690085L229.259334043 139.489352285L229.054489539 139.067000803L228.82482875 138.67739375L228.572138625 138.323289236L228.298206113 138.007445371L228.004818162 137.732620266L227.693761719 137.501572031L227.366823733 137.317058777L227.025791152 137.181838613L226.672450925 137.098669651L226.30859 137.07031L225.944727539 137.041954194L225.591379844 136.958795742L225.250335195 136.823591216L224.923381875 136.639097187L224.612308164 136.408070229L224.318902344 136.133266914L224.044952695 135.817443813L223.7922475 135.4633575L223.562575039 135.073764546L223.357723594 134.651421523L223.179481445 134.199085005L223.029636875 133.719511562L222.909978164 133.215457769L222.822293594 132.689680195L222.768371445 132.144935415L222.75 131.58398L222.765690444 131.057544741L222.811871523 130.539240273L222.887207856 130.03263106L222.990364062 129.541281562L223.120004761 129.068756245L223.27479457 128.61861957L223.45339811 128.194436001L223.65448 127.79977L223.876704858 127.43818603L224.118737305 127.113248555L224.379241958 126.828522036L224.656883438 126.587570938L224.950326362 126.393959722L225.258235352 126.251252852L225.579275024 126.16301479L225.744301561 126.140435457L225.91211 126.13281L226.30859 126.13281L226.672512339 126.104486714L227.025908867 126.021354805L227.366991978 125.886171196L227.693974062 125.701692812L228.005067515 125.470676577L228.298484727 125.195879414L228.572438091 124.880058247L228.82514 124.52597L229.054802847 124.136371597L229.259639023 123.714019961L229.437860923 123.261672017L229.587680937 122.782084688L229.70731146 122.278014897L229.794964883 121.75221957L229.848853599 121.20745563L229.86719 120.64648L229.848769114 120.085580618L229.794810254 119.54087416L229.707100369 119.015119412L229.587426406 118.511075156L229.437575315 118.031500178L229.259334043 117.579153262L229.054489539 117.156793191L228.82482875 116.76717875L228.572138625 116.413068723L228.298206113 116.097221895L228.004818162 115.822397048L227.693761719 115.591352969L227.366823733 115.40684844L227.025791152 115.271642246L226.672450925 115.188493171L226.30859 115.16016L225.944727539 115.131836714L225.591379844 115.048704805L225.250335195 114.913521196L224.923381875 114.729042813L224.612308164 114.498026577L224.318902344 114.223229414L224.044952695 113.907408247L223.7922475 113.55332L223.562575039 113.163721597L223.357723594 112.741369961L223.179481445 112.289022017L223.029636875 111.809434687L222.909978164 111.305364897L222.822293594 110.77956957L222.768371445 110.23480563L222.75 109.67383L222.765633057 109.148138442L222.811649141 108.630431602L222.886723623 108.124287476L222.989531875 107.633284062L223.118749268 107.16099936L223.273051172 106.711011367L223.451112959 106.286898081L223.65161 105.8922375L223.873217666 105.530607622L224.114611328 105.205586445L224.374466357 104.920751968L224.651458125 104.679682188L224.944262002 104.485955103L225.251553359 104.343148711L225.572007568 104.254841011L225.736756796 104.232242294L225.9043 104.22461L226.30859 104.22461L226.672512339 104.196266022L227.025908867 104.113075523L227.366991978 103.977800653L227.693974062 103.793203562L228.005067515 103.562046401L228.298484727 103.28709132L228.572438091 102.97110047L228.82514 102.616836L229.054802847 102.227060062L229.259639023 101.804534805L229.437860923 101.35202238L229.587680937 100.872284938L229.70731146 100.368084628L229.794964883 99.8421836016L229.848853599 99.2973440088L229.86719 98.736328L229.848769114 98.1754423926L229.794810254 97.6307502813L229.707100369 97.1050099199L229.587426406 96.6009795625L229.437575315 96.1214174629L229.259334043 95.669081875L229.054489539 95.2467310527L228.82482875 94.85712325L228.572138625 94.5030167207L228.298206113 94.1871697187L228.004818162 93.912340498L227.693761719 93.6812873125L227.366823733 93.496768416L227.025791152 93.3615420625L226.672450925 93.2783665059L226.30859 93.25L225.944727539 93.2216261223L225.591379844 93.1384550254L225.250335195 93.0032426384L224.923381875 92.8187448906L224.612308164 92.5877177112L224.318902344 92.3129170293L224.044952695 91.9970987742L223.7922475 91.643018875L223.562575039 91.253433261L223.357723594 90.8310978613L223.179481445 90.3787686052L223.029636875 89.8992014219L222.909978164 89.3951522405L222.822293594 88.8693769902L222.768371445 88.3246316003L222.75 87.763672L222.765690444 87.2372703523L222.811871523 86.7190364902L222.887207856 86.2125294729L222.990364062 85.7213083594L223.120004761 85.2489322087L223.27479457 84.7989600801L223.45339811 84.3749510325L223.65448 83.980464125L223.876704858 83.6190584167L224.118737305 83.2942929668L224.379241958 83.0097268342L224.656883438 82.7689190781L224.950326362 82.5754287576L225.258235352 82.4328149316L225.579275024 82.3446366594L225.744301561 82.3220730619L225.91211 82.314453L226.30859 82.314453L226.672512339 82.2861317908L227.025908867 82.2030055605L227.366991978 82.0678304055L227.693974062 81.8833624219L228.005067515 81.6523577058L228.298484727 81.3775723535L228.572438091 81.0617624612L228.82514 80.707684125L229.054802847 80.3180934412L229.259639023 79.8957465059L229.437860923 79.4433994153L229.587680937 78.9638082656L229.70731146 78.4597291531L229.794964883 77.9339181738L229.848853599 77.3891314241L229.86719 76.828125L229.848769114 76.2672575969L229.794810254 75.722578166L229.707100369 75.1968456248L229.587426406 74.6928188906L229.437575315 74.2132568811L229.259334043 73.7609185137L229.054489539 73.3385627058L228.82482875 72.948948375L228.572138625 72.5948344387L228.298206113 72.2789798145L228.004818162 72.0041434197L227.693761719 71.7730841719L227.366823733 71.5885609885L227.025791152 71.4533327871L226.672450925 71.3701584851L226.30859 71.341797L225.944727539 71.3134413267L225.591379844 71.2302829102L225.250335195 71.0950783433L224.923381875 70.9105842188L224.612308164 70.6795571294L224.318902344 70.404753668L224.044952695 70.0889304272L223.7922475 69.734844L223.562575039 69.345250979L223.357723594 68.922907957L223.179481445 68.4705715269L223.029636875 67.9909982812L222.909978164 67.486944813L222.822293594 66.9611677148L222.768371445 66.4164235796L222.75 65.855469L222.765690444 65.3290266326L222.811871523 64.8107168418L222.887207856 64.3041039075L222.990364062 63.8127521094L223.120004761 63.3402257273L223.27479457 62.890089041L223.45339811 62.4659063303L223.65448 62.071241875L223.876704858 61.7096599548L224.118737305 61.3847248496L224.379241958 61.1000008391L224.656883438 60.8590522031L224.950326362 60.6654432214L225.258235352 60.5227381738L225.579275024 60.4345013401L225.744301561 60.4119223409L225.91211 60.404297L226.30859 60.404297L226.672513987 60.3759741318L227.02591502 60.2928433672L227.367004832 60.1576614658L227.693995156 59.9731851875L228.005097727 59.742171292L228.298524277 59.4673765391L228.572486541 59.1515576885L228.82519625 58.7974715L229.054865139 58.4078747334L229.259704941 57.9855241484L229.43792739 57.5331765049L229.587744219 57.0535885625L229.707367161 56.5495170811L229.795007949 56.0237188203L229.848878318 55.47895054L229.86719 54.917969L229.855361543 54.5057167207L229.821527969 54.1028053281L229.767953223 53.7097117402L229.69690125 53.326912875L229.610635996 52.9548856504L229.511421406 52.5941069844L229.2832 51.908203L229.139761375 51.5444915266L228.98594584 51.2031233691L228.822425159 50.8844847966L228.649871094 50.5889620781L228.468955408 50.3169414827L228.280349863 50.0688092793L228.084726223 49.8449517371L227.88275625 49.645755125L227.675111707 49.4716057122L227.462464355 49.3228897676L227.245485959 49.1999935603L227.024848281 49.1033033594L226.801223083 49.0332054338L226.575282129 48.9900860527L226.34769718 48.9743314851L226.11914 48.986328L225.941356947 48.9986381926L225.763699016 48.9954782827L225.409478379 48.9445673555L225.05791781 48.8372336177L224.710457031 48.6771154687L224.368535764 48.4678513081L224.03359373 48.2130795352L223.707070652 47.9164385493L223.39040625 47.58156675L223.085040247 47.2121025366L222.792412363 46.8116843086L222.513962322 46.3839504653L222.251129844 45.9325394063L222.005354651 45.4610895308L221.778076465 44.9732392383L221.570735007 44.4726269282L221.38477 43.962891L221.229498281 43.4746043989L221.094718906 42.981859332L220.981310547 42.4876342163L220.890151875 41.9949074688L220.822121563 41.5066575063L220.778098281 41.0258627461L220.758960703 40.555501605L220.7655875 40.0985525L220.798857344 39.6579938481L220.859648906 39.2368040664L220.948840859 38.8379615718L221.067311875 38.4644447812L221.215940625 38.1192321118L221.395605781 37.8053019805L221.607186016 37.5256328042L221.85156 37.283203L222.02318625 37.17304175L222.20898 37.074219L222.363232609 36.9733719656L222.507694504 36.8585909788L222.642205852 36.730407964L222.766606816 36.5893548457L222.880737564 36.4359635485L222.984438259 36.2707659968L223.159910156 35.9070798281L223.291743831 35.5025517356L223.378660605 35.0614371152L223.419381804 34.587991363L223.41262875 34.086469875L223.357122766 33.5611280471L223.251585176 33.0162212754L223.094737302 32.4560049558L222.885300469 31.8847344844L222.621995999 31.3066652571L222.303545215 30.7260526699L221.928669441 30.1471521189L221.49609 29.574219L221.027312344 29.0373323411L220.542735469 28.5574804004L220.046547891 28.1340422322L219.542938125 27.7663968906L219.036094687 27.4539234299L218.530206094 27.1960009043L218.029460859 26.9920083679L217.5380475 26.841324875L217.060154531 26.7433294797L216.599970469 26.6974012363L216.161683828 26.702919199L215.749483125 26.7592624219L215.367556875 26.8658099592L215.189255581 26.9377163003L215.020093594 27.0219408652L214.860594478 27.1184060359L214.711281797 27.2270341941L214.572679116 27.3477477215L214.44531 27.480469L214.293154468 27.6376952432L214.127532305 27.7783974453L213.949245161 27.9029321904L213.759094688 28.0116560625L213.557882534 28.1049256455L213.346410352 28.1830975234L213.12547979 28.2465282803L212.8958925 28.2955745L212.413954336 28.3519396641L211.907009062 28.3550456875L211.381469883 28.3077452422L210.84375 28.212891L210.464445723 28.1186402773L210.080773281 27.9995628437L209.694345762 27.8558319258L209.30677625 27.68762075L208.919677832 27.495102543L208.534663594 27.2784505313L208.153346621 27.0378379414L207.77734 26.773438L207.374140173 26.4568830168L206.995163574 26.1235454785L206.641835774 25.7757703142L206.315582344 25.4159024531L206.017828855 25.0462868245L205.750000879 24.6692683574L205.513523987 24.2871919812L205.30982375 23.902402625L205.14032574 23.517245218L205.006455527 23.1340646895L204.909638684 22.7552059685L204.851300781 22.3830139844L204.83286739 22.0198336663L204.855764082 21.6680099434L204.921416428 21.3298877449L205.03125 21.007812L205.12975625 20.836189875L205.24414 20.667969L205.413564009 20.3417116128L205.529047227 19.9931419805L205.59177269 19.6255614595L205.602923438 19.2422714062L205.563682505 18.8465731772L205.47523293 18.4417681289L205.338757749 18.0311576177L205.15544 17.618043L204.92646272 17.2057256323L204.653008945 16.7975068711L204.336261714 16.3966880728L203.977404062 16.0065705937L203.577619028 15.6304557905L203.138089648 15.2716450195L202.65999896 14.9334396372L202.14453 14.619141L201.610279761 14.3409469189L201.075984492 14.1076266328L200.544993618 13.9184439521L200.020656562 13.7726626875L199.506322749 13.6695466494L199.005341602 13.6083596484L198.521062544 13.5883654951L198.056835 13.608828L197.616008394 13.6690109736L197.201932148 13.7681782266L196.817955688 13.9055935693L196.467428438 14.0805208125L196.153699819 14.2922237666L195.880119258 14.5399662422L195.650036177 14.8230120498L195.4668 15.140625L195.284728423 15.4582706289L195.05788082 15.7423692969L194.789534136 15.9928093008L194.482965312 16.2094789375L194.141451294 16.3922665039L193.768269023 16.5410602969L193.366695444 16.6557486133L192.9400075 16.73621975L192.491482134 16.7823620039L192.024396289 16.7940636719L191.542026909 16.7712130508L191.047650937 16.7136984375L190.544545317 16.6214081289L190.035986992 16.4942304219L189.525252905 16.3320536133L189.01562 16.134766L188.551946704 15.9227683689L188.108346133 15.6883489355L187.686709136 15.4334897024L187.288926562 15.1601726719L186.916889263 14.8703798464L186.572488086 14.5660932285L186.257613882 14.2492948206L185.9741575 13.921966625L185.72400979 13.5860906443L185.509061602 13.2436488809L185.331203784 12.8966233372L185.192327187 12.5469960156L185.094322661 12.1967489187L185.039081055 11.8478640488L185.028493218 11.5023234084L185.06445 11.162109L185.1234725 10.968919875L185.19922 10.775391L185.292984365 10.4180965463L185.329800703 10.0510730232L185.311537627 9.67724910696L185.24006375 9.29955347344L185.117247686 8.92091479871L184.944958047 8.54426175879L184.725063447 8.17252302971L184.4594325 7.8086272875L184.149933818 7.45550320818L183.798436016 7.11607946777L183.406807705 6.79328474231L182.9769175 6.49004770781L182.510634014 6.20929704031L182.009825859 5.95396141582L181.47636165 5.72696951038L180.91211 5.53125L180.336954319 5.37448787112L179.770322988 5.26111086582L179.215365203 5.18977834988L178.675230156 5.15914968906L178.153067043 5.16788424915L177.652025059 5.2146413959L177.175253396 5.29808049509L176.72590125 5.4168609125L176.307117815 5.56964201389L175.922052285 5.75508316504L175.573853855 5.97184373171L175.265671719 6.21858307969L175.000655071 6.49396057473L174.781953105 6.79663558262L174.612715017 7.12526746912L174.49609 7.4785156L174.380639849 7.83065170256L174.214278789 8.15903657676L174.000197163 8.46281774109L173.741585312 8.74114271406L173.441633579 8.99315901418L173.103532305 9.21801415996L172.730471831 9.4148556699L172.3256425 9.5828310625L171.892234653 9.72108785627L171.433438633 9.82877356973L170.95244478 9.90503572136L170.452443437 9.94902182969L169.936624946 9.95987941321L169.408179648 9.93675599043L168.870297886 9.87879907986L168.32617 9.7851562L167.822410505 9.66719155422L167.329148418 9.52232552598L166.849888333 9.35228170388L166.388134844 9.15878367656L165.947392546 8.94355503264L165.531166035 8.70831936074L165.142959905 8.45480024949L164.78627875 8.1847212875L164.464627166 7.8998060634L164.181509746 7.60177816582L163.940431086 7.29236118337L163.744895781 6.97327870469L163.598408425 6.64625431838L163.504473613 6.31301161309L163.46659594 5.97527417742L163.469773716 5.80525855714L163.48828 5.6347656L163.55273 5.2167969L163.580707529 4.84000116053L163.551237578 4.45749075047L163.466633838 4.07340845736L163.32921 3.69189706875L163.141279756 3.31709937217L162.905156797 2.95315815516L162.623154814 2.60421620525L162.2975875 2.27441631L161.930768545 1.96790125693L161.525011641 1.68881383359L161.082630479 1.44129682752L160.60593875 1.22949302625L160.097250146 1.05754521732L159.558878359 0.929596188281L158.99313708 0.84978872666L158.40234 0.82226562L157.807603994 0.834881179614L157.229255547 0.872580261914L156.670082139 0.935141472085L156.13287125 1.02234341531L155.620410361 1.13396469678L155.135486953 1.26978392168L154.680888506 1.42957969519L154.2594025 1.6131306225L153.873816416 1.82021530879L153.526917734 2.05061235926L153.221493936 2.30410037908L152.9603325 2.58045797344L152.746220908 2.87946374752L152.581946641 3.20089630652L152.470297178 3.54453425562L152.41406 3.9101562L152.358317021 4.27984947073L152.248363516 4.63466120645L152.087200127 4.97317118621L151.8778275 5.29395918906L151.623246279 5.59560499407L151.326457109 5.87668838027L150.990460635 6.13578912673L150.6182575 6.3714870125L150.21284835 6.58236181663L149.777233828 6.76699331816L149.31441458 6.92396129617L148.82739125 7.05184552969L148.319164482 7.14922579778L147.792734922 7.21468187949L147.251103213 7.24679355388L146.69727 7.2441406L146.18247063 7.21002346963L145.680062695 7.14667156016L145.19243146 7.05539511279L144.721962188 6.93750436875L144.271040142 6.79430956924L143.842050586 6.62712095547L143.437378784 6.43724876865L143.05941 6.22600325L142.710529497 5.99469464072L142.393122539 5.74463318203L142.10957439 5.47712911514L141.862270313 5.19349268125L141.653595571 4.89503412158L141.48593543 4.58306367734L141.361675151 4.25889158975L141.2832 3.9238281L141.27469875 3.7197023875L141.2832 3.5097656L141.253916064 3.1374788212L141.168198203 2.77623410697L141.028819834 2.42804857804L140.838554375 2.09493935516L140.600175244 1.77892355905L140.316455859 1.48201831045L139.990169639 1.2062407301L139.62409 0.95360793875L139.220990361 0.726137057122L138.783644141 0.525845205957L138.314824756 0.354749505994L137.817305625 0.214867077969L137.293860166 0.10821504262L136.747261797 0.0368105206836L136.180283936 0.00267063289795L135.5957 0.0078125L135.5957 0.0078125M52.429688 206.84961L52.589577125 206.86095125L52.710938 206.89648L53.546765166 207.296178203L54.4067116406 207.7357825L54.8327561311 207.971571162L55.2492622637 208.218562422L55.6510406433 208.477164971L56.032901875 208.7477875L56.3896565637 209.030838701L56.7161153145 209.326727266L57.0070887322 209.635861885L57.2573874219 209.95865125L57.4618219885 210.295504053L57.6152030371 210.646828984L57.6711268062 210.828046215L57.7123411726 211.013034736L57.738197462 211.201845636L57.748047 211.39453L58.078125 250.80273L58.0712755571 250.991164328L58.0476128047 251.174045208L58.0077801694 251.351554172L57.9524210781 251.523872754L57.8821789575 251.691182486L57.7976972344 251.8536649L57.5885886875 252.164873906L57.3302428516 252.458952034L57.0278071406 252.737351543L56.6864289688 253.001524695L56.31125575 253.25292375L55.9074348984 253.493000969L55.4801138281 253.723208613L54.5755606875 254.159824219L53.6387756406 254.574388652L52.710938 254.97852L52.5779235682 255.013105923L52.4071401844 255.016748607L52.1998635126 254.990326361L51.957369217 254.934717493L51.6809329619 254.850800311L51.3718304112 254.739453125L50.6607290801 254.437981973L49.8342705368 254.037330506L48.9026600945 253.544525193L47.8761030664 252.966592503L46.7648047656 252.310558906L45.5789705054 251.583450871L44.3288055989 250.792294866L43.0245153592 249.944117361L41.6763050996 249.045944824L40.2943801332 248.104803726L38.8889457732 247.127720535L37.4702073327 246.12172172L36.048370125 245.09383375L34.6336394632 244.051083095L33.2362206604 243.000496223L31.8663190299 241.949099604L30.5341398848 240.903919707L29.2498885382 239.871983001L28.0237703035 238.860315955L26.8659904936 237.875945038L25.7867544219 236.925896719L24.7962674014 236.017197467L23.9047347454 235.156873752L23.1223617669 234.351952043L22.4593537793 233.609458809L22.1758008174 233.263818641L21.9259160956 232.936420518L21.7109752781 232.628142748L21.5322540291 232.33986364L21.3910280126 232.072461503L21.2885728928 231.826814644L21.2261643339 231.603801374L21.205078 231.4043L21.205078 226.23438L21.2250527101 226.026181057L21.2841926172 225.802725959L21.3813213867 225.564607457L21.5152626838 225.312418301L21.6848401739 225.046751242L21.8888775223 224.768199031L22.1261983943 224.477354419L22.3956264551 224.174810156L23.0260988046 223.536993684L23.7708838933 222.859491621L24.6205710437 222.147045974L25.5657495781 221.40439875L26.5970088191 220.636291956L27.7049380891 219.847467598L28.8801267105 219.042667683L30.1131640059 218.226634219L31.3946392975 217.404109211L32.715141908 216.579834668L34.0652611596 215.758552595L35.435586375 214.945005L36.8167068765 214.143933889L38.1992119866 213.36008127L39.5736910277 212.598189148L40.9307333223 211.862999531L42.2609281928 211.159254426L43.5548649617 210.49169584L44.8031329514 209.865065779L45.9963214844 209.28410625L47.1250198831 208.75355926L48.17981747 208.278166816L49.1513035675 207.862670925L50.030067498 207.511813594L50.8066985841 207.230336829L51.4717861482 207.022982637L52.0159195127 206.894493025L52.2396875333 206.861304314L52.429688 206.84961L52.429688 206.84961M25.570312 313.91602L26.0508185 313.943982434L26.5303197188 314.001373066L27.0078616094 314.088941267L27.482490125 314.207436406L27.9532512187 314.357607854L28.4191908437 314.54020498L28.8793549531 314.755977156L29.3327895 315.00567375L29.7785404375 315.290044133L30.2156537188 315.609837676L30.6431752969 315.965803748L31.060151125 316.358691719L31.4656271563 316.789250959L31.8586493437 317.25823084L32.2382636406 317.76638073L32.603516 318.31445L70.804688 378.99609L71.1027895065 379.495546026L71.3680928638 379.993678188L71.6013368128 380.490030424L71.8032600942 380.984146672L71.9746014491 381.475570873L72.1160996183 381.963846963L72.2284933428 382.448518881L72.3125213633 382.929130566L72.3689224208 383.405225957L72.3984352562 383.876348992L72.4017986103 384.342043609L72.3797512241 384.801853748L72.3330318385 385.255323345L72.2623791943 385.701996341L72.1685320324 386.141416674L72.0522290938 386.573128281L71.9142091192 386.996675102L71.7552108497 387.411601076L71.575973026 387.81745014L71.3772343892 388.213766233L71.15973368 388.600093294L70.9242096393 388.975975261L70.6714010082 389.340956073L70.4020465273 389.694579668L70.1168849378 390.036389985L69.8166549803 390.365930962L69.5020953958 390.682746538L69.1739449253 390.986380652L68.8329423095 391.276377241L68.4798262895 391.552280245L68.115335606 391.813633602L67.740209 392.05998125L67.3551852123 392.290867128L66.9610029839 392.505835175L66.5584010557 392.704429329L66.1481181685 392.886193528L65.7308930631 393.050671711L65.3074644807 393.197407817L64.8785711619 393.325945784L64.4449518477 393.435829551L64.0073452789 393.526603056L63.5664901966 393.597810237L63.1231253415 393.648995034L62.6779894546 393.679701384L62.2318212767 393.689473227L61.7853595488 393.6778545L61.3393430117 393.644389143L60.8945104062 393.588621094L60.4516004735 393.510094291L60.0113519542 393.408352672L59.5745035893 393.282940178L59.1417941196 393.133400745L58.7139622862 392.959278312L58.2917468298 392.760116819L57.8758864913 392.535460202L57.4671200117 392.284852402L57.0661861318 392.007837357L56.6738235926 391.703959004L56.2907711348 391.372761283L55.9177674995 391.013788132L55.5555514275 390.62658349L55.2048616596 390.210691295L54.8664369368 389.765655485L54.541016 389.29102L27.322266 347.47461L27.7782048207 347.226956863L28.2269315264 346.947595649L28.66741617 346.637756464L29.0986288047 346.298669414L29.5195394833 345.931564605L29.9291182588 345.537672144L30.3263351842 345.118222136L30.7101603125 344.674444687L31.0795636967 344.207569905L31.4335153896 343.718827896L31.7709854445 343.209448764L32.0909439141 342.680662617L32.3923608514 342.133699561L32.6742063096 341.569789702L32.9354503414 340.990163146L33.175063 340.39605L33.3920143383 339.788680369L33.5852744092 339.16928436L33.7538132657 338.539092079L33.8966009609 337.899333633L34.0126075477 337.251239127L34.1008030791 336.596038667L34.160157608 335.93496236L34.1896411875 335.269240312L34.1882238705 334.60010263L34.15487571 333.928779419L34.0885667589 333.256500786L33.9882670703 332.584496836L33.8529466971 331.913997676L33.6815756924 331.246233413L33.473124109 330.582434152L33.226562 329.92383L16.714844 328.83398L16.346318828 328.149231915L16.0392976628 327.462990398L15.7917930623 326.776814868L15.601817584 326.092264746L15.4673837856 325.41089945L15.3865042249 324.734278401L15.3571914594 324.063961017L15.3774580469 323.401506719L15.445316545 322.748474925L15.5587795115 322.106425056L15.7158595039 321.476916531L15.9145690801 320.86150877L16.1529207976 320.261761191L16.4289272141 319.679233215L16.7406008874 319.115484262L17.085954375 318.57207375L17.4630002347 318.0505611L17.8697510242 317.55250573L18.3042193011 317.079467061L18.764417623 316.633004512L19.2483585478 316.214677502L19.7540546331 315.826045452L20.2795184364 315.46866778L20.8227625156 315.144103906L21.3817994283 314.85391325L21.9546417322 314.599655232L22.5393019849 314.38288927L23.1337927441 314.205174785L23.7361265676 314.068071196L24.3443160129 313.973137922L24.9563736378 313.921934384L25.570312 313.91602L25.570312 313.91602M125.875 378.34766L126.555668333 378.364961686L127.227398085 378.416127796L127.88935835 378.500327301L128.540718223 378.616729174L129.1806468 378.764502387L129.808313174 378.942815913L130.42288644 379.150838722L131.023535693 379.387739789L131.609430027 379.652688084L132.179738538 379.94485258L132.73363032 380.263402249L133.270274468 380.607506063L133.788840076 380.976332994L134.288496238 381.369052016L134.768412051 381.784832099L135.227756607 382.222842216L135.665699003 382.682251339L136.081408333 383.16222844L136.47405369 383.661942492L136.842804171 384.180562467L137.18682887 384.717257336L137.505296881 385.271196072L137.797377299 385.841547648L138.062239218 386.427481035L138.299051735 387.028165205L138.506983942 387.642769131L138.685204935 388.270461786L138.832883808 388.91041214L138.949189657 389.561789166L139.033291575 390.223761837L139.084358658 390.895499124L139.10156 391.57617L139.084359155 392.256841248L139.033292528 392.928578919L138.949191026 393.590551983L138.832885554 394.241929411L138.685207019 394.881880174L138.506986327 395.509573241L138.299054385 396.124177585L138.062242097 396.724862175L137.797380372 397.310795982L137.505300114 397.881147977L137.186832231 398.435087131L136.842807628 398.971782413L136.474057211 399.490402796L136.081411887 399.990117249L135.665702563 400.470094743L135.227760143 400.929504249L134.768415535 401.367514737L134.288499644 401.783295178L133.788843377 402.176014543L133.27027764 402.544841803L132.733633339 402.888945927L132.179741381 403.207495887L131.609432672 403.499660654L131.023538117 403.764609198L130.422888623 404.001510489L129.808315097 404.209533499L129.180648444 404.387847198L128.540719571 404.535620556L127.889359384 404.652022545L127.227398789 404.736222135L126.555668692 404.787388296L125.875 404.80469L125.219032797 404.788440543L124.567517491 404.739974287L123.921538403 404.659740365L123.282179856 404.54818791L122.650526172 404.405766055L122.027661674 404.232923932L121.414670684 404.030110674L120.812637525 403.797775413L120.222646519 403.536367282L119.645781988 403.246335415L119.083128255 402.928128943L118.535769642 402.582196999L118.004790471 402.208988717L117.491275066 401.808953228L116.996307747 401.382539665L116.520972838 400.930197162L116.068630335 400.454862253L115.642216772 399.959894934L115.242181283 399.446379529L114.868973001 398.915400358L114.523041057 398.368041745L114.204834585 397.805388012L113.914802718 397.228523481L113.653394587 396.638532475L113.421059326 396.036499316L113.218246068 395.423508326L113.045403945 394.800643828L112.90298209 394.168990145L112.791429635 393.529631598L112.711195713 392.88365251L112.662729457 392.232137203L112.64648 391.57617L112.662729937 390.920203132L112.711196638 390.268688177L112.791430971 389.622709457L112.902983801 388.983351292L113.045405998 388.351698003L113.218248428 387.728833911L113.421061959 387.115843335L113.653397457 386.513810596L113.914805791 385.923820016L114.204837828 385.346955914L114.523044434 384.784302611L114.868976478 384.236944428L115.242184827 383.705965685L115.642220347 383.192450702L116.068633907 382.697483802L116.520976374 382.222149303L116.996311215 381.769807195L117.491278438 381.34339401L118.004793722 380.943358877L118.535772747 380.57015093L119.083131192 380.2242193L119.645784736 379.906013119L120.222649057 379.615981518L120.812639835 379.35457363L121.414672749 379.122238587L122.027663478 378.91942552L122.650527702 378.746583561L123.282181098 378.604161841L123.921539348 378.492609494L124.567518128 378.41237565L125.219033119 378.363909441L125.875 378.34766L125.875 378.34766"
       style="fill:none;fill-opacity:1;stroke:#000000;stroke-width:0.37795276;stroke-linecap:butt;stroke-linejoin:miter;stroke-miterlimit:4;stroke-dasharray:none;stroke-opacity:1" />
  </g>
  <g
     id="g9881"
     inkscape:groupmode="layer"
     inkscape:label="Margin-disabled"
     transform="translate(-54.157247,48.456151)" />
  <g
     id="g9883"
     inkscape:groupmode="layer"
     inkscape:label="B.CrtYd-disabled"
     transform="translate(-54.157247,48.456151)" />
  <g
     id="g9885"
     inkscape:groupmode="layer"
     inkscape:label="F.CrtYd-disabled"
     transform="translate(-54.157247,48.456151)" />
  <g
     id="g9887"
     inkscape:groupmode="layer"
     inkscape:label="B.Fab-disabled"
     transform="translate(-54.157247,48.456151)" />
  <g
     id="g9889"
     inkscape:groupmode="layer"
     inkscape:label="F.Fab-disabled"
     transform="translate(-54.157247,48.456151)" />
  <g
     id="g9891"
     inkscape:groupmode="layer"
     inkscape:label="Drill"
     transform="translate(-54.157247,48.456151)" />
</svg>
