<?xml version="1.0" encoding="UTF-8" standalone="no"?>
<!-- Created with Inkscape (http://www.inkscape.org/) -->

<svg
   xmlns:dc="http://purl.org/dc/elements/1.1/"
   xmlns:cc="http://creativecommons.org/ns#"
   xmlns:rdf="http://www.w3.org/1999/02/22-rdf-syntax-ns#"
   xmlns:svg="http://www.w3.org/2000/svg"
   xmlns="http://www.w3.org/2000/svg"
   xmlns:sodipodi="http://sodipodi.sourceforge.net/DTD/sodipodi-0.dtd"
   xmlns:inkscape="http://www.inkscape.org/namespaces/inkscape"
   width="62.621441mm"
   height="108.50902mm"
   viewBox="0 0 62.621441 108.50902"
   version="1.1"
   id="svg9297"
   inkscape:version="0.92.5 (2060ec1f9f, 2020-04-08)"
   sodipodi:docname="chainsaw-outline-shorter-wider.svg">
  <defs
     id="defs9291" />
  <sodipodi:namedview
     id="base"
     pagecolor="#ffffff"
     bordercolor="#666666"
     borderopacity="1.0"
     inkscape:pageopacity="0.0"
     inkscape:pageshadow="2"
     inkscape:zoom="0.98994949"
     inkscape:cx="87.691846"
     inkscape:cy="241.50868"
     inkscape:document-units="mm"
     inkscape:current-layer="svg9297"
     showgrid="true"
     inkscape:window-width="1858"
     inkscape:window-height="1177"
     inkscape:window-x="54"
     inkscape:window-y="-8"
     inkscape:window-maximized="1"
     borderlayer="true"
     fit-margin-top="0"
     fit-margin-left="0"
     fit-margin-right="0"
     fit-margin-bottom="0">
    <inkscape:grid
       originy="22.052876"
       originx="-54.157251"
       spacingx="2.54"
       spacingy="2.54"
       empspacing="1"
       type="xygrid"
       units="mm"
       id="grid9843" />
  </sodipodi:namedview>
  <metadata
     id="metadata9294">
    <rdf:RDF>
      <cc:Work
         rdf:about="">
        <dc:format>image/svg+xml</dc:format>
        <dc:type
           rdf:resource="http://purl.org/dc/dcmitype/StillImage" />
        <dc:title></dc:title>
      </cc:Work>
    </rdf:RDF>
    <rdf:RDF>
      <cc:Work
         rdf:about="">
        <dc:title></dc:title>
      </cc:Work>
    </rdf:RDF>
  </metadata>
  <g
     id="g9849"
     sodipodi:insensitive="true"
     inkscape:groupmode="layer"
     inkscape:label="[fixed] BG"
     transform="translate(-54.157251,48.456142)">
    <rect
       id="rect9847"
       style="fill:#ffffff;fill-opacity:1;stroke:none"
       height="38"
       width="29"
       y="0"
       x="0" />
  </g>
  <g
     id="g9851"
     inkscape:groupmode="layer"
     inkscape:label="F.Cu"
     transform="translate(-54.157251,48.456142)" />
  <g
     id="g9853"
     inkscape:groupmode="layer"
     inkscape:label="B.Cu-disabled"
     transform="translate(-54.157251,48.456142)" />
  <g
     id="g9855"
     inkscape:groupmode="layer"
     inkscape:label="B.Adhes-disabled"
     transform="translate(-54.157251,48.456142)" />
  <g
     id="g9857"
     inkscape:groupmode="layer"
     inkscape:label="F.Adhes-disabled"
     transform="translate(-54.157251,48.456142)" />
  <g
     id="g9859"
     inkscape:groupmode="layer"
     inkscape:label="B.Paste-disabled"
     transform="translate(-54.157251,48.456142)" />
  <g
     id="g9861"
     inkscape:groupmode="layer"
     inkscape:label="F.Paste-disabled"
     transform="translate(-54.157251,48.456142)" />
  <g
     id="g9863"
     inkscape:groupmode="layer"
     inkscape:label="B.SilkS-disabled"
     transform="translate(-54.157251,48.456142)" />
  <g
     id="g9865"
     inkscape:groupmode="layer"
     inkscape:label="F.SilkS-disabled"
     transform="translate(-54.157251,48.456142)" />
  <g
     id="g9867"
     inkscape:groupmode="layer"
     inkscape:label="B.Mask-disabled"
     transform="translate(-54.157251,48.456142)" />
  <g
     id="g9869"
     inkscape:groupmode="layer"
     inkscape:label="F.Mask-disabled"
     transform="translate(-54.157251,48.456142)" />
  <g
     id="g9871"
     inkscape:groupmode="layer"
     inkscape:label="Dwgs.User-disabled"
     transform="translate(-54.157251,48.456142)" />
  <g
     id="g9873"
     inkscape:groupmode="layer"
     inkscape:label="Cmts.User-disabled"
     transform="translate(-54.157251,48.456142)" />
  <g
     id="g9875"
     inkscape:groupmode="layer"
     inkscape:label="Eco1.User-disabled"
     transform="translate(-54.157251,48.456142)" />
  <g
     id="g9877"
     inkscape:groupmode="layer"
     inkscape:label="Eco2.User-disabled"
     transform="translate(-54.157251,48.456142)" />
  <g
     id="g9879"
     inkscape:groupmode="layer"
     inkscape:label="Edge.Cuts"
     transform="translate(-54.157251,48.456142)">
    <path
       sodipodi:nodetypes="zzsszcssssssccccccccccccccccccccccccccccccsszccsssccssscssssccsssccssscssssccccccccccccccccccccccssccccccccccccccccccccccccccccccsssccsssccsssccssscssssccsssczzzcczcssszzcsssczcsccccc"
       inkscape:connector-curvature="0"
       id="path5658-9-7-6-2-8"
       d="M55.441726 12.850984L55.4469268008 13.1893864785L55.4653699063 13.4558469531L55.5013163711 13.6660723574L55.55902725 13.835769625L55.6427635977 13.9806456895L55.7567864688 14.1164074844L56.092736 14.423416L60.979632625 18.522244375L65.797656 22.550086L65.9396776836 22.6168650293L66.1699317812 22.6777451094L66.7630115 22.818376875L67.0597742617 22.9164127871L67.1937601177 22.976360425L67.3126437187 23.0451182031L67.4122961362 23.1238288855L67.4885884414 23.2136352363L67.5373917056 23.3156800198L67.554577 23.431106L67.554577 24.220226L67.5368527271 24.3395895376L67.4849221646 24.4696049651L67.4006486965 24.6096054417L67.285895707 24.758924127L66.9724047007 25.0828487605L66.5593562187 25.4360441406L66.0616573345 25.8131755422L65.4942151211 26.2089082402L64.8719366519 26.6179075095L64.209729 27.034838625L62.8251544414 27.8711574941L61.4597480313 28.6751870469L60.2327663555 29.4042494824L59.263466 30.015667L58.2244435586 30.7321702891L57.6703343618 31.1346155986L57.1117977188 31.56823975L56.5628120327 32.034330042L56.037355707 32.5341737734L55.549407145 33.0690582432L55.3238665264 33.3500430358L55.11294475 33.64027075L54.9183891161 33.9399022982L54.7419469253 34.2490985928L54.5853654778 34.568020546L54.4503920742 34.8968290703L54.3387740148 35.235685078L54.2522586001 35.5847494814L54.1925931304 35.944183193L54.1615249063 36.314147125L54.160801228 36.6948021898L54.192169396 37.0863092998L54.2573767108 37.4888293673L54.3581704727 37.9025233047L54.4962979821 38.3275520243L54.6735065396 38.7640764385L54.8915434454 39.2122574596L55.152156 39.672256L65.868106 57.348436L66.0889649536 57.6913957772L66.3180655667 58.0059465615L66.5551990609 58.2927908444L66.8001566582 58.5526311172L67.0527295805 58.7861698715L67.3127090496 58.9941095986L67.5798862873 59.1771527902L67.8540525156 59.3360019375L68.1349989563 59.4713595321L68.4225168313 59.5839280654L68.7163973624 59.6744100289L69.0164317715 59.7435079141L69.3224112804 59.7919242123L69.6341271111 59.820361415L69.9513704853 59.8295220138L70.273932625 59.8201085L70.601604752 59.7928233651L70.9341780881 59.7483691006L71.6131932754 59.6107631484L72.3093079617 59.4129105752L73.0208519219 59.1604313125L73.7461549309 58.858945292L74.4835467637 58.5140724453L75.2313571951 58.1314327041L75.987916 57.716646L76.084680054 57.6721111526L76.184726127 57.6450506973L76.2878219607 57.6344113894L76.3937352969 57.6391399844L76.6130854434 57.6904879043L76.8409185 57.7906685L77.0753764004 57.9312558145L77.3146010781 58.1038238906L77.7999185 58.5111985L78.2820062344 58.9453846719L78.74599975 59.33897475L78.9665660098 59.4994813613L79.1770345156 59.6245610781L79.3755472012 59.7057879434L79.560246 59.734736L80.928805 59.734736L81.0682844397 59.7120719033L81.2132902207 59.6480211953L81.3630284109 59.548496249L81.5167050781 59.4194094375L81.8326981152 59.0961997109L82.154917875 58.725691L82.4770129004 58.3551822891L82.7926317344 58.0319725625L82.9460277493 57.902885751L83.0954229199 57.8033608047L83.2400233142 57.7393100967L83.379035 57.716646L83.6496879663 57.7415930532L83.9181732305 57.8122152383L84.1849908403 57.9221840933L84.4506408438 58.0651711563L84.7156232886 58.2348479653L84.9804382227 58.4248860586L85.51156575 58.84073225L86.0480238086 59.2620820352L86.3195019067 59.4589996206L86.5938127813 59.6383077188L86.87145648 59.7936778677L87.1529330508 59.9187816055L87.4387425415 60.0072904702L87.729385 60.052876L92.562506 60.052876L92.562506 51.652416L95.062607 51.652945L95.062607 59.697406L95.417638 60.052416L101.90767 60.052416L102.26269 59.697406L102.26269 52.602756L102.28389 52.380026L102.34379 52.187266L102.43729 52.023976L102.55925 51.890126L102.7029 51.786256L102.8631 51.712356L103.03467 51.667856L103.2119 51.652856L103.38916 51.667856L103.56074 51.712356L103.72144 51.786256L103.86513 51.890126L103.98705 52.023976L104.08055 52.187266L104.14105 52.380026L104.16225 52.602756L104.16225 59.697926L104.51726 60.052416L115.0076 60.052416L115.36263 59.697926L115.36283 47.075736L115.378730771 46.6406471279L115.423667734 46.2757364297L115.493492861 45.9713996572L115.584058125 45.7180325625L115.691215498 45.5060308975L115.810816953 45.3257904141L116.07076 45.022176L116.330703047 44.7303553359L116.450304502 44.56485704L116.557461875 44.3734944375L116.648027139 44.1466632803L116.717852266 43.8747593203L116.762789229 43.5481783096L116.77869 43.157316L116.77869 7.2035173L116.762789229 7.02902716646L116.717852266 6.87342985664L116.648027139 6.73223319429L116.557461875 6.60094500313L116.330703047 6.3501253293L116.07076 6.085033425L115.938714463 5.93590494575L115.810816953 5.76973188008L115.691215498 5.58202205171L115.584058125 5.36828328437L115.493492861 5.12402340181L115.423667734 4.84475022773L115.378730771 4.52597158589L115.36283 4.1631953L115.35398 2.18853705L115.36283 0.8555863L115.35361384 0.70718337959L115.327065723 0.563065264844L115.284791189 0.423961737988L115.228395781 0.29060258125L115.079664512 0.0440365070313L114.89371625 -0.1707947L114.683395332 -0.348052782031L114.461546094 -0.48189948125L114.241012871 -0.566496539844L114.03464 -0.5960057L113.844877715 -0.625494346484L113.668136719 -0.710070246875L113.508202051 -0.843898342578L113.36885875 -1.021143575L113.253891855 -1.23597088555L113.167086406 -1.48254521563L113.112227441 -1.75503150664L113.0931 -2.0475947L113.109411152 -2.32366331328L113.156475469 -2.58749298125L113.231489238 -2.83151069609L113.33164875 -3.04814345L113.454150293 -3.22981823516L113.596190156 -3.36896204375L113.754964629 -3.45800186797L113.839751184 -3.481366221L113.92767 -3.4893647L114.03464 -3.4893647L114.224430605 -3.51885387969L114.401189844 -3.603431075L114.561133848 -3.73726077031L114.70047875 -3.91450745L114.815440684 -4.12933559844L114.902235781 -4.3759097L114.957080176 -4.64839423906L114.97619 -4.9409537L114.95703916 -5.2334760457L114.902168281 -5.50594246562L114.815359824 -5.75251328398L114.70039625 -5.967348825L114.56106002 -6.14460941289L114.401133594 -6.27845537188L114.224399434 -6.36304702617L114.03464 -6.3925447L113.844877715 -6.42203422734L113.668136719 -6.50661235625L113.508202051 -6.64044340703L113.36885875 -6.8176917L113.253891855 -7.03252155547L113.167086406 -7.27909729375L113.112227441 -7.55158323516L113.0931 -7.8441437L113.109470156 -8.12055583281L113.15669625 -8.384594325L113.231951719 -8.62871356719L113.33241 -8.84536795L113.455244531 -9.02701186406L113.59762875 -9.1660997L113.756736094 -9.25508584844L113.841677637 -9.27843278691L113.92974 -9.2864247L114.03464 -9.2864247L114.224430605 -9.31591222012L114.401189844 -9.40048548594L114.561133848 -9.53431055566L114.70047875 -9.7115534875L114.815440684 -9.92638033965L114.902235781 -10.1729571703L114.957080176 -10.4454500377L114.97619 -10.738025L114.95703916 -11.0305485742L114.902168281 -11.3030123437L114.815359824 -11.5495783789L114.70039625 -11.76440875L114.56106002 -11.9416655273L114.401133594 -12.0755107812L114.224399434 -12.160106582L114.03464 -12.189615L113.844877715 -12.2191197266L113.668136719 -12.3037065625L113.508202051 -12.4375407422L113.36885875 -12.6147875L113.253891855 -12.8296120703L113.167086406 -13.0761796875L113.112227441 -13.3486555859L113.0931 -13.641205L113.109470156 -13.9176261328L113.15669625 -14.1816696875L113.231951719 -14.4257908984L113.33241 -14.642445L113.455244531 -14.8240872266L113.59762875 -14.9631728125L113.756736094 -15.0521569922L113.841677637 -15.0755033154L113.92974 -15.083495L114.03464 -15.083495L114.224430605 -15.1129841406L114.401189844 -15.19756125L114.561133848 -15.3313908594L114.70047875 -15.5086375L114.815440684 -15.7234657031L114.902235781 -15.97004L114.957080176 -16.2425249219L114.97619 -16.535085L114.95703916 -16.8276102148L114.902168281 -17.1000779687L114.815359824 -17.3466489258L114.70039625 -17.56148375L114.56106002 -17.7387431055L114.401133594 -17.8725876562L114.224399434 -17.9571780664L114.03464 -17.986675L113.844877715 -18.0161645703L113.668136719 -18.1007428125L113.508202051 -18.2345740234L113.36885875 -18.4118225L113.253891855 -18.6266525391L113.167086406 -18.8732284375L113.112227441 -19.1457144922L113.0931 -19.438275L113.109411152 -19.7143407422L113.156475469 -19.9781690625L113.231489238 -20.2221866016L113.33164875 -20.43882L113.454150293 -20.6204958984L113.596190156 -20.7596409375L113.754964629 -20.8486817578L113.839751184 -20.8720464111L113.92767 -20.880045L114.03464 -20.880045L114.224430605 -20.9095552539L114.401189844 -20.9941882812L114.561133848 -21.1280974805L114.70047875 -21.30543625L114.815440684 -21.5203579883L114.902235781 -21.7670160937L114.957080176 -22.0395639648L114.97619 -22.332155L114.95703916 -22.6246719922L114.902168281 -22.8971309375L114.815359824 -23.1436937891L114.70039625 -23.3585225L114.56106002 -23.5357790234L114.401133594 -23.6696253125L114.224399434 -23.7542233203L114.03464 -23.783735L113.844877715 -23.8132483398L113.668136719 -23.8978392187L113.508202051 -24.0316739258L113.36885875 -24.20891875L113.253891855 -24.4237399805L113.167086406 -24.6703039062L113.112227441 -24.9427768164L113.0931 -25.235325L113.109470156 -25.5117213477L113.15669625 -25.7757057812L113.231951719 -26.0197451367L113.33241 -26.23630625L113.455244531 -26.417855957L113.59762875 -26.5568610937L113.756736094 -26.6457884961L113.841677637 -26.6691189331L113.92974 -26.677105L114.03464 -26.677105L114.224430605 -26.7065920898L114.401189844 -26.7911642187L114.561133848 -26.9249876758L114.70047875 -27.10222875L114.815440684 -27.3170537305L114.902235781 -27.5636289062L114.957080176 -27.8361205664L114.97619 -28.128695L114.95703916 -28.4212046484L114.902168281 -28.6936628125L114.815359824 -28.9402295703L114.70039625 -29.155065L114.56106002 -29.3323291797L114.401133594 -29.4661821875L114.224399434 -29.5507841016L114.03464 -29.580295L113.844877715 -29.6097992969L113.668136719 -29.694385L113.508202051 -29.8282175781L113.36885875 -30.0054625L113.253891855 -30.2202852344L113.167086406 -30.46685125L113.112227441 -30.7393260156L113.0931 -31.031875L113.109470156 -31.3082994336L113.15669625 -31.5723454687L113.231951719 -31.816468457L113.33241 -32.03312375L113.455244531 -32.2147666992L113.59762875 -32.3538526562L113.756736094 -32.4428369727L113.841677637 -32.466183313L113.92974 -32.474175L114.03464 -32.474175L114.224432246 -32.5036637109L114.401195469 -32.5882396875L114.561144395 -32.7220676953L114.70049375 -32.8993125L114.815458262 -33.1141388672L114.902252656 -33.3607115625L114.95709166 -33.6331953516L114.97619 -33.925755L114.964107656 -34.1414345312L114.93113125 -34.34672375L114.882054219 -34.5406110938L114.82167 -34.722085L114.743021523 -34.9086397852L114.654101563 -35.0711370312L114.55633207 -35.2087598242L114.451135 -35.32069125L114.339932305 -35.4061143945L114.224145938 -35.4642123437L114.105197852 -35.4941681836L113.98451 -35.495165L113.890466301 -35.4927441187L113.79674541 -35.506214668L113.611795781 -35.5769792187L113.432708574 -35.6997569727L113.26253125 -35.86684625L113.10431127 -36.0705453711L112.961096094 -36.3031526562L112.835933184 -36.5569664258L112.73187 -36.824285L112.655127773 -37.083849043L112.601003438 -37.3449785937L112.571356758 -37.6013697852L112.5680475 -37.84671875L112.59293543 -38.0747216211L112.647880313 -38.2790745312L112.734741914 -38.4534736133L112.85538 -38.591615L112.94998 -38.646915L113.029016174 -38.7039665308L113.097520488 -38.7752017773L113.155154753 -38.8594948462L113.201580781 -38.9557198437L113.259455371 -39.1794620508L113.26843875 -39.43742125L113.22582541 -39.720590293L113.128909844 -40.0199620312L112.974986543 -40.3265293164L112.76135 -40.631285L112.509104941 -40.9002945703L112.244572656 -41.1096015625L111.97661873 -41.2605196484L111.71410875 -41.3543625L111.465908301 -41.3924437891L111.240882969 -41.3760771875L111.139831467 -41.3478864502L111.04789834 -41.3065763672L110.966191785 -41.2523111475L110.89582 -41.185255L110.811740547 -41.1064283984L110.71425625 -41.0447128125L110.605064453 -40.9993533203L110.4858625 -40.969595L110.2242175 -40.9538621875L109.9429 -40.991475L109.741027813 -41.0479157812L109.5362475 -41.13044625L109.331965938 -41.2387035938L109.13159 -41.372325L108.924642012 -41.5442728516L108.744837344 -41.7315021875L108.595193691 -41.9290491797L108.47872875 -42.13195L108.398460215 -42.3352408203L108.357405781 -42.5339578125L108.358583145 -42.7231371484L108.40501 -42.897815L108.46131 -42.987715L108.506136697 -43.0740373804L108.536691699 -43.166263418L108.556238594 -43.3649323437L108.522454629 -43.5767335352L108.43784375 -43.79467875L108.304909902 -44.0117797461L108.126157031 -44.2210482813L107.904089082 -44.4154961133L107.64121 -44.588135L107.358490781 -44.723473418L107.079269375 -44.8120998438L106.810635156 -44.8555722852L106.5596775 -44.85544875L106.333485781 -44.8132872461L106.139149375 -44.7306457813L105.983757656 -44.6090823633L105.922881484 -44.5341917993L105.8744 -44.450155L105.826226812 -44.3661112939L105.766206523 -44.2909436328L105.614092813 -44.1673546875L105.424995195 -44.0796246484L105.20585 -44.02799L104.963593555 -44.0126872266L104.705162188 -44.0339528125L104.437492227 -44.0920232422L104.16752 -44.187135L103.927469844 -44.3052460938L103.710665 -44.44499L103.521107656 -44.6021714063L103.3628 -44.772595L103.239744219 -44.9520654688L103.1559425 -45.1363875L103.115397031 -45.3213657813L103.12211 -45.502805L103.15781 -45.605125L103.182620024 -45.6996590967L103.192362227 -45.7967673047L103.168620938 -45.9956065625L103.09054168 -46.1954437891L102.96208 -46.39008L102.787191445 -46.5733162109L102.569831563 -46.7389534375L102.313955898 -46.8807926953L102.02352 -46.992635L101.721422832 -47.0641094922L101.431680156 -47.0910871875L101.160957715 -47.0764056641L100.91592125 -47.0229025L100.703236504 -46.9334152734L100.529569219 -46.8107815625L100.401585137 -46.6578389453L100.356807341 -46.57088854L100.32595 -46.477425L100.295403829 -46.3842555298L100.251386865 -46.2973700195L100.126317359 -46.1433532812L99.9574950801 -46.0171795898L99.751673625 -45.92065375L99.5156065918 -45.8555805664L99.2560475781 -45.8237648437L98.9797501816 -45.8270113867L98.693468 -45.867125L98.4296730781 -45.9366629687L98.180699 -46.032849375L97.9539631719 -46.1520354687L97.756883 -46.2905725L97.5968758906 -46.4448117187L97.48135925 -46.611104375L97.4177504844 -46.7858017187L97.4077294941 -46.8751619141L97.413467 -46.965255L97.430377 -47.075835L97.4377793413 -47.1755289893L97.4299819805 -47.2767351953L97.3712368438 -47.4792996875L97.2590389727 -47.6747593359L97.09828575 -47.854345L96.8938745586 -48.0092875391L96.6507027813 -48.1308178125L96.3736678008 -48.2101666797L96.067667 -48.238565L96.067667 -48.238565L95.7572883301 -48.2252519141L95.4672032656 -48.1856253125L95.2033119746 -48.1201541797L94.971514625 -48.0293075L94.7777113848 -47.9135542578L94.6278024219 -47.7733634375L94.5276879043 -47.6092040234L94.498147365 -47.5182826514L94.483268 -47.421545L94.4685192646 -47.3237305078L94.4394273359 -47.22985375L94.3413895625 -47.05541625L94.1955060078 -46.901238125L94.008128 -46.770325L93.7856068672 -46.6656825L93.5342939375 -46.59031625L93.2605405391 -46.547231875L92.970698 -46.539435L92.7015615332 -46.5652237109L92.4480631406 -46.6205659375L92.215251834 -46.7026883203L92.008176625 -46.8088175L91.8318865254 -46.9361801172L91.6914305469 -47.0820028125L91.5918577012 -47.2435122266L91.538217 -47.417935L91.538217 -47.527485L91.5304694365 -47.6259858936L91.5077902109 -47.7215652734L91.4205720625 -47.9018246875L91.2824331328 -48.0639936328L91.099244 -48.2038025L90.8768752422 -48.3169816797L90.6211974375 -48.3992615625L90.3380811641 -48.4463725391L90.033397 -48.454045L89.685628 -48.411145L89.4421344473 -48.3485451953L89.2224603906 -48.2617871875L89.0298621074 -48.1539443359L88.867595875 -48.02809L88.7389179707 -47.8872975391L88.6470846719 -47.7346403125L88.5953522559 -47.5731916797L88.586977 -47.406025L88.5877467329 -47.3079064551L88.5737478789 -47.2113060156L88.5043960938 -47.024565625L88.3848250117 -46.8496161719L88.220938 -46.69027L88.0186384258 -46.5503394531L87.7838296563 -46.433636875L87.5224150586 -46.3439746094L87.240298 -46.285165L86.9725853301 -46.2618897266L86.7140703906 -46.2694359375L86.4703366621 -46.3062654297L86.246967625 -46.37084L86.0495467598 -46.4616214453L85.8836575469 -46.5770715625L85.7548834668 -46.7156521484L85.668808 -46.875825L85.648198 -46.981765L85.6216741218 -47.0763693726L85.5807908184 -47.1652418555L85.4592261719 -47.3241223437L85.2900645332 -47.4550688477L85.079866375 -47.55474375L84.8351921699 -47.6198094336L84.5626023906 -47.6469282812L84.2686575098 -47.6327626758L83.959918 -47.573975L83.6616613867 -47.4738253906L83.3975315313 -47.341893125L83.1716924102 -47.1843192969L82.988308 -47.007245L82.8515422773 -46.8168113281L82.7655592188 -46.619159375L82.7345228008 -46.4204302344L82.7409108247 -46.3225808105L82.762597 -46.226765L82.7845257402 -46.1310755396L82.7917042656 -46.0335766602L82.764292 -45.8356676563L82.6853228594 -45.6380720117L82.5597595 -45.44582375L82.3925645781 -45.2639568945L82.18870075 -45.0975054688L81.9531306719 -44.9515034961L81.690817 -44.830985L81.4353295977 -44.7484081836L81.1820102813 -44.6977010937L80.9366421367 -44.6786475195L80.70500825 -44.69103125L80.492891707 -44.7346360742L80.3060755938 -44.8092457812L80.1503429961 -44.9146441602L80.031477 -45.050615L79.987577 -45.150865L79.9411097954 -45.2369580005L79.8818845195 -45.3142058789L79.7287227813 -45.4412670312L79.5352178398 -45.5302499805L79.30849575 -45.57935625L79.0556825664 -45.5867873633L78.7839043438 -45.5507448437L78.5002871367 -45.4694302148L78.211957 -45.341045L77.9429511016 -45.174571582L77.7144791875 -44.9849701562L77.5292011797 -44.7792289648L77.389777 -44.56433625L77.2988665703 -44.3472802539L77.2591298125 -44.1350492187L77.2732266484 -43.9346313867L77.3012938896 -43.8410362476L77.343817 -43.753015L77.3865593535 -43.6652139014L77.4153667656 -43.5722377734L77.433046375 -43.3737584375L77.4005950469 -43.1635730078L77.321752 -42.9476775L77.2002564531 -42.7320679297L77.039847625 -42.5227403125L76.8442647344 -42.3256906641L76.617247 -42.146915L76.3881973906 -42.0062186719L76.153817625 -41.896654375L75.9197800469 -41.8194703906L75.691757 -41.775915L75.4754208281 -41.7672364844L75.276443875 -41.794683125L75.1004984844 -41.8595032031L74.953257 -41.962945L74.887657 -42.048245L74.7977362969 -42.1428512695L74.689770125 -42.2168832812L74.5659161406 -42.2700195898L74.428332 -42.30193875L74.2791753594 -42.3123193164L74.120603875 -42.3008398437L73.9547752031 -42.2671788867L73.783847 -42.211015L73.5967985625 -42.1240378125L73.4119795 -42.011225L73.2315816875 -41.8749296875L73.057797 -41.717505L72.8220154961 -41.4513351562L72.6417774688 -41.17817625L72.5158888945 -40.9061142187L72.44315575 -40.643235L72.4223840117 -40.3976245313L72.4523796563 -40.17736875L72.4860421147 -40.0792757227L72.5319486602 -39.9905535938L72.5899500396 -39.9122131055L72.659897 -39.845265L72.7300810332 -39.7788559741L72.7890364531 -39.7020910742L72.874211375 -39.5211292187L72.9173216094 -39.3096505664L72.920267 -39.07492625L72.8849473906 -38.8242274023L72.813262625 -38.5648251563L72.7071125469 -38.3039906445L72.568397 -38.048995L72.419577 -37.832985L72.2675258086 -37.6570612109L72.1018962188 -37.5015296875L71.926901707 -37.3695514453L71.74675575 -37.2642875L71.5656718242 -37.1888988672L71.3878634063 -37.1465465625L71.2175439727 -37.1403916016L71.058927 -37.173595L70.994827 -37.206195L70.9069383015 -37.2406478564L70.8124367871 -37.2589051953L70.7126418284 -37.2607945459L70.6088727969 -37.2461434375L70.5024490642 -37.2147793994L70.394690002 -37.1665299609L70.2869149817 -37.1012226514L70.180443375 -37.018685L70.0765945535 -36.9187445361L69.9766878887 -36.8012287891L69.8820427522 -36.6659652881L69.7939785156 -36.5127815625L69.7138145505 -36.3415051416L69.6428702285 -36.1519635547L69.5824649211 -35.9439843311L69.533918 -35.717395L69.49422425 -35.4612296875L69.471893 -35.2068325L69.47502425 -34.9590240625L69.511718 -34.722625L69.5676861211 -34.545307207L69.6429481563 -34.3855714063L69.7350143633 -34.2452852148L69.841395 -34.12631625L69.9596003242 -34.0305321289L70.0871405938 -33.9598004688L70.2215260664 -33.9159888867L70.360267 -33.900965L70.5500198125 -33.8714610937L70.7267545 -33.78687625L70.8866854375 -33.6530445312L71.026027 -33.4758L71.1409935625 -33.2609767188L71.2277995 -33.01440875L71.2826591875 -32.7419301562L71.301787 -32.449375L71.2854396172 -32.1729819531L71.2382735625 -31.909L71.1631029766 -31.6649624219L71.062742 -31.4484025L70.9400047734 -31.2668535156L70.7977054375 -31.12784875L70.6386581328 -31.0389214844L70.5537334111 -31.0155910645L70.465677 -31.007605L70.360267 -31.007605L70.1704665938 -30.9780947656L69.9937004375 -30.893461875L69.833752375 -30.7595530469L69.69440625 -30.582215L69.5794459063 -30.3672944531L69.4926551875 -30.120638125L69.4378179375 -29.8480927344L69.418718 -29.555505L69.437858543 -29.2630029297L69.4927212813 -28.9905959375L69.5795241289 -28.7441103516L69.694485 -28.5293725L69.8338218086 -28.3522087109L69.9937524688 -28.2184453125L70.1704948945 -28.1339086328L70.360267 -28.104425L70.5500198125 -28.0749206836L70.7267545 -27.9903348437L70.8866854375 -27.8565018945L71.026027 -27.67925625L71.1409935625 -27.4644323242L71.2277995 -27.2178645312L71.2826591875 -26.9453872852L71.301787 -26.652835L71.2854396172 -26.3764196094L71.2382735625 -26.11237875L71.1631029766 -25.8682578906L71.062742 -25.6516025L70.9400047734 -25.4699580469L70.7977054375 -25.33087L70.6386581328 -25.2418838281L70.5537334111 -25.2185369043L70.465677 -25.210545L70.360267 -25.210545L70.1704665937 -25.1810558594L69.9937004375 -25.09647875L69.833752375 -24.9626491406L69.69440625 -24.7854025L69.5794459062 -24.5705742969L69.4926551875 -24.324L69.4378179375 -24.0515150781L69.418718 -23.758955L69.437858543 -23.4664400391L69.4927212812 -23.1939803125L69.5795241289 -22.9474148047L69.694485 -22.7325825L69.8338218086 -22.5553223828L69.9937524688 -22.4214734375L70.1704948945 -22.3368746484L70.360267 -22.307365L70.5500198125 -22.27787625L70.7267545 -22.1933L70.8866854375 -22.05947125L71.026027 -21.882225L71.1409935625 -21.66739625L71.2277995 -21.42082L71.2826591875 -21.14833125L71.301787 -20.855765L71.2854969609 -20.5797107422L71.2384885625 -20.3158878125L71.1635543828 -20.0718709766L71.063487 -19.855235L70.9410789922 -19.6735546484L70.7991229375 -19.5344046875L70.6404114141 -19.4453598828L70.5556450322 -19.4219940283L70.467737 -19.413995L70.360267 -19.413995L70.1704665937 -19.3844855664L69.9937004375 -19.2998545313L69.833752375 -19.165947793L69.69440625 -18.98861125L69.5794459062 -18.7736908008L69.4926551875 -18.5270323438L69.4378179375 -18.2544817773L69.418718 -17.961885L69.437858543 -17.6693614258L69.4927212812 -17.3968976562L69.5795241289 -17.1503316211L69.694485 -16.93550125L69.8338218086 -16.7582444727L69.9937524687 -16.6243992187L70.1704948945 -16.539803418L70.360267 -16.510295L70.5500198125 -16.4807898633L70.7267545 -16.3962020312L70.8866854375 -16.2623666211L71.026027 -16.08511875L71.1409935625 -15.8702935352L71.2277995 -15.6237260938L71.2826591875 -15.351251543L71.301787 -15.058705L71.2854969609 -14.7826277734L71.2384885625 -14.5187940625L71.1635543828 -14.2747758203L71.063487 -14.058145L70.9410789922 -13.8764735547L70.7991229375 -13.7373334375L70.6404114141 -13.6482966016L70.5556450322 -13.6249331494L70.467737 -13.616935L70.360267 -13.616935L70.1704665937 -13.5874466797L69.9937004375 -13.5028715625L69.833752375 -13.3690444141L69.69440625 -13.1918L69.5794459062 -12.9769730859L69.4926551875 -12.7303984375L69.4378179375 -12.4579108203L69.418718 -12.165345L69.437858543 -11.8728242969L69.4927212812 -11.600361875L69.5795241289 -11.3537960156L69.694485 -11.138965L69.8338218086 -10.9617071094L69.9937524687 -10.827860625L70.1704948945 -10.7432638281L70.360267 -10.713755L70.5500198125 -10.6842498627L70.7267545 -10.5996620266L70.8866854375 -10.4658266053L71.026027 -10.2885787125L71.1409935625 -10.0737534619L71.2277995 -9.82718596719L71.2826591875 -9.55471134199L71.301787 -9.2621647L71.2854396172 -8.98574926641L71.2382735625 -8.72170829375L71.1631029766 -8.47758727422L71.062742 -8.2609317L70.9400047734 -8.07928706328L70.7977054375 -7.94019885625L70.6386581328 -7.85121257109L70.5537334111 -7.82786561553L70.465677 -7.8198737L70.360267 -7.8198737L70.1704665937 -7.79038419219L69.9937004375 -7.7058062L69.833752375 -7.57197552031L69.69440625 -7.39472795L69.5794459062 -7.17989928594L69.4926551875 -6.933325325L69.4378179375 -6.66084186406L69.418718 -6.3682847L69.437858543 -6.07576007891L69.4927212812 -5.80329441875L69.5795241289 -5.55672639922L69.694485 -5.3418947L69.8338218086 -5.16463800078L69.9937524687 -5.03079498125L70.1704948945 -4.94620432109L70.360267 -4.9167047L70.5500198125 -4.88719720586L70.7267545 -4.80260974688L70.8866854375 -4.6687762332L71.026027 -4.491530575L71.1409935625 -4.27670668242L71.2277995 -4.03013846563L71.2826591875 -3.75765983477L71.301787 -3.4651047L71.2854396172 -3.1886921375L71.2382735625 -2.9246525125L71.1631029766 -2.68053166875L71.062742 -2.46387545L70.9400047734 -2.2822297L70.7977054375 -2.1431402625L70.6386581328 -2.05415298125L70.5537334111 -2.03080572539L70.465677 -2.0228137L70.360267 -2.0228137L70.1704665937 -1.99332505352L69.9937004375 -1.90874915313L69.833752375 -1.77492105742L69.69440625 -1.597675825L69.5794459062 -1.38284851445L69.4926551875 -1.13627418438L69.4378179375 -0.863787893359L69.418718 -0.5712247L69.4262417705 -0.453918887256L69.4474874297 -0.346960494922L69.523303 -0.158697496875L69.6304818828 0.00434124335937L69.75334125 0.152932675L69.8761982734 0.297853747266L69.983370125 0.449881409375L70.0591739766 0.619792610547L70.0804120186 0.714822334912L70.087927 0.8183643L70.0692069893 0.917394307568L70.0155846797 0.999437329297L69.9308666553 1.06665973872L69.8188595 1.12122790937L69.5282041328 1.20106702852L69.17407125 1.256285675L68.7869135234 1.30421483711L68.397183625 1.36218550312L68.0353342266 1.44752866133L67.8743811748 1.50588085884L67.731818 1.5775753L65.6935558125 2.92943008125L61.85491375 5.51995055L56.092767 9.4228443L55.9064530937 9.55525090234L55.758382625 9.6806957375L55.6444249687 9.80680109766L55.5604495 9.941189275L55.5023255937 10.0914825617L55.465922625 10.26530325L55.4471099687 10.470273632L55.441757 10.714016L55.441757 12.850865L55.441726 12.850984M59.767876 11.401695L59.7901663184 11.2835371872L59.8552114651 11.1488860957L59.9602727274 10.9991217769L60.1026113926 10.8356242824L60.4881660808 10.4729499725L60.9899658281 10.0719035781L61.5861009329 9.64352551147L62.2546616934 9.19885618477L62.973738408 8.74893601021L63.721421375 8.3048054L64.4758008928 7.87750476636L65.2149672598 7.47807452148L65.9170107742 7.11755507759L66.5600217344 6.80698684687L67.1220904387 6.55741024155L67.5813071855 6.37986567383L67.9157622732 6.28539355591L68.0293574131 6.27275979444L68.103546 6.2850343L68.5522405312 6.50716405L68.7751869961 6.63496885469L68.98254975 6.77507305L69.1633414102 6.92833121406L69.3065745937 7.095597925L69.401261918 7.27772776094L69.4269673257 7.37463340645L69.436416 7.4755753L69.523816 17.901954L69.5157402527 18.0001955691L69.4905464277 18.0927511465L69.4495971506 18.1800050999L69.3942550469 18.2623417969L69.2458428613 18.4138008926L69.056210875 18.550203375L68.8362600918 18.6746241855L68.5968915156 18.7901382656L68.103505 19.006746L68.0231259564 19.0168606129L67.9041263623 18.995158325L67.5610657422 18.8637389121L67.0959235791 18.6273594924L66.5303003125 18.3008917969L65.8857963818 17.8992075564L65.1840122266 17.437178502L64.4465482861 16.9296763645L63.695005 16.391572875L62.9509828076 15.8377397644L62.2360821484 15.2830487637L61.5719034619 14.7423716038L60.9800471875 14.2305800156L60.4821137646 13.7625457302L60.0997036328 13.3531404785L59.9585699384 13.1750711562L59.8544172314 13.0172359915L59.789945567 12.8814939506L59.767855 12.769704L59.767876 11.401695M62.783456 35.547436L72.890886 51.602796L73.0399530046 51.8667407943L73.155089627 52.1288010342L73.237859592 52.3880114425L73.289826625 52.6434067422L73.3125544509 52.8940216561L73.3076067949 53.1388909072L73.2765473821 53.3770492184L73.2209399375 53.6075313125L73.1423481863 53.8293719125L73.0423358535 54.0416057412L72.9224666643 54.2432675216L72.7843043438 54.4333919766L72.6294126169 54.611013829L72.459355209 54.7751678018L72.275695845 54.9248886178L72.07999825 55.059211L71.8738261492 55.1771696713L71.6587432676 55.2777993545L71.4363133303 55.3601347726L71.2081000625 55.4232106484L70.9756671892 55.466061705L70.7405784355 55.487722665L70.5043975266 55.4872282516L70.2686881875 55.4636131875L70.0350141433 55.4159121957L69.8049391191 55.343159999L69.5800268401 55.2443913204L69.3618410313 55.1186408828L69.1519454177 54.9649434091L68.9519037246 54.7823336221L68.763279677 54.5698462448L68.587637 54.326516L61.386096 43.262546L61.6254566372 43.1231078481L61.8560962539 42.9514153164L62.0758345327 42.7500719155L62.2824911563 42.5216811563L62.4738858071 42.2688465493L62.647838168 41.9941716055L62.8021679214 41.7002598354L62.93469475 41.38971475L63.0432383364 41.0651398599L63.1256183633 40.7291386758L63.1796545132 40.3843147085L63.2031664687 40.0332714688L63.1939739126 39.6786124673L63.1498965273 39.3229412148L63.0687539956 38.9688612222L62.948366 38.618976L58.579866 38.330566L58.4486631164 38.0783687029L58.3485604312 37.8257188735L58.2781418926 37.5737277294L58.2359914492 37.3235064883L58.2206930493 37.0761663677L58.2308306411 36.8328185854L58.2649881732 36.5945743591L58.3217495938 36.3625449063L58.3996988513 36.1378414446L58.497419894 35.9215751919L58.6134966705 35.7148573657L58.7465131289 35.5187991836L58.8950532177 35.3345118633L59.0577008853 35.1631066226L59.2330400799 35.0056946789L59.41965475 34.86338725L59.6161288439 34.7372955535L59.8210463101 34.6285308071L60.0329910967 34.5382042285L60.2505471523 34.4674270352L60.4722984252 34.4173104449L60.6968288638 34.3889656753L60.9227224163 34.383503944L61.1485630313 34.4020364688L61.3729346569 34.4456744671L61.5944212417 34.5155291567L61.8116067339 34.6127117553L62.023075082 34.7383334805L62.2274102343 34.8935055499L62.4231961392 35.0793391812L62.6090167449 35.296945592L62.783456 35.547436L62.783456 35.547436M86.382555 56.076766L86.3926568435 55.823947394L86.422629748 55.5836410586L86.4719466497 55.3563712173L86.5400804844 55.1426620938L86.6265041882 54.9430379116L86.7306906973 54.7580228945L86.8521129475 54.5881412661L86.990243875 54.43391725L87.1445564158 54.2958750698L87.3145235059 54.1745389492L87.4996180813 54.0704331118L87.6993130781 53.9840817813L87.9130814324 53.9160091812L88.1403960801 53.8667395352L88.3807299573 53.8367970669L88.633556 53.826706L88.8863757446 53.8367920132L89.1266815195 53.8667305117L89.3539493237 53.9159971841L89.5676551562 53.9840677188L89.7672750161 54.0704178042L89.9522849023 54.1745231289L90.122160814 54.2958593813L90.27637875 54.43390225L90.4144147095 54.5881274233L90.5357446914 54.7580105898L90.6398446948 54.943027438L90.7261907187 55.1426536563L90.7942587622 55.3563649331L90.8435248242 55.583636957L90.8734649038 55.8239454165L90.883555 56.076766L90.8734649038 56.329583478L90.8435248242 56.5698866055L90.7942587622 56.7971514224L90.7261907187 57.0108539687L90.6398446948 57.2104702847L90.5357446914 57.3954764102L90.4144147095 57.5653483853L90.27637875 57.71956225L90.122160814 57.8575940444L89.9522849023 57.9789198086L89.7672750161 58.0830155825L89.5676551562 58.1693574063L89.3539493237 58.2374213198L89.1266815195 58.2866833633L88.8863757446 58.3166195767L88.633556 58.326706L88.3807299573 58.3166161709L88.1403960801 58.2866772109L87.9130814324 58.2374130361L87.6993130781 58.1693475625L87.4996180813 58.0830047061L87.3145235059 57.9789083828L87.1445564158 57.8575825088L86.990243875 57.719551L86.8521129475 57.5653377725L86.7306906973 57.3954667422L86.6265041882 57.2104618252L86.5400804844 57.0108469375L86.4719466497 56.7971459951L86.422629748 56.5698829141L86.3926568435 56.3295816104L86.382555 56.076766L86.382555 56.076766"
       style="fill:#3e6240;fill-opacity:1;stroke:none;stroke-width:0.1;stroke-linecap:butt;stroke-linejoin:miter;stroke-miterlimit:4;stroke-dasharray:none;stroke-opacity:1"
       transform="translate(7.0833335e-7,-1.0833333e-6)" />
  </g>
  <g
     id="g9881"
     inkscape:groupmode="layer"
     inkscape:label="Margin-disabled"
     transform="translate(-54.157251,48.456142)" />
  <g
     id="g9883"
     inkscape:groupmode="layer"
     inkscape:label="B.CrtYd-disabled"
     transform="translate(-54.157251,48.456142)" />
  <g
     id="g9885"
     inkscape:groupmode="layer"
     inkscape:label="F.CrtYd-disabled"
     transform="translate(-54.157251,48.456142)" />
  <g
     id="g9887"
     inkscape:groupmode="layer"
     inkscape:label="B.Fab-disabled"
     transform="translate(-54.157251,48.456142)" />
  <g
     id="g9889"
     inkscape:groupmode="layer"
     inkscape:label="F.Fab-disabled"
     transform="translate(-54.157251,48.456142)" />
  <g
     id="g9891"
     inkscape:groupmode="layer"
     inkscape:label="Drill"
     transform="translate(-54.157251,48.456142)" />
</svg>
