<?xml version="1.0" encoding="UTF-8" standalone="no"?>
<!-- Created with Inkscape (http://www.inkscape.org/) -->

<svg
   xmlns:dc="http://purl.org/dc/elements/1.1/"
   xmlns:cc="http://creativecommons.org/ns#"
   xmlns:rdf="http://www.w3.org/1999/02/22-rdf-syntax-ns#"
   xmlns:svg="http://www.w3.org/2000/svg"
   xmlns="http://www.w3.org/2000/svg"
   xmlns:sodipodi="http://sodipodi.sourceforge.net/DTD/sodipodi-0.dtd"
   xmlns:inkscape="http://www.inkscape.org/namespaces/inkscape"
   width="60.319027mm"
   height="108.55993mm"
   viewBox="0 0 60.319027 108.55993"
   version="1.1"
   id="svg915"
   inkscape:version="0.92.5 (2060ec1f9f, 2020-04-08)"
   sodipodi:docname="chainsaw-outline-shorter.svg">
  <defs
     id="defs909" />
  <sodipodi:namedview
     id="base"
     pagecolor="#ffffff"
     bordercolor="#666666"
     borderopacity="1.0"
     inkscape:pageopacity="0.0"
     inkscape:pageshadow="2"
     inkscape:zoom="1.4"
     inkscape:cx="83.270012"
     inkscape:cy="299.79407"
     inkscape:document-units="mm"
     inkscape:current-layer="g1497"
     showgrid="true"
     inkscape:window-width="1858"
     inkscape:window-height="1177"
     inkscape:window-x="54"
     inkscape:window-y="-8"
     inkscape:window-maximized="1"
     borderlayer="true"
     fit-margin-top="0"
     fit-margin-left="0"
     fit-margin-right="0"
     fit-margin-bottom="0">
    <inkscape:grid
       id="grid1461"
       units="mm"
       type="xygrid"
       empspacing="1"
       spacingy="2.54"
       spacingx="2.54"
       originx="-14.958375"
       originy="36.51356" />
  </sodipodi:namedview>
  <metadata
     id="metadata912">
    <rdf:RDF>
      <cc:Work
         rdf:about="">
        <dc:format>image/svg+xml</dc:format>
        <dc:type
           rdf:resource="http://purl.org/dc/dcmitype/StillImage" />
        <dc:title></dc:title>
      </cc:Work>
    </rdf:RDF>
  </metadata>
  <g
     id="g1467"
     sodipodi:insensitive="true"
     inkscape:groupmode="layer"
     inkscape:label="[fixed] BG"
     transform="translate(-14.958376,34.046368)">
    <rect
       id="rect1465"
       style="fill:#ffffff;fill-opacity:1;stroke:none"
       height="38"
       width="29"
       y="0"
       x="0" />
  </g>
  <g
     id="g1469"
     inkscape:groupmode="layer"
     inkscape:label="F.Cu"
     transform="translate(-14.958376,34.046368)" />
  <g
     id="g1471"
     inkscape:groupmode="layer"
     inkscape:label="B.Cu-disabled"
     transform="translate(-14.958376,34.046368)" />
  <g
     id="g1473"
     inkscape:groupmode="layer"
     inkscape:label="B.Adhes-disabled"
     transform="translate(-14.958376,34.046368)" />
  <g
     id="g1475"
     inkscape:groupmode="layer"
     inkscape:label="F.Adhes-disabled"
     transform="translate(-14.958376,34.046368)" />
  <g
     id="g1477"
     inkscape:groupmode="layer"
     inkscape:label="B.Paste-disabled"
     transform="translate(-14.958376,34.046368)" />
  <g
     id="g1479"
     inkscape:groupmode="layer"
     inkscape:label="F.Paste-disabled"
     transform="translate(-14.958376,34.046368)" />
  <g
     id="g1481"
     inkscape:groupmode="layer"
     inkscape:label="B.SilkS-disabled"
     transform="translate(-14.958376,34.046368)" />
  <g
     id="g1483"
     inkscape:groupmode="layer"
     inkscape:label="F.SilkS-disabled"
     transform="translate(-14.958376,34.046368)" />
  <g
     id="g1485"
     inkscape:groupmode="layer"
     inkscape:label="B.Mask-disabled"
     transform="translate(-14.958376,34.046368)" />
  <g
     id="g1487"
     inkscape:groupmode="layer"
     inkscape:label="F.Mask-disabled"
     transform="translate(-14.958376,34.046368)" />
  <g
     id="g1489"
     inkscape:groupmode="layer"
     inkscape:label="Dwgs.User-disabled"
     transform="translate(-14.958376,34.046368)" />
  <g
     id="g1491"
     inkscape:groupmode="layer"
     inkscape:label="Cmts.User-disabled"
     transform="translate(-14.958376,34.046368)" />
  <g
     id="g1493"
     inkscape:groupmode="layer"
     inkscape:label="Eco1.User-disabled"
     transform="translate(-14.958376,34.046368)" />
  <g
     id="g1495"
     inkscape:groupmode="layer"
     inkscape:label="Eco2.User-disabled"
     transform="translate(-14.958376,34.046368)" />
  <g
     id="g1497"
     inkscape:groupmode="layer"
     inkscape:label="Edge.Cuts"
     transform="translate(-14.958376,34.046368)">
    <path
       style="fill:#000000;fill-opacity:1;stroke:none;stroke-width:0.1;stroke-linecap:butt;stroke-linejoin:miter;stroke-miterlimit:4;stroke-dasharray:none;stroke-opacity:1"
       d="m 15.361145,27.260764 c 0,1.012288 0.0958,1.08966 0.65101,1.57243 0.55526,0.48278 8.51951,8.60598 9.252981,8.804658 1.00209,0.27146 1.26879,0.939242 1.26879,1.902431 0,0.963189 -1.815531,0.76005 -2.237051,1.230612 -0.421529,0.470548 0.246441,2.139868 -1.08329,2.674429 -1.32972,0.534559 -11.251939,4.20587 -7.35333,10.636709 l 10.715951,17.676181 c 2.63438,4.34546 6.56675,2.7932 10.62209,0.50527 1.01383,-0.57198 1.16852,1.429 2.11343,1.429 h 1.36857 c 0.72773,0 1.15042,-0.94498 1.8755,-0.94498 1.45015,0 2.108459,1.59774 3.672329,1.71515 1.292522,0 3.620162,-0.004 4.83312,0 v -8.40046 l 2.500101,5.29e-4 v 8.044461 l 0.355021,0.35501 h 6.490038 l 0.355021,-0.35501 v -7.09465 l 0.02119,-0.22273 0.0599,-0.19276 0.0935,-0.16329 0.121949,-0.13385 0.143669,-0.10387 0.1602,-0.0739 0.171561,-0.0445 0.177239,-0.015 0.17725,0.015 0.171582,0.0445 0.160708,0.0739 0.143672,0.10387 0.121938,0.13385 0.0935,0.16329 0.0605,0.19276 0.02119,0.22273 v 7.09517 l 0.35501,0.35449 h 10.49034 l 0.355018,-0.35449 2.01e-4,-12.62219 c 0,-2.524681 1.41586,-1.64533 1.41586,-3.918421 V 21.613302 c 0,-0.988989 -1.41586,-0.98021 -1.41586,-3.04033 0,-2.06012 -0.0236,-2.103099 0,-3.307609 -6.9e-5,-0.801611 -0.808159,-1.451541 -1.32819,-1.451589 -0.52003,-3.2e-5 -0.941541,-0.64984 -0.941541,-1.451591 0,-0.745771 0.357942,-1.441771 0.83457,-1.441771 h 0.106971 c 0.520121,0 0.941599,-0.649848 0.941549,-1.4515881 -6.9e-5,-0.801611 -0.421518,-1.451581 -0.941549,-1.451592 -0.52003,-2.9e-5 -0.941541,-0.649859 -0.941541,-1.451599 0,-0.74689 0.359281,-1.442281 0.836642,-1.442281 h 0.104899 c 0.520121,0 0.941599,-0.649809 0.941549,-1.4516 -6.9e-5,-0.80161 -0.421518,-1.451538 -0.941549,-1.451588 -0.52003,-5.1e-5 -0.941541,-0.64988 -0.941541,-1.45159199 0,-0.746919 0.359281,-1.442289 0.836642,-1.442289 h 0.104899 c 0.520121,0 0.941599,-0.64985101 0.941549,-1.45159101 -6.9e-5,-0.801619 -0.421518,-1.45157 -0.941549,-1.451589 -0.52003,-2.1e-5 -0.941541,-0.649851 -0.941541,-1.451591 0,-0.745768 0.357942,-1.44177 0.83457,-1.44177 h 0.106971 c 0.520121,0 0.941599,-0.650349 0.941549,-1.452111 -6.9e-5,-0.801608 -0.421518,-1.451528 -0.941549,-1.451588 -0.52003,-6.9e-5 -0.941541,-0.6498699 -0.941541,-1.4515889 0,-0.746911 0.359281,-1.441781 0.836642,-1.441781 h 0.104899 c 0.520121,0 0.941599,-0.649801 0.941549,-1.451581 -6.9e-5,-0.801579 -0.421518,-1.45156 -0.941549,-1.451599 -0.52003,-5.1e-5 -0.941541,-0.64988 -0.941541,-1.451589 0,-0.746921 0.359281,-1.442291 0.836642,-1.442291 h 0.104899 c 0.520121,0 0.941631,-0.649852 0.941549,-1.451589 -4.7e-5,-0.29405 -0.0686,-0.563092 -0.154519,-0.796333 -0.194778,-0.52882 -0.514271,-0.80976 -0.83716,-0.773078 -0.501759,0.057 -1.005981,-0.60511 -1.252649,-1.329121 -0.23314,-0.68448 -0.244872,-1.452898 0.12351,-1.767329 0.02619,-0.02241 0.0634,-0.0369 0.0946,-0.0553 0.449012,-0.264448 0.46309,-1.18211 -0.188629,-1.984374 -0.648391,-0.79813 -1.52241,-0.94542 -1.865529,-0.55397 -0.204841,0.23369 -0.570752,0.27681 -0.952921,0.19378 -0.265711,-0.0577 -0.54827,-0.18594 -0.811311,-0.38085 -0.585369,-0.43374 -0.913399,-1.08342 -0.72658,-1.52549 0.01299,-0.0309 0.0377,-0.0602 0.0563,-0.0899 0.27768,-0.44308 -0.0669,-1.17534 -0.8201,-1.60042 -0.75229,-0.42457 -1.54287,-0.33426 -1.766811,0.13798 -0.22379,0.47185 -0.990049,0.56625 -1.70688,0.26303 -0.66757,-0.28239 -1.129879,-0.84029 -1.045419,-1.31568 0.006,-0.0337 0.02379,-0.0685 0.0357,-0.10232 0.173379,-0.49594 -0.31723,-1.13477 -1.134292,-1.38751 -0.816139,-0.25245 -1.571599,0 -1.697569,0.51521 -0.12549,0.51326 -0.861751,0.76803 -1.63248,0.6103 -0.716621,-0.14666 -1.354269,-0.61649 -1.280001,-1.09812 0.006,-0.0369 0.0114,-0.0737 0.01691,-0.11059 0.0811,-0.52572 -0.51244,-1.16272 -1.36271,-1.16272 v 0 c -0.84949,0 -1.54545,0.28567 -1.584402,0.81701 -0.039,0.53151 -0.723849,0.91104 -1.51257,0.88211 -0.73406,-0.0269 -1.355169,-0.39862 -1.432478,-0.8785 -0.006,-0.0342 2.9e-5,-0.0733 0,-0.10955 -2.01e-4,-0.53218 -0.66879,-0.96248 -1.50482,-0.92656 -0.12025,0.005 -0.236482,0.0212 -0.347771,0.0429 -0.67818,0.13198 -1.13702,0.55444 -1.098651,1.00511 0.0448,0.5265 -0.572008,1.00856 -1.346678,1.12086 -0.721202,0.10453 -1.40385,-0.13611 -1.57149,-0.59066 -0.01191,-0.0321 -0.01381,-0.0709 -0.02061,-0.10594 -0.1017,-0.5191 -0.851079,-0.81144 -1.688279,-0.59221 -0.837139,0.21923 -1.35469,0.84298 -1.19732,1.34721 0.157399,0.50441 -0.34102,1.11285 -1.07177,1.39578 -0.67906,0.26289 -1.39666,0.18354 -1.65934,-0.21963 -0.0188,-0.029 -0.0294,-0.0672 -0.0439,-0.10025 -0.21222,-0.48235 -1.00679,-0.5969 -1.77562,-0.19017 -0.76903,0.40687 -1.13408,1.13499 -0.86815,1.58802 0.26596,0.45314 -0.0826,1.15906 -0.72657,1.6061 -0.59865,0.41559 -1.31466,0.51242 -1.66399,0.18397 -0.0249,-0.0233 -0.044,-0.057 -0.0656,-0.0853 -0.21381,-0.27944 -0.64312,-0.34284 -1.10381,-0.16278 -0.24991,0.0977 -0.49972,0.27057 -0.72605,0.49351 -0.70387,0.69328 -0.802531,1.54736 -0.3979,1.872245 0.40468,0.324951 0.32014,1.13053 -0.0915,1.796269 -0.0471,0.0762 -0.0963,0.148471 -0.14883,0.216011 -0.383621,0.493509 -0.95702,0.80322 -1.360641,0.65939 -0.0217,-0.008 -0.0428,-0.0218 -0.0641,-0.0326 -0.44876,-0.226631 -1.23596,0.230389 -1.46091,1.4888 -0.0609,0.34059 -0.0971,0.689319 -0.0222,0.99477 0.121311,0.494631 0.47498,0.82164 0.848551,0.821658 0.52001,5.1e-5 0.941519,0.649862 0.941519,1.451592 0,0.7469 -0.358749,1.44177 -0.836109,1.44177 h -0.10541 c -0.520151,0 -0.941631,0.650348 -0.941551,1.45211 5e-5,0.801619 0.421481,1.451031 0.941551,1.45107 0.52001,5.1e-5 0.941519,0.64987 0.941519,1.451589 0,0.7469 -0.358749,1.442292 -0.836109,1.442292 h -0.10541 c -0.520151,0 -0.941631,0.649848 -0.941551,1.4515879 5e-5,0.801601 0.421481,1.451542 0.941551,1.4516 0.52001,0 0.941519,0.64984 0.941519,1.451591 0,0.74572 -0.35745,1.44177 -0.83405,1.44177 h -0.107469 c -0.520151,0 -0.941631,0.65032 -0.941551,1.45211 5e-5,0.801619 0.421481,1.451539 0.941551,1.451589 0.52001,5.1e-5 0.941519,0.649891 0.941519,1.45159201 0,0.745799 -0.35745,1.44177 -0.83405,1.44177 h -0.107469 c -0.520151,0 -0.941631,0.64983799 -0.941551,1.45158899 5e-5,0.801611 0.421481,1.451549 0.941551,1.451591 0.52001,4.8e-5 0.941519,0.649888 0.941519,1.451589 0,0.7469 -0.358749,1.442289 -0.836109,1.442289 h -0.10541 c -0.520151,0 -0.941631,0.649861 -0.941551,1.451591 5e-5,0.801619 0.421481,1.45156 0.941551,1.451589 0.52001,5e-5 0.941519,0.6498621 0.941519,1.4515921 0,0.746889 -0.358749,1.442288 -0.836109,1.442288 h -0.10541 c -0.520151,0 -0.941631,0.649841 -0.941551,1.451592 5e-5,0.655619 0.66921,0.812268 0.66921,1.389589 0,0.57731 -1.651579,0.33741 -2.35611,0.759211 -0.70451,0.421788 -9.66687,7.47612 -10.21837,7.845269 -0.5515,0.369141 -0.65101,0.582721 -0.65101,1.291169 -5e-5,0.712272 0,1.424562 0,2.136852 z m 4.32615,-1.449292 c 0,-1.167479 6.343551,-5.38534 6.914991,-5.116658 0.57145,0.26869 1.32827,0.641228 1.33287,1.19054 l 0.0874,10.42638 c 0.005,0.5398 -0.77849,0.8206 -1.42029,1.104789 -0.6418,0.284189 -6.914991,-5.17897 -6.914991,-6.237039 z m 3.80426,24.145741 10.107431,16.055361 c 1.77657,2.82203 -2.50452,5.48717 -4.30325,2.72372 L 22.094195,57.672323 c 1.29597,-0.65303 2.31287,-2.79333 1.562271,-4.64357 l -4.368501,-0.2884 c -1.5704,-2.68375 2.40864,-5.63437 4.20359,-2.78314 z m 21.389741,20.529331 c -5e-5,-1.3808 0.87022,-2.25011 2.251001,-2.25006 1.38081,-8e-5 2.250048,0.86925 2.249998,2.25006 5e-5,1.3808 -0.869188,2.25001 -2.249998,2.24994 -1.380781,5e-5 -2.251051,-0.86915 -2.251001,-2.24994 z"
       id="path5658-9-7-6-2"
       inkscape:connector-curvature="0"
       sodipodi:nodetypes="zzszzzssssssccccccccccccccccccccccccccccccsszccsssccssscssssccsssccssscssssccccccccccccccccccccccssccccccccccccccccccccccccccccccsssccsssccsssccssscssssccsssczzzcczcssszzcsssczcsccccc" />
  </g>
  <g
     id="g1499"
     inkscape:groupmode="layer"
     inkscape:label="Margin-disabled"
     transform="translate(-14.958376,34.046368)" />
  <g
     id="g1501"
     inkscape:groupmode="layer"
     inkscape:label="B.CrtYd-disabled"
     transform="translate(-14.958376,34.046368)" />
  <g
     id="g1503"
     inkscape:groupmode="layer"
     inkscape:label="F.CrtYd-disabled"
     transform="translate(-14.958376,34.046368)" />
  <g
     id="g1505"
     inkscape:groupmode="layer"
     inkscape:label="B.Fab-disabled"
     transform="translate(-14.958376,34.046368)" />
  <g
     id="g1507"
     inkscape:groupmode="layer"
     inkscape:label="F.Fab-disabled"
     transform="translate(-14.958376,34.046368)" />
  <g
     id="g1509"
     inkscape:groupmode="layer"
     inkscape:label="Drill"
     transform="translate(-14.958376,34.046368)" />
</svg>
