<?xml version="1.0" encoding="UTF-8" standalone="no"?>
<!-- Created with Inkscape (http://www.inkscape.org/) -->

<svg
   xmlns:dc="http://purl.org/dc/elements/1.1/"
   xmlns:cc="http://creativecommons.org/ns#"
   xmlns:rdf="http://www.w3.org/1999/02/22-rdf-syntax-ns#"
   xmlns:svg="http://www.w3.org/2000/svg"
   xmlns="http://www.w3.org/2000/svg"
   xmlns:sodipodi="http://sodipodi.sourceforge.net/DTD/sodipodi-0.dtd"
   xmlns:inkscape="http://www.inkscape.org/namespaces/inkscape"
   width="62.621441mm"
   height="108.50903mm"
   viewBox="0 0 62.621441 108.50903"
   version="1.1"
   id="svg9297"
   inkscape:version="0.92.5 (2060ec1f9f, 2020-04-08)"
   sodipodi:docname="chainsaw-outline-shorter-wider.svg">
  <defs
     id="defs9291" />
  <sodipodi:namedview
     id="base"
     pagecolor="#ffffff"
     bordercolor="#666666"
     borderopacity="1.0"
     inkscape:pageopacity="0.0"
     inkscape:pageshadow="2"
     inkscape:zoom="2"
     inkscape:cx="8.9760787"
     inkscape:cy="196.3455"
     inkscape:document-units="mm"
     inkscape:current-layer="g9879"
     showgrid="true"
     inkscape:window-width="1858"
     inkscape:window-height="1177"
     inkscape:window-x="54"
     inkscape:window-y="-8"
     inkscape:window-maximized="1"
     borderlayer="true"
     fit-margin-top="0"
     fit-margin-left="0"
     fit-margin-right="0"
     fit-margin-bottom="0"
     gridtolerance="1"
     guidetolerance="1"
     objecttolerance="1">
    <inkscape:grid
       originy="22.052873"
       originx="-54.157249"
       spacingx="2.54"
       spacingy="2.54"
       empspacing="1"
       type="xygrid"
       units="mm"
       id="grid9843" />
  </sodipodi:namedview>
  <metadata
     id="metadata9294">
    <rdf:RDF>
      <cc:Work
         rdf:about="">
        <dc:format>image/svg+xml</dc:format>
        <dc:type
           rdf:resource="http://purl.org/dc/dcmitype/StillImage" />
        <dc:title></dc:title>
      </cc:Work>
    </rdf:RDF>
    <rdf:RDF>
      <cc:Work
         rdf:about="">
        <dc:title />
      </cc:Work>
    </rdf:RDF>
  </metadata>
  <g
     id="g9849"
     sodipodi:insensitive="true"
     inkscape:groupmode="layer"
     inkscape:label="[fixed] BG"
     transform="translate(-54.157247,48.456151)">
    <rect
       id="rect9847"
       style="fill:#ffffff;fill-opacity:1;stroke:none"
       height="38"
       width="29"
       y="0"
       x="0" />
  </g>
  <g
     id="g9851"
     inkscape:groupmode="layer"
     inkscape:label="F.Cu"
     transform="translate(-54.157247,48.456151)" />
  <g
     id="g9853"
     inkscape:groupmode="layer"
     inkscape:label="B.Cu-disabled"
     transform="translate(-54.157247,48.456151)" />
  <g
     id="g9855"
     inkscape:groupmode="layer"
     inkscape:label="B.Adhes-disabled"
     transform="translate(-54.157247,48.456151)" />
  <g
     id="g9857"
     inkscape:groupmode="layer"
     inkscape:label="F.Adhes-disabled"
     transform="translate(-54.157247,48.456151)" />
  <g
     id="g9859"
     inkscape:groupmode="layer"
     inkscape:label="B.Paste-disabled"
     transform="translate(-54.157247,48.456151)" />
  <g
     id="g9861"
     inkscape:groupmode="layer"
     inkscape:label="F.Paste-disabled"
     transform="translate(-54.157247,48.456151)" />
  <g
     id="g9863"
     inkscape:groupmode="layer"
     inkscape:label="B.SilkS-disabled"
     transform="translate(-54.157247,48.456151)" />
  <g
     id="g9865"
     inkscape:groupmode="layer"
     inkscape:label="F.SilkS-disabled"
     transform="translate(-54.157247,48.456151)" />
  <g
     id="g9867"
     inkscape:groupmode="layer"
     inkscape:label="B.Mask-disabled"
     transform="translate(-54.157247,48.456151)" />
  <g
     id="g9869"
     inkscape:groupmode="layer"
     inkscape:label="F.Mask-disabled"
     transform="translate(-54.157247,48.456151)" />
  <g
     id="g9871"
     inkscape:groupmode="layer"
     inkscape:label="Dwgs.User-disabled"
     transform="translate(-54.157247,48.456151)" />
  <g
     id="g9873"
     inkscape:groupmode="layer"
     inkscape:label="Cmts.User-disabled"
     transform="translate(-54.157247,48.456151)" />
  <g
     id="g9875"
     inkscape:groupmode="layer"
     inkscape:label="Eco1.User-disabled"
     transform="translate(-54.157247,48.456151)" />
  <g
     id="g9877"
     inkscape:groupmode="layer"
     inkscape:label="Eco2.User-disabled"
     transform="translate(-54.157247,48.456151)" />
  <g
     id="g9879"
     inkscape:groupmode="layer"
     inkscape:label="Edge.Cuts"
     transform="translate(-54.157247,48.456151)">
    <path
       style="fill:none;fill-opacity:1;stroke:#000000;stroke-width:0.37795276;stroke-linecap:butt;stroke-linejoin:miter;stroke-miterlimit:4;stroke-dasharray:none;stroke-opacity:1"
       d="M 135.5957 0.0078125 C 135.14121 0.026710138 134.70188 0.087906127 134.28125 0.16992188 C 131.71805 0.66881951 129.98389 2.2654304 130.12891 3.96875 C 130.29823 5.9586713 127.96695 7.7806372 125.03906 8.2050781 C 122.31327 8.6001521 119.73321 7.6906401 119.09961 5.9726562 C 119.0546 5.8513334 119.04726 5.7047003 119.02148 5.5722656 C 118.63708 3.6103129 115.80485 2.5053608 112.64062 3.3339844 C 109.4766 4.1625702 107.52042 6.5200304 108.11523 8.4257812 C 108.7101 10.332138 106.82634 12.63183 104.06445 13.701172 C 101.49796 14.69481 98.785775 14.394848 97.792969 12.871094 C 97.721914 12.761487 97.681756 12.617101 97.626953 12.492188 C 96.824862 10.66917 93.821834 10.236228 90.916016 11.773438 C 88.009446 13.311252 86.629676 16.063152 87.634766 17.775391 C 88.639931 19.488046 87.322574 22.156065 84.888672 23.845703 C 82.626058 25.416437 79.91995 25.782439 78.599609 24.541016 C 78.505499 24.452953 78.4332 24.325711 78.351562 24.21875 C 77.543462 23.162637 75.920878 22.922936 74.179688 23.603516 C 73.235146 23.972775 72.290967 24.626142 71.435547 25.46875 C 68.775251 28.089021 68.402293 31.317028 69.931641 32.544922 C 71.46114 33.773117 71.141742 36.817802 69.585938 39.333984 C 69.407922 39.621984 69.221938 39.895084 69.023438 40.150391 C 67.573497 42.015625 65.40639 43.186188 63.880859 42.642578 C 63.798844 42.612342 63.719176 42.56035 63.638672 42.519531 C 61.942609 41.663015 58.967354 43.390289 58.117188 48.146484 C 57.887014 49.433716 57.750117 50.751793 58.033203 51.90625 C 58.49166 53.775718 59.828354 55.011605 61.240234 55.011719 C 63.205589 55.011908 64.798828 57.467886 64.798828 60.498047 C 64.798828 63.320976 63.442867 65.947266 61.638672 65.947266 L 61.240234 65.947266 C 59.274313 65.947266 57.681376 68.405311 57.681641 71.435547 C 57.681867 74.46533 59.274653 76.919771 61.240234 76.919922 C 63.205589 76.920111 64.798828 79.376127 64.798828 82.40625 C 64.798828 85.229179 63.442867 87.857422 61.638672 87.857422 L 61.240234 87.857422 C 59.274313 87.857422 57.681376 90.313552 57.681641 93.34375 C 57.681867 96.373381 59.274653 98.829889 61.240234 98.830078 C 63.205589 98.830078 64.798828 101.28613 64.798828 104.31641 C 64.798828 107.13488 63.447807 109.76562 61.646484 109.76562 L 61.240234 109.76562 C 59.274313 109.76562 57.681376 112.22352 57.681641 115.25391 C 57.681867 118.28365 59.274653 120.74005 61.240234 120.74023 C 63.205589 120.74042 64.798828 123.19652 64.798828 126.22656 C 64.798828 129.04533 63.447807 131.67578 61.646484 131.67578 L 61.240234 131.67578 C 59.274313 131.67578 57.681376 134.13184 57.681641 137.16211 C 57.681867 140.19182 59.274653 142.64825 61.240234 142.64844 C 63.205589 142.64863 64.798828 145.10472 64.798828 148.13477 C 64.798828 150.95769 63.442867 153.58594 61.638672 153.58594 L 61.240234 153.58594 C 59.274313 153.58594 57.681376 156.0421 57.681641 159.07227 C 57.681867 162.10201 59.274653 164.55852 61.240234 164.55859 C 63.205589 164.55878 64.798828 167.01476 64.798828 170.04492 C 64.798828 172.86782 63.442867 175.49609 61.638672 175.49609 L 61.240234 175.49609 C 59.274313 175.49609 57.681376 177.95219 57.681641 180.98242 C 57.681867 183.46036 60.210937 184.05237 60.210938 186.23438 C 60.210938 188.41633 53.967478 187.50931 51.304688 189.10352 C 48.641957 190.69771 9.3988626 217.36064 7.3144531 218.75586 C 5.2300399 220.15103 4.8554688 220.95712 4.8554688 223.63477 C 4.8552798 226.32677 4.8554688 229.01882 4.8554688 231.71094 L 4.8554688 231.71289 C 4.8554688 235.53886 5.2160216 235.82962 7.3144531 237.6543 C 9.4130736 239.47898 42.244547 266.90215 43.996094 268.36914 C 44.871886 269.10263 50.634766 269.22994 50.634766 271.69922 L 50.634766 274.68164 C 50.634766 279.2701 27.368985 291.98017 19.298828 297.40625 C 9.573533 304.05976 -7.6285098 315.11912 3.7597656 333.9043 L 44.261719 400.71289 C 52.996694 415.12139 67.182496 410.75081 82.509766 402.10352 C 86.341526 399.9417 87.495055 410.11328 91.066406 410.11328 L 94.46875 410.11328 C 97.955999 410.11328 99.008502 403.04181 101.10938 403.04102 L 105.26758 403.04102 C 107.21515 403.0403 109.2045 410.11328 111.9082 410.11328 L 145.1543 410.11328 L 145.1543 378.36328 L 154.60352 378.36523 L 154.60352 408.76953 L 155.94531 410.11133 L 180.47461 410.11133 L 181.81641 408.76953 L 181.81641 381.95508 L 181.89648 381.11328 L 182.12305 380.38477 L 182.47656 379.76758 L 182.9375 379.26172 L 183.48047 378.86914 L 184.08594 378.58984 L 184.73438 378.42188 L 185.4043 378.36523 L 186.07422 378.42188 L 186.72266 378.58984 L 187.33008 378.86914 L 187.87305 379.26172 L 188.33398 379.76758 L 188.68555 380.38477 L 188.91602 381.11328 L 188.99609 381.95508 L 188.99609 408.77148 L 190.33789 410.11133 L 229.98633 410.11133 L 231.32812 408.77148 L 231.32812 361.06445 C 231.32812 351.52232 236.67969 354.84703 236.67969 346.25586 L 236.67969 224.87109 C 236.67969 221.13322 231.32812 221.42694 231.32812 213.64062 C 231.32812 205.85439 231.23893 190.92748 231.32812 186.375 C 231.32786 183.34529 228.27406 180.88886 226.30859 180.88867 C 224.34313 180.88867 222.75 178.43262 222.75 175.40234 C 222.75 172.58368 224.10286 169.95313 225.9043 169.95312 L 226.30859 169.95312 C 228.2744 169.95312 229.86738 167.497 229.86719 164.4668 C 229.86689 161.43709 228.27406 158.98051 226.30859 158.98047 C 224.34313 158.98047 222.75 156.52434 222.75 153.49414 C 222.75 150.67125 224.10791 148.04297 225.91211 148.04297 L 226.30859 148.04297 C 228.2744 148.04297 229.86738 145.58703 229.86719 142.55664 C 229.86689 139.5269 228.27406 137.0705 226.30859 137.07031 C 224.34313 137.07012 222.75 134.61407 222.75 131.58398 C 222.75 128.76098 224.10791 126.13281 225.91211 126.13281 L 226.30859 126.13281 C 228.2744 126.13281 229.86738 123.67668 229.86719 120.64648 C 229.86689 117.61674 228.27406 115.16019 226.30859 115.16016 C 224.34313 115.16016 222.75 112.70403 222.75 109.67383 C 222.75 106.85521 224.10286 104.22461 225.9043 104.22461 L 226.30859 104.22461 C 228.2744 104.22461 229.86738 101.76664 229.86719 98.736328 C 229.86689 95.706659 228.27406 93.250227 226.30859 93.25 C 224.34313 93.249698 222.75 90.793795 222.75 87.763672 C 222.75 84.940743 224.10791 82.314453 225.91211 82.314453 L 226.30859 82.314453 C 228.2744 82.314453 229.86738 79.858512 229.86719 76.828125 C 229.86689 73.798569 228.27406 71.341986 226.30859 71.341797 C 224.34313 71.341608 222.75 68.885554 222.75 65.855469 C 222.75 63.032426 224.10791 60.404297 225.91211 60.404297 L 226.30859 60.404297 C 228.2744 60.404297 229.86753 57.948205 229.86719 54.917969 C 229.867 53.806599 229.60794 52.789778 229.2832 51.908203 C 228.54706 49.909513 227.33951 48.847657 226.11914 48.986328 C 224.22276 49.201761 222.31702 46.699344 221.38477 43.962891 C 220.50357 41.37588 220.45922 38.471562 221.85156 37.283203 C 221.95059 37.198542 222.09106 37.143762 222.20898 37.074219 C 223.90599 36.074723 223.95933 32.606384 221.49609 29.574219 C 219.04552 26.557627 215.74214 26.00101 214.44531 27.480469 C 213.67115 28.363707 212.28821 28.526705 210.84375 28.212891 C 209.83953 27.994812 208.77151 27.510067 207.77734 26.773438 C 205.56488 25.134067 204.32512 22.67859 205.03125 21.007812 C 205.08038 20.891025 205.17384 20.780221 205.24414 20.667969 C 206.29368 18.993298 204.99127 16.22578 202.14453 14.619141 C 199.30127 13.014467 196.31318 13.355819 195.4668 15.140625 C 194.62098 16.923995 191.7249 17.280794 189.01562 16.134766 C 186.49253 15.067427 184.7452 12.958859 185.06445 11.162109 C 185.08713 11.034739 185.15424 10.903214 185.19922 10.775391 C 185.85448 8.9009713 184.00023 6.4864878 180.91211 5.53125 C 177.82748 4.5771083 174.97219 5.5312656 174.49609 7.4785156 C 174.02179 9.4183959 171.23917 10.381263 168.32617 9.7851562 C 165.61769 9.2308126 163.20757 7.4551369 163.48828 5.6347656 C 163.51096 5.4953011 163.53191 5.3561859 163.55273 5.2167969 C 163.85925 3.2298237 161.61596 0.82226562 158.40234 0.82226562 C 155.19167 0.82226562 152.56127 1.9019421 152.41406 3.9101562 C 152.26666 5.9190129 149.67825 7.3535202 146.69727 7.2441406 C 143.92287 7.1424713 141.5754 5.7375478 141.2832 3.9238281 C 141.26053 3.7945683 141.2832 3.6467735 141.2832 3.5097656 C 141.28244 1.4983766 138.7555 -0.12794813 135.5957 0.0078125 z M 52.429688 206.84961 C 52.548552 206.84909 52.643445 206.86475 52.710938 206.89648 C 54.870749 207.91204 57.730661 209.31839 57.748047 211.39453 L 58.078125 250.80273 C 58.097023 252.84296 55.136638 253.90442 52.710938 254.97852 C 50.285237 256.05266 21.205078 235.40329 21.205078 231.4043 L 21.205078 226.23438 C 21.205078 221.95975 48.744897 206.8656 52.429688 206.84961 z M 25.570312 313.91602 C 28.133998 313.98801 30.695498 315.28363 32.603516 318.31445 L 70.804688 378.99609 C 77.519287 389.66203 61.339369 399.73555 54.541016 389.29102 L 27.322266 347.47461 C 32.220416 345.00646 36.063476 336.91686 33.226562 329.92383 L 16.714844 328.83398 C 12.448821 321.54351 19.018672 313.73202 25.570312 313.91602 z M 125.875 378.34766 A 13.228346 13.228346 0 0 1 139.10156 391.57617 A 13.228346 13.228346 0 0 1 125.875 404.80469 A 13.228346 13.228346 0 0 1 112.64648 391.57617 A 13.228346 13.228346 0 0 1 125.875 378.34766 z "
       id="path5658-9-7-6-2-8-4"
       transform="matrix(0.26458333,0,0,0.26458333,54.157247,-48.456151)" />
  </g>
  <g
     id="g9881"
     inkscape:groupmode="layer"
     inkscape:label="Margin-disabled"
     transform="translate(-54.157247,48.456151)" />
  <g
     id="g9883"
     inkscape:groupmode="layer"
     inkscape:label="B.CrtYd-disabled"
     transform="translate(-54.157247,48.456151)" />
  <g
     id="g9885"
     inkscape:groupmode="layer"
     inkscape:label="F.CrtYd-disabled"
     transform="translate(-54.157247,48.456151)" />
  <g
     id="g9887"
     inkscape:groupmode="layer"
     inkscape:label="B.Fab-disabled"
     transform="translate(-54.157247,48.456151)" />
  <g
     id="g9889"
     inkscape:groupmode="layer"
     inkscape:label="F.Fab-disabled"
     transform="translate(-54.157247,48.456151)" />
  <g
     id="g9891"
     inkscape:groupmode="layer"
     inkscape:label="Drill"
     transform="translate(-54.157247,48.456151)" />
</svg>
