<?xml version="1.0" encoding="UTF-8" standalone="no"?>
<!-- Created with Inkscape (http://www.inkscape.org/) -->

<svg
   xmlns:dc="http://purl.org/dc/elements/1.1/"
   xmlns:cc="http://creativecommons.org/ns#"
   xmlns:rdf="http://www.w3.org/1999/02/22-rdf-syntax-ns#"
   xmlns:svg="http://www.w3.org/2000/svg"
   xmlns="http://www.w3.org/2000/svg"
   xmlns:sodipodi="http://sodipodi.sourceforge.net/DTD/sodipodi-0.dtd"
   xmlns:inkscape="http://www.inkscape.org/namespaces/inkscape"
   width="62.621441mm"
   height="108.50902mm"
   viewBox="0 0 62.621441 108.50902"
   version="1.1"
   id="svg9297"
   inkscape:version="0.92.5 (2060ec1f9f, 2020-04-08)"
   sodipodi:docname="chainsaw-outline-shorter-wider.svg">
  <defs
     id="defs9291" />
  <sodipodi:namedview
     id="base"
     pagecolor="#ffffff"
     bordercolor="#666666"
     borderopacity="1.0"
     inkscape:pageopacity="0.0"
     inkscape:pageshadow="2"
     inkscape:zoom="0.35"
     inkscape:cx="-268.97454"
     inkscape:cy="757.63517"
     inkscape:document-units="mm"
     inkscape:current-layer="g9879"
     showgrid="true"
     inkscape:window-width="1858"
     inkscape:window-height="1177"
     inkscape:window-x="54"
     inkscape:window-y="-8"
     inkscape:window-maximized="1"
     borderlayer="true"
     fit-margin-top="0"
     fit-margin-left="0"
     fit-margin-right="0"
     fit-margin-bottom="0">
    <inkscape:grid
       id="grid9843"
       units="mm"
       type="xygrid"
       empspacing="1"
       spacingy="2.54"
       spacingx="2.54"
       originx="-54.157251"
       originy="22.052876" />
  </sodipodi:namedview>
  <metadata
     id="metadata9294">
    <rdf:RDF>
      <cc:Work
         rdf:about="">
        <dc:format>image/svg+xml</dc:format>
        <dc:type
           rdf:resource="http://purl.org/dc/dcmitype/StillImage" />
        <dc:title></dc:title>
      </cc:Work>
    </rdf:RDF>
  </metadata>
  <g
     id="g9849"
     sodipodi:insensitive="true"
     inkscape:groupmode="layer"
     inkscape:label="[fixed] BG"
     transform="translate(-54.157251,48.456142)">
    <rect
       id="rect9847"
       style="fill:#ffffff;fill-opacity:1;stroke:none"
       height="38"
       width="29"
       y="0"
       x="0" />
  </g>
  <g
     id="g9851"
     inkscape:groupmode="layer"
     inkscape:label="F.Cu"
     transform="translate(-54.157251,48.456142)" />
  <g
     id="g9853"
     inkscape:groupmode="layer"
     inkscape:label="B.Cu-disabled"
     transform="translate(-54.157251,48.456142)" />
  <g
     id="g9855"
     inkscape:groupmode="layer"
     inkscape:label="B.Adhes-disabled"
     transform="translate(-54.157251,48.456142)" />
  <g
     id="g9857"
     inkscape:groupmode="layer"
     inkscape:label="F.Adhes-disabled"
     transform="translate(-54.157251,48.456142)" />
  <g
     id="g9859"
     inkscape:groupmode="layer"
     inkscape:label="B.Paste-disabled"
     transform="translate(-54.157251,48.456142)" />
  <g
     id="g9861"
     inkscape:groupmode="layer"
     inkscape:label="F.Paste-disabled"
     transform="translate(-54.157251,48.456142)" />
  <g
     id="g9863"
     inkscape:groupmode="layer"
     inkscape:label="B.SilkS-disabled"
     transform="translate(-54.157251,48.456142)" />
  <g
     id="g9865"
     inkscape:groupmode="layer"
     inkscape:label="F.SilkS-disabled"
     transform="translate(-54.157251,48.456142)" />
  <g
     id="g9867"
     inkscape:groupmode="layer"
     inkscape:label="B.Mask-disabled"
     transform="translate(-54.157251,48.456142)" />
  <g
     id="g9869"
     inkscape:groupmode="layer"
     inkscape:label="F.Mask-disabled"
     transform="translate(-54.157251,48.456142)" />
  <g
     id="g9871"
     inkscape:groupmode="layer"
     inkscape:label="Dwgs.User-disabled"
     transform="translate(-54.157251,48.456142)" />
  <g
     id="g9873"
     inkscape:groupmode="layer"
     inkscape:label="Cmts.User-disabled"
     transform="translate(-54.157251,48.456142)" />
  <g
     id="g9875"
     inkscape:groupmode="layer"
     inkscape:label="Eco1.User-disabled"
     transform="translate(-54.157251,48.456142)" />
  <g
     id="g9877"
     inkscape:groupmode="layer"
     inkscape:label="Eco2.User-disabled"
     transform="translate(-54.157251,48.456142)" />
  <g
     id="g9879"
     inkscape:groupmode="layer"
     inkscape:label="Edge.Cuts"
     transform="translate(-54.157251,48.456142)">
    <path
       transform="translate(7.0833335e-7,-1.0833333e-6)"
       style="fill:#3e6240;fill-opacity:1;stroke:none;stroke-width:0.1;stroke-linecap:butt;stroke-linejoin:miter;stroke-miterlimit:4;stroke-dasharray:none;stroke-opacity:1"
       d="m 55.441726,12.850984 c 0,1.012291 0.0958,1.08966 0.65101,1.572432 0.55526,0.48278 9.241491,7.738539 9.70492,8.12667 0.23172,0.194069 1.756921,0.2277 1.756921,0.88102 v 0.78912 c 0,1.21403 -6.155891,4.35979 -8.291111,5.795441 -2.57316,1.760408 -7.12446,4.686339 -4.11131,9.656589 l 10.71595,17.67618 c 2.311131,3.81225 6.06447,2.65614 10.11981,0.36821 1.01382,-0.57198 2.62741,2.01809 3.57233,2.01809 h 1.368559 c 0.727742,0 1.725149,-2.01809 2.45023,-2.01809 1.450152,0 2.78648,2.21882 4.35035,2.33623 1.292532,0 3.620163,-0.004 4.833121,0 v -8.40046 l 2.500101,5.29e-4 v 8.044461 l 0.355031,0.35501 h 6.490032 l 0.35502,-0.35501 v -7.09465 l 0.0212,-0.22273 0.0599,-0.19276 0.0935,-0.16329 0.12196,-0.13385 0.14365,-0.10387 0.1602,-0.0739 0.17157,-0.0445 0.17723,-0.015 0.17726,0.015 0.17158,0.0445 0.1607,0.0739 0.14369,0.10387 0.12192,0.13385 0.0935,0.16329 0.0605,0.19276 0.0212,0.22273 v 7.09517 l 0.35501,0.35449 h 10.49034 l 0.35503,-0.35449 2e-4,-12.62219 c 0,-2.52469 1.41586,-1.64533 1.41586,-3.91842 V 7.2035173 c 0,-0.988981 -1.41586,-0.980202 -1.41586,-3.040322 0,-2.06012 -0.0236,-2.103099 0,-3.307609 -8e-5,-0.801611 -0.80816,-1.451541 -1.32819,-1.451592 -0.52003,0 -0.94154,-0.649838 -0.94154,-1.451589 0,-0.74577 0.35794,-1.44177 0.83457,-1.44177 h 0.10697 c 0.52012,0 0.9416,-0.649851 0.94155,-1.451589 -8e-5,-0.80161 -0.42152,-1.45158 -0.94155,-1.451591 -0.52003,0 -0.94154,-0.649859 -0.94154,-1.451599 0,-0.74689 0.35928,-1.442281 0.83664,-1.442281 h 0.1049 c 0.52012,0 0.9416,-0.64981 0.94155,-1.4516003 -8e-5,-0.80162 -0.42152,-1.45154 -0.94155,-1.45159 -0.52003,-5e-5 -0.94154,-0.64988 -0.94154,-1.45159 0,-0.74692 0.35928,-1.44229 0.83664,-1.44229 h 0.1049 c 0.52012,0 0.9416,-0.64985 0.94155,-1.45159 -8e-5,-0.80162 -0.42152,-1.45158 -0.94155,-1.45159 -0.52003,0 -0.94154,-0.64986 -0.94154,-1.4516 0,-0.74576 0.35794,-1.44177 0.83457,-1.44177 h 0.10697 c 0.52012,0 0.9416,-0.65034 0.94155,-1.45211 -8e-5,-0.8016 -0.42152,-1.45152 -0.94155,-1.45158 -0.52003,-8e-5 -0.94154,-0.64988 -0.94154,-1.45159 0,-0.74691 0.35928,-1.44178 0.83664,-1.44178 h 0.1049 c 0.52012,0 0.9416,-0.6498 0.94155,-1.45159 -8e-5,-0.80157 -0.42152,-1.45155 -0.94155,-1.4516 -0.52003,-5e-5 -0.94154,-0.64987 -0.94154,-1.45158 0,-0.74693 0.35928,-1.4423 0.83664,-1.4423 h 0.1049 c 0.52012,0 0.94164,-0.64984 0.94155,-1.45158 -5e-5,-0.29405 -0.0686,-0.56309 -0.15452,-0.79633 -0.19477,-0.52883 -0.51427,-0.80976 -0.83716,-0.77308 -0.50175,0.057 -1.00598,-0.60511 -1.25264,-1.32912 -0.23315,-0.68448 -0.24488,-1.4529 0.12351,-1.76733 0.0262,-0.0224 0.0634,-0.0369 0.0946,-0.0553 0.44901,-0.26445 0.46309,-1.18211 -0.18863,-1.98437 -0.64839,-0.79813 -1.52241,-0.94542 -1.86553,-0.55397 -0.20483,0.23369 -0.57075,0.27681 -0.95292,0.19378 -0.26571,-0.0577 -0.54826,-0.18594 -0.81131,-0.38085 -0.58537,-0.43374 -0.9134,-1.08343 -0.72658,-1.52549 0.013,-0.0309 0.0377,-0.0602 0.0563,-0.0899 0.27769,-0.44309 -0.0669,-1.17534 -0.8201,-1.60042 -0.75228,-0.42457 -1.54287,-0.33426 -1.76681,0.13798 -0.22379,0.47185 -0.99005,0.56625 -1.70688,0.26302 -0.66757,-0.28239 -1.12988,-0.84028 -1.04541,-1.31567 0.006,-0.0337 0.0238,-0.0685 0.0357,-0.10232 0.17338,-0.49594 -0.31723,-1.13477 -1.13429,-1.38751 -0.81614,-0.25245 -1.5716,0 -1.69757,0.51521 -0.12549,0.51326 -0.861753,0.76803 -1.632482,0.6103 -0.716621,-0.14666 -1.354272,-0.61649 -1.280001,-1.09813 0.006,-0.0369 0.0114,-0.0737 0.01691,-0.11058 0.0811,-0.52572 -0.51244,-1.16273 -1.36271,-1.16273 v 0 c -0.84949,0 -1.54545,0.28568 -1.584399,0.81702 -0.039,0.53151 -0.72385,0.91104 -1.51257,0.88211 -0.73406,-0.0269 -1.35517,-0.39862 -1.432481,-0.8785 -0.006,-0.0342 2.1e-5,-0.0733 0,-0.10955 -1.98e-4,-0.53218 -0.66879,-0.96248 -1.50482,-0.92656 -0.120248,0.005 -0.236479,0.0212 -0.347769,0.0429 -0.678181,0.13199 -1.137021,0.55445 -1.098651,1.00512 0.0448,0.5265 -0.572011,1.00856 -1.346679,1.12086 -0.721201,0.10453 -1.40385,-0.13611 -1.57149,-0.59066 -0.01191,-0.0321 -0.01381,-0.0709 -0.02061,-0.10594 -0.101711,-0.5191 -0.85108,-0.81144 -1.68828,-0.59221 -0.837152,0.21923 -1.354701,0.84298 -1.197321,1.34721 0.15739,0.5044 -0.34103,1.11285 -1.07178,1.39578 -0.67905,0.26289 -1.39666,0.18353 -1.65934,-0.21963 -0.0188,-0.029 -0.0294,-0.0672 -0.0439,-0.10025 -0.21222,-0.48235 -1.00679,-0.5969 -1.77562,-0.19018 -0.76903,0.40688 -1.13407,1.135 -0.86814,1.58803 0.26595,0.45314 -0.0826,1.15906 -0.72657,1.6061 -0.59865,0.41559 -1.31466,0.51242 -1.66399,0.18397 -0.0249,-0.0233 -0.044,-0.057 -0.0656,-0.0853 -0.21381,-0.27943 -0.64312,-0.34283 -1.10381,-0.16277 -0.24991,0.0977 -0.49972,0.27057 -0.72605,0.49351 -0.70387,0.69328 -0.80254,1.54736 -0.3979,1.87224 0.40468,0.32495 0.32014,1.13053 -0.0915,1.79627 -0.0471,0.0762 -0.0963,0.14847 -0.14882,0.21601 -0.38362,0.49351 -0.95702,0.80322 -1.36065,0.65939 -0.0217,-0.008 -0.0428,-0.0218 -0.0641,-0.0326 -0.44876,-0.22663 -1.23596,0.23039 -1.460909,1.4888 -0.0609,0.34059 -0.0971,0.68932 -0.0222,0.99477 0.12131,0.49463 0.474979,0.82164 0.848549,0.82166 0.52,5e-5 0.94152,0.64986 0.94152,1.45159 0,0.7469 -0.35875,1.44177 -0.83611,1.44177 h -0.10541 c -0.52015,0 -0.941629,0.65034 -0.941549,1.4521 5e-5,0.80162 0.421479,1.45104 0.941549,1.45108 0.52,5e-5 0.94152,0.64987 0.94152,1.45159 0,0.7469 -0.35875,1.44229 -0.83611,1.44229 h -0.10541 c -0.52015,0 -0.941629,0.64985 -0.941549,1.45159 5e-5,0.80159 0.421479,1.45154 0.941549,1.45159 0.52,0 0.94152,0.64984 0.94152,1.4516 0,0.74572 -0.35745,1.44177 -0.83405,1.44177 h -0.10747 c -0.52015,0 -0.941629,0.65032 -0.941549,1.45211 5e-5,0.80162 0.421479,1.45154 0.941549,1.45159 0.52,5e-5 0.94152,0.64989 0.94152,1.45159 0,0.7458 -0.35745,1.44177 -0.83405,1.44177 h -0.10747 c -0.52015,0 -0.941629,0.64983 -0.941549,1.45159 5e-5,0.80161 0.421479,1.45154 0.941549,1.45159 0.52,5e-5 0.94152,0.64989 0.94152,1.4515903 0,0.7469 -0.35875,1.442291 -0.83611,1.442291 h -0.10541 c -0.52015,0 -0.941629,0.649859 -0.941549,1.451589 5e-5,0.801621 0.421479,1.451559 0.941549,1.45158 0.52,6.1e-5 0.94152,0.64987 0.94152,1.4516 0,0.74689 -0.35875,1.442291 -0.83611,1.442291 h -0.10541 c -0.52015,0 -0.941629,0.649838 -0.941549,1.451589 5e-5,0.655619 0.669209,0.812271 0.669209,1.389589 0,0.57731 -1.651579,0.33741 -2.356109,0.759211 -0.70451,0.421791 -11.087551,7.47612 -11.639051,7.845269 -0.5515,0.369142 -0.65101,0.5827207 -0.65101,1.2911717 -5e-5,0.712269 0,1.424559 0,2.136849 z m 4.32615,-1.449289 c 0,-1.167479 7.764231,-5.3853397 8.33567,-5.1166607 0.57145,0.268692 1.32827,0.641231 1.33287,1.190541 l 0.0874,10.4263787 c 0.005,0.539801 -0.77851,0.8206 -1.420311,1.104792 -0.6418,0.284189 -8.33565,-5.17897 -8.33565,-6.237042 z m 3.01558,24.145741 10.10743,16.05536 c 1.77657,2.82203 -2.504521,5.48717 -4.303249,2.72372 l -7.201541,-11.06397 c 1.29597,-0.65303 2.31287,-2.79333 1.56227,-4.64357 l -4.3685,-0.28841 c -1.5704,-2.68374 2.40864,-5.63436 4.20359,-2.78313 z m 23.599099,20.52933 c -5e-5,-1.3808 0.87022,-2.25011 2.251001,-2.25006 1.380811,-8e-5 2.25005,0.86925 2.249999,2.25006 5.1e-5,1.3808 -0.869188,2.25001 -2.249999,2.24994 -1.380781,5e-5 -2.251051,-0.86915 -2.251001,-2.24994 z"
       id="path5658-9-7-6-2-8"
       inkscape:connector-curvature="0"
       sodipodi:nodetypes="zzsszcssssssccccccccccccccccccccccccccccccsszccsssccssscssssccsssccssscssssccccccccccccccccccccccssccccccccccccccccccccccccccccccsssccsssccsssccssscssssccsssczzzcczcssszzcsssczcsccccc" />
  </g>
  <g
     id="g9881"
     inkscape:groupmode="layer"
     inkscape:label="Margin-disabled"
     transform="translate(-54.157251,48.456142)" />
  <g
     id="g9883"
     inkscape:groupmode="layer"
     inkscape:label="B.CrtYd-disabled"
     transform="translate(-54.157251,48.456142)" />
  <g
     id="g9885"
     inkscape:groupmode="layer"
     inkscape:label="F.CrtYd-disabled"
     transform="translate(-54.157251,48.456142)" />
  <g
     id="g9887"
     inkscape:groupmode="layer"
     inkscape:label="B.Fab-disabled"
     transform="translate(-54.157251,48.456142)" />
  <g
     id="g9889"
     inkscape:groupmode="layer"
     inkscape:label="F.Fab-disabled"
     transform="translate(-54.157251,48.456142)" />
  <g
     id="g9891"
     inkscape:groupmode="layer"
     inkscape:label="Drill"
     transform="translate(-54.157251,48.456142)" />
</svg>
