<?xml version="1.0" encoding="UTF-8" standalone="no"?>
<!-- Created with Inkscape (http://www.inkscape.org/) -->

<svg
   xmlns:dc="http://purl.org/dc/elements/1.1/"
   xmlns:cc="http://creativecommons.org/ns#"
   xmlns:rdf="http://www.w3.org/1999/02/22-rdf-syntax-ns#"
   xmlns:svg="http://www.w3.org/2000/svg"
   xmlns="http://www.w3.org/2000/svg"
   xmlns:sodipodi="http://sodipodi.sourceforge.net/DTD/sodipodi-0.dtd"
   xmlns:inkscape="http://www.inkscape.org/namespaces/inkscape"
   width="228.6752mm"
   height="391.03156mm"
   viewBox="0 0 228.6752 391.03155"
   version="1.1"
   id="svg8"
   sodipodi:docname="chainsaw-master.svg"
   inkscape:version="0.92.5 (2060ec1f9f, 2020-04-08)">
  <defs
     id="defs2">
    <inkscape:path-effect
       effect="skeletal"
       id="path-effect5305"
       is_visible="true"
       pattern="#rect5199"
       copytype="repeated_stretched"
       prop_scale="1"
       scale_y_rel="false"
       spacing="0"
       normal_offset="0"
       tang_offset="0"
       prop_units="true"
       vertical_pattern="false"
       fuse_tolerance="1.6" />
    <inkscape:path-effect
       effect="skeletal"
       id="path-effect868"
       is_visible="true"
       pattern="m -192.27154,215.75821 v 3.16493 h 6.422 v -3.16493 l -0.78256,-4.7e-4 c 0,0 -0.0271,-3.2e-4 -0.0363,0.008 -0.0127,0.0127 -0.0127,0.0327 -0.0146,0.053 -0.0553,1.29829 -1.26853,2.31031 -2.37298,2.31241 -1.10036,0.002 -2.37296,-0.99299 -2.37296,-2.29484 0,-0.0203 -0.0187,-0.0388 -0.0352,-0.0531 -0.0166,-0.0143 -0.0382,-0.0256 -0.0623,-0.0256 -0.23626,0 -0.7451,6e-4 -0.7451,6e-4 z"
       copytype="repeated"
       prop_scale="1"
       scale_y_rel="false"
       spacing="-0.5"
       normal_offset="0"
       tang_offset="0"
       prop_units="false"
       vertical_pattern="false"
       fuse_tolerance="0" />
    <inkscape:path-effect
       effect="skeletal"
       id="path-effect5305-6"
       is_visible="true"
       pattern="#rect5199"
       copytype="repeated_stretched"
       prop_scale="1"
       scale_y_rel="false"
       spacing="0"
       normal_offset="0"
       tang_offset="0"
       prop_units="true"
       vertical_pattern="false"
       fuse_tolerance="1.6" />
    <inkscape:path-effect
       effect="skeletal"
       id="path-effect868-5"
       is_visible="true"
       pattern="#rect5199"
       copytype="repeated"
       prop_scale="1"
       scale_y_rel="false"
       spacing="-0.01"
       normal_offset="0"
       tang_offset="0"
       prop_units="false"
       vertical_pattern="false"
       fuse_tolerance="0" />
    <inkscape:path-effect
       effect="skeletal"
       id="path-effect868-5-9"
       is_visible="true"
       pattern="#rect5199-7-7"
       copytype="repeated"
       prop_scale="1"
       scale_y_rel="false"
       spacing="-0.01"
       normal_offset="0"
       tang_offset="0"
       prop_units="false"
       vertical_pattern="false"
       fuse_tolerance="0" />
    <inkscape:path-effect
       effect="skeletal"
       id="path-effect868-5-9-9"
       is_visible="true"
       pattern="#rect5199-7-7"
       copytype="repeated"
       prop_scale="1"
       scale_y_rel="false"
       spacing="-0.01"
       normal_offset="0"
       tang_offset="0"
       prop_units="false"
       vertical_pattern="false"
       fuse_tolerance="0" />
  </defs>
  <sodipodi:namedview
     id="base"
     pagecolor="#ffffff"
     bordercolor="#666666"
     borderopacity="1.0"
     inkscape:pageopacity="0.0"
     inkscape:pageshadow="2"
     inkscape:zoom="0.64529771"
     inkscape:cx="57.150497"
     inkscape:cy="-535.68028"
     inkscape:document-units="mm"
     inkscape:current-layer="layer1"
     showgrid="false"
     inkscape:window-width="1858"
     inkscape:window-height="1177"
     inkscape:window-x="54"
     inkscape:window-y="-8"
     inkscape:window-maximized="1"
     objecttolerance="1"
     gridtolerance="1"
     guidetolerance="1"
     showguides="true"
     fit-margin-top="0"
     fit-margin-left="0"
     fit-margin-right="0"
     fit-margin-bottom="0" />
  <metadata
     id="metadata5">
    <rdf:RDF>
      <cc:Work
         rdf:about="">
        <dc:format>image/svg+xml</dc:format>
        <dc:type
           rdf:resource="http://purl.org/dc/dcmitype/StillImage" />
        <dc:title />
      </cc:Work>
    </rdf:RDF>
  </metadata>
  <g
     inkscape:label="Layer 1"
     inkscape:groupmode="layer"
     id="layer1"
     transform="translate(446.39091,-149.92045)">
    <path
       id="path2"
       d="m -334.93046,242.80489 c -0.17727,0 -0.35189,0 -0.52917,0 -0.045,-0.1217 -0.0609,-0.32014 -0.14022,-0.35189 -1.35203,-0.51594 -2.07169,-1.55046 -2.37332,-2.91306 -0.24077,-0.0159 -0.41275,-0.0397 -0.58737,-0.037 -4.79161,0.0661 -9.58321,0.13759 -14.37481,0.20638 -4.22011,0.0608 -8.43757,0.11906 -12.65767,0.1905 -0.89958,0.0159 -1.82827,0.003 -2.45269,-0.70908 -0.64823,-0.73819 -1.40229,-0.74084 -2.26219,-0.72496 -4.21745,0.0847 -8.43756,0.12435 -12.65502,0.19843 -1.15093,0.0212 -2.14048,-0.38364 -2.72256,-1.32291 -0.70644,-1.143 -1.46579,-2.35479 -1.75154,-3.63538 -0.61383,-2.7305 -1.19327,-5.51391 -1.32556,-8.29733 -0.26988,-5.69912 -0.2249,-11.41412 -0.33602,-17.12119 -0.0185,-0.95514 0.2831,-1.70921 1.02129,-2.30716 0.34131,-0.27517 0.635,-0.61648 0.98954,-0.86784 0.86519,-0.61118 1.28852,-1.39435 1.12712,-2.46856 -0.127,-0.83873 0.24871,-1.41287 0.96573,-1.84415 0.82815,-0.49741 1.61396,-1.06097 2.42094,-1.59543 3.65654,-2.42888 7.44538,-4.67519 10.50396,-7.90046 0.37571,-0.39688 0.74083,-0.7329 0.65617,-1.33879 -0.10055,-0.72232 0.28839,-1.2409 0.73818,-1.75154 1.7489,-1.9738 3.46869,-3.9714 5.22023,-5.94255 0.76465,-0.86254 1.39436,-1.76741 1.69598,-2.9157 0.32544,-1.23825 0.70115,-1.44463 1.98967,-1.44992 2.286,-0.008 4.57729,0.0741 6.858,-0.0609 1.36525,-0.0794 2.17223,0.41275 2.67758,1.59809 0.17198,0.40216 0.33867,0.81227 0.55827,1.19062 0.36513,0.62177 0.76994,1.21973 1.19856,1.89177 1.19857,-2.26218 2.25425,-4.38414 3.4343,-6.43466 1.1721,-2.03729 2.63525,-3.84969 4.77837,-4.97152 1.94469,-1.01865 4.26508,-0.70115 5.88963,0.76993 1.00012,0.90488 1.66423,2.02142 2.07962,3.29936 0.53711,1.64306 0.5424,1.63777 2.286,1.68275 0.96308,0.0238 1.96585,-0.0714 2.794,0.55827 1.93675,1.47373 2.74638,3.54542 2.66965,5.86581 -0.045,1.41817 -0.47625,2.85221 -0.91282,4.22275 -0.37041,1.16946 -0.21695,2.20927 0.13494,3.18294 0.82815,0.16139 1.63513,0.14552 2.24367,0.48419 0.62971,0.34925 1.06627,1.0451 1.68275,1.68804 0.70644,-1.09273 1.34937,-2.00819 2.68023,-2.05052 1.37848,-0.045 1.88118,1.07421 2.68552,1.95791 0.65087,-1.09802 1.34408,-1.94204 2.68023,-1.95791 1.39435,-0.0185 1.85208,1.25677 2.68023,2.00554 2.23043,-3.00567 3.937,-2.27013 5.30489,-0.24606 0.62706,-1.01865 1.3679,-1.7833 2.69875,-1.75684 1.35202,0.0238 1.70392,1.3679 2.68023,1.99232 0.29633,-0.42598 0.49742,-0.75671 0.74083,-1.0504 0.64559,-0.78581 1.51871,-1.15358 2.46592,-0.84402 0.57415,0.18785 1.10596,0.67733 1.51871,1.14829 0.69321,0.7911 0.7276,0.83344 1.47637,0.0476 0.0291,-0.0318 0.0556,-0.0688 0.0847,-0.10055 1.2409,-1.29381 2.71463,-1.25941 3.86027,0.09 0.16669,0.19579 0.33073,0.38894 0.56092,0.65881 0.49212,-0.26458 0.93927,-0.52652 1.40229,-0.75141 2.04523,-0.99748 4.23863,-0.39952 5.3684,1.55575 0.37835,0.65616 0.77523,0.89958 1.52664,0.95779 2.40242,0.18785 3.92642,2.1881 3.60627,4.59317 -0.0503,0.38364 -0.12171,0.76464 -0.18785,1.18268 1.32027,0.60855 2.35744,1.42875 2.77548,2.8575 0.41275,1.40494 -0.0556,2.65377 -0.72231,3.81265 3.31787,2.46856 3.3311,4.96623 0.0794,7.74435 1.29381,1.03982 2.13254,2.30982 1.9394,4.05342 -0.1958,1.75154 -1.37319,2.75167 -2.80988,3.51102 0.12171,0.26458 0.19315,0.42333 0.26988,0.57944 1.1721,2.45533 0.43127,4.64873 -2.02407,5.78908 -0.56356,0.26194 -0.74877,0.58738 -0.84402,1.16946 -0.44979,2.69081 -2.42358,4.0349 -5.03502,3.4925 -0.28839,-0.0608 -0.57944,-0.11642 -0.90752,-0.17992 -0.16669,0.37571 -0.29633,0.69321 -0.44714,1.00013 -0.96044,1.95527 -2.88132,2.36273 -4.3524,0.44979 -0.19844,-0.25665 -0.40481,-0.508 -0.62177,-0.78052 -0.62706,0.70644 -1.11125,1.37583 -1.71715,1.905 -0.71702,0.62706 -1.59014,0.52917 -2.28071,-0.0317 -0.61118,-0.49742 -1.07685,-1.17475 -1.67745,-1.85208 -0.64823,0.98425 -1.23032,2.20397 -2.51884,2.26483 -1.27264,0.0609 -2.17223,-0.76465 -2.65641,-1.97908 -1.93675,2.7596 -3.03213,2.71197 -5.3975,-0.36513 -0.59532,1.14035 -1.28588,2.36273 -2.59557,2.36802 -1.27793,0.005 -2.23043,-0.88106 -2.60614,-2.17487 -0.61119,0.65087 -1.11125,1.30439 -1.73302,1.80975 -0.67998,0.55298 -1.50813,0.50535 -2.16694,-0.0503 -0.61119,-0.5133 -1.10067,-1.16946 -1.70656,-1.83357 -0.64823,0.95779 -1.25148,2.15636 -2.53471,2.22779 -1.34938,0.0767 -2.18017,-0.90752 -2.72256,-2.03729 -0.53182,0.14817 -0.9869,0.27782 -1.38907,0.39159 -0.36512,0.54239 -0.79375,1.01335 -1.01864,1.56633 -0.2249,0.55298 -0.21431,1.19592 -0.36248,1.78858 -0.34661,1.40229 -0.64823,1.62984 -2.09815,1.64571 -1.04246,0.0106 -2.08491,0.003 -3.07181,0.003 -0.6006,1.86266 -0.60589,1.85737 -2.20927,2.91571 -0.11377,0.0714 -0.13758,0.28839 -0.20373,0.4392 z m -42.91542,-8.58837 c 0,-0.0582 0,-0.11642 0,-0.17463 1.31763,0 2.64055,0.0529 3.95553,-0.0132 1.7145,-0.0873 2.32833,-1.03981 1.74625,-2.66699 -0.21961,-0.61119 -0.53446,-1.20386 -0.89694,-1.74361 -1.81504,-2.6961 -3.65919,-5.37104 -5.49275,-8.05392 -1.33879,-1.95791 -2.66965,-3.91847 -4.02167,-5.86581 -0.42598,-0.61383 -0.98425,-1.02658 -1.79123,-0.71173 -0.74612,0.29104 -0.67469,0.93927 -0.64029,1.56104 0.16933,3.06653 0.25929,6.14098 0.52917,9.19957 0.20108,2.26748 0.58473,4.52173 0.97631,6.76539 0.23548,1.34673 0.71437,1.67481 2.07433,1.70127 1.18798,0.0185 2.37332,0.003 3.56129,0.003 z"
       inkscape:connector-curvature="0"
       style="stroke-width:0.26458332" />
    <text
       xml:space="preserve"
       style="font-style:normal;font-weight:normal;font-size:12.69999981px;line-height:1.25;font-family:sans-serif;letter-spacing:0px;word-spacing:0px;fill:#000000;fill-opacity:1;stroke:none;stroke-width:0.26458332"
       x="-376.29865"
       y="159.56947"
       id="text35"><tspan
         sodipodi:role="line"
         id="tspan33"
         x="-376.29865"
         y="159.56947"
         style="font-size:12.69999981px;stroke-width:0.26458332">Dac's Original</tspan></text>
    <path
       style="fill:#ffff00;fill-opacity:1;stroke:none;stroke-width:0.00623049;stroke-linejoin:round;stroke-miterlimit:4;stroke-dasharray:none;stroke-opacity:1"
       d="m -277.08306,299.69601 c 0,0.50946 -1.06833,1.34376 -2.38146,1.34376 -1.31312,0 -2.37842,-0.6259 -2.37939,-1.34376 v 3.47504 l 7.14445,-4e-5 c -0.001,-1.15897 0.004,-2.31822 0,-3.47688 -1.3e-4,-0.32834 -0.53283,-0.77035 -1.19037,-0.77044 -0.65755,-1e-4 -1.19323,0.39766 -1.19323,0.77232 z"
       id="rect5199"
       inkscape:connector-curvature="0"
       sodipodi:nodetypes="sccccccs" />
    <path
       style="fill:#000080;fill-opacity:1;stroke:none;stroke-width:0.26458332px;stroke-linecap:butt;stroke-linejoin:miter;stroke-opacity:1"
       d="m -20.529852,89.5608 c 0,0.50946 -1.06833,1.34376 -2.38146,1.34376 -1.31312,0 -2.37842,-0.6259 -2.37939,-1.34376 v 3.47504 l 7.14445,-4e-5 c -0.001,-1.15897 0.004,-2.31822 0,-3.47688 -1.3e-4,-0.32834 -0.53283,-0.77035 -1.19037,-0.77044 -0.65755,-1e-4 -1.19323,0.39766 -1.19323,0.77232 z m 7.136025,0 c 0,0.50946 -1.06833,1.34376 -2.38146,1.34376 -1.31312,0 -2.37842,-0.6259 -2.37939,-1.34376 v 3.47504 l 7.14445,-4e-5 c -10e-4,-1.15897 0.004,-2.31822 0,-3.47688 -1.3e-4,-0.32834 -0.53283,-0.77035 -1.19037,-0.77044 -0.65755,-1e-4 -1.19323,0.39766 -1.19323,0.77232 z m 7.1360258,0 c 0,0.50946 -1.06833,1.34376 -2.38146,1.34376 -1.31312,0 -2.3784198,-0.6259 -2.3793898,-1.34376 v 3.47504 l 7.1444498,-4e-5 c -10e-4,-1.15897 0.004,-2.31822 0,-3.47688 -1.3e-4,-0.32834 -0.53283,-0.77035 -1.19037,-0.77044 -0.65755,-1e-4 -1.19323,0.39766 -1.19323,0.77232 z m 7.13602544,0 c 0,0.50946 -1.06833,1.34376 -2.38146004,1.34376 -1.31312,0 -2.37842,-0.6259 -2.37939,-1.34376 v 3.47504 c 2.3814834,-1.3e-5 4.76296671,-2.7e-5 7.14445,-4e-5 -10e-4,-1.15897 0.004,-2.31822 0,-3.47688 -1.3e-4,-0.32834 -0.53283,-0.77035 -1.19037,-0.77044 -0.65755,-1e-4 -1.19322996,0.39766 -1.19322996,0.77232 z m 7.13602546,0 c 0,0.50946 -1.06833,1.34376 -2.38146,1.34376 -1.31312,0 -2.37842,-0.6259 -2.37939,-1.34376 v 3.47504 c 2.3814833,-1.3e-5 4.7629666,-2.7e-5 7.1444503,-4e-5 -10e-4,-1.15897 0.004,-2.31822 0,-3.47688 -1.3e-4,-0.32834 -0.5328303,-0.77035 -1.1903703,-0.77044 -0.65755,-1e-4 -1.19323,0.39766 -1.19323,0.77232 z m 7.1360253,0 c 0,0.50946 -1.06833,1.34376 -2.38146,1.34376 -1.31312,0 -2.37842,-0.6259 -2.37939,-1.34376 v 3.47504 l 7.14445,-4e-5 c -10e-4,-1.15897 0.004,-2.31822 0,-3.47688 -1.3e-4,-0.32834 -0.53283,-0.77035 -1.19037,-0.77044 -0.65755,-1e-4 -1.19323,0.39766 -1.19323,0.77232 z m 7.136025,0 c 0,0.50946 -1.06833,1.34376 -2.38146,1.34376 -1.31312,0 -2.37842,-0.6259 -2.37939,-1.34376 v 3.47504 l 7.14445,-4e-5 c -10e-4,-1.15897 0.004,-2.31822 0,-3.47688 -1.3e-4,-0.32834 -0.53283,-0.77035 -1.19037,-0.77044 -0.65755,-1e-4 -1.19323,0.39766 -1.19323,0.77232 z m 7.136026,0 c 0,0.50946 -1.06833,1.34376 -2.38146,1.34376 -1.31312,0 -2.37842,-0.6259 -2.37939,-1.34376 v 3.47504 l 7.14445,-4e-5 c -0.001,-1.15897 0.004,-2.31822 0,-3.47688 -1.3e-4,-0.32834 -0.53283,-0.77035 -1.19037,-0.77044 -0.65755,-1e-4 -1.19323,0.39766 -1.19323,0.77232 z m 7.136025,0 c 0,0.50946 -1.06833,1.34376 -2.38146,1.34376 -1.31312,0 -2.37842,-0.6259 -2.37939,-1.34376 v 3.47504 l 7.14445,-4e-5 c -0.001,-1.15897 0.004,-2.31822 0,-3.47688 -1.3e-4,-0.32834 -0.53283,-0.77035 -1.19037,-0.77044 -0.65755,-1e-4 -1.19323,0.39766 -1.19323,0.77232 z m 7.249821,0.02939 c -0.01367,0.157864 -0.171518,0.326506 -0.39991,0.506246 -0.403233,0.412653 -1.191269,0.808126 -2.095345,0.808126 -1.31312,0 -2.37842,-0.6259 -2.37939,-1.34376 v 3.47504 l 4.474735,-2.5e-5 c 0.299462,-0.08298 0.784254,0.205596 1.454915,0.567196 0.577121,-1.024229 1.159754,-2.045663 1.733609,-3.071442 0.156793,-0.278072 -0.11201,-1.008368 -0.994352,-1.314471 -0.918076,-0.318512 -1.762263,0.0037 -1.794262,0.37309 z m 6.841874,4.249412 c -0.08492,0.0696 -0.214542,0.108 -0.373772,0.116915 0,0 -10e-7,0 -10e-7,0 -0.570355,0.0163 -1.59668,-0.321345 -2.365785,-0.926161 -0.528932,-0.415947 -0.951818,-0.888938 -1.197919,-1.339427 -0.22077,-0.424338 -0.295998,-0.857692 -0.124864,-1.16239 l -1.730891,3.071088 c 0.165522,0.08929 0.342406,0.183093 0.53066,0.276909 0.975903,0.605556 1.853498,1.27927 2.493989,2.067419 0,0 0,0 0,0 0.489421,0.586766 0.946302,1.201509 1.370058,1.840035 0.964004,-0.64073 1.931581,-1.276581 2.893498,-1.919897 0.27273,-0.181126 0.329867,-0.901605 -0.100682,-1.486362 -0.430396,-0.584566 -1.104649,-0.775546 -1.394291,-0.538129 z m 3.84688,6.43575 c -0.468499,0.19572 -1.658469,-0.504797 -2.259669,-1.633657 -0.603054,-1.132344 -0.692837,-2.388233 -0.09872,-2.783967 l -2.891297,1.919892 c 1.200045,1.806865 2.134722,3.804382 2.790737,5.897462 1.10714,-0.34892 2.216363,-0.69215 3.322218,-1.04411 0.313388,-0.0986 0.568961,-0.77362 0.321276,-1.45093 -0.247549,-0.67697 -0.83901,-1.04904 -1.184549,-0.90469 z m 1.928536,7.23636 c -0.50322,0.064 -1.46636,-0.92681 -1.74076,-2.18109 -0.275497,-1.25929 -0.0121,-2.49154 0.671036,-2.70754 l -3.320117,1.04461 c 0.640325,2.04075 1.015704,4.17247 1.113812,6.30699 0.002,0.0563 0.004,0.11258 0.0058,0.16889 1.158728,-0.0471 2.31798,-0.0881 3.476247,-0.13834 0.114721,-0.005 0.240407,-0.0769 0.3533,-0.19933 0.211728,-0.23324 0.378033,-0.6465 0.340687,-1.10941 -0.05782,-0.71678 -0.527972,-1.23211 -0.899988,-1.18478 z m 0.123693,7.43103 c -0.510655,-0.0402 -1.259209,-1.2047 -1.236256,-2.50384 0.02305,-1.30494 0.601282,-2.41269 1.316299,-2.44229 l -3.474281,0.13896 c 0.07346,2.26196 -0.02956,4.54912 -0.347598,6.78179 1.155741,0.16629 2.310889,0.33864 3.466791,0.50169 0.327081,0.0472 0.852108,-0.44485 0.931079,-1.14894 0.0789,-0.70335 -0.279577,-1.29771 -0.656034,-1.32737 z m -1.343332,7.32397 c -0.483842,-0.14379 -0.969193,-1.43305 -0.69595,-2.69435 0.274906,-1.26898 1.04738,-2.26476 1.763635,-2.1623 l -3.465104,-0.5006 c -0.31753,2.2328 -0.850027,4.41121 -1.636024,6.45558 1.075429,0.41713 2.148937,0.83997 3.22527,1.25395 0.304094,0.11809 0.922728,-0.24432 1.155551,-0.91761 0.232508,-0.67236 0.01173,-1.32794 -0.347378,-1.43467 z m -3.015728,6.79285 c -0.427325,-0.26452 -0.550701,-1.63278 0.01092,-2.76931 0.565962,-1.14531 1.531662,-1.9379 2.19809,-1.68012 l -3.223985,-1.25233 c -0.785398,2.04468 -1.824248,3.95541 -3.155083,5.65252 0.917795,0.70545 1.832127,1.41585 2.751684,2.11846 0.260326,0.20024 0.958002,0.016 1.367026,-0.58198 0.408395,-0.597 0.367041,-1.29183 0.05135,-1.48724 z m -5.636596,5.48334 c -0.186326,-0.42886 0.554615,-1.71656 1.505245,-2.50108 0.681192,-0.56217 1.429459,-0.97357 2.005605,-1.0663 0.278123,-0.0381 0.526696,0.003 0.711288,0.14502 l -2.750923,-2.11625 c -0.05761,0.0735 -0.115761,0.14665 -0.174466,0.21936 -1.180089,1.35158 -2.776433,2.49771 -4.240416,2.52439 0.06213,1.15244 0.118112,2.3055 0.184456,3.45733 0.01743,0.32377 0.723596,0.73621 1.600811,0.52568 0.868755,-0.20849 1.306344,-0.84764 1.1584,-1.18815 z m -7.58257,0.6766 c 0,-0.50946 1.06833,-1.34376 2.38146,-1.34376 0.87682,0 1.643143,0.27907 2.055873,0.67825 0.228193,0.19525 0.382818,0.41189 0.396188,0.64883 l -0.189207,-3.45492 c -0.06931,0.001 -0.138321,2.8e-4 -0.206981,-0.003 l -6.820933,4e-5 c 0.001,1.15897 -0.004,2.31822 0,3.47688 1.3e-4,0.32834 0.53283,0.77035 1.19037,0.77044 0.65755,1e-4 1.19323,-0.39766 1.19323,-0.77232 z m -7.136025,0 c 0,-0.50946 1.06833,-1.34376 2.38146,-1.34376 1.31312,0 2.37842,0.6259 2.37939,1.34376 v -3.47504 c -2.381484,1e-5 -4.762967,3e-5 -7.14445,4e-5 0.001,1.15897 -0.004,2.31822 0,3.47688 1.3e-4,0.32834 0.53283,0.77035 1.19037,0.77044 0.65755,1e-4 1.19323,-0.39766 1.19323,-0.77232 z m -7.136026,0 c 0,-0.50946 1.06833,-1.34376 2.38146,-1.34376 1.31312,0 2.37842,0.6259 2.37939,1.34376 v -3.47504 l -7.14445,4e-5 c 0.001,1.15897 -0.004,2.31822 0,3.47688 1.3e-4,0.32834 0.53283,0.77035 1.19037,0.77044 0.65755,1e-4 1.19323,-0.39766 1.19323,-0.77232 z m -7.136025,0 c 0,-0.50946 1.06833,-1.34376 2.38146,-1.34376 1.31312,0 2.37842,0.6259 2.37939,1.34376 v -3.47504 c -2.381484,1e-5 -4.762967,3e-5 -7.14445,4e-5 0.001,1.15897 -0.004,2.31822 0,3.47688 1.3e-4,0.32834 0.53283,0.77035 1.19037,0.77044 0.65755,1e-4 1.19323,-0.39766 1.19323,-0.77232 z m -7.136026,0 c 0,-0.50946 1.06833,-1.34376 2.38146,-1.34376 1.31312,0 2.37842,0.6259 2.37939,1.34376 v -3.47504 l -7.1444497,4e-5 c 10e-4,1.15897 -0.004,2.31822 0,3.47688 1.3e-4,0.32834 0.53283,0.77035 1.19037,0.77044 0.65755,1e-4 1.1932297,-0.39766 1.1932297,-0.77232 z m -7.1360251,0 c 0,-0.50946 1.06833,-1.34376 2.38146,-1.34376 1.31312,0 2.37842,0.6259 2.37939,1.34376 v -3.47504 l -7.14445003,4e-5 c 0.001,1.15897 -0.004,2.31822 0,3.47688 1.3e-4,0.32834 0.53283003,0.77035 1.19037003,0.77044 0.65755,1e-4 1.19323,-0.39766 1.19323,-0.77232 z m -7.1360254,0 c 0,-0.50946 1.06833,-1.34376 2.38146,-1.34376 1.31311995,0 2.37841995,0.6259 2.37938995,1.34376 v -3.47504 l -7.14444995,4e-5 c 10e-4,1.15897 -0.004,2.31822 0,3.47688 1.3e-4,0.32834 0.53283,0.77035 1.19037,0.77044 0.65755,1e-4 1.19323,-0.39766 1.19323,-0.77232 z m -7.1360255,0 c 0,-0.50946 1.06833,-1.34376 2.38146,-1.34376 1.31312,0 2.37842,0.6259 2.37939,1.34376 v -3.47504 c -2.3814833,1e-5 -4.762967,3e-5 -7.14445,4e-5 10e-4,1.15897 -0.004,2.31822 0,3.47688 1.3e-4,0.32834 0.53283,0.77035 1.19037,0.77044 0.65755,1e-4 1.19323,-0.39766 1.19323,-0.77232 z m -7.136025,0 c 0,-0.50946 1.06833,-1.34376 2.38146,-1.34376 1.31312,0 2.37842,0.6259 2.37939,1.34376 v -3.47504 c -2.381484,1e-5 -4.762967,3e-5 -7.14445,4e-5 0.001,1.15897 -0.004,2.31822 0,3.47688 1.3e-4,0.32834 0.53283,0.77035 1.19037,0.77044 0.65755,1e-4 1.19323,-0.39766 1.19323,-0.77232 z"
       id="path857-8"
       inkscape:connector-curvature="0"
       sodipodi:nodetypes="csaaasc"
       inkscape:path-effect="#path-effect868-5"
       inkscape:original-d="m -25.290702,90.91216 h 68.698964 c 1.596382,0 4.581716,1.837177 6.107398,3.675583 3.461885,4.171479 5.515394,9.840647 5.755361,15.293577 0.314673,7.15051 -1.342895,15.08337 -5.755361,20.66006 -1.447752,1.82974 -4.129924,3.32676 -6.107398,3.32676 h -70.114074"
       transform="matrix(0.98241506,0,0,0.9661054,-294.00919,192.46643)" />
    <path
       style="fill:#000080;fill-opacity:1;stroke:none;stroke-width:0.26458332px;stroke-linecap:butt;stroke-linejoin:miter;stroke-opacity:1"
       d="m -20.857772,88.812075 c -0.81596,1e-5 -1.47745,0.43633 -1.47757,0.97461 3e-5,0.53826 -0.66152,0.97463 -1.4776,0.97463 -0.81607,0 -1.47781,-0.43637 -1.47776,-0.97463 0,1.85189 0,1.65407 0,3.22556 h 5.91068 c 0,-1.79925 0,-2.15968 0,-3.22556 -1.2e-4,-0.53837 -0.66165,-0.97473 -1.47775,-0.97461 z m 5.90068,0 c -0.81596,1e-5 -1.47745,0.43633 -1.47757,0.97461 3e-5,0.53826 -0.66152,0.97463 -1.4776,0.97463 -0.81607,0 -1.47781,-0.43637 -1.47776,-0.97463 0,1.85189 0,1.65407 0,3.22556 h 5.91068 c 0,-1.79925 0,-2.15968 0,-3.22556 -1.2e-4,-0.53837 -0.66165,-0.97473 -1.47775,-0.97461 z m 5.90068,0 c -0.81596,1e-5 -1.47745,0.43633 -1.47757,0.97461 3e-5,0.53826 -0.66152,0.97463 -1.4776,0.97463 -0.81607,0 -1.47781,-0.43637 -1.47776,-0.97463 0,1.85189 0,1.65407 0,3.22556 h 5.91068 c 0,-1.79925 0,-2.15968 0,-3.22556 -1.2e-4,-0.53837 -0.66165,-0.97473 -1.47775,-0.97461 z m 5.90068,0 c -0.81596,1e-5 -1.47745,0.43633 -1.47757,0.97461 3e-5,0.53826 -0.66152,0.97463 -1.4776,0.97463 -0.81607,0 -1.47781,-0.43637 -1.47776,-0.97463 0,1.85189 0,1.65407 0,3.22556 h 5.91068 c 0,-1.79925 0,-2.15968 0,-3.22556 -1.2e-4,-0.53837 -0.66165,-0.97473 -1.47775,-0.97461 z m 5.90068,0 c -0.81596,1e-5 -1.47745,0.43633 -1.47757,0.97461 3e-5,0.53826 -0.66151999,0.97463 -1.47759999,0.97463 -0.81607001,0 -1.47781001,-0.43637 -1.47776001,-0.97463 0,1.85189 0,1.65407 0,3.22556 h 5.91068 c 0,-1.79925 0,-2.15968 0,-3.22556 -1.2e-4,-0.53837 -0.66165,-0.97473 -1.47775,-0.97461 z m 5.90068,0 c -0.81596,1e-5 -1.47745,0.43633 -1.47757,0.97461 3e-5,0.53826 -0.66152,0.97463 -1.4776,0.97463 -0.81607,0 -1.47781,-0.43637 -1.47776,-0.97463 0,1.85189 0,1.65407 0,3.22556 h 5.91068 c 0,-1.79925 0,-2.15968 0,-3.22556 -1.2e-4,-0.53837 -0.66165,-0.97473 -1.47775,-0.97461 z m 5.90068,0 c -0.81596,1e-5 -1.47745,0.43633 -1.47757,0.97461 3e-5,0.53826 -0.66152,0.97463 -1.4776,0.97463 -0.81607,0 -1.47781,-0.43637 -1.47776,-0.97463 0,1.85189 0,1.65407 0,3.22556 h 5.91068 c 0,-1.79925 0,-2.15968 0,-3.22556 -1.2e-4,-0.53837 -0.66165,-0.97473 -1.47775,-0.97461 z m 5.90068,0 c -0.81596,1e-5 -1.47745,0.43633 -1.47757,0.97461 3e-5,0.53826 -0.66152,0.97463 -1.4776,0.97463 -0.81607,0 -1.47781,-0.43637 -1.47776,-0.97463 0,1.85189 0,1.65407 0,3.22556 h 5.91068 c 0,-1.79925 0,-2.15968 0,-3.22556 -1.2e-4,-0.53837 -0.66165,-0.97473 -1.47775,-0.97461 z m 5.90068,0 c -0.81596,1e-5 -1.47745,0.43633 -1.47757,0.97461 3e-5,0.53826 -0.66152,0.97463 -1.4776,0.97463 -0.81607,0 -1.47781,-0.43637 -1.47776,-0.97463 0,1.85189 0,1.65407 0,3.22556 h 5.91068 c 0,-1.79925 0,-2.15968 0,-3.22556 -1.2e-4,-0.53837 -0.66165,-0.97473 -1.47775,-0.97461 z m 5.90068,0 c -0.81596,1e-5 -1.47745,0.43633 -1.47757,0.97461 3e-5,0.53826 -0.66152,0.97463 -1.4776,0.97463 -0.81607,0 -1.47781,-0.43637 -1.47776,-0.97463 0,1.85189 0,1.65407 0,3.22556 h 5.91068 c 0,-1.79925 0,-2.15968 0,-3.22556 -1.2e-4,-0.53837 -0.66165,-0.97473 -1.47775,-0.97461 z m 5.90068,0 c -0.81596,1e-5 -1.47745,0.43633 -1.47757,0.97461 3e-5,0.53826 -0.66152,0.97463 -1.4776,0.97463 -0.81607,0 -1.47781,-0.43637 -1.47776,-0.97463 0,1.85189 0,1.65407 0,3.22556 h 5.91068 c 0,-1.79925 0,-2.15968 0,-3.22556 -1.2e-4,-0.53837 -0.66165,-0.97473 -1.47775,-0.97461 z m 6.271851,0.119208 c -0.346686,-0.06305 -0.695558,-0.06774 -1.012617,-0.02281 0,0 0,0 0,0 -0.494707,0.157517 -0.836038,0.49156 -0.836124,0.878211 3e-5,0.53826 -0.66152,0.97463 -1.4776,0.97463 -0.81607,0 -1.47781,-0.43637 -1.47776,-0.97463 0,1.85189 0,1.65407 0,3.22556 h 3.791484 c 0.242912,-0.06514 0.600938,0.103847 1.07435,0.357628 0.810935,-1.632524 0.973383,-1.959555 1.453782,-2.926666 0.230615,-0.464555 -0.234577,-1.279087 -1.515515,-1.511924 z m 6.107657,3.647285 C 49.82286,91.85001 48.953484,91.748055 48.622717,92.16681 c -0.330702,0.418934 -1.150087,0.331597 -1.827736,-0.09441 -0.07757,-0.04877 -0.15105,-0.100374 -0.220162,-0.154267 0,0 0,0 0,0 -0.530394,-0.42005 -0.856939,-1.05971 -0.648777,-1.479917 -0.832559,1.681093 -0.743625,1.501518 -1.450124,2.928071 0.270162,0.1447 0.578074,0.317373 0.923787,0.490075 0.977598,0.606437 1.857161,1.28186 2.499895,2.07254 l 0,10e-7 c 0.143303,0.171818 0.283819,0.34603 0.421533,0.522531 1.419407,-1.103813 1.703747,-1.324932 2.544607,-1.978834 0.284431,-0.221296 0.34196,-0.663129 0.165516,-1.14264 -0.106201,-0.255869 -0.275765,-0.517129 -0.50272,-0.751391 z m 3.688672,5.335187 c -0.414094,-0.796066 -1.154912,-1.173947 -1.616085,-0.898777 -0.461216,0.275378 -1.180216,-0.08563 -1.635258,-0.752156 -0.454698,-0.666025 -0.530521,-1.468566 -0.10655,-1.798494 -1.46046,1.136739 -1.304453,1.015312 -2.54378,1.979934 1.103159,1.412586 2.026749,2.971973 2.763242,4.624318 1.642783,-0.73464 1.971869,-0.88181 2.945057,-1.317007 0.49096,-0.219691 0.607435,-1.042055 0.193374,-1.837818 z m 2.273211,5.949735 c -0.223085,-0.86655 -0.858472,-1.40244 -1.371738,-1.23964 -0.513441,0.16302 -1.132328,-0.35308 -1.420314,-1.10947 -0.287866,-0.75608 -0.169384,-1.552779 0.321197,-1.772336 -1.69054,0.756786 -1.509956,0.675946 -2.944526,1.318146 0.737126,1.65203 1.28717,3.39711 1.642603,5.18139 1.768145,-0.35177 2.122344,-0.42223 3.169797,-0.63062 0.528402,-0.10525 0.826178,-0.88093 0.602981,-1.74747 z m 0.895509,6.28667 c -0.0053,-0.12448 -0.02016,-0.24505 -0.04342,-0.36 0,0 -10e-7,0 -10e-7,0 -0.133158,-0.7022 -0.564435,-1.17713 -1.023184,-1.13747 -0.535924,0.0465 -1.026732,-0.59184 -1.141026,-1.39371 -0.114293,-0.80187 0.178706,-1.55298 0.707105,-1.65826 -1.819742,0.36274 -1.625356,0.32399 -3.169565,0.6318 0.246326,1.23418 0.399533,2.48717 0.457132,3.74113 0.02092,0.57687 0.03041,1.1555 0.02783,1.73458 1.808442,-4.3e-4 2.170713,-5.1e-4 3.242038,-7.7e-4 0.541698,-2.5e-4 0.979825,-0.69195 0.943094,-1.5573 z m -0.219016,6.24593 c 0.100853,-0.8733 -0.291135,-1.59955 -0.831978,-1.63995 -0.541044,-0.0403 -0.927374,-0.74964 -0.897904,-1.56603 0.02949,-0.81692 0.465548,-1.49277 1.005776,-1.49297 -1.861311,8.9e-4 -1.662484,8e-4 -3.241969,0.002 -0.008,1.87859 -0.142948,3.76196 -0.426794,5.60502 1.790112,0.28035 2.148711,0.33651 3.209178,0.50259 0.535151,0.0837 1.082857,-0.53611 1.183691,-1.41022 z m -1.268181,6.16497 c 0.25702,-0.84475 -0.0014,-1.62688 -0.524907,-1.75723 -0.522447,-0.12993 -0.781832,-0.89165 -0.621269,-1.68942 0.160718,-0.79854 0.696513,-1.40217 1.232286,-1.31837 -1.842589,-0.28803 -1.645762,-0.25726 -3.209359,-0.50168 -0.283342,1.84319 -0.715501,3.64614 -1.318293,5.36373 1.689671,0.60084 2.02815,0.7212 3.029115,1.07714 0.504827,0.17939 1.155219,-0.32842 1.412427,-1.17417 z m -2.447586,5.81473 c 0.432218,-0.77866 0.339911,-1.59672 -0.140745,-1.8286 -0.480314,-0.23155 -0.576182,-1.02491 -0.267541,-1.7669 0.309012,-0.74288 0.941127,-1.23453 1.446933,-1.05481 -1.739352,-0.61782 -1.553554,-0.55183 -3.029545,-1.07611 -0.602215,1.71788 -1.375027,3.35049 -2.340252,4.8527 1.507118,0.96105 1.809028,1.15357 2.701848,1.72289 0.450996,0.28744 1.196644,-0.0695 1.629302,-0.84917 z m -4.02801,5.29984 c 0.812454,-0.67108 0.962311,-1.5757 0.56388,-1.9309 -0.237924,-0.21198 -0.282086,-0.59077 -0.196898,-0.98619 0.05818,-0.27521 0.189189,-0.56779 0.387585,-0.84006 0.474133,-0.6507 1.199633,-0.9891 1.649718,-0.7023 -1.551601,-0.9885 -1.385858,-0.88291 -2.702527,-1.72173 -0.387239,0.60325 -0.805482,1.18551 -1.256143,1.74384 -0.612156,0.70207 -1.336673,1.34859 -2.097474,1.81281 0.910302,1.5728 1.092656,1.88787 1.631921,2.8196 0.269169,0.46479 1.203374,0.47955 2.019938,-0.19507 z m -6.825454,2.29259 c 0.299321,0 0.577855,-0.0587 0.810581,-0.15964 0.542548,-0.18946 0.824256,-0.5327 0.786995,-0.86693 -0.05807,-0.51935 0.615736,-1.04136 1.352728,-1.29667 0.749338,-0.25959 1.592906,-0.24919 1.865177,0.22005 -0.938952,-1.61782 -0.838653,-1.44501 -1.635436,-2.81787 -0.778777,0.47638 -1.59582,0.76203 -2.369464,0.72089 h -2.288331 c 0,1.79925 0,2.15968 0,3.22556 1.2e-4,0.53837 0.66165,0.97473 1.47775,0.97461 z m -5.90068,0 c 0.81596,-1e-5 1.47745,-0.43633 1.47757,-0.97461 -3e-5,-0.53826 0.66152,-0.97463 1.4776,-0.97463 0.81607,0 1.47781,0.43637 1.47776,0.97463 0,-1.85189 0,-1.65407 0,-3.22556 h -5.91068 c 0,1.79925 0,2.15968 0,3.22556 1.2e-4,0.53837 0.66165,0.97473 1.47775,0.97461 z m -5.90068,0 c 0.81596,-1e-5 1.47745,-0.43633 1.47757,-0.97461 -3e-5,-0.53826 0.66152,-0.97463 1.4776,-0.97463 0.81607,0 1.47781,0.43637 1.47776,0.97463 0,-1.85189 0,-1.65407 0,-3.22556 h -5.91068 c 0,1.79925 0,2.15968 0,3.22556 1.2e-4,0.53837 0.66165,0.97473 1.47775,0.97461 z m -5.90068,0 c 0.81596,-1e-5 1.47745,-0.43633 1.47757,-0.97461 -3e-5,-0.53826 0.66152,-0.97463 1.4776,-0.97463 0.81607,0 1.47781,0.43637 1.47776,0.97463 0,-1.85189 0,-1.65407 0,-3.22556 h -5.91068 c 0,1.79925 0,2.15968 0,3.22556 1.2e-4,0.53837 0.66165,0.97473 1.47775,0.97461 z m -5.90068,0 c 0.81596,-1e-5 1.47745,-0.43633 1.47757,-0.97461 -3e-5,-0.53826 0.66152,-0.97463 1.4776,-0.97463 0.81607,0 1.47781,0.43637 1.47776,0.97463 0,-1.85189 0,-1.65407 0,-3.22556 h -5.91068 c 0,1.79925 0,2.15968 0,3.22556 1.2e-4,0.53837 0.66165,0.97473 1.47775,0.97461 z m -5.90068,0 c 0.81596,-1e-5 1.47745,-0.43633 1.47757,-0.97461 -3e-5,-0.53826 0.66152,-0.97463 1.4776,-0.97463 0.81607,0 1.47781,0.43637 1.47776,0.97463 0,-1.85189 0,-1.65407 0,-3.22556 h -5.91068 c 0,1.79925 0,2.15968 0,3.22556 1.2e-4,0.53837 0.66165,0.97473 1.47775,0.97461 z m -5.9006801,0 c 0.81596,-1e-5 1.47745,-0.43633 1.47757,-0.97461 -3e-5,-0.53826 0.66152,-0.97463 1.4776001,-0.97463 0.81607,0 1.47781,0.43637 1.47776,0.97463 0,-1.85189 0,-1.65407 0,-3.22556 H 5.7158509 c 0,1.79925 0,2.15968 0,3.22556 1.2e-4,0.53837 0.66165,0.97473 1.47775,0.97461 z m -5.90068,0 c 0.81596,-1e-5 1.47745,-0.43633 1.47757,-0.97461 -3e-5,-0.53826 0.66152,-0.97463 1.4776,-0.97463 0.81607,0 1.47781,0.43637 1.47776,0.97463 0,-1.85189 0,-1.65407 0,-3.22556 h -5.91068 c 0,1.79925 0,2.15968 0,3.22556 1.2e-4,0.53837 0.66165,0.97473 1.47775,0.97461 z m -5.90068,0 c 0.81596,-1e-5 1.47745,-0.43633 1.47757,-0.97461 -3e-5,-0.53826 0.66152,-0.97463 1.4776,-0.97463 0.81607,0 1.47781,0.43637 1.47776,0.97463 0,-1.85189 0,-1.65407 0,-3.22556 h -5.91068 c 0,1.79925 0,2.15968 0,3.22556 1.2e-4,0.53837 0.66165,0.97473 1.47775,0.97461 z m -5.9006799,0 c 0.8159599,-1e-5 1.4774499,-0.43633 1.4775699,-0.97461 -3e-5,-0.53826 0.66152,-0.97463 1.4776,-0.97463 0.81607,0 1.47781,0.43637 1.47776,0.97463 0,-1.85189 0,-1.65407 0,-3.22556 h -5.9106799 c 0,1.79925 0,2.15968 0,3.22556 1.2e-4,0.53837 0.66165,0.97473 1.47775,0.97461 z m -5.90068,0 c 0.81596,-1e-5 1.47745,-0.43633 1.47757,-0.97461 -3e-5,-0.53826 0.66152,-0.97463 1.4776,-0.97463 0.81607,0 1.47781,0.43637 1.47776,0.97463 0,-1.85189 0,-1.65407 0,-3.22556 h -5.91068 c 0,1.79925 0,2.15968 0,3.22556 1.2e-4,0.53837 0.66165,0.97473 1.47775,0.97461 z m -5.90068,0 c 0.81596,-1e-5 1.47745,-0.43633 1.47757,-0.97461 -3e-5,-0.53826 0.66152,-0.97463 1.4776,-0.97463 0.81607,0 1.47781,0.43637 1.47776,0.97463 0,-1.85189 0,-1.65407 0,-3.22556 h -5.91068 c 0,1.79925 0,2.15968 0,3.22556 1.2e-4,0.53837 0.66165,0.97473 1.47775,0.97461 z"
       id="path857-8-0"
       inkscape:connector-curvature="0"
       sodipodi:nodetypes="csaaasc"
       inkscape:path-effect="#path-effect868-5-9"
       inkscape:original-d="m -25.290702,90.91216 h 68.698964 c 1.596382,0 4.581716,1.837177 6.107398,3.675583 3.461885,4.171479 5.515394,9.840647 5.755361,15.293577 0.314673,7.15051 -1.342895,15.08337 -5.755361,20.66006 -1.447752,1.82974 -4.129924,3.32676 -6.107398,3.32676 h -70.114074"
       transform="matrix(0.98241506,0,0,0.9661054,-401.57399,192.46643)" />
    <path
       style="fill:#ffff00;fill-opacity:1;stroke:none;stroke-width:0.00386741;stroke-linejoin:round;stroke-miterlimit:4;stroke-dasharray:none;stroke-opacity:1"
       d="m -384.32993,298.94708 c -0.81596,10e-6 -1.47745,0.43633 -1.47757,0.97461 3e-5,0.53826 -0.66152,0.97463 -1.4776,0.97463 -0.81607,0 -1.47781,-0.43637 -1.47776,-0.97463 0,1.85189 0,1.65407 0,3.22556 h 5.91068 c 0,-1.79925 0,-2.15968 0,-3.22556 -1.2e-4,-0.53837 -0.66165,-0.97473 -1.47775,-0.97461 z"
       id="rect5199-7-7"
       inkscape:connector-curvature="0"
       sodipodi:nodetypes="cccccccc" />
    <text
       xml:space="preserve"
       style="font-style:normal;font-weight:normal;font-size:12.69999981px;line-height:1.25;font-family:sans-serif;letter-spacing:0px;word-spacing:0px;fill:#000000;fill-opacity:1;stroke:none;stroke-width:0.26458332"
       x="-426.68628"
       y="265.73148"
       id="text35-1"><tspan
         sodipodi:role="line"
         id="tspan33-3"
         x="-426.68628"
         y="265.73148"
         style="font-size:12.69999981px;stroke-width:0.26458332">Patterns Repeated Along Path</tspan></text>
    <path
       style="fill:#000080;fill-opacity:1;stroke:none;stroke-width:0.25776398px;stroke-linecap:butt;stroke-linejoin:miter;stroke-opacity:1"
       d="m -302.94361,372.71366 c -0.80161,10e-6 -1.45145,0.42151 -1.45158,0.94155 2e-5,0.52001 -0.65037,0.94154 -1.45211,0.94154 -0.80172,0 -1.45164,-0.42153 -1.45159,-0.94154 0,21.22166 1.47691,6.81059 1.47691,43.67485 1.3e-4,0.52012 0.64984,0.94166 1.45161,0.94155 0.8016,-2e-5 1.45145,-0.42152 1.45158,-0.94155 -3e-5,-0.52002 0.64987,-0.94154 1.45158,-0.94154 0.74581,0 1.35972,0.36506 1.44177,0.83457 v 0.10697 c 1.3e-4,0.52012 0.65037,0.94166 1.45211,0.94155 0.80161,-2e-5 1.45148,-0.42152 1.45161,-0.94155 -5e-5,-0.52002 0.64985,-0.94154 1.45159,-0.94154 0.74578,0 1.35969,0.36506 1.44176,0.83457 v 0.10697 c 1.1e-4,0.52012 0.65035,0.94166 1.45212,0.94155 0.8016,-2e-5 1.45147,-0.42152 1.45158,-0.94155 -3e-5,-0.52002 0.64987,-0.94154 1.45158,-0.94154 0.74692,0 1.36118,0.36613 1.4418,0.83664 v 0.1049 c 10e-5,0.52012 0.64981,0.94166 1.45158,0.94155 0.80161,-2e-5 1.45148,-0.42152 1.45158,-0.94155 -2e-5,-0.52002 0.64987,-0.94154 1.45159,-0.94154 0.74692,0 1.36168,0.36613 1.44229,0.83664 v 0.1049 c 1.4e-4,0.52012 0.64985,0.94166 1.45159,0.94155 0.80161,-2e-5 1.45148,-0.42152 1.45161,-0.94155 -3e-5,-0.52002 0.64984,-0.94154 1.45158,-0.94154 0.74581,0 1.3597,0.36506 1.44177,0.83457 v 0.10697 c 1.3e-4,0.52012 0.65037,0.94166 1.45211,0.94155 0.80161,-2e-5 1.45148,-0.42152 1.45159,-0.94155 -3e-5,-0.52002 0.64987,-0.94154 1.45161,-0.94154 0.74578,0 1.35969,0.36506 1.44176,0.83457 v 0.10697 c 1.1e-4,0.52012 0.64985,0.94166 1.45159,0.94155 0.8016,-2e-5 1.45147,-0.42152 1.45158,-0.94155 -3e-5,-0.52002 0.64987,-0.94154 1.45161,-0.94154 0.74689,0 1.36168,0.36613 1.44227,0.83664 v 0.1049 c 1.3e-4,0.52012 0.64984,0.94166 1.45161,0.94155 0.80161,-2e-5 1.45145,-0.42152 1.45158,-0.94155 -2e-5,-0.52002 0.64987,-0.94154 1.45159,-0.94154 0.74692,0 1.36168,0.36612 1.44229,0.83664 v 0.1049 c 1.1e-4,0.52012 0.64985,0.94166 1.45159,0.94155 0.80161,-2e-5 1.45148,-0.42152 1.45158,-0.94155 -3e-5,-0.52002 0.64987,-0.94154 1.45161,-0.94154 0.74578,0 1.35969,0.36506 1.44177,0.83457 v 0.10697 c 1e-4,0.52012 0.65034,0.94166 1.45211,0.94155 0.80161,-2e-5 1.45145,-0.42152 1.45158,-0.94155 -2e-5,-0.52002 0.64987,-0.94154 1.45159,-0.94154 0.74692,0 1.36117,0.36613 1.44177,0.83664 v 0.1049 c 1.3e-4,0.52012 0.64984,0.94166 1.45161,0.94155 0.8016,-2e-5 1.45147,-0.42152 1.45158,-0.94155 -3e-5,-0.52002 0.64987,-0.94154 1.45158,-0.94154 0.74692,0 1.36168,0.36613 1.4423,0.83664 v 0.1049 c 1.1e-4,0.52012 0.64984,0.94166 1.45158,0.94155 0.29406,0 0.56772,-0.057 0.79635,-0.15452 0.533,-0.18303 0.80967,-0.51425 0.77308,-0.83716 -0.0571,-0.50174 0.60508,-1.00598 1.32911,-1.25263 0.68448,-0.23318 1.44833,-0.24094 1.76734,0.12351 0.0175,0.0298 0.0369,0.0634 0.0553,0.0946 0.26443,0.44904 1.18216,0.46314 1.98438,-0.18862 0.79817,-0.64833 0.94538,-1.52236 0.55396,-1.86551 -0.23373,-0.2048 -0.27747,-0.5709 -0.19378,-0.95292 0.0571,-0.26588 0.18595,-0.54828 0.38086,-0.81132 0.43374,-0.58537 1.08136,-0.90848 1.52549,-0.72657 0.0284,0.0178 0.0602,0.0377 0.0899,0.0563 0.44307,0.2777 1.17539,-0.0669 1.60044,-0.82011 0.4246,-0.75226 0.33422,-1.54279 -0.13798,-1.76681 -0.47188,-0.22371 -0.56626,-0.99004 -0.26305,-1.70688 0.28239,-0.66757 0.83937,-1.12448 1.31569,-1.04541 0.0323,0.0113 0.0685,0.0238 0.10232,0.0357 0.49596,0.17331 1.13482,-0.31721 1.3875,-1.13429 0.25252,-0.81612 0,-1.57164 -0.5152,-1.69757 -0.51326,-0.12553 -0.76803,-0.86173 -0.61031,-1.63246 0.14668,-0.71662 0.61092,-1.26974 1.09813,-1.28003 l 0.11059,0.017 c 0.52573,0.0809 1.06365,-0.51822 1.16271,-1.3627 v -5.3e-4 c 0.0991,-0.8437 -0.28567,-1.54537 -0.817,-1.5844 -0.53153,-0.0389 -0.91107,-0.72385 -0.8821,-1.51257 0.0269,-0.73405 0.39952,-1.34974 0.8785,-1.43247 0.0346,-10e-6 0.0733,1e-5 0.10954,0 0.53218,-2.4e-4 0.96266,-0.6688 0.92657,-1.50482 -0.005,-0.12026 -0.0201,-0.23673 -0.0429,-0.34778 -0.13084,-0.6784 -0.55444,-1.13696 -1.00513,-1.09864 -0.52649,0.0449 -1.00856,-0.572 -1.12085,-1.34669 -0.10454,-0.72121 0.13787,-1.39914 0.59065,-1.57148 0.0335,-0.007 0.0709,-0.0138 0.10594,-0.0207 0.51911,-0.10169 0.81151,-0.8511 0.59222,-1.68827 -0.21916,-0.83718 -0.84296,-1.35463 -1.34721,-1.19734 -0.5044,0.15749 -1.11286,-0.34102 -1.39578,-1.07177 -0.26289,-0.67904 -0.18042,-1.39193 0.21963,-1.65933 0.0317,-0.0139 0.0672,-0.0294 0.10025,-0.0439 0.48234,-0.21224 0.59696,-1.00681 0.19018,-1.7756 -0.40682,-0.76909 -1.13495,-1.13401 -1.58802,-0.86816 -0.4531,0.26604 -1.15906,-0.0826 -1.6061,-0.72658 -0.41559,-0.59863 -0.50838,-1.31091 -0.18397,-1.66398 0.027,-0.0207 0.057,-0.044 0.0852,-0.0656 0.27945,-0.21379 0.33613,-0.64054 0.1628,-1.1038 -0.10435,-0.2472 -0.27107,-0.49974 -0.49403,-0.72606 -0.69326,-0.70386 -1.54729,-0.80247 -1.87225,-0.39791 -0.32488,0.40474 -1.13001,0.3201 -1.79575,-0.0915 -0.0762,-0.0471 -0.14811,-0.0968 -0.21601,-0.14883 -0.49315,-0.38408 -0.80108,-0.95608 -0.65989,-1.36064 0.0103,-0.0206 0.0217,-0.0429 0.0325,-0.0641 0.22656,-0.44881 -0.23037,-1.23595 -1.48878,-1.46089 -0.3406,-0.0609 -0.68329,-0.0656 -0.99478,-0.0222 -0.48602,0.15218 -0.82159,0.47498 -0.82167,0.84853 3e-5,0.52002 -0.64984,0.94154 -1.45158,0.94154 -0.74689,0 -1.36112,-0.36563 -1.44177,-0.83612 v -0.10542 c -1.3e-4,-0.52012 -0.64984,-0.94166 -1.45161,-0.94155 -0.80161,2e-5 -1.45145,0.42151 -1.45158,0.94155 2e-5,0.52002 -0.64987,0.94154 -1.45159,0.94154 -0.74689,0 -1.36165,-0.36563 -1.44229,-0.83612 v -0.10542 c -1.1e-4,-0.52012 -0.64985,-0.94166 -1.45159,-0.94155 -0.8016,2e-5 -1.45147,0.42151 -1.45158,0.94155 3e-5,0.52002 -0.64987,0.94154 -1.45161,0.94154 -0.74575,0 -1.35964,-0.36458 -1.44177,-0.83405 v -0.10749 c -1e-4,-0.52012 -0.65034,-0.94166 -1.45211,-0.94155 -0.80161,2e-5 -1.45145,0.42151 -1.45158,0.94155 2e-5,0.52002 -0.64987,0.94154 -1.45159,0.94154 -0.74578,0 -1.35966,-0.36458 -1.44176,-0.83405 v -0.10749 c -1.4e-4,-0.52012 -0.64985,-0.94166 -1.45161,-0.94155 -0.80161,2e-5 -1.45148,0.42151 -1.45159,0.94155 3e-5,0.52002 -0.64987,0.94154 -1.45158,0.94154 -0.74689,0 -1.36165,-0.36563 -1.4423,-0.83612 v -0.10542 c -1e-4,-0.52012 -0.64984,-0.94166 -1.45158,-0.94155 -0.80161,2e-5 -1.45148,0.42151 -1.45161,0.94155 5e-5,0.52002 -0.64984,0.94154 -1.45158,0.94154 -0.74687,0 -1.36166,-0.36563 -1.4423,-0.83612 v -0.10542 c -1.1e-4,-0.52012 -0.64982,-0.94166 -1.45159,-0.94155 -0.8016,2e-5 -1.45147,0.42151 -1.45158,0.94155 3e-5,0.52002 -0.64987,0.94154 -1.45158,0.94154 -0.74578,0 -1.35967,-0.36458 -1.4418,-0.83405 v -0.10749 c -1e-4,-0.52012 -0.65034,-0.94166 -1.45208,-0.94155 -0.80161,2e-5 -1.45148,0.42151 -1.45161,0.94155 2e-5,0.52002 -0.64985,0.94154 -1.45159,0.94154 -0.74575,0 -1.35966,-0.36458 -1.44176,-0.83405 v -0.10749 c -1.4e-4,-0.52012 -0.64985,-0.94166 -1.45159,-0.94155 -0.80163,2e-5 -1.45147,0.42151 -1.45161,0.94155 3e-5,0.52002 -0.64984,0.94154 -1.45158,0.94154 -0.74687,0 -1.36165,-0.36563 -1.4423,-0.83612 v -0.10542 c -10e-5,-0.52012 -0.64984,-0.94166 -1.45158,-0.94155 -0.80161,2e-5 -1.45148,0.42151 -1.45158,0.94155 2e-5,0.52002 -0.64987,0.94154 -1.45161,0.94154 -0.74576,0 -1.35964,-0.36458 -1.44177,-0.83405 v -0.10749 c -1.1e-4,-0.52012 -0.65035,-0.94166 -1.45211,-0.94155 -0.80161,2e-5 -1.45146,0.42151 -1.45159,0.94155 3e-5,0.52002 -0.64987,0.94154 -1.45158,0.94154 -0.74578,0 -1.35967,-0.36458 -1.44177,-0.83405 v -0.10749 c -1.3e-4,-0.52012 -0.64984,-0.94166 -1.45161,-0.94155 z"
       id="path5658"
       inkscape:connector-curvature="0"
       sodipodi:nodetypes="ccsccccsccccsccccsccccsccccsccccsccccsccccsccccsccccsccccscccccscccccccccccccccccccccccccccsccccccccccccccccccccccsccccsccccsccccsccccsccccsccccsccccsccccsccccsccccsccc" />
    <text
       xml:space="preserve"
       style="font-style:normal;font-weight:normal;font-size:12.69999981px;line-height:1.25;font-family:sans-serif;letter-spacing:0px;word-spacing:0px;fill:#000000;fill-opacity:1;stroke:none;stroke-width:0.26458332"
       x="-316.90344"
       y="352.30411"
       id="text35-2"><tspan
         sodipodi:role="line"
         x="-316.90344"
         y="352.30411"
         style="font-size:12.69999981px;stroke-width:0.26458332"
         id="tspan135">Path-ified Blade</tspan></text>
    <path
       style="fill:#000080;fill-opacity:1;stroke:none;stroke-width:0.26458332"
       sodipodi:nodetypes="ssssssssssssssssssssssssssssssssssssssss"
       inkscape:connector-curvature="0"
       id="path2-3"
       d="m -369.50908,365.3677 c -2.4559,1.41791 -12.99028,8.93227 -13.22349,8.93227 -0.34432,0 -1.30431,-1.96159 -1.75648,-3.08198 -0.48225,-1.19492 -1.31267,-1.6786 -2.67787,-1.59836 -2.28076,0.13407 -4.57198,0.0525 -6.85798,0.061 -1.28852,0.005 -1.65331,0.21468 -1.98954,1.45004 -0.94059,3.45583 -4.69424,5.72361 -6.91638,8.85786 -0.39357,0.55513 -0.83865,1.02954 -0.73793,1.75183 0.0845,0.60592 -0.28028,0.94236 -0.65629,1.33894 -3.05828,3.22556 -6.84716,5.47151 -10.50376,7.90029 -1.2756,0.84728 -3.51698,1.56777 -3.38687,3.43958 0.16446,2.36604 -3.19929,3.09594 -3.13779,5.64359 0.18893,7.82691 -0.36776,17.04367 1.66139,25.4186 0.5137,2.12019 1.85718,4.73877 4.47415,4.7594 4.21798,0.0332 8.43749,0.0799 12.65504,0 2.11261,-0.04 2.44189,1.43402 4.71496,1.43402 12.04905,0 24.0981,0 36.14715,0 0.98897,0 1.75034,-0.69604 2.09806,-2.09806 0.14706,-0.59295 0.13787,-1.23554 0.36277,-1.78852 0.22489,-0.55298 0.52162,-1.14137 1.01854,-1.56632 0.31764,-0.27163 1.0987,-0.008 1.38906,-0.3917 8.6256,-11.39345 9.18641,-31.92447 0,-42.87077 -0.59755,-0.71203 -0.84816,-0.9902 -1.45624,-1.5751 -0.74615,-0.71771 -0.6512,-0.90784 -1.42524,-2.09134 -0.77403,-1.18351 -2.95098,-11.08446 -4.29121,-12.746 -1.26726,-1.57108 -3.04816,-2.59716 -5.50405,-1.17925 z m 3.53507,5.99677 c 0.65619,2.5266 1.22754,4.86204 1.61776,7.01762 0.39022,2.15558 0.52482,3.04399 -1.89313,2.25703 -2.41795,-0.78697 -7.07546,-2.6272 -9.90943,-3.69073 -2.47515,-0.92889 -0.60515,-2.1318 0.50585,-2.91112 3.56887,-2.50343 4.29205,-3.03086 6.04114,-4.22805 1.74909,-1.1972 3.00248,-0.89105 3.63781,1.55525 z m -48.17478,37.10137 c 3.30677,4.48399 6.11577,8.03848 8.98912,13.64568 0.78813,1.53799 0.23314,3.14599 -1.48156,3.22926 -2.58943,0.12576 -4.31997,0.12473 -6.98769,0.15245 -1.36014,0.0141 -1.40941,-0.88354 -1.64435,-2.23036 -0.89507,-5.13116 -1.2454,-8.43965 -1.30741,-14.0472 -0.0213,-1.92842 1.55057,-1.94491 2.43189,-0.74983 z" />
    <text
       xml:space="preserve"
       style="font-style:normal;font-weight:normal;font-size:12.69999981px;line-height:1.25;font-family:sans-serif;letter-spacing:0px;word-spacing:0px;fill:#000000;fill-opacity:1;stroke:none;stroke-width:0.26458332"
       x="-446.3537"
       y="351.07318"
       id="text35-2-6"><tspan
         sodipodi:role="line"
         x="-446.3537"
         y="351.07318"
         style="font-size:12.69999981px;stroke-width:0.26458332"
         id="tspan135-3">Touched-up Handle</tspan></text>
    <path
       style="fill:#3e6240;fill-opacity:1;stroke:none;stroke-width:0.25776398px;stroke-linecap:butt;stroke-linejoin:miter;stroke-opacity:1"
       d="m -335.7552,473.97363 c -0.64057,0.0237 -1.34198,0.22817 -2.10946,0.67127 -2.45589,1.41791 -12.99027,8.93227 -13.22347,8.93227 -0.34433,0 -1.30432,-1.96159 -1.75649,-3.08198 -0.48226,-1.19492 -1.31268,-1.6786 -2.67788,-1.59835 -2.28076,0.13406 -4.57197,0.0523 -6.85797,0.061 -1.28852,0.005 -1.65331,0.21468 -1.98954,1.45004 -0.94057,3.45583 -4.69424,5.7236 -6.91639,8.85786 -0.39358,0.55512 -0.83864,1.02954 -0.73792,1.75183 0.0845,0.60592 -0.28029,0.94236 -0.6563,1.33893 -3.05829,3.22557 -6.84715,5.47152 -10.50375,7.9003 -1.27561,0.84728 -3.51699,1.56777 -3.38688,3.43958 0.16448,2.36604 -3.19929,3.09593 -3.1378,5.64358 0.18894,7.82691 -0.36775,17.04368 1.6614,25.41861 0.5137,2.12019 1.85719,4.73878 4.47416,4.7594 4.21799,0.0332 8.43748,0.0799 12.65505,0 2.11259,-0.04 2.44186,1.43402 4.71495,1.43402 12.04905,0 24.09809,0 36.14714,0 0.98898,0 1.75035,-0.69605 2.09806,-2.09807 0.0986,-0.3974 0.0117,-0.858 0.20672,-1.21543 0.16655,-0.3052 0.67909,-0.37207 1.14927,-0.37207 0.74581,0 1.44177,0.35795 1.44177,0.83458 0,0.0357 0,0.0713 0,0.10697 0,0.52012 0.65037,0.94161 1.45211,0.94154 0.80161,-6e-5 1.45155,-0.42151 1.4516,-0.94154 4e-5,-0.52002 0.64986,-0.94155 1.45161,-0.94155 0.74577,0 1.44177,0.35795 1.44177,0.83458 0,0.0357 0,0.0713 0,0.10697 0,0.52012 0.64983,0.94161 1.45157,0.94154 0.80161,-6e-5 1.45155,-0.42151 1.45158,-0.94154 4e-5,-0.52002 0.64987,-0.94155 1.45161,-0.94155 0.74689,0 1.44227,0.35928 1.44227,0.83664 0,0.035 0,0.0699 0,0.10491 0,0.52012 0.64982,0.94161 1.45161,0.94154 0.80161,-6e-5 1.45154,-0.42151 1.45159,-0.94154 5e-5,-0.52002 0.64987,-0.94155 1.45158,-0.94155 0.74692,0 1.4423,0.35927 1.4423,0.83664 0,0.035 0,0.0699 0,0.10491 0,0.52012 0.64984,0.94161 1.45158,0.94154 0.80162,-6e-5 1.45156,-0.42151 1.45158,-0.94154 3e-5,-0.52002 0.64988,-0.94155 1.45162,-0.94155 0.74577,0 1.44176,0.35795 1.44176,0.83458 0,0.0357 0,0.0713 0,0.10697 0,0.52012 0.65035,0.94161 1.45211,0.94154 0.80161,-6e-5 1.45153,-0.42151 1.45159,-0.94154 6e-5,-0.52002 0.64987,-0.94155 1.45159,-0.94155 0.74691,0 1.44176,0.35928 1.44176,0.83664 0,0.035 0,0.0699 0,0.10491 0,0.52012 0.64984,0.94161 1.45162,0.94154 0.80157,-6e-5 1.45153,-0.42151 1.45157,-0.94154 4e-5,-0.52002 0.64987,-0.94155 1.45158,-0.94155 0.74692,0 1.4423,0.35928 1.4423,0.83664 0,0.035 0,0.0699 0,0.10491 0,0.52012 0.64986,0.94162 1.4516,0.94154 0.29405,-3e-5 0.56309,-0.0686 0.79633,-0.15451 0.52882,-0.19479 0.80976,-0.51426 0.77308,-0.83716 -0.057,-0.50175 0.6051,-1.00598 1.32911,-1.25264 0.68448,-0.23317 1.45291,-0.24489 1.76734,0.12351 0.0224,0.0263 0.0369,0.0634 0.0553,0.0946 0.26445,0.44903 1.18212,0.4631 1.98438,-0.18862 0.79813,-0.64837 0.94542,-1.52241 0.55397,-1.86552 -0.23369,-0.20484 -0.27682,-0.57075 -0.19379,-0.95291 0.0577,-0.26574 0.18595,-0.54828 0.38086,-0.81132 0.43374,-0.58537 1.08342,-0.91341 1.52549,-0.72657 0.0309,0.013 0.0602,0.0377 0.0899,0.0563 0.44308,0.27768 1.17534,-0.0669 1.60042,-0.82011 0.42457,-0.75228 0.33427,-1.54286 -0.13797,-1.76682 -0.47185,-0.22377 -0.56626,-0.99003 -0.26304,-1.70687 0.28239,-0.66757 0.84029,-1.12988 1.31568,-1.04541 0.0337,0.006 0.0685,0.0238 0.10232,0.0357 0.49594,0.17338 1.13478,-0.31724 1.38752,-1.1343 0.25245,-0.81613 -3e-5,-1.5716 -0.51522,-1.69757 -0.51326,-0.12549 -0.76803,-0.86173 -0.6103,-1.63245 0.14666,-0.71663 0.6165,-1.35429 1.09813,-1.28003 0.0369,0.006 0.0737,0.0114 0.11058,0.0171 0.52572,0.0811 1.16272,-0.51244 1.16272,-1.3627 0,-1.8e-4 0,-2.6e-4 0,-5.3e-4 0,-0.8495 -0.28566,-1.54544 -0.817,-1.5844 -0.53151,-0.039 -0.91105,-0.72385 -0.88212,-1.51257 0.0269,-0.73405 0.39862,-1.35516 0.8785,-1.43247 0.0342,-0.006 0.0733,2e-5 0.10956,0 0.53218,-2.3e-4 0.96248,-0.66879 0.92656,-1.50482 -0.005,-0.12025 -0.0212,-0.2365 -0.0429,-0.34778 -0.13198,-0.67818 -0.55442,-1.13702 -1.00509,-1.09864 -0.5265,0.0448 -1.00858,-0.572 -1.12088,-1.34669 -0.10453,-0.72121 0.13612,-1.40384 0.59067,-1.57148 0.0321,-0.0118 0.0709,-0.0138 0.10594,-0.0207 0.5191,-0.10172 0.81144,-0.85108 0.59221,-1.68827 -0.21923,-0.83716 -0.84298,-1.3547 -1.34721,-1.19734 -0.50442,0.15742 -1.11285,-0.34102 -1.39578,-1.07177 -0.26289,-0.67904 -0.18354,-1.39665 0.21963,-1.65933 0.029,-0.0189 0.0672,-0.0294 0.10025,-0.0439 0.48235,-0.21221 0.5969,-1.00679 0.19017,-1.77561 -0.40687,-0.76906 -1.13499,-1.13408 -1.58802,-0.86816 -0.45314,0.26597 -1.15905,-0.0826 -1.60609,-0.72657 -0.41559,-0.59864 -0.51242,-1.31465 -0.18397,-1.66398 0.0233,-0.0248 0.057,-0.044 0.0853,-0.0656 0.27944,-0.21381 0.34284,-0.64313 0.16278,-1.10381 -0.0977,-0.24991 -0.27107,-0.49972 -0.49402,-0.72606 -0.69328,-0.70385 -1.54735,-0.80253 -1.87223,-0.3979 -0.32496,0.40468 -1.13002,0.32012 -1.79576,-0.0915 -0.0762,-0.0471 -0.14847,-0.0963 -0.21601,-0.14883 -0.49351,-0.38362 -0.80373,-0.95701 -0.6599,-1.36064 0.008,-0.0217 0.0218,-0.0428 0.0326,-0.0641 0.22663,-0.44877 -0.23039,-1.23594 -1.4888,-1.46089 -0.3406,-0.0609 -0.68932,-0.0971 -0.99477,-0.0222 -0.49463,0.1213 -0.82163,0.47497 -0.82166,0.84853 -3e-5,0.52002 -0.64985,0.94154 -1.45158,0.94154 -0.7469,0 -1.44177,-0.35877 -1.44177,-0.83613 0,-0.0351 0,-0.0703 0,-0.10541 0,-0.52012 -0.65035,-0.94162 -1.45211,-0.94155 -0.80162,6e-5 -1.45104,0.4215 -1.45109,0.94155 -5e-5,0.52002 -0.64986,0.94154 -1.45158,0.94154 -0.7469,0 -1.4423,-0.35877 -1.4423,-0.83613 0,-0.0351 0,-0.0703 0,-0.10541 0,-0.52012 -0.64984,-0.94162 -1.45158,-0.94155 -0.8016,6e-5 -1.45155,0.4215 -1.45159,0.94155 -3e-5,0.52002 -0.64986,0.94154 -1.45161,0.94154 -0.74573,0 -1.44175,-0.35746 -1.44175,-0.83406 0,-0.0358 0,-0.0717 0,-0.10748 0,-0.52012 -0.65033,-0.94162 -1.45213,-0.94155 -0.80161,6e-5 -1.45153,0.4215 -1.45158,0.94155 -5e-5,0.52002 -0.64987,0.94154 -1.45157,0.94154 -0.7458,0 -1.44177,-0.35746 -1.44177,-0.83406 0,-0.0358 0,-0.0717 0,-0.10748 0,-0.52012 -0.64986,-0.94162 -1.45161,-0.94155 -0.80162,6e-5 -1.45156,0.4215 -1.4516,0.94155 -4e-5,0.52002 -0.64987,0.94154 -1.45157,0.94154 -0.7469,0 -1.44231,-0.35877 -1.44231,-0.83613 0,-0.0351 0,-0.0703 0,-0.10541 0,-0.52012 -0.64984,-0.94162 -1.45157,-0.94155 -0.80162,6e-5 -1.45155,0.4215 -1.45159,0.94155 -4e-5,0.52002 -0.64987,0.94154 -1.45161,0.94154 -0.74687,0 -1.44227,-0.35878 -1.44227,-0.83613 0,-0.0351 0,-0.0703 0,-0.10541 0,-0.52012 -0.64985,-0.94162 -1.45161,-0.94155 -0.65561,6e-5 -1.00558,0.85613 -1.38957,0.66921 -0.76299,-0.3714 -0.97689,-1.38156 -1.51619,-2.02417 -0.59757,-0.71203 -0.84815,-0.99019 -1.45624,-1.57509 -0.74616,-0.71771 -0.6512,-0.90785 -1.42523,-2.09135 -0.77407,-1.1835 -2.951,-11.08444 -4.29125,-12.74598 -0.87125,-1.08011 -1.98541,-1.90269 -3.3946,-1.85053 z m -0.45994,4.43383 c 0.85006,0.0124 1.48857,0.70556 1.88566,2.23449 0.65619,2.5266 1.22779,4.86208 1.61802,7.01766 0.39021,2.15558 0.52451,3.04368 -1.89344,2.25671 -2.41796,-0.78696 -7.07553,-2.62719 -9.90948,-3.69073 -2.47515,-0.92888 -0.60509,-2.1316 0.50591,-2.91093 3.56887,-2.50342 4.29189,-3.03097 6.04097,-4.22817 0.6559,-0.44894 1.24234,-0.68647 1.75236,-0.67903 z m -47.65135,38.52168 c 0.45868,5.3e-4 0.9766,0.29106 1.36218,0.81391 3.30676,4.48399 6.11576,8.03848 8.98911,13.64568 0.78814,1.53799 0.23315,3.14598 -1.48156,3.22926 -2.58942,0.12575 -4.31995,0.12474 -6.9877,0.15244 -1.36011,0.0141 -1.40939,-0.88353 -1.64433,-2.23035 -0.89507,-5.13116 -1.2454,-8.43966 -1.30741,-14.04721 -0.012,-1.08473 0.47995,-1.56423 1.06971,-1.56373 z"
       id="path5658-9"
       inkscape:connector-curvature="0"
       sodipodi:nodetypes="ssssssssssssssssssssssssssssssssssssssssssssssssssssssssssssssssssssssssssssssssssssssssssssssssssssssssssssssssssssssssssssssssssssssssssssssssssssssssssssss"
       inkscape:export-xdpi="225.56"
       inkscape:export-ydpi="225.56" />
    <text
       xml:space="preserve"
       style="font-style:normal;font-weight:normal;font-size:12.69999981px;line-height:1.25;font-family:sans-serif;letter-spacing:0px;word-spacing:0px;fill:#000000;fill-opacity:1;stroke:none;stroke-width:0.26458332"
       x="-389.22186"
       y="457.64651"
       id="text35-6"><tspan
         sodipodi:role="line"
         id="tspan33-4"
         x="-389.22186"
         y="457.64651"
         style="font-size:12.69999981px;stroke-width:0.26458332">Adam's Combined</tspan><tspan
         sodipodi:role="line"
         x="-389.22186"
         y="473.52151"
         style="font-size:12.69999981px;stroke-width:0.26458332"
         id="tspan261" /></text>
    <flowRoot
       xml:space="preserve"
       id="flowRoot263"
       style="font-style:normal;font-weight:normal;font-size:16px;line-height:1.25;font-family:sans-serif;letter-spacing:0px;word-spacing:0px;fill:#000000;fill-opacity:1;stroke:none"
       transform="matrix(0.26458333,0,0,0.26458333,-504.03246,181.97168)"><flowRegion
         id="flowRegion265"><rect
           id="rect267"
           width="59.396969"
           height="131.52187"
           x="691.55042"
           y="1322.8348" /></flowRegion><flowPara
         id="flowPara269" /></flowRoot>    <path
       style="fill:none;stroke:#00ff00;stroke-width:0.29354244px;stroke-linecap:butt;stroke-linejoin:miter;stroke-opacity:0.10552764"
       d="m -602.46963,507.8373 h 155.0965"
       id="path871-0"
       inkscape:connector-curvature="0" />
    <path
       style="fill:#3e6240;fill-opacity:1;stroke:none;stroke-width:0.1;stroke-linecap:butt;stroke-linejoin:miter;stroke-miterlimit:4;stroke-dasharray:none;stroke-opacity:1"
       d="m -335.73988,572.0726 c -1.0123,0 -1.08966,0.0958 -1.57244,0.65101 -0.48278,0.55526 -8.60598,8.51951 -8.80466,9.25298 -0.27146,1.00209 -0.62862,1.32004 -1.59181,1.32004 -0.96319,0 -1.47864,-0.21085 -1.58679,-1.37531 -0.10814,-1.16448 -2.09431,-0.66654 -2.62887,-1.99628 -0.53456,-1.32972 -3.67672,-10.33344 -10.63671,-7.35333 -6.95999,2.98011 -19.7347,8.61618 -24.39211,10.71595 -4.65741,2.09977 -2.53213,6.48901 -0.83541,10.02421 0.84836,1.7676 1.26244,1.05976 1.26244,2.00202 0,0.94227 0.92147,1.08869 0.92147,1.53964 0,0.45098 -0.0181,0.53102 -0.0181,1.09368 0,0.56267 -1.93857,0.6554 -1.93857,1.65913 0,1.00372 -2.09642,2.04073 -2.09642,3.33324 0,1.29252 0.004,3.62016 0,4.83312 h 8.40047 l -5.3e-4,2.5001 h -8.04447 l -0.35501,0.35502 v 6.49004 l 0.35501,0.35502 h 7.09466 l 0.22273,0.0212 0.19275,0.0599 0.1633,0.0935 0.13384,0.12195 0.10387,0.14367 0.0739,0.1602 0.0445,0.17156 0.015,0.17724 -0.015,0.17725 -0.0445,0.17158 -0.0739,0.16071 -0.10387,0.14367 -0.13384,0.12194 -0.1633,0.0935 -0.19275,0.0605 -0.22273,0.0212 h -7.09517 l -0.3545,0.35501 v 10.49034 l 0.3545,0.35502 c 4.14529,-0.005 9.67005,7.5e-4 12.62219,1.9e-4 2.52467,0 1.64532,1.41586 3.91842,1.41586 h 42.66972 c 0.98899,0 0.98021,-1.41586 3.04033,-1.41586 2.06012,0 2.1031,-0.0236 3.30761,0 0.80161,-8e-5 1.45154,-0.80817 1.45159,-1.32819 4e-5,-0.52003 0.64984,-0.94154 1.45159,-0.94154 0.74577,0 1.44177,0.35793 1.44177,0.83457 v 0.10697 c 0,0.52012 0.64985,0.9416 1.45159,0.94155 0.80161,-8e-5 1.45158,-0.42153 1.45159,-0.94155 4e-5,-0.52003 0.64986,-0.94154 1.4516,-0.94154 0.74689,0 1.44228,0.35928 1.44228,0.83664 v 0.1049 c 0,0.52012 0.64981,0.9416 1.4516,0.94155 0.80161,-8e-5 1.45154,-0.42153 1.45159,-0.94155 5e-5,-0.52003 0.64988,-0.94154 1.45159,-0.94154 0.74692,0 1.44229,0.35928 1.44229,0.83664 v 0.1049 c 0,0.52012 0.64985,0.9416 1.45159,0.94155 0.80162,-8e-5 1.45157,-0.42153 1.45159,-0.94155 3e-5,-0.52003 0.64985,-0.94154 1.45159,-0.94154 0.74577,0 1.44177,0.35793 1.44177,0.83457 v 0.10697 c 0,0.52012 0.65035,0.9416 1.45211,0.94155 0.80161,-8e-5 1.45153,-0.42153 1.45159,-0.94155 7e-5,-0.52003 0.64987,-0.94154 1.45159,-0.94154 0.74691,0 1.44178,0.35928 1.44178,0.83664 v 0.1049 c 0,0.52012 0.6498,0.9416 1.45158,0.94155 0.80158,-8e-5 1.45156,-0.42153 1.4516,-0.94155 4e-5,-0.52003 0.64988,-0.94154 1.45159,-0.94154 0.74692,0 1.44229,0.35928 1.44229,0.83664 v 0.1049 c 0,0.52012 0.64985,0.94163 1.45159,0.94155 0.29405,-5e-5 0.56309,-0.0686 0.79633,-0.15452 0.52882,-0.19478 0.80976,-0.51427 0.77308,-0.83716 -0.057,-0.50176 0.60511,-1.00598 1.32912,-1.25265 0.68448,-0.23315 1.4529,-0.24487 1.76733,0.12351 0.0224,0.0262 0.0369,0.0634 0.0553,0.0946 0.26445,0.44902 1.18211,0.4631 1.98437,-0.18862 0.79813,-0.64839 0.94542,-1.52241 0.55397,-1.86553 -0.23369,-0.20484 -0.27681,-0.57076 -0.19378,-0.95292 0.0577,-0.26572 0.18594,-0.54827 0.38085,-0.81132 0.43374,-0.58536 1.08342,-0.91339 1.52549,-0.72657 0.0309,0.013 0.0602,0.0377 0.0899,0.0563 0.44308,0.27768 1.17534,-0.0669 1.60042,-0.8201 0.42457,-0.75229 0.33426,-1.54287 -0.13798,-1.76681 -0.47185,-0.22379 -0.56625,-0.99005 -0.26303,-1.70688 0.28239,-0.66757 0.84029,-1.12988 1.31568,-1.04542 0.0337,0.006 0.0685,0.0238 0.10232,0.0357 0.49594,0.17338 1.13477,-0.31723 1.38751,-1.13429 0.25245,-0.81614 -2e-5,-1.5716 -0.51521,-1.69757 -0.51326,-0.12549 -0.76803,-0.86175 -0.6103,-1.63248 0.14666,-0.71662 0.61649,-1.35427 1.09812,-1.28 0.0369,0.006 0.0737,0.0114 0.11059,0.0169 0.52572,0.0811 1.16272,-0.51244 1.16272,-1.36271 v 0 c 0,-0.84949 -0.28567,-1.54545 -0.81701,-1.5844 -0.53151,-0.039 -0.91104,-0.72385 -0.88211,-1.51257 0.0269,-0.73406 0.39862,-1.35517 0.8785,-1.43248 0.0342,-0.006 0.0733,3e-5 0.10955,0 0.53218,-2.1e-4 0.96248,-0.66879 0.92656,-1.50482 -0.005,-0.12025 -0.0212,-0.23648 -0.0429,-0.34777 -0.13198,-0.67818 -0.55444,-1.13702 -1.00511,-1.09865 -0.5265,0.0448 -1.00856,-0.57201 -1.12086,-1.34668 -0.10453,-0.7212 0.13611,-1.40385 0.59066,-1.57149 0.0321,-0.0119 0.0709,-0.0138 0.10594,-0.0206 0.5191,-0.1017 0.81144,-0.85108 0.59221,-1.68828 -0.21923,-0.83714 -0.84298,-1.35469 -1.34721,-1.19732 -0.50441,0.1574 -1.11285,-0.34102 -1.39578,-1.07177 -0.26289,-0.67906 -0.18354,-1.39666 0.21963,-1.65934 0.029,-0.0188 0.0672,-0.0294 0.10025,-0.0439 0.48235,-0.21222 0.5969,-1.00679 0.19017,-1.77562 -0.40687,-0.76903 -1.13499,-1.13408 -1.58802,-0.86815 -0.45314,0.26596 -1.15906,-0.0826 -1.6061,-0.72657 -0.41559,-0.59865 -0.51242,-1.31466 -0.18397,-1.66399 0.0233,-0.0249 0.057,-0.044 0.0853,-0.0656 0.27944,-0.21381 0.34284,-0.64312 0.16278,-1.10381 -0.0977,-0.2499 -0.27057,-0.49972 -0.49351,-0.72605 -0.69328,-0.70387 -1.54736,-0.80253 -1.87224,-0.3979 -0.32495,0.40468 -1.13053,0.32014 -1.79627,-0.0915 -0.0762,-0.0471 -0.14847,-0.0963 -0.21601,-0.14883 -0.49351,-0.38362 -0.80322,-0.95702 -0.65939,-1.36064 0.008,-0.0217 0.0218,-0.0428 0.0326,-0.0641 0.22663,-0.44876 -0.23039,-1.23595 -1.4888,-1.4609 -0.34059,-0.0609 -0.68932,-0.0971 -0.99477,-0.0222 -0.49463,0.12131 -0.82164,0.47498 -0.82166,0.84855 -4e-5,0.52001 -0.64986,0.94152 -1.45159,0.94152 -0.7469,0 -1.44177,-0.35875 -1.44177,-0.83611 v -0.10541 c 0,-0.52015 -0.65035,-0.94163 -1.45211,-0.94155 -0.80162,6e-5 -1.45103,0.42148 -1.45107,0.94155 -5e-5,0.52001 -0.64987,0.94152 -1.45159,0.94152 -0.7469,0 -1.44229,-0.35875 -1.44229,-0.83611 v -0.10541 c 0,-0.52015 -0.64985,-0.94163 -1.45159,-0.94155 -0.8016,6e-5 -1.45154,0.42148 -1.4516,0.94155 -2e-5,0.52001 -0.64984,0.94152 -1.45159,0.94152 -0.74572,0 -1.44177,-0.35745 -1.44177,-0.83405 v -0.10747 c 0,-0.52015 -0.65032,-0.94163 -1.45211,-0.94155 -0.80162,6e-5 -1.45154,0.42148 -1.45159,0.94155 -5e-5,0.52001 -0.64989,0.94152 -1.45159,0.94152 -0.7458,0 -1.44177,-0.35745 -1.44177,-0.83405 v -0.10747 c 0,-0.52015 -0.64984,-0.94163 -1.45159,-0.94155 -0.80161,6e-5 -1.45155,0.42148 -1.45159,0.94155 -4e-5,0.52001 -0.64989,0.94152 -1.45159,0.94152 -0.7469,0 -1.44229,-0.35875 -1.44229,-0.83611 v -0.10541 c 0,-0.52015 -0.64986,-0.94163 -1.45159,-0.94155 -0.80162,6e-5 -1.45156,0.42148 -1.45159,0.94155 -5e-5,0.52001 -0.64986,0.94152 -1.45159,0.94152 -0.74689,0 -1.44229,-0.35875 -1.44229,-0.83611 v -0.10541 c 0,-0.52015 -0.64984,-0.94163 -1.45159,-0.94155 -0.65562,6e-5 -0.81227,0.66921 -1.38959,0.66921 -0.57731,0 -0.33741,-1.65158 -0.75921,-2.35611 -0.42179,-0.70451 -7.47612,-9.66687 -7.84527,-10.21837 -0.36914,-0.5515 -0.58272,-0.65101 -1.29117,-0.65101 -0.71227,-4e-5 -1.42456,-2e-5 -2.13684,-2e-5 z m 1.44928,4.32615 c 1.16748,0 5.38534,6.34355 5.11666,6.91499 -0.26869,0.57145 -0.64121,1.33287 -1.19054,1.33287 -0.54933,0 -9.88656,0.0874 -10.42638,0.0874 -0.53982,0 -0.8206,-0.77849 -1.10479,-1.42029 -0.28419,-0.6418 5.17897,-6.91499 6.23705,-6.91499 z m -24.402,3.90676 c -2.68146,1.65386 -20.15981,8.99988 -23.25819,10.38932 -3.09838,1.38943 -5.28666,-3.11518 -2.21119,-4.53388 0.76887,-0.35467 15.89083,-6.99733 17.97065,-7.94395 0.67115,1.30503 2.43456,2.46663 4.2848,1.71603 l 0.80092,-4.13787 c 2.99126,-1.13475 5.09448,2.85649 2.41301,4.51035 z m -26.989,21.03768 c 1.3808,-5e-5 2.50016,1.11932 2.50011,2.5001 7e-5,1.38081 -1.1193,2.50018 -2.50011,2.50013 -1.3808,5e-5 -2.50017,-1.11932 -2.5001,-2.50013 -6e-5,-1.38078 1.11931,-2.50015 2.5001,-2.5001 z"
       id="path5658-9-7-6"
       inkscape:connector-curvature="0"
       sodipodi:nodetypes="czszzzzzszzzzzcccccccccccccccccccccccccccccsszccsssccssscssssccsssccssscssssccccccccccccccccccccccssccccccccccccccccccccccccccccccsssccsssccsssccssscssssccsssczzzcczssszzzcsccczcccccc" />
    <path
       style="fill:#3e6240;fill-opacity:1;stroke:none;stroke-width:0.1;stroke-linecap:butt;stroke-linejoin:miter;stroke-miterlimit:4;stroke-dasharray:none;stroke-opacity:1"
       d="m -342.52466,635.76984 c -1.01229,0 -1.08966,0.0958 -1.57243,0.65101 -0.48278,0.55526 -8.60598,8.51951 -8.80466,9.25298 -0.27146,1.00209 -0.93924,1.26879 -1.90243,1.26879 -0.96319,0 -0.76005,-1.81553 -1.23061,-2.23705 -0.47055,-0.42153 -2.13987,0.24644 -2.67443,-1.08329 -0.53456,-1.32972 -4.20587,-11.25194 -10.63671,-7.35333 l -17.67618,10.71595 c -4.34546,2.63438 -2.7932,6.56675 -0.50527,10.62209 0.57198,1.01383 -1.429,1.16852 -1.429,2.11343 v 1.36857 c 0,0.72773 0.94498,1.15042 0.94498,1.8755 0,1.45015 -1.59774,2.10846 -1.71515,3.67233 0,1.29252 0.004,3.62016 0,4.83312 h 8.40046 l -5.3e-4,2.5001 h -8.04446 l -0.35501,0.35502 v 6.49004 l 0.35501,0.35502 h 7.09465 l 0.22273,0.0212 0.19276,0.0599 0.16329,0.0935 0.13385,0.12195 0.10387,0.14367 0.0739,0.1602 0.0445,0.17156 0.015,0.17724 -0.015,0.17725 -0.0445,0.17158 -0.0739,0.16071 -0.10387,0.14367 -0.13385,0.12194 -0.16329,0.0935 -0.19276,0.0605 -0.22273,0.0212 h -7.09517 l -0.35449,0.35501 v 10.49034 l 0.35449,0.35502 12.62219,2e-4 c 2.52468,0 1.64533,1.41586 3.91842,1.41586 h 35.95379 c 0.98899,0 0.98021,-1.41586 3.04033,-1.41586 2.06012,0 2.1031,-0.0236 3.30761,0 0.80161,-7e-5 1.45154,-0.80816 1.45159,-1.32819 3e-5,-0.52003 0.64984,-0.94154 1.45159,-0.94154 0.74577,0 1.44177,0.35794 1.44177,0.83457 v 0.10697 c 0,0.52012 0.64985,0.9416 1.45159,0.94155 0.80161,-7e-5 1.45158,-0.42152 1.45159,-0.94155 3e-5,-0.52003 0.64986,-0.94154 1.4516,-0.94154 0.74689,0 1.44228,0.35928 1.44228,0.83664 v 0.1049 c 0,0.52012 0.64981,0.9416 1.4516,0.94155 0.80161,-7e-5 1.45154,-0.42152 1.45159,-0.94155 5e-5,-0.52003 0.64988,-0.94154 1.45159,-0.94154 0.74692,0 1.44229,0.35928 1.44229,0.83664 v 0.1049 c 0,0.52012 0.64985,0.9416 1.45159,0.94155 0.80162,-7e-5 1.45157,-0.42152 1.45159,-0.94155 2e-5,-0.52003 0.64985,-0.94154 1.45159,-0.94154 0.74577,0 1.44177,0.35794 1.44177,0.83457 v 0.10697 c 0,0.52012 0.65035,0.9416 1.45211,0.94155 0.80161,-7e-5 1.45153,-0.42152 1.45159,-0.94155 7e-5,-0.52003 0.64987,-0.94154 1.45159,-0.94154 0.74691,0 1.44178,0.35928 1.44178,0.83664 v 0.1049 c 0,0.52012 0.6498,0.9416 1.45158,0.94155 0.80158,-7e-5 1.45156,-0.42152 1.4516,-0.94155 5e-5,-0.52003 0.64988,-0.94154 1.45159,-0.94154 0.74692,0 1.44229,0.35928 1.44229,0.83664 v 0.1049 c 0,0.52012 0.64985,0.94163 1.45159,0.94155 0.29405,-5e-5 0.56309,-0.0686 0.79633,-0.15452 0.52882,-0.19478 0.80976,-0.51427 0.77308,-0.83716 -0.057,-0.50176 0.60511,-1.00598 1.32912,-1.25265 0.68448,-0.23314 1.4529,-0.24487 1.76733,0.12351 0.0224,0.0262 0.0369,0.0634 0.0553,0.0946 0.26445,0.44901 1.18211,0.46309 1.98437,-0.18863 0.79813,-0.64839 0.94542,-1.52241 0.55397,-1.86553 -0.23369,-0.20484 -0.27681,-0.57075 -0.19378,-0.95292 0.0577,-0.26571 0.18594,-0.54827 0.38085,-0.81131 0.43374,-0.58537 1.08342,-0.9134 1.52549,-0.72658 0.0309,0.013 0.0602,0.0377 0.0899,0.0563 0.44308,0.27768 1.17534,-0.0669 1.60042,-0.8201 0.42457,-0.75229 0.33426,-1.54287 -0.13798,-1.76681 -0.47185,-0.22379 -0.56625,-0.99005 -0.26303,-1.70688 0.28239,-0.66757 0.84029,-1.12988 1.31568,-1.04542 0.0337,0.006 0.0685,0.0238 0.10232,0.0357 0.49594,0.17338 1.13477,-0.31723 1.38751,-1.13429 0.25245,-0.81614 0,-1.5716 -0.51521,-1.69757 -0.51326,-0.12549 -0.76803,-0.86175 -0.6103,-1.63248 0.14666,-0.71662 0.61649,-1.35427 1.09812,-1.28 0.0369,0.006 0.0737,0.0114 0.11059,0.0169 0.52572,0.0811 1.16272,-0.51244 1.16272,-1.36271 v 0 c 0,-0.84949 -0.28567,-1.54545 -0.81701,-1.5844 -0.53151,-0.039 -0.91104,-0.72385 -0.88211,-1.51257 0.0269,-0.73406 0.39862,-1.35517 0.8785,-1.43248 0.0342,-0.006 0.0733,3e-5 0.10955,0 0.53218,-2e-4 0.96248,-0.66879 0.92656,-1.50482 -0.005,-0.12025 -0.0212,-0.23648 -0.0429,-0.34777 -0.13198,-0.67818 -0.55444,-1.13702 -1.00511,-1.09865 -0.5265,0.0448 -1.00856,-0.57201 -1.12086,-1.34668 -0.10453,-0.7212 0.13611,-1.40385 0.59066,-1.57149 0.0321,-0.0119 0.0709,-0.0138 0.10594,-0.0206 0.5191,-0.1017 0.81144,-0.85108 0.59221,-1.68828 -0.21923,-0.83714 -0.84298,-1.35469 -1.34721,-1.19732 -0.50441,0.1574 -1.11285,-0.34102 -1.39578,-1.07177 -0.26289,-0.67906 -0.18354,-1.39666 0.21963,-1.65934 0.029,-0.0188 0.0672,-0.0294 0.10025,-0.0439 0.48235,-0.21222 0.5969,-1.00679 0.19017,-1.77562 -0.40687,-0.76903 -1.13499,-1.13408 -1.58802,-0.86815 -0.45314,0.26596 -1.15906,-0.0826 -1.6061,-0.72657 -0.41559,-0.59865 -0.51242,-1.31466 -0.18397,-1.66399 0.0233,-0.0249 0.057,-0.044 0.0853,-0.0656 0.27944,-0.21381 0.34284,-0.64312 0.16278,-1.10381 -0.0977,-0.24991 -0.27057,-0.49972 -0.49351,-0.72605 -0.69328,-0.70387 -1.54736,-0.80253 -1.87224,-0.3979 -0.32495,0.40468 -1.13053,0.32014 -1.79627,-0.0915 -0.0762,-0.0471 -0.14847,-0.0963 -0.21601,-0.14883 -0.49351,-0.38362 -0.80322,-0.95702 -0.65939,-1.36064 0.008,-0.0217 0.0218,-0.0428 0.0326,-0.0641 0.22663,-0.44876 -0.23039,-1.23596 -1.4888,-1.46091 -0.34059,-0.0609 -0.68932,-0.0971 -0.99477,-0.0222 -0.49463,0.12131 -0.82164,0.47498 -0.82166,0.84855 -5e-5,0.52001 -0.64986,0.94152 -1.45159,0.94152 -0.7469,0 -1.44177,-0.35875 -1.44177,-0.83611 v -0.10541 c 0,-0.52015 -0.65035,-0.94163 -1.45211,-0.94155 -0.80162,5e-5 -1.45103,0.42148 -1.45107,0.94155 -5e-5,0.52001 -0.64987,0.94152 -1.45159,0.94152 -0.7469,0 -1.44229,-0.35875 -1.44229,-0.83611 v -0.10541 c 0,-0.52015 -0.64985,-0.94163 -1.45159,-0.94155 -0.8016,5e-5 -1.45154,0.42148 -1.4516,0.94155 0,0.52001 -0.64984,0.94152 -1.45159,0.94152 -0.74572,0 -1.44177,-0.35745 -1.44177,-0.83405 v -0.10747 c 0,-0.52015 -0.65032,-0.94163 -1.45211,-0.94155 -0.80162,5e-5 -1.45154,0.42148 -1.45159,0.94155 -5e-5,0.52001 -0.64989,0.94152 -1.45159,0.94152 -0.7458,0 -1.44177,-0.35745 -1.44177,-0.83405 v -0.10747 c 0,-0.52015 -0.64984,-0.94163 -1.45159,-0.94155 -0.80161,5e-5 -1.45155,0.42148 -1.45159,0.94155 -5e-5,0.52001 -0.64989,0.94152 -1.45159,0.94152 -0.7469,0 -1.44229,-0.35875 -1.44229,-0.83611 v -0.10541 c 0,-0.52015 -0.64986,-0.94163 -1.45159,-0.94155 -0.80162,5e-5 -1.45156,0.42148 -1.45159,0.94155 -5e-5,0.52001 -0.64986,0.94152 -1.45159,0.94152 -0.74689,0 -1.44229,-0.35875 -1.44229,-0.83611 v -0.10541 c 0,-0.52015 -0.64984,-0.94163 -1.45159,-0.94155 -0.65562,5e-5 -0.81227,0.66921 -1.38959,0.66921 -0.57731,0 -0.33741,-1.65158 -0.75921,-2.35611 -0.42179,-0.70451 -7.47612,-9.66687 -7.84527,-10.21837 -0.36914,-0.5515 -0.58272,-0.65101 -1.29117,-0.65101 -0.71227,-5e-5 -1.42456,0 -2.13685,0 z m 1.44929,4.32615 c 1.16748,0 5.38534,6.34355 5.11666,6.91499 -0.26869,0.57145 -0.64123,1.32827 -1.19054,1.33287 l -10.42638,0.0874 c -0.5398,0.005 -0.8206,-0.77849 -1.10479,-1.42029 -0.28419,-0.6418 5.17897,-6.91499 6.23704,-6.91499 z m -24.14574,3.80426 -16.05536,10.10743 c -2.82203,1.77657 -5.48717,-2.50452 -2.72372,-4.30325 l 11.06397,-7.20154 c 0.65303,1.29597 2.79333,2.31287 4.64357,1.56227 l 0.2884,-4.3685 c 2.68375,-1.5704 5.63437,2.40864 2.78314,4.20359 z m -20.52933,21.38974 c 1.3808,-5e-5 2.25011,0.87022 2.25006,2.251 8e-5,1.38081 -0.86925,2.25005 -2.25006,2.25 -1.3808,5e-5 -2.25001,-0.86919 -2.24994,-2.25 -5e-5,-1.38078 0.86915,-2.25105 2.24994,-2.251 z"
       id="path5658-9-7-6-2"
       inkscape:connector-curvature="0"
       sodipodi:nodetypes="zzszzzssssssccccccccccccccccccccccccccccccsszccsssccssscssssccsssccssscssssccccccccccccccccccccccssccccccccccccccccccccccccccccccsssccsssccsssccssscssssccsssczzzcczcssszzcsssczcsccccc" />
  </g>
</svg>
