<?xml version="1.0" encoding="UTF-8" standalone="no"?>
<!-- Created with Inkscape (http://www.inkscape.org/) -->

<svg
   xmlns:dc="http://purl.org/dc/elements/1.1/"
   xmlns:cc="http://creativecommons.org/ns#"
   xmlns:rdf="http://www.w3.org/1999/02/22-rdf-syntax-ns#"
   xmlns:svg="http://www.w3.org/2000/svg"
   xmlns="http://www.w3.org/2000/svg"
   xmlns:sodipodi="http://sodipodi.sourceforge.net/DTD/sodipodi-0.dtd"
   xmlns:inkscape="http://www.inkscape.org/namespaces/inkscape"
   width="46.758389mm"
   height="49.729389mm"
   viewBox="0 0 46.758389 49.729389"
   version="1.1"
   id="svg10099"
   inkscape:version="0.92.4 (5da689c313, 2019-01-14)"
   sodipodi:docname="edge-plate.svg">
  <defs
     id="defs10093" />
  <sodipodi:namedview
     id="base"
     pagecolor="#ffffff"
     bordercolor="#666666"
     borderopacity="1.0"
     inkscape:pageopacity="0.0"
     inkscape:pageshadow="2"
     inkscape:zoom="2.8"
     inkscape:cx="135.72231"
     inkscape:cy="84.375922"
     inkscape:document-units="mm"
     inkscape:current-layer="g10671"
     showgrid="true"
     inkscape:window-width="1857"
     inkscape:window-height="1177"
     inkscape:window-x="55"
     inkscape:window-y="-8"
     inkscape:window-maximized="1"
     borderlayer="true"
     fit-margin-top="0"
     fit-margin-left="0"
     fit-margin-right="0"
     fit-margin-bottom="0">
    <inkscape:grid
       id="grid10645"
       units="mm"
       type="xygrid"
       empspacing="1"
       spacingy="2.54"
       spacingx="2.54"
       originx="-42.335137"
       originy="4.3842702" />
  </sodipodi:namedview>
  <metadata
     id="metadata10096">
    <rdf:RDF>
      <cc:Work
         rdf:about="">
        <dc:format>image/svg+xml</dc:format>
        <dc:type
           rdf:resource="http://purl.org/dc/dcmitype/StillImage" />
        <dc:title></dc:title>
      </cc:Work>
    </rdf:RDF>
  </metadata>
  <g
     id="g10651"
     sodipodi:insensitive="true"
     inkscape:groupmode="layer"
     inkscape:label="[fixed] BG"
     transform="translate(-42.33514,7.3451227)">
    <rect
       id="rect10649"
       style="fill:#ffffff;fill-opacity:1;stroke:none"
       height="38"
       width="29"
       y="0"
       x="0" />
  </g>
  <g
     id="g10653"
     inkscape:groupmode="layer"
     inkscape:label="F.Cu"
     transform="translate(-42.33514,7.3451227)"
     style="display:inline">
    <path
       inkscape:connector-curvature="0"
       style="color:#000000;font-style:normal;font-variant:normal;font-weight:normal;font-stretch:normal;font-size:medium;line-height:normal;font-family:sans-serif;font-variant-ligatures:normal;font-variant-position:normal;font-variant-caps:normal;font-variant-numeric:normal;font-variant-alternates:normal;font-feature-settings:normal;text-indent:0;text-align:start;text-decoration:none;text-decoration-line:none;text-decoration-style:solid;text-decoration-color:#000000;letter-spacing:normal;word-spacing:normal;text-transform:none;writing-mode:lr-tb;direction:ltr;text-orientation:mixed;dominant-baseline:auto;baseline-shift:baseline;text-anchor:start;white-space:normal;shape-padding:0;clip-rule:nonzero;display:inline;overflow:visible;visibility:visible;opacity:1;isolation:auto;mix-blend-mode:normal;color-interpolation:sRGB;color-interpolation-filters:linearRGB;solid-color:#000000;solid-opacity:1;vector-effect:none;fill:#ff0000;fill-opacity:1;fill-rule:nonzero;stroke:none;stroke-width:0.81438762;stroke-linecap:butt;stroke-linejoin:miter;stroke-miterlimit:4;stroke-dasharray:none;stroke-dashoffset:0;stroke-opacity:1;color-rendering:auto;image-rendering:auto;shape-rendering:auto;text-rendering:auto;enable-background:accumulate"
       d="M 63.431004,-7.3449989 C 63.400704,-7.3447079 63.370684,-7.3442439 63.340054,-7.3429319 63.194314,-7.3368619 63.057414,-7.3173939 62.931294,-7.2928059 62.529144,-7.2145329 62.178644,-7.0510269 61.915854,-6.8101479 61.653054,-6.5692699 61.472774,-6.2258529 61.504504,-5.8531009 61.512624,-5.7576159 61.462764,-5.6312739 61.286954,-5.4877479 61.111124,-5.3442129 60.826254,-5.2164219 60.505594,-5.1699379 60.206954,-5.1266539 59.917184,-5.1586169 59.711334,-5.2345339 59.525424,-5.3030929 59.424974,-5.3972179 59.385254,-5.4743119 59.383574,-5.4832509 59.378364,-5.5046139 59.371304,-5.5409749 V -5.5414919 -5.5420079 C 59.286944,-5.9725819 58.940104,-6.2751619 58.542424,-6.4194739 58.144714,-6.5637859 57.670534,-6.5778459 57.180224,-6.4494469 56.689984,-6.3210649 56.282874,-6.0763149 56.004584,-5.7564659 55.726294,-5.4366229 55.566904,-5.0059039 55.697624,-4.5870289 55.726044,-4.4959569 55.704074,-4.3591709 55.562754,-4.1787849 55.421424,-3.9983979 55.169974,-3.8097429 54.867184,-3.6925099 54.585564,-3.5834789 54.296094,-3.5494599 54.079134,-3.5767539 53.884094,-3.6012859 53.767464,-3.6692389 53.712734,-3.7333339 53.708874,-3.7422259 53.698714,-3.7623849 53.683794,-3.7963789 V -3.7968959 C 53.507024,-4.1986549 53.099774,-4.4157839 52.679724,-4.4655889 52.259664,-4.5153939 51.794554,-4.4207819 51.344914,-4.1829189 50.895194,-3.9449779 50.553384,-3.6126789 50.353764,-3.2377569 50.154144,-2.8628349 50.093684,-2.4073249 50.316034,-2.0285279 50.362974,-1.9485339 50.373474,-1.8102479 50.276244,-1.6011639 50.179014,-1.3920589 49.976104,-1.1493689 49.708324,-0.96347688 49.459304,-0.79059988 49.185464,-0.68788288 48.967804,-0.66220288 48.771544,-0.63904988 48.642334,-0.67690488 48.575574,-0.72524888 48.570084,-0.73241388 48.556414,-0.74854688 48.534754,-0.77692488 V -0.77744188 C 48.179154,-1.2421739 47.529904,-1.2950939 46.959134,-1.0719979 46.643234,-0.94849888 46.353714,-0.74381388 46.095634,-0.48960388 45.690924,-0.09097788 45.446024,0.36226312 45.365974,0.80179012 45.285914,1.2413201 45.377984,1.7087331 45.728734,1.9903481 45.792194,2.0413191 45.854214,2.1726391 45.837774,2.4156451 45.821324,2.6586751 45.719544,2.9738811 45.545804,3.2548711 45.504834,3.3211421 45.463544,3.3815001 45.421784,3.4352211 45.264964,3.6369521 45.064784,3.8013761 44.887964,3.8899741 44.725834,3.9712101 44.599644,3.9801911 44.535524,3.9654221 44.528364,3.9619201 44.521074,3.9583251 44.502454,3.9488851 L 44.501934,3.9483681 C 44.093724,3.7422201 43.606054,3.8726921 43.237414,4.1917641 42.868774,4.5108371 42.582034,5.0273441 42.456584,5.7291381 42.392134,6.0895981 42.340334,6.4878351 42.439534,6.8923751 42.594554,7.5245121 43.072734,8.0245551 43.683904,8.0246061 43.774294,8.0246151 43.888984,8.0805301 44.007914,8.2638671 44.126834,8.4472051 44.218234,8.7394871 44.218234,9.0689871 44.218234,9.3772441 44.137724,9.6795291 44.030654,9.8710051 43.923574,10.06248 43.830424,10.103549 43.789324,10.103549 H 43.683904 C 43.254124,10.103549 42.898014,10.372227 42.676204,10.714365 42.454404,11.056501 42.335104,11.49063 42.335144,11.962866 42.335184,12.435028 42.454344,12.868423 42.676204,13.210339 42.898064,13.552252 43.254384,13.821118 43.683904,13.821153 43.774294,13.821161 43.888984,13.877074 44.007914,14.060415 44.126834,14.243756 44.218234,14.536038 44.218234,14.865533 44.218234,15.17379 44.137764,15.476438 44.030654,15.668068 43.923534,15.8597 43.830274,15.900614 43.789324,15.900614 H 43.683904 C 43.254254,15.900614 42.898054,16.169394 42.676204,16.511429 42.454364,16.853464 42.335104,17.287183 42.335144,17.759414 42.335184,18.23156 42.454384,18.665383 42.676204,19.0074 42.898024,19.349416 43.254254,19.618172 43.683904,19.618216 43.774274,19.618216 43.888984,19.674134 44.007914,19.857477 44.126834,20.040817 44.218234,20.333076 44.218234,20.662596 44.218234,20.970393 44.138024,21.272897 44.031164,21.464614 43.924314,21.656339 43.831454,21.697159 43.791384,21.697159 H 43.683904 C 43.254124,21.697159 42.898024,21.965833 42.676204,22.307973 42.454404,22.650109 42.335104,23.084218 42.335144,23.556476 42.335184,24.028633 42.454384,24.462446 42.676204,24.80446 42.898034,25.146479 43.254254,25.415232 43.683904,25.415277 43.774284,25.415285 43.888984,25.471191 44.007914,25.65454 44.126834,25.837885 44.218234,26.130179 44.218234,26.459656 44.218234,26.767504 44.138014,27.069973 44.031164,27.261674 43.924314,27.453381 43.831484,27.494219 43.791384,27.494219 H 43.683904 C 43.254254,27.494219 42.898064,27.762999 42.676204,28.105034 42.454364,28.447069 42.335104,28.880784 42.335144,29.35302 42.335184,29.825169 42.454384,30.258991 42.676204,30.601007 42.898034,30.943023 43.254254,31.211782 43.683904,31.211822 43.774284,31.211835 43.888984,31.267741 44.007914,31.451084 44.126834,31.634433 44.218234,31.92672 44.218234,32.256203 44.218234,32.564456 44.137764,32.867108 44.030654,33.05874 43.923534,33.25037 43.830274,33.291283 43.789324,33.291283 H 43.683904 C 43.254244,33.291283 42.898054,33.560062 42.676204,33.9021 42.454364,34.244134 42.335104,34.677853 42.335144,35.150086 42.335184,35.622241 42.454384,36.056049 42.676204,36.39807 42.898024,36.740084 43.254254,37.008858 43.683904,37.008887 43.774294,37.008895 43.888984,37.064804 44.007914,37.248147 44.126834,37.431488 44.218234,37.723762 44.218234,38.053267 44.218234,38.361517 44.137764,38.664163 44.030654,38.855801 43.923534,39.047436 43.830274,39.088346 43.789324,39.088346 H 43.683904 C 43.254254,39.088346 42.898064,39.357128 42.676204,39.699163 42.454354,40.04119 42.335104,40.474911 42.335144,40.947144 42.335194,41.413488 42.597484,41.739362 42.769224,41.937781 42.904594,42.094166 42.972254,42.294223 42.995054,42.383752 H 43.402784 43.818774 L 52.606864,42.384268 V 39.19583 H 49.963094 L 49.178124,38.414486 V 32.253103 H 48.458274 L 48.458784,20.135495 V 19.37172 18.224504 17.156351 L 48.459314,16.165198 V 15.24794 L 48.459824,14.40148 48.460334,13.623232 48.460854,12.910096 48.461374,12.258458 48.462404,11.666244 48.463444,11.129843 48.464994,10.646669 48.466544,10.21362 48.468604,9.8275961 48.470674,9.4860151 48.473254,9.1852591 48.475844,8.9227421 48.478944,8.6958831 48.482564,8.5010621 48.486174,8.3356981 48.490314,8.1961711 48.494964,8.0804161 48.500134,7.9853311 48.505814,7.9073001 48.512014,7.8437381 48.518214,7.7915451 48.525454,7.7481371 48.533204,7.7104131 48.540954,7.6747561 48.586434,7.5026731 48.746114,7.0375861 48.963154,6.5394251 49.230324,6.0216271 49.541414,5.4976281 49.888164,4.9803461 50.264884,4.4827031 50.731004,3.9535361 51.283944,3.4181681 51.907674,2.8926191 52.594454,2.3805051 53.336524,1.8864791 54.127694,1.4146731 54.960204,0.96922212 55.826304,0.55374312 56.719264,0.17237112 57.631874,-0.17024388 58.556364,-0.47048388 59.486544,-0.72421488 59.601784,-0.75263688 60.853904,-1.0115359 62.146844,-1.1970539 63.479064,-1.3102259 64.848494,-1.3500169 66.253054,-1.3164269 67.691214,-1.2094569 68.757294,-1.0854329 70.159274,-0.86219088 71.518884,-0.57538688 72.833014,-0.22605388 74.099104,0.18477312 75.313484,0.65554612 76.474134,1.1862631 77.577434,1.7753741 78.620774,2.4223631 78.892074,2.6063311 79.478094,3.0347291 79.994334,3.4595091 80.449094,3.8910071 80.851644,4.3385251 81.211314,4.8118811 81.535844,5.3203781 81.835564,5.8738321 81.918254,6.0459151 82.033494,6.3053311 82.139424,6.5637131 82.220044,6.7838541 82.246394,6.8603361 82.271204,6.9300991 82.294454,6.9946941 82.316164,7.0577391 82.336314,7.1213021 82.354404,7.1884811 82.371454,7.2628951 82.386954,7.3471281 82.401424,7.4442791 82.413824,7.5569341 82.425714,7.6887091 82.436044,7.8421881 82.445344,8.0209881 82.454134,8.2271771 82.461374,8.4643721 82.467574,8.7351571 82.473254,9.0431481 82.477904,9.3904141 82.482044,9.7805711 82.485144,10.21672 82.487724,10.701445 82.489794,11.238364 82.491864,11.829542 82.492894,12.478599 82.493924,13.188634 82.494444,13.962229 V 14.802488 15.711994 16.69488 17.753213 18.890612 20.10914 32.253103 H 81.774584 V 38.41087 L 80.993244,39.19583 H 78.345854 V 42.384268 L 88.279104,42.383752 H 88.686314 89.093524 C 89.093484,41.84613 88.830344,41.379373 88.502864,41.057219 88.175384,40.735059 87.787854,40.515172 87.358234,40.51513 87.267824,40.51513 87.153134,40.458694 87.034214,40.275351 86.915294,40.092016 86.823894,39.800279 86.823894,39.470748 86.823894,39.163016 86.904014,38.859936 87.010964,38.668216 87.117914,38.476489 87.211144,38.43619 87.251254,38.43619 H 87.358234 C 87.787874,38.43619 88.143554,38.1674 88.365404,37.825376 88.587254,37.483341 88.707014,37.049615 88.706984,36.577389 88.706934,36.105235 88.587214,35.671421 88.365404,35.329402 88.143574,34.987381 87.787884,34.718599 87.358234,34.718585 87.267834,34.718585 87.153134,34.662147 87.034214,34.478809 86.915294,34.295464 86.823894,34.003716 86.823894,33.674206 86.823894,33.366056 86.904264,33.063323 87.011484,32.871669 87.118704,32.680021 87.212374,32.639124 87.253324,32.639124 H 87.358234 C 87.787864,32.639124 88.143554,32.370342 88.365404,32.02831 88.587254,31.68628 88.707014,31.252578 88.706984,30.780323 88.706934,30.308166 88.587224,29.874353 88.365404,29.532337 88.143574,29.190323 87.787864,28.921562 87.358234,28.921522 87.267814,28.921512 87.153134,28.865086 87.034214,28.681743 86.915294,28.498403 86.823894,28.206634 86.823894,27.877143 86.823894,27.568975 86.904264,27.266249 87.011484,27.074606 87.118704,26.882966 87.212364,26.842064 87.253324,26.842064 H 87.358234 C 87.787884,26.842064 88.143554,26.573279 88.365404,26.231247 88.587254,25.889212 88.707014,25.455488 88.706984,24.983263 88.706934,24.511106 88.587224,24.077292 88.365404,23.735276 88.143574,23.393254 87.787884,23.124467 87.358234,23.124462 87.267834,23.124462 87.153134,23.068029 87.034214,22.88468 86.915294,22.701343 86.823894,22.409592 86.823894,22.08008 86.823894,21.772351 86.904014,21.469273 87.010964,21.277546 87.117914,21.085818 87.211154,21.045519 87.251254,21.045519 H 87.358234 C 87.788004,21.045519 88.144114,20.776322 88.365914,20.434189 88.587724,20.092053 88.707014,19.658446 88.706984,19.1862 88.706934,18.714052 88.587224,18.280226 88.365404,17.938214 88.143584,17.596206 87.787864,17.327457 87.358234,17.327399 87.267804,17.327381 87.153134,17.27095 87.034214,17.087621 86.915294,16.904282 86.823894,16.612513 86.823894,16.283018 86.823894,15.974858 86.904294,15.67249 87.011484,15.481 87.118664,15.28951 87.212224,15.248456 87.253324,15.248456 H 87.358234 C 87.787864,15.248456 88.143554,14.979668 88.365404,14.63764 88.587254,14.29561 88.707014,13.861907 88.706984,13.389654 88.706934,12.917518 88.587214,12.483686 88.365404,12.141669 88.143584,11.79965 87.787884,11.530892 87.358234,11.530852 87.267814,11.530844 87.153134,11.474412 87.034214,11.291074 86.915294,11.107735 86.823894,10.815964 86.823894,10.486471 86.823894,10.178294 86.904264,9.8755831 87.011484,9.6839361 87.118704,9.4922891 87.212364,9.4513921 87.253324,9.4513921 H 87.358234 C 87.787874,9.4513921 88.143554,9.1826071 88.365404,8.8405771 88.587254,8.4985461 88.707034,8.0648361 88.706984,7.5925911 88.706914,7.2353041 88.623894,6.9178041 88.527154,6.6551801 88.412894,6.3449601 88.258384,6.0872401 88.049144,5.8965701 87.839904,5.7058961 87.554374,5.5853411 87.262114,5.6185511 87.202124,5.6253581 87.063304,5.5764961 86.891594,5.3818731 86.719874,5.1872441 86.549204,4.8804961 86.440974,4.5628011 86.338724,4.2626111 86.287284,3.9404851 86.298344,3.6894691 86.308184,3.4664221 86.369254,3.3212761 86.423404,3.2569381 86.432694,3.2512741 86.448564,3.2404801 86.480244,3.2217981 V 3.2223141 C 86.880614,2.9865151 87.026354,2.5186461 86.998564,2.0564941 86.970764,1.5943431 86.775334,1.0914411 86.400664,0.63022412 86.027734,0.17117012 85.581304,-0.11741688 85.138724,-0.23070488 84.696154,-0.34399388 84.214174,-0.27926888 83.912964,0.06436712 83.850214,0.13595412 83.653684,0.19433712 83.352794,0.12896312 83.150854,0.08511212 82.917154,-0.01837188 82.697534,-0.18109588 82.453754,-0.36173388 82.266484,-0.59007588 82.168884,-0.79139388 82.080794,-0.97308188 82.072554,-1.1144919 82.095494,-1.1965379 82.100394,-1.2043429 82.110504,-1.2228769 82.129604,-1.2533819 H 82.130124 C 82.362744,-1.6246539 82.314314,-2.0802629 82.125474,-2.4584759 81.936614,-2.8367259 81.605414,-3.1761559 81.164814,-3.4248259 80.724734,-3.6731949 80.265744,-3.7800129 79.847064,-3.7426359 79.428374,-3.7052589 79.017214,-3.5011579 78.830064,-3.1064989 78.790764,-3.0236669 78.689974,-2.9443719 78.470914,-2.9127119 78.251834,-2.8810499 77.946274,-2.9185519 77.649774,-3.0439699 77.373544,-3.1608259 77.141744,-3.3375449 77.003304,-3.5095749 76.877874,-3.6654429 76.838724,-3.8008039 76.843624,-3.8878469 76.846684,-3.8964329 76.853314,-3.9177779 76.865334,-3.9519249 L 76.865844,-3.9524419 C 77.009994,-4.3647719 76.866914,-4.7978319 76.603334,-5.1265299 76.339744,-5.4552279 75.946554,-5.7152429 75.467484,-5.8634359 74.988914,-6.0114639 74.518944,-6.0189759 74.117694,-5.8934079 73.716444,-5.7678399 73.358124,-5.4808589 73.254184,-5.0557329 73.231374,-4.9624689 73.145314,-4.8616349 72.935334,-4.7849499 72.725354,-4.7082649 72.416924,-4.6826239 72.098694,-4.7477429 71.800814,-4.8087089 71.513244,-4.9444969 71.338014,-5.0877719 71.162784,-5.2310489 71.132234,-5.3372759 71.139574,-5.3849119 71.145894,-5.4239849 71.150944,-5.4607739 71.156114,-5.4954999 71.223194,-5.9307239 71.018714,-6.3407119 70.697744,-6.6359989 70.376744,-6.9313199 69.918194,-7.1274419 69.391364,-7.1274419 68.920974,-7.1274419 68.482784,-7.0544649 68.117544,-6.8778439 67.752304,-6.7012239 67.432804,-6.3699219 67.400784,-5.9331989 67.393514,-5.8338779 67.323804,-5.7169179 67.128974,-5.6050539 66.934134,-5.4931899 66.634244,-5.4163999 66.309384,-5.4283199 H 66.308864 C 66.006224,-5.4394109 65.729984,-5.5251379 65.543534,-5.6386429 65.375394,-5.7410099 65.294734,-5.8528939 65.270174,-5.9378499 65.270224,-5.9462259 65.269144,-5.9697689 65.269144,-6.0091639 V -6.0096799 C 65.268974,-6.4462509 64.992934,-6.8093259 64.638164,-7.0308069 64.305584,-7.2384449 63.887614,-7.3493869 63.431004,-7.3449989 Z"
       id="path5658-9-7-6-2-8-4-9-0" />
  </g>
  <g
     id="g10655"
     inkscape:groupmode="layer"
     inkscape:label="B.Cu"
     transform="translate(-42.33514,7.3451227)"
     style="display:inline">
    <path
       inkscape:connector-curvature="0"
       style="color:#000000;font-style:normal;font-variant:normal;font-weight:normal;font-stretch:normal;font-size:medium;line-height:normal;font-family:sans-serif;font-variant-ligatures:normal;font-variant-position:normal;font-variant-caps:normal;font-variant-numeric:normal;font-variant-alternates:normal;font-feature-settings:normal;text-indent:0;text-align:start;text-decoration:none;text-decoration-line:none;text-decoration-style:solid;text-decoration-color:#000000;letter-spacing:normal;word-spacing:normal;text-transform:none;writing-mode:lr-tb;direction:ltr;text-orientation:mixed;dominant-baseline:auto;baseline-shift:baseline;text-anchor:start;white-space:normal;shape-padding:0;clip-rule:nonzero;display:inline;overflow:visible;visibility:visible;opacity:1;isolation:auto;mix-blend-mode:normal;color-interpolation:sRGB;color-interpolation-filters:linearRGB;solid-color:#000000;solid-opacity:1;vector-effect:none;fill:#000000;fill-opacity:1;fill-rule:nonzero;stroke:none;stroke-width:0.8143878;stroke-linecap:butt;stroke-linejoin:miter;stroke-miterlimit:4;stroke-dasharray:none;stroke-dashoffset:0;stroke-opacity:1;color-rendering:auto;image-rendering:auto;shape-rendering:auto;text-rendering:auto;enable-background:accumulate"
       d="M 63.431004,-7.3450284 C 63.400714,-7.3447344 63.370684,-7.3442714 63.340054,-7.3429594 63.194324,-7.3368894 63.057424,-7.3174214 62.931294,-7.2928344 62.529144,-7.2145624 62.178654,-7.0510554 61.915854,-6.8101754 61.653064,-6.5692964 61.472774,-6.2258804 61.504514,-5.8531274 61.512624,-5.7576444 61.462764,-5.6313014 61.286954,-5.4877754 61.111134,-5.3442414 60.826254,-5.2164474 60.505604,-5.1699654 60.206954,-5.1266794 59.917194,-5.1586464 59.711344,-5.2345614 59.525434,-5.3031194 59.424984,-5.3972454 59.385254,-5.4743394 59.383564,-5.4832774 59.378364,-5.5046394 59.371304,-5.5410044 V -5.5415204 -5.5420354 C 59.286954,-5.9726084 58.940114,-6.2751914 58.542414,-6.4195024 58.144724,-6.5638114 57.670534,-6.5778744 57.180224,-6.4494744 56.689994,-6.3210914 56.282874,-6.0763434 56.004584,-5.7564944 55.726294,-5.4366494 55.566904,-5.0059314 55.697634,-4.5870564 55.726044,-4.4959844 55.704084,-4.3591974 55.562754,-4.1788104 55.421434,-3.9984254 55.169974,-3.8097694 54.867184,-3.6925374 54.585564,-3.5835054 54.296104,-3.5494884 54.079124,-3.5767824 53.884104,-3.6013144 53.767464,-3.6692644 53.712734,-3.7333604 53.708874,-3.7422524 53.698714,-3.7624114 53.683794,-3.7964054 V -3.7969234 C 53.507024,-4.1986804 53.099774,-4.4158104 52.679724,-4.4656154 52.259664,-4.5154204 51.794554,-4.4208084 51.344924,-4.1829454 50.895204,-3.9450054 50.553384,-3.6127044 50.353764,-3.2377854 50.154154,-2.8628624 50.093694,-2.4073534 50.316044,-2.0285544 50.362974,-1.9485604 50.373474,-1.8102734 50.276254,-1.6011914 50.179014,-1.3920864 49.976114,-1.1493944 49.708324,-0.96350341 49.459304,-0.79062741 49.185464,-0.68790841 48.967804,-0.66223041 48.771544,-0.63907641 48.642334,-0.67693041 48.575584,-0.72527541 48.570094,-0.73244041 48.556414,-0.74857141 48.534754,-0.77695141 V -0.77746941 C 48.179154,-1.2421994 47.529904,-1.2951184 46.959144,-1.0720244 46.643234,-0.94852541 46.353704,-0.74384141 46.095624,-0.48962941 45.690914,-0.09100241 45.446024,0.36223659 45.365954,0.80176259 45.285904,1.2412936 45.377974,1.7087086 45.728724,1.9903206 45.792184,2.0412926 45.854204,2.1726106 45.837764,2.4156176 45.821314,2.6586506 45.719534,2.9738536 45.545794,3.2548436 45.504824,3.3211146 45.463534,3.3814736 45.421764,3.4351946 45.264954,3.6369266 45.064774,3.8013486 44.887954,3.8899476 44.725824,3.9711826 44.599634,3.9801646 44.535514,3.9653936 44.528354,3.9618956 44.521064,3.9582966 44.502444,3.9488596 L 44.501924,3.9483406 C 44.093714,3.7421956 43.606054,3.8726676 43.237414,4.1917386 42.868774,4.5108136 42.582034,5.0273166 42.456584,5.7291106 42.392134,6.0895716 42.340334,6.4878086 42.439534,6.8923486 42.594554,7.5244836 43.072734,8.0245276 43.683884,8.0245776 43.774284,8.0245886 43.888974,8.0805026 44.007904,8.2638406 44.126824,8.4471806 44.218224,8.7394606 44.218224,9.0689626 44.218224,9.3772176 44.137714,9.6795046 44.030634,9.8709806 43.923564,10.062455 43.830414,10.103523 43.789314,10.103523 H 43.683884 C 43.254124,10.103523 42.898014,10.372205 42.676214,10.714343 42.454404,11.056478 42.335104,11.490607 42.335144,11.962845 42.335184,12.435002 42.454344,12.868398 42.676214,13.210314 42.898064,13.552229 43.254384,13.821091 43.683884,13.821128 43.774274,13.821139 43.888974,13.877048 44.007904,14.060391 44.126824,14.243731 44.218224,14.536016 44.218224,14.86551 44.218224,15.173765 44.137754,15.476412 44.030634,15.668044 43.923524,15.859674 43.830264,15.900589 43.789314,15.900589 H 43.683884 C 43.254254,15.900589 42.898054,16.169369 42.676214,16.511403 42.454364,16.853438 42.335104,17.287159 42.335144,17.75939 42.335184,18.231534 42.454394,18.665358 42.676214,19.007374 42.898024,19.34939 43.254254,19.618146 43.683884,19.618191 43.774264,19.618191 43.888974,19.674108 44.007904,19.857451 44.126824,20.040792 44.218224,20.33305 44.218224,20.66257 44.218224,20.970371 44.138014,21.272874 44.031154,21.464589 43.924304,21.656316 43.831444,21.697136 43.791374,21.697136 H 43.683884 C 43.254124,21.697136 42.898024,21.965807 42.676214,22.307951 42.454404,22.650086 42.335104,23.084196 42.335144,23.556456 42.335184,24.028613 42.454394,24.462424 42.676214,24.804435 42.898034,25.146456 43.254254,25.415212 43.683884,25.415252 43.774274,25.415262 43.888974,25.471169 44.007904,25.65452 44.126824,25.83786 44.218224,26.130156 44.218224,26.459636 44.218224,26.767482 44.138004,27.069953 44.031154,27.261654 43.924304,27.453358 43.831474,27.494194 43.791374,27.494194 H 43.683884 C 43.254254,27.494194 42.898064,27.762974 42.676214,28.105008 42.454364,28.447046 42.335104,28.880762 42.335144,29.352998 42.335184,29.825147 42.454394,30.258966 42.676214,30.600987 42.898034,30.943001 43.254254,31.211757 43.683884,31.211802 43.774274,31.211812 43.888974,31.267719 44.007904,31.451062 44.126824,31.63441 44.218224,31.9267 44.218224,32.256181 44.218224,32.564436 44.137754,32.867085 44.030634,33.058718 43.923524,33.250347 43.830264,33.291263 43.789314,33.291263 H 43.683884 C 43.254244,33.291263 42.898054,33.560042 42.676214,33.902077 42.454364,34.244112 42.335104,34.677827 42.335144,35.150064 42.335184,35.622218 42.454384,36.056029 42.676214,36.398048 42.898024,36.740064 43.254254,37.008838 43.683884,37.008865 43.774284,37.008873 43.888974,37.064784 44.007904,37.248125 44.126824,37.431468 44.218224,37.72374 44.218224,38.053244 44.218224,38.361494 44.137754,38.664143 44.030634,38.855781 43.923524,39.047416 43.830254,39.088323 43.789314,39.088323 H 43.683884 C 43.254254,39.088323 42.898064,39.357105 42.676214,39.69914 42.454354,40.04117 42.335104,40.474888 42.335144,40.947124 42.335194,41.413465 42.597484,41.739342 42.769224,41.937761 42.904594,42.094146 42.972254,42.2942 42.995054,42.38373 H 43.402784 43.818764 L 48.458734,42.384298 V 20.135473 L 48.458794,19.371697 V 18.224477 17.156325 L 48.459304,16.165172 V 15.247915 L 48.459824,14.401454 48.460344,13.623206 48.460864,12.910072 48.461374,12.258433 48.462414,11.666221 48.463444,11.129821 48.465004,10.646647 48.466544,10.213598 48.468614,9.8275726 48.470674,9.4859906 48.473264,9.1852336 48.475844,8.9227186 48.478944,8.6958576 48.482564,8.5010336 48.486184,8.3356726 48.490314,8.1961446 48.494964,8.0803886 48.500134,7.9853056 48.505814,7.9072746 48.512014,7.8437136 48.518214,7.7915196 48.525454,7.7481096 48.533204,7.7103876 48.540954,7.6747296 48.586434,7.5026476 48.746114,7.0375606 48.963154,6.5393996 49.230324,6.0216026 49.541414,5.4976006 49.888164,4.9803186 50.264884,4.4826776 50.731004,3.9535106 51.283954,3.4181426 51.907674,2.8925926 52.594454,2.3804806 53.336534,1.8864506 54.127704,1.4146456 54.960204,0.96919359 55.826304,0.55371759 56.719274,0.17234459 57.631874,-0.17026941 58.556374,-0.47050741 59.486544,-0.72424041 59.601784,-0.75266441 60.853904,-1.0115624 62.146844,-1.1970804 63.479064,-1.3102534 64.848494,-1.3500414 66.253054,-1.3164524 67.691214,-1.2094834 68.757294,-1.0854574 70.159274,-0.86221541 71.518884,-0.57541241 72.833014,-0.22608041 74.099094,0.18474859 75.313484,0.65552159 76.474144,1.1862366 77.577434,1.7753466 78.620784,2.4223356 78.892084,2.6063056 79.478094,3.0347026 79.994344,3.4594836 80.449094,3.8909786 80.851654,4.3384976 81.211324,4.8118536 81.535844,5.3203506 81.835574,5.8738066 81.918254,6.0458886 82.033494,6.3053046 82.139424,6.5636866 82.220044,6.7838276 82.246404,6.8603106 82.271204,6.9300736 82.294454,6.9946686 82.316164,7.0577136 82.336314,7.1212766 82.354404,7.1884546 82.371454,7.2628686 82.386964,7.3471016 82.401424,7.4442536 82.413834,7.5569086 82.425714,7.6886816 82.436054,7.8421606 82.445354,8.0209636 82.454144,8.2271506 82.461374,8.4643446 82.467574,8.7351326 82.473254,9.0431256 82.477914,9.3903916 82.482044,9.7805436 82.485144,10.216696 82.487724,10.701421 82.489794,11.23834 82.491864,11.829517 82.492894,12.478574 82.493924,13.18861 82.494444,13.962204 V 14.802465 15.71197 16.694855 17.753188 18.890587 L 82.494474,20.109115 V 42.384298 L 88.279104,42.38373 H 88.686314 89.093524 C 89.093484,41.846107 88.830354,41.37935 88.502864,41.057196 88.175384,40.735039 87.787854,40.515152 87.358234,40.51511 87.267824,40.51511 87.153144,40.458672 87.034224,40.275331 86.915304,40.091993 86.823894,39.800256 86.823894,39.470728 86.823894,39.162994 86.904014,38.859916 87.010974,38.668194 87.117914,38.476469 87.211154,38.436167 87.251264,38.436167 H 87.358234 C 87.787874,38.436167 88.143564,38.167377 88.365404,37.825353 88.587254,37.483318 88.707014,37.049595 88.706994,36.577366 88.706934,36.105212 88.587224,35.671396 88.365404,35.32938 88.143584,34.987358 87.787894,34.718578 87.358234,34.718565 87.267834,34.718565 87.153144,34.662127 87.034224,34.478787 86.915304,34.295444 86.823894,34.003693 86.823894,33.674183 86.823894,33.366034 86.904274,33.0633 87.011484,32.871644 87.118704,32.680001 87.212374,32.639104 87.253334,32.639104 H 87.358234 C 87.787864,32.639104 88.143554,32.370319 88.365404,32.02829 88.587254,31.686255 88.707014,31.252558 88.706994,30.780301 88.706934,30.308146 88.587234,29.87433 88.365404,29.532314 88.143574,29.190303 87.787864,28.921542 87.358234,28.921497 87.267814,28.921489 87.153144,28.865061 87.034224,28.681723 86.915304,28.498378 86.823894,28.206608 86.823894,27.87712 86.823894,27.568952 86.904274,27.266229 87.011484,27.074586 87.118704,26.88294 87.212364,26.842038 87.253334,26.842038 H 87.358234 C 87.787884,26.842038 88.143564,26.573254 88.365404,26.231221 88.587254,25.889189 88.707014,25.455468 88.706994,24.983237 88.706934,24.51108 88.587234,24.077267 88.365404,23.735256 88.143584,23.393232 87.787894,23.124447 87.358234,23.124442 87.267834,23.124442 87.153144,23.068006 87.034224,22.884655 86.915304,22.70132 86.823894,22.409566 86.823894,22.080054 86.823894,21.772325 86.904014,21.469251 87.010974,21.27752 87.117914,21.085793 87.211154,21.045494 87.251264,21.045494 H 87.358234 C 87.788004,21.045494 88.144114,20.776296 88.365924,20.434164 88.587724,20.092028 88.707014,19.658421 88.706994,19.186177 88.706934,18.714025 88.587224,18.280201 88.365404,17.93819 88.143584,17.596182 87.787864,17.327434 87.358234,17.327373 87.267814,17.327357 87.153144,17.270924 87.034224,17.087594 86.915304,16.904257 86.823894,16.61249 86.823894,16.282994 86.823894,15.974836 86.904304,15.672468 87.011484,15.480976 87.118664,15.289483 87.212224,15.248431 87.253334,15.248431 H 87.358234 C 87.787864,15.248431 88.143554,14.979646 88.365404,14.637616 88.587254,14.295589 88.707014,13.861882 88.706994,13.38963 88.706934,12.917494 88.587214,12.483662 88.365404,12.141646 88.143594,11.799627 87.787884,11.530868 87.358234,11.530829 87.267814,11.530821 87.153144,11.474388 87.034224,11.29105 86.915304,11.107712 86.823894,10.81594 86.823894,10.486449 86.823894,10.178271 86.904274,9.8755576 87.011484,9.6839116 87.118704,9.4922636 87.212364,9.4513646 87.253334,9.4513646 H 87.358234 C 87.787874,9.4513646 88.143554,9.1825826 88.365404,8.8405496 88.587264,8.4985236 88.707044,8.0648106 88.706994,7.5925636 88.706924,7.2352776 88.623894,6.9177776 88.527154,6.6551556 88.412894,6.3449336 88.258394,6.0872136 88.049144,5.8965416 87.839904,5.7058696 87.554374,5.5853156 87.262114,5.6185256 87.202134,5.6253336 87.063304,5.5764706 86.891594,5.3818456 86.719874,5.1872176 86.549214,4.8804706 86.440974,4.5627746 86.338724,4.2625866 86.287284,3.9404586 86.298344,3.6894406 86.308184,3.4663946 86.369254,3.3212496 86.423404,3.2569126 86.432694,3.2512486 86.448574,3.2404536 86.480244,3.2217706 V 3.2222896 C 86.880614,2.9864876 87.026354,2.5186196 86.998564,2.0564696 86.970764,1.5943166 86.775344,1.0914146 86.400674,0.63019859 86.027744,0.17114359 85.581304,-0.11744241 85.138724,-0.23073141 84.696154,-0.34401841 84.214174,-0.27929641 83.912964,0.06433959 83.850214,0.13592759 83.653684,0.19431059 83.352794,0.12893759 83.150864,0.08508559 82.917164,-0.01839841 82.697534,-0.18112241 82.453754,-0.36175841 82.266484,-0.59010241 82.168884,-0.79142141 82.080794,-0.97310741 82.072564,-1.1145194 82.095504,-1.1965644 82.100404,-1.2043694 82.110514,-1.2229034 82.129614,-1.2534074 H 82.130124 C 82.362744,-1.6246784 82.314314,-2.0802914 82.125474,-2.4585024 81.936624,-2.8367534 81.605424,-3.1761824 81.164814,-3.4248534 80.724734,-3.6732234 80.265754,-3.7800404 79.847064,-3.7426604 79.428374,-3.7052854 79.017214,-3.5011834 78.830074,-3.1065254 78.790774,-3.0236944 78.689974,-2.9443964 78.470914,-2.9127394 78.251834,-2.8810764 77.946274,-2.9185784 77.649774,-3.0439964 77.373544,-3.1608494 77.141744,-3.3375694 77.003304,-3.5096024 76.877874,-3.6654684 76.838724,-3.8008284 76.843624,-3.8878714 76.846694,-3.8964594 76.853314,-3.9178034 76.865334,-3.9519514 L 76.865844,-3.9524694 C 77.009994,-4.3647984 76.866914,-4.7978584 76.603334,-5.1265584 76.339744,-5.4552554 75.946554,-5.7152694 75.467484,-5.8634624 74.988924,-6.0114914 74.518944,-6.0190054 74.117694,-5.8934344 73.716444,-5.7678684 73.358124,-5.4808884 73.254184,-5.0557604 73.231374,-4.9624974 73.145314,-4.8616594 72.935334,-4.7849754 72.725354,-4.7082914 72.416924,-4.6826484 72.098694,-4.7477704 71.800814,-4.8087354 71.513244,-4.9445244 71.338034,-5.0877994 71.162804,-5.2310764 71.132234,-5.3373044 71.139574,-5.3849394 71.145904,-5.4240104 71.150944,-5.4608004 71.156114,-5.4955274 71.223194,-5.9307534 71.018714,-6.3407384 70.697754,-6.6360274 70.376744,-6.9313474 69.918184,-7.1274694 69.391364,-7.1274694 68.920974,-7.1274694 68.482784,-7.0544924 68.117544,-6.8778724 67.752304,-6.7012524 67.432804,-6.3699514 67.400804,-5.9332274 67.393504,-5.8339054 67.323814,-5.7169464 67.128974,-5.6050804 66.934134,-5.4932154 66.634244,-5.4164274 66.309384,-5.4283474 H 66.308874 C 66.006234,-5.4394384 65.729984,-5.5251634 65.543544,-5.6386724 65.375394,-5.7410374 65.294734,-5.8529214 65.270174,-5.9378764 65.270234,-5.9462534 65.269144,-5.9697954 65.269144,-6.0091894 V -6.0097084 C 65.268974,-6.4462784 64.992944,-6.8093534 64.638174,-7.0308334 64.305574,-7.2384724 63.887614,-7.3494154 63.431004,-7.3450284 Z"
       id="path5658-9-7-6-2-8-4-9-4-1"
       sodipodi:nodetypes="ccccccccccccccccccccccccccccccccccccccccccccccccscssccsccscsscccccscsscccccscsscscccscsscccccscsscccccccccccccccccccccccccccccccccccccccccccccccccccccccccccccccccccccccccccccccccccccccccccccccccccccccccccccccccccccccccccscsscccccscsscccccscsscccccscsssccccscsscccccscsscccscccccccscccccccccccccccccccccccccscccscccccccsccc" />
  </g>
  <g
     id="g10657"
     inkscape:groupmode="layer"
     inkscape:label="B.Adhes-disabled"
     transform="translate(-42.33514,7.3451227)" />
  <g
     id="g10659"
     inkscape:groupmode="layer"
     inkscape:label="F.Adhes-disabled"
     transform="translate(-42.33514,7.3451227)" />
  <g
     id="g10661"
     inkscape:groupmode="layer"
     inkscape:label="B.Paste-disabled"
     transform="translate(-42.33514,7.3451227)" />
  <g
     id="g10663"
     inkscape:groupmode="layer"
     inkscape:label="F.Paste-disabled"
     transform="translate(-42.33514,7.3451227)" />
  <g
     id="g10665"
     inkscape:groupmode="layer"
     inkscape:label="B.SilkS-disabled"
     transform="translate(-42.33514,7.3451227)" />
  <g
     id="g10667"
     inkscape:groupmode="layer"
     inkscape:label="F.SilkS-disabled"
     transform="translate(-42.33514,7.3451227)" />
  <g
     id="g10669"
     inkscape:groupmode="layer"
     inkscape:label="B.Mask"
     transform="translate(-42.33514,7.3451227)"
     style="display:inline">
    <path
       inkscape:connector-curvature="0"
       style="color:#000000;font-style:normal;font-variant:normal;font-weight:normal;font-stretch:normal;font-size:medium;line-height:normal;font-family:sans-serif;font-variant-ligatures:normal;font-variant-position:normal;font-variant-caps:normal;font-variant-numeric:normal;font-variant-alternates:normal;font-feature-settings:normal;text-indent:0;text-align:start;text-decoration:none;text-decoration-line:none;text-decoration-style:solid;text-decoration-color:#000000;letter-spacing:normal;word-spacing:normal;text-transform:none;writing-mode:lr-tb;direction:ltr;text-orientation:mixed;dominant-baseline:auto;baseline-shift:baseline;text-anchor:start;white-space:normal;shape-padding:0;clip-rule:nonzero;display:inline;overflow:visible;visibility:visible;opacity:1;isolation:auto;mix-blend-mode:normal;color-interpolation:sRGB;color-interpolation-filters:linearRGB;solid-color:#000000;solid-opacity:1;vector-effect:none;fill:#d4aa00;fill-opacity:1;fill-rule:nonzero;stroke:none;stroke-width:0.81438762;stroke-linecap:butt;stroke-linejoin:miter;stroke-miterlimit:4;stroke-dasharray:none;stroke-dashoffset:0;stroke-opacity:1;color-rendering:auto;image-rendering:auto;shape-rendering:auto;text-rendering:auto;enable-background:accumulate"
       d="M 63.43101,-7.3450264 C 63.40071,-7.3447354 63.37069,-7.3442704 63.34006,-7.3429604 63.19432,-7.3368884 63.05742,-7.3174204 62.9313,-7.2928324 62.52915,-7.2145604 62.17866,-7.0510534 61.91586,-6.8101744 61.65306,-6.5692954 61.47278,-6.2258814 61.50451,-5.8531264 61.51263,-5.7576434 61.46277,-5.6312994 61.28696,-5.4877734 61.11113,-5.3442394 60.82626,-5.2164464 60.50561,-5.1699664 60.20696,-5.1266784 59.9172,-5.1586454 59.71134,-5.2345594 59.52544,-5.3031184 59.42499,-5.3972434 59.38526,-5.4743384 59.38357,-5.4832754 59.37837,-5.5046404 59.37131,-5.5410024 V -5.5415184 -5.5420344 C 59.28695,-5.9726094 58.94012,-6.2751894 58.54242,-6.4195014 58.14473,-6.5638124 57.67054,-6.5778724 57.18023,-6.4494734 56.69,-6.3210894 56.28288,-6.0763414 56.00459,-5.7564924 55.7263,-5.4366484 55.56691,-5.0059304 55.69763,-4.5870554 55.72605,-4.4959834 55.70408,-4.3591984 55.56276,-4.1788114 55.42144,-3.9984234 55.16998,-3.8097704 54.86719,-3.6925364 54.58557,-3.5835034 54.29611,-3.5494864 54.07913,-3.5767804 53.88411,-3.6013124 53.76747,-3.6692634 53.71274,-3.7333584 53.70888,-3.7422514 53.69872,-3.7624094 53.6838,-3.7964034 V -3.7969224 C 53.50703,-4.1986814 53.09978,-4.4158084 52.67973,-4.4656164 52.25967,-4.5154194 51.79456,-4.4208064 51.34493,-4.1829434 50.89521,-3.9450044 50.55339,-3.6127034 50.35377,-3.2377834 50.15415,-2.8628604 50.0937,-2.4073514 50.31605,-2.0285524 50.36298,-1.9485584 50.37348,-1.8102714 50.27626,-1.6011894 50.17902,-1.3920844 49.97611,-1.1493954 49.70833,-0.96350141 49.45931,-0.79062541 49.18547,-0.68790941 48.96781,-0.66222841 48.77156,-0.63907541 48.64234,-0.67693141 48.57559,-0.72527341 48.5701,-0.73243841 48.55642,-0.74857041 48.53476,-0.77694941 V -0.77746741 C 48.17916,-1.2421984 47.52991,-1.2951194 46.95915,-1.0720234 46.64324,-0.94852341 46.35371,-0.74383941 46.09563,-0.48962741 45.69092,-0.09100141 45.44602,0.36223559 45.36596,0.80176359 45.28591,1.2412946 45.37798,1.7087076 45.72873,1.9903226 45.79219,2.0412916 45.85421,2.1726126 45.83777,2.4156186 45.82132,2.6586516 45.71954,2.9738556 45.5458,3.2548456 45.50483,3.3211156 45.46354,3.3814756 45.42177,3.4351966 45.26496,3.6369256 45.06478,3.8013506 44.88796,3.8899486 44.72583,3.9711836 44.59964,3.9801666 44.53552,3.9653946 44.52836,3.9618946 44.52107,3.9582986 44.50245,3.9488606 L 44.50193,3.9483426 C 44.09372,3.7421946 43.606052,3.8726686 43.237411,4.1917406 42.868771,4.5108126 42.582024,5.0273186 42.456579,5.7291126 42.392127,6.0895726 42.340329,6.4878106 42.439525,6.8923506 42.594546,7.5244846 43.072728,8.0245286 43.683895,8.0245796 43.774291,8.0245896 43.888985,8.0805046 44.00791,8.2638416 44.12683,8.4471776 44.21823,8.7394626 44.21823,9.0689616 44.21823,9.3772196 44.13772,9.6795026 44.03065,9.8709796 43.923567,10.062456 43.830415,10.103522 43.789315,10.103522 H 43.683895 C 43.254116,10.103522 42.898014,10.372204 42.676202,10.714339 42.454397,11.056477 42.335099,11.490606 42.335139,11.962842 42.335177,12.435001 42.454341,12.868397 42.676202,13.210313 42.898063,13.552228 43.25438,13.82109 43.683895,13.821127 43.774284,13.821138 43.888982,13.877047 44.00791,14.06039 44.12683,14.24373 44.21823,14.536015 44.21823,14.865509 44.21823,15.173764 44.13776,15.476411 44.03065,15.668043 43.923531,15.859673 43.830273,15.900588 43.789315,15.900588 H 43.683895 C 43.254246,15.900588 42.898052,16.169368 42.676202,16.511402 42.454354,16.853437 42.335099,17.287155 42.335139,17.759389 42.335177,18.231533 42.454384,18.665357 42.676202,19.007373 42.898024,19.349389 43.254246,19.618145 43.683895,19.618187 43.774271,19.618187 43.888985,19.674107 44.00791,19.85745 44.12683,20.040791 44.21823,20.333049 44.21823,20.662569 44.21823,20.970367 44.13802,21.27287 44.03116,21.464588 43.924308,21.65631 43.831454,21.697132 43.791383,21.697132 H 43.683895 C 43.254121,21.697132 42.898017,21.965806 42.676202,22.307947 42.454395,22.650082 42.335099,23.084192 42.335139,23.556452 42.335177,24.028606 42.454384,24.46242 42.676202,24.804434 42.898027,25.146452 43.254248,25.415208 43.683895,25.415251 43.774281,25.415259 43.888982,25.471165 44.00791,25.654516 44.12683,25.837859 44.21823,26.130152 44.21823,26.459632 44.21823,26.767478 44.13801,27.06995 44.03116,27.261648 43.924313,27.453355 43.831477,27.494193 43.791383,27.494193 H 43.683895 C 43.254248,27.494193 42.898055,27.762973 42.676202,28.105007 42.454354,28.447042 42.335101,28.880758 42.335139,29.352994 42.335177,29.825143 42.454384,30.258964 42.676202,30.600981 42.898027,30.942997 43.254248,31.211756 43.683895,31.211798 43.774281,31.211808 43.888982,31.267715 44.00791,31.451058 44.12683,31.634406 44.21823,31.926694 44.21823,32.256177 44.21823,32.564433 44.13776,32.867081 44.03065,33.058714 43.923531,33.250344 43.83027,33.291259 43.789315,33.291259 H 43.683895 C 43.254243,33.291259 42.898052,33.560038 42.676202,33.902073 42.454354,34.244108 42.335099,34.677826 42.335139,35.15006 42.335177,35.622214 42.454382,36.056025 42.676202,36.398044 42.898024,36.74006 43.254248,37.008835 43.683895,37.008861 43.774286,37.008869 43.888982,37.064778 44.00791,37.248121 44.12683,37.431461 44.21823,37.723736 44.21823,38.05324 44.21823,38.36149 44.13776,38.664139 44.03065,38.855777 43.923531,39.047409 43.830265,39.088319 43.789315,39.088319 H 43.683895 C 43.254248,39.088319 42.898055,39.357102 42.676202,39.699136 42.454351,40.041166 42.335099,40.474886 42.335139,40.947116 42.335188,41.413466 42.597477,41.739336 42.769221,41.937756 42.904585,42.094146 42.972253,42.294196 42.995047,42.383726 H 43.402774 43.818769 L 48.45874,42.384296 V 20.135469 L 48.4588,19.371691 V 18.224476 17.156324 L 48.45931,16.165171 V 15.247914 L 48.45983,14.401453 48.46035,13.623205 48.46087,12.910071 48.46138,12.258432 48.46242,11.66622 48.46345,11.12982 48.465,10.646646 48.46655,10.213597 48.46862,9.8275716 48.47068,9.4859896 48.47327,9.1852346 48.47585,8.9227176 48.47895,8.6958566 48.48257,8.5010356 48.48619,8.3356736 48.49032,8.1961456 48.49497,8.0803906 48.50014,7.9853076 48.50582,7.9072766 48.51202,7.8437156 48.51822,7.7915206 48.52546,7.7481106 48.53321,7.7103866 48.54096,7.6747316 48.58644,7.5026486 48.74612,7.0375616 48.96316,6.5394016 49.23033,6.0216046 49.54142,5.4976026 49.88817,4.9803206 50.26489,4.4826766 50.73101,3.9535096 51.28395,3.4181436 51.90768,2.8925936 52.59446,2.3804796 53.33654,1.8864526 54.1277,1.4146476 54.96021,0.96919459 55.82631,0.55371959 56.71928,0.17234659 57.63188,-0.17026741 58.55637,-0.47050841 59.48655,-0.72423941 59.60179,-0.75266341 60.85391,-1.0115604 62.14685,-1.1970814 63.47907,-1.3102514 64.8485,-1.3500424 66.25306,-1.3164534 67.69122,-1.2094824 68.7573,-1.0854584 70.15928,-0.86221441 71.51889,-0.57541041 72.83302,-0.22607841 74.0991,0.18475059 75.31349,0.65552059 76.47415,1.1862376 77.57744,1.7753486 78.62078,2.4223366 78.89209,2.6063066 79.4781,3.0347046 79.99434,3.4594846 80.4491,3.8909806 80.85166,4.3384996 81.21132,4.8118546 81.53585,5.3203526 81.83557,5.8738076 81.91826,6.0458906 82.0335,6.3053036 82.13943,6.5636876 82.22005,6.7838286 82.2464,6.8603096 82.27121,6.9300746 82.29446,6.9946676 82.31617,7.0577146 82.33632,7.1212756 82.35441,7.1884536 82.37146,7.2628676 82.38696,7.3471036 82.40143,7.4442556 82.41383,7.5569096 82.42572,7.6886826 82.43605,7.8421626 82.44536,8.0209626 82.45414,8.2271526 82.46138,8.4643456 82.46758,8.7351306 82.47326,9.0431246 82.47791,9.3903906 82.48205,9.7805446 82.48515,10.216695 82.48773,10.70142 82.4898,11.238339 82.49187,11.829516 82.4929,12.478573 82.49393,13.188606 82.49445,13.962203 V 14.802461 15.711966 16.694854 17.753187 18.890586 L 82.49448,20.109114 V 42.384296 L 88.27912,42.383726 H 88.68632 89.09353 C 89.09349,41.846106 88.83036,41.379346 88.50287,41.057196 88.17539,40.735036 87.78786,40.515146 87.35824,40.515106 87.26783,40.515106 87.15314,40.458666 87.03422,40.275326 86.9153,40.09199 86.8239,39.800252 86.8239,39.470724 86.8239,39.16299 86.90402,38.85991 87.01097,38.66819 87.11792,38.476462 87.21115,38.436164 87.25126,38.436164 H 87.35824 C 87.78788,38.436164 88.14357,38.167374 88.36541,37.825349 88.58726,37.483315 88.70702,37.049591 88.70699,36.577363 88.70694,36.105208 88.58723,35.671395 88.36541,35.329376 88.14359,34.987354 87.78789,34.718572 87.35824,34.718562 87.26784,34.718562 87.15314,34.662121 87.03422,34.478783 86.9153,34.295437 86.8239,34.003689 86.8239,33.67418 86.8239,33.36603 86.90427,33.063296 87.01149,32.871643 87.11871,32.679997 87.21238,32.639101 87.25333,32.639101 H 87.35824 C 87.78787,32.639101 88.14357,32.370316 88.36541,32.028284 88.58726,31.686254 88.70702,31.252554 88.70699,30.780297 88.70694,30.30814 88.58724,29.874326 88.36541,29.53231 88.14359,29.190299 87.78787,28.921535 87.35824,28.921496 87.26782,28.921485 87.15314,28.86506 87.03422,28.681717 86.9153,28.498377 86.8239,28.206607 86.8239,27.877117 86.8239,27.568948 86.90427,27.266223 87.01149,27.074582 87.11871,26.882939 87.21237,26.842037 87.25333,26.842037 H 87.35824 C 87.78789,26.842037 88.14357,26.573253 88.36541,26.23122 88.58726,25.889186 88.70702,25.455465 88.70699,24.983236 88.70694,24.511079 88.58724,24.077266 88.36541,23.735252 88.14359,23.393228 87.78789,23.124441 87.35824,23.124438 87.26784,23.124438 87.15314,23.068002 87.03422,22.884654 86.9153,22.701316 86.8239,22.409565 86.8239,22.080053 86.8239,21.772322 86.90402,21.469247 87.01097,21.277519 87.11792,21.085792 87.21116,21.04549 87.25126,21.04549 H 87.35824 C 87.78801,21.04549 88.14412,20.776295 88.36593,20.43416 88.58774,20.092027 88.70702,19.65842 88.70699,19.186173 88.70694,18.714024 88.58723,18.2802 88.36541,17.938189 88.14359,17.596178 87.78787,17.327433 87.35824,17.327372 87.26781,17.327356 87.15314,17.270923 87.03422,17.087593 86.9153,16.904256 86.8239,16.612489 86.8239,16.282993 86.8239,15.974833 86.9043,15.672467 87.01149,15.480972 87.11867,15.289482 87.21223,15.24843 87.25333,15.24843 H 87.35824 C 87.78787,15.24843 88.14357,14.979645 88.36541,14.637615 88.58726,14.295586 88.70702,13.861881 88.70699,13.389629 88.70694,12.917493 88.58723,12.483661 88.36541,12.141642 88.1436,11.799626 87.78789,11.530867 87.35824,11.530827 87.26782,11.530817 87.15314,11.474387 87.03422,11.291049 86.9153,11.107711 86.8239,10.815939 86.8239,10.486448 86.8239,10.17827 86.90427,9.8755596 87.01149,9.6839106 87.11871,9.4922626 87.21237,9.4513666 87.25333,9.4513666 H 87.35824 C 87.78788,9.4513666 88.14356,9.1825816 88.36541,8.8405516 88.58727,8.4985226 88.70705,8.0648096 88.70699,7.5925646 88.70693,7.2352796 88.6239,6.9177766 88.52716,6.6551566 88.4129,6.3449356 88.2584,6.0872156 88.04916,5.8965436 87.83991,5.7058716 87.55438,5.5853166 87.26212,5.6185276 87.20213,5.6253326 87.06331,5.5764716 86.8916,5.3818466 86.71988,5.1872166 86.54921,4.8804716 86.44098,4.5627766 86.33873,4.2625876 86.28729,3.9404606 86.29835,3.6894426 86.30819,3.4663956 86.36926,3.3212506 86.42341,3.2569116 86.4327,3.2512496 86.44857,3.2404546 86.48025,3.2217726 V 3.2222916 C 86.88062,2.9864896 87.02636,2.5186216 86.99857,2.0564686 86.97077,1.5943176 86.77534,1.0914166 86.40067,0.63020059 86.02775,0.17114559 85.58131,-0.11744141 85.13873,-0.23073041 84.69616,-0.34401941 84.21418,-0.27929441 83.91297,0.06434059 83.85022,0.13592959 83.65369,0.19431259 83.3528,0.12893859 83.15086,0.08508659 82.91716,-0.01839641 82.69754,-0.18112041 82.45376,-0.36175741 82.26649,-0.59010041 82.16889,-0.79141941 82.0808,-0.97310641 82.07256,-1.1145184 82.0955,-1.1965624 82.1004,-1.2043674 82.11051,-1.2229014 82.12961,-1.2534054 H 82.13013 C 82.36275,-1.6246774 82.31432,-2.0802894 82.12548,-2.4585004 81.93662,-2.8367514 81.60542,-3.1761804 81.16482,-3.4248514 80.72474,-3.6732214 80.26575,-3.7800394 79.84707,-3.7426614 79.42838,-3.7052834 79.01722,-3.5011844 78.83007,-3.1065234 78.79077,-3.0236934 78.68998,-2.9443974 78.47092,-2.9127374 78.25184,-2.8810744 77.94628,-2.9185764 77.64978,-3.0439944 77.37355,-3.1608504 77.14175,-3.3375684 77.00331,-3.5096004 76.87788,-3.6654664 76.83873,-3.8008274 76.84363,-3.8878724 76.84669,-3.8964584 76.85332,-3.9178024 76.86534,-3.9519494 L 76.86585,-3.9524674 C 77.01,-4.3647974 76.86692,-4.7978564 76.60334,-5.1265564 76.33975,-5.4552534 75.94656,-5.7152674 75.46749,-5.8634604 74.98893,-6.0114894 74.51895,-6.0190044 74.1177,-5.8934324 73.71645,-5.7678664 73.35813,-5.4808864 73.25419,-5.0557594 73.23138,-4.9624964 73.14532,-4.8616584 72.93534,-4.7849744 72.72536,-4.7082924 72.41693,-4.6826464 72.0987,-4.7477684 71.80082,-4.8087364 71.51325,-4.9445234 71.33802,-5.0878004 71.1628,-5.2310744 71.13224,-5.3373024 71.13958,-5.3849384 71.14591,-5.4240114 71.15095,-5.4607994 71.15612,-5.4955254 71.2232,-5.9307524 71.01872,-6.3407374 70.69775,-6.6360254 70.37675,-6.9313454 69.9182,-7.1274674 69.39137,-7.1274674 68.92098,-7.1274674 68.48279,-7.0544934 68.11755,-6.8778704 67.75231,-6.7012504 67.43281,-6.3699504 67.40079,-5.9332264 67.39351,-5.8339044 67.32382,-5.7169454 67.12898,-5.6050794 66.93414,-5.4932164 66.63425,-5.4164264 66.30939,-5.4283454 H 66.30887 C 66.00624,-5.4394394 65.72999,-5.5251614 65.54355,-5.6386704 65.3754,-5.7410384 65.29474,-5.8529224 65.27018,-5.9378774 65.27023,-5.9462544 65.26914,-5.9697944 65.26914,-6.0091884 V -6.0097064 C 65.26898,-6.4462794 64.99294,-6.8093514 64.63817,-7.0308314 64.30558,-7.2384714 63.88762,-7.3494134 63.43101,-7.3450264 Z"
       id="path5658-9-7-6-2-8-4-9-4"
       sodipodi:nodetypes="ccccccccccccccccccccccccccccccccccccccccccccccccscssccsccscsscccccscsscccccscsscscccscsscccccscsscccccccccccccccccccccccccccccccccccccccccccccccccccccccccccccccccccccccccccccccccccccccccccccccccccccccccccccccccccccccccccscsscccccscsscccccscsscccccscsssccccscsscccccscsscccscccccccscccccccccccccccccccccccccscccscccccccsccc" />
  </g>
  <g
     id="g10671"
     inkscape:groupmode="layer"
     inkscape:label="F.Mask"
     transform="translate(-42.33514,7.3451227)"
     style="display:inline">
    <path
       inkscape:connector-curvature="0"
       style="color:#000000;font-style:normal;font-variant:normal;font-weight:normal;font-stretch:normal;font-size:medium;line-height:normal;font-family:sans-serif;font-variant-ligatures:normal;font-variant-position:normal;font-variant-caps:normal;font-variant-numeric:normal;font-variant-alternates:normal;font-feature-settings:normal;text-indent:0;text-align:start;text-decoration:none;text-decoration-line:none;text-decoration-style:solid;text-decoration-color:#000000;letter-spacing:normal;word-spacing:normal;text-transform:none;writing-mode:lr-tb;direction:ltr;text-orientation:mixed;dominant-baseline:auto;baseline-shift:baseline;text-anchor:start;white-space:normal;shape-padding:0;clip-rule:nonzero;display:inline;overflow:visible;visibility:visible;opacity:1;isolation:auto;mix-blend-mode:normal;color-interpolation:sRGB;color-interpolation-filters:linearRGB;solid-color:#000000;solid-opacity:1;vector-effect:none;fill:#8400ff;fill-opacity:1;fill-rule:nonzero;stroke:none;stroke-width:0.81438756;stroke-linecap:butt;stroke-linejoin:miter;stroke-miterlimit:4;stroke-dasharray:none;stroke-dashoffset:0;stroke-opacity:1;color-rendering:auto;image-rendering:auto;shape-rendering:auto;text-rendering:auto;enable-background:accumulate"
       d="M 63.431009,-7.3449974 C 63.400709,-7.3447064 63.370689,-7.3442414 63.340059,-7.3429304 63.194329,-7.3368604 63.057419,-7.3173924 62.931299,-7.2928044 62.529149,-7.2145314 62.178659,-7.0510254 61.915859,-6.8101464 61.653059,-6.5692684 61.472779,-6.2258514 61.504509,-5.8530984 61.512629,-5.7576144 61.462769,-5.6312724 61.286959,-5.4877464 61.111129,-5.3442114 60.826259,-5.2164204 60.505609,-5.1699364 60.206959,-5.1266524 59.917199,-5.1586154 59.711339,-5.2345324 59.525439,-5.3030914 59.424989,-5.3972164 59.385259,-5.4743104 59.383569,-5.4832494 59.378369,-5.5046124 59.371309,-5.5409734 V -5.5414904 -5.5420064 C 59.286949,-5.9725804 58.940119,-6.2751604 58.542419,-6.4194724 58.144729,-6.5637844 57.670539,-6.5778434 57.180229,-6.4494444 56.689999,-6.3210634 56.282879,-6.0763134 56.004589,-5.7564644 55.726299,-5.4366214 55.566909,-5.0059024 55.697629,-4.5870264 55.726049,-4.4959554 55.704079,-4.3591694 55.562759,-4.1787824 55.421439,-3.9983954 55.169979,-3.8097414 54.867189,-3.6925074 54.585569,-3.5834774 54.296109,-3.5494584 54.079129,-3.5767524 53.884109,-3.6012834 53.767469,-3.6692364 53.712739,-3.7333314 53.708889,-3.7422234 53.698719,-3.7623824 53.683799,-3.7963774 V -3.7968934 C 53.507039,-4.1986524 53.099789,-4.4157814 52.679729,-4.4655864 52.259669,-4.5153924 51.794559,-4.4207794 51.344929,-4.1829164 50.895209,-3.9449754 50.553389,-3.6126764 50.353769,-3.2377544 50.154159,-2.8628334 50.093699,-2.4073224 50.316049,-2.0285264 50.362979,-1.9485324 50.373479,-1.8102454 50.276259,-1.6011624 50.179019,-1.3920574 49.976119,-1.1493674 49.708339,-0.96347541 49.459309,-0.79059741 49.185469,-0.68788041 48.967809,-0.66220141 48.771559,-0.63904741 48.642339,-0.67690341 48.575589,-0.72524641 48.570099,-0.73241141 48.556419,-0.74854441 48.534759,-0.77692341 V -0.77744041 C 48.179169,-1.2421714 47.529919,-1.2950914 46.959149,-1.0719954 46.643239,-0.94849741 46.353719,-0.74381141 46.095639,-0.48960241 45.690922,-0.09097541 45.446018,0.36226459 45.365963,0.80179159 45.285908,1.2413216 45.377981,1.7087346 45.728731,1.9903496 45.792188,2.0413206 45.854209,2.1726406 45.837768,2.4156466 45.821324,2.6586776 45.719539,2.9738826 45.545798,3.2548726 45.504835,3.3211436 45.463542,3.3815016 45.421774,3.4352226 45.264959,3.6369536 45.064777,3.8013766 44.887956,3.8899756 44.72583,3.9712116 44.599643,3.9801926 44.535523,3.9654236 44.528361,3.9619216 44.521067,3.9583266 44.502451,3.9488866 L 44.501935,3.9483696 C 44.09372,3.7422216 43.606053,3.8726936 43.237411,4.1917656 42.868773,4.5108386 42.582025,5.0273456 42.456581,5.7291396 42.392129,6.0895996 42.340328,6.4878366 42.439526,6.8923766 42.594548,7.5245136 43.07273,8.0245566 43.683896,8.0246076 43.774293,8.0246166 43.888985,8.0805316 44.007907,8.263869 44.126827,8.447207 44.21823,8.739489 44.21823,9.068988 44.21823,9.3772459 44.13772,9.6795309 44.030646,9.8710069 43.923569,10.062482 43.830417,10.10355 43.789316,10.10355 H 43.683896 C 43.254117,10.10355 42.898015,10.372229 42.676204,10.714366 42.454398,11.056503 42.3351,11.490631 42.33514,11.962869 42.33518,12.435029 42.454343,12.868422 42.676204,13.210338 42.898065,13.552253 43.254382,13.821117 43.683896,13.821153 43.774285,13.821161 43.888982,13.877073 44.007907,14.060415 44.12683,14.243757 44.21823,14.53604 44.21823,14.865533 44.21823,15.173789 44.137759,15.476438 44.030646,15.668068 43.923532,15.8597 43.830274,15.900613 43.789316,15.900613 H 43.683896 C 43.254247,15.900613 42.898054,16.169395 42.676204,16.511427 42.454356,16.853464 42.3351,17.287183 42.33514,17.759414 42.33518,18.23156 42.454385,18.665381 42.676204,19.0074 42.898025,19.349417 43.254247,19.618172 43.683896,19.618215 43.774272,19.618215 43.888985,19.674134 44.007907,19.857477 44.126827,20.040818 44.21823,20.333077 44.21823,20.662597 44.21823,20.970392 44.138016,21.272898 44.031161,21.464615 43.92431,21.656337 43.831454,21.697157 43.791383,21.697157 H 43.683896 C 43.254123,21.697157 42.898017,21.965834 42.676204,22.307974 42.454396,22.65011 42.3351,23.084219 42.33514,23.556477 42.33518,24.028634 42.454385,24.462447 42.676204,24.804461 42.898028,25.14648 43.25425,25.415233 43.683896,25.415278 43.774283,25.415286 43.888982,25.471192 44.007907,25.654541 44.12683,25.837886 44.21823,26.130177 44.21823,26.459657 44.21823,26.767505 44.138011,27.069974 44.031161,27.261675 43.924315,27.453382 43.831478,27.49422 43.791383,27.49422 H 43.683896 C 43.25425,27.49422 42.898057,27.763 42.676204,28.105035 42.454356,28.447071 42.335103,28.880783 42.33514,29.353022 42.33518,29.825171 42.454385,30.258993 42.676204,30.601009 42.898028,30.943025 43.25425,31.211784 43.683896,31.211823 43.774283,31.211837 43.888982,31.267741 44.007907,31.451086 44.12683,31.634432 44.21823,31.926722 44.21823,32.256205 44.21823,32.564458 44.137759,32.86711 44.030646,33.05874 43.923532,33.250369 43.830271,33.291284 43.789316,33.291284 H 43.683896 C 43.254244,33.291284 42.898054,33.560064 42.676204,33.902099 42.454356,34.244134 42.3351,34.677855 42.33514,35.150086 42.33518,35.62224 42.454382,36.056051 42.676204,36.39807 42.898025,36.740086 43.25425,37.00886 43.683896,37.008887 43.774288,37.008895 43.888982,37.064806 44.007907,37.248147 44.12683,37.43149 44.21823,37.723764 44.21823,38.053266 44.21823,38.361516 44.137759,38.664165 44.030646,38.855803 43.923532,39.047438 43.830266,39.088345 43.789316,39.088345 H 43.683896 C 43.25425,39.088345 42.898057,39.357127 42.676204,39.699162 42.454353,40.041192 42.3351,40.47491 42.33514,40.947146 42.335188,41.413487 42.59748,41.739364 42.769223,41.937783 42.904587,42.094168 42.972254,42.294222 42.995048,42.383752 H 43.402776 43.81877 L 52.606869,42.384267 V 39.195832 H 49.963099 L 49.178129,38.414486 V 32.253104 H 48.458279 L 48.458799,20.135496 V 19.371718 18.224501 17.156349 L 48.459319,16.165196 V 15.247938 L 48.459829,14.401479 48.460349,13.623232 48.460869,12.910097 48.461379,12.258458 48.462419,11.666246 48.463449,11.129845 48.464999,10.64667 48.466549,10.213621 48.468619,9.8275979 48.470689,9.4860169 48.473269,9.18526 48.475849,8.922744 48.478949,8.695885 48.482569,8.501064 48.486189,8.3357 48.490319,8.196173 48.494969,8.0804176 48.500139,7.9853336 48.505829,7.9073016 48.512029,7.8437396 48.518229,7.7915466 48.525459,7.7481386 48.533209,7.7104146 48.540959,7.6747576 48.586439,7.5026756 48.746119,7.0375876 48.963159,6.5394266 49.230329,6.0216286 49.541419,5.4976296 49.888169,4.9803486 50.264889,4.4827046 50.731009,3.9535376 51.283949,3.4181696 51.907679,2.8926206 52.594459,2.3805066 53.336539,1.8864806 54.127709,1.4146746 54.960209,0.96922359 55.826309,0.55374459 56.719279,0.17237259 57.631879,-0.17024141 58.556379,-0.47048141 59.486549,-0.72421341 59.601789,-0.75263541 60.853909,-1.0115344 62.146849,-1.1970524 63.479069,-1.3102244 64.848499,-1.3500144 66.253059,-1.3164254 67.691219,-1.2094544 68.757299,-1.0854314 70.159279,-0.86218941 71.518889,-0.57538541 72.833019,-0.22605241 74.099099,0.18477559 75.313489,0.65554759 76.474139,1.1862646 77.577439,1.7753756 78.620779,2.4223646 78.892079,2.6063326 79.478099,3.0347306 79.994339,3.4595106 80.449099,3.8910096 80.851649,4.3385266 81.211319,4.8118826 81.535849,5.3203796 81.835569,5.8738336 81.918259,6.0459166 82.033489,6.3053326 82.139429,6.5637146 82.220049,6.7838556 82.246399,6.8603376 82.271209,6.9301006 82.294459,6.9946956 82.316159,7.0577416 82.336319,7.1213036 82.354409,7.1884826 82.371459,7.2628966 82.386959,7.3471296 82.401429,7.4442806 82.413829,7.5569356 82.425719,7.6887106 82.436049,7.8421896 82.445359,8.0209896 82.454139,8.227179 82.461379,8.464374 82.467579,8.735159 82.473259,9.04315 82.477909,9.3904159 82.482049,9.7805729 82.485149,10.216722 82.487729,10.701447 82.489799,11.238365 82.491859,11.829543 82.492899,12.478599 82.493929,13.188634 82.494449,13.96223 V 14.802489 15.711994 16.694878 17.753212 18.890611 20.109141 32.253104 H 81.774589 V 38.410869 L 80.993249,39.195832 H 78.345859 V 42.384267 L 88.279109,42.383752 H 88.686319 89.093529 C 89.093489,41.846129 88.830349,41.379372 88.502869,41.057218 88.175379,40.735061 87.787859,40.515174 87.358229,40.515132 87.267829,40.515132 87.153139,40.458693 87.034219,40.275353 86.915299,40.092015 86.823899,39.800278 86.823899,39.47075 86.823899,39.163016 86.904019,38.859938 87.010969,38.668216 87.117919,38.476491 87.211149,38.436189 87.251259,38.436189 H 87.358229 C 87.787879,38.436189 88.143559,38.167402 88.365409,37.825375 88.587259,37.48334 88.707019,37.049617 88.706989,36.577388 88.706939,36.105234 88.587219,35.671423 88.365409,35.329402 88.143579,34.987383 87.787889,34.7186 87.358229,34.718587 87.267839,34.718587 87.153139,34.662149 87.034219,34.478809 86.915299,34.295466 86.823899,34.003717 86.823899,33.674205 86.823899,33.366056 86.904269,33.063322 87.011479,32.871671 87.118699,32.680023 87.212369,32.639126 87.253329,32.639126 H 87.358229 C 87.787869,32.639126 88.143559,32.370341 88.365409,32.028312 88.587259,31.686282 88.707019,31.25258 88.706989,30.780325 88.706939,30.308168 88.587229,29.874352 88.365409,29.532338 88.143579,29.190325 87.787869,28.921564 87.358229,28.921524 87.267819,28.921513 87.153139,28.865088 87.034219,28.681745 86.915299,28.498405 86.823899,28.206636 86.823899,27.877144 86.823899,27.568973 86.904269,27.26625 87.011479,27.074607 87.118699,26.882967 87.212369,26.842065 87.253329,26.842065 H 87.358229 C 87.787889,26.842065 88.143559,26.57328 88.365409,26.231248 88.587259,25.889213 88.707019,25.455489 88.706989,24.983264 88.706939,24.511107 88.587229,24.077293 88.365409,23.735277 88.143579,23.393255 87.787889,23.124468 87.358229,23.124462 87.267839,23.124462 87.153139,23.06803 87.034219,22.884681 86.915299,22.701343 86.823899,22.409593 86.823899,22.080081 86.823899,21.772349 86.904019,21.469271 87.010969,21.277546 87.117919,21.085819 87.211159,21.045517 87.251259,21.045517 H 87.358229 C 87.788009,21.045517 88.144119,20.776322 88.365919,20.434187 88.587729,20.092054 88.707019,19.658447 88.706989,19.1862 88.706939,18.714051 88.587229,18.280225 88.365409,17.938214 88.143589,17.596205 87.787859,17.327458 87.358229,17.327399 87.267809,17.327381 87.153139,17.27095 87.034219,17.087621 86.915299,16.90428 86.823899,16.612514 86.823899,16.283017 86.823899,15.97486 86.904299,15.672491 87.011479,15.480999 87.118659,15.28951 87.212229,15.248457 87.253329,15.248457 H 87.358229 C 87.787869,15.248457 88.143559,14.979669 88.365409,14.63764 88.587259,14.295612 88.707019,13.861907 88.706989,13.389655 88.706939,12.917519 88.587219,12.483687 88.365409,12.141669 88.143589,11.799651 87.787889,11.530893 87.358229,11.530854 87.267819,11.530845 87.153139,11.474413 87.034219,11.291075 86.915299,11.107737 86.823899,10.815965 86.823899,10.486473 86.823899,10.178296 86.904269,9.8755849 87.011479,9.6839379 87.118699,9.4922899 87.212369,9.4513939 87.253329,9.4513939 H 87.358229 C 87.787879,9.4513939 88.143549,9.182609 88.365409,8.840579 88.587259,8.498548 88.707039,8.0648376 88.706989,7.5925926 88.706919,7.2353056 88.623899,6.9178056 88.527159,6.6551816 88.412899,6.3449616 88.258389,6.0872426 88.049149,5.8965716 87.839909,5.7058976 87.554379,5.5853426 87.262119,5.6185516 87.202129,5.6253596 87.063309,5.5764966 86.891599,5.3818736 86.719869,5.1872446 86.549209,4.8804976 86.440979,4.5628026 86.338729,4.2626126 86.287289,3.9404866 86.298349,3.6894706 86.308189,3.4664236 86.369259,3.3212776 86.423409,3.2569396 86.432699,3.2512756 86.448569,3.2404806 86.480249,3.2217996 V 3.2223156 C 86.880619,2.9865166 87.026359,2.5186476 86.998559,2.0564956 86.970769,1.5943446 86.775339,1.0914436 86.400669,0.63022659 86.027749,0.17117159 85.581309,-0.11741441 85.138729,-0.23070341 84.696159,-0.34399141 84.214179,-0.27926641 83.912969,0.06436959 83.850219,0.13595559 83.653689,0.19433859 83.352789,0.12896459 83.150859,0.08511459 82.917159,-0.01837041 82.697539,-0.18109341 82.453759,-0.36173141 82.266489,-0.59007341 82.168889,-0.79139241 82.080799,-0.97307941 82.072559,-1.1144904 82.095509,-1.1965354 82.100399,-1.2043404 82.110509,-1.2228754 82.129609,-1.2533794 H 82.130129 C 82.362749,-1.6246514 82.314319,-2.0802614 82.125479,-2.4584744 81.936619,-2.8367234 81.605419,-3.1761534 81.164809,-3.4248234 80.724739,-3.6731934 80.265749,-3.7800104 79.847069,-3.7426334 79.428379,-3.7052564 79.017219,-3.5011564 78.830069,-3.1064964 78.790769,-3.0236644 78.689979,-2.9443704 78.470919,-2.9127104 78.251839,-2.8810474 77.946279,-2.9185494 77.649779,-3.0439684 77.373549,-3.1608234 77.141749,-3.3375424 77.003309,-3.5095724 76.877879,-3.6654404 76.838729,-3.8008014 76.843629,-3.8878444 76.846689,-3.8964304 76.853319,-3.9177754 76.865339,-3.9519224 L 76.865849,-3.9524394 C 77.009999,-4.3647704 76.866919,-4.7978304 76.603329,-5.1265284 76.339749,-5.4552264 75.946559,-5.7152414 75.467489,-5.8634344 74.988919,-6.0114624 74.518949,-6.0189744 74.117699,-5.8934064 73.716449,-5.7678384 73.358129,-5.4808574 73.254189,-5.0557314 73.231379,-4.9624674 73.145319,-4.8616324 72.935339,-4.7849474 72.725359,-4.7082634 72.416929,-4.6826214 72.098699,-4.7477404 71.800819,-4.8087064 71.513249,-4.9444954 71.338019,-5.0877714 71.162789,-5.2310474 71.132239,-5.3372744 71.139589,-5.3849104 71.145909,-5.4239834 71.150949,-5.4607724 71.156119,-5.4954984 71.223199,-5.9307224 71.018719,-6.3407094 70.697749,-6.6359974 70.376749,-6.9313184 69.918199,-7.1274394 69.391369,-7.1274394 68.920979,-7.1274394 68.482789,-7.0544634 68.117549,-6.8778424 67.752309,-6.7012224 67.432809,-6.3699204 67.400799,-5.9331974 67.393509,-5.8338754 67.323809,-5.7169164 67.128979,-5.6050524 66.934139,-5.4931874 66.634249,-5.4163984 66.309389,-5.4283184 H 66.308869 C 66.006229,-5.4394094 65.729989,-5.5251364 65.543539,-5.6386414 65.375399,-5.7410074 65.294739,-5.8528924 65.270179,-5.9378484 65.270239,-5.9462244 65.269139,-5.9697674 65.269139,-6.0091614 V -6.0096784 C 65.268979,-6.4462494 64.992939,-6.8093244 64.638169,-7.0308044 64.305579,-7.2384434 63.887619,-7.3493844 63.431009,-7.3449974 Z"
       id="path5658-9-7-6-2-8-4-9" />
  </g>
  <g
     id="g10673"
     inkscape:groupmode="layer"
     inkscape:label="Dwgs.User-disabled"
     transform="translate(-42.33514,7.3451227)" />
  <g
     id="g10675"
     inkscape:groupmode="layer"
     inkscape:label="Cmts.User-disabled"
     transform="translate(-42.33514,7.3451227)" />
  <g
     id="g10677"
     inkscape:groupmode="layer"
     inkscape:label="Eco1.User-disabled"
     transform="translate(-42.33514,7.3451227)" />
  <g
     id="g10679"
     inkscape:groupmode="layer"
     inkscape:label="Eco2.User-disabled"
     transform="translate(-42.33514,7.3451227)" />
  <g
     id="g10681"
     inkscape:groupmode="layer"
     inkscape:label="Edge.Cuts"
     transform="translate(-42.33514,7.3451227)" />
  <g
     id="g10683"
     inkscape:groupmode="layer"
     inkscape:label="Margin-disabled"
     transform="translate(-42.33514,7.3451227)" />
  <g
     id="g10685"
     inkscape:groupmode="layer"
     inkscape:label="B.CrtYd-disabled"
     transform="translate(-42.33514,7.3451227)" />
  <g
     id="g10687"
     inkscape:groupmode="layer"
     inkscape:label="F.CrtYd-disabled"
     transform="translate(-42.33514,7.3451227)" />
  <g
     id="g10689"
     inkscape:groupmode="layer"
     inkscape:label="B.Fab-disabled"
     transform="translate(-42.33514,7.3451227)" />
  <g
     id="g10691"
     inkscape:groupmode="layer"
     inkscape:label="F.Fab-disabled"
     transform="translate(-42.33514,7.3451227)" />
  <g
     id="g10693"
     inkscape:groupmode="layer"
     inkscape:label="Drill"
     transform="translate(-42.33514,7.3451227)" />
</svg>
