<?xml version="1.0" encoding="UTF-8" standalone="no"?>
<!-- Created with Inkscape (http://www.inkscape.org/) -->

<svg
   xmlns:dc="http://purl.org/dc/elements/1.1/"
   xmlns:cc="http://creativecommons.org/ns#"
   xmlns:rdf="http://www.w3.org/1999/02/22-rdf-syntax-ns#"
   xmlns:svg="http://www.w3.org/2000/svg"
   xmlns="http://www.w3.org/2000/svg"
   xmlns:sodipodi="http://sodipodi.sourceforge.net/DTD/sodipodi-0.dtd"
   xmlns:inkscape="http://www.inkscape.org/namespaces/inkscape"
   width="37.131763mm"
   height="45.10144mm"
   viewBox="0 0 37.131763 45.10144"
   version="1.1"
   id="svg2254"
   inkscape:version="0.92.5 (2060ec1f9f, 2020-04-08)"
   sodipodi:docname="guide-bar2.svg">
  <defs
     id="defs2248" />
  <sodipodi:namedview
     id="base"
     pagecolor="#ffffff"
     bordercolor="#666666"
     borderopacity="1.0"
     inkscape:pageopacity="0.0"
     inkscape:pageshadow="2"
     inkscape:zoom="4"
     inkscape:cx="41.92594"
     inkscape:cy="80.553587"
     inkscape:document-units="mm"
     inkscape:current-layer="g2838"
     showgrid="true"
     inkscape:window-width="1858"
     inkscape:window-height="1177"
     inkscape:window-x="54"
     inkscape:window-y="-8"
     inkscape:window-maximized="1"
     borderlayer="true"
     gridtolerance="1"
     objecttolerance="1"
     guidetolerance="1"
     fit-margin-top="0"
     fit-margin-left="0"
     fit-margin-right="0"
     fit-margin-bottom="0" />
  <metadata
     id="metadata2251">
    <rdf:RDF>
      <cc:Work
         rdf:about="">
        <dc:format>image/svg+xml</dc:format>
        <dc:type
           rdf:resource="http://purl.org/dc/dcmitype/StillImage" />
        <dc:title></dc:title>
      </cc:Work>
    </rdf:RDF>
  </metadata>
  <g
     id="g2806"
     sodipodi:insensitive="true"
     inkscape:groupmode="layer"
     inkscape:label="[fixed] BG"
     style="display:inline"
     transform="translate(87.738141,155.46335)">
    <rect
       id="rect2804"
       style="fill:#ffffff;fill-opacity:1;stroke:none"
       height="38"
       width="29"
       y="0"
       x="0" />
  </g>
  <g
     id="g2810"
     inkscape:groupmode="layer"
     inkscape:label="B.Cu-disabled"
     style="display:inline"
     transform="translate(87.738141,155.46335)" />
  <g
     id="g2812"
     inkscape:groupmode="layer"
     inkscape:label="B.Adhes-disabled"
     style="display:inline"
     transform="translate(87.738141,155.46335)" />
  <g
     id="g2814"
     inkscape:groupmode="layer"
     inkscape:label="F.Adhes-disabled"
     style="display:inline"
     transform="translate(87.738141,155.46335)" />
  <g
     id="g2816"
     inkscape:groupmode="layer"
     inkscape:label="B.Paste-disabled"
     style="display:inline"
     transform="translate(87.738141,155.46335)" />
  <g
     id="g2818"
     inkscape:groupmode="layer"
     inkscape:label="F.Paste-disabled"
     style="display:inline"
     transform="translate(87.738141,155.46335)" />
  <g
     id="g2820"
     inkscape:groupmode="layer"
     inkscape:label="B.SilkS-disabled"
     style="display:inline"
     transform="translate(87.738141,155.46335)" />
  <g
     id="g2822"
     inkscape:groupmode="layer"
     inkscape:label="F.SilkS-disabled"
     style="display:inline"
     transform="translate(87.738141,155.46335)" />
  <g
     id="g2824"
     inkscape:groupmode="layer"
     inkscape:label="B.Mask-disabled"
     style="display:inline"
     transform="translate(87.738141,155.46335)" />
  <g
     id="g2828"
     inkscape:groupmode="layer"
     inkscape:label="Dwgs.User-disabled"
     style="display:inline"
     transform="translate(87.738141,155.46335)" />
  <g
     id="g2830"
     inkscape:groupmode="layer"
     inkscape:label="Cmts.User-disabled"
     style="display:inline"
     transform="translate(87.738141,155.46335)" />
  <g
     id="g2834"
     inkscape:groupmode="layer"
     inkscape:label="Eco2.User-disabled"
     style="display:inline"
     transform="translate(87.738141,155.46335)" />
  <g
     id="g2836"
     inkscape:groupmode="layer"
     inkscape:label="Edge.Cuts"
     style="display:inline"
     transform="translate(87.738141,155.46335)" />
  <g
     id="g2838"
     inkscape:groupmode="layer"
     inkscape:label="Margin-disabled"
     style="display:inline"
     transform="translate(87.738141,155.46335)" />
  <g
     id="g2840"
     inkscape:groupmode="layer"
     inkscape:label="B.CrtYd-disabled"
     style="display:inline"
     transform="translate(87.738141,155.46335)" />
  <g
     id="g2842"
     inkscape:groupmode="layer"
     inkscape:label="F.CrtYd-disabled"
     style="display:inline"
     transform="translate(87.738141,155.46335)" />
  <g
     id="g2844"
     inkscape:groupmode="layer"
     inkscape:label="B.Fab-disabled"
     style="display:inline"
     transform="translate(87.738141,155.46335)" />
  <g
     id="g2846"
     inkscape:groupmode="layer"
     inkscape:label="F.Fab-disabled"
     style="display:inline"
     transform="translate(87.738141,155.46335)" />
  <g
     id="g2848"
     inkscape:groupmode="layer"
     inkscape:label="Drill"
     style="display:inline"
     transform="translate(87.738141,155.46335)" />
  <g
     id="g2826"
     inkscape:groupmode="layer"
     inkscape:label="F.Mask"
     style="display:inline"
     transform="translate(87.738141,155.46335)">
    <path
       style="display:inline;opacity:1;fill:#008400;fill-opacity:1;stroke:#008400;stroke-width:0.03779528;stroke-linecap:butt;stroke-linejoin:miter;stroke-miterlimit:4;stroke-dasharray:none;stroke-opacity:0.50196078"
       d="m -265.22656,-587.55859 -4.40625,0.11914 -3.34571,0.2207 -3.35351,0.35937 -3.35547,0.4961 -3.34766,0.63086 -3.33007,0.76367 -3.30665,0.89648 -3.27343,1.02539 -3.23242,1.15235 -3.1836,1.2793 -3.125,1.40039 -3.06055,1.52343 -2.98828,1.64258 -2.90429,1.75977 -2.81641,1.875 -2.7168,1.99023 -2.61132,2.09961 -1.12305,1.00586 -1.11524,1.10352 -1.09765,1.1914 -1.07227,1.26172 -1.03711,1.32031 -0.99023,1.36524 -0.93945,1.39453 -0.87891,1.41211 -0.80664,1.41601 -0.72852,1.40235 -0.64062,1.3789 -0.54297,1.33985 -0.43945,1.28711 -0.32227,1.2207 -0.20117,1.14063 -0.0703,1.04492 v 111.42773 l 19.47656,19.47656 h 101.32617 l 19.5,-19.5 v -111.40429 l -0.0547,-1.25586 -0.16601,-1.30274 -0.26953,-1.33984 -0.36719,-1.36523 -0.45899,-1.38282 -0.54492,-1.38867 -0.62695,-1.38867 -0.70313,-1.37695 -0.77148,-1.35743 -0.83789,-1.32617 -0.89453,-1.28711 -0.94922,-1.23828 -0.99805,-1.17969 -1.03906,-1.11132 -1.07617,-1.03516 -1.10742,-0.94922 -3.05469,-2.32226 -3.18359,-2.16016 -3.30274,-2.00195 -3.4082,-1.84571 -3.50782,-1.6914 -3.5957,-1.54102 -3.67383,-1.39062 -3.74023,-1.24414 -3.79883,-1.10157 -3.8457,-0.95898 -3.88281,-0.82227 -3.91211,-0.68554 -3.92774,-0.55078 -3.93555,-0.41993 -3.93359,-0.29297 -3.91992,-0.16406 -4.45117,-0.0391 z m 3.53125,2.26367 h 0.51562 c 0.2089,0 0.58441,0.26195 1.09571,0.71289 l 0.63671,0.5625 1.09766,0.0664 c 0.60306,0.0378 1.23416,0.12311 1.40234,0.19531 0.52683,0.22601 1.65401,1.03363 1.78516,1.27929 l 0.125,0.23438 0.57422,-0.41211 c 0.31597,-0.22753 0.71267,-0.513 0.88086,-0.63281 0.1683,-0.1198 0.41056,-0.2168 0.53906,-0.2168 0.12858,0 0.31907,-0.0464 0.42188,-0.10156 0.3967,-0.21241 0.62189,0.13291 1.29687,1.97656 0.27742,0.75829 0.32151,0.77945 1.89258,0.92383 0.76823,0.0703 1.47265,0.16764 1.56445,0.21484 0.0918,0.0473 0.44828,0.29781 0.79297,0.5586 0.34469,0.26078 0.91167,0.63348 1.25977,0.82812 0.54211,0.30293 0.63281,0.39363 0.63281,0.62305 0,0.32731 1.06377,4.17563 1.43945,5.20703 0.14929,0.40993 0.41605,1.13504 0.5918,1.60937 l 0.32031,0.86133 -0.125,0.92774 c -0.0684,0.50974 -0.18742,1.03619 -0.26562,1.17187 -0.19276,0.33487 -3.09325,2.2207 -3.41602,2.2207 -0.34004,10e-6 -0.67187,-0.33165 -0.67187,-0.66992 0,-0.18179 0.24566,-0.6447 0.72461,-1.36132 0.89125,-1.33414 0.905,-1.46072 0.23632,-2.09376 -0.75095,-0.71114 -0.88907,-0.7746 -1.81445,-0.8457 -0.46148,-0.034 -1.18771,-0.1055 -1.61328,-0.1543 -0.42554,-0.0484 -1.10938,-0.10847 -1.51953,-0.13867 l -0.7461,-0.0527 -0.34765,0.62109 c -0.19125,0.34167 -0.67218,0.99383 -1.07031,1.44922 l -0.72461,0.82813 h -0.75782 c -0.53933,0 -0.79144,-0.0404 -0.87304,-0.13868 -0.0979,-0.11792 -0.20626,-0.0987 -0.73438,0.13868 -0.34016,0.15269 -1.04371,0.42146 -1.56445,0.5957 -0.92394,0.30916 -0.99409,0.31756 -2.9043,0.35156 -0.20863,0.002 -0.24946,-0.004 -0.41992,-0.002 -0.17049,-0.002 -0.21091,0.006 -0.41992,0.002 -1.91021,-0.034 -1.98036,-0.0424 -2.9043,-0.35156 -0.52078,-0.1742 -1.22429,-0.44301 -1.56445,-0.5957 -0.528,-0.23738 -0.63648,-0.2566 -0.73438,-0.13868 -0.0816,0.0983 -0.33359,0.13868 -0.87304,0.13868 h -0.75782 l -0.72461,-0.82813 c -0.39813,-0.45539 -0.87906,-1.10755 -1.07031,-1.44922 l -0.34765,-0.62109 -0.7461,0.0527 c -0.41011,0.0287 -1.09399,0.0903 -1.51953,0.13867 -0.42557,0.0488 -1.1518,0.1203 -1.61328,0.1543 -0.92534,0.071 -1.0635,0.13471 -1.81445,0.8457 -0.66879,0.63304 -0.65504,0.75962 0.23632,2.09376 0.47895,0.71662 0.72461,1.17953 0.72461,1.36132 0,0.33846 -0.33171,0.66992 -0.67187,0.66992 -0.3227,10e-6 -3.22326,-1.88583 -3.41602,-2.2207 -0.0782,-0.13572 -0.19722,-0.66213 -0.26562,-1.17187 l -0.125,-0.92774 0.32031,-0.86133 c 0.17594,-0.47433 0.44251,-1.19944 0.5918,-1.60937 0.37568,-1.0314 1.43945,-4.87972 1.43945,-5.20703 0,-0.22957 0.0907,-0.31993 0.63281,-0.62305 0.34817,-0.19472 0.91508,-0.56734 1.25977,-0.82812 0.34454,-0.26075 0.70117,-0.5113 0.79297,-0.5586 0.0919,-0.0472 0.79622,-0.14414 1.56445,-0.21484 1.57092,-0.14434 1.61516,-0.16558 1.89258,-0.92383 0.67498,-1.8435 0.90017,-2.18897 1.29687,-1.97656 0.1025,0.0552 0.29337,0.10156 0.42188,0.10156 0.12862,0 0.37087,0.097 0.53906,0.2168 0.1683,0.11966 0.56489,0.40528 0.88086,0.63281 l 0.57422,0.41211 0.125,-0.23438 c 0.13122,-0.24574 1.25829,-1.05328 1.78516,-1.27929 0.16822,-0.0722 0.79928,-0.15752 1.40234,-0.19531 l 1.09766,-0.0664 0.63671,-0.5625 c 0.5113,-0.45097 0.88405,-0.71289 1.09571,-0.71289 z m 0.25586,20.15625 1.96289,0.0957 1.92773,0.28906 1.88086,0.47266 1.82227,0.65234 1.75195,0.82618 1.66406,0.99609 1.56641,1.16016 1.45508,1.31836 1.31836,1.45507 1.16015,1.56641 0.9961,1.66602 0.82812,1.75 0.65235,1.82226 0.47265,1.88086 0.28906,1.92969 0.0957,1.96093 -0.0957,1.96094 -0.28906,1.92774 -0.47265,1.88086 -0.65235,1.82422 -0.82812,1.75 -0.9961,1.66406 -1.16015,1.5664 -1.31836,1.45508 -1.45508,1.31836 -1.56641,1.16016 -1.66406,0.99609 -1.75195,0.82813 -1.82227,0.65234 -1.88086,0.47266 -1.92773,0.28711 -1.96289,0.0977 -2.02735,-0.10351 -1.9707,-0.30079 -1.90039,-0.48828 -1.82422,-0.66796 -1.73437,-0.83594 -1.63477,-0.99219 -1.5293,-1.14258 -1.4082,-1.28125 -1.28125,-1.4082 -1.14062,-1.52734 -0.99415,-1.63672 -0.83593,-1.73438 -0.66797,-1.82226 -0.48828,-1.90235 -0.30078,-1.9707 -0.10352,-2.02735 0.10352,-2.02929 0.30078,-1.97071 0.48828,-1.90039 0.66797,-1.82421 0.83593,-1.73438 0.99415,-1.63476 1.14062,-1.52735 1.28125,-1.41015 1.4082,-1.2793 1.5293,-1.14258 1.63477,-0.99414 1.73437,-0.83594 1.82422,-0.66601 1.90039,-0.49024 1.9707,-0.30078 z m -42.13282,5.27929 v 2.92579 a 21.143167,21.143167 0 0 0 -21.14257,21.14257 h -2.92578 a 24.068032,24.068032 0 0 1 24.06835,-24.06836 z m 84.26758,0 a 24.068032,24.068032 0 0 1 24.06836,24.06836 h -2.92578 a 21.143167,21.143167 0 0 0 -21.14258,-21.14257 z m -84.26758,5.85157 v 2.92383 a 15.291969,15.291969 0 0 0 -15.29101,15.29296 h -2.92774 a 18.217323,18.217323 0 0 1 18.21875,-18.21679 z m 84.26758,0 a 18.217323,18.217323 0 0 1 18.21875,18.21679 h -2.92773 a 15.291969,15.291969 0 0 0 -15.29102,-15.29296 z m -73.89843,4.1289 v 15.84766 l -9.25391,9.43945 h -16.07617 z m 63.52929,0 25.33203,25.28711 h -16.07812 l -9.25391,-9.43945 z m -73.89844,1.72071 v 2.92773 a 9.441259,9.441259 0 0 0 -9.4414,9.43945 h -2.92578 a 12.366614,12.366614 0 0 1 12.36718,-12.36718 z m 84.26758,0 a 12.366614,12.366614 0 0 1 12.36719,12.36718 h -2.92578 a 9.441259,9.441259 0 0 0 -9.44141,-9.43945 z m -72.91992,17.39648 3.56055,3.57617 -7.25391,7.15039 -3.47265,-3.4082 z m 61.57422,0 7.16601,7.31836 -3.4746,3.4082 -7.25391,-7.15039 z m -54.48438,2.13281 13.47461,12.34766 a 36.875675,36.875675 0 0 1 6.76368,-1.3125 c 0.42995,-1.43038 1.73381,-1.39258 2.32421,-1.39258 l 1.13477,-4.62695 1.13477,4.62695 c 0.59576,0 1.91833,-0.0389 2.33593,1.42969 a 36.875675,36.875675 0 0 1 6.70118,1.32031 l 13.52343,-12.39258 11.1211,10.61719 c 1.30484,-1.51873 4.13993,-4.70295 4.48047,-4.42969 0.38935,0.31215 -0.0707,1.2761 -0.29297,1.70703 -1.80397,3.50075 -0.17733,6.785 2.66015,9.44336 0.34427,0.32255 0.94256,5.77083 0.29297,5.9375 -0.25345,0.065 -4.43366,-2.98738 -4.80859,-3.36718 -0.28335,-0.28706 -0.36313,-4.69441 -0.79883,-4.72461 -0.43555,-0.0311 -0.55914,2.83998 -0.78516,4.78515 -0.0114,0.0979 -0.0403,0.36188 0.77539,1.05274 1.65495,1.40167 4.96485,4.20508 4.96485,4.20508 -0.86619,3.39802 -1.93835,6.18025 -3.49219,9.15625 -0.0684,-7.02225 -3.02371,-10.89989 -4.81445,-11.52344 -1.74138,-0.60639 -2.76557,0.31766 -4.14453,2.06641 a 36.875675,36.875675 0 0 1 6.98828,14.31445 l 0.41406,-0.57617 h 6.39062 v 3.64648 h -4.49609 v 5.35156 h 4.49609 v 3.625 h -4.49609 v 5.41602 h 4.49609 v 3.58008 h -4.49609 v 4.78515 h -1.89453 l -1.39453,-1.83007 v -3.62305 a 36.875675,36.875675 0 0 1 -1.54883,3.74023 l 4.03906,6.62305 -5.7832,-3.33984 a 36.875675,36.875675 0 0 1 -7.83984,9.18359 h 1.20312 c 3.19918,-0.011 8.00586,3.95074 8.00586,5.00391 v 3.40625 h -5.31836 v 1.64453 h 1.83789 v 5.98047 h -6.76758 c 0.36095,-0.4348 0.81641,-0.91259 0.81641,-1.75977 0,-0.77129 -0.17942,-1.36239 -1.41797,-2.44141 -1.26006,-1.09776 -1.37684,-1.43224 -1.11719,-1.64843 0.25981,-0.21619 0.71477,-0.0266 0.99219,0.1582 l 1.29688,-1.03906 c -0.41794,-0.85021 -2.56567,-1.27217 -3.39649,-0.55274 -1.49578,1.29528 -0.89089,2.66092 0.68555,4.11328 0.60805,0.56024 1.48944,1.23092 0.96484,1.72657 -0.5246,0.49564 -1.25082,-0.20041 -1.71094,-0.66797 l -1.27343,1.00586 c 0.29975,0.532 0.53932,0.7257 0.9082,1.10547 h -5.35742 v -1.24219 h -2.61133 v -1.20703 h 2.42187 v -1.69336 h -2.42187 V -442.75 h 2.60742 v -1.64453 h -4.35156 v 7.62305 h -7.06055 v -2.44922 h 2.32617 v -1.69336 h -2.33007 l 0.002,-1.83594 h 2.60937 l -0.002,-1.64258 h -2.17578 l -2.17383,-0.002 v 7.62305 h -6.58203 c 1.48524,-1.30409 1.65839,-2.50141 1.65039,-4.14063 h -3.38476 v 1.64258 h 1.44921 c -0.14611,0.5212 -0.64528,1.22265 -1.62304,1.22265 -0.97777,0 -2.32627,-0.99171 -2.32227,-2.23828 0.005,-1.00085 0.74825,-2.41601 2.30274,-2.41601 0.96986,0 1.4038,0.36774 1.77343,0.6289 l 1.09961,-1.1914 c -0.94594,-0.71377 -1.12282,-1.12838 -2.89062,-1.11328 -2.06623,0.0167 -3.9961,1.40456 -3.9961,4 0,1.6111 0.52987,2.33286 1.95899,3.60547 h -6.24805 c 0,0 -2.96227,-7.99219 -3.51367,-7.99219 -0.55143,0 -3.51563,7.99219 -3.51563,7.99219 h -4.49023 v -7.62696 c 0,0 -0.4064,-0.024 -0.53906,0.0527 -0.36601,0.21127 -1.84339,2.51004 -2.85547,3.83008 -0.80965,-1.18749 -1.49341,-2.04612 -2.14844,-3.2793 -0.16815,-0.31401 -0.16019,-0.76628 -0.16015,-2.20703 v -1.79493 c 2.64378,-3.48327 5.18843,-5.01625 9.3125,-5.03515 a 36.875675,36.875675 0 0 1 -7.79102,-9.14258 l -5.75977,3.32422 4.02149,-6.5918 a 36.875675,36.875675 0 0 1 -1.5293,-3.74219 v 3.59376 l -1.39648,1.83007 h -1.89258 v -4.78515 h -4.49805 v -3.58008 h 4.49805 v -5.41602 h -4.49805 v -3.625 h 4.49805 v -5.35156 h -4.49805 v -3.64648 h 6.39063 l 0.41601,0.57812 a 36.875675,36.875675 0 0 1 6.95899,-14.35156 c -1.36388,-1.72399 -2.38836,-2.63325 -4.11719,-2.03125 -1.7907,0.62355 -4.74605,4.50119 -4.81445,11.52344 -1.55388,-2.976 -2.626,-5.75823 -3.49219,-9.15625 0,0 3.3099,-2.80341 4.96484,-4.20508 0.81579,-0.69067 0.78669,-0.95484 0.77539,-1.05274 -0.22594,-1.94517 -0.34945,-4.81535 -0.78515,-4.78515 -0.43563,0.0311 -0.51537,4.43736 -0.79883,4.72461 -0.37489,0.3798 -4.55499,3.43218 -4.80859,3.36718 -0.64967,-0.1666 -0.0514,-5.6151 0.29296,-5.9375 2.83741,-2.65836 4.46417,-5.94261 2.66016,-9.44336 -0.22187,-0.43093 -0.68222,-1.39484 -0.29297,-1.70703 0.34069,-0.27318 3.17563,2.91096 4.48047,4.42969 z m 23.69727,13.25782 a 34.476871,34.476871 0 0 0 -34.47656,34.47851 34.476871,34.476871 0 0 0 34.47656,34.47656 34.476871,34.476871 0 0 0 34.47656,-34.47656 34.476871,34.476871 0 0 0 -34.47656,-34.47851 z m -65.91797,21.2207 h 9.5332 l 4.59375,5.15234 v 4.80469 l -1.29882,1.25 h -12.82813 z m 122.30274,0 h 9.5332 v 11.20703 h -12.83008 l -1.29687,-1.25 v -4.80469 z m -101.36719,4.20312 h 1.4082 l 0.0508,4.45508 h 4.45117 v 3.70703 h -4.39062 l -0.0586,5.28711 h 4.44921 v 3.71875 h -4.44921 v 5.41602 h 4.44921 v 3.80273 h -5.99804 l -1.2168,-1.30468 v -23.90235 z m 88.55664,0 h 1.4082 l 1.30469,1.17969 v 23.90235 l -1.21875,1.30468 h -5.99609 v -3.80273 h 4.44921 v -5.41602 h -4.44921 v -3.71875 h 4.44921 l -0.0586,-5.28711 h -4.39062 v -3.70703 h 4.45117 z m -90.99414,7.15625 v 12.17969 l -3.21875,-1.67773 v -8.94336 z m 94.83984,0 3.21875,1.5586 v 8.94336 l -3.21875,1.67773 z m -113.46484,3.96485 h 13.67383 v 4.25586 h -13.63672 c -0.49658,0 -0.48438,-0.98797 -0.48438,-2.125 0,-1.13704 -0.008,-2.13086 0.44727,-2.13086 z m 118.41601,0 h 13.67383 c 0.45527,0 0.44727,0.99382 0.44727,2.13086 0,1.13703 0.0122,2.125 -0.48438,2.125 h -13.63672 z m -99.81054,9.08203 v 5.42383 h -0.66211 c -0.62744,0 -0.62488,0.0631 -0.83203,-0.38477 -0.20711,-0.44772 -0.37842,-3.04992 -0.16211,-3.99804 0.20976,-0.91912 0.26882,-0.97762 1.0039,-1.01172 z m 94.8789,0 0.65235,0.0293 c 0.73508,0.0341 0.79414,0.0926 1.0039,1.01172 0.21634,0.94812 0.045,3.55032 -0.16211,3.99804 -0.20711,0.44787 -0.20459,0.38477 -0.83203,0.38477 h -0.66211 z m -114.125,0.26953 h 14.70313 v 5.54688 l 3.09961,2.31445 h 4.79101 l 1.71094,2.74414 h -19.52148 l -4.78321,-6.6875 z m 118.66797,0 h 14.70313 v 3.91797 l -4.78321,6.6875 h -19.52148 l 1.71094,-2.74414 h 4.79101 l 3.09961,-2.31445 z m -19.3789,10.3418 5.47656,3.84179 v 18.51954 h -6.79688 v -5.99805 h 3.07032 c -0.0151,-3.86948 0.13454,-11.57201 -0.0586,-11.63281 -0.19313,-0.0609 -0.73005,4.34323 -0.83984,4.39453 -0.10961,0.0514 -3.84766,-4.22992 -3.84766,-4.80078 0,-0.5709 1.86182,-2.83403 2.9961,-4.32422 z m -65.21094,0.01 c 1.26206,1.62614 2.96094,3.65977 2.96094,4.33789 0,0.67813 -3.66073,4.81749 -3.81641,4.77149 -0.15572,-0.0461 -0.61781,-4.40995 -0.84375,-4.37305 -0.22604,0.0378 -0.0215,17.61524 -0.0215,17.61524 h -3.75391 v -18.51172 z m 13.20117,18.98633 1.57422,3.36524 h -3.1543 z m -12.94531,0.62891 1.54492,1.67187 1.55078,-1.67187 v 2.73633 h -3.0957 z"
       transform="scale(0.26458333)"
       id="path857-8-0"
       inkscape:connector-curvature="0" />
  </g>
  <g
     id="g2808"
     inkscape:groupmode="layer"
     inkscape:label="F.Cu"
     style="display:inline"
     transform="translate(87.738141,155.46335)">
    <g
       style="display:inline;fill:#000080"
       id="g10437"
       transform="translate(-223.46007,-85.397276)">
      <circle
         r="0.85649997"
         cy="-41.085083"
         cx="159.96788"
         id="path2376-0"
         style="display:inline;opacity:1;fill:#000080;fill-opacity:1;stroke:none;stroke-width:0.01;stroke-linecap:round;stroke-linejoin:miter;stroke-miterlimit:4;stroke-dasharray:none;stroke-opacity:1;paint-order:normal" />
      <path
         inkscape:connector-curvature="0"
         id="path8031-8"
         d="m 155.27555,-47.267948 c -0.0664,4.2e-4 -0.13281,0.01903 -0.13281,0.05477 v 0.48059 c -0.19715,0.0108 -0.44339,0.1047 -0.65629,0.21033 v -0.6656 c 0,-0.08884 -0.26562,-0.0831 -0.26562,0 v 0.80667 c -0.22874,0.12371 -0.4982,0.22976 -0.66146,0.24082 8.7e-4,-0.47463 0.004,-0.96981 0.004,-1.02216 0,-0.09044 -0.26407,-0.08442 -0.26407,0 0,0.04728 0.002,0.5225 0.003,0.98702 -0.078,-0.02593 -0.15417,-0.06106 -0.23926,-0.09871 -0.16317,-0.07219 -0.21333,-0.09077 -0.293,-0.14469 -0.0797,-0.05392 -0.21683,0.19083 -0.12919,0.23048 0.0876,0.03965 0.13865,0.07817 0.31471,0.15606 0.11635,0.05148 0.21639,0.10349 0.34571,0.13436 -3e-4,0.19932 7.3e-4,0.47728 -0.002,0.50488 -0.01,0.09724 0.27391,0.09724 0.26407,0 -0.003,-0.02628 -0.002,-0.29518 -0.002,-0.47956 0.19713,-0.0092 0.44531,-0.10233 0.65991,-0.20826 v 0.6625 c 0,0.08854 0.26562,0.08854 0.26562,0 v -0.80409 c 0.22605,-0.12277 0.49163,-0.2278 0.65629,-0.24133 v 1.02216 c 0,0.08854 0.26562,0.08854 0.26562,0 v -0.98805 c 0.0783,0.02592 0.15538,0.06118 0.24029,0.0987 0.16319,0.07212 0.214,0.09858 0.29094,0.14263 0.0769,0.04405 0.208,-0.18698 0.13074,-0.23048 -0.0773,-0.0435 -0.13812,-0.07825 -0.31419,-0.15606 -0.11644,-0.05146 -0.21776,-0.10303 -0.34778,-0.13333 v -0.50488 c 0,-0.03742 -0.0664,-0.05519 -0.13281,-0.05477 z"
         style="color:#000000;font-style:normal;font-variant:normal;font-weight:normal;font-stretch:normal;font-size:medium;line-height:normal;font-family:sans-serif;font-variant-ligatures:normal;font-variant-position:normal;font-variant-caps:normal;font-variant-numeric:normal;font-variant-alternates:normal;font-feature-settings:normal;text-indent:0;text-align:start;text-decoration:none;text-decoration-line:none;text-decoration-style:solid;text-decoration-color:#000000;letter-spacing:normal;word-spacing:normal;text-transform:none;writing-mode:lr-tb;direction:ltr;text-orientation:mixed;dominant-baseline:auto;baseline-shift:baseline;text-anchor:start;white-space:normal;shape-padding:0;clip-rule:nonzero;display:inline;overflow:visible;visibility:visible;opacity:1;isolation:auto;mix-blend-mode:normal;color-interpolation:sRGB;color-interpolation-filters:linearRGB;solid-color:#000000;solid-opacity:1;vector-effect:none;fill:#000080;fill-opacity:1;fill-rule:nonzero;stroke:none;stroke-width:0.26499999;stroke-linecap:round;stroke-linejoin:miter;stroke-miterlimit:4;stroke-dasharray:none;stroke-dashoffset:0;stroke-opacity:1;color-rendering:auto;image-rendering:auto;shape-rendering:auto;text-rendering:auto;enable-background:accumulate" />
      <path
         inkscape:connector-curvature="0"
         id="path10319-9"
         d="m 150.67396,-46.812609 a 2.1520087,2.1520087 0 0 0 -2.1518,2.151807 2.1520087,2.1520087 0 0 0 2.01486,2.147672 l 0.0687,1.304314 h -1.14257 a 0.85649996,0.85649996 0 0 0 -0.85472,-0.811321 0.85649996,0.85649996 0 0 0 -0.8568,0.856797 0.85649996,0.85649996 0 0 0 0.8568,0.856276 0.85649996,0.85649996 0 0 0 0.82579,-0.633036 h 1.18597 l 0.0806,1.531173 a 1.5312737,1.5312737 0 0 0 -1.37149,1.522388 1.5312737,1.5312737 0 0 0 1.53169,1.531689 1.5312737,1.5312737 0 0 0 1.5043,-1.252119 h 3.97495 a 1.5312737,1.5312737 0 0 0 1.50482,1.252119 1.5312737,1.5312737 0 0 0 1.53169,-1.531689 1.5312737,1.5312737 0 0 0 -1.37149,-1.521354 l 0.16433,-3.107304 a 2.1520087,2.1520087 0 0 0 2.01435,-2.145605 2.1520087,2.1520087 0 0 0 -2.15181,-2.151807 2.1520087,2.1520087 0 0 0 -2.14716,2.017448 h -3.06596 a 2.1520087,2.1520087 0 0 0 -2.14509,-2.017448 z m 0,0.146761 a 2.0052477,2.0052477 0 0 1 0.45682,0.05529 c -0.002,0.23451 0.008,0.465544 0.0269,0.692464 h -0.96738 c 0.0186,-0.22692 0.0292,-0.457954 0.0269,-0.692464 a 2.0052477,2.0052477 0 0 1 0.45682,-0.05529 z m 7.58972,0.01447 a 2.0052481,2.0052481 0 0 1 1.75183,1.709973 0.4121644,0.4121644 0 0 0 -0.30127,-0.131258 0.4121644,0.4121644 0 0 0 -0.18707,0.04547 l -1.11776,-1.118278 a 0.4121644,0.4121644 0 0 0 0.0351,-0.165365 0.4121644,0.4121644 0 0 0 -0.18087,-0.340547 z m -0.46509,0.0016 a 0.4121644,0.4121644 0 0 0 -0.1788,0.338997 0.4121644,0.4121644 0 0 0 0.0351,0.166398 l -1.11673,1.116728 a 0.4121644,0.4121644 0 0 0 -0.1881,-0.04496 0.4121644,0.4121644 0 0 0 -0.30024,0.129708 2.0052481,2.0052481 0 0 1 1.74873,-1.706873 z m -7.86877,0.128674 c 0.0104,0.18975 0.008,0.394554 -0.006,0.603064 h -0.80925 a 2.0052477,2.0052477 0 0 1 0.81545,-0.603064 z m 1.48828,5.17e-4 a 2.0052477,2.0052477 0 0 1 0.81701,0.602547 h -0.81081 c -0.0137,-0.20832 -0.0166,-0.412937 -0.006,-0.602547 z m 6.83214,0.559139 1.10278,1.102775 a 0.4121644,0.4121644 0 0 0 -0.0512,0.197921 0.4121644,0.4121644 0 0 0 0.0512,0.198954 l -1.10226,1.102257 a 0.4121644,0.4121644 0 0 0 -0.21859,-0.06304 0.4121644,0.4121644 0 0 0 -0.21807,0.06253 l -1.10278,-1.102774 a 0.4121644,0.4121644 0 0 0 0.0506,-0.197921 0.4121644,0.4121644 0 0 0 -0.0506,-0.196887 0.4121644,0.4121644 0 0 0 0,-5.17e-4 l 1.10329,-1.102775 a 0.4121644,0.4121644 0 0 0 0.21756,0.06253 0.4121644,0.4121644 0 0 0 0.21807,-0.06304 z m -9.31157,0.30024 h 0.96118 c -0.0943,0.78323 -0.39013,1.568681 -1.04335,1.841231 a 2.0052476,2.0052476 0 0 1 -0.18758,-0.840775 2.0052476,2.0052476 0 0 1 0.26975,-1.000456 z m 1.22938,0 h 1.01183 c 0.0155,0.12291 0.0378,0.241571 0.0615,0.359151 a 0.85649996,0.85649996 0 0 0 -0.55035,-0.200504 0.85649996,0.85649996 0 0 0 -0.59015,0.236161 c 0.027,-0.128585 0.0502,-0.259698 0.0672,-0.394808 z m 1.28003,0 h 0.96066 a 2.0052476,2.0052476 0 0 1 0.27027,1.000456 2.0052476,2.0052476 0 0 1 -0.18707,0.841292 c -0.65367,-0.272295 -0.94948,-1.058258 -1.04386,-1.841748 z m 1.37252,1.134815 h 3.06648 a 2.1520087,2.1520087 0 0 0 0.3235,1.005106 l -0.38344,0.383438 c -0.39041,-0.311317 -0.87712,-0.506969 -1.41025,-0.530199 a 0.30000001,0.30000001 0 0 0 -0.0636,-0.0067 0.30000001,0.30000001 0 0 0 -0.0264,10e-4 c -0.006,-4e-5 -0.0109,-10e-4 -0.0165,-10e-4 -0.55364,9.4e-5 -1.06245,0.186096 -1.47071,0.497645 l -0.3452,-0.345199 a 2.1520087,2.1520087 0 0 0 0.32608,-1.004073 z m -2.97294,0.02997 a 0.85649996,0.85649996 0 0 0 0.84336,0.706417 0.85649996,0.85649996 0 0 0 0.8325,-0.658875 c 0.19108,0.37447 0.46323,0.675113 0.84233,0.860413 a 2.0052476,2.0052476 0 0 1 -1.69189,0.933275 2.0052476,2.0052476 0 0 1 -1.69343,-0.932759 c 0.39568,-0.192954 0.67489,-0.511581 0.86713,-0.908471 z m 6.20117,0.116789 a 0.4121644,0.4121644 0 0 0 0.30127,0.131258 0.4121644,0.4121644 0 0 0 0.18707,-0.04548 l 1.11776,1.117244 a 0.4121644,0.4121644 0 0 0 -0.0351,0.165881 0.4121644,0.4121644 0 0 0 0.18035,0.340547 2.005248,2.005248 0 0 1 -1.75131,-1.709455 z m 3.96616,0 a 2.0052481,2.0052481 0 0 1 -1.74769,1.707905 0.4121644,0.4121644 0 0 0 0.17725,-0.338997 0.4121644,0.4121644 0 0 0 -0.0346,-0.165365 l 1.11673,-1.117244 h 5.2e-4 a 0.4121644,0.4121644 0 0 0 0.18707,0.04496 0.4121644,0.4121644 0 0 0 0.30075,-0.131258 z m -5.93762,0.886249 a 0.30000001,0.30000001 0 0 0 -0.0243,0.11834 0.30000001,0.30000001 0 0 0 0.30024,0.300242 0.30000001,0.30000001 0 0 0 0.29973,-0.300242 0.30000001,0.30000001 0 0 0 -0.0207,-0.109553 c 0.50865,0.07382 0.98161,0.315918 1.33635,0.696598 h -0.87953 c -0.0431,-0.07589 -0.12357,-0.122841 -0.21084,-0.122989 -0.13433,-2.62e-4 -0.24338,0.108566 -0.2434,0.242879 3e-5,0.134284 0.10908,0.243147 0.2434,0.242877 0.0924,-9e-5 0.17668,-0.05258 0.21756,-0.135392 l 0.94877,5.18e-4 h 0.10853 0.20153 c -0.067,-0.103531 -0.14431,-0.199178 -0.22582,-0.290938 l 0.33848,-0.338482 a 2.1520087,2.1520087 0 0 0 1.43299,0.674378 l -0.16382,3.103171 a 1.5312737,1.5312737 0 0 0 -0.92449,0.398942 l -0.64957,-0.649574 c 0.36285,-0.42451 0.58344,-0.973926 0.58342,-1.576646 0,-0.03348 -0.004,-0.06605 -0.005,-0.09922 h -0.16227 -0.53382 -0.078 c -0.0422,-0.123309 -0.158,-0.206338 -0.28835,-0.206706 -0.13055,1.51e-4 -0.24657,0.08322 -0.28887,0.206706 h -0.60152 c -0.0448,-0.165809 -0.19514,-0.281051 -0.3669,-0.28112 -0.21009,-7.1e-5 -0.38042,0.170259 -0.38034,0.380339 -8e-5,0.210089 0.17025,0.380418 0.38034,0.380338 0.17157,-2.99e-4 0.32168,-0.11548 0.36639,-0.28112 h 0.60203 c 0.0423,0.1235 0.15832,0.206526 0.28887,0.206706 0.13054,-1.8e-4 0.24657,-0.08321 0.28887,-0.206706 h 0.60978 c -0.0483,1.10467 -0.88062,1.994051 -1.94562,2.146639 a 0.30000001,0.30000001 0 0 0 0.0217,-0.110588 0.30000001,0.30000001 0 0 0 -0.29973,-0.299723 0.30000001,0.30000001 0 0 0 -0.30024,0.299723 0.30000001,0.30000001 0 0 0 0.0264,0.122989 c -0.61817,-0.06356 -1.18754,-0.377037 -1.56993,-0.875398 h 1.22938 c 0.0397,0.0871 0.1265,0.143045 0.22221,0.143142 0.13499,-7e-6 0.24442,-0.10946 0.24443,-0.244427 -1e-5,-0.135009 -0.10944,-0.24443 -0.24443,-0.24443 -0.0855,2.01e-4 -0.16466,0.04509 -0.20877,0.118338 l -1.35651,-5.16e-4 h -0.0382 -0.19068 c 0.0914,0.169259 0.20502,0.323921 0.33227,0.466121 l -0.60409,0.604616 a 1.5312737,1.5312737 0 0 0 -0.92604,-0.400495 l -0.1633,-3.101102 a 2.1520087,2.1520087 0 0 0 1.43247,-0.674894 l 0.29249,0.291971 c -0.2675,0.287919 -0.46635,0.640614 -0.57051,1.031978 h 0.16846 0.18449 l 0.86816,-5.16e-4 c 0.0454,0.08386 0.13304,0.136197 0.22841,0.136427 0.14384,-10e-6 0.26044,-0.116618 0.26045,-0.26045 -1e-5,-0.143838 -0.11661,-0.260448 -0.26045,-0.260448 -0.10396,-9e-5 -0.198,0.06168 -0.23926,0.157096 h -0.96325 c 0.31801,-0.78309 1.042,-1.313259 1.87017,-1.3994 z m 1.85312,4.068488 0.66146,0.661458 a 1.5312737,1.5312737 0 0 0 -0.27854,0.876948 1.5312737,1.5312737 0 0 0 0.001,0.01033 h -3.92328 a 1.5312737,1.5312737 0 0 0 0.001,-0.01033 1.5312737,1.5312737 0 0 0 -0.27698,-0.877983 l 0.62115,-0.621151 c 0.42461,0.361312 0.97279,0.581768 1.57406,0.581877 0.007,0 0.0141,-9.82e-4 0.0212,-10e-4 a 0.30000001,0.30000001 0 0 0 0.0217,10e-4 0.30000001,0.30000001 0 0 0 0.0517,-0.0052 c 0.58531,-0.0225 1.11677,-0.251925 1.52549,-0.615981 z m 1.89963,0.158128 a 1.3805824,1.3805824 0 0 1 5.1e-4,0 1.3805824,1.3805824 0 0 1 0.0145,0 1.3805824,1.3805824 0 0 1 1.09192,0.535884 h -2.18126 a 1.3805824,1.3805824 0 0 1 1.07436,-0.535884 z m -7.19646,0.01912 a 0.4503906,0.4503906 0 0 0 -0.22325,0.388091 0.4503906,0.4503906 0 0 0 0.10542,0.289904 l -0.54002,0.936892 a 0.38837889,0.38837889 0 0 0 -0.0413,-0.0026 0.38837889,0.38837889 0 0 0 -0.36122,0.247012 1.3805821,1.3805821 0 0 1 -0.0935,-0.49816 1.3805821,1.3805821 0 0 1 1.15394,-1.361157 z m 0.45733,0.0016 a 1.3805821,1.3805821 0 0 1 1.1498,1.359606 1.3805821,1.3805821 0 0 1 -0.093,0.496094 0.38837889,0.38837889 0 0 0 -0.36173,-0.244946 0.38837889,0.38837889 0 0 0 -0.0408,0.0026 l -0.54106,-0.935857 a 0.4503906,0.4503906 0 0 1 5.2e-4,-5.19e-4 0.4503906,0.4503906 0 0 0 0.10645,-0.29042 0.4503906,0.4503906 0 0 0 -0.22014,-0.38654 z m 5.70456,0.747757 h 0.7953 a 0.27500001,0.27500003 0 0 0 -0.0207,0.104386 0.27500001,0.27500003 0 0 0 0.27492,0.274918 0.27500001,0.27500003 0 0 0 0.27595,-0.274918 0.27500001,0.27500003 0 0 0 -0.0207,-0.104386 h 0.79375 l -0.40256,0.695566 a 0.27500001,0.27500003 0 0 0 -0.21549,-0.103354 0.27500001,0.27500003 0 0 0 -0.27492,0.275436 0.27500001,0.27500003 0 0 0 0.23358,0.271301 l -0.39016,0.67541 -0.39067,-0.674894 a 0.27500001,0.27500003 0 0 0 0.23616,-0.271817 0.27500001,0.27500003 0 0 0 -0.27492,-0.275436 0.27500001,0.27500003 0 0 0 -0.21704,0.10542 z m -6.07818,0.06563 a 0.4503906,0.4503906 0 0 0 0.0553,0.01447 v 1.106392 h -0.45527 a 0.38837889,0.38837889 0 0 0 -0.11938,-0.219109 z m 0.28525,5.16e-4 0.51935,0.901237 a 0.38837889,0.38837889 0 0 0 -0.11834,0.219109 h -0.45475 v -1.106392 a 0.4503906,0.4503906 0 0 0 0.0537,-0.01395 z m 5.56969,0.01188 1.09709,1.901693 a 1.3805823,1.3805823 0 0 1 -1.20458,-1.367875 1.3805823,1.3805823 0 0 1 0.10749,-0.533818 z m 2.54507,10e-4 a 1.3805824,1.3805824 0 0 1 0.10903,0.532783 1.3805824,1.3805824 0 0 1 -1.20716,1.367875 z m -8.83771,1.349787 h 0.493 v 0.559139 a 1.3805822,1.3805822 0 0 1 -0.832,-0.348297 0.38837889,0.38837889 0 0 0 0.339,-0.210842 z m 0.66921,0 h 0.49196 a 0.38837889,0.38837889 0 0 0 0.33952,0.210842 1.3805822,1.3805822 0 0 1 -0.83148,0.348297 z"
         style="display:inline;opacity:1;fill:#000080;fill-opacity:1;stroke:none;stroke-width:0.01;stroke-linecap:round;stroke-linejoin:miter;stroke-miterlimit:4;stroke-dasharray:none;stroke-opacity:1;paint-order:normal" />
      <path
         inkscape:connector-curvature="0"
         id="path10299-4"
         d="m 158.03221,-44.845358 a 0.1842713,0.1842713 0 0 0 -0.18448,0.18448 0.1842713,0.1842713 0 0 0 0.18448,0.18449 0.1842713,0.1842713 0 0 0 0.18397,-0.18449 0.1842713,0.1842713 0 0 0 -0.18397,-0.18448 z"
         style="display:inline;opacity:1;fill:#000080;fill-opacity:1;stroke:none;stroke-width:0.01;stroke-linecap:round;stroke-linejoin:miter;stroke-miterlimit:4;stroke-dasharray:none;stroke-opacity:1;paint-order:normal" />
      <path
         inkscape:connector-curvature="0"
         id="path8265-3"
         d="m 154.28804,-49.683568 a 7.8719765,7.8719765 0 0 0 -7.87187,7.872379 7.8719765,7.8719765 0 0 0 7.87187,7.871881 7.8719765,7.8719765 0 0 0 7.87187,-7.871881 7.8719765,7.8719765 0 0 0 -7.87187,-7.872379 z m 0,0.5457 a 7.3263673,7.3263673 0 0 1 7.32617,7.326679 7.3263673,7.3263673 0 0 1 -7.32617,7.32617 7.3263673,7.3263673 0 0 1 -7.32617,-7.32617 7.3263673,7.3263673 0 0 1 7.32617,-7.326679 z"
         style="display:inline;opacity:1;fill:#000080;fill-opacity:1;stroke:none;stroke-width:0.26499999;stroke-linecap:round;stroke-linejoin:miter;stroke-miterlimit:4;stroke-dasharray:none;stroke-opacity:0.51010102;paint-order:normal" />
    </g>
    <g
       style="display:inline"
       id="g5804">
      <g
         transform="translate(0.11464346,-54.981983)"
         id="g5704">
        <circle
           style="opacity:1;fill:none;fill-opacity:1;stroke:#000080;stroke-width:0.2;stroke-linejoin:round;stroke-miterlimit:4;stroke-dasharray:none;stroke-opacity:1"
           id="path815"
           cx="-102.8654"
           cy="-12.495899"
           r="2.0672383"
           transform="rotate(30)" />
        <path
           style="fill:none;stroke:#000080;stroke-width:0.2;stroke-linecap:butt;stroke-linejoin:miter;stroke-miterlimit:4;stroke-dasharray:none;stroke-opacity:1"
           d="m -84.63447,-63.292732 1.79281,1.035078"
           id="path817"
           inkscape:connector-curvature="0" />
        <circle
           style="opacity:1;fill:#000080;fill-opacity:1;stroke:none;stroke-width:0.2;stroke-linejoin:round;stroke-miterlimit:4;stroke-dasharray:none;stroke-opacity:1"
           id="path819"
           cx="-102.8654"
           cy="-12.495899"
           r="0.41403124"
           transform="rotate(30)" />
      </g>
      <g
         transform="translate(-259.68129,-65.221386)"
         style="fill:none;stroke:#000080;stroke-width:0.2;stroke-miterlimit:4;stroke-dasharray:none;stroke-opacity:1"
         id="g1433">
        <circle
           style="opacity:1;fill:none;fill-opacity:1;stroke:#000080;stroke-width:0.2;stroke-linejoin:round;stroke-miterlimit:4;stroke-dasharray:none;stroke-opacity:1"
           id="path815-7-7"
           cx="-143.33287"
           cy="161.70029"
           r="2.0672383"
           transform="rotate(-150)" />
        <path
           style="fill:none;stroke:#000080;stroke-width:0.2;stroke-linecap:butt;stroke-linejoin:miter;stroke-miterlimit:4;stroke-dasharray:none;stroke-opacity:1"
           d="m 207.05013,-68.371773 c 0,0 -0.83156,1.066446 -2.06999,1.066446 -1.23844,0 -2.07019,-1.063133 -2.07019,-1.063133"
           id="path817-1-5"
           inkscape:connector-curvature="0"
           sodipodi:nodetypes="czc" />
        <path
           style="fill:none;stroke:#000080;stroke-width:0.2;stroke-linecap:butt;stroke-linejoin:miter;stroke-miterlimit:4;stroke-dasharray:none;stroke-opacity:1"
           d="m 207.05013,-68.365148 c 0,0 -0.83165,-1.066644 -2.07009,-1.066644 -1.23843,0 -2.07009,1.063332 -2.07009,1.063332"
           id="path817-1-5-3"
           inkscape:connector-curvature="0"
           sodipodi:nodetypes="czc" />
        <path
           style="fill:none;stroke:#000080;stroke-width:0.2;stroke-linecap:butt;stroke-linejoin:miter;stroke-miterlimit:4;stroke-dasharray:none;stroke-opacity:1"
           d="m 204.98014,-67.305327 v -3.139765"
           id="path928-5"
           inkscape:connector-curvature="0"
           sodipodi:nodetypes="cc" />
      </g>
      <g
         transform="translate(-259.68078,-65.221928)"
         style="fill:none;stroke:#000080;stroke-width:0.2;stroke-miterlimit:4;stroke-dasharray:none;stroke-opacity:1"
         id="g1446">
        <circle
           style="opacity:1;fill:none;fill-opacity:1;stroke:#000080;stroke-width:0.2;stroke-linejoin:round;stroke-miterlimit:4;stroke-dasharray:none;stroke-opacity:1"
           id="path815-7"
           cx="115.75603"
           cy="149.47337"
           r="2.0668225"
           transform="rotate(-73.445752)" />
        <path
           style="fill:none;stroke:#000080;stroke-width:0.2;stroke-linecap:butt;stroke-linejoin:miter;stroke-miterlimit:4;stroke-dasharray:none;stroke-opacity:1"
           d="m 178.36574,-68.369593 -4.18749,8e-6"
           id="path936-3"
           inkscape:connector-curvature="0" />
        <path
           inkscape:connector-curvature="0"
           style="opacity:1;fill:none;fill-opacity:1;stroke:#000080;stroke-width:0.2;stroke-linejoin:round;stroke-miterlimit:4;stroke-dasharray:none;stroke-opacity:1"
           d="m 177.29418,-68.369585 a 1.0348698,1.0348698 0 0 1 -1.03487,1.03487 v 0"
           id="path2682-9" />
        <path
           inkscape:connector-curvature="0"
           style="opacity:1;fill:none;fill-opacity:1;stroke:#000080;stroke-width:0.2;stroke-linejoin:round;stroke-miterlimit:4;stroke-dasharray:none;stroke-opacity:1"
           d="m 175.22445,-68.369585 a 1.0348699,1.0348699 0 0 1 1.03486,-1.03487"
           id="path815-7-8" />
      </g>
      <g
         transform="translate(-259.68099,-65.551856)"
         style="fill:none;stroke:#000080;stroke-width:0.2;stroke-miterlimit:4;stroke-dasharray:none;stroke-opacity:1"
         id="g1440">
        <circle
           style="opacity:1;fill:none;fill-opacity:1;stroke:#000080;stroke-width:0.2;stroke-linejoin:round;stroke-miterlimit:4;stroke-dasharray:none;stroke-opacity:1"
           id="path815-7-7-1"
           cx="24.488894"
           cy="209.28879"
           r="2.0670021"
           transform="rotate(-97.524551)" />
        <path
           style="fill:none;stroke:#000080;stroke-width:0.2;stroke-linecap:butt;stroke-linejoin:miter;stroke-miterlimit:4;stroke-dasharray:none;stroke-opacity:1"
           d="m 205.89985,-52.928858 -3.24024,2.488523"
           id="path2716-5"
           inkscape:connector-curvature="0" />
        <path
           style="fill:none;stroke:#000080;stroke-width:0.2;stroke-linecap:butt;stroke-linejoin:miter;stroke-miterlimit:4;stroke-dasharray:none;stroke-opacity:1"
           d="m 202.64702,-52.93631 3.26542,2.503427"
           id="path2718-4"
           inkscape:connector-curvature="0" />
        <path
           style="fill:none;stroke:#000080;stroke-width:0.2;stroke-linecap:butt;stroke-linejoin:miter;stroke-miterlimit:4;stroke-dasharray:none;stroke-opacity:1"
           d="m 202.64702,-52.93631 h 3.25259"
           id="path2784-8"
           inkscape:connector-curvature="0" />
        <path
           style="fill:none;stroke:#000080;stroke-width:0.2;stroke-linecap:butt;stroke-linejoin:miter;stroke-miterlimit:4;stroke-dasharray:none;stroke-opacity:1"
           d="m 202.65961,-50.440335 h 3.24968"
           id="path2786-4"
           inkscape:connector-curvature="0" />
      </g>
      <g
         transform="translate(-259.68129,-65.221394)"
         style="fill:none;stroke:#000080;stroke-width:0.2;stroke-miterlimit:4;stroke-dasharray:none;stroke-opacity:1"
         id="g1463">
        <path
           style="fill:none;stroke:#000080;stroke-width:0.2;stroke-linecap:butt;stroke-linejoin:miter;stroke-miterlimit:4;stroke-dasharray:none;stroke-opacity:1"
           d="m 197.34622,-83.99262 h 0.92241"
           id="path2927"
           inkscape:connector-curvature="0" />
        <path
           style="fill:none;stroke:#000080;stroke-width:0.2;stroke-linecap:butt;stroke-linejoin:miter;stroke-miterlimit:4;stroke-dasharray:none;stroke-opacity:1"
           d="m 199.19099,-83.992612 -0.4612,-0.798832"
           id="path2927-3"
           inkscape:connector-curvature="0" />
        <circle
           style="opacity:1;fill:none;fill-opacity:1;stroke:#000080;stroke-width:0.2;stroke-linejoin:round;stroke-miterlimit:4;stroke-dasharray:none;stroke-opacity:1"
           id="path815-76"
           cx="129.44307"
           cy="-172.33524"
           r="2.0672383"
           transform="rotate(30)" />
        <path
           sodipodi:type="star"
           style="opacity:1;fill:none;fill-opacity:1;stroke:#000080;stroke-width:0.2;stroke-linecap:butt;stroke-linejoin:bevel;stroke-miterlimit:4;stroke-dasharray:none;stroke-opacity:1"
           id="path2864-6"
           sodipodi:sides="3"
           sodipodi:cx="198.26868"
           sodipodi:cy="-84.525162"
           sodipodi:r1="2.1000948"
           sodipodi:r2="1.0500473"
           sodipodi:arg1="1.5707963"
           sodipodi:arg2="2.6179939"
           inkscape:flatsided="false"
           inkscape:rounded="0"
           inkscape:randomized="0"
           d="m 198.26868,-82.425067 -0.90937,-1.575071 -0.90937,-1.575071 1.81874,0 1.81873,0 -0.90937,1.575071 z"
           inkscape:transform-center-y="0.6340364" />
        <path
           style="fill:none;stroke:#000080;stroke-width:0.2;stroke-linecap:butt;stroke-linejoin:miter;stroke-miterlimit:4;stroke-dasharray:none;stroke-opacity:1"
           d="m 198.26862,-85.590234 -0.46121,0.798832"
           id="path2927-32"
           inkscape:connector-curvature="0" />
      </g>
      <g
         transform="translate(-259.68186,-65.220846)"
         style="fill:none;stroke:#000080;stroke-width:0.2;stroke-miterlimit:4;stroke-dasharray:none;stroke-opacity:1"
         id="g1456">
        <circle
           style="opacity:1;fill:none;fill-opacity:1;stroke:#000080;stroke-width:0.2;stroke-linejoin:round;stroke-miterlimit:4;stroke-dasharray:none;stroke-opacity:1"
           id="path815-7-2"
           cx="-189.01404"
           cy="-69.476639"
           r="2.0676963"
           transform="rotate(135)" />
        <path
           inkscape:connector-curvature="0"
           style="opacity:1;fill:none;fill-opacity:1;stroke:#000080;stroke-width:0.2;stroke-linejoin:round;stroke-miterlimit:4;stroke-dasharray:none;stroke-opacity:1"
           d="m 184.65848,-83.663511 c -0.78565,0.362427 -1.71394,0.197395 -2.32648,-0.41368 -0.61083,-0.61155 -0.77682,-1.538523 -0.41614,-2.324029"
           id="path815-7-2-96"
           sodipodi:nodetypes="ccc" />
        <path
           style="fill:none;stroke:#000080;stroke-width:0.2;stroke-linecap:butt;stroke-linejoin:miter;stroke-miterlimit:4;stroke-dasharray:none;stroke-opacity:1"
           d="m 181.31501,-83.060197 2.21554,-2.215527"
           id="path4784-1"
           inkscape:connector-curvature="0"
           sodipodi:nodetypes="cc" />
      </g>
    </g>
  </g>
  <g
     id="g2832"
     inkscape:groupmode="layer"
     inkscape:label="Eco1.User-disabled"
     style="display:inline"
     transform="translate(87.738141,155.46335)">
    <path
       id="path40"
       d="m -69.01211,-149.518 0.402082,0.0197 0.34417,0.0354 0.312674,0.0559 0.30734,0.081 0.327914,0.11095 0.02032,0.008 0.575056,0.25674 0.54102,0.32812 0.499364,0.39177 0.450596,0.4477 0.39497,0.49591 0.331978,0.53637 0.261874,0.56912 0.140716,0.42382 0.143764,0.66393 0.06147,0.66139 -0.01905,0.65316 -0.09855,0.63914 -0.176276,0.61943 -0.252984,0.59393 -0.327914,0.56276 -0.401828,0.52578 -0.175768,0.19335 -0.48768,0.45098 -0.5334,0.38186 -0.57277,0.31036 -0.60579,0.23653 -0.632714,0.16032 -0.653034,0.0818 -0.667258,9.1e-4 -0.172974,-0.0131 -0.632714,-0.0999 -0.61595,-0.17907 -0.590296,-0.25323 -0.556514,-0.32246 -0.51435,-0.38664 -0.464058,-0.44582 -0.405384,-0.49997 -0.09474,-0.13838 -0.181356,-0.28544 -0.141224,-0.2522 -0.116586,-0.24996 -0.10668,-0.27884 -0.06375,-0.18776 -0.168656,-0.64752 -0.08636,-0.65565 -0.0046,-0.61941 h 0.04928 l 0.0058,0.62253 0.08077,0.61707 0.15494,0.60495 0.229108,0.58616 0.302768,0.56073 0.37592,0.52865 0.290322,0.33015 0.482092,0.44599 0.530098,0.38154 0.569976,0.31232 0.600964,0.2384 0.622808,0.15972 0.03556,0.007 0.278638,0.0361 0.33274,0.0208 0.357886,0.006 0.353568,-0.01 0.320294,-0.0252 0.178054,-0.0249 0.629412,-0.15045 0.592328,-0.22174 0.55118,-0.28722 0.506984,-0.34689 0.459232,-0.40073 0.407924,-0.4487 0.353314,-0.4909 0.294894,-0.52723 0.233172,-0.55773 0.168148,-0.58242 0.09931,-0.60127 0.02743,-0.61433 -0.04851,-0.62151 -0.127254,-0.62288 -0.09728,-0.31847 -0.25146,-0.61077 -0.320802,-0.56792 -0.38481,-0.51971 -0.44323,-0.46619 -0.496824,-0.40731 -0.54483,-0.3431 -0.587502,-0.27359 -0.24257,-0.0878 -0.47498,-0.13944 -0.445262,-0.0878 -0.449072,-0.0409 -0.486156,0.001 -0.003,1e-4 -0.609854,0.0521 -0.56007,0.1085 -0.528574,0.17074 -0.515112,0.23881 -0.499872,0.29944 -0.278384,0.2027 -0.291592,0.24419 -0.279654,0.26312 -0.243078,0.25941 -0.113284,0.13802 -0.372618,0.54997 -0.296164,0.57779 -0.220218,0.59899 -0.144526,0.61346 -0.06909,0.62133 h -0.04928 l -2.54e-4,-0.0374 0.07671,-0.65088 0.15748,-0.63799 0.237744,-0.61811 0.05842,-0.1235 0.316484,-0.55362 0.383032,-0.51221 0.441198,-0.46322 0.490982,-0.40671 0.53213,-0.34262 0.564896,-0.27094 0.211836,-0.0793 0.401828,-0.12675 0.371602,-0.0874 0.369824,-0.0521 0.397256,-0.0212 z"
       style="fill:#848484;fill-opacity:1;fill-rule:evenodd;stroke:#848484;stroke-width:0.01000001;stroke-linecap:round;stroke-linejoin:round;stroke-opacity:1"
       inkscape:connector-curvature="0" />
    <path
       id="path42"
       d="m -68.704516,-155.44618 0.455422,0.0125 0.434086,0.0199 0.428244,0.028 0.43815,0.0366 0.463804,0.0459 0.159766,0.0171 1.474724,0.19498 1.434846,0.25874 1.39192,0.32157 1.346454,0.38336 1.298448,0.44409 1.24714,0.50386 1.193292,0.56256 1.136904,0.62027 1.077468,0.67694 0.951738,0.68354 0.55753,0.45984 0.49403,0.48077 0.448818,0.52156 0.422148,0.58222 0.08407,0.12741 0.164592,0.2715 0.175006,0.32146 0.174244,0.34714 0.161798,0.34864 0.13716,0.32589 0.09804,0.26857 0.02286,0.0677 0.02134,0.0601 0.02007,0.0552 0.0188,0.053 0.01753,0.0535 0.01626,0.0566 0.01524,0.0624 0.01397,0.0709 0.01295,0.082 0.01194,0.0959 0.01092,0.11237 0.01016,0.1315 0.0089,0.15334 0.0084,0.17782 0.0074,0.20498 0.0066,0.23482 0.0058,0.26731 0.0051,0.30246 0.0046,0.34034 0.0041,0.38082 0.0033,0.42403 0.0028,0.46985 0.0023,0.51839 0.002,0.56954 0.0015,0.62344 0.001,0.67994 10e-4,0.73916 5.08e-4,0.80099 2.54e-4,0.86556 2.54e-4,0.93276 v 1.00261 1.07519 1.15049 l -2.54e-4,1.22809 v 1.30886 0.74219 15.01318 l -2.550668,2.55041 -2.550668,2.55042 H -82.62251 l -5.101488,-5.1021 0.0108,-14.94663 h 0.03213 v 14.90497 l 2.550439,2.55067 2.550465,2.55067 h 26.839342 l 2.550668,-2.55042 2.550668,-2.55041 v -14.95831 -1.33681 -1.2545 -1.17551 -1.09866 l -2.54e-4,-1.02473 -2.54e-4,-0.95347 -2.54e-4,-0.88481 -5.08e-4,-0.81889 -7.62e-4,-0.7556 -5.08e-4,-0.695 -10e-4,-0.63705 -10e-4,-0.58182 -0.0013,-0.52921 -0.0013,-0.47932 -0.0018,-0.43208 -0.0018,-0.38753 -0.002,-0.34561 -0.0023,-0.30643 -0.0028,-0.26988 -0.0028,-0.23599 -0.0033,-0.20482 -0.0036,-0.1763 -0.0038,-0.15045 -0.0041,-0.12728 -0.0046,-0.10675 -0.0051,-0.089 -0.0053,-0.0738 -0.0056,-0.0613 -0.0061,-0.0515 -0.0066,-0.0444 -0.0071,-0.0399 -0.0074,-0.0382 -0.0018,-0.009 -0.153924,-0.59002 -0.222758,-0.6114 -0.28448,-0.61727 -0.338836,-0.60765 -0.385826,-0.58252 -0.08636,-0.11803 -0.40132,-0.48474 -0.481838,-0.48867 -0.558546,-0.48966 -0.630936,-0.48773 -0.700024,-0.48285 -0.765048,-0.47506 -0.826008,-0.46431 -0.323342,-0.16995 -1.21158,-0.58011 -1.266952,-0.51773 -1.319276,-0.45466 -1.368806,-0.39083 -1.415288,-0.32632 -1.459484,-0.26106 -1.500632,-0.19504 -1.538732,-0.12835 -0.04318,-0.003 -0.329946,-0.0152 -0.387604,-0.0105 -0.431292,-0.006 -0.46101,-0.002 -0.476504,0.002 -0.478282,0.006 -0.465582,0.0102 -0.439166,0.0137 -0.39878,0.017 -0.343916,0.0202 -0.275336,0.0231 -0.03073,0.003 -1.244854,0.17107 -1.240282,0.23549 -1.21666,0.29563 -1.174496,0.35153 -0.436626,0.14925 -0.437388,0.15868 -0.399542,0.15357 -0.383794,0.15798 -0.390398,0.17191 -0.4191,0.19528 -0.46736,0.22669 -0.922528,0.47712 -0.855116,0.49174 -0.804571,0.51737 -0.771195,0.554 -0.754862,0.60163 -0.0193,0.0162 -0.468706,0.42694 -0.45814,0.48283 -0.439446,0.52639 -0.412623,0.55763 -0.377672,0.57658 -0.334569,0.58324 -0.283312,0.57759 -0.223926,0.55964 -0.135738,0.44521 -0.0075,0.0302 -0.007,0.0324 -0.0065,0.0372 -0.0061,0.0446 -0.0057,0.0547 -0.0053,0.0675 -0.0049,0.083 -0.0045,0.1011 -0.0042,0.12187 -0.0039,0.14528 -0.0035,0.1714 -0.0032,0.20013 -0.0029,0.2316 -0.0026,0.26563 -0.0023,0.30241 -0.0021,0.34181 -0.0019,0.3839 -0.0017,0.42862 -0.0014,0.47602 -0.0012,0.52606 -0.0011,0.57882 -8.64e-4,0.63416 -7.37e-4,0.69225 -5.84e-4,0.75293 -4.57e-4,0.81631 -3.56e-4,0.88234 -2.79e-4,0.95103 -1.78e-4,1.0224 -1.01e-4,1.09634 -7.7e-5,1.17323 -2.5e-5,1.25247 v 1.33274 h -0.03213 l 0.01097,-15.1938 0.138328,-0.40216 0.24064,-0.60688 0.307518,-0.62608 0.36388,-0.63018 0.409753,-0.61902 0.445109,-0.59274 0.470002,-0.55128 0.484403,-0.49461 0.336525,-0.29982 0.963092,-0.75266 1.026363,-0.70241 1.082421,-0.64897 1.13157,-0.5923 1.173226,-0.53233 1.20777,-0.46917 1.235202,-0.40274 1.255522,-0.33307 1.26873,-0.26017 0.04902,-0.009 0.404622,-0.0679 0.36576,-0.0566 0.341122,-0.0463 0.331216,-0.0373 0.335788,-0.0294 0.354838,-0.0228 0.388112,-0.0173 0.436118,-0.0129 0.498348,-0.01 0.299466,-0.004 0.61468,-0.006 0.545846,-5.3e-4 z"
       style="fill:#848484;fill-opacity:1;fill-rule:evenodd;stroke:#848484;stroke-width:0.01000001;stroke-linecap:round;stroke-linejoin:round;stroke-opacity:1"
       inkscape:connector-curvature="0" />
    <circle
       style="fill:#848484;fill-opacity:0;stroke:#848484;stroke-width:0.10000005;stroke-linecap:round;stroke-linejoin:round;stroke-opacity:1"
       id="circle58-3"
       r="2.000001"
       cy="-117.23645"
       cx="-55.401268" />
    <circle
       style="fill:#848484;fill-opacity:0;stroke:#848484;stroke-width:0.10000005;stroke-linecap:round;stroke-linejoin:round;stroke-opacity:1"
       id="circle60"
       r="2.000001"
       cy="-133.59151"
       cx="-54.701244" />
    <circle
       style="fill:#848484;fill-opacity:0;stroke:#848484;stroke-width:0.10000005;stroke-linecap:round;stroke-linejoin:round;stroke-opacity:1"
       id="circle62"
       r="2.000001"
       cy="-149.74655"
       cx="-61.412682" />
    <circle
       style="fill:#848484;fill-opacity:0;stroke:#848484;stroke-width:0.10000005;stroke-linecap:round;stroke-linejoin:round;stroke-opacity:1"
       id="circle64-0"
       r="2.000001"
       cy="-149.74655"
       cx="-76.901352" />
    <circle
       style="fill:#848484;fill-opacity:0;stroke:#848484;stroke-width:0.10000005;stroke-linecap:round;stroke-linejoin:round;stroke-opacity:1"
       id="circle66"
       r="2.000001"
       cy="-133.59151"
       cx="-83.421455" />
    <circle
       style="fill:#848484;fill-opacity:0;stroke:#848484;stroke-width:0.10000005;stroke-linecap:round;stroke-linejoin:round;stroke-opacity:1"
       id="circle68"
       r="2.000001"
       cy="-117.23645"
       cx="-82.721458" />
    <path
       inkscape:connector-curvature="0"
       style="fill:#ffff55;fill-opacity:1;fill-rule:evenodd;stroke:#848400;stroke-width:0;stroke-linecap:round;stroke-linejoin:round;stroke-opacity:1"
       d="m -69.30703,-151.8707 h -0.999998 v -1 h 0.999998 z"
       id="path14" />
    <circle
       style="fill:#ffff55;fill-opacity:1;stroke:#848400;stroke-width:0;stroke-linecap:round;stroke-linejoin:round;stroke-opacity:1"
       cx="-68.537033"
       cy="-152.37071"
       r="0.49999902"
       id="circle16" />
    <circle
       style="fill:#ffff55;fill-opacity:1;stroke:#848400;stroke-width:0;stroke-linecap:round;stroke-linejoin:round;stroke-opacity:1"
       cx="-60.722031"
       cy="-114.36057"
       r="0.76499975"
       id="circle22" />
    <circle
       style="fill:#ffff55;fill-opacity:1;stroke:#848400;stroke-width:0;stroke-linecap:round;stroke-linejoin:round;stroke-opacity:1"
       cx="-78.882042"
       cy="-114.36057"
       r="0.76499975"
       id="circle28" />
    <circle
       style="fill:#ffff55;fill-opacity:1;stroke:#ffffff;stroke-width:0;stroke-linecap:round;stroke-linejoin:round;stroke-opacity:1"
       id="circle46"
       r="0.32500061"
       cy="-152.37071"
       cx="-69.80703" />
    <circle
       style="fill:#ffff55;fill-opacity:1;stroke:#ffffff;stroke-width:0;stroke-linecap:round;stroke-linejoin:round;stroke-opacity:1"
       id="circle52"
       r="0.32500061"
       cy="-152.37071"
       cx="-68.537033" />
    <circle
       style="fill:#ffff55;fill-opacity:1;stroke:#ffffff;stroke-width:0;stroke-linecap:round;stroke-linejoin:round;stroke-opacity:1"
       id="circle58"
       r="0.50999898"
       cy="-114.36057"
       cx="-60.722031" />
    <circle
       style="fill:#ffff55;fill-opacity:1;stroke:#ffffff;stroke-width:0;stroke-linecap:round;stroke-linejoin:round;stroke-opacity:1"
       id="circle64"
       r="0.50999898"
       cy="-114.36057"
       cx="-78.882042" />
    <g
       id="g5590">
      <path
         id="path74"
         d="m -69.10703,-151.6707 h -1.399997 v -1.4 h 1.399997 z"
         style="fill:#ffff55;fill-opacity:1;fill-rule:evenodd;stroke:#848400;stroke-width:0;stroke-linecap:round;stroke-linejoin:round;stroke-opacity:1"
         inkscape:connector-curvature="0" />
      <circle
         id="circle76"
         r="0.70000112"
         cy="-152.37071"
         cx="-68.537033"
         style="fill:#ffff55;fill-opacity:1;stroke:#848400;stroke-width:0;stroke-linecap:round;stroke-linejoin:round;stroke-opacity:1" />
    </g>
    <circle
       style="fill:#ffff55;fill-opacity:1;stroke:#848400;stroke-width:0;stroke-linecap:round;stroke-linejoin:round;stroke-opacity:1"
       cx="-60.722031"
       cy="-114.36057"
       r="0.96499932"
       id="circle82" />
    <circle
       style="fill:#ffff55;fill-opacity:1;stroke:#848400;stroke-width:0;stroke-linecap:round;stroke-linejoin:round;stroke-opacity:1"
       cx="-78.882042"
       cy="-114.36057"
       r="0.96499932"
       id="circle88" />
    <path
       id="path144"
       d="m -69.002712,-149.50215 0.402082,0.0197 0.344297,0.0354 0.312648,0.0559 0.307188,0.081 0.327863,0.11095 0.02042,0.008 0.575157,0.25674 0.540842,0.32812 0.499364,0.3918 0.450723,0.4477 0.394945,0.49588 0.332003,0.53637 0.2619,0.56914 0.140614,0.4238 0.143688,0.66393 0.06157,0.66142 -0.01913,0.65313 -0.09845,0.63917 -0.176352,0.6194 -0.252883,0.59395 -0.32799,0.56274 -0.401701,0.52581 -0.175895,0.19334 -0.487629,0.45098 -0.533375,0.38184 -0.57277,0.31036 -0.605866,0.23652 -0.632612,0.16035 -0.65306,0.0818 -0.667181,9.2e-4 -0.173127,-0.0132 -0.632815,-0.0998 -0.615722,-0.17904 -0.590321,-0.25327 -0.556565,-0.32245 -0.514452,-0.38661 -0.464007,-0.44582 -0.405238,-0.49998 -0.0948,-0.13838 -0.18133,-0.28547 -0.14138,-0.25217 -0.11651,-0.24998 -0.10678,-0.27882 -0.0636,-0.18776 -0.16873,-0.64752 -0.0865,-0.65565 -0.004,-0.6194 h 0.0493 l 0.006,0.62252 0.0806,0.61705 0.15499,0.60495 0.22904,0.58618 0.30274,0.56073 0.376127,0.52865 0.290246,0.33015 0.48199,0.446 0.530302,0.38153 0.569899,0.31232 0.600812,0.23838 0.622986,0.15974 0.03553,0.007 0.278664,0.0361 0.332791,0.0208 0.357759,0.006 0.353618,-0.01 0.320269,-0.0252 0.177978,-0.0249 0.629539,-0.15044 0.592175,-0.22174 0.551333,-0.28725 0.506984,-0.34689 0.459206,-0.40071 0.407924,-0.44872 0.353162,-0.49088 0.294945,-0.52723 0.233248,-0.55773 0.168072,-0.58242 0.09941,-0.6013 0.02728,-0.61429 -0.04831,-0.62152 -0.127406,-0.62288 -0.09726,-0.31847 -0.251434,-0.61079 -0.320752,-0.56789 -0.384733,-0.51974 -0.443408,-0.46616 -0.496748,-0.40732 -0.544779,-0.34313 -0.587451,-0.27358 -0.242697,-0.0877 -0.474904,-0.13947 -0.445262,-0.0878 -0.449047,-0.0409 -0.486257,0.001 -0.0029,1.2e-4 -0.609879,0.0521 -0.560146,0.10848 -0.528574,0.17074 -0.515112,0.23881 -0.499872,0.29947 -0.278486,0.20266 -0.291389,0.24423 -0.279628,0.26309 -0.243282,0.25943 -0.113309,0.138 -0.372544,0.54999 -0.29619,0.5778 -0.22017,0.59895 -0.14447,0.61349 -0.0691,0.62134 h -0.0493 l -2.5e-4,-0.0374 0.0766,-0.6509 0.15746,-0.638 0.23779,-0.61808 0.0586,-0.12349 0.31641,-0.55365 0.38301,-0.51219 0.441198,-0.46324 0.49088,-0.40671 0.53213,-0.34259 0.564947,-0.27097 0.211836,-0.0793 0.401929,-0.12675 0.371501,-0.0873 0.369951,-0.0522 0.39723,-0.0212 z"
       style="fill:#848484;fill-opacity:1;fill-rule:evenodd;stroke:#848484;stroke-width:0.001;stroke-linecap:round;stroke-linejoin:round;stroke-opacity:1"
       inkscape:connector-curvature="0" />
    <path
       id="path146"
       d="m -68.695144,-155.43033 0.455549,0.0125 0.43401,0.0199 0.428219,0.0279 0.438175,0.0367 0.46388,0.0459 0.159715,0.0171 1.474775,0.19494 1.43477,0.25878 1.39192,0.32156 1.346454,0.38334 1.298194,0.44412 1.247394,0.50383 1.193292,0.56256 1.136904,0.62027 1.077468,0.67696 0.951738,0.68351 0.55753,0.45987 0.49403,0.48077 0.448818,0.52157 0.422148,0.58219 0.08407,0.12743 0.164338,0.2715 0.17526,0.32144 0.174244,0.34717 0.161798,0.34864 0.13716,0.32588 0.09804,0.26858 0.02286,0.0677 0.02134,0.0601 0.02007,0.0552 0.0188,0.0531 0.01753,0.0535 0.01626,0.0566 0.01524,0.0625 0.01397,0.0709 0.01295,0.0821 0.01194,0.0959 0.01092,0.11235 0.0099,0.13152 0.0091,0.15331 0.0084,0.17783 0.0074,0.20498 0.0066,0.23482 0.0058,0.26731 0.0051,0.30249 0.0046,0.34033 0.0038,0.38082 0.0036,0.42401 0.0028,0.46987 0.0023,0.51836 0.002,0.56957 0.0015,0.62342 10e-4,0.67996 0.001,0.73914 5.08e-4,0.80101 2.54e-4,0.86556 2.54e-4,0.93274 v 1.00264 1.07516 1.15039 l -2.54e-4,1.22819 v 1.30886 0.74219 15.01318 l -2.550668,2.55041 -2.550668,2.55041 h -26.924104 l -5.10149,-5.10209 0.0108,-14.94663 h 0.0321 v 14.90497 l 2.55046,2.55067 2.55044,2.55067 h 26.839366 l 2.550668,-2.55042 2.550668,-2.55041 v -14.95832 -1.3368 -1.25455 -1.17539 l -2.54e-4,-1.0987 v -1.02477 l -2.54e-4,-0.95343 -5.08e-4,-0.88484 -2.54e-4,-0.81887 -7.62e-4,-0.7556 -5.08e-4,-0.69499 -10e-4,-0.63706 -0.001,-0.58181 -0.0013,-0.52924 -0.0013,-0.4793 -0.0018,-0.4321 -0.0018,-0.3875 -0.002,-0.34565 -0.0023,-0.3064 -0.0028,-0.26987 -0.0028,-0.23602 -0.0033,-0.2048 -0.0036,-0.1763 -0.0038,-0.15044 -0.0041,-0.12728 -0.0046,-0.10679 -0.0051,-0.089 -0.0053,-0.0738 -0.0056,-0.0613 -0.0061,-0.0515 -0.0066,-0.0444 -0.0071,-0.0399 -0.0074,-0.0382 -0.0018,-0.009 -0.153924,-0.59004 -0.222758,-0.61138 -0.28448,-0.61727 -0.338836,-0.60764 -0.385826,-0.58253 -0.08636,-0.11803 -0.40132,-0.48473 -0.481838,-0.48868 -0.558546,-0.48966 -0.63119,-0.48773 -0.700024,-0.48288 -0.764794,-0.47503 -0.826262,-0.46431 -0.323088,-0.16998 -1.21158,-0.58008 -1.266952,-0.51773 -1.319276,-0.45466 -1.368806,-0.39085 -1.41544,-0.32632 -1.459408,-0.26103 -1.50048,-0.19508 -1.538732,-0.12832 -0.04323,-0.003 -0.329869,-0.0152 -0.38763,-0.0105 -0.431343,-0.006 -0.46101,-0.002 -0.476631,0.002 -0.47818,0.006 -0.465709,0.0101 -0.439191,0.0137 -0.398577,0.017 -0.343942,0.0202 -0.275259,0.0231 -0.03094,0.003 -1.244861,0.17107 -1.24015,0.23548 -1.21671,0.29564 -1.17442,0.35153 -0.4367,0.14928 -0.43744,0.15867 -0.39949,0.15357 -0.38377,0.15799 -0.39035,0.17188 -0.41925,0.1953 -0.46736,0.22669 -0.92255,0.47709 -0.85502,0.49175 -0.80457,0.5174 -0.77119,0.55399 -0.75487,0.60163 -0.0193,0.0161 -0.46868,0.42698 -0.45815,0.48283 -0.43946,0.52636 -0.41263,0.55763 -0.37767,0.57661 -0.33456,0.58323 -0.28331,0.57757 -0.22393,0.55964 -0.13574,0.44524 -0.007,0.0302 -0.007,0.0324 -0.007,0.0372 -0.006,0.0446 -0.006,0.0547 -0.005,0.0675 -0.005,0.083 -0.005,0.10109 -0.004,0.12184 -0.004,0.14529 -0.004,0.1714 -0.003,0.20015 -0.003,0.23157 -0.003,0.26566 -0.002,0.30242 -0.002,0.3418 -0.002,0.3839 -0.002,0.4286 -0.001,0.47602 -10e-4,0.52608 -0.001,0.57879 -8.9e-4,0.63419 -7.2e-4,0.69223 -5.9e-4,0.75293 -4.7e-4,0.81631 -3.5e-4,0.88234 -2.6e-4,0.95103 -1.8e-4,1.0224 -1.2e-4,1.09641 -6e-5,1.1731 -3e-5,1.25253 -1e-5,1.33274 h -0.0321 l 0.011,-15.19378 0.13834,-0.40218 0.24064,-0.60686 0.30751,-0.62611 0.36388,-0.63014 0.40975,-0.61903 0.44512,-0.59276 0.47001,-0.55125 0.48438,-0.49462 0.33653,-0.29985 0.96309,-0.75262 1.02636,-0.70244 1.0825,-0.64897 1.13142,-0.59228 1.17322,-0.53233 1.20782,-0.46916 1.23528,-0.40275 1.2556,-0.33309 1.2687,-0.26017 0.0488,-0.008 0.40465,-0.0679 0.365708,-0.0566 0.341249,-0.0464 0.331267,-0.0373 0.335737,-0.0295 0.354711,-0.0228 0.388163,-0.0172 0.436067,-0.0129 0.498424,-0.01 0.299441,-0.004 0.614629,-0.006 0.545846,-5.4e-4 z"
       style="fill:#848484;fill-opacity:1;fill-rule:evenodd;stroke:#848484;stroke-width:0.001;stroke-linecap:round;stroke-linejoin:round;stroke-opacity:1"
       inkscape:connector-curvature="0" />
    <path
       style="fill:#c2c200;fill-opacity:0;stroke:#c2c200;stroke-width:0.001;stroke-linecap:round;stroke-linejoin:round;stroke-opacity:1"
       id="path160"
       d="m -64.149509,-145.81313 0.12446,0.49784"
       inkscape:connector-curvature="0" />
    <path
       style="fill:#c2c200;fill-opacity:0;stroke:#c2c200;stroke-width:0.001;stroke-linecap:round;stroke-linejoin:round;stroke-opacity:1"
       id="path162"
       d="m -64.149509,-142.76005 -0.17272,0.4826"
       inkscape:connector-curvature="0" />
    <path
       style="fill:#c2c200;fill-opacity:0;stroke:#c2c200;stroke-width:0.001;stroke-linecap:round;stroke-linejoin:round;stroke-opacity:1"
       id="path164"
       d="m -64.025049,-143.25789 -0.12446,0.49784"
       inkscape:connector-curvature="0" />
    <path
       style="fill:#c2c200;fill-opacity:0;stroke:#c2c200;stroke-width:0.001;stroke-linecap:round;stroke-linejoin:round;stroke-opacity:1"
       id="path166"
       d="m -63.948849,-144.80475 0.0254,0.51816"
       inkscape:connector-curvature="0" />
    <path
       style="fill:#c2c200;fill-opacity:0;stroke:#c2c200;stroke-width:0.001;stroke-linecap:round;stroke-linejoin:round;stroke-opacity:1"
       id="path168"
       d="m -64.025049,-145.31529 0.0762,0.51054"
       inkscape:connector-curvature="0" />
    <path
       style="fill:#c2c200;fill-opacity:0;stroke:#c2c200;stroke-width:0.001;stroke-linecap:round;stroke-linejoin:round;stroke-opacity:1"
       id="path170"
       d="m -63.948849,-143.76589 -0.0762,0.508"
       inkscape:connector-curvature="0" />
    <path
       style="fill:#c2c200;fill-opacity:0;stroke:#c2c200;stroke-width:0.001;stroke-linecap:round;stroke-linejoin:round;stroke-opacity:1"
       id="path172"
       d="m -64.322229,-142.27745 -0.21844,0.46482"
       inkscape:connector-curvature="0" />
    <path
       style="fill:#c2c200;fill-opacity:0;stroke:#c2c200;stroke-width:0.001;stroke-linecap:round;stroke-linejoin:round;stroke-opacity:1"
       id="path174"
       d="m -64.540669,-141.81263 -0.26416,0.43942"
       inkscape:connector-curvature="0" />
    <path
       style="fill:#c2c200;fill-opacity:0;stroke:#c2c200;stroke-width:0.001;stroke-linecap:round;stroke-linejoin:round;stroke-opacity:1"
       id="path176"
       d="m -64.540669,-146.75801 0.21844,0.46228"
       inkscape:connector-curvature="0" />
    <path
       style="fill:#c2c200;fill-opacity:0;stroke:#c2c200;stroke-width:0.001;stroke-linecap:round;stroke-linejoin:round;stroke-opacity:1"
       id="path178"
       d="m -64.804829,-147.19743 0.26416,0.43942"
       inkscape:connector-curvature="0" />
    <path
       style="fill:#c2c200;fill-opacity:0;stroke:#c2c200;stroke-width:0.001;stroke-linecap:round;stroke-linejoin:round;stroke-opacity:1"
       id="path180"
       d="m -63.923449,-144.28659 -0.0254,0.5207"
       inkscape:connector-curvature="0" />
    <path
       style="fill:#c2c200;fill-opacity:0;stroke:#c2c200;stroke-width:0.001;stroke-linecap:round;stroke-linejoin:round;stroke-opacity:1"
       id="path182"
       d="m -64.322229,-146.29573 0.17272,0.4826"
       inkscape:connector-curvature="0" />
    <path
       style="fill:#c2c200;fill-opacity:0;stroke:#c2c200;stroke-width:0.001;stroke-linecap:round;stroke-linejoin:round;stroke-opacity:1"
       id="path184"
       d="m -50.961829,-146.76817 -0.14224,-0.3683"
       inkscape:connector-curvature="0" />
    <path
       style="fill:#c2c200;fill-opacity:0;stroke:#c2c200;stroke-width:0.001;stroke-linecap:round;stroke-linejoin:round;stroke-opacity:1"
       id="path186"
       d="m -51.883849,-148.57919 -0.23622,-0.34036"
       inkscape:connector-curvature="0" />
    <path
       style="fill:#c2c200;fill-opacity:0;stroke:#c2c200;stroke-width:0.001;stroke-linecap:round;stroke-linejoin:round;stroke-opacity:1"
       id="path188"
       d="m -51.457129,-147.86799 -0.2032,-0.36068"
       inkscape:connector-curvature="0" />
    <path
       style="fill:#c2c200;fill-opacity:0;stroke:#c2c200;stroke-width:0.001;stroke-linecap:round;stroke-linejoin:round;stroke-opacity:1"
       id="path190"
       d="m -50.743389,-146.04173 -0.09652,-0.36068"
       inkscape:connector-curvature="0" />
    <path
       style="fill:#c2c200;fill-opacity:0;stroke:#c2c200;stroke-width:0.001;stroke-linecap:round;stroke-linejoin:round;stroke-opacity:1"
       id="path192"
       d="m -51.271709,-147.50477 -0.18542,-0.36322"
       inkscape:connector-curvature="0" />
    <path
       style="fill:#c2c200;fill-opacity:0;stroke:#c2c200;stroke-width:0.001;stroke-linecap:round;stroke-linejoin:round;stroke-opacity:1"
       id="path194"
       d="m -51.660329,-148.22867 -0.22352,-0.35052"
       inkscape:connector-curvature="0" />
    <path
       style="fill:#c2c200;fill-opacity:0;stroke:#c2c200;stroke-width:0.001;stroke-linecap:round;stroke-linejoin:round;stroke-opacity:1"
       id="path196"
       d="m -50.839909,-146.40241 -0.12192,-0.36576"
       inkscape:connector-curvature="0" />
    <path
       style="fill:#c2c200;fill-opacity:0;stroke:#c2c200;stroke-width:0.001;stroke-linecap:round;stroke-linejoin:round;stroke-opacity:1"
       id="path198"
       d="m -50.672269,-145.68867 -0.07112,-0.35306"
       inkscape:connector-curvature="0" />
    <path
       style="fill:#c2c200;fill-opacity:0;stroke:#c2c200;stroke-width:0.001;stroke-linecap:round;stroke-linejoin:round;stroke-opacity:1"
       id="path200"
       d="m -51.104069,-147.13647 -0.16764,-0.3683"
       inkscape:connector-curvature="0" />
    <path
       style="fill:#c2c200;fill-opacity:0;stroke:#c2c200;stroke-width:0.001;stroke-linecap:round;stroke-linejoin:round;stroke-opacity:1"
       id="path202"
       d="m -50.611309,-145.01049 -0.01524,-0.33274"
       inkscape:connector-curvature="0" />
    <path
       style="fill:#c2c200;fill-opacity:0;stroke:#c2c200;stroke-width:0.001;stroke-linecap:round;stroke-linejoin:round;stroke-opacity:1"
       id="path204"
       d="m -50.626549,-145.34323 -0.04572,-0.34544"
       inkscape:connector-curvature="0" />
    <path
       style="fill:#c2c200;fill-opacity:0;stroke:#c2c200;stroke-width:0.001;stroke-linecap:round;stroke-linejoin:round;stroke-opacity:1"
       id="path206"
       d="m -70.174389,-155.46767 -1.16586,0.033"
       inkscape:connector-curvature="0" />
    <path
       style="fill:#c2c200;fill-opacity:0;stroke:#c2c200;stroke-width:0.001;stroke-linecap:round;stroke-linejoin:round;stroke-opacity:1"
       id="path208"
       d="m -71.340249,-155.43465 -0.88646,0.0584"
       inkscape:connector-curvature="0" />
    <path
       style="fill:#c2c200;fill-opacity:0;stroke:#c2c200;stroke-width:0.001;stroke-linecap:round;stroke-linejoin:round;stroke-opacity:1"
       id="path210"
       d="m -72.226709,-155.37623 -0.88646,0.094"
       inkscape:connector-curvature="0" />
    <path
       style="fill:#c2c200;fill-opacity:0;stroke:#c2c200;stroke-width:0.001;stroke-linecap:round;stroke-linejoin:round;stroke-opacity:1"
       id="path212"
       d="m -73.113169,-155.28225 -0.889,0.13208"
       inkscape:connector-curvature="0" />
    <path
       style="fill:#c2c200;fill-opacity:0;stroke:#c2c200;stroke-width:0.001;stroke-linecap:round;stroke-linejoin:round;stroke-opacity:1"
       id="path214"
       d="m -74.002169,-155.15017 -0.88646,0.1651"
       inkscape:connector-curvature="0" />
    <path
       style="fill:#c2c200;fill-opacity:0;stroke:#c2c200;stroke-width:0.001;stroke-linecap:round;stroke-linejoin:round;stroke-opacity:1"
       id="path216"
       d="m -74.888629,-154.98507 -0.87884,0.2032"
       inkscape:connector-curvature="0" />
    <path
       style="fill:#c2c200;fill-opacity:0;stroke:#c2c200;stroke-width:0.001;stroke-linecap:round;stroke-linejoin:round;stroke-opacity:1"
       id="path218"
       d="m -75.767469,-154.78187 -0.8763,0.23622"
       inkscape:connector-curvature="0" />
    <path
       style="fill:#c2c200;fill-opacity:0;stroke:#c2c200;stroke-width:0.001;stroke-linecap:round;stroke-linejoin:round;stroke-opacity:1"
       id="path220"
       d="m -76.643769,-154.54565 -0.86614,0.27178"
       inkscape:connector-curvature="0" />
    <path
       style="fill:#c2c200;fill-opacity:0;stroke:#c2c200;stroke-width:0.001;stroke-linecap:round;stroke-linejoin:round;stroke-opacity:1"
       id="path222"
       d="m -77.509909,-154.27387 -0.85598,0.3048"
       inkscape:connector-curvature="0" />
    <path
       style="fill:#c2c200;fill-opacity:0;stroke:#c2c200;stroke-width:0.001;stroke-linecap:round;stroke-linejoin:round;stroke-opacity:1"
       id="path224"
       d="m -78.365889,-153.96907 -0.84074,0.33782"
       inkscape:connector-curvature="0" />
    <path
       style="fill:#c2c200;fill-opacity:0;stroke:#c2c200;stroke-width:0.001;stroke-linecap:round;stroke-linejoin:round;stroke-opacity:1"
       id="path226"
       d="m -79.206629,-153.63125 -0.82804,0.37084"
       inkscape:connector-curvature="0" />
    <path
       style="fill:#c2c200;fill-opacity:0;stroke:#c2c200;stroke-width:0.001;stroke-linecap:round;stroke-linejoin:round;stroke-opacity:1"
       id="path228"
       d="m -80.034669,-153.26041 -0.81026,0.40386"
       inkscape:connector-curvature="0" />
    <path
       style="fill:#c2c200;fill-opacity:0;stroke:#c2c200;stroke-width:0.001;stroke-linecap:round;stroke-linejoin:round;stroke-opacity:1"
       id="path230"
       d="m -80.844929,-152.85655 -0.78994,0.43434"
       inkscape:connector-curvature="0" />
    <path
       style="fill:#c2c200;fill-opacity:0;stroke:#c2c200;stroke-width:0.001;stroke-linecap:round;stroke-linejoin:round;stroke-opacity:1"
       id="path232"
       d="m -81.634869,-152.42221 -0.76708,0.46482"
       inkscape:connector-curvature="0" />
    <path
       style="fill:#c2c200;fill-opacity:0;stroke:#c2c200;stroke-width:0.001;stroke-linecap:round;stroke-linejoin:round;stroke-opacity:1"
       id="path234"
       d="m -82.401949,-151.95739 -0.74676,0.49784"
       inkscape:connector-curvature="0" />
    <path
       style="fill:#c2c200;fill-opacity:0;stroke:#c2c200;stroke-width:0.001;stroke-linecap:round;stroke-linejoin:round;stroke-opacity:1"
       id="path236"
       d="m -83.148709,-151.45955 -0.71882,0.52578"
       inkscape:connector-curvature="0" />
    <path
       style="fill:#c2c200;fill-opacity:0;stroke:#c2c200;stroke-width:0.001;stroke-linecap:round;stroke-linejoin:round;stroke-opacity:1"
       id="path238"
       d="m -83.867529,-150.93377 -0.69088,0.55626"
       inkscape:connector-curvature="0" />
    <path
       style="fill:#c2c200;fill-opacity:0;stroke:#c2c200;stroke-width:0.001;stroke-linecap:round;stroke-linejoin:round;stroke-opacity:1"
       id="path240"
       d="m -84.558409,-150.37751 -0.29718,0.2667"
       inkscape:connector-curvature="0" />
    <path
       style="fill:#c2c200;fill-opacity:0;stroke:#c2c200;stroke-width:0.001;stroke-linecap:round;stroke-linejoin:round;stroke-opacity:1"
       id="path242"
       d="m -84.855589,-150.11081 -0.29464,0.2921"
       inkscape:connector-curvature="0" />
    <path
       style="fill:#c2c200;fill-opacity:0;stroke:#c2c200;stroke-width:0.001;stroke-linecap:round;stroke-linejoin:round;stroke-opacity:1"
       id="path244"
       d="m -85.150229,-149.81871 -0.28956,0.31496"
       inkscape:connector-curvature="0" />
    <path
       style="fill:#c2c200;fill-opacity:0;stroke:#c2c200;stroke-width:0.001;stroke-linecap:round;stroke-linejoin:round;stroke-opacity:1"
       id="path246"
       d="m -85.439789,-149.50375 -0.28448,0.33274"
       inkscape:connector-curvature="0" />
    <path
       style="fill:#c2c200;fill-opacity:0;stroke:#c2c200;stroke-width:0.001;stroke-linecap:round;stroke-linejoin:round;stroke-opacity:1"
       id="path248"
       d="m -85.724269,-149.17101 -0.27432,0.35052"
       inkscape:connector-curvature="0" />
    <path
       style="fill:#c2c200;fill-opacity:0;stroke:#c2c200;stroke-width:0.001;stroke-linecap:round;stroke-linejoin:round;stroke-opacity:1"
       id="path250"
       d="m -85.998589,-148.82049 -0.26162,0.36068"
       inkscape:connector-curvature="0" />
    <path
       style="fill:#c2c200;fill-opacity:0;stroke:#c2c200;stroke-width:0.001;stroke-linecap:round;stroke-linejoin:round;stroke-opacity:1"
       id="path252"
       d="m -86.260209,-148.45981 -0.24892,0.3683"
       inkscape:connector-curvature="0" />
    <path
       style="fill:#c2c200;fill-opacity:0;stroke:#c2c200;stroke-width:0.001;stroke-linecap:round;stroke-linejoin:round;stroke-opacity:1"
       id="path254"
       d="m -86.509129,-148.09151 -0.23368,0.37338"
       inkscape:connector-curvature="0" />
    <path
       style="fill:#c2c200;fill-opacity:0;stroke:#c2c200;stroke-width:0.001;stroke-linecap:round;stroke-linejoin:round;stroke-opacity:1"
       id="path256"
       d="m -86.742809,-147.71813 -0.21336,0.37592"
       inkscape:connector-curvature="0" />
    <path
       style="fill:#c2c200;fill-opacity:0;stroke:#c2c200;stroke-width:0.001;stroke-linecap:round;stroke-linejoin:round;stroke-opacity:1"
       id="path258"
       d="m -86.956169,-147.34221 -0.19304,0.37084"
       inkscape:connector-curvature="0" />
    <path
       style="fill:#c2c200;fill-opacity:0;stroke:#c2c200;stroke-width:0.001;stroke-linecap:round;stroke-linejoin:round;stroke-opacity:1"
       id="path260"
       d="m -87.149209,-146.97137 -0.16764,0.36322"
       inkscape:connector-curvature="0" />
    <path
       style="fill:#c2c200;fill-opacity:0;stroke:#c2c200;stroke-width:0.001;stroke-linecap:round;stroke-linejoin:round;stroke-opacity:1"
       id="path262"
       d="m -87.316849,-146.60815 -0.14478,0.3556"
       inkscape:connector-curvature="0" />
    <path
       style="fill:#c2c200;fill-opacity:0;stroke:#c2c200;stroke-width:0.001;stroke-linecap:round;stroke-linejoin:round;stroke-opacity:1"
       id="path264"
       d="m -87.461629,-146.25255 -0.1143,0.34036"
       inkscape:connector-curvature="0" />
    <path
       style="fill:#c2c200;fill-opacity:0;stroke:#c2c200;stroke-width:0.001;stroke-linecap:round;stroke-linejoin:round;stroke-opacity:1"
       id="path266"
       d="m -87.575929,-145.91219 -0.0864,0.32258"
       inkscape:connector-curvature="0" />
    <path
       style="fill:#c2c200;fill-opacity:0;stroke:#c2c200;stroke-width:0.001;stroke-linecap:round;stroke-linejoin:round;stroke-opacity:1"
       id="path268"
       d="m -87.662289,-145.58961 -0.0533,0.30226"
       inkscape:connector-curvature="0" />
    <path
       style="fill:#c2c200;fill-opacity:0;stroke:#c2c200;stroke-width:0.001;stroke-linecap:round;stroke-linejoin:round;stroke-opacity:1"
       id="path270"
       d="m -87.715629,-145.28735 -0.0178,0.27686"
       inkscape:connector-curvature="0" />
    <path
       style="fill:#c2c200;fill-opacity:0;stroke:#c2c200;stroke-width:0.001;stroke-linecap:round;stroke-linejoin:round;stroke-opacity:1"
       id="path272"
       d="m -87.733409,-145.01049 v 29.48178"
       inkscape:connector-curvature="0" />
    <path
       style="fill:#c2c200;fill-opacity:0;stroke:#c2c200;stroke-width:0.001;stroke-linecap:round;stroke-linejoin:round;stroke-opacity:1"
       id="path274"
       d="m -87.733409,-115.52871 5.15366,5.15366"
       inkscape:connector-curvature="0" />
    <path
       style="fill:#c2c200;fill-opacity:0;stroke:#c2c200;stroke-width:0.001;stroke-linecap:round;stroke-linejoin:round;stroke-opacity:1"
       id="path276"
       d="m -82.579749,-110.37505 h 26.80716"
       inkscape:connector-curvature="0" />
    <path
       style="fill:#c2c200;fill-opacity:0;stroke:#c2c200;stroke-width:0.001;stroke-linecap:round;stroke-linejoin:round;stroke-opacity:1"
       id="path278"
       d="m -55.772589,-110.37505 5.16128,-5.15874"
       inkscape:connector-curvature="0" />
    <path
       style="fill:#c2c200;fill-opacity:0;stroke:#c2c200;stroke-width:0.001;stroke-linecap:round;stroke-linejoin:round;stroke-opacity:1"
       id="path280"
       d="m -50.611309,-115.53379 v -29.4767"
       inkscape:connector-curvature="0" />
    <path
       style="fill:#c2c200;fill-opacity:0;stroke:#c2c200;stroke-width:0.001;stroke-linecap:round;stroke-linejoin:round;stroke-opacity:1"
       id="path282"
       d="m -52.120069,-148.91955 -0.25146,-0.32766"
       inkscape:connector-curvature="0" />
    <path
       style="fill:#c2c200;fill-opacity:0;stroke:#c2c200;stroke-width:0.001;stroke-linecap:round;stroke-linejoin:round;stroke-opacity:1"
       id="path284"
       d="m -52.371529,-149.24721 -0.26416,-0.31242"
       inkscape:connector-curvature="0" />
    <path
       style="fill:#c2c200;fill-opacity:0;stroke:#c2c200;stroke-width:0.001;stroke-linecap:round;stroke-linejoin:round;stroke-opacity:1"
       id="path286"
       d="m -52.635689,-149.55963 -0.27432,-0.29464"
       inkscape:connector-curvature="0" />
    <path
       style="fill:#c2c200;fill-opacity:0;stroke:#c2c200;stroke-width:0.001;stroke-linecap:round;stroke-linejoin:round;stroke-opacity:1"
       id="path288"
       d="m -52.910009,-149.85427 -0.28448,-0.27178"
       inkscape:connector-curvature="0" />
    <path
       style="fill:#c2c200;fill-opacity:0;stroke:#c2c200;stroke-width:0.001;stroke-linecap:round;stroke-linejoin:round;stroke-opacity:1"
       id="path290"
       d="m -53.194489,-150.12605 -0.2921,-0.25146"
       inkscape:connector-curvature="0" />
    <path
       style="fill:#c2c200;fill-opacity:0;stroke:#c2c200;stroke-width:0.001;stroke-linecap:round;stroke-linejoin:round;stroke-opacity:1"
       id="path292"
       d="m -53.486589,-150.37751 -0.81026,-0.61468"
       inkscape:connector-curvature="0" />
    <path
       style="fill:#c2c200;fill-opacity:0;stroke:#c2c200;stroke-width:0.001;stroke-linecap:round;stroke-linejoin:round;stroke-opacity:1"
       id="path294"
       d="m -54.296849,-150.99219 -0.84074,-0.5715"
       inkscape:connector-curvature="0" />
    <path
       style="fill:#c2c200;fill-opacity:0;stroke:#c2c200;stroke-width:0.001;stroke-linecap:round;stroke-linejoin:round;stroke-opacity:1"
       id="path296"
       d="m -55.137589,-151.56369 -0.87376,-0.53086"
       inkscape:connector-curvature="0" />
    <path
       style="fill:#c2c200;fill-opacity:0;stroke:#c2c200;stroke-width:0.001;stroke-linecap:round;stroke-linejoin:round;stroke-opacity:1"
       id="path298"
       d="m -56.011349,-152.09455 -0.9017,-0.48768"
       inkscape:connector-curvature="0" />
    <path
       style="fill:#c2c200;fill-opacity:0;stroke:#c2c200;stroke-width:0.001;stroke-linecap:round;stroke-linejoin:round;stroke-opacity:1"
       id="path300"
       d="m -56.913049,-152.58223 -0.92964,-0.44704"
       inkscape:connector-curvature="0" />
    <path
       style="fill:#c2c200;fill-opacity:0;stroke:#c2c200;stroke-width:0.001;stroke-linecap:round;stroke-linejoin:round;stroke-opacity:1"
       id="path302"
       d="m -57.842689,-153.02927 -0.94996,-0.40894"
       inkscape:connector-curvature="0" />
    <path
       style="fill:#c2c200;fill-opacity:0;stroke:#c2c200;stroke-width:0.001;stroke-linecap:round;stroke-linejoin:round;stroke-opacity:1"
       id="path304"
       d="m -58.792649,-153.43821 -0.97282,-0.36576"
       inkscape:connector-curvature="0" />
    <path
       style="fill:#c2c200;fill-opacity:0;stroke:#c2c200;stroke-width:0.001;stroke-linecap:round;stroke-linejoin:round;stroke-opacity:1"
       id="path306"
       d="m -59.765469,-153.80397 -0.98806,-0.3302"
       inkscape:connector-curvature="0" />
    <path
       style="fill:#c2c200;fill-opacity:0;stroke:#c2c200;stroke-width:0.001;stroke-linecap:round;stroke-linejoin:round;stroke-opacity:1"
       id="path308"
       d="m -60.753529,-154.13417 -1.00584,-0.2921"
       inkscape:connector-curvature="0" />
    <path
       style="fill:#c2c200;fill-opacity:0;stroke:#c2c200;stroke-width:0.001;stroke-linecap:round;stroke-linejoin:round;stroke-opacity:1"
       id="path310"
       d="m -61.759369,-154.42627 -1.01854,-0.254"
       inkscape:connector-curvature="0" />
    <path
       style="fill:#c2c200;fill-opacity:0;stroke:#c2c200;stroke-width:0.001;stroke-linecap:round;stroke-linejoin:round;stroke-opacity:1"
       id="path312"
       d="m -62.777909,-154.68027 -1.02616,-0.2159"
       inkscape:connector-curvature="0" />
    <path
       style="fill:#c2c200;fill-opacity:0;stroke:#c2c200;stroke-width:0.001;stroke-linecap:round;stroke-linejoin:round;stroke-opacity:1"
       id="path314"
       d="m -63.804069,-154.89617 -1.03632,-0.18288"
       inkscape:connector-curvature="0" />
    <path
       style="fill:#c2c200;fill-opacity:0;stroke:#c2c200;stroke-width:0.001;stroke-linecap:round;stroke-linejoin:round;stroke-opacity:1"
       id="path316"
       d="m -64.840389,-155.07905 -1.03886,-0.14478"
       inkscape:connector-curvature="0" />
    <path
       style="fill:#c2c200;fill-opacity:0;stroke:#c2c200;stroke-width:0.001;stroke-linecap:round;stroke-linejoin:round;stroke-opacity:1"
       id="path318"
       d="m -65.879249,-155.22383 -1.0414,-0.11176"
       inkscape:connector-curvature="0" />
    <path
       style="fill:#c2c200;fill-opacity:0;stroke:#c2c200;stroke-width:0.001;stroke-linecap:round;stroke-linejoin:round;stroke-opacity:1"
       id="path320"
       d="m -66.920649,-155.33559 -1.03886,-0.0762"
       inkscape:connector-curvature="0" />
    <path
       style="fill:#c2c200;fill-opacity:0;stroke:#c2c200;stroke-width:0.001;stroke-linecap:round;stroke-linejoin:round;stroke-opacity:1"
       id="path322"
       d="m -67.959509,-155.41179 -1.03886,-0.0457"
       inkscape:connector-curvature="0" />
    <path
       style="fill:#c2c200;fill-opacity:0;stroke:#c2c200;stroke-width:0.001;stroke-linecap:round;stroke-linejoin:round;stroke-opacity:1"
       id="path324"
       d="m -68.998369,-155.45751 -1.17602,-0.0102"
       inkscape:connector-curvature="0" />
    <path
       style="fill:#c2c200;fill-opacity:0;stroke:#c2c200;stroke-width:0.001;stroke-linecap:round;stroke-linejoin:round;stroke-opacity:1"
       id="path326"
       d="m -70.174389,-155.46767 v 0"
       inkscape:connector-curvature="0" />
    <path
       style="fill:#c2c200;fill-opacity:0;stroke:#c2c200;stroke-width:0.001;stroke-linecap:round;stroke-linejoin:round;stroke-opacity:1"
       id="path328"
       d="m -69.173629,-149.53423 0.51816,0.0254"
       inkscape:connector-curvature="0" />
    <path
       style="fill:#c2c200;fill-opacity:0;stroke:#c2c200;stroke-width:0.001;stroke-linecap:round;stroke-linejoin:round;stroke-opacity:1"
       id="path330"
       d="m -68.655469,-149.50883 0.51054,0.0762"
       inkscape:connector-curvature="0" />
    <path
       style="fill:#c2c200;fill-opacity:0;stroke:#c2c200;stroke-width:0.001;stroke-linecap:round;stroke-linejoin:round;stroke-opacity:1"
       id="path332"
       d="m -68.144929,-149.43263 0.49784,0.12446"
       inkscape:connector-curvature="0" />
    <path
       style="fill:#c2c200;fill-opacity:0;stroke:#c2c200;stroke-width:0.001;stroke-linecap:round;stroke-linejoin:round;stroke-opacity:1"
       id="path334"
       d="m -67.647089,-149.30817 0.4826,0.17272"
       inkscape:connector-curvature="0" />
    <path
       style="fill:#c2c200;fill-opacity:0;stroke:#c2c200;stroke-width:0.001;stroke-linecap:round;stroke-linejoin:round;stroke-opacity:1"
       id="path336"
       d="m -67.164489,-149.13545 0.46228,0.21844"
       inkscape:connector-curvature="0" />
    <path
       style="fill:#c2c200;fill-opacity:0;stroke:#c2c200;stroke-width:0.001;stroke-linecap:round;stroke-linejoin:round;stroke-opacity:1"
       id="path338"
       d="m -66.702209,-148.91701 0.44196,0.26416"
       inkscape:connector-curvature="0" />
    <path
       style="fill:#c2c200;fill-opacity:0;stroke:#c2c200;stroke-width:0.001;stroke-linecap:round;stroke-linejoin:round;stroke-opacity:1"
       id="path340"
       d="m -66.260249,-148.65285 0.41402,0.30734"
       inkscape:connector-curvature="0" />
    <path
       style="fill:#c2c200;fill-opacity:0;stroke:#c2c200;stroke-width:0.001;stroke-linecap:round;stroke-linejoin:round;stroke-opacity:1"
       id="path342"
       d="m -65.846229,-148.34551 0.38608,0.34798"
       inkscape:connector-curvature="0" />
    <path
       style="fill:#c2c200;fill-opacity:0;stroke:#c2c200;stroke-width:0.001;stroke-linecap:round;stroke-linejoin:round;stroke-opacity:1"
       id="path344"
       d="m -65.460149,-147.99753 0.34798,0.38354"
       inkscape:connector-curvature="0" />
    <path
       style="fill:#c2c200;fill-opacity:0;stroke:#c2c200;stroke-width:0.001;stroke-linecap:round;stroke-linejoin:round;stroke-opacity:1"
       id="path346"
       d="m -65.112169,-147.61399 0.30734,0.41656"
       inkscape:connector-curvature="0" />
    <path
       style="fill:#c2c200;fill-opacity:0;stroke:#c2c200;stroke-width:0.001;stroke-linecap:round;stroke-linejoin:round;stroke-opacity:1"
       id="path348"
       d="m -64.804829,-141.37321 -0.30734,0.41402"
       inkscape:connector-curvature="0" />
    <path
       style="fill:#c2c200;fill-opacity:0;stroke:#c2c200;stroke-width:0.001;stroke-linecap:round;stroke-linejoin:round;stroke-opacity:1"
       id="path350"
       d="m -65.112169,-140.95919 -0.34798,0.38608"
       inkscape:connector-curvature="0" />
    <path
       style="fill:#c2c200;fill-opacity:0;stroke:#c2c200;stroke-width:0.001;stroke-linecap:round;stroke-linejoin:round;stroke-opacity:1"
       id="path352"
       d="m -65.460149,-140.57311 -0.38608,0.34798"
       inkscape:connector-curvature="0" />
    <path
       style="fill:#c2c200;fill-opacity:0;stroke:#c2c200;stroke-width:0.001;stroke-linecap:round;stroke-linejoin:round;stroke-opacity:1"
       id="path354"
       d="m -65.846229,-140.22513 -0.41402,0.30734"
       inkscape:connector-curvature="0" />
    <path
       style="fill:#c2c200;fill-opacity:0;stroke:#c2c200;stroke-width:0.001;stroke-linecap:round;stroke-linejoin:round;stroke-opacity:1"
       id="path356"
       d="m -66.260249,-139.91779 -0.44196,0.26416"
       inkscape:connector-curvature="0" />
    <path
       style="fill:#c2c200;fill-opacity:0;stroke:#c2c200;stroke-width:0.001;stroke-linecap:round;stroke-linejoin:round;stroke-opacity:1"
       id="path358"
       d="m -66.702209,-139.65363 -0.46228,0.21844"
       inkscape:connector-curvature="0" />
    <path
       style="fill:#c2c200;fill-opacity:0;stroke:#c2c200;stroke-width:0.001;stroke-linecap:round;stroke-linejoin:round;stroke-opacity:1"
       id="path360"
       d="m -67.164489,-139.43519 -0.4826,0.17272"
       inkscape:connector-curvature="0" />
    <path
       style="fill:#c2c200;fill-opacity:0;stroke:#c2c200;stroke-width:0.001;stroke-linecap:round;stroke-linejoin:round;stroke-opacity:1"
       id="path362"
       d="m -67.647089,-139.26247 -0.49784,0.12446"
       inkscape:connector-curvature="0" />
    <path
       style="fill:#c2c200;fill-opacity:0;stroke:#c2c200;stroke-width:0.001;stroke-linecap:round;stroke-linejoin:round;stroke-opacity:1"
       id="path364"
       d="m -68.144929,-139.13801 -0.51054,0.0762"
       inkscape:connector-curvature="0" />
    <path
       style="fill:#c2c200;fill-opacity:0;stroke:#c2c200;stroke-width:0.001;stroke-linecap:round;stroke-linejoin:round;stroke-opacity:1"
       id="path366"
       d="m -68.655469,-139.06181 -0.51816,0.0254"
       inkscape:connector-curvature="0" />
    <path
       style="fill:#c2c200;fill-opacity:0;stroke:#c2c200;stroke-width:0.001;stroke-linecap:round;stroke-linejoin:round;stroke-opacity:1"
       id="path368"
       d="m -69.173629,-139.03641 -0.53594,-0.0254"
       inkscape:connector-curvature="0" />
    <path
       style="fill:#c2c200;fill-opacity:0;stroke:#c2c200;stroke-width:0.001;stroke-linecap:round;stroke-linejoin:round;stroke-opacity:1"
       id="path370"
       d="m -69.709569,-139.06181 -0.52324,-0.0813"
       inkscape:connector-curvature="0" />
    <path
       style="fill:#c2c200;fill-opacity:0;stroke:#c2c200;stroke-width:0.001;stroke-linecap:round;stroke-linejoin:round;stroke-opacity:1"
       id="path372"
       d="m -70.232809,-139.14309 -0.50292,-0.12954"
       inkscape:connector-curvature="0" />
    <path
       style="fill:#c2c200;fill-opacity:0;stroke:#c2c200;stroke-width:0.001;stroke-linecap:round;stroke-linejoin:round;stroke-opacity:1"
       id="path374"
       d="m -70.735729,-139.27263 -0.48006,-0.17526"
       inkscape:connector-curvature="0" />
    <path
       style="fill:#c2c200;fill-opacity:0;stroke:#c2c200;stroke-width:0.001;stroke-linecap:round;stroke-linejoin:round;stroke-opacity:1"
       id="path376"
       d="m -71.215789,-139.44789 -0.45974,-0.22098"
       inkscape:connector-curvature="0" />
    <path
       style="fill:#c2c200;fill-opacity:0;stroke:#c2c200;stroke-width:0.001;stroke-linecap:round;stroke-linejoin:round;stroke-opacity:1"
       id="path378"
       d="m -71.675529,-139.66887 -0.43434,-0.26416"
       inkscape:connector-curvature="0" />
    <path
       style="fill:#c2c200;fill-opacity:0;stroke:#c2c200;stroke-width:0.001;stroke-linecap:round;stroke-linejoin:round;stroke-opacity:1"
       id="path380"
       d="m -72.109869,-139.93303 -0.40386,-0.30226"
       inkscape:connector-curvature="0" />
    <path
       style="fill:#c2c200;fill-opacity:0;stroke:#c2c200;stroke-width:0.001;stroke-linecap:round;stroke-linejoin:round;stroke-opacity:1"
       id="path382"
       d="m -72.513729,-140.23529 -0.37084,-0.33782"
       inkscape:connector-curvature="0" />
    <path
       style="fill:#c2c200;fill-opacity:0;stroke:#c2c200;stroke-width:0.001;stroke-linecap:round;stroke-linejoin:round;stroke-opacity:1"
       id="path384"
       d="m -72.884569,-140.57311 -0.34036,-0.37338"
       inkscape:connector-curvature="0" />
    <path
       style="fill:#c2c200;fill-opacity:0;stroke:#c2c200;stroke-width:0.001;stroke-linecap:round;stroke-linejoin:round;stroke-opacity:1"
       id="path386"
       d="m -73.224929,-140.94649 -0.30226,-0.40386"
       inkscape:connector-curvature="0" />
    <path
       style="fill:#c2c200;fill-opacity:0;stroke:#c2c200;stroke-width:0.001;stroke-linecap:round;stroke-linejoin:round;stroke-opacity:1"
       id="path388"
       d="m -73.527189,-141.35035 -0.26162,-0.4318"
       inkscape:connector-curvature="0" />
    <path
       style="fill:#c2c200;fill-opacity:0;stroke:#c2c200;stroke-width:0.001;stroke-linecap:round;stroke-linejoin:round;stroke-opacity:1"
       id="path390"
       d="m -73.788809,-141.78215 -0.22098,-0.45974"
       inkscape:connector-curvature="0" />
    <path
       style="fill:#c2c200;fill-opacity:0;stroke:#c2c200;stroke-width:0.001;stroke-linecap:round;stroke-linejoin:round;stroke-opacity:1"
       id="path392"
       d="m -74.009789,-142.24189 -0.1778,-0.4826"
       inkscape:connector-curvature="0" />
    <path
       style="fill:#c2c200;fill-opacity:0;stroke:#c2c200;stroke-width:0.001;stroke-linecap:round;stroke-linejoin:round;stroke-opacity:1"
       id="path394"
       d="m -74.187589,-142.72449 -0.12954,-0.50292"
       inkscape:connector-curvature="0" />
    <path
       style="fill:#c2c200;fill-opacity:0;stroke:#c2c200;stroke-width:0.001;stroke-linecap:round;stroke-linejoin:round;stroke-opacity:1"
       id="path396"
       d="m -74.317129,-143.22741 -0.0787,-0.5207"
       inkscape:connector-curvature="0" />
    <path
       style="fill:#c2c200;fill-opacity:0;stroke:#c2c200;stroke-width:0.001;stroke-linecap:round;stroke-linejoin:round;stroke-opacity:1"
       id="path398"
       d="m -74.395869,-143.74811 -0.0279,-0.53848"
       inkscape:connector-curvature="0" />
    <path
       style="fill:#c2c200;fill-opacity:0;stroke:#c2c200;stroke-width:0.001;stroke-linecap:round;stroke-linejoin:round;stroke-opacity:1"
       id="path400"
       d="m -74.423809,-144.28659 0.0279,-0.53594"
       inkscape:connector-curvature="0" />
    <path
       style="fill:#c2c200;fill-opacity:0;stroke:#c2c200;stroke-width:0.001;stroke-linecap:round;stroke-linejoin:round;stroke-opacity:1"
       id="path402"
       d="m -74.395869,-144.82253 0.0787,-0.5207"
       inkscape:connector-curvature="0" />
    <path
       style="fill:#c2c200;fill-opacity:0;stroke:#c2c200;stroke-width:0.001;stroke-linecap:round;stroke-linejoin:round;stroke-opacity:1"
       id="path404"
       d="m -74.317129,-145.34323 0.12954,-0.50292"
       inkscape:connector-curvature="0" />
    <path
       style="fill:#c2c200;fill-opacity:0;stroke:#c2c200;stroke-width:0.001;stroke-linecap:round;stroke-linejoin:round;stroke-opacity:1"
       id="path406"
       d="m -74.187589,-145.84615 0.1778,-0.4826"
       inkscape:connector-curvature="0" />
    <path
       style="fill:#c2c200;fill-opacity:0;stroke:#c2c200;stroke-width:0.001;stroke-linecap:round;stroke-linejoin:round;stroke-opacity:1"
       id="path408"
       d="m -74.009789,-146.32875 0.22098,-0.45974"
       inkscape:connector-curvature="0" />
    <path
       style="fill:#c2c200;fill-opacity:0;stroke:#c2c200;stroke-width:0.001;stroke-linecap:round;stroke-linejoin:round;stroke-opacity:1"
       id="path410"
       d="m -73.788809,-146.78849 0.26162,-0.4318"
       inkscape:connector-curvature="0" />
    <path
       style="fill:#c2c200;fill-opacity:0;stroke:#c2c200;stroke-width:0.001;stroke-linecap:round;stroke-linejoin:round;stroke-opacity:1"
       id="path412"
       d="m -73.527189,-147.22029 0.30226,-0.40386"
       inkscape:connector-curvature="0" />
    <path
       style="fill:#c2c200;fill-opacity:0;stroke:#c2c200;stroke-width:0.001;stroke-linecap:round;stroke-linejoin:round;stroke-opacity:1"
       id="path414"
       d="m -73.224929,-147.62415 0.34036,-0.37338"
       inkscape:connector-curvature="0" />
    <path
       style="fill:#c2c200;fill-opacity:0;stroke:#c2c200;stroke-width:0.001;stroke-linecap:round;stroke-linejoin:round;stroke-opacity:1"
       id="path416"
       d="m -72.884569,-147.99753 0.37084,-0.34036"
       inkscape:connector-curvature="0" />
    <path
       style="fill:#c2c200;fill-opacity:0;stroke:#c2c200;stroke-width:0.001;stroke-linecap:round;stroke-linejoin:round;stroke-opacity:1"
       id="path418"
       d="m -72.513729,-148.33789 0.40386,-0.29972"
       inkscape:connector-curvature="0" />
    <path
       style="fill:#c2c200;fill-opacity:0;stroke:#c2c200;stroke-width:0.001;stroke-linecap:round;stroke-linejoin:round;stroke-opacity:1"
       id="path420"
       d="m -72.109869,-148.63761 0.43434,-0.26416"
       inkscape:connector-curvature="0" />
    <path
       style="fill:#c2c200;fill-opacity:0;stroke:#c2c200;stroke-width:0.001;stroke-linecap:round;stroke-linejoin:round;stroke-opacity:1"
       id="path422"
       d="m -71.675529,-148.90177 0.45974,-0.22098"
       inkscape:connector-curvature="0" />
    <path
       style="fill:#c2c200;fill-opacity:0;stroke:#c2c200;stroke-width:0.001;stroke-linecap:round;stroke-linejoin:round;stroke-opacity:1"
       id="path424"
       d="m -71.215789,-149.12275 0.48006,-0.1778"
       inkscape:connector-curvature="0" />
    <path
       style="fill:#c2c200;fill-opacity:0;stroke:#c2c200;stroke-width:0.001;stroke-linecap:round;stroke-linejoin:round;stroke-opacity:1"
       id="path426"
       d="m -70.735729,-149.30055 0.50292,-0.127"
       inkscape:connector-curvature="0" />
    <path
       style="fill:#c2c200;fill-opacity:0;stroke:#c2c200;stroke-width:0.001;stroke-linecap:round;stroke-linejoin:round;stroke-opacity:1"
       id="path428"
       d="m -70.232809,-149.42755 0.52324,-0.0813"
       inkscape:connector-curvature="0" />
    <path
       style="fill:#c2c200;fill-opacity:0;stroke:#c2c200;stroke-width:0.001;stroke-linecap:round;stroke-linejoin:round;stroke-opacity:1"
       id="path430"
       d="m -69.709569,-149.50883 0.53594,-0.0254"
       inkscape:connector-curvature="0" />
    <path
       style="fill:#c2c200;fill-opacity:0;stroke:#c2c200;stroke-width:0.001;stroke-linecap:round;stroke-linejoin:round;stroke-opacity:1"
       id="path432"
       d="m -69.173629,-149.53423 v 0"
       inkscape:connector-curvature="0" />
  </g>
</svg>
