<?xml version="1.0" encoding="UTF-8" standalone="no"?>
<!-- Created with Inkscape (http://www.inkscape.org/) -->

<svg
   xmlns:dc="http://purl.org/dc/elements/1.1/"
   xmlns:cc="http://creativecommons.org/ns#"
   xmlns:rdf="http://www.w3.org/1999/02/22-rdf-syntax-ns#"
   xmlns:svg="http://www.w3.org/2000/svg"
   xmlns="http://www.w3.org/2000/svg"
   xmlns:sodipodi="http://sodipodi.sourceforge.net/DTD/sodipodi-0.dtd"
   xmlns:inkscape="http://www.inkscape.org/namespaces/inkscape"
   width="35.287418mm"
   height="39.800671mm"
   viewBox="0 0 35.287418 39.800671"
   version="1.1"
   id="svg9578"
   sodipodi:docname="guide-bar.svg"
   inkscape:version="0.92.4 (5da689c313, 2019-01-14)">
  <defs
     id="defs9572" />
  <sodipodi:namedview
     id="base"
     pagecolor="#ffffff"
     bordercolor="#666666"
     borderopacity="1.0"
     inkscape:pageopacity="0.0"
     inkscape:pageshadow="2"
     inkscape:zoom="7.9195959"
     inkscape:cx="65.47659"
     inkscape:cy="49.293542"
     inkscape:document-units="mm"
     inkscape:current-layer="g10150"
     showgrid="true"
     inkscape:window-width="1857"
     inkscape:window-height="1177"
     inkscape:window-x="55"
     inkscape:window-y="-8"
     inkscape:window-maximized="1"
     borderlayer="true"
     fit-margin-top="0"
     fit-margin-left="0"
     fit-margin-right="0"
     fit-margin-bottom="0"
     objecttolerance="1"
     gridtolerance="1"
     guidetolerance="1">
    <inkscape:grid
       id="grid10124"
       units="mm"
       type="xygrid"
       empspacing="1"
       spacingy="2.54"
       spacingx="2.54"
       originx="-127.05996"
       originy="-71.715231" />
  </sodipodi:namedview>
  <metadata
     id="metadata9575">
    <rdf:RDF>
      <cc:Work
         rdf:about="">
        <dc:format>image/svg+xml</dc:format>
        <dc:type
           rdf:resource="http://purl.org/dc/dcmitype/StillImage" />
        <dc:title></dc:title>
      </cc:Work>
    </rdf:RDF>
  </metadata>
  <g
     id="g10130"
     sodipodi:insensitive="true"
     inkscape:groupmode="layer"
     inkscape:label="[fixed] BG"
     transform="translate(-127.05996,68.515902)">
    <rect
       id="rect10128"
       style="fill:#ffffff;fill-opacity:1;stroke:none"
       height="43"
       width="33"
       y="0"
       x="0" />
  </g>
  <g
     id="g10132"
     inkscape:groupmode="layer"
     inkscape:label="F.Cu"
     transform="translate(-127.05996,68.515902)"
     style="display:inline">
    <g
       id="g10416">
      <circle
         r="0.85649997"
         cy="-39.635265"
         cx="150.3835"
         id="path2376"
         style="display:inline;opacity:1;fill:#000000;fill-opacity:1;stroke:none;stroke-width:0.01;stroke-linecap:round;stroke-linejoin:miter;stroke-miterlimit:4;stroke-dasharray:none;stroke-opacity:1;paint-order:normal" />
      <path
         inkscape:connector-curvature="0"
         id="path8031"
         d="M 145.69118,-45.818132 C 145.62477,-45.817712 145.55837,-45.799102 145.55837,-45.763362 V -45.282772 C 145.36122,-45.271972 145.11498,-45.178072 144.90208,-45.072442 V -45.738042 C 144.90208,-45.826882 144.63646,-45.821142 144.63646,-45.738042 V -44.931372 C 144.40772,-44.807662 144.13826,-44.701612 143.975,-44.690552 143.97587,-45.165182 143.97862,-45.660362 143.97862,-45.712712 143.97862,-45.803152 143.71455,-45.797132 143.71455,-45.712712 143.71455,-45.665432 143.71667,-45.190212 143.71765,-44.725692 143.63969,-44.751622 143.56348,-44.786752 143.47839,-44.824402 143.31522,-44.896592 143.26506,-44.915172 143.18539,-44.969092 143.10573,-45.023012 142.96856,-44.778262 143.0562,-44.738612 143.14385,-44.698962 143.19485,-44.660442 143.37091,-44.582552 143.48726,-44.531072 143.5873,-44.479062 143.71662,-44.448192 143.71632,-44.248872 143.71735,-43.970912 143.71455,-43.943312 143.70471,-43.846072 143.98846,-43.846072 143.97862,-43.943312 143.97596,-43.969592 143.97692,-44.238492 143.97655,-44.422872 144.17368,-44.432102 144.42186,-44.525202 144.63646,-44.631132 V -43.968632 C 144.63646,-43.880092 144.90208,-43.880092 144.90208,-43.968632 V -44.772722 C 145.12813,-44.895492 145.39371,-45.000522 145.55837,-45.014052 V -43.991892 C 145.55837,-43.903352 145.82399,-43.903352 145.82399,-43.991892 V -44.979942 C 145.90228,-44.954022 145.97937,-44.918762 146.06428,-44.881242 146.22747,-44.809122 146.27828,-44.782662 146.35522,-44.738612 146.43217,-44.694562 146.56322,-44.925592 146.48596,-44.969092 146.40871,-45.012592 146.34784,-45.047342 146.17177,-45.125152 146.05533,-45.176612 145.95401,-45.228182 145.82399,-45.258482 V -45.763362 C 145.82399,-45.800782 145.75758,-45.818552 145.69118,-45.818132 Z"
         style="color:#000000;font-style:normal;font-variant:normal;font-weight:normal;font-stretch:normal;font-size:medium;line-height:normal;font-family:sans-serif;font-variant-ligatures:normal;font-variant-position:normal;font-variant-caps:normal;font-variant-numeric:normal;font-variant-alternates:normal;font-feature-settings:normal;text-indent:0;text-align:start;text-decoration:none;text-decoration-line:none;text-decoration-style:solid;text-decoration-color:#000000;letter-spacing:normal;word-spacing:normal;text-transform:none;writing-mode:lr-tb;direction:ltr;text-orientation:mixed;dominant-baseline:auto;baseline-shift:baseline;text-anchor:start;white-space:normal;shape-padding:0;clip-rule:nonzero;display:inline;overflow:visible;visibility:visible;opacity:1;isolation:auto;mix-blend-mode:normal;color-interpolation:sRGB;color-interpolation-filters:linearRGB;solid-color:#000000;solid-opacity:1;vector-effect:none;fill:#000000;fill-opacity:1;fill-rule:nonzero;stroke:none;stroke-width:0.26499999;stroke-linecap:round;stroke-linejoin:miter;stroke-miterlimit:4;stroke-dasharray:none;stroke-dashoffset:0;stroke-opacity:1;color-rendering:auto;image-rendering:auto;shape-rendering:auto;text-rendering:auto;enable-background:accumulate" />
      <path
         transform="matrix(0.26458333,0,0,0.26458333,127.05996,-68.515902)"
         inkscape:connector-curvature="0"
         id="path10319"
         d="M 53.025391,87.507812 A 8.1335761,8.1335761 0 0 0 44.892578,95.640625 8.1335761,8.1335761 0 0 0 52.507812,103.75781 L 52.767578,108.6875 H 48.449219 A 3.2371652,3.2371652 0 0 0 45.21875,105.62109 3.2371652,3.2371652 0 0 0 41.980469,108.85938 3.2371652,3.2371652 0 0 0 45.21875,112.0957 3.2371652,3.2371652 0 0 0 48.339844,109.70312 H 52.822266 L 53.126953,115.49023 A 5.787491,5.787491 0 0 0 47.943359,121.24414 5.787491,5.787491 0 0 0 53.732422,127.0332 5.787491,5.787491 0 0 0 59.417969,122.30078 H 74.441406 A 5.787491,5.787491 0 0 0 80.128906,127.0332 5.787491,5.787491 0 0 0 85.917969,121.24414 5.787491,5.787491 0 0 0 80.734375,115.49414 L 81.355469,103.75 A 8.1335761,8.1335761 0 0 0 88.96875,95.640625 8.1335761,8.1335761 0 0 0 80.835938,87.507812 8.1335761,8.1335761 0 0 0 72.720703,95.132812 H 61.132812 A 8.1335761,8.1335761 0 0 0 53.025391,87.507812 Z M 53.025391,88.0625 A 7.5788889,7.5788889 0 0 1 54.751953,88.271484 C 54.743185,89.157821 54.783065,90.031021 54.853516,90.888672 H 51.197266 C 51.267716,90.031021 51.307597,89.157821 51.298828,88.271484 A 7.5788889,7.5788889 0 0 1 53.025391,88.0625 Z M 81.710938,88.117188 A 7.5788904,7.5788904 0 0 1 88.332031,94.580078 1.5577867,1.5577867 0 0 0 87.193359,94.083984 1.5577867,1.5577867 0 0 0 86.486328,94.255859 L 82.261719,90.029297 A 1.5577867,1.5577867 0 0 0 82.394531,89.404297 1.5577867,1.5577867 0 0 0 81.710938,88.117188 Z M 79.953125,88.123047 A 1.5577867,1.5577867 0 0 0 79.277344,89.404297 1.5577867,1.5577867 0 0 0 79.410156,90.033203 L 75.189453,94.253906 A 1.5577867,1.5577867 0 0 0 74.478516,94.083984 1.5577867,1.5577867 0 0 0 73.34375,94.574219 7.5788905,7.5788905 0 0 1 79.953125,88.123047 Z M 50.212891,88.609375 C 50.252387,89.32654 50.241308,90.100603 50.189453,90.888672 H 47.130859 A 7.578889,7.578889 0 0 1 50.212891,88.609375 Z M 55.837891,88.611328 A 7.5788891,7.5788891 0 0 1 58.925781,90.888672 H 55.861328 C 55.809549,90.101321 55.798508,89.327964 55.837891,88.611328 Z M 81.660156,90.724609 85.828125,94.892578 A 1.5577867,1.5577867 0 0 0 85.634766,95.640625 1.5577867,1.5577867 0 0 0 85.828125,96.392578 L 81.662109,100.55859 A 1.5577867,1.5577867 0 0 0 80.835938,100.32031 1.5577867,1.5577867 0 0 0 80.011719,100.55664 L 75.84375,96.388672 A 1.5577867,1.5577867 0 0 0 76.035156,95.640625 1.5577867,1.5577867 0 0 0 75.84375,94.896484 1.5577867,1.5577867 0 0 0 75.84375,94.894531 L 80.013672,90.726562 A 1.5577867,1.5577867 0 0 0 80.835938,90.962891 1.5577867,1.5577867 0 0 0 81.660156,90.724609 Z M 46.466797,91.859375 H 50.099609 C 49.743049,94.819614 48.625113,97.788249 46.15625,98.818359 A 7.5788886,7.5788886 0 0 1 45.447266,95.640625 7.5788886,7.5788886 0 0 1 46.466797,91.859375 Z M 51.113281,91.859375 H 54.9375 C 54.995894,92.323917 55.08046,92.7724 55.169922,93.216797 A 3.2371652,3.2371652 0 0 0 53.089844,92.458984 3.2371652,3.2371652 0 0 0 50.859375,93.351562 C 50.961271,92.86557 51.049067,92.370027 51.113281,91.859375 Z M 55.951172,91.859375 H 59.582031 A 7.5788885,7.5788885 0 0 1 60.603516,95.640625 7.5788885,7.5788885 0 0 1 59.896484,98.820312 C 57.425921,97.791167 56.307884,94.820597 55.951172,91.859375 Z M 61.138672,96.148438 H 72.728516 A 8.1335762,8.1335762 0 0 0 73.951172,99.947266 L 72.501953,101.39648 C 71.026388,100.21985 69.186855,99.480377 67.171875,99.392578 A 1.1338583,1.1338583 0 0 0 66.931641,99.367188 1.1338583,1.1338583 0 0 0 66.832031,99.371094 C 66.810866,99.370943 66.790697,99.367187 66.769531,99.367188 64.677034,99.367542 62.753944,100.07054 61.210938,101.24805 L 59.90625,99.943359 A 8.1335762,8.1335762 0 0 0 61.138672,96.148438 Z M 49.902344,96.261719 A 3.2371652,3.2371652 0 0 0 53.089844,98.931641 3.2371652,3.2371652 0 0 0 56.236328,96.441406 C 56.95852,97.856726 57.987103,98.993013 59.419922,99.693359 A 7.5788884,7.5788884 0 0 1 53.025391,103.2207 7.5788884,7.5788884 0 0 1 46.625,99.695312 C 48.120483,98.966036 49.175767,97.761775 49.902344,96.261719 Z M 73.339844,96.703125 A 1.5577867,1.5577867 0 0 0 74.478516,97.199219 1.5577867,1.5577867 0 0 0 75.185547,97.027344 L 79.410156,101.25 A 1.5577867,1.5577867 0 0 0 79.277344,101.87695 1.5577867,1.5577867 0 0 0 79.958984,103.16406 7.5788902,7.5788902 0 0 1 73.339844,96.703125 Z M 88.330078,96.703125 A 7.5788903,7.5788903 0 0 1 81.724609,103.1582 1.5577867,1.5577867 0 0 0 82.394531,101.87695 1.5577867,1.5577867 0 0 0 82.263672,101.25195 L 86.484375,97.029297 H 86.486328 A 1.5577867,1.5577867 0 0 0 87.193359,97.199219 1.5577867,1.5577867 0 0 0 88.330078,96.703125 Z M 65.888672,100.05273 A 1.1338583,1.1338583 0 0 0 65.796875,100.5 1.1338583,1.1338583 0 0 0 66.931641,101.63477 1.1338583,1.1338583 0 0 0 68.064453,100.5 1.1338583,1.1338583 0 0 0 67.986328,100.08594 C 69.908785,100.36495 71.69636,101.27996 73.037109,102.71875 H 69.712891 C 69.550069,102.43192 69.245855,102.25447 68.916016,102.25391 68.408312,102.25292 67.996169,102.66424 67.996094,103.17188 67.996207,103.67941 68.408349,104.09086 68.916016,104.08984 69.265093,104.0895 69.583774,103.8911 69.738281,103.57812 L 73.324219,103.58008 H 73.734375 74.496094 C 74.242752,103.18878 73.950647,102.82728 73.642578,102.48047 L 74.921875,101.20117 A 8.1335761,8.1335761 0 0 0 80.337891,103.75 L 79.71875,115.47852 A 5.787491,5.787491 0 0 0 76.224609,116.98633 L 73.769531,114.53125 C 75.140933,112.9268 75.974685,110.85027 75.974609,108.57227 75.974609,108.44573 75.960143,108.32264 75.955078,108.19727 H 75.341797 73.324219 73.029297 C 72.869687,107.73122 72.432115,107.41741 71.939453,107.41602 71.446036,107.41659 71.00753,107.73054 70.847656,108.19727 H 68.574219 C 68.405047,107.57059 67.836672,107.13503 67.1875,107.13477 66.393459,107.1345 65.749698,107.77827 65.75,108.57227 65.749698,109.36631 66.393459,110.01007 67.1875,110.00977 67.835954,110.00864 68.403283,109.57331 68.572266,108.94727 H 70.847656 C 71.00753,109.41404 71.446036,109.72784 71.939453,109.72852 72.432833,109.72784 72.871376,109.41404 73.03125,108.94727 H 75.335938 C 75.153386,113.1224 72.007619,116.48384 67.982422,117.06055 A 1.1338583,1.1338583 0 0 0 68.064453,116.64258 1.1338583,1.1338583 0 0 0 66.931641,115.50977 1.1338583,1.1338583 0 0 0 65.796875,116.64258 1.1338583,1.1338583 0 0 0 65.896484,117.10742 C 63.560094,116.86719 61.408144,115.6824 59.962891,113.79883 H 64.609375 C 64.759271,114.12803 65.08748,114.33947 65.449219,114.33984 65.959417,114.33981 66.373009,113.92613 66.373047,113.41602 66.373009,112.90575 65.959417,112.49219 65.449219,112.49219 65.126069,112.49295 64.826871,112.66261 64.660156,112.93945 L 59.533203,112.9375 H 59.388672 58.667969 C 59.013304,113.57722 59.442883,114.16177 59.923828,114.69922 L 57.640625,116.98438 A 5.787491,5.787491 0 0 0 54.140625,115.4707 L 53.523438,103.75 A 8.1335761,8.1335761 0 0 0 58.9375,101.19922 L 60.042969,102.30273 C 59.031945,103.39093 58.280394,104.72395 57.886719,106.20312 H 58.523438 59.220703 L 62.501953,106.20117 C 62.673619,106.51812 63.004781,106.71593 63.365234,106.7168 63.908882,106.71676 64.349572,106.27604 64.349609,105.73242 64.349572,105.18878 63.908882,104.74805 63.365234,104.74805 62.972315,104.74771 62.616857,104.98116 62.460938,105.3418 H 58.820312 C 60.02224,102.38209 62.758581,100.3783 65.888672,100.05273 Z M 72.892578,115.42969 75.392578,117.92969 A 5.7874912,5.7874912 0 0 0 74.339844,121.24414 5.7874912,5.7874912 0 0 0 74.34375,121.2832 H 59.515625 A 5.7874912,5.7874912 0 0 0 59.519531,121.24414 5.7874912,5.7874912 0 0 0 58.472656,117.92578 L 60.820312,115.57812 C 62.425138,116.94371 64.497015,117.77693 66.769531,117.77734 66.796555,117.77734 66.822661,117.77363 66.849609,117.77344 A 1.1338583,1.1338583 0 0 0 66.931641,117.77734 1.1338583,1.1338583 0 0 0 67.126953,117.75781 C 69.339148,117.67277 71.34781,116.80565 72.892578,115.42969 Z M 80.072266,116.02734 A 5.2179492,5.2179492 0 0 1 80.074219,116.02734 5.2179492,5.2179492 0 0 1 80.128906,116.02734 5.2179492,5.2179492 0 0 1 84.255859,118.05273 H 76.011719 A 5.2179492,5.2179492 0 0 1 80.072266,116.02734 Z M 52.873047,116.09961 A 1.7022637,1.7022637 0 0 0 52.029297,117.56641 1.7022637,1.7022637 0 0 0 52.427734,118.66211 L 50.386719,122.20312 A 1.4678887,1.4678887 0 0 0 50.230469,122.19336 1.4678887,1.4678887 0 0 0 48.865234,123.12695 5.2179481,5.2179481 0 0 1 48.511719,121.24414 5.2179481,5.2179481 0 0 1 52.873047,116.09961 Z M 54.601562,116.10547 A 5.2179482,5.2179482 0 0 1 58.947266,121.24414 5.2179482,5.2179482 0 0 1 58.595703,123.11914 1.4678887,1.4678887 0 0 0 57.228516,122.19336 1.4678887,1.4678887 0 0 0 57.074219,122.20312 L 55.029297,118.66602 A 1.7022637,1.7022637 0 0 1 55.03125,118.66406 1.7022637,1.7022637 0 0 0 55.433594,117.56641 1.7022637,1.7022637 0 0 0 54.601562,116.10547 Z M 76.162109,118.93164 H 79.167969 A 1.0393701,1.0393702 0 0 0 79.089844,119.32617 1.0393701,1.0393702 0 0 0 80.128906,120.36523 1.0393701,1.0393702 0 0 0 81.171875,119.32617 1.0393701,1.0393702 0 0 0 81.09375,118.93164 H 84.09375 L 82.572266,121.56055 A 1.0393701,1.0393702 0 0 0 81.757812,121.16992 1.0393701,1.0393702 0 0 0 80.71875,122.21094 1.0393701,1.0393702 0 0 0 81.601562,123.23633 L 80.126953,125.78906 78.650391,123.23828 A 1.0393701,1.0393702 0 0 0 79.542969,122.21094 1.0393701,1.0393702 0 0 0 78.503906,121.16992 1.0393701,1.0393702 0 0 0 77.683594,121.56836 Z M 53.189453,119.17969 A 1.7022637,1.7022637 0 0 0 53.398438,119.23438 V 123.41602 H 51.677734 A 1.4678887,1.4678887 0 0 0 51.226562,122.58789 Z M 54.267578,119.18164 56.230469,122.58789 A 1.4678887,1.4678887 0 0 0 55.783203,123.41602 H 54.064453 V 119.23438 A 1.7022637,1.7022637 0 0 0 54.267578,119.18164 Z M 75.318359,119.22656 79.464844,126.41406 A 5.217949,5.217949 0 0 1 74.912109,121.24414 5.217949,5.217949 0 0 1 75.318359,119.22656 Z M 84.9375,119.23047 A 5.2179491,5.2179491 0 0 1 85.349609,121.24414 5.2179491,5.2179491 0 0 1 80.787109,126.41406 Z M 51.535156,124.33203 H 53.398438 V 126.44531 A 5.2179484,5.2179484 0 0 1 50.253906,125.12891 1.4678887,1.4678887 0 0 0 51.535156,124.33203 Z M 54.064453,124.33203 H 55.923828 A 1.4678887,1.4678887 0 0 0 57.207031,125.12891 5.2179483,5.2179483 0 0 1 54.064453,126.44531 Z"
         style="display:inline;opacity:1;fill:#000000;fill-opacity:1;stroke:none;stroke-width:0.03779528;stroke-linecap:round;stroke-linejoin:miter;stroke-miterlimit:4;stroke-dasharray:none;stroke-opacity:1;paint-order:normal" />
      <path
         inkscape:connector-curvature="0"
         id="path10299"
         d="M 148.44784,-43.395542 A 0.1842713,0.1842713 0 0 0 148.26336,-43.211062 0.1842713,0.1842713 0 0 0 148.44784,-43.026572 0.1842713,0.1842713 0 0 0 148.63181,-43.211062 0.1842713,0.1842713 0 0 0 148.44784,-43.395542 Z"
         style="display:inline;opacity:1;fill:#000000;fill-opacity:1;stroke:none;stroke-width:0.01;stroke-linecap:round;stroke-linejoin:miter;stroke-miterlimit:4;stroke-dasharray:none;stroke-opacity:1;paint-order:normal" />
      <path
         inkscape:connector-curvature="0"
         id="path8265"
         d="M 144.70367,-48.233752 A 7.8719765,7.8719765 0 0 0 136.8318,-40.361373 7.8719765,7.8719765 0 0 0 144.70367,-32.489492 7.8719765,7.8719765 0 0 0 152.57554,-40.361373 7.8719765,7.8719765 0 0 0 144.70367,-48.233752 Z M 144.70367,-47.688052 A 7.3263673,7.3263673 0 0 1 152.02984,-40.361373 7.3263673,7.3263673 0 0 1 144.70367,-33.035203 7.3263673,7.3263673 0 0 1 137.3775,-40.361373 7.3263673,7.3263673 0 0 1 144.70367,-47.688052 Z"
         style="display:inline;opacity:1;fill:#000000;fill-opacity:1;stroke:none;stroke-width:0.26499999;stroke-linecap:round;stroke-linejoin:miter;stroke-miterlimit:4;stroke-dasharray:none;stroke-opacity:0.51010102;paint-order:normal" />
    </g>
  </g>
  <g
     id="g10134"
     inkscape:groupmode="layer"
     inkscape:label="B.Cu-disabled"
     transform="translate(-127.05996,68.515902)" />
  <g
     id="g10136"
     inkscape:groupmode="layer"
     inkscape:label="B.Adhes-disabled"
     transform="translate(-127.05996,68.515902)" />
  <g
     id="g10138"
     inkscape:groupmode="layer"
     inkscape:label="F.Adhes-disabled"
     transform="translate(-127.05996,68.515902)" />
  <g
     id="g10140"
     inkscape:groupmode="layer"
     inkscape:label="B.Paste-disabled"
     transform="translate(-127.05996,68.515902)" />
  <g
     id="g10142"
     inkscape:groupmode="layer"
     inkscape:label="F.Paste-disabled"
     transform="translate(-127.05996,68.515902)" />
  <g
     id="g10144"
     inkscape:groupmode="layer"
     inkscape:label="B.SilkS-disabled"
     transform="translate(-127.05996,68.515902)" />
  <g
     id="g10146"
     inkscape:groupmode="layer"
     inkscape:label="F.SilkS"
     transform="translate(-127.05996,68.515902)"
     style="display:inline">
    <path
       style="fill:#000000;fill-opacity:1;stroke:none;stroke-width:0.02558918;stroke-opacity:1"
       d="M 144.63546,-68.515902 C 144.57944,-68.515902 144.48083,-68.446592 144.34555,-68.327282 L 144.17709,-68.178451 143.88666,-68.160881 C 143.7271,-68.150881 143.56014,-68.128302 143.51563,-68.109201 143.37623,-68.049402 143.07802,-67.835741 143.0433,-67.770721 L 143.01023,-67.708711 142.8583,-67.817751 C 142.7747,-67.877952 142.66977,-67.953522 142.62524,-67.985181 142.58074,-68.016881 142.51664,-68.042541 142.48261,-68.042541 142.44861,-68.042541 142.39816,-68.054811 142.37099,-68.069411 142.26603,-68.125612 142.20645,-68.034251 142.02786,-67.546452 141.95446,-67.345832 141.9428,-67.340212 141.52712,-67.302022 141.32386,-67.283322 141.13752,-67.257672 141.11319,-67.245172 141.0889,-67.232672 140.99454,-67.166382 140.90338,-67.097382 140.81218,-67.028382 140.66219,-66.929792 140.57007,-66.878272 140.42664,-66.798072 140.40264,-66.774162 140.40264,-66.713422 140.40264,-66.626822 140.12118,-65.608622 140.02178,-65.335732 139.98228,-65.227271 139.91175,-65.035422 139.8652,-64.909921 L 139.78045,-64.682022 139.81353,-64.436562 C 139.83163,-64.301692 139.8631,-64.162411 139.8838,-64.126502 139.9348,-64.037901 140.70225,-63.538941 140.78763,-63.538941 140.87763,-63.538941 140.96539,-63.626661 140.96539,-63.716192 140.96539,-63.764292 140.90039,-63.886771 140.77367,-64.076382 140.53783,-64.429371 140.53422,-64.462861 140.71115,-64.630352 140.90984,-64.818471 140.94639,-64.835321 141.19122,-64.854112 141.31332,-64.863111 141.50547,-64.882032 141.61807,-64.894932 141.73066,-64.907732 141.9116,-64.924021 142.02011,-64.931622 L 142.21751,-64.945571 142.3095,-64.781241 C 142.3601,-64.690841 142.48734,-64.518292 142.59268,-64.397801 L 142.7844,-64.178702 H 142.98491 C 143.12764,-64.178702 143.1943,-64.189391 143.2159,-64.215392 143.2418,-64.246591 143.27047,-64.241501 143.4102,-64.178702 143.5002,-64.138302 143.68635,-64.067171 143.82414,-64.021082 144.0686,-63.939281 144.08715,-63.937062 144.59256,-63.928061 144.64781,-63.927112 144.6586,-63.929131 144.70367,-63.928581 144.74873,-63.929131 144.75952,-63.927112 144.81477,-63.928061 145.32018,-63.937062 145.33874,-63.939281 145.5832,-64.021082 145.72098,-64.067171 145.90713,-64.138302 145.99713,-64.178702 146.13686,-64.241501 146.16553,-64.246591 146.19143,-64.215392 146.21303,-64.189391 146.2797,-64.178702 146.42243,-64.178702 H 146.62293 L 146.81465,-64.397801 C 146.91999,-64.518292 147.04724,-64.690841 147.09784,-64.781241 L 147.18982,-64.945571 147.38722,-64.931622 C 147.49574,-64.924021 147.67668,-64.907732 147.78927,-64.894932 147.90187,-64.882032 148.09401,-64.863111 148.21611,-64.854112 148.46095,-64.835321 148.4975,-64.818471 148.69619,-64.630352 148.87311,-64.462861 148.8695,-64.429371 148.63366,-64.076382 148.50694,-63.886771 148.44194,-63.764292 148.44194,-63.716192 148.44194,-63.626661 148.52971,-63.538941 148.61971,-63.538941 148.70509,-63.538941 149.47253,-64.037901 149.52353,-64.126502 149.54423,-64.162411 149.57571,-64.301692 149.59381,-64.436562 L 149.62688,-64.682022 149.54213,-64.909921 C 149.49558,-65.035422 149.42505,-65.227271 149.38555,-65.335732 149.28615,-65.608622 149.0047,-66.626822 149.0047,-66.713422 149.0047,-66.774162 148.9807,-66.798072 148.83727,-66.878272 148.74515,-66.929792 148.59515,-67.028382 148.50395,-67.097382 148.41279,-67.166382 148.31845,-67.232672 148.29415,-67.245172 148.26983,-67.257672 148.08348,-67.283322 147.88022,-67.302022 147.46454,-67.340212 147.45287,-67.345832 147.37947,-67.546452 147.20088,-68.034251 147.1413,-68.125612 147.03634,-68.069411 147.00917,-68.054811 146.95872,-68.042541 146.92472,-68.042541 146.89069,-68.042541 146.82659,-68.016881 146.78209,-67.985181 146.73756,-67.953522 146.63263,-67.877952 146.54903,-67.817751 L 146.3971,-67.708711 146.36403,-67.770721 C 146.32931,-67.835741 146.0311,-68.049402 145.89171,-68.109201 145.8472,-68.128302 145.68023,-68.150881 145.52067,-68.160881 L 145.23025,-68.178451 145.06179,-68.327282 C 144.92651,-68.446592 144.82715,-68.515902 144.77188,-68.515902 144.71662,-68.515902 144.69147,-68.515902 144.63546,-68.515902 Z"
       id="path1676-4"
       inkscape:connector-curvature="0"
       sodipodi:nodetypes="zccccccccsccccccscccccsscccccccccscccccccccscccccccccsscccccsccccccscccccccczz" />
    <path
       inkscape:connector-curvature="0"
       style="fill:#000000;fill-opacity:1;stroke:none;stroke-width:0.02558918;stroke-opacity:1"
       d="M 134.66179,-51.647322 136.55774,-53.583622 137.50014,-52.637482 135.58082,-50.745312 Z"
       id="path1696"
       sodipodi:nodetypes="ccccc" />
    <path
       inkscape:connector-curvature="0"
       style="fill:#000000;fill-opacity:1;stroke:none;stroke-width:0.02558918;stroke-opacity:1"
       d="M 129.59698,-51.951252 136.29896,-58.641491 V -54.448422 L 133.85065,-51.951252 Z"
       id="path1692"
       sodipodi:nodetypes="ccccc" />
    <path
       inkscape:connector-curvature="0"
       style="opacity:1;fill:#000000;fill-opacity:1;stroke:none;stroke-width:0.00999999;stroke-linecap:round;stroke-linejoin:miter;stroke-miterlimit:4;stroke-dasharray:none;stroke-opacity:1;paint-order:normal"
       d="M 133.5556,-61.282431 A 6.3680001,6.3680001 0 0 0 127.18752,-54.914342 H 127.96163 A 5.5941296,5.5941296 0 0 1 133.5556,-60.508312 Z"
       id="path2223" />
    <path
       inkscape:connector-curvature="0"
       style="opacity:1;fill:#000000;fill-opacity:1;stroke:none;stroke-width:0.00999999;stroke-linecap:round;stroke-linejoin:miter;stroke-miterlimit:4;stroke-dasharray:none;stroke-opacity:1;paint-order:normal"
       d="M 133.5556,-59.734201 A 4.82,4.82 0 0 0 128.73523,-54.914342 H 129.50986 A 4.0460001,4.0460001 0 0 1 133.5556,-58.960612 Z"
       id="path2221" />
    <path
       inkscape:connector-curvature="0"
       style="opacity:1;fill:#000000;fill-opacity:1;stroke:none;stroke-width:0.00999999;stroke-linecap:round;stroke-linejoin:miter;stroke-miterlimit:4;stroke-dasharray:none;stroke-opacity:1;paint-order:normal"
       d="M 133.5556,-58.186492 A 3.272,3.272 0 0 0 130.28345,-54.914342 H 131.05757 A 2.4979998,2.4979998 0 0 1 133.5556,-57.411862 Z"
       id="path1994" />
    <path
       inkscape:connector-curvature="0"
       style="fill:#000000;fill-opacity:1;stroke:none;stroke-width:0.02558918;stroke-opacity:1"
       d="M 128.32545,-34.562251 127.05996,-36.331551 V -37.368252 H 130.94996 V -35.900251 L 131.77016,-35.288252 H 133.0379 L 133.4902,-34.562251 Z"
       id="path1726"
       sodipodi:nodetypes="ccccccccc" />
    <path
       inkscape:connector-curvature="0"
       style="fill:#000000;fill-opacity:1;stroke:none;stroke-width:0.02558918;stroke-opacity:1"
       d="M 131.71363,-37.163872 C 131.76908,-37.407051 131.78499,-37.422571 131.97952,-37.431591 L 132.152,-37.439592 V -36.004251 C 132.152,-36.004251 132.03533,-36.004251 131.97699,-36.004251 131.81098,-36.004251 131.81167,-35.987583 131.75686,-36.106042 131.70206,-36.224501 131.65643,-36.913013 131.71363,-37.163872 Z"
       id="path1718"
       sodipodi:nodetypes="ssccsss" />
    <path
       inkscape:connector-curvature="0"
       style="fill:#000000;fill-opacity:1;stroke:none;stroke-width:0.02558918;stroke-opacity:1"
       d="M 131.30562,-38.112912 V -40.478861 L 132.1573,-40.891381 V -37.668613 Z"
       id="path1714"
       sodipodi:nodetypes="ccccc" />
    <path
       inkscape:connector-curvature="0"
       style="fill:#000000;fill-opacity:1;stroke:none;stroke-width:0.02558918;stroke-opacity:1"
       d="M 127.23888,-38.716252 C 127.10749,-38.716252 127.11093,-38.977911 127.11093,-39.27875 127.11093,-39.579592 127.10846,-39.842162 127.22938,-39.842162 128.43524,-39.842162 130.84696,-39.842252 130.84696,-39.842252 V -38.716252 Z"
       id="path1710"
       sodipodi:nodetypes="szsccs" />
    <path
       inkscape:connector-curvature="0"
       style="fill:#000000;fill-opacity:1;stroke:none;stroke-width:0.02558918;stroke-opacity:1"
       d="M 127.26296,-40.931862 V -43.896942 H 129.78501 L 131.0005,-42.533672 131.00047,-41.262393 130.65724,-40.931862 Z"
       id="path1706"
       sodipodi:nodetypes="ccccccc" />
    <path
       inkscape:connector-curvature="0"
       style="fill:#000000;fill-opacity:1;stroke:none;stroke-width:0.02558918;stroke-opacity:1"
       d="M 132.45696,-36.148251 V -42.472732 L 132.8022,-42.784962 H 133.17466 L 133.18796,-41.606253 H 134.36596 V -40.625252 H 133.20395 L 133.18852,-39.226252 H 134.36596 V -38.242251 H 133.18852 V -36.809251 H 134.36596 V -35.803253 H 132.77905 Z"
       id="path1722"
       sodipodi:nodetypes="ccccccccccccccccc" />
    <path
       inkscape:connector-curvature="0"
       style="fill:#000000;fill-opacity:1;stroke:none;stroke-width:0.02558918;stroke-opacity:1"
       d="M 161.08189,-34.562251 162.34738,-36.331551 V -37.368252 H 158.45738 V -35.900251 L 157.63719,-35.288252 H 156.36945 L 155.91715,-34.562251 Z"
       id="path1726-6"
       sodipodi:nodetypes="ccccccccc" />
    <path
       inkscape:connector-curvature="0"
       style="fill:#000000;fill-opacity:1;stroke:none;stroke-width:0.02558918;stroke-opacity:1"
       d="M 156.95038,-36.148251 V -42.472732 L 156.60515,-42.784962 H 156.23268 L 156.21938,-41.606253 H 155.04138 V -40.625252 H 156.20339 L 156.21882,-39.226252 H 155.04138 V -38.242251 H 156.21882 V -36.809251 H 155.04138 V -35.803253 H 156.62829 Z"
       id="path1722-1"
       sodipodi:nodetypes="ccccccccccccccccc" />
    <path
       inkscape:connector-curvature="0"
       style="fill:#000000;fill-opacity:1;stroke:none;stroke-width:0.02558918;stroke-opacity:1"
       d="M 157.69371,-37.163872 C 157.63826,-37.407051 157.62235,-37.422571 157.42782,-37.431591 L 157.25534,-37.439592 V -36.004251 C 157.25534,-36.004251 157.37202,-36.004251 157.43035,-36.004251 157.59636,-36.004251 157.59568,-35.987583 157.65048,-36.106042 157.70528,-36.224501 157.75092,-36.913013 157.69371,-37.163872 Z"
       id="path1718-0"
       sodipodi:nodetypes="ssccsss" />
    <path
       inkscape:connector-curvature="0"
       style="fill:#000000;fill-opacity:1;stroke:none;stroke-width:0.02558918;stroke-opacity:1"
       d="M 158.10172,-38.112912 V -40.478861 L 157.25004,-40.891381 V -37.668613 Z"
       id="path1714-50"
       sodipodi:nodetypes="ccccc" />
    <path
       inkscape:connector-curvature="0"
       style="fill:#000000;fill-opacity:1;stroke:none;stroke-width:0.02558918;stroke-opacity:1"
       d="M 162.16846,-38.716252 C 162.29985,-38.716252 162.29641,-38.977911 162.29641,-39.27875 162.29641,-39.579592 162.29888,-39.842162 162.17796,-39.842162 160.9721,-39.842162 158.56039,-39.842252 158.56039,-39.842252 V -38.716252 Z"
       id="path1710-1"
       sodipodi:nodetypes="szsccs" />
    <path
       inkscape:connector-curvature="0"
       style="fill:#000000;fill-opacity:1;stroke:none;stroke-width:0.02558918;stroke-opacity:1"
       d="M 162.14438,-40.931862 V -43.896942 H 159.62233 L 158.40684,-42.533672 158.40687,-41.262393 158.7501,-40.931862 Z"
       id="path1706-5"
       sodipodi:nodetypes="ccccccc" />
    <path
       inkscape:connector-curvature="0"
       style="fill:#000000;fill-opacity:1;stroke:none;stroke-width:0.02558918;stroke-opacity:1"
       d="M 154.74521,-51.647322 152.84926,-53.583622 151.90686,-52.637482 153.82618,-50.745312 Z"
       id="path1696-5"
       sodipodi:nodetypes="ccccc" />
    <path
       inkscape:connector-curvature="0"
       style="fill:#000000;fill-opacity:1;stroke:none;stroke-width:0.02558918;stroke-opacity:1"
       d="M 159.81002,-51.951252 153.10804,-58.641491 V -54.448422 L 155.55635,-51.951252 Z"
       id="path1692-6"
       sodipodi:nodetypes="ccccc" />
    <path
       style="opacity:1;fill:#000000;fill-opacity:1;stroke:none;stroke-width:0.00999999;stroke-linecap:round;stroke-linejoin:miter;stroke-miterlimit:4;stroke-dasharray:none;stroke-opacity:1;paint-order:normal"
       d="M 155.85139,-61.282431 A 6.3680001,6.3680001 0 0 1 162.21948,-54.914342 H 161.44537 A 5.5941296,5.5941296 0 0 0 155.85139,-60.508312 Z"
       id="path2223-0"
       inkscape:connector-curvature="0" />
    <path
       style="opacity:1;fill:#000000;fill-opacity:1;stroke:none;stroke-width:0.00999999;stroke-linecap:round;stroke-linejoin:miter;stroke-miterlimit:4;stroke-dasharray:none;stroke-opacity:1;paint-order:normal"
       d="M 155.85139,-59.734201 A 4.82,4.82 0 0 1 160.67177,-54.914342 H 159.89714 A 4.0460001,4.0460001 0 0 0 155.85139,-58.960612 Z"
       id="path2221-8"
       inkscape:connector-curvature="0" />
    <path
       style="opacity:1;fill:#000000;fill-opacity:1;stroke:none;stroke-width:0.00999999;stroke-linecap:round;stroke-linejoin:miter;stroke-miterlimit:4;stroke-dasharray:none;stroke-opacity:1;paint-order:normal"
       d="M 155.85139,-58.186492 A 3.272,3.272 0 0 1 159.12355,-54.914342 H 158.34943 A 2.4979998,2.4979998 0 0 0 155.85139,-57.411862 Z"
       id="path1994-5"
       inkscape:connector-curvature="0" />
    <path
       inkscape:connector-curvature="0"
       style="fill:#000000;fill-opacity:1;stroke:none;stroke-width:0.02558918;stroke-opacity:1"
       d="M 136.14396,-29.439251 136.55296,-28.997251 136.96296,-29.439251 V -28.71525 H 136.14396 Z"
       id="path1732"
       sodipodi:nodetypes="cccccc" />
    <path
       inkscape:connector-curvature="0"
       style="fill:#000000;fill-opacity:1;stroke:none;stroke-width:0.02558918;stroke-opacity:1"
       d="M 152.98089,-30.302512 H 153.79324 C 153.78884,-31.326312 153.82839,-33.36404 153.77734,-33.380122 153.72629,-33.396211 153.58447,-32.23084 153.55542,-32.217273 153.52638,-32.203702 152.53718,-33.336682 152.53718,-33.487722 152.53718,-33.63877 153.02975,-34.237321 153.32986,-34.631601 L 154.77918,-33.615312 V -28.715242 H 152.98089 Z"
       id="path1734-1"
       sodipodi:nodetypes="cczzzccccc" />
    <path
       inkscape:connector-curvature="0"
       style="fill:#000000;fill-opacity:1;stroke:none;stroke-width:0.02558918;stroke-opacity:1"
       d="M 134.62807,-28.715293 134.62802,-33.613402 136.07651,-34.629291 C 136.41043,-34.199042 136.85996,-33.661112 136.85996,-33.481693 136.85996,-33.302271 135.89114,-32.206782 135.84995,-32.218961 135.80877,-32.231142 135.68669,-33.386083 135.62691,-33.376312 135.56713,-33.366541 135.62095,-28.715271 135.62095,-28.715271 L 134.62796,-28.71525 Z"
       id="path1730-5"
       sodipodi:nodetypes="ccczzzccc" />
    <path
       inkscape:connector-curvature="0"
       style="fill:#000000;fill-opacity:1;stroke:none;stroke-width:0.02558918;stroke-opacity:1"
       d="M 139.15118,-28.715232 139.56896,-29.605872 139.98573,-28.715261 139.1512,-28.715271 Z"
       id="path1740-7"
       sodipodi:nodetypes="ccccc" />
    <path
       style="opacity:1;fill:#000000;fill-opacity:1;stroke:none;stroke-width:0.26500005;stroke-linecap:round;stroke-linejoin:miter;stroke-miterlimit:4;stroke-dasharray:none;stroke-opacity:0.51010102;paint-order:normal"
       d="M 138.43386,-53.019372 135.49141,-50.210242 C 135.14617,-50.612072 134.39609,-51.454542 134.30595,-51.382262 134.20296,-51.299672 134.32471,-51.044622 134.38346,-50.930602 134.86077,-50.004362 134.43038,-49.135412 133.67963,-48.432052 133.58854,-48.346712 133.43024,-46.905172 133.60211,-46.861092 133.66917,-46.843892 134.7752,-47.651502 134.87439,-47.751992 134.94936,-47.827942 134.97046,-48.993812 135.08575,-49.002042 135.20103,-49.010272 135.2337,-48.250632 135.29348,-47.735972 135.29649,-47.710072 135.30415,-47.640222 135.08833,-47.457432 134.65046,-47.086572 133.77471,-46.344842 133.77471,-46.344842 134.00389,-45.445782 134.28756,-44.709652 134.69869,-43.922252 134.71678,-45.780222 135.49872,-46.806182 135.97251,-46.971162 136.42993,-47.130442 136.70099,-46.889872 137.06185,-46.433722 A 9.756689,9.756689 0 0 0 135.22062,-42.636542 L 135.11055,-42.789502 H 133.4197 V -41.824701 H 134.6098 V -40.408773 H 133.4197 V -39.449653 H 134.6098 V -38.016662 H 133.4197 V -37.069432 H 134.6098 V -35.803361 H 135.11055 L 135.48004,-36.287572 V -37.238421 A 9.756689,9.756689 0 0 0 135.88466,-36.248303 L 134.82065,-34.504223 136.34458,-35.38375 A 9.756689,9.756689 0 0 0 138.40596,-32.964781 C 137.3148,-32.960141 136.64152,-32.554182 135.94202,-31.632562 V -31.157651 C 135.94201,-30.776452 135.94027,-30.656792 135.9844,-30.573713 136.15771,-30.247431 136.33862,-30.020252 136.55284,-29.706062 136.82062,-30.055323 137.21151,-30.663531 137.30835,-30.719432 137.34344,-30.739691 137.45097,-30.733391 137.45097,-30.733391 V -28.715422 H 138.63902 C 138.63902,-28.715422 139.42329,-30.830023 139.56919,-30.830023 139.71508,-30.830023 140.49885,-28.715422 140.49885,-28.715422 H 142.15198 C 141.77386,-29.052131 141.63366,-29.243102 141.63366,-29.669372 141.63366,-30.356082 142.14427,-30.723271 142.69096,-30.727703 143.15869,-30.731492 143.20549,-30.622002 143.45577,-30.433153 L 143.16484,-30.11792 C 143.06699,-30.186982 142.95222,-30.284322 142.69561,-30.284322 142.28432,-30.284322 142.08754,-29.909892 142.08635,-29.645081 142.08487,-29.315262 142.44208,-29.052872 142.70078,-29.052872 142.95948,-29.052872 143.09155,-29.238461 143.13021,-29.376362 H 142.74677 V -29.810961 H 143.64233 C 143.64447,-29.377251 143.59861,-29.060463 143.20566,-28.715422 H 144.94716 V -30.732352 L 145.52231,-30.731841 H 146.09799 L 146.09851,-30.297242 H 145.40811 L 145.40759,-29.811483 H 146.02409 V -29.363442 H 145.40863 V -28.715422 H 147.27673 V -30.732352 H 148.42808 V -30.297242 H 147.7382 V -29.811483 H 148.37899 V -29.363442 H 147.7382 V -29.044082 H 148.42911 V -28.715422 H 149.8466 C 149.74904,-28.8159 149.68561,-28.867153 149.6063,-29.007911 L 149.94323,-29.274042 C 150.06497,-29.150331 150.25712,-28.966171 150.39592,-29.097311 150.53472,-29.228452 150.30153,-29.405903 150.14064,-29.55413 149.72354,-29.938401 149.56349,-30.299731 149.95925,-30.642441 150.17907,-30.832793 150.74733,-30.721152 150.85791,-30.496192 L 150.51478,-30.221272 C 150.44137,-30.270191 150.321,-30.320321 150.25226,-30.263132 150.18353,-30.205952 150.21445,-30.117431 150.54785,-29.826982 150.87555,-29.541491 150.92302,-29.385101 150.92302,-29.181031 150.92302,-28.956881 150.80251,-28.83046 150.70701,-28.715422 H 152.4976 V -30.297752 H 152.01132 V -30.732873 H 153.41847 V -31.634112 C 153.41847,-31.912761 152.14671,-32.960982 151.30026,-32.958061 H 150.98193 A 9.756689,9.756689 0 0 0 153.05622,-35.387881 L 154.58636,-34.504223 153.51769,-36.256571 A 9.756689,9.756689 0 0 0 153.92749,-37.246171 V -36.287572 L 154.29646,-35.803361 H 154.79772 V -37.069432 H 155.98731 V -38.016662 H 154.79772 V -39.449653 H 155.98731 V -40.408773 H 154.79772 V -41.824701 H 155.98731 V -42.789502 H 154.29646 L 154.1869,-42.637052 A 9.756689,9.756689 0 0 0 152.33792,-46.424422 C 152.70277,-46.887112 152.97375,-47.131602 153.43449,-46.971162 153.90829,-46.806182 154.69023,-45.780222 154.70832,-43.922252 155.11944,-44.709652 155.40311,-45.445782 155.63229,-46.344842 155.63229,-46.344842 154.75655,-47.086572 154.31868,-47.457432 154.10287,-47.640222 154.11051,-47.710072 154.11352,-47.735972 154.1733,-48.250632 154.20597,-49.010272 154.32126,-49.002042 154.43654,-48.993812 154.45765,-47.827942 154.53262,-47.751992 154.63181,-47.651502 155.73783,-46.843892 155.80489,-46.861092 155.97676,-46.905172 155.81847,-48.346712 155.72738,-48.432052 154.97663,-49.135412 154.54624,-50.004362 155.02354,-50.930602 155.08229,-51.044622 155.20406,-51.299672 155.10106,-51.382262 155.01092,-51.454542 154.26084,-50.612072 153.9156,-50.210242 L 150.97314,-53.019372 147.39507,-49.740502 A 9.756689,9.756689 0 0 0 145.62205,-50.089832 C 145.51156,-50.478392 145.16163,-50.468102 145.004,-50.468102 L 144.70376,-51.692312 144.40352,-50.468102 C 144.24731,-50.468102 143.90233,-50.477602 143.78857,-50.099652 A 9.756689,9.756689 0 0 0 141.99902,-49.752382 Z M 144.70376,-49.511572 A 9.1220055,9.1220055 0 0 1 153.82568,-40.389133 9.1220055,9.1220055 0 0 1 144.70376,-31.267212 9.1220055,9.1220055 0 0 1 135.58184,-40.389133 9.1220055,9.1220055 0 0 1 144.70376,-49.511572 Z"
       id="path8955"
       inkscape:connector-curvature="0" />
  </g>
  <g
     id="g10148"
     inkscape:groupmode="layer"
     inkscape:label="B.Mask-disabled"
     transform="translate(-127.05996,68.515902)" />
  <g
     id="g10150"
     inkscape:groupmode="layer"
     inkscape:label="F.Mask"
     transform="translate(-127.05996,68.515902)"
     style="display:inline">
    <g
       style="display:inline"
       id="g10437"
       transform="translate(-9.58437,1.449816)">
      <circle
         r="0.85649997"
         cy="-41.085083"
         cx="159.96788"
         id="path2376-0"
         style="display:inline;opacity:1;fill:#000000;fill-opacity:1;stroke:none;stroke-width:0.01;stroke-linecap:round;stroke-linejoin:miter;stroke-miterlimit:4;stroke-dasharray:none;stroke-opacity:1;paint-order:normal" />
      <path
         inkscape:connector-curvature="0"
         id="path8031-8"
         d="M 155.27555,-47.267948 C 155.20914,-47.267528 155.14274,-47.248918 155.14274,-47.213178 V -46.732588 C 154.94559,-46.721788 154.69935,-46.627888 154.48645,-46.522258 V -47.187858 C 154.48645,-47.276698 154.22083,-47.270958 154.22083,-47.187858 V -46.381188 C 153.99209,-46.257478 153.72263,-46.151428 153.55937,-46.140368 153.56024,-46.614998 153.56299,-47.110178 153.56299,-47.162528 153.56299,-47.252968 153.29892,-47.246948 153.29892,-47.162528 153.29892,-47.115248 153.30104,-46.640028 153.30202,-46.175508 153.22406,-46.201438 153.14785,-46.236568 153.06276,-46.274218 152.89959,-46.346408 152.84943,-46.364988 152.76976,-46.418908 152.6901,-46.472828 152.55293,-46.228078 152.64057,-46.188428 152.72822,-46.148778 152.77922,-46.110258 152.95528,-46.032368 153.07163,-45.980888 153.17167,-45.928878 153.30099,-45.898008 153.30069,-45.698688 153.30172,-45.420728 153.29892,-45.393128 153.28908,-45.295888 153.57283,-45.295888 153.56299,-45.393128 153.56033,-45.419408 153.56129,-45.688308 153.56092,-45.872688 153.75805,-45.881918 154.00623,-45.975018 154.22083,-46.080948 V -45.418448 C 154.22083,-45.329908 154.48645,-45.329908 154.48645,-45.418448 V -46.222538 C 154.7125,-46.345308 154.97808,-46.450338 155.14274,-46.463868 V -45.441708 C 155.14274,-45.353168 155.40836,-45.353168 155.40836,-45.441708 V -46.429758 C 155.48665,-46.403838 155.56374,-46.368578 155.64865,-46.331058 155.81184,-46.258938 155.86265,-46.232478 155.93959,-46.188428 156.01654,-46.144378 156.14759,-46.375408 156.07033,-46.418908 155.99308,-46.462408 155.93221,-46.497158 155.75614,-46.574968 155.6397,-46.626428 155.53838,-46.677998 155.40836,-46.708298 V -47.213178 C 155.40836,-47.250598 155.34195,-47.268368 155.27555,-47.267948 Z"
         style="color:#000000;font-style:normal;font-variant:normal;font-weight:normal;font-stretch:normal;font-size:medium;line-height:normal;font-family:sans-serif;font-variant-ligatures:normal;font-variant-position:normal;font-variant-caps:normal;font-variant-numeric:normal;font-variant-alternates:normal;font-feature-settings:normal;text-indent:0;text-align:start;text-decoration:none;text-decoration-line:none;text-decoration-style:solid;text-decoration-color:#000000;letter-spacing:normal;word-spacing:normal;text-transform:none;writing-mode:lr-tb;direction:ltr;text-orientation:mixed;dominant-baseline:auto;baseline-shift:baseline;text-anchor:start;white-space:normal;shape-padding:0;clip-rule:nonzero;display:inline;overflow:visible;visibility:visible;opacity:1;isolation:auto;mix-blend-mode:normal;color-interpolation:sRGB;color-interpolation-filters:linearRGB;solid-color:#000000;solid-opacity:1;vector-effect:none;fill:#000000;fill-opacity:1;fill-rule:nonzero;stroke:none;stroke-width:0.26499999;stroke-linecap:round;stroke-linejoin:miter;stroke-miterlimit:4;stroke-dasharray:none;stroke-dashoffset:0;stroke-opacity:1;color-rendering:auto;image-rendering:auto;shape-rendering:auto;text-rendering:auto;enable-background:accumulate" />
      <path
         inkscape:connector-curvature="0"
         id="path10319-9"
         d="M 150.67396,-46.812609 A 2.1520087,2.1520087 0 0 0 148.52216,-44.660802 2.1520087,2.1520087 0 0 0 150.53702,-42.51313 L 150.60575,-41.208816 H 149.46318 A 0.85649996,0.85649996 0 0 0 148.60846,-42.020137 0.85649996,0.85649996 0 0 0 147.75166,-41.16334 0.85649996,0.85649996 0 0 0 148.60846,-40.307064 0.85649996,0.85649996 0 0 0 149.43425,-40.9401 H 150.62022 L 150.70083,-39.408927 A 1.5312737,1.5312737 0 0 0 149.32934,-37.886539 1.5312737,1.5312737 0 0 0 150.86103,-36.35485 1.5312737,1.5312737 0 0 0 152.36533,-37.606969 H 156.34028 A 1.5312737,1.5312737 0 0 0 157.8451,-36.35485 1.5312737,1.5312737 0 0 0 159.37679,-37.886539 1.5312737,1.5312737 0 0 0 158.0053,-39.407893 L 158.16963,-42.515197 A 2.1520087,2.1520087 0 0 0 160.18398,-44.660802 2.1520087,2.1520087 0 0 0 158.03217,-46.812609 2.1520087,2.1520087 0 0 0 155.88501,-44.795161 H 152.81905 A 2.1520087,2.1520087 0 0 0 150.67396,-46.812609 Z M 150.67396,-46.665848 A 2.0052477,2.0052477 0 0 1 151.13078,-46.610554 C 151.12846,-46.376044 151.13901,-46.14501 151.15765,-45.91809 H 150.19027 C 150.20891,-46.14501 150.21946,-46.376044 150.21714,-46.610554 A 2.0052477,2.0052477 0 0 1 150.67396,-46.665848 Z M 158.26368,-46.651378 A 2.0052481,2.0052481 0 0 1 160.01551,-44.941405 0.4121644,0.4121644 0 0 0 159.71424,-45.072663 0.4121644,0.4121644 0 0 0 159.52717,-45.027188 L 158.40941,-46.145466 A 0.4121644,0.4121644 0 0 0 158.44455,-46.310831 0.4121644,0.4121644 0 0 0 158.26368,-46.651378 Z M 157.79859,-46.649828 A 0.4121644,0.4121644 0 0 0 157.61979,-46.310831 0.4121644,0.4121644 0 0 0 157.65493,-46.144433 L 156.5382,-45.027705 A 0.4121644,0.4121644 0 0 0 156.3501,-45.072663 0.4121644,0.4121644 0 0 0 156.04986,-44.942955 2.0052481,2.0052481 0 0 1 157.79859,-46.649828 Z M 149.92982,-46.521154 C 149.94027,-46.331404 149.93734,-46.1266 149.92362,-45.91809 H 149.11437 A 2.0052477,2.0052477 0 0 1 149.92982,-46.521154 Z M 151.4181,-46.520637 A 2.0052477,2.0052477 0 0 1 152.23511,-45.91809 H 151.4243 C 151.4106,-46.12641 151.40768,-46.331027 151.4181,-46.520637 Z M 158.25024,-45.961498 159.35302,-44.858723 A 0.4121644,0.4121644 0 0 0 159.30186,-44.660802 0.4121644,0.4121644 0 0 0 159.35302,-44.461848 L 158.25076,-43.359591 A 0.4121644,0.4121644 0 0 0 158.03217,-43.422635 0.4121644,0.4121644 0 0 0 157.8141,-43.360107 L 156.71132,-44.462881 A 0.4121644,0.4121644 0 0 0 156.76196,-44.660802 0.4121644,0.4121644 0 0 0 156.71132,-44.857689 0.4121644,0.4121644 0 0 0 156.71132,-44.858206 L 157.81461,-45.960981 A 0.4121644,0.4121644 0 0 0 158.03217,-45.898453 0.4121644,0.4121644 0 0 0 158.25024,-45.961498 Z M 148.93867,-45.661258 H 149.89985 C 149.80551,-44.878028 149.50972,-44.092577 148.8565,-43.820027 A 2.0052476,2.0052476 0 0 1 148.66892,-44.660802 2.0052476,2.0052476 0 0 1 148.93867,-45.661258 Z M 150.16805,-45.661258 H 151.17988 C 151.19533,-45.538348 151.2177,-45.419687 151.24137,-45.302107 A 0.85649996,0.85649996 0 0 0 150.69102,-45.502611 0.85649996,0.85649996 0 0 0 150.10087,-45.26645 C 150.12783,-45.395035 150.15106,-45.526148 150.16805,-45.661258 Z M 151.44808,-45.661258 H 152.40874 A 2.0052476,2.0052476 0 0 1 152.67901,-44.660802 2.0052476,2.0052476 0 0 1 152.49194,-43.81951 C 151.83827,-44.091805 151.54246,-44.877768 151.44808,-45.661258 Z M 152.8206,-44.526443 H 155.88708 A 2.1520087,2.1520087 0 0 0 156.21058,-43.521337 L 155.82714,-43.137899 C 155.43673,-43.449216 154.95002,-43.644868 154.41689,-43.668098 A 0.30000001,0.30000001 0 0 0 154.35332,-43.674816 0.30000001,0.30000001 0 0 0 154.32697,-43.673782 C 154.32137,-43.673822 154.31603,-43.674816 154.31043,-43.674816 153.75679,-43.674722 153.24798,-43.48872 152.83972,-43.177171 L 152.49452,-43.52237 A 2.1520087,2.1520087 0 0 0 152.8206,-44.526443 Z M 149.84766,-44.496471 A 0.85649996,0.85649996 0 0 0 150.69102,-43.790054 0.85649996,0.85649996 0 0 0 151.52352,-44.448929 C 151.7146,-44.074459 151.98675,-43.773816 152.36585,-43.588516 A 2.0052476,2.0052476 0 0 1 150.67396,-42.655241 2.0052476,2.0052476 0 0 1 148.98053,-43.588 C 149.37621,-43.780954 149.65542,-44.099581 149.84766,-44.496471 Z M 156.04883,-44.379682 A 0.4121644,0.4121644 0 0 0 156.3501,-44.248424 0.4121644,0.4121644 0 0 0 156.53717,-44.293899 L 157.65493,-43.176655 A 0.4121644,0.4121644 0 0 0 157.61979,-43.010774 0.4121644,0.4121644 0 0 0 157.80014,-42.670227 2.005248,2.005248 0 0 1 156.04883,-44.379682 Z M 160.01499,-44.379682 A 2.0052481,2.0052481 0 0 1 158.2673,-42.671777 0.4121644,0.4121644 0 0 0 158.44455,-43.010774 0.4121644,0.4121644 0 0 0 158.40992,-43.176139 L 159.52665,-44.293383 H 159.52717 A 0.4121644,0.4121644 0 0 0 159.71424,-44.248424 0.4121644,0.4121644 0 0 0 160.01499,-44.379682 Z M 154.07737,-43.493433 A 0.30000001,0.30000001 0 0 0 154.05308,-43.375093 0.30000001,0.30000001 0 0 0 154.35332,-43.074851 0.30000001,0.30000001 0 0 0 154.65305,-43.375093 0.30000001,0.30000001 0 0 0 154.63238,-43.484646 C 155.14103,-43.410824 155.61399,-43.168728 155.96873,-42.788048 H 155.0892 C 155.04612,-42.863939 154.96563,-42.910889 154.87836,-42.911037 154.74403,-42.911299 154.63498,-42.802471 154.63496,-42.668158 154.63499,-42.533874 154.74404,-42.425011 154.87836,-42.425281 154.97072,-42.425371 155.05504,-42.477864 155.09592,-42.560673 L 156.04469,-42.560155 H 156.15322 156.35475 C 156.28772,-42.663686 156.21044,-42.759333 156.12893,-42.851093 L 156.46741,-43.189575 A 2.1520087,2.1520087 0 0 0 157.9004,-42.515197 L 157.73658,-39.412026 A 1.5312737,1.5312737 0 0 0 156.81209,-39.013084 L 156.16252,-39.662658 C 156.52537,-40.087168 156.74596,-40.636584 156.74594,-41.239304 156.74594,-41.272785 156.74212,-41.305352 156.74078,-41.338523 H 156.57851 156.04469 155.96666 C 155.92443,-41.461832 155.80866,-41.544861 155.67831,-41.545229 155.54776,-41.545078 155.43174,-41.462012 155.38944,-41.338523 H 154.78792 C 154.74316,-41.504332 154.59278,-41.619574 154.42102,-41.619643 154.21093,-41.619714 154.0406,-41.449384 154.04068,-41.239304 154.0406,-41.029215 154.21093,-40.858886 154.42102,-40.858966 154.59259,-40.859265 154.7427,-40.974446 154.78741,-41.140086 H 155.38944 C 155.43174,-41.016586 155.54776,-40.93356 155.67831,-40.93338 155.80885,-40.93356 155.92488,-41.016586 155.96718,-41.140086 H 156.57696 C 156.52866,-40.035416 155.69634,-39.146035 154.63134,-38.993447 A 0.30000001,0.30000001 0 0 0 154.65305,-39.104035 0.30000001,0.30000001 0 0 0 154.35332,-39.403758 0.30000001,0.30000001 0 0 0 154.05308,-39.104035 0.30000001,0.30000001 0 0 0 154.07944,-38.981046 C 153.46127,-39.044607 152.8919,-39.358083 152.50951,-39.856444 H 153.73889 C 153.77855,-39.769343 153.86539,-39.713399 153.9611,-39.713302 154.09609,-39.713309 154.20552,-39.822762 154.20553,-39.957729 154.20552,-40.092738 154.09609,-40.202159 153.9611,-40.202159 153.8756,-40.201958 153.79644,-40.157069 153.75233,-40.083821 L 152.39582,-40.084337 H 152.35758 152.1669 C 152.25826,-39.915078 152.37192,-39.760416 152.49917,-39.618216 L 151.89508,-39.0136 A 1.5312737,1.5312737 0 0 0 150.96904,-39.414095 L 150.80574,-42.515197 A 2.1520087,2.1520087 0 0 0 152.23821,-43.190091 L 152.5307,-42.89812 C 152.2632,-42.610201 152.06435,-42.257506 151.96019,-41.866142 H 152.12865 152.31314 L 153.1813,-41.866658 C 153.22672,-41.782798 153.31434,-41.730461 153.40971,-41.730231 153.55355,-41.730241 153.67015,-41.846849 153.67016,-41.990681 153.67015,-42.134519 153.55355,-42.251129 153.40971,-42.251129 153.30575,-42.251219 153.21171,-42.189452 153.17045,-42.094033 H 152.2072 C 152.52521,-42.877123 153.2492,-43.407292 154.07737,-43.493433 Z M 155.93049,-39.424945 156.59195,-38.763487 A 1.5312737,1.5312737 0 0 0 156.31341,-37.886539 1.5312737,1.5312737 0 0 0 156.31445,-37.876204 H 152.39117 A 1.5312737,1.5312737 0 0 0 152.3922,-37.886539 1.5312737,1.5312737 0 0 0 152.11522,-38.764522 L 152.73637,-39.385673 C 153.16098,-39.024361 153.70916,-38.803905 154.31043,-38.803796 154.31758,-38.803796 154.32449,-38.804778 154.33162,-38.804828 A 0.30000001,0.30000001 0 0 0 154.35332,-38.803796 0.30000001,0.30000001 0 0 0 154.405,-38.808964 C 154.99031,-38.831464 155.52177,-39.060889 155.93049,-39.424945 Z M 157.83012,-39.266817 A 1.3805824,1.3805824 0 0 1 157.83063,-39.266817 1.3805824,1.3805824 0 0 1 157.8451,-39.266817 1.3805824,1.3805824 0 0 1 158.93702,-38.730933 H 156.75576 A 1.3805824,1.3805824 0 0 1 157.83012,-39.266817 Z M 150.63366,-39.247696 A 0.4503906,0.4503906 0 0 0 150.41041,-38.859605 0.4503906,0.4503906 0 0 0 150.51583,-38.569701 L 149.97581,-37.632809 A 0.38837889,0.38837889 0 0 0 149.93447,-37.635391 0.38837889,0.38837889 0 0 0 149.57325,-37.388379 1.3805821,1.3805821 0 0 1 149.47972,-37.886539 1.3805821,1.3805821 0 0 1 150.63366,-39.247696 Z M 151.09099,-39.246145 A 1.3805821,1.3805821 0 0 1 152.24079,-37.886539 1.3805821,1.3805821 0 0 1 152.14777,-37.390445 0.38837889,0.38837889 0 0 0 151.78604,-37.635391 0.38837889,0.38837889 0 0 0 151.74522,-37.632809 L 151.20416,-38.568666 A 0.4503906,0.4503906 0 0 1 151.20468,-38.569185 0.4503906,0.4503906 0 0 0 151.31113,-38.859605 0.4503906,0.4503906 0 0 0 151.09099,-39.246145 Z M 156.79555,-38.498388 H 157.59085 A 0.27500001,0.27500003 0 0 0 157.57018,-38.394002 0.27500001,0.27500003 0 0 0 157.8451,-38.119084 0.27500001,0.27500003 0 0 0 158.12105,-38.394002 0.27500001,0.27500003 0 0 0 158.10038,-38.498388 H 158.89413 L 158.49157,-37.802822 A 0.27500001,0.27500003 0 0 0 158.27608,-37.906176 0.27500001,0.27500003 0 0 0 158.00116,-37.63074 0.27500001,0.27500003 0 0 0 158.23474,-37.359439 L 157.84458,-36.684029 157.45391,-37.358923 A 0.27500001,0.27500003 0 0 0 157.69007,-37.63074 0.27500001,0.27500003 0 0 0 157.41515,-37.906176 0.27500001,0.27500003 0 0 0 157.19811,-37.800756 Z M 150.71737,-38.432758 A 0.4503906,0.4503906 0 0 0 150.77267,-38.418288 V -37.311896 H 150.3174 A 0.38837889,0.38837889 0 0 0 150.19802,-37.531005 Z M 151.00262,-38.432242 151.52197,-37.531005 A 0.38837889,0.38837889 0 0 0 151.40363,-37.311896 H 150.94888 V -38.418288 A 0.4503906,0.4503906 0 0 0 151.00262,-38.432242 Z M 156.57231,-38.420357 157.6694,-36.518664 A 1.3805823,1.3805823 0 0 1 156.46482,-37.886539 1.3805823,1.3805823 0 0 1 156.57231,-38.420357 Z M 159.11738,-38.419322 A 1.3805824,1.3805824 0 0 1 159.22641,-37.886539 1.3805824,1.3805824 0 0 1 158.01925,-36.518664 Z M 150.27967,-37.069535 H 150.77267 V -36.510396 A 1.3805822,1.3805822 0 0 1 149.94067,-36.858693 0.38837889,0.38837889 0 0 0 150.27967,-37.069535 Z M 150.94888,-37.069535 H 151.44084 A 0.38837889,0.38837889 0 0 0 151.78036,-36.858693 1.3805822,1.3805822 0 0 1 150.94888,-36.510396 Z"
         style="display:inline;opacity:1;fill:#000000;fill-opacity:1;stroke:none;stroke-width:0.01;stroke-linecap:round;stroke-linejoin:miter;stroke-miterlimit:4;stroke-dasharray:none;stroke-opacity:1;paint-order:normal" />
      <path
         inkscape:connector-curvature="0"
         id="path10299-4"
         d="M 158.03221,-44.845358 A 0.1842713,0.1842713 0 0 0 157.84773,-44.660878 0.1842713,0.1842713 0 0 0 158.03221,-44.476388 0.1842713,0.1842713 0 0 0 158.21618,-44.660878 0.1842713,0.1842713 0 0 0 158.03221,-44.845358 Z"
         style="display:inline;opacity:1;fill:#000000;fill-opacity:1;stroke:none;stroke-width:0.01;stroke-linecap:round;stroke-linejoin:miter;stroke-miterlimit:4;stroke-dasharray:none;stroke-opacity:1;paint-order:normal" />
      <path
         inkscape:connector-curvature="0"
         id="path8265-3"
         d="M 154.28804,-49.683568 A 7.8719765,7.8719765 0 0 0 146.41617,-41.811189 7.8719765,7.8719765 0 0 0 154.28804,-33.939308 7.8719765,7.8719765 0 0 0 162.15991,-41.811189 7.8719765,7.8719765 0 0 0 154.28804,-49.683568 Z M 154.28804,-49.137868 A 7.3263673,7.3263673 0 0 1 161.61421,-41.811189 7.3263673,7.3263673 0 0 1 154.28804,-34.485019 7.3263673,7.3263673 0 0 1 146.96187,-41.811189 7.3263673,7.3263673 0 0 1 154.28804,-49.137868 Z"
         style="display:inline;opacity:1;fill:#000000;fill-opacity:1;stroke:none;stroke-width:0.26499999;stroke-linecap:round;stroke-linejoin:miter;stroke-miterlimit:4;stroke-dasharray:none;stroke-opacity:0.51010102;paint-order:normal" />
    </g>
  </g>
  <g
     id="g10152"
     inkscape:groupmode="layer"
     inkscape:label="Dwgs.User-disabled"
     transform="translate(-127.05996,68.515902)" />
  <g
     id="g10154"
     inkscape:groupmode="layer"
     inkscape:label="Cmts.User-disabled"
     transform="translate(-127.05996,68.515902)" />
  <g
     id="g10156"
     inkscape:groupmode="layer"
     inkscape:label="Eco1.User-disabled"
     transform="translate(-127.05996,68.515902)" />
  <g
     id="g10158"
     inkscape:groupmode="layer"
     inkscape:label="Eco2.User-disabled"
     transform="translate(-127.05996,68.515902)" />
  <g
     id="g10160"
     inkscape:groupmode="layer"
     inkscape:label="Edge.Cuts"
     transform="translate(-127.05996,68.515902)" />
  <g
     id="g10162"
     inkscape:groupmode="layer"
     inkscape:label="Margin-disabled"
     transform="translate(-127.05996,68.515902)" />
  <g
     id="g10164"
     inkscape:groupmode="layer"
     inkscape:label="B.CrtYd-disabled"
     transform="translate(-127.05996,68.515902)" />
  <g
     id="g10166"
     inkscape:groupmode="layer"
     inkscape:label="F.CrtYd-disabled"
     transform="translate(-127.05996,68.515902)" />
  <g
     id="g10168"
     inkscape:groupmode="layer"
     inkscape:label="B.Fab-disabled"
     transform="translate(-127.05996,68.515902)" />
  <g
     id="g10170"
     inkscape:groupmode="layer"
     inkscape:label="F.Fab-disabled"
     transform="translate(-127.05996,68.515902)" />
  <g
     id="g10172"
     inkscape:groupmode="layer"
     inkscape:label="Drill"
     transform="translate(-127.05996,68.515902)" />
</svg>
